<?xml version="1.0" encoding="UTF-8" standalone="no"?>
<!-- Created with Inkscape (http://www.inkscape.org/) -->

<svg
   width="210mm"
   height="297mm"
   viewBox="0 0 210 297"
   version="1.1"
   id="svg1"
   inkscape:version="1.3.2 (091e20e, 2023-11-25, custom)"
   sodipodi:docname="icons.svg"
   xmlns:inkscape="http://www.inkscape.org/namespaces/inkscape"
   xmlns:sodipodi="http://sodipodi.sourceforge.net/DTD/sodipodi-0.dtd"
   xmlns="http://www.w3.org/2000/svg"
   xmlns:svg="http://www.w3.org/2000/svg">
  <sodipodi:namedview
     id="namedview1"
     pagecolor="#505050"
     bordercolor="#ffffff"
     borderopacity="1"
     inkscape:showpageshadow="0"
     inkscape:pageopacity="0"
     inkscape:pagecheckerboard="1"
     inkscape:deskcolor="#505050"
     inkscape:document-units="mm"
     inkscape:zoom="6.4818462"
     inkscape:cx="70.736019"
     inkscape:cy="143.55478"
     inkscape:window-width="3840"
     inkscape:window-height="2054"
     inkscape:window-x="-11"
     inkscape:window-y="-11"
     inkscape:window-maximized="1"
     inkscape:current-layer="layer1" />
  <defs
     id="defs1" />
  <g
     inkscape:label="Layer 1"
     inkscape:groupmode="layer"
     id="layer1">
    <path
       id="rect14"
       style="fill:#ffffff;stroke-width:0.25;stroke-linecap:round"
       d="M 0.99993896 0 C 0.44593952 7.8332324e-17 0 0.44593952 0 0.99993896 L 0 5.0002116 C 7.8332324e-17 5.554211 0.44593952 6.0001506 0.99993896 6.0001506 L 5.0002116 6.0001506 C 5.554211 6.0001506 6.0001506 5.554211 6.0001506 5.0002116 L 6.0001506 0.99993896 C 6.0001506 0.44593952 5.554211 0 5.0002116 0 L 0.99993896 0 z M 3.4282145 1.1637533 C 3.8513912 1.254899 4.1996748 1.4729252 4.473112 1.8179769 C 4.7465492 2.1565182 4.8829061 2.5472905 4.8829061 2.9899984 C 4.8829061 3.4327063 4.7465492 3.8262698 4.473112 4.1713216 C 4.1996748 4.5098629 3.8513912 4.724581 3.4282145 4.8157267 L 3.4282145 4.3862956 C 3.7342037 4.2951499 3.9814861 4.1224037 4.1702881 3.8684977 C 4.3656004 3.6145917 4.4632935 3.3220293 4.4632935 2.9899984 C 4.4632935 2.6579675 4.3656004 2.3648883 4.1702881 2.1109823 C 3.9814861 1.8570762 3.7342037 1.6843301 3.4282145 1.5931844 L 3.4282145 1.1637533 z M 3.0080851 1.3198161 L 3.0080851 4.6596639 L 1.9631877 3.6147664 L 1.1332642 3.6147664 L 1.1332642 2.3647135 L 1.9631877 2.3647135 L 3.0080851 1.3198161 z M 3.4282145 2.1497396 C 3.5714435 2.2213541 3.6917766 2.3388958 3.7894328 2.5016561 C 3.8935993 2.6644163 3.9454956 2.8272381 3.9454956 2.9899984 C 3.9454956 3.380623 3.7732662 3.6604697 3.4282145 3.8297404 L 3.4282145 2.1497396 z " />
    <path
       id="rect14-5"
       style="fill:#ffffff;stroke-width:0.25;stroke-linecap:round"
       d="M 0.99993896 7.4998006 C 0.44593952 7.4998006 0 7.9462569 0 8.5002563 L 0 12.500012 C 7.8332324e-17 13.054012 0.44593952 13.499951 0.99993896 13.499951 L 5.0002116 13.499951 C 5.554211 13.499951 6.0001506 13.054012 6.0001506 12.500012 L 6.0001506 8.5002563 C 6.0001506 7.9462569 5.554211 7.4998006 5.0002116 7.4998006 L 0.99993896 7.4998006 z M 3.4282145 8.8196167 L 3.4282145 12.159465 L 2.3833171 11.114567 L 1.5528768 11.114567 L 1.5528768 9.8650309 L 2.3833171 9.8650309 L 3.4282145 8.8196167 z M 3.8380086 9.650057 C 3.9812377 9.7216715 4.1053956 9.8420048 4.2095622 10.011275 C 4.3137287 10.174036 4.365625 10.333549 4.365625 10.489799 C 4.365625 10.873913 4.1895708 11.15376 3.8380086 11.329541 L 3.8380086 9.650057 z " />
    <path
       id="rect14-6"
       style="fill:#ffffff;stroke-width:0.25;stroke-linecap:round"
       d="M 0.99993896 15.000118 C 0.44593952 15.000118 0 15.446058 0 16.000057 L 0 19.999813 C 7.8332324e-17 20.553812 0.44593952 20.999752 0.99993896 20.999752 L 5.0002116 20.999752 C 5.554211 20.999752 6.0001506 20.553812 6.0001506 19.999813 L 6.0001506 16.000057 C 6.0001506 15.446058 5.554211 15.000118 5.0002116 15.000118 L 0.99993896 15.000118 z M 3.0080851 15.909623 C 3.1773558 15.909623 3.3241538 15.971444 3.4478516 16.095142 C 3.5715494 16.218839 3.63337 16.365638 3.63337 16.534908 L 3.63337 17.8139 L 2.3833171 16.573665 L 2.3833171 16.534908 C 2.3833171 16.365638 2.4451376 16.218839 2.5688354 16.095142 C 2.6925332 15.971444 2.8388144 15.909623 3.0080851 15.909623 z M 1.396814 16.114779 L 4.8829061 19.600871 L 4.6193563 19.864937 L 3.7501587 18.99574 C 3.6069296 19.086886 3.4280841 19.148706 3.2132406 19.181258 L 3.2132406 19.864937 L 2.8029297 19.864937 L 2.8029297 19.181258 C 2.4578779 19.129175 2.1620074 18.972969 1.9146118 18.712553 C 1.6737267 18.445626 1.5528768 18.136006 1.5528768 17.784444 L 1.9047933 17.784444 C 1.9047933 18.090433 2.0118939 18.344848 2.2267375 18.546672 C 2.4480914 18.741983 2.7086062 18.83916 3.0080851 18.83916 C 3.1708454 18.83916 3.330359 18.803805 3.4866089 18.73219 L 3.1450277 18.390092 C 3.0929444 18.403112 3.0471476 18.409729 3.0080851 18.409729 C 2.8388144 18.409729 2.6925332 18.347908 2.5688354 18.224211 C 2.4451376 18.100513 2.3833171 17.953715 2.3833171 17.784444 L 2.3833171 17.628381 L 1.1332642 16.378328 L 1.396814 16.114779 z M 4.1118937 17.784444 L 4.4632935 17.784444 C 4.4632935 18.025329 4.4014729 18.25328 4.2777751 18.468123 L 4.0240438 18.204574 C 4.0826377 18.074365 4.1118937 17.934183 4.1118937 17.784444 z " />
    <path
       id="rect14-8"
       style="fill:#ffffff;stroke-width:0.25;stroke-linecap:round"
       d="M 0.99993896 22.499919 C 0.44593952 22.499919 0 22.945858 0 23.499858 L 0 27.50013 C 7.8332324e-17 28.05413 0.44593952 28.500069 0.99993896 28.500069 L 5.0002116 28.500069 C 5.554211 28.500069 6.0001506 28.05413 6.0001506 27.50013 L 6.0001506 23.499858 C 6.0001506 22.945858 5.554211 22.499919 5.0002116 22.499919 L 0.99993896 22.499919 z M 1.3384196 23.194967 L 3.8380086 23.194967 L 3.8380086 23.614579 L 1.3384196 23.614579 L 1.3384196 26.534814 L 0.92810872 26.534814 L 0.92810872 23.614579 C 0.92810872 23.503902 0.96728928 23.406209 1.0454142 23.321574 C 1.1300495 23.236939 1.2277426 23.194967 1.3384196 23.194967 z M 2.1781616 24.034709 L 4.4632935 24.034709 C 4.5739704 24.034709 4.6716634 24.077197 4.7562988 24.161833 C 4.8409341 24.239957 4.8829061 24.334342 4.8829061 24.44502 L 4.8829061 27.364738 C 4.8829061 27.475415 4.8409341 27.573108 4.7562988 27.657743 C 4.6716634 27.742379 4.5739704 27.784867 4.4632935 27.784867 L 2.1781616 27.784867 C 2.0674846 27.784867 1.9697916 27.742379 1.8851562 27.657743 C 1.8005209 27.573108 1.7580322 27.475415 1.7580322 27.364738 L 1.7580322 24.44502 C 1.7580322 24.334342 1.8005209 24.239957 1.8851562 24.161833 C 1.9697916 24.077197 2.0674846 24.034709 2.1781616 24.034709 z M 2.1781616 24.44502 L 2.1781616 27.364738 L 4.4632935 27.364738 L 4.4632935 24.44502 L 2.1781616 24.44502 z " />
    <path
       id="rect14-56"
       style="fill:#ffffff;stroke-width:0.25;stroke-linecap:round"
       d="M 0.99993896 30.000236 C 0.44593952 30.000236 0 30.446176 0 31.000175 L 0 34.999931 C 7.8332324e-17 35.55393 0.44593952 35.99987 0.99993896 35.99987 L 5.0002116 35.99987 C 5.554211 35.99987 6.0001506 35.55393 6.0001506 34.999931 L 6.0001506 31.000175 C 6.0001506 30.446176 5.554211 30.000236 5.0002116 30.000236 L 0.99993896 30.000236 z M 3.0080851 30.489612 C 3.1448037 30.489612 3.2651368 30.528793 3.3693034 30.606917 C 3.4734699 30.685043 3.548523 30.786043 3.5940959 30.909741 L 4.4632935 30.909741 C 4.5739704 30.909741 4.6716634 30.95223 4.7562988 31.036865 C 4.8409341 31.11499 4.8829061 31.209375 4.8829061 31.320052 L 4.8829061 34.6599 C 4.8829061 34.770576 4.8409341 34.868269 4.7562988 34.952905 C 4.6716634 35.03103 4.5739704 35.069694 4.4632935 35.069694 L 1.5528768 35.069694 C 1.4421998 35.069694 1.3445067 35.03103 1.2598714 34.952905 C 1.1752361 34.868269 1.1332642 34.770576 1.1332642 34.6599 L 1.1332642 31.320052 C 1.1332642 31.209375 1.1752361 31.11499 1.2598714 31.036865 C 1.3445067 30.95223 1.4421998 30.909741 1.5528768 30.909741 L 2.4220744 30.909741 C 2.467647 30.786043 2.5427 30.685043 2.6468669 30.606917 C 2.7510334 30.528793 2.8713665 30.489612 3.0080851 30.489612 z M 3.0080851 30.909741 C 2.9494912 30.909741 2.900903 30.929076 2.8618408 30.968136 C 2.8227782 31.007196 2.8029297 31.056301 2.8029297 31.114897 C 2.8029297 31.17349 2.8227782 31.222078 2.8618408 31.261141 C 2.9009034 31.300201 2.9494916 31.320052 3.0080851 31.320052 C 3.0666791 31.320052 3.115784 31.300201 3.1548462 31.261141 C 3.1939088 31.222081 3.2132406 31.173493 3.2132406 31.114897 C 3.2132406 31.056303 3.1939088 31.007198 3.1548462 30.968136 C 3.1157836 30.929076 3.0666787 30.909741 3.0080851 30.909741 z M 1.5528768 31.320052 L 1.5528768 34.6599 L 4.4632935 34.6599 L 4.4632935 31.320052 L 4.0529826 31.320052 L 4.0529826 31.94482 L 1.9631877 31.94482 L 1.9631877 31.320052 L 1.5528768 31.320052 z " />
    <path
       id="rect14-9"
       style="fill:#ffffff;stroke-width:0.25;stroke-linecap:round"
       d="M 0.99993896 37.500037 C 0.44593952 37.500037 0 37.945976 0 38.499976 L 0 42.500248 C 7.8332324e-17 43.054248 0.44593952 43.500187 0.99993896 43.500187 L 5.0002116 43.500187 C 5.554211 43.500187 6.0001506 43.054248 6.0001506 42.500248 L 6.0001506 38.499976 C 6.0001506 37.945976 5.554211 37.500037 5.0002116 37.500037 L 0.99993896 37.500037 z M 2.1781616 39.034827 L 4.4632935 40.490035 L 2.1781616 41.944727 L 2.1781616 39.034827 z " />
    <path
       id="rect14-55"
       style="fill:#ffffff;stroke-width:0.25;stroke-linecap:round"
       d="M 0.99993896 44.999837 C 0.44593952 44.999837 0 45.445777 0 45.999776 L 0 50.000049 C 7.8332324e-17 50.554048 0.44593952 50.999988 0.99993896 50.999988 L 5.0002116 50.999988 C 5.554211 50.999988 6.0001506 50.554048 6.0001506 50.000049 L 6.0001506 45.999776 C 6.0001506 45.445777 5.554211 44.999837 5.0002116 44.999837 L 0.99993896 44.999837 z M 3.0080851 46.534627 L 4.3950806 48.614604 L 1.6216064 48.614604 L 3.0080851 46.534627 z M 1.5528768 49.034733 L 4.4632935 49.034733 L 4.4632935 49.445044 L 1.5528768 49.445044 L 1.5528768 49.034733 z " />
    <path
       id="rect14-0"
       style="fill:#ffffff;stroke-width:0.25;stroke-linecap:round"
       d="M 0.99993896 52.500155 C 0.44593952 52.500155 0 52.946094 0 53.500094 L 0 57.499849 C 7.8332324e-17 58.053849 0.44593952 58.499788 0.99993896 58.499788 L 5.0002116 58.499788 C 5.554211 58.499788 6.0001506 58.053849 6.0001506 57.499849 L 6.0001506 53.500094 C 6.0001506 52.946094 5.554211 52.500155 5.0002116 52.500155 L 0.99993896 52.500155 z M 1.5528768 54.034945 L 2.5884725 54.034945 L 2.5884725 54.444739 L 1.9631877 54.444739 L 1.9631877 55.070024 L 1.5528768 55.070024 L 1.5528768 54.034945 z M 3.4282145 54.034945 L 4.4632935 54.034945 L 4.4632935 55.070024 L 4.0529826 55.070024 L 4.0529826 54.444739 L 3.4282145 54.444739 L 3.4282145 54.034945 z M 1.5528768 55.909766 L 1.9631877 55.909766 L 1.9631877 56.534534 L 2.5884725 56.534534 L 2.5884725 56.944845 L 1.5528768 56.944845 L 1.5528768 55.909766 z M 4.0529826 55.909766 L 4.4632935 55.909766 L 4.4632935 56.944845 L 3.4282145 56.944845 L 3.4282145 56.534534 L 4.0529826 56.534534 L 4.0529826 55.909766 z " />
  </g>
</svg>
