<?xml version="1.0" encoding="UTF-8" standalone="no"?>
<!-- Created with Inkscape (http://www.inkscape.org/) -->

<svg
   width="210mm"
   height="297mm"
   viewBox="0 0 210 297"
   version="1.1"
   id="svg1"
   xml:space="preserve"
   inkscape:version="1.3.2 (091e20e, 2023-11-25, custom)"
   sodipodi:docname="stickers.svg"
   xmlns:inkscape="http://www.inkscape.org/namespaces/inkscape"
   xmlns:sodipodi="http://sodipodi.sourceforge.net/DTD/sodipodi-0.dtd"
   xmlns="http://www.w3.org/2000/svg"
   xmlns:svg="http://www.w3.org/2000/svg"><sodipodi:namedview
     id="namedview1"
     pagecolor="#505050"
     bordercolor="#ffffff"
     borderopacity="1"
     inkscape:showpageshadow="0"
     inkscape:pageopacity="0"
     inkscape:pagecheckerboard="1"
     inkscape:deskcolor="#505050"
     inkscape:document-units="mm"
     inkscape:zoom="9.1667148"
     inkscape:cx="28.363487"
     inkscape:cy="14.78174"
     inkscape:window-width="3840"
     inkscape:window-height="2054"
     inkscape:window-x="-11"
     inkscape:window-y="-11"
     inkscape:window-maximized="1"
     inkscape:current-layer="layer1" /><defs
     id="defs1" /><g
     inkscape:label="Layer 1"
     inkscape:groupmode="layer"
     id="layer1"><path
       style="fill:#ffffff;stroke-width:0.392281"
       d="M 0.00208,5.9985521 C 9.3e-4,5.9974021 0,4.647255 0,2.9982292 V 0 H 3 6 L 5.9992019,2.9995368 5.9984173,5.9990735 3.0012972,5.9998581 C 1.3528809,6.0002897 0.0032347,5.999702 0.0020831,5.9985636 Z M 0.7503513,5.3337302 0.8025909,5.186225 1.0500853,5.1854403 1.2975798,5.1846557 1.3493581,5.3308386 c 0.028479,0.080401 0.052574,0.1474925 0.053547,0.1490931 0.00106,0.00177 0.073898,0.00258 0.1825316,0.00213 L 1.7661992,5.4812357 1.4991786,4.8119443 1.2321579,4.1426529 1.0500964,4.1434768 0.8680348,4.1443005 0.6007311,4.8135919 0.3334272,5.4828834 0.5157694,5.4820594 0.6981118,5.4812357 Z M 0.8854775,4.9479065 c 0.0046,-0.020392 0.1646422,-0.4775364 0.1661913,-0.4746804 0.00159,0.0029 0.072795,0.2090307 0.1582455,0.458003 l 0.00727,0.021184 H 1.0508238 c -0.1429608,0 -0.1662183,-6.277e-4 -0.1653464,-0.00452 z M 2.2342948,5.209763 V 4.9367212 h 0.055983 c 0.084412,0 0.114393,0.00948 0.1580657,0.049905 0.03537,0.03275 0.069676,0.081325 0.096887,0.1371804 0.00681,0.014001 0.046125,0.1001502 0.087343,0.1914431 l 0.074941,0.1659867 0.1837251,8.237e-4 0.1837252,8.24e-4 -0.010457,-0.022778 C 2.9862823,5.2896929 2.8762738,5.056333 2.8614357,5.0293044 2.82027,4.9543184 2.7754629,4.8997507 2.7312934,4.8708131 l -0.022352,-0.014645 0.034905,-0.017457 C 2.7883134,4.8164773 2.8231224,4.7903057 2.8509262,4.7582081 2.9072082,4.6932356 2.9370852,4.6153003 2.9371832,4.533203 2.9372559,4.471045 2.9245341,4.4174983 2.8961802,4.3606188 2.8425195,4.2529736 2.7413028,4.1770234 2.6249849,4.1571214 2.5603292,4.1460592 2.5311782,4.1451131 2.2084056,4.1436027 l -0.3224369,-0.00148 v 0.6703375 0.6703553 h 0.174163 0.1741631 z m 0,-0.6671529 V 4.3870183 l 0.1137551,0.00126 c 0.1062156,0.00118 0.1152844,0.00173 0.1368271,0.0082 0.033195,0.00997 0.04654,0.017685 0.068008,0.03933 0.022016,0.022197 0.031455,0.043105 0.036255,0.080315 0.00704,0.054499 -0.00924,0.1003881 -0.048923,0.1379168 -0.02068,0.01956 -0.054988,0.036441 -0.083118,0.040898 -0.011219,0.00177 -0.065939,0.00325 -0.1216004,0.00325 l -0.1012028,2.36e-5 z m 1.3493716,0.530632 c 0,-0.2274379 0.00122,-0.4095627 0.00272,-0.4095627 0.00148,0 0.08287,0.097448 0.1808479,0.2165505 l 0.1781363,0.2165503 h 0.024167 0.024168 L 4.1719663,4.8802299 C 4.2700133,4.7611272 4.3514484,4.6636794 4.352934,4.6636794 c 0.00148,0 0.00272,0.1828251 0.00272,0.4095627 v 0.4095627 h 0.1678709 0.167887 V 4.812754 4.1427031 H 4.5459018 4.4003925 L 4.1858079,4.3967477 C 4.0677865,4.5364721 3.9702096,4.6508673 3.9689706,4.650959 3.9677154,4.651051 3.8712475,4.5367306 3.7545609,4.3969144 L 3.5423993,4.1427031 H 3.3951459 3.2478926 V 4.812754 5.4828048 H 3.4157795 3.5836664 Z M 5.6234143,5.146995 V 4.8111848 H 5.2892096 4.9550047 v 0.33581 0.33581 h 0.3342049 0.3342047 z m 0.00942,-1.0466601 V 4.0579664 H 5.4869081 5.3409877 l -5.45e-5,-0.06983 c -6.23e-5,-0.080089 -0.00331,-0.1015681 -0.020405,-0.1363785 -0.029937,-0.060846 -0.081781,-0.088881 -0.1641091,-0.088748 -0.097574,1.583e-4 -0.1556633,0.040031 -0.1763883,0.1210755 -0.00562,0.022017 -0.00619,0.035 -0.00619,0.1414294 V 4.1427031 H 5.3033304 5.6328281 Z M 5.0460088,3.9921771 c 0,-0.058571 7.061e-4,-0.06767 0.00642,-0.08293 0.012309,-0.032898 0.040982,-0.053355 0.083338,-0.059459 0.0506,-0.00729 0.096369,0.00998 0.1162209,0.043859 0.013895,0.02371 0.016752,0.041673 0.016793,0.1054743 l 3.72e-5,0.058846 H 5.1574096 5.046008 Z M 5.4945011,3.6505963 C 5.5344501,3.641634 5.5719461,3.6232256 5.5949639,3.60127 5.6308559,3.567034 5.6457649,3.524359 5.6459309,3.4553912 5.6460548,3.4045352 5.6405309,3.3750432 5.6249479,3.343387 5.6032329,3.299265 5.5603639,3.268794 5.4991696,3.25399 5.4728026,3.2476 5.4619366,3.24717 5.3080343,3.24597 5.1172014,3.24449 5.105359,3.2455778 5.0585551,3.26901 c -0.047305,0.023684 -0.077218,0.061882 -0.091164,0.1164214 -0.00766,0.029981 -0.00836,0.093221 -0.00136,0.1270475 0.012504,0.060662 0.054169,0.1101453 0.1104852,0.1312182 0.038484,0.014402 0.054918,0.015449 0.2268321,0.014468 0.1511202,-8.631e-4 0.1635297,-0.00133 0.1911703,-0.00756 z M 5.1254559,3.5699337 c -0.057786,-0.012561 -0.089618,-0.046618 -0.094857,-0.1014869 -0.00683,-0.071603 0.026849,-0.1199544 0.09341,-0.1340635 0.025532,-0.00541 0.29081,-0.00645 0.3331701,-0.00129 0.057867,0.00704 0.092556,0.025743 0.1086268,0.058596 0.00762,0.015554 0.00904,0.022765 0.010077,0.05088 6.669e-4,0.018441 -3.923e-4,0.039931 -0.00247,0.049169 -0.010104,0.045164 -0.048379,0.071396 -0.1162445,0.079674 -0.040827,0.00497 -0.307487,0.00379 -0.331723,-0.00148 z M 5.3069431,3.0977435 c 0.1771698,-0.043225 0.3229725,-0.078592 0.3240061,-0.078592 0.00103,0 0.00188,-0.023209 0.00188,-0.051573 0,-0.046428 -5.493e-4,-0.051728 -0.00549,-0.05314 -0.00302,-8.629e-4 -0.1311715,-0.030734 -0.2847803,-0.066383 -0.1536086,-0.035649 -0.2798435,-0.06537 -0.2805223,-0.066046 -6.668e-4,-6.749e-4 7.454e-4,-0.00189 0.00314,-0.00268 0.00562,-0.00189 0.5624581,-0.1242191 0.5654196,-0.1242191 0.00122,0 0.00225,-0.023302 0.00225,-0.051784 0,-0.028482 -7.845e-4,-0.051784 -0.00177,-0.051784 -9.774e-4,0 -0.1485544,-0.038838 -0.3279441,-0.086306 C 5.1237426,2.4177684 4.97627,2.3789304 4.9754152,2.3789304 c -8.629e-4,0 -0.00154,0.01942 -0.00154,0.043153 l 2.84e-5,0.043153 0.2816138,0.065595 c 0.1548878,0.036076 0.2844386,0.066643 0.2878903,0.067922 0.00586,0.00218 0.00576,0.00246 -0.00158,0.00432 -0.013343,0.00339 -0.5623831,0.117943 -0.5652796,0.117943 -0.00148,0 -0.00276,0.024561 -0.00276,0.054583 0,0.053989 7.68e-5,0.054601 0.00706,0.056344 0.00387,9.678e-4 0.1326742,0.030832 0.2862017,0.066361 0.1535277,0.035529 0.2796671,0.065125 0.2803097,0.065767 0.00188,0.0019 9.774e-4,0.00212 -0.2864383,0.064437 -0.1518828,0.032938 -0.2786217,0.060645 -0.2816421,0.061573 -0.00489,0.00148 -0.00549,0.00652 -0.00549,0.045627 0,0.040381 4.314e-4,0.043805 0.00549,0.042289 0.00302,-9.023e-4 0.1504486,-0.037018 0.3276184,-0.08024 z M 5.6328285,2.1372582 V 1.9646456 H 5.5967405 5.5606525 V 2.0948897 2.2251338 H 5.4461132 5.3315735 V 2.105874 1.9866145 H 5.2954857 5.2593978 V 2.105874 2.2251338 H 5.1527034 5.0460088 V 2.0980282 1.9709225 h -0.036088 -0.036087 v 0.169474 0.1694743 h 0.3294966 0.3294977 z m 0,-0.3122719 V 1.7826178 H 5.4802762 5.3277243 l 0.00144,-0.065122 c 0.00158,-0.070181 0.00379,-0.081747 0.019879,-0.1028116 0.00473,-0.00619 0.016632,-0.015004 0.027585,-0.020395 0.019064,-0.0094 0.02013,-0.00953 0.1055537,-0.014116 0.091056,-0.00489 0.1180825,-0.00803 0.1382534,-0.016112 l 0.012381,-0.00495 v -0.043809 c 0,-0.040264 -4.315e-4,-0.043674 -0.00549,-0.042142 -0.026141,0.00793 -0.09225,0.016393 -0.1611452,0.020636 -0.1160193,0.00714 -0.1497442,0.022003 -0.1670804,0.073619 -0.00286,0.00851 -0.0052,0.018662 -0.0052,0.022568 0,0.014274 -0.00549,0.00992 -0.011175,-0.00886 -0.020335,-0.067196 -0.0814,-0.1045628 -0.1612296,-0.098666 -0.077713,0.00575 -0.1302397,0.047396 -0.144203,0.1143616 -0.00221,0.010553 -0.00345,0.063025 -0.00345,0.1435824 V 1.8673547 H 5.3033477 5.6328454 Z M 5.0461464,1.7096496 c 9.98e-5,-0.0527 0.00129,-0.07624 0.00434,-0.084743 0.014627,-0.040992 0.064654,-0.064926 0.117473,-0.056203 0.041388,0.00683 0.067675,0.023814 0.080923,0.052263 0.00701,0.015035 0.00732,0.018872 0.00735,0.088683 l 3.26e-5,0.072968 H 5.1511342 5.0460088 Z M 5.6328285,1.1956321 V 1.0229166 l -0.035302,8.867e-4 -0.035302,8.864e-4 -8.238e-4,0.1310288 -8.238e-4,0.1310286 H 5.4460786 5.3315735 V 1.1674891 1.0482294 H 5.2954857 5.2593978 V 1.1674891 1.2867487 H 5.1527034 5.0460088 V 1.1580739 1.029399 h -0.036088 -0.036088 v 0.1694742 0.1694741 h 0.329498 0.3294977 z M 5.6328101,0.8246176 C 5.6327897,0.71776 5.629476,0.6821714 5.6159588,0.643282 5.5863785,0.5582176 5.5297119,0.527704 5.3825621,0.5176056 c -0.059993,-0.00412 -0.1634909,-0.00242 -0.2138892,0.0035 -0.038155,0.00447 -0.082751,0.015866 -0.1051631,0.026841 -0.035961,0.017609 -0.066348,0.05458 -0.081019,0.098567 -0.00645,0.019325 -0.00685,0.027137 -0.00795,0.1482899 l -0.00114,0.1278891 h 0.3297099 0.329717 z m -0.586262,-0.05963 c 0.00103,-0.074369 0.00122,-0.076503 0.00918,-0.09351 0.01647,-0.035123 0.042052,-0.053532 0.090034,-0.064794 0.021294,-0.00499 0.039783,-0.00567 0.1544203,-0.00567 0.116095,0 0.1329547,6.356e-4 0.1553347,0.00587 0.043935,0.010257 0.071204,0.028415 0.08742,0.058213 0.013651,0.02508 0.017589,0.051243 0.017652,0.1171693 l 5.41e-5,0.058846 H 5.3030818 5.0455146 Z"
       id="path1"
       sodipodi:nodetypes="cscccccsccccccsccccccccccccscscsssccssssccccssccssssccccccccccccssccccssscccssscccccccssccccccccscccccccccccccscsssccccsccsscccscsssscsccssccccccsccscccssssccsssssccsccsssscccsccccccccccccccccccccccccccccccccccssccscscscscsccccscssccccscccccccccccccccccccccccccscssssccccsccssccccccc" /><path
       id="rect2"
       style="fill:#ffffff;stroke-width:0.25;stroke-linecap:round"
       d="M 0.50022786 6.6497233 C 0.22322814 6.6497233 0 6.8729514 0 7.1499512 L 0 12.149646 C 3.9166162e-17 12.426646 0.22322814 12.649874 0.50022786 12.649874 L 5.4999227 12.649874 C 5.7769224 12.649874 6.0001506 12.426646 6.0001506 12.149646 L 6.0001506 7.1499512 C 6.0001506 6.8729514 5.7769224 6.6497233 5.4999227 6.6497233 L 0.50022786 6.6497233 z M 3.4028931 7.6920369 L 4.4193685 7.6920369 L 4.4193685 8.0687581 L 4.4193685 8.4454793 L 4.2074951 8.7421021 C 3.3184112 9.9897485 3.1427194 10.236102 3.1129883 10.275342 L 3.0793986 10.319784 L 3.067513 10.306864 C 3.0396817 10.275242 2.373457 9.4948101 2.3740153 9.4945109 C 2.3743569 9.4943276 2.3908736 9.4912762 2.4107056 9.4872762 C 2.7136667 9.4265697 2.9471454 9.2409549 3.0618286 8.9694784 C 3.1199077 8.8320036 3.1432401 8.6703087 3.1284912 8.5126587 C 3.1022431 8.2331487 2.961244 7.9865005 2.7440186 7.8393148 C 2.6452676 7.7724031 2.5397884 7.7276264 2.4138062 7.6997884 C 2.3999742 7.6967084 2.3886349 7.6936605 2.3879679 7.6930705 C 2.3873596 7.6924613 2.843943 7.6920369 3.4028931 7.6920369 z M 1.8458822 8.1028646 C 2.1850569 8.1022747 2.2317673 8.1031209 2.2784139 8.1095825 C 2.4803905 8.1375975 2.629788 8.2575304 2.6907918 8.4408285 C 2.7186228 8.5243984 2.7257944 8.6118294 2.7114624 8.6955933 C 2.6935474 8.800493 2.6460982 8.8943933 2.5740031 8.9668945 C 2.5357561 9.0053665 2.4963499 9.0334066 2.444812 9.0588786 C 2.3803171 9.0907765 2.3145498 9.1079474 2.2350057 9.1141724 C 2.2184237 9.1155024 2.1121306 9.1162394 1.9466512 9.1162394 L 1.6841349 9.1162394 L 1.6841349 9.2133911 L 1.6841349 9.310026 L 2.2122681 9.939445 C 2.5029465 10.285615 2.740918 10.569513 2.740918 10.570414 C 2.740918 10.571331 2.4644768 10.571965 2.1264852 10.571965 C 1.6366717 10.571965 1.5117605 10.571802 1.5110189 10.569897 L 1.5110189 10.569381 C 1.5105106 10.568081 1.5102271 10.012865 1.5105021 9.3353475 L 1.5110189 8.1033813 L 1.8458822 8.1028646 z M 4.4193685 9.1761841 L 4.4193685 9.87795 L 4.4193685 10.579716 L 3.9222412 10.579716 C 3.5588515 10.579716 3.4245972 10.579265 3.4245972 10.577649 C 3.4245972 10.576449 3.4405712 10.551052 3.4597371 10.521322 C 3.4843181 10.483172 3.6282617 10.280848 3.9485962 9.8335083 C 4.1982693 9.4848433 4.4059506 9.1944634 4.4105835 9.1880697 L 4.4193685 9.1761841 z M 0.50022786 10.869104 L 0.91984049 10.869104 C 1.3774315 10.869104 1.3555229 10.868467 1.3875122 10.879956 C 1.4470911 10.901366 1.5004826 10.949311 1.5285889 11.006563 C 1.5408379 11.031513 1.5460924 11.04905 1.5492594 11.07581 C 1.5542594 11.11989 1.5409861 11.168786 1.5125692 11.211202 C 1.4989032 11.231412 1.4639726 11.269195 1.4479736 11.280965 C 1.4236427 11.298885 1.3945126 11.310675 1.3580566 11.317655 C 1.3486367 11.319455 1.3409037 11.320973 1.3404867 11.321273 C 1.3401284 11.321543 1.3865103 11.385151 1.4433228 11.462349 C 1.5001517 11.539539 1.5468759 11.603633 1.5477091 11.604976 C 1.5502091 11.608576 1.5327814 11.607926 1.4386719 11.600326 C 1.3935089 11.596726 1.3555723 11.593491 1.3544393 11.593091 C 1.3536061 11.592666 1.3052978 11.527983 1.2474691 11.44943 L 1.1425659 11.306803 L 0.89916992 11.306803 L 0.65629069 11.306803 L 0.65629069 11.449947 L 0.65629069 11.593608 L 0.57825928 11.593608 L 0.50022786 11.593608 L 0.50022786 11.231356 L 0.50022786 10.869104 z M 2.977596 10.870654 L 2.9770793 10.949719 L 2.9765625 11.028267 L 2.5564331 11.029301 L 2.1363037 11.030334 L 2.1213175 11.037052 C 2.1014856 11.045852 2.0951287 11.053823 2.0923787 11.073743 C 2.0898787 11.091853 2.0925753 11.108436 2.100647 11.124386 C 2.108147 11.138806 2.1167203 11.147244 2.1285522 11.150224 C 2.1343822 11.151724 2.2319217 11.152291 2.4530802 11.152291 C 2.760499 11.152291 2.7694032 11.152628 2.7879435 11.156425 C 2.8331905 11.165625 2.8733197 11.188355 2.9104167 11.226705 C 2.9854946 11.304295 2.9983265 11.407267 2.9434896 11.489221 C 2.9289076 11.511061 2.8949091 11.546201 2.8742432 11.561051 C 2.8463282 11.581161 2.8122476 11.596406 2.7812256 11.601876 C 2.7737256 11.603276 2.632806 11.603943 2.3481771 11.603943 L 1.9264974 11.603943 L 1.9264974 11.525395 L 1.9264974 11.447363 L 2.3455933 11.446847 L 2.7652059 11.44633 L 2.7807088 11.439612 C 2.8055408 11.428762 2.8122642 11.416545 2.8106812 11.386385 C 2.8099313 11.372045 2.8092094 11.367799 2.8013794 11.352279 C 2.7930494 11.335909 2.7920041 11.334561 2.7822591 11.329541 L 2.7719238 11.324373 L 2.4566976 11.324373 C 2.2412886 11.324373 2.1363593 11.323737 2.1259684 11.322306 C 2.0347255 11.309616 1.9478715 11.225594 1.9290812 11.132654 C 1.9240812 11.108564 1.9257153 11.069567 1.9332153 11.045837 C 1.9437983 11.010117 1.9617947 10.979916 1.9895426 10.950236 C 2.0242066 10.913196 2.0614937 10.889695 2.1078817 10.876855 L 2.1264852 10.871688 L 2.552299 10.871171 L 2.977596 10.870654 z M 4.0969076 10.884607 L 4.0969076 10.963672 L 4.0969076 11.042737 L 3.7501587 11.042737 C 3.4461313 11.042737 3.4015721 11.043208 3.3863566 11.045837 C 3.3380267 11.054237 3.2856145 11.08165 3.2612996 11.11095 C 3.2482177 11.12673 3.233292 11.157196 3.22771 11.178646 C 3.22521 11.187246 3.222662 11.205197 3.220992 11.218437 C 3.215992 11.272817 3.2293827 11.325507 3.2612996 11.373466 C 3.2840476 11.407686 3.3162727 11.428115 3.365686 11.440645 C 3.377185 11.443545 3.411972 11.444279 3.7377563 11.444779 L 4.0963908 11.445296 L 4.0963908 11.523328 L 4.0963908 11.601359 L 3.7413737 11.601359 C 3.4547436 11.601206 3.3835939 11.600875 3.3698201 11.598775 L 3.3693034 11.598775 C 3.306238 11.588807 3.2460477 11.560742 3.1884359 11.514543 C 3.1561049 11.488643 3.1284438 11.456878 3.1052368 11.419458 C 3.0447409 11.321808 3.0369368 11.195418 3.0855998 11.092863 C 3.1073478 11.047043 3.1461608 10.993656 3.1755168 10.969356 C 3.2178467 10.934336 3.2665393 10.909579 3.3186605 10.897009 C 3.3672404 10.885289 3.3482191 10.885874 3.7387899 10.885124 L 4.0969076 10.884607 z M 1.8246948 10.890291 L 1.8246948 11.248926 L 1.8246948 11.60756 L 1.7456299 11.60756 L 1.6665649 11.60756 L 1.6670817 11.249443 L 1.6675985 10.891325 L 1.7461466 10.890808 L 1.8246948 10.890291 z M 4.5557943 10.890808 L 4.646228 10.891325 L 4.8095256 11.169861 C 4.8991855 11.322988 4.9749909 11.45255 4.9779907 11.457699 L 4.9836751 11.467 L 5.1516235 11.179163 L 5.3200887 10.891325 L 5.4100057 10.890808 C 5.4595016 10.890529 5.4999557 10.891002 5.4999227 10.891842 C 5.4998893 10.892659 5.4058912 11.05385 5.2911499 11.249959 L 5.0828939 11.606527 L 4.9836751 11.607043 L 4.8849731 11.60756 L 4.8777384 11.596191 C 4.8634065 11.572491 4.4678191 10.895211 4.4669108 10.892875 C 4.4661442 10.890875 4.4838073 10.890408 4.5557943 10.890808 z M 0.66404215 11.04067 L 0.66404215 11.102681 L 0.66404215 11.164176 L 1.0076904 11.164176 C 1.2653296 11.164176 1.3530736 11.16332 1.3580566 11.161593 C 1.3688896 11.157893 1.375562 11.151865 1.381311 11.140405 C 1.390311 11.122575 1.3931631 11.108799 1.3921631 11.091829 C 1.3913299 11.071149 1.3851072 11.060325 1.3699422 11.052555 C 1.3446102 11.039755 1.3711566 11.04067 1.0004557 11.04067 L 0.66404215 11.04067 z M 4.1987101 11.175545 L 4.3516724 11.175545 L 4.5051514 11.175545 L 4.5051514 11.245825 L 4.5051514 11.316105 L 4.3516724 11.316105 L 4.1987101 11.316105 L 4.1987101 11.245825 L 4.1987101 11.175545 z " /><path
       d="m 14.638617,3.73655 c 0.04304,-0.1045329 0.116831,-0.1783204 0.227513,-0.1783204 0.12298,0 0.215213,0.092235 0.215213,0.2398101 v 2.4472937 c 0,0.547259 0.30745,0.9100488 0.916199,0.9100488 0.553408,0 0.823962,-0.2951511 0.983836,-0.7686224 L 17.989811,3.73655 c 0.03689,-0.1045329 0.12298,-0.1783204 0.227512,-0.1783204 0.12298,0 0.209065,0.092235 0.209065,0.2398101 v 3.2835547 h 0.731729 V 3.7611459 c 0,-0.5411101 -0.307449,-0.9038998 -0.922347,-0.9038998 -0.553408,0 -0.817815,0.295151 -0.977687,0.7686223 l -1.008434,2.6502098 c -0.03689,0.1045328 -0.12298,0.1721714 -0.23366,0.1721714 -0.12298,0 -0.209066,-0.092235 -0.209066,-0.2336612 V 3.7611459 c 0,-0.5411101 -0.307448,-0.9038998 -0.922346,-0.9038998 -0.553409,0 -0.817815,0.295151 -0.977688,0.7686223 l -1.285137,3.455726 h 0.774772 z m 5.521784,-0.8055163 v 4.1505607 h 0.72558 V 2.9310337 Z m 3.449578,0 c -1.2052,0 -1.875438,0.6825367 -1.875438,2.0783549 0,1.3896692 0.664089,2.0722058 1.875438,2.0722058 h 1.604883 V 6.3560149 h -1.604883 c -0.805516,0 -1.149859,-0.3996836 -1.149859,-1.3466263 0,-0.9530917 0.350492,-1.3527753 1.149859,-1.3527753 h 1.604883 V 2.9310337 Z m 2.459587,0 v 0.7255796 h 2.275121 c 0.399685,0 0.578004,0.2521082 0.578004,0.5472591 0,0.295151 -0.166021,0.5780039 -0.578004,0.5780039 h -1.61718 c -0.455025,0 -0.651792,0.1906184 -0.651792,0.6579408 v 1.6417773 h 0.725579 V 5.5812436 c 0,-0.073788 0.03689,-0.1045329 0.104533,-0.1045329 h 1.08222 l 0.946942,1.6048835 h 0.805517 l -0.965389,-1.660224 c 0.633345,-0.1783204 0.879303,-0.7317285 0.879303,-1.2482427 0,-0.6640897 -0.399683,-1.2420938 -1.334329,-1.2420938 z m 6.032155,0 c -1.2052,0 -1.875439,0.6886857 -1.875439,2.0845039 0,1.3896692 0.66409,2.0660568 1.875439,2.0660568 h 0.565706 c 1.211349,0 1.875438,-0.6763876 1.875438,-2.0660568 0,-1.3958182 -0.670238,-2.0845039 -1.875438,-2.0845039 z m 0.565706,0.7255796 c 0.799367,0 1.14371,0.4058326 1.14371,1.3527753 0,0.9530917 -0.344343,1.3466263 -1.14371,1.3466263 h -0.565706 c -0.805517,0 -1.149859,-0.3935346 -1.149859,-1.3404773 0,-0.9530917 0.350491,-1.3589243 1.149859,-1.3589243 z m 2.717849,-0.7255796 v 0.7255796 h 2.158292 c 0.393534,0 0.571855,0.2521082 0.571855,0.5534081 0,0.289002 -0.166023,0.5718549 -0.578004,0.5718549 h -1.494202 c -0.455024,0 -0.651792,0.1906184 -0.651792,0.6579408 v 1.6417773 h 0.72558 V 5.5812436 c 0,-0.073788 0.03689,-0.1045329 0.104533,-0.1045329 h 1.291285 c 0.971538,0 1.334329,-0.6763876 1.334329,-1.3035835 0,-0.6640897 -0.399685,-1.2420937 -1.334329,-1.2420937 z m 5.466448,0.8116653 c 0.04304,-0.098384 0.110682,-0.1414265 0.209066,-0.1414265 0.09838,0 0.166022,0.043043 0.202915,0.1414265 l 1.260541,3.3388954 h 0.805516 L 41.927795,3.3922072 C 41.78022,3.0048215 41.497367,2.8572461 41.066939,2.8572461 c -0.436579,0 -0.719431,0.1475754 -0.873156,0.5349611 l -1.457307,3.6893872 h 0.799366 z m 3.437282,-0.8116653 c -0.233661,0 -0.344343,0.1106819 -0.344343,0.3381939 v 3.4741729 c 0,0.2275123 0.110682,0.3381939 0.344343,0.3381939 h 1.463456 c 1.217498,0 1.86929,-0.6763876 1.86929,-2.0722058 0,-1.4019672 -0.657941,-2.0783549 -1.86929,-2.0783549 z m 0.381236,0.7993673 c 0,-0.055341 0.0246,-0.073788 0.07994,-0.073788 h 1.002283 c 0.805517,0 1.14371,0.3996835 1.14371,1.3466263 0,0.9530916 -0.338193,1.3527753 -1.14371,1.3527753 h -1.002283 c -0.05534,0 -0.07994,-0.018447 -0.07994,-0.073788 z"
       id="text3"
       style="font-size:4.99999px;line-height:7.50001px;font-family:Nasalization;-inkscape-font-specification:Nasalization;fill:#ffffff;stroke-width:0.30745;stroke-linecap:round"
       aria-label="MICROPAD" /></g></svg>
