%TF.GenerationSoftware,KiCad,Pcbnew,8.0.3*%
%TF.CreationDate,2024-07-09T14:43:51+12:00*%
%TF.ProjectId,USB Cable Tester,55534220-4361-4626-9c65-205465737465,rev?*%
%TF.SameCoordinates,Original*%
%TF.FileFunction,Paste,Top*%
%TF.FilePolarity,Positive*%
%FSLAX46Y46*%
G04 Gerber Fmt 4.6, Leading zero omitted, Abs format (unit mm)*
G04 Created by KiCad (PCBNEW 8.0.3) date 2024-07-09 14:43:51*
%MOMM*%
%LPD*%
G01*
G04 APERTURE LIST*
G04 Aperture macros list*
%AMRoundRect*
0 Rectangle with rounded corners*
0 $1 Rounding radius*
0 $2 $3 $4 $5 $6 $7 $8 $9 X,Y pos of 4 corners*
0 Add a 4 corners polygon primitive as box body*
4,1,4,$2,$3,$4,$5,$6,$7,$8,$9,$2,$3,0*
0 Add four circle primitives for the rounded corners*
1,1,$1+$1,$2,$3*
1,1,$1+$1,$4,$5*
1,1,$1+$1,$6,$7*
1,1,$1+$1,$8,$9*
0 Add four rect primitives between the rounded corners*
20,1,$1+$1,$2,$3,$4,$5,0*
20,1,$1+$1,$4,$5,$6,$7,0*
20,1,$1+$1,$6,$7,$8,$9,0*
20,1,$1+$1,$8,$9,$2,$3,0*%
%AMFreePoly0*
4,1,20,1.085355,0.835355,1.100000,0.800000,1.100000,0.350000,1.085355,0.314645,1.078673,0.309038,0.600000,-0.026033,0.600000,-0.379290,0.835355,-0.614645,0.850000,-0.650000,0.850000,-0.800000,0.835355,-0.835355,0.800000,-0.850000,-1.050000,-0.850000,-1.085355,-0.835355,-1.100000,-0.800000,-1.100000,0.800000,-1.085355,0.835355,-1.050000,0.850000,1.050000,0.850000,1.085355,0.835355,
1.085355,0.835355,$1*%
%AMFreePoly1*
4,1,20,1.085355,0.835355,1.100000,0.800000,1.100000,-0.800000,1.085355,-0.835355,1.050000,-0.850000,-0.800000,-0.850000,-0.835355,-0.835355,-0.850000,-0.800000,-0.850000,-0.650000,-0.835355,-0.614645,-0.600000,-0.379290,-0.600000,-0.026033,-1.078673,0.309038,-1.099239,0.341311,-1.100000,0.350000,-1.100000,0.800000,-1.085355,0.835355,-1.050000,0.850000,1.050000,0.850000,1.085355,0.835355,
1.085355,0.835355,$1*%
G04 Aperture macros list end*
%ADD10RoundRect,0.243750X-0.243750X-0.281250X0.243750X-0.281250X0.243750X0.281250X-0.243750X0.281250X0*%
%ADD11RoundRect,0.160000X-0.210000X0.160000X-0.210000X-0.160000X0.210000X-0.160000X0.210000X0.160000X0*%
%ADD12RoundRect,0.137500X0.212500X0.137500X-0.212500X0.137500X-0.212500X-0.137500X0.212500X-0.137500X0*%
%ADD13RoundRect,0.050000X-0.800000X0.350000X-0.800000X-0.350000X0.800000X-0.350000X0.800000X0.350000X0*%
%ADD14RoundRect,0.050000X-0.750000X0.800000X-0.750000X-0.800000X0.750000X-0.800000X0.750000X0.800000X0*%
%ADD15RoundRect,0.225000X-0.300000X0.225000X-0.300000X-0.225000X0.300000X-0.225000X0.300000X0.225000X0*%
%ADD16RoundRect,0.050000X-0.475006X0.150000X-0.475006X-0.150000X0.475006X-0.150000X0.475006X0.150000X0*%
%ADD17RoundRect,0.050000X0.675000X-0.200000X0.675000X0.200000X-0.675000X0.200000X-0.675000X-0.200000X0*%
%ADD18FreePoly0,90.000000*%
%ADD19RoundRect,0.050000X0.950000X-0.950000X0.950000X0.950000X-0.950000X0.950000X-0.950000X-0.950000X0*%
%ADD20FreePoly1,90.000000*%
%ADD21RoundRect,0.160000X0.160000X0.210000X-0.160000X0.210000X-0.160000X-0.210000X0.160000X-0.210000X0*%
%ADD22RoundRect,0.050000X0.475006X-0.150000X0.475006X0.150000X-0.475006X0.150000X-0.475006X-0.150000X0*%
%ADD23RoundRect,0.725000X0.636396X1.661701X-1.661701X-0.636396X-0.636396X-1.661701X1.661701X0.636396X0*%
%ADD24RoundRect,0.165789X-0.359211X-0.384211X0.359211X-0.384211X0.359211X0.384211X-0.359211X0.384211X0*%
%ADD25RoundRect,0.270000X0.405000X0.655000X-0.405000X0.655000X-0.405000X-0.655000X0.405000X-0.655000X0*%
G04 APERTURE END LIST*
D10*
%TO.C,D3*%
X43405600Y-37218600D03*
X44980600Y-37218600D03*
%TD*%
%TO.C,D4*%
X41405600Y-13218600D03*
X42980600Y-13218600D03*
%TD*%
D11*
%TO.C,R2*%
X47703100Y-31708600D03*
X47703100Y-32728600D03*
%TD*%
D12*
%TO.C,D1*%
X64000000Y-14200000D03*
X61900000Y-14200000D03*
%TD*%
%TO.C,D6*%
X55410000Y-28950000D03*
X53310000Y-28950000D03*
%TD*%
D11*
%TO.C,R3*%
X48703100Y-36708600D03*
X48703100Y-37728600D03*
%TD*%
D12*
%TO.C,D7*%
X64000000Y-17150000D03*
X61900000Y-17150000D03*
%TD*%
D13*
%TO.C,J1*%
X13674981Y-15333300D03*
X13674981Y-17333300D03*
X13674981Y-19333300D03*
X13674981Y-21333300D03*
X13674981Y-22333300D03*
X13674981Y-20333300D03*
X13674981Y-18333300D03*
X13674981Y-16333300D03*
X13674981Y-14333300D03*
D14*
X8924917Y-10733351D03*
X5725019Y-10733351D03*
X8924917Y-25933249D03*
X5725019Y-25933249D03*
%TD*%
D12*
%TO.C,D9*%
X64000000Y-20100000D03*
X61900000Y-20100000D03*
%TD*%
D11*
%TO.C,R5*%
X48703100Y-34208600D03*
X48703100Y-35228600D03*
%TD*%
D10*
%TO.C,D33*%
X41905600Y-40718600D03*
X43480600Y-40718600D03*
%TD*%
D15*
%TO.C,C1*%
X53500000Y-32175000D03*
X53500000Y-33825000D03*
%TD*%
D10*
%TO.C,D10*%
X43405600Y-32218600D03*
X44980600Y-32218600D03*
%TD*%
D16*
%TO.C,J2*%
X7976011Y-34041859D03*
X7976011Y-34541732D03*
X7976011Y-35041859D03*
X7976011Y-35541732D03*
X7976011Y-36041605D03*
X7976011Y-36541732D03*
X7976011Y-37041605D03*
X7976011Y-37541732D03*
X7976011Y-38041605D03*
X7976011Y-38541732D03*
X7976011Y-39041605D03*
X7976011Y-39541732D03*
X6576214Y-39291795D03*
X6576214Y-38791668D03*
X6576214Y-38291795D03*
X6576214Y-37791668D03*
X6576214Y-37291795D03*
X6576214Y-36791668D03*
X6576214Y-36291541D03*
X6576214Y-35791668D03*
X6576214Y-35291795D03*
X6576214Y-34791668D03*
X6576214Y-34291795D03*
X6576214Y-33791668D03*
%TD*%
D10*
%TO.C,D11*%
X40405600Y-32218600D03*
X41980600Y-32218600D03*
%TD*%
D12*
%TO.C,D12*%
X59705000Y-23050000D03*
X57605000Y-23050000D03*
%TD*%
D17*
%TO.C,J3*%
X80125000Y-19633300D03*
X80125000Y-18983300D03*
X80125000Y-18333300D03*
X80125000Y-17683300D03*
X80125000Y-17033300D03*
D18*
X80250000Y-21433300D03*
D19*
X82800000Y-19533300D03*
X82800000Y-17133300D03*
D20*
X80250000Y-15233300D03*
%TD*%
D10*
%TO.C,D31*%
X41905600Y-46718600D03*
X43480600Y-46718600D03*
%TD*%
%TO.C,D32*%
X41905600Y-43218600D03*
X43480600Y-43218600D03*
%TD*%
D12*
%TO.C,D15*%
X55410000Y-23050000D03*
X53310000Y-23050000D03*
%TD*%
D21*
%TO.C,R17*%
X48723100Y-40718600D03*
X47703100Y-40718600D03*
%TD*%
D11*
%TO.C,R7*%
X47703100Y-29208600D03*
X47703100Y-30228600D03*
%TD*%
D21*
%TO.C,R8*%
X48703100Y-18218600D03*
X47683100Y-18218600D03*
%TD*%
D10*
%TO.C,D16*%
X41405600Y-18218600D03*
X42980600Y-18218600D03*
%TD*%
D22*
%TO.C,J4*%
X77023989Y-39291541D03*
X77023989Y-38791668D03*
X77023989Y-38291541D03*
X77023989Y-37791668D03*
X77023989Y-37291795D03*
X77023989Y-36791668D03*
X77023989Y-36291795D03*
X77023989Y-35791668D03*
X77023989Y-35291795D03*
X77023989Y-34791668D03*
X77023989Y-34291795D03*
X77023989Y-33791668D03*
X78423786Y-34041605D03*
X78423786Y-34541732D03*
X78423786Y-35041605D03*
X78423786Y-35541732D03*
X78423786Y-36041605D03*
X78423786Y-36541732D03*
X78423786Y-37041859D03*
X78423786Y-37541732D03*
X78423786Y-38041605D03*
X78423786Y-38541732D03*
X78423786Y-39041605D03*
X78423786Y-39541732D03*
%TD*%
D12*
%TO.C,D17*%
X59705000Y-26000000D03*
X57605000Y-26000000D03*
%TD*%
D10*
%TO.C,D34*%
X41905600Y-49218600D03*
X43480600Y-49218600D03*
%TD*%
%TO.C,D18*%
X41405600Y-23218600D03*
X42980600Y-23218600D03*
%TD*%
D23*
%TO.C,B1*%
X56927031Y-46972969D03*
X68664969Y-35235031D03*
%TD*%
D11*
%TO.C,R9*%
X48703100Y-31708600D03*
X48703100Y-32728600D03*
%TD*%
%TO.C,R10*%
X47703100Y-36708600D03*
X47703100Y-37728600D03*
%TD*%
D12*
%TO.C,D5*%
X59705000Y-28950000D03*
X57605000Y-28950000D03*
%TD*%
D24*
%TO.C,LED1*%
X71100000Y-51400000D03*
X69500000Y-51400000D03*
%TD*%
D12*
%TO.C,D19*%
X64000000Y-26000000D03*
X61900000Y-26000000D03*
%TD*%
%TO.C,D20*%
X59705000Y-20100000D03*
X57605000Y-20100000D03*
%TD*%
D25*
%TO.C,F1*%
X72900000Y-49200000D03*
X70100000Y-49200000D03*
%TD*%
D21*
%TO.C,R15*%
X48703100Y-46718600D03*
X47683100Y-46718600D03*
%TD*%
%TO.C,R12*%
X48713100Y-20718600D03*
X47693100Y-20718600D03*
%TD*%
D12*
%TO.C,D21*%
X59705000Y-14200000D03*
X57605000Y-14200000D03*
%TD*%
D21*
%TO.C,R13*%
X48713100Y-23218600D03*
X47693100Y-23218600D03*
%TD*%
D12*
%TO.C,D22*%
X59705000Y-17150000D03*
X57605000Y-17150000D03*
%TD*%
D10*
%TO.C,D23*%
X40405599Y-29718600D03*
X41980601Y-29718600D03*
%TD*%
D12*
%TO.C,D24*%
X55410000Y-17150000D03*
X53310000Y-17150000D03*
%TD*%
%TO.C,D25*%
X55410000Y-14200000D03*
X53310000Y-14200000D03*
%TD*%
%TO.C,D26*%
X64000000Y-23050000D03*
X61900000Y-23050000D03*
%TD*%
D10*
%TO.C,D27*%
X41405600Y-15718600D03*
X42980600Y-15718600D03*
%TD*%
D12*
%TO.C,D28*%
X55410000Y-20100000D03*
X53310000Y-20100000D03*
%TD*%
%TO.C,D29*%
X55410000Y-26000000D03*
X53310000Y-26000000D03*
%TD*%
D10*
%TO.C,D30*%
X43405600Y-29718600D03*
X44980600Y-29718600D03*
%TD*%
D21*
%TO.C,R1*%
X48713100Y-15718600D03*
X47693100Y-15718600D03*
%TD*%
%TO.C,R16*%
X48713100Y-49218600D03*
X47693100Y-49218600D03*
%TD*%
D10*
%TO.C,D2*%
X40405600Y-37218600D03*
X41980600Y-37218600D03*
%TD*%
D21*
%TO.C,R18*%
X73680000Y-51380000D03*
X72660000Y-51380000D03*
%TD*%
%TO.C,R14*%
X48713100Y-43218600D03*
X47693100Y-43218600D03*
%TD*%
D10*
%TO.C,D8*%
X40405600Y-34718600D03*
X41980600Y-34718600D03*
%TD*%
D11*
%TO.C,R11*%
X47703100Y-34208600D03*
X47703100Y-35228600D03*
%TD*%
D21*
%TO.C,R4*%
X48713100Y-13218600D03*
X47693100Y-13218600D03*
%TD*%
D11*
%TO.C,R6*%
X48703100Y-29208600D03*
X48703100Y-30228600D03*
%TD*%
D10*
%TO.C,D13*%
X43405600Y-34718600D03*
X44980600Y-34718600D03*
%TD*%
%TO.C,D14*%
X41405600Y-20718600D03*
X42980600Y-20718600D03*
%TD*%
M02*
