M48
; DRILL file {KiCad 8.0.3} date 2024-07-09T14:43:52+1200
; FORMAT={-:-/ absolute / inch / decimal}
; #@! TF.CreationDate,2024-07-09T14:43:52+12:00
; #@! TF.GenerationSoftware,Kicad,Pcbnew,8.0.3
; #@! TF.FileFunction,Plated,1,2,PTH
FMAT,2
INCH
; #@! TA.AperFunction,Plated,PTH,ComponentDrill
T1C0.0118
; #@! TA.AperFunction,Plated,PTH,ViaDrill
T2C0.0157
; #@! TA.AperFunction,Plated,PTH,ComponentDrill
T3C0.0197
; #@! TA.AperFunction,Plated,PTH,ComponentDrill
T4C0.0236
; #@! TA.AperFunction,Plated,PTH,ComponentDrill
T5C0.0240
; #@! TA.AperFunction,Plated,PTH,ComponentDrill
T6C0.0394
; #@! TA.AperFunction,Plated,PTH,ComponentDrill
T7C0.0472
; #@! TA.AperFunction,Plated,PTH,ComponentDrill
T8C0.1181
%
G90
G05
T1
X0.0394Y-0.1181
X0.0394Y-2.0472
X0.0624Y-0.0624
X0.0624Y-0.1738
X0.0624Y-1.9916
X0.0624Y-2.1029
X0.1181Y-0.0394
X0.1181Y-0.1969
X0.1181Y-1.9685
X0.1181Y-2.126
X0.1738Y-0.0624
X0.1738Y-0.1738
X0.1738Y-1.9916
X0.1738Y-2.1029
X0.1969Y-0.1181
X0.1969Y-2.0472
X3.1496Y-0.1181
X3.1496Y-2.0472
X3.1727Y-0.0624
X3.1727Y-0.1738
X3.1727Y-1.9916
X3.1727Y-2.1029
X3.2283Y-0.0394
X3.2283Y-0.1969
X3.2283Y-1.9685
X3.2283Y-2.126
X3.284Y-0.0624
X3.284Y-0.1738
X3.284Y-1.9916
X3.284Y-2.1029
X3.3071Y-0.1181
X3.3071Y-2.0472
T2
X0.1652Y-1.4639
X0.1905Y-1.6259
X0.2181Y-1.4392
X0.2209Y-1.4061
X0.225Y-1.371
X0.2256Y-1.546
X0.5866Y-1.2652
X0.6076Y-1.2157
X0.6221Y-1.3072
X0.6682Y-1.1166
X0.6965Y-1.2733
X0.7259Y-1.1729
X0.7411Y-0.7045
X0.7829Y-0.7699
X0.7953Y-0.981
X0.8014Y-1.0808
X0.8021Y-0.5556
X0.8416Y-1.0385
X0.895Y-0.9903
X0.9409Y-1.2939
X1.0532Y-0.6466
X1.1804Y-0.7329
X1.2053Y-1.2708
X1.4529Y-2.0002
X1.5021Y-0.4733
X1.7799Y-1.5955
X1.7911Y-0.7534
X1.7996Y-1.0839
X1.8051Y-1.7771
X1.8488Y-1.3436
X1.8971Y-1.1039
X1.9444Y-1.8251
X1.9469Y-1.2537
X2.0724Y-1.4753
X2.1268Y-0.9683
X2.153Y-0.7938
X2.1856Y-0.7322
X2.2067Y-0.8904
X2.322Y-0.6712
X2.3938Y-0.9457
X2.4666Y-1.54
X2.544Y-0.658
X2.6825Y-0.6291
X2.6836Y-0.8031
X2.7215Y-0.8581
X2.8197Y-1.1192
X2.8252Y-1.2114
X2.8796Y-1.049
X2.8943Y-1.4646
X2.9332Y-1.3592
X2.9418Y-1.3314
X2.9734Y-1.4645
X2.9842Y-1.4186
X2.9921Y-0.7915
X3.1277Y-1.4235
X3.1323Y-1.4572
X3.1788Y-1.4424
T6
X2.9921Y-1.7323
X3.189Y-1.7323
T8
X0.1181Y-0.1181
X0.1181Y-2.0472
X3.2283Y-0.1181
X3.2283Y-2.0472
T3
G00X3.2461Y-0.6106
M15
G01X3.2736Y-0.6106
M16
G05
G00X3.2461Y-0.833
M15
G01X3.2736Y-0.833
M16
G05
T4
G00X0.1358Y-1.2735
M15
G01X0.0846Y-1.2735
M16
G05
G00X0.1358Y-1.6137
M15
G01X0.0846Y-1.6137
M16
G05
G00X3.2106Y-1.2735
M15
G01X3.2618Y-1.2735
M16
G05
G00X3.2106Y-1.6137
M15
G01X3.2618Y-1.6137
M16
G05
T5
G00X0.5441Y-0.4068
M15
G01X0.4697Y-0.4068
M16
G05
G00X0.5441Y-1.0367
M15
G01X0.4697Y-1.0367
M16
G05
T7
G00X0.3012Y-1.2837
M15
G01X0.2776Y-1.2837
M16
G05
G00X0.3012Y-1.6034
M15
G01X0.2776Y-1.6034
M16
G05
G00X3.0453Y-1.2837
M15
G01X3.0689Y-1.2837
M16
G05
G00X3.0453Y-1.6034
M15
G01X3.0689Y-1.6034
M16
G05
M30
