%TF.GenerationSoftware,KiCad,Pcbnew,8.0.3*%
%TF.CreationDate,2024-07-09T14:43:51+12:00*%
%TF.ProjectId,USB Cable Tester,55534220-4361-4626-9c65-205465737465,rev?*%
%TF.SameCoordinates,Original*%
%TF.FileFunction,Soldermask,Bot*%
%TF.FilePolarity,Negative*%
%FSLAX46Y46*%
G04 Gerber Fmt 4.6, Leading zero omitted, Abs format (unit mm)*
G04 Created by KiCad (PCBNEW 8.0.3) date 2024-07-09 14:43:51*
%MOMM*%
%LPD*%
G01*
G04 APERTURE LIST*
G04 APERTURE END LIST*
G36*
X3081240Y-49455032D02*
G01*
X3160116Y-49455032D01*
X3232576Y-49464185D01*
X3307353Y-49468709D01*
X3393842Y-49484558D01*
X3477822Y-49495168D01*
X3542865Y-49511868D01*
X3610223Y-49524212D01*
X3700470Y-49552334D01*
X3787993Y-49574806D01*
X3844935Y-49597351D01*
X3904198Y-49615818D01*
X3996499Y-49657359D01*
X4085737Y-49692691D01*
X4134194Y-49719330D01*
X4184988Y-49742191D01*
X4277446Y-49798084D01*
X4366358Y-49846964D01*
X4406267Y-49875959D01*
X4448501Y-49901491D01*
X4539050Y-49972431D01*
X4625431Y-50035191D01*
X4657022Y-50064857D01*
X4690885Y-50091387D01*
X4777359Y-50177861D01*
X4858870Y-50254405D01*
X4882658Y-50283160D01*
X4908612Y-50309114D01*
X4988763Y-50411419D01*
X5062993Y-50501148D01*
X5079758Y-50527565D01*
X5098508Y-50551498D01*
X5170048Y-50669840D01*
X5234582Y-50771528D01*
X5245332Y-50794374D01*
X5257808Y-50815011D01*
X5318492Y-50949845D01*
X5370930Y-51061282D01*
X5376861Y-51079538D01*
X5384181Y-51095801D01*
X5431836Y-51248732D01*
X5469887Y-51365841D01*
X5472346Y-51378736D01*
X5475787Y-51389776D01*
X5508376Y-51567612D01*
X5529892Y-51680400D01*
X5530334Y-51687431D01*
X5531290Y-51692646D01*
X5546917Y-51951006D01*
X5550000Y-52000000D01*
X5546917Y-52048997D01*
X5531290Y-52307353D01*
X5530334Y-52312567D01*
X5529892Y-52319600D01*
X5508372Y-52432411D01*
X5475787Y-52610223D01*
X5472347Y-52621261D01*
X5469887Y-52634159D01*
X5431828Y-52751291D01*
X5384181Y-52904198D01*
X5376863Y-52920457D01*
X5370930Y-52938718D01*
X5318481Y-53050175D01*
X5257808Y-53184988D01*
X5245334Y-53205620D01*
X5234582Y-53228472D01*
X5170036Y-53330179D01*
X5098508Y-53448501D01*
X5079761Y-53472428D01*
X5062993Y-53498852D01*
X4988748Y-53588597D01*
X4908612Y-53690885D01*
X4882663Y-53716833D01*
X4858870Y-53745595D01*
X4777342Y-53822154D01*
X4690885Y-53908612D01*
X4657028Y-53935136D01*
X4625431Y-53964809D01*
X4539032Y-54027580D01*
X4448501Y-54098508D01*
X4406275Y-54124034D01*
X4366358Y-54153036D01*
X4277428Y-54201925D01*
X4184988Y-54257808D01*
X4134204Y-54280663D01*
X4085737Y-54307309D01*
X3996481Y-54342647D01*
X3904198Y-54384181D01*
X3844947Y-54402644D01*
X3787993Y-54425194D01*
X3700452Y-54447670D01*
X3610223Y-54475787D01*
X3542879Y-54488128D01*
X3477822Y-54504832D01*
X3393825Y-54515443D01*
X3307353Y-54531290D01*
X3232591Y-54535812D01*
X3160116Y-54544968D01*
X3081223Y-54544968D01*
X3000000Y-54549881D01*
X2918776Y-54544968D01*
X2839884Y-54544968D01*
X2767409Y-54535812D01*
X2692646Y-54531290D01*
X2606171Y-54515442D01*
X2522178Y-54504832D01*
X2457123Y-54488128D01*
X2389776Y-54475787D01*
X2299542Y-54447669D01*
X2212007Y-54425194D01*
X2155056Y-54402645D01*
X2095801Y-54384181D01*
X2003510Y-54342644D01*
X1914263Y-54307309D01*
X1865800Y-54280666D01*
X1815011Y-54257808D01*
X1722560Y-54201919D01*
X1633642Y-54153036D01*
X1593729Y-54124038D01*
X1551498Y-54098508D01*
X1460953Y-54027570D01*
X1374569Y-53964809D01*
X1342976Y-53935141D01*
X1309114Y-53908612D01*
X1222640Y-53822138D01*
X1141130Y-53745595D01*
X1117341Y-53716839D01*
X1091387Y-53690885D01*
X1011232Y-53588575D01*
X937007Y-53498852D01*
X920242Y-53472435D01*
X901491Y-53448501D01*
X829942Y-53330146D01*
X765418Y-53228472D01*
X754668Y-53205628D01*
X742191Y-53184988D01*
X681495Y-53050127D01*
X629070Y-52938718D01*
X623139Y-52920465D01*
X615818Y-52904198D01*
X568147Y-52751216D01*
X530113Y-52634159D01*
X527654Y-52621269D01*
X524212Y-52610223D01*
X491602Y-52432278D01*
X470108Y-52319600D01*
X469666Y-52312575D01*
X468709Y-52307353D01*
X453056Y-52048585D01*
X450000Y-52000000D01*
X453056Y-51951418D01*
X468709Y-51692646D01*
X469666Y-51687423D01*
X470108Y-51680400D01*
X491597Y-51567745D01*
X524212Y-51389776D01*
X527654Y-51378727D01*
X530113Y-51365841D01*
X568139Y-51248807D01*
X615818Y-51095801D01*
X623140Y-51079530D01*
X629070Y-51061282D01*
X681484Y-50949894D01*
X742191Y-50815011D01*
X754670Y-50794367D01*
X765418Y-50771528D01*
X829930Y-50669873D01*
X901491Y-50551498D01*
X920245Y-50527559D01*
X937007Y-50501148D01*
X1011217Y-50411442D01*
X1091387Y-50309114D01*
X1117345Y-50283155D01*
X1141130Y-50254405D01*
X1222624Y-50177876D01*
X1309114Y-50091387D01*
X1342982Y-50064852D01*
X1374569Y-50035191D01*
X1460936Y-49972441D01*
X1551498Y-49901491D01*
X1593737Y-49875956D01*
X1633642Y-49846964D01*
X1722542Y-49798090D01*
X1815011Y-49742191D01*
X1865810Y-49719328D01*
X1914263Y-49692691D01*
X2003492Y-49657362D01*
X2095801Y-49615818D01*
X2155067Y-49597349D01*
X2212007Y-49574806D01*
X2299524Y-49552335D01*
X2389776Y-49524212D01*
X2457136Y-49511867D01*
X2522178Y-49495168D01*
X2606153Y-49484559D01*
X2692646Y-49468709D01*
X2767424Y-49464185D01*
X2839884Y-49455032D01*
X2918760Y-49455032D01*
X3000000Y-49450118D01*
X3081240Y-49455032D01*
G37*
G36*
X82081240Y-49455032D02*
G01*
X82160116Y-49455032D01*
X82232576Y-49464185D01*
X82307353Y-49468709D01*
X82393842Y-49484558D01*
X82477822Y-49495168D01*
X82542865Y-49511868D01*
X82610223Y-49524212D01*
X82700470Y-49552334D01*
X82787993Y-49574806D01*
X82844935Y-49597351D01*
X82904198Y-49615818D01*
X82996499Y-49657359D01*
X83085737Y-49692691D01*
X83134194Y-49719330D01*
X83184988Y-49742191D01*
X83277446Y-49798084D01*
X83366358Y-49846964D01*
X83406267Y-49875959D01*
X83448501Y-49901491D01*
X83539050Y-49972431D01*
X83625431Y-50035191D01*
X83657022Y-50064857D01*
X83690885Y-50091387D01*
X83777359Y-50177861D01*
X83858870Y-50254405D01*
X83882658Y-50283160D01*
X83908612Y-50309114D01*
X83988763Y-50411419D01*
X84062993Y-50501148D01*
X84079758Y-50527565D01*
X84098508Y-50551498D01*
X84170048Y-50669840D01*
X84234582Y-50771528D01*
X84245332Y-50794374D01*
X84257808Y-50815011D01*
X84318492Y-50949845D01*
X84370930Y-51061282D01*
X84376861Y-51079538D01*
X84384181Y-51095801D01*
X84431836Y-51248732D01*
X84469887Y-51365841D01*
X84472346Y-51378736D01*
X84475787Y-51389776D01*
X84508376Y-51567612D01*
X84529892Y-51680400D01*
X84530334Y-51687431D01*
X84531290Y-51692646D01*
X84546917Y-51951006D01*
X84550000Y-52000000D01*
X84546917Y-52048997D01*
X84531290Y-52307353D01*
X84530334Y-52312567D01*
X84529892Y-52319600D01*
X84508372Y-52432411D01*
X84475787Y-52610223D01*
X84472347Y-52621261D01*
X84469887Y-52634159D01*
X84431828Y-52751291D01*
X84384181Y-52904198D01*
X84376863Y-52920457D01*
X84370930Y-52938718D01*
X84318481Y-53050175D01*
X84257808Y-53184988D01*
X84245334Y-53205620D01*
X84234582Y-53228472D01*
X84170036Y-53330179D01*
X84098508Y-53448501D01*
X84079761Y-53472428D01*
X84062993Y-53498852D01*
X83988748Y-53588597D01*
X83908612Y-53690885D01*
X83882663Y-53716833D01*
X83858870Y-53745595D01*
X83777342Y-53822154D01*
X83690885Y-53908612D01*
X83657028Y-53935136D01*
X83625431Y-53964809D01*
X83539032Y-54027580D01*
X83448501Y-54098508D01*
X83406275Y-54124034D01*
X83366358Y-54153036D01*
X83277428Y-54201925D01*
X83184988Y-54257808D01*
X83134204Y-54280663D01*
X83085737Y-54307309D01*
X82996481Y-54342647D01*
X82904198Y-54384181D01*
X82844947Y-54402644D01*
X82787993Y-54425194D01*
X82700452Y-54447670D01*
X82610223Y-54475787D01*
X82542879Y-54488128D01*
X82477822Y-54504832D01*
X82393825Y-54515443D01*
X82307353Y-54531290D01*
X82232591Y-54535812D01*
X82160116Y-54544968D01*
X82081223Y-54544968D01*
X82000000Y-54549881D01*
X81918776Y-54544968D01*
X81839884Y-54544968D01*
X81767409Y-54535812D01*
X81692646Y-54531290D01*
X81606171Y-54515442D01*
X81522178Y-54504832D01*
X81457123Y-54488128D01*
X81389776Y-54475787D01*
X81299542Y-54447669D01*
X81212007Y-54425194D01*
X81155056Y-54402645D01*
X81095801Y-54384181D01*
X81003510Y-54342644D01*
X80914263Y-54307309D01*
X80865800Y-54280666D01*
X80815011Y-54257808D01*
X80722560Y-54201919D01*
X80633642Y-54153036D01*
X80593729Y-54124038D01*
X80551498Y-54098508D01*
X80460953Y-54027570D01*
X80374569Y-53964809D01*
X80342976Y-53935141D01*
X80309114Y-53908612D01*
X80222640Y-53822138D01*
X80141130Y-53745595D01*
X80117341Y-53716839D01*
X80091387Y-53690885D01*
X80011232Y-53588575D01*
X79937007Y-53498852D01*
X79920242Y-53472435D01*
X79901491Y-53448501D01*
X79829942Y-53330146D01*
X79765418Y-53228472D01*
X79754668Y-53205628D01*
X79742191Y-53184988D01*
X79681495Y-53050127D01*
X79629070Y-52938718D01*
X79623139Y-52920465D01*
X79615818Y-52904198D01*
X79568147Y-52751216D01*
X79530113Y-52634159D01*
X79527654Y-52621269D01*
X79524212Y-52610223D01*
X79491602Y-52432278D01*
X79470108Y-52319600D01*
X79469666Y-52312575D01*
X79468709Y-52307353D01*
X79453056Y-52048585D01*
X79450000Y-52000000D01*
X79453056Y-51951418D01*
X79468709Y-51692646D01*
X79469666Y-51687423D01*
X79470108Y-51680400D01*
X79491597Y-51567745D01*
X79524212Y-51389776D01*
X79527654Y-51378727D01*
X79530113Y-51365841D01*
X79568139Y-51248807D01*
X79615818Y-51095801D01*
X79623140Y-51079530D01*
X79629070Y-51061282D01*
X79681484Y-50949894D01*
X79742191Y-50815011D01*
X79754670Y-50794367D01*
X79765418Y-50771528D01*
X79829930Y-50669873D01*
X79901491Y-50551498D01*
X79920245Y-50527559D01*
X79937007Y-50501148D01*
X80011217Y-50411442D01*
X80091387Y-50309114D01*
X80117345Y-50283155D01*
X80141130Y-50254405D01*
X80222624Y-50177876D01*
X80309114Y-50091387D01*
X80342982Y-50064852D01*
X80374569Y-50035191D01*
X80460936Y-49972441D01*
X80551498Y-49901491D01*
X80593737Y-49875956D01*
X80633642Y-49846964D01*
X80722542Y-49798090D01*
X80815011Y-49742191D01*
X80865810Y-49719328D01*
X80914263Y-49692691D01*
X81003492Y-49657362D01*
X81095801Y-49615818D01*
X81155067Y-49597349D01*
X81212007Y-49574806D01*
X81299524Y-49552335D01*
X81389776Y-49524212D01*
X81457136Y-49511867D01*
X81522178Y-49495168D01*
X81606153Y-49484559D01*
X81692646Y-49468709D01*
X81767424Y-49464185D01*
X81839884Y-49455032D01*
X81918760Y-49455032D01*
X82000000Y-49450118D01*
X82081240Y-49455032D01*
G37*
G36*
X3161105Y-46294152D02*
G01*
X3314132Y-46347699D01*
X3451407Y-46433954D01*
X3566046Y-46548593D01*
X3652301Y-46685868D01*
X3705848Y-46838895D01*
X3724000Y-47000000D01*
X3705848Y-47161105D01*
X3652301Y-47314132D01*
X3566046Y-47451407D01*
X3451407Y-47566046D01*
X3314132Y-47652301D01*
X3161105Y-47705848D01*
X3000000Y-47724000D01*
X2838895Y-47705848D01*
X2685868Y-47652301D01*
X2548593Y-47566046D01*
X2433954Y-47451407D01*
X2347699Y-47314132D01*
X2294152Y-47161105D01*
X2276000Y-47000000D01*
X2294152Y-46838895D01*
X2347699Y-46685868D01*
X2433954Y-46548593D01*
X2548593Y-46433954D01*
X2685868Y-46347699D01*
X2838895Y-46294152D01*
X3000000Y-46276000D01*
X3161105Y-46294152D01*
G37*
G36*
X82161105Y-46294152D02*
G01*
X82314132Y-46347699D01*
X82451407Y-46433954D01*
X82566046Y-46548593D01*
X82652301Y-46685868D01*
X82705848Y-46838895D01*
X82724000Y-47000000D01*
X82705848Y-47161105D01*
X82652301Y-47314132D01*
X82566046Y-47451407D01*
X82451407Y-47566046D01*
X82314132Y-47652301D01*
X82161105Y-47705848D01*
X82000000Y-47724000D01*
X81838895Y-47705848D01*
X81685868Y-47652301D01*
X81548593Y-47566046D01*
X81433954Y-47451407D01*
X81347699Y-47314132D01*
X81294152Y-47161105D01*
X81276000Y-47000000D01*
X81294152Y-46838895D01*
X81347699Y-46685868D01*
X81433954Y-46548593D01*
X81548593Y-46433954D01*
X81685868Y-46347699D01*
X81838895Y-46294152D01*
X82000000Y-46276000D01*
X82161105Y-46294152D01*
G37*
G36*
X76048290Y-42954756D02*
G01*
X76096857Y-42954756D01*
X76150940Y-42964866D01*
X76204845Y-42970175D01*
X76245797Y-42982597D01*
X76287268Y-42990350D01*
X76344700Y-43012599D01*
X76401818Y-43029926D01*
X76434454Y-43047370D01*
X76467901Y-43060328D01*
X76526019Y-43096313D01*
X76583349Y-43126957D01*
X76607435Y-43146724D01*
X76632599Y-43162305D01*
X76688357Y-43213135D01*
X76742462Y-43257538D01*
X76758494Y-43277074D01*
X76775752Y-43292806D01*
X76825847Y-43359143D01*
X76873043Y-43416651D01*
X76882170Y-43433726D01*
X76892489Y-43447391D01*
X76933544Y-43529841D01*
X76970074Y-43598182D01*
X76973969Y-43611024D01*
X76978836Y-43620797D01*
X77007579Y-43721820D01*
X77029825Y-43795155D01*
X77030555Y-43802576D01*
X77031847Y-43807114D01*
X77045281Y-43952086D01*
X77050000Y-44000000D01*
X77045280Y-44047917D01*
X77031847Y-44192885D01*
X77030556Y-44197422D01*
X77029825Y-44204845D01*
X77007574Y-44278195D01*
X76978836Y-44379202D01*
X76973970Y-44388973D01*
X76970074Y-44401818D01*
X76933537Y-44470172D01*
X76892489Y-44552608D01*
X76882172Y-44566269D01*
X76873043Y-44583349D01*
X76825838Y-44640868D01*
X76775752Y-44707193D01*
X76758498Y-44722921D01*
X76742462Y-44742462D01*
X76688346Y-44786873D01*
X76632599Y-44837694D01*
X76607440Y-44853271D01*
X76583349Y-44873043D01*
X76526007Y-44903692D01*
X76467901Y-44939671D01*
X76434461Y-44952625D01*
X76401818Y-44970074D01*
X76344688Y-44987403D01*
X76287268Y-45009649D01*
X76245804Y-45017400D01*
X76204845Y-45029825D01*
X76150937Y-45035134D01*
X76096857Y-45045244D01*
X76048290Y-45045244D01*
X76000000Y-45050000D01*
X75951710Y-45045244D01*
X75903143Y-45045244D01*
X75849061Y-45035134D01*
X75795155Y-45029825D01*
X75754196Y-45017400D01*
X75712731Y-45009649D01*
X75655306Y-44987402D01*
X75598182Y-44970074D01*
X75565541Y-44952627D01*
X75532098Y-44939671D01*
X75473985Y-44903689D01*
X75416651Y-44873043D01*
X75392562Y-44853273D01*
X75367400Y-44837694D01*
X75311643Y-44786865D01*
X75257538Y-44742462D01*
X75241504Y-44722925D01*
X75224247Y-44707193D01*
X75174149Y-44640852D01*
X75126957Y-44583349D01*
X75117830Y-44566274D01*
X75107510Y-44552608D01*
X75066447Y-44470145D01*
X75029926Y-44401818D01*
X75026031Y-44388978D01*
X75021163Y-44379202D01*
X74992409Y-44278141D01*
X74970175Y-44204845D01*
X74969444Y-44197427D01*
X74968152Y-44192885D01*
X74954702Y-44047745D01*
X74950000Y-44000000D01*
X74954702Y-43952258D01*
X74968152Y-43807114D01*
X74969444Y-43802570D01*
X74970175Y-43795155D01*
X74992404Y-43721873D01*
X75021163Y-43620797D01*
X75026031Y-43611018D01*
X75029926Y-43598182D01*
X75066440Y-43529868D01*
X75107510Y-43447391D01*
X75117832Y-43433722D01*
X75126957Y-43416651D01*
X75174139Y-43359158D01*
X75224247Y-43292806D01*
X75241508Y-43277070D01*
X75257538Y-43257538D01*
X75311632Y-43213143D01*
X75367400Y-43162305D01*
X75392567Y-43146721D01*
X75416651Y-43126957D01*
X75473973Y-43096317D01*
X75532098Y-43060328D01*
X75565548Y-43047369D01*
X75598182Y-43029926D01*
X75655294Y-43012601D01*
X75712731Y-42990350D01*
X75754203Y-42982597D01*
X75795155Y-42970175D01*
X75849058Y-42964866D01*
X75903143Y-42954756D01*
X75951710Y-42954756D01*
X76000000Y-42950000D01*
X76048290Y-42954756D01*
G37*
G36*
X81048290Y-42954756D02*
G01*
X81096857Y-42954756D01*
X81150940Y-42964866D01*
X81204845Y-42970175D01*
X81245797Y-42982597D01*
X81287268Y-42990350D01*
X81344700Y-43012599D01*
X81401818Y-43029926D01*
X81434454Y-43047370D01*
X81467901Y-43060328D01*
X81526019Y-43096313D01*
X81583349Y-43126957D01*
X81607435Y-43146724D01*
X81632599Y-43162305D01*
X81688357Y-43213135D01*
X81742462Y-43257538D01*
X81758494Y-43277074D01*
X81775752Y-43292806D01*
X81825847Y-43359143D01*
X81873043Y-43416651D01*
X81882170Y-43433726D01*
X81892489Y-43447391D01*
X81933544Y-43529841D01*
X81970074Y-43598182D01*
X81973969Y-43611024D01*
X81978836Y-43620797D01*
X82007579Y-43721820D01*
X82029825Y-43795155D01*
X82030555Y-43802576D01*
X82031847Y-43807114D01*
X82045281Y-43952086D01*
X82050000Y-44000000D01*
X82045280Y-44047917D01*
X82031847Y-44192885D01*
X82030556Y-44197422D01*
X82029825Y-44204845D01*
X82007574Y-44278195D01*
X81978836Y-44379202D01*
X81973970Y-44388973D01*
X81970074Y-44401818D01*
X81933537Y-44470172D01*
X81892489Y-44552608D01*
X81882172Y-44566269D01*
X81873043Y-44583349D01*
X81825838Y-44640868D01*
X81775752Y-44707193D01*
X81758498Y-44722921D01*
X81742462Y-44742462D01*
X81688346Y-44786873D01*
X81632599Y-44837694D01*
X81607440Y-44853271D01*
X81583349Y-44873043D01*
X81526007Y-44903692D01*
X81467901Y-44939671D01*
X81434461Y-44952625D01*
X81401818Y-44970074D01*
X81344688Y-44987403D01*
X81287268Y-45009649D01*
X81245804Y-45017400D01*
X81204845Y-45029825D01*
X81150937Y-45035134D01*
X81096857Y-45045244D01*
X81048290Y-45045244D01*
X81000000Y-45050000D01*
X80951710Y-45045244D01*
X80903143Y-45045244D01*
X80849061Y-45035134D01*
X80795155Y-45029825D01*
X80754196Y-45017400D01*
X80712731Y-45009649D01*
X80655306Y-44987402D01*
X80598182Y-44970074D01*
X80565541Y-44952627D01*
X80532098Y-44939671D01*
X80473985Y-44903689D01*
X80416651Y-44873043D01*
X80392562Y-44853273D01*
X80367400Y-44837694D01*
X80311643Y-44786865D01*
X80257538Y-44742462D01*
X80241504Y-44722925D01*
X80224247Y-44707193D01*
X80174149Y-44640852D01*
X80126957Y-44583349D01*
X80117830Y-44566274D01*
X80107510Y-44552608D01*
X80066447Y-44470145D01*
X80029926Y-44401818D01*
X80026031Y-44388978D01*
X80021163Y-44379202D01*
X79992409Y-44278141D01*
X79970175Y-44204845D01*
X79969444Y-44197427D01*
X79968152Y-44192885D01*
X79954702Y-44047745D01*
X79950000Y-44000000D01*
X79954702Y-43952258D01*
X79968152Y-43807114D01*
X79969444Y-43802570D01*
X79970175Y-43795155D01*
X79992404Y-43721873D01*
X80021163Y-43620797D01*
X80026031Y-43611018D01*
X80029926Y-43598182D01*
X80066440Y-43529868D01*
X80107510Y-43447391D01*
X80117832Y-43433722D01*
X80126957Y-43416651D01*
X80174139Y-43359158D01*
X80224247Y-43292806D01*
X80241508Y-43277070D01*
X80257538Y-43257538D01*
X80311632Y-43213143D01*
X80367400Y-43162305D01*
X80392567Y-43146721D01*
X80416651Y-43126957D01*
X80473973Y-43096317D01*
X80532098Y-43060328D01*
X80565548Y-43047369D01*
X80598182Y-43029926D01*
X80655294Y-43012601D01*
X80712731Y-42990350D01*
X80754203Y-42982597D01*
X80795155Y-42970175D01*
X80849058Y-42964866D01*
X80903143Y-42954756D01*
X80951710Y-42954756D01*
X81000000Y-42950000D01*
X81048290Y-42954756D01*
G37*
G36*
X60356092Y-42790695D02*
G01*
X60397617Y-42790695D01*
X60444461Y-42800651D01*
X60492051Y-42806014D01*
X60526654Y-42818122D01*
X60561139Y-42825452D01*
X60610837Y-42847578D01*
X60661144Y-42865182D01*
X60687329Y-42881635D01*
X60713859Y-42893447D01*
X60763322Y-42929384D01*
X60812831Y-42960493D01*
X60830612Y-42978274D01*
X60849106Y-42991711D01*
X60894831Y-43042493D01*
X60939507Y-43087169D01*
X60949781Y-43103520D01*
X60960965Y-43115941D01*
X60999226Y-43182213D01*
X61034818Y-43238856D01*
X61039261Y-43251555D01*
X61044551Y-43260717D01*
X61071634Y-43344071D01*
X61093986Y-43407949D01*
X61094833Y-43415471D01*
X61096211Y-43419711D01*
X61108701Y-43538550D01*
X61114044Y-43585968D01*
X61108700Y-43633389D01*
X61096211Y-43752224D01*
X61094833Y-43756462D01*
X61093986Y-43763987D01*
X61071629Y-43827877D01*
X61044551Y-43911218D01*
X61039262Y-43920377D01*
X61034818Y-43933080D01*
X60999219Y-43989734D01*
X60960965Y-44055994D01*
X60949783Y-44068412D01*
X60939507Y-44084767D01*
X60894822Y-44129451D01*
X60849106Y-44180224D01*
X60830616Y-44193657D01*
X60812831Y-44211443D01*
X60763312Y-44242557D01*
X60713859Y-44278488D01*
X60687334Y-44290297D01*
X60661144Y-44306754D01*
X60610826Y-44324360D01*
X60561139Y-44346483D01*
X60526660Y-44353811D01*
X60492051Y-44365922D01*
X60444458Y-44371284D01*
X60397617Y-44381241D01*
X60356092Y-44381241D01*
X60314032Y-44385980D01*
X60271972Y-44381241D01*
X60230447Y-44381241D01*
X60183604Y-44371284D01*
X60136013Y-44365922D01*
X60101405Y-44353812D01*
X60066924Y-44346483D01*
X60017232Y-44324359D01*
X59966920Y-44306754D01*
X59940731Y-44290298D01*
X59914204Y-44278488D01*
X59864744Y-44242552D01*
X59815233Y-44211443D01*
X59797450Y-44193660D01*
X59778957Y-44180224D01*
X59733231Y-44129441D01*
X59688557Y-44084767D01*
X59678283Y-44068416D01*
X59667098Y-44055994D01*
X59628831Y-43989714D01*
X59593246Y-43933080D01*
X59588802Y-43920381D01*
X59583512Y-43911218D01*
X59556420Y-43827837D01*
X59534078Y-43763987D01*
X59533230Y-43756467D01*
X59531852Y-43752224D01*
X59519348Y-43633257D01*
X59514020Y-43585968D01*
X59519347Y-43538682D01*
X59531852Y-43419711D01*
X59533230Y-43415467D01*
X59534078Y-43407949D01*
X59556415Y-43344111D01*
X59583512Y-43260717D01*
X59588803Y-43251551D01*
X59593246Y-43238856D01*
X59628824Y-43182232D01*
X59667098Y-43115941D01*
X59678285Y-43103516D01*
X59688557Y-43087169D01*
X59733222Y-43042503D01*
X59778957Y-42991711D01*
X59797453Y-42978272D01*
X59815233Y-42960493D01*
X59864738Y-42929386D01*
X59914205Y-42893447D01*
X59940735Y-42881635D01*
X59966920Y-42865182D01*
X60017223Y-42847580D01*
X60066924Y-42825452D01*
X60101410Y-42818121D01*
X60136013Y-42806014D01*
X60183601Y-42800652D01*
X60230447Y-42790695D01*
X60271972Y-42790695D01*
X60314032Y-42785956D01*
X60356092Y-42790695D01*
G37*
G36*
X6026204Y-39746683D02*
G01*
X6056578Y-39746683D01*
X6079977Y-39755199D01*
X6100322Y-39758422D01*
X6129057Y-39773063D01*
X6162644Y-39785288D01*
X6177477Y-39797734D01*
X6190700Y-39804472D01*
X6217781Y-39831553D01*
X6249110Y-39857841D01*
X6255996Y-39869768D01*
X6262419Y-39876191D01*
X6282810Y-39916211D01*
X6305547Y-39955592D01*
X6306960Y-39963608D01*
X6308469Y-39966569D01*
X6317179Y-40021565D01*
X6325147Y-40066751D01*
X6324720Y-40069172D01*
X6329769Y-40101050D01*
X6405199Y-40125559D01*
X6460920Y-40069839D01*
X6599467Y-39977265D01*
X6753412Y-39913499D01*
X6916839Y-39880991D01*
X7700154Y-39876898D01*
X7783469Y-39880991D01*
X7946896Y-39913499D01*
X8100841Y-39977265D01*
X8239388Y-40069839D01*
X8357213Y-40187664D01*
X8449787Y-40326211D01*
X8513553Y-40480156D01*
X8546061Y-40643583D01*
X8546061Y-40810213D01*
X8513553Y-40973640D01*
X8449787Y-41127585D01*
X8357213Y-41266132D01*
X8239388Y-41383957D01*
X8100841Y-41476531D01*
X7946896Y-41540297D01*
X7783469Y-41572805D01*
X7000154Y-41576898D01*
X6916839Y-41572805D01*
X6753412Y-41540297D01*
X6599467Y-41476531D01*
X6460920Y-41383957D01*
X6343095Y-41266132D01*
X6250521Y-41127585D01*
X6186755Y-40973640D01*
X6154247Y-40810213D01*
X6154247Y-40643583D01*
X6186755Y-40480156D01*
X6215140Y-40411627D01*
X6151088Y-40352419D01*
X6129053Y-40360440D01*
X6100323Y-40375079D01*
X6079981Y-40378300D01*
X6056578Y-40386819D01*
X6026198Y-40386819D01*
X6000141Y-40390946D01*
X5974084Y-40386819D01*
X5943704Y-40386819D01*
X5920300Y-40378300D01*
X5899959Y-40375079D01*
X5871228Y-40360439D01*
X5837638Y-40348214D01*
X5822802Y-40335765D01*
X5809581Y-40329029D01*
X5782500Y-40301948D01*
X5751172Y-40275661D01*
X5744285Y-40263733D01*
X5737862Y-40257310D01*
X5717467Y-40217282D01*
X5694735Y-40177910D01*
X5693321Y-40169895D01*
X5691812Y-40166932D01*
X5683095Y-40111899D01*
X5675135Y-40066751D01*
X5683095Y-40021606D01*
X5691812Y-39966569D01*
X5693322Y-39963605D01*
X5694735Y-39955592D01*
X5717462Y-39916226D01*
X5737862Y-39876191D01*
X5744287Y-39869765D01*
X5751172Y-39857841D01*
X5782494Y-39831558D01*
X5809581Y-39804472D01*
X5822805Y-39797733D01*
X5837638Y-39785288D01*
X5871221Y-39773064D01*
X5899959Y-39758422D01*
X5920305Y-39755199D01*
X5943704Y-39746683D01*
X5974077Y-39746683D01*
X6000141Y-39742555D01*
X6026204Y-39746683D01*
G37*
G36*
X79025922Y-39746683D02*
G01*
X79056296Y-39746683D01*
X79079695Y-39755199D01*
X79100040Y-39758422D01*
X79128775Y-39773063D01*
X79162362Y-39785288D01*
X79177195Y-39797734D01*
X79190418Y-39804472D01*
X79217499Y-39831553D01*
X79248828Y-39857841D01*
X79255714Y-39869768D01*
X79262137Y-39876191D01*
X79282528Y-39916211D01*
X79305265Y-39955592D01*
X79306678Y-39963608D01*
X79308187Y-39966569D01*
X79316895Y-40021550D01*
X79324865Y-40066751D01*
X79316894Y-40111955D01*
X79308187Y-40166932D01*
X79306678Y-40169892D01*
X79305265Y-40177910D01*
X79282524Y-40217297D01*
X79262137Y-40257310D01*
X79255715Y-40263731D01*
X79248828Y-40275661D01*
X79217493Y-40301953D01*
X79190418Y-40329029D01*
X79177198Y-40335764D01*
X79162362Y-40348214D01*
X79128768Y-40360441D01*
X79100040Y-40375079D01*
X79079700Y-40378300D01*
X79056296Y-40386819D01*
X79025916Y-40386819D01*
X78999859Y-40390946D01*
X78973801Y-40386819D01*
X78943422Y-40386819D01*
X78920019Y-40378301D01*
X78899675Y-40375079D01*
X78870940Y-40360437D01*
X78849058Y-40352473D01*
X78784992Y-40411694D01*
X78813245Y-40479902D01*
X78845753Y-40643329D01*
X78845753Y-40809959D01*
X78813245Y-40973386D01*
X78749479Y-41127331D01*
X78656905Y-41265878D01*
X78539080Y-41383703D01*
X78400533Y-41476277D01*
X78246588Y-41540043D01*
X78083161Y-41572551D01*
X77299846Y-41576644D01*
X77216531Y-41572551D01*
X77053104Y-41540043D01*
X76899159Y-41476277D01*
X76760612Y-41383703D01*
X76642787Y-41265878D01*
X76550213Y-41127331D01*
X76486447Y-40973386D01*
X76453939Y-40809959D01*
X76453939Y-40643329D01*
X76486447Y-40479902D01*
X76550213Y-40325957D01*
X76642787Y-40187410D01*
X76760612Y-40069585D01*
X76899159Y-39977011D01*
X77053104Y-39913245D01*
X77216531Y-39880737D01*
X77999846Y-39876644D01*
X78083161Y-39880737D01*
X78246588Y-39913245D01*
X78400533Y-39977011D01*
X78539080Y-40069585D01*
X78594834Y-40125339D01*
X78670265Y-40100831D01*
X78675279Y-40069170D01*
X78674853Y-40066751D01*
X78682812Y-40021608D01*
X78691530Y-39966570D01*
X78693039Y-39963606D01*
X78694453Y-39955592D01*
X78717182Y-39916223D01*
X78737580Y-39876191D01*
X78744005Y-39869765D01*
X78750890Y-39857841D01*
X78782212Y-39831558D01*
X78809299Y-39804472D01*
X78822523Y-39797733D01*
X78837356Y-39785288D01*
X78870939Y-39773064D01*
X78899677Y-39758422D01*
X78920023Y-39755199D01*
X78943422Y-39746683D01*
X78973795Y-39746683D01*
X78999859Y-39742555D01*
X79025922Y-39746683D01*
G37*
G36*
X3454741Y-40437052D02*
G01*
X3502292Y-40439388D01*
X3508146Y-40440552D01*
X3521778Y-40441446D01*
X3548118Y-40448503D01*
X3609555Y-40460725D01*
X3638550Y-40472735D01*
X3660465Y-40478607D01*
X3680110Y-40489949D01*
X3709105Y-40501959D01*
X3761188Y-40536760D01*
X3784808Y-40550397D01*
X3791273Y-40556862D01*
X3798708Y-40561830D01*
X3874899Y-40638021D01*
X3879866Y-40645455D01*
X3886333Y-40651922D01*
X3899972Y-40675545D01*
X3934770Y-40727624D01*
X3946778Y-40756616D01*
X3958123Y-40776265D01*
X3963996Y-40798183D01*
X3976004Y-40827174D01*
X3988223Y-40888600D01*
X3995284Y-40914952D01*
X3995284Y-40924095D01*
X3997028Y-40932863D01*
X3997028Y-41040618D01*
X3995284Y-41049385D01*
X3995284Y-41058530D01*
X3988222Y-41084884D01*
X3976004Y-41146307D01*
X3963996Y-41175295D01*
X3958123Y-41197217D01*
X3946777Y-41216868D01*
X3934770Y-41245857D01*
X3899976Y-41297929D01*
X3886333Y-41321560D01*
X3879864Y-41328028D01*
X3874899Y-41335460D01*
X3798708Y-41411651D01*
X3791276Y-41416616D01*
X3784808Y-41423085D01*
X3761177Y-41436728D01*
X3709105Y-41471522D01*
X3680116Y-41483529D01*
X3660465Y-41494875D01*
X3638543Y-41500748D01*
X3609555Y-41512756D01*
X3548138Y-41524972D01*
X3521778Y-41532036D01*
X3512469Y-41532067D01*
X3503797Y-41533793D01*
X2151516Y-41536737D01*
X2151492Y-41536735D01*
X2149989Y-41536741D01*
X2145178Y-41536425D01*
X2097685Y-41534093D01*
X2091837Y-41532929D01*
X2078200Y-41532036D01*
X2051847Y-41524974D01*
X1990422Y-41512756D01*
X1961431Y-41500748D01*
X1939513Y-41494875D01*
X1919864Y-41483530D01*
X1890872Y-41471522D01*
X1838793Y-41436724D01*
X1815170Y-41423085D01*
X1808703Y-41416618D01*
X1801269Y-41411651D01*
X1725078Y-41335460D01*
X1720110Y-41328025D01*
X1713645Y-41321560D01*
X1700008Y-41297940D01*
X1665207Y-41245857D01*
X1653197Y-41216862D01*
X1641855Y-41197217D01*
X1635983Y-41175302D01*
X1623973Y-41146307D01*
X1611753Y-41084878D01*
X1604694Y-41058530D01*
X1604694Y-41049385D01*
X1602950Y-41040618D01*
X1602950Y-40932863D01*
X1604694Y-40924095D01*
X1604694Y-40914952D01*
X1611753Y-40888606D01*
X1623973Y-40827174D01*
X1635983Y-40798176D01*
X1641855Y-40776265D01*
X1653195Y-40756622D01*
X1665207Y-40727624D01*
X1700012Y-40675534D01*
X1713645Y-40651922D01*
X1720108Y-40645458D01*
X1725078Y-40638021D01*
X1801269Y-40561830D01*
X1808706Y-40556860D01*
X1815170Y-40550397D01*
X1838782Y-40536764D01*
X1890872Y-40501959D01*
X1919870Y-40489947D01*
X1939513Y-40478607D01*
X1961424Y-40472735D01*
X1990422Y-40460725D01*
X2051857Y-40448504D01*
X2078200Y-40441446D01*
X2087502Y-40441414D01*
X2096180Y-40439688D01*
X3448461Y-40436744D01*
X3448503Y-40436746D01*
X3449989Y-40436741D01*
X3454741Y-40437052D01*
G37*
G36*
X82854763Y-40437052D02*
G01*
X82902314Y-40439388D01*
X82908168Y-40440552D01*
X82921800Y-40441446D01*
X82948140Y-40448503D01*
X83009577Y-40460725D01*
X83038572Y-40472735D01*
X83060487Y-40478607D01*
X83080132Y-40489949D01*
X83109127Y-40501959D01*
X83161210Y-40536760D01*
X83184830Y-40550397D01*
X83191295Y-40556862D01*
X83198730Y-40561830D01*
X83274921Y-40638021D01*
X83279888Y-40645455D01*
X83286355Y-40651922D01*
X83299994Y-40675545D01*
X83334792Y-40727624D01*
X83346800Y-40756616D01*
X83358145Y-40776265D01*
X83364018Y-40798183D01*
X83376026Y-40827174D01*
X83388245Y-40888600D01*
X83395306Y-40914952D01*
X83395306Y-40924095D01*
X83397050Y-40932863D01*
X83397050Y-41040618D01*
X83395306Y-41049385D01*
X83395306Y-41058530D01*
X83388244Y-41084884D01*
X83376026Y-41146307D01*
X83364018Y-41175295D01*
X83358145Y-41197217D01*
X83346799Y-41216868D01*
X83334792Y-41245857D01*
X83299998Y-41297929D01*
X83286355Y-41321560D01*
X83279886Y-41328028D01*
X83274921Y-41335460D01*
X83198730Y-41411651D01*
X83191298Y-41416616D01*
X83184830Y-41423085D01*
X83161199Y-41436728D01*
X83109127Y-41471522D01*
X83080138Y-41483529D01*
X83060487Y-41494875D01*
X83038565Y-41500748D01*
X83009577Y-41512756D01*
X82948160Y-41524972D01*
X82921800Y-41532036D01*
X82912491Y-41532067D01*
X82903819Y-41533793D01*
X81551538Y-41536737D01*
X81551514Y-41536735D01*
X81550011Y-41536741D01*
X81545200Y-41536425D01*
X81497707Y-41534093D01*
X81491859Y-41532929D01*
X81478222Y-41532036D01*
X81451869Y-41524974D01*
X81390444Y-41512756D01*
X81361453Y-41500748D01*
X81339535Y-41494875D01*
X81319886Y-41483530D01*
X81290894Y-41471522D01*
X81238815Y-41436724D01*
X81215192Y-41423085D01*
X81208725Y-41416618D01*
X81201291Y-41411651D01*
X81125100Y-41335460D01*
X81120132Y-41328025D01*
X81113667Y-41321560D01*
X81100030Y-41297940D01*
X81065229Y-41245857D01*
X81053219Y-41216862D01*
X81041877Y-41197217D01*
X81036005Y-41175302D01*
X81023995Y-41146307D01*
X81011775Y-41084878D01*
X81004716Y-41058530D01*
X81004716Y-41049385D01*
X81002972Y-41040618D01*
X81002972Y-40932863D01*
X81004716Y-40924095D01*
X81004716Y-40914952D01*
X81011775Y-40888606D01*
X81023995Y-40827174D01*
X81036005Y-40798176D01*
X81041877Y-40776265D01*
X81053217Y-40756622D01*
X81065229Y-40727624D01*
X81100034Y-40675534D01*
X81113667Y-40651922D01*
X81120130Y-40645458D01*
X81125100Y-40638021D01*
X81201291Y-40561830D01*
X81208728Y-40556860D01*
X81215192Y-40550397D01*
X81238804Y-40536764D01*
X81290894Y-40501959D01*
X81319892Y-40489947D01*
X81339535Y-40478607D01*
X81361446Y-40472735D01*
X81390444Y-40460725D01*
X81451879Y-40448504D01*
X81478222Y-40441446D01*
X81487524Y-40441414D01*
X81496202Y-40439688D01*
X82848483Y-40436744D01*
X82848525Y-40436746D01*
X82850011Y-40436741D01*
X82854763Y-40437052D01*
G37*
G36*
X65658905Y-37587849D02*
G01*
X65701620Y-37587849D01*
X65737588Y-37596714D01*
X65772919Y-37600695D01*
X65818616Y-37616685D01*
X65865471Y-37628234D01*
X65893180Y-37642777D01*
X65920789Y-37652438D01*
X65967449Y-37681756D01*
X66014895Y-37706658D01*
X66033959Y-37723547D01*
X66053437Y-37735786D01*
X66097416Y-37779765D01*
X66141210Y-37818563D01*
X66152343Y-37834692D01*
X66164213Y-37846562D01*
X66201530Y-37905952D01*
X66237073Y-37957445D01*
X66241926Y-37970242D01*
X66247561Y-37979210D01*
X66274212Y-38055372D01*
X66296914Y-38115233D01*
X66297846Y-38122915D01*
X66299304Y-38127080D01*
X66311553Y-38235797D01*
X66317255Y-38282757D01*
X66311552Y-38329720D01*
X66299304Y-38438433D01*
X66297847Y-38442596D01*
X66296914Y-38450281D01*
X66274207Y-38510153D01*
X66247561Y-38586303D01*
X66241927Y-38595268D01*
X66237073Y-38608069D01*
X66201523Y-38659571D01*
X66164213Y-38718951D01*
X66152345Y-38730818D01*
X66141210Y-38746951D01*
X66097407Y-38785756D01*
X66053437Y-38829727D01*
X66033962Y-38841963D01*
X66014895Y-38858856D01*
X65967439Y-38883762D01*
X65920789Y-38913075D01*
X65893186Y-38922733D01*
X65865471Y-38937280D01*
X65818606Y-38948830D01*
X65772919Y-38964818D01*
X65737596Y-38968797D01*
X65701620Y-38977665D01*
X65658896Y-38977665D01*
X65617243Y-38982358D01*
X65575590Y-38977665D01*
X65532866Y-38977665D01*
X65496890Y-38968797D01*
X65461566Y-38964818D01*
X65415875Y-38948829D01*
X65369015Y-38937280D01*
X65341301Y-38922734D01*
X65313696Y-38913075D01*
X65267040Y-38883759D01*
X65219591Y-38858856D01*
X65200525Y-38841965D01*
X65181048Y-38829727D01*
X65137069Y-38785748D01*
X65093276Y-38746951D01*
X65082142Y-38730821D01*
X65070272Y-38718951D01*
X65032951Y-38659555D01*
X64997413Y-38608069D01*
X64992560Y-38595272D01*
X64986924Y-38586303D01*
X64960265Y-38510119D01*
X64937572Y-38450281D01*
X64936639Y-38442601D01*
X64935181Y-38438433D01*
X64922919Y-38329606D01*
X64917231Y-38282757D01*
X64922919Y-38235911D01*
X64935181Y-38127080D01*
X64936639Y-38122911D01*
X64937572Y-38115233D01*
X64960261Y-38055406D01*
X64986924Y-37979210D01*
X64992560Y-37970238D01*
X64997413Y-37957445D01*
X65032944Y-37905968D01*
X65070272Y-37846562D01*
X65082145Y-37834688D01*
X65093276Y-37818563D01*
X65137061Y-37779772D01*
X65181048Y-37735786D01*
X65200529Y-37723545D01*
X65219591Y-37706658D01*
X65267030Y-37681759D01*
X65313696Y-37652438D01*
X65341307Y-37642776D01*
X65369015Y-37628234D01*
X65415865Y-37616686D01*
X65461566Y-37600695D01*
X65496898Y-37596714D01*
X65532866Y-37587849D01*
X65575581Y-37587849D01*
X65617243Y-37583155D01*
X65658905Y-37587849D01*
G37*
G36*
X7783469Y-31760849D02*
G01*
X7946896Y-31793357D01*
X8100841Y-31857123D01*
X8239388Y-31949697D01*
X8357213Y-32067522D01*
X8449787Y-32206069D01*
X8513553Y-32360014D01*
X8546061Y-32523441D01*
X8546061Y-32690071D01*
X8513553Y-32853498D01*
X8449787Y-33007443D01*
X8357213Y-33145990D01*
X8239388Y-33263815D01*
X8100841Y-33356389D01*
X7946896Y-33420155D01*
X7783469Y-33452663D01*
X7000154Y-33456756D01*
X6916839Y-33452663D01*
X6753412Y-33420155D01*
X6599467Y-33356389D01*
X6460920Y-33263815D01*
X6405164Y-33208059D01*
X6329734Y-33232568D01*
X6324719Y-33264226D01*
X6325147Y-33266649D01*
X6317176Y-33311850D01*
X6308469Y-33366830D01*
X6306960Y-33369790D01*
X6305547Y-33377808D01*
X6282806Y-33417195D01*
X6262419Y-33457208D01*
X6255997Y-33463629D01*
X6249110Y-33475559D01*
X6217775Y-33501851D01*
X6190700Y-33528927D01*
X6177480Y-33535662D01*
X6162644Y-33548112D01*
X6129050Y-33560339D01*
X6100322Y-33574977D01*
X6079982Y-33578198D01*
X6056578Y-33586717D01*
X6026198Y-33586717D01*
X6000141Y-33590844D01*
X5974084Y-33586717D01*
X5943704Y-33586717D01*
X5920300Y-33578198D01*
X5899959Y-33574977D01*
X5871228Y-33560337D01*
X5837638Y-33548112D01*
X5822802Y-33535663D01*
X5809581Y-33528927D01*
X5782500Y-33501846D01*
X5751172Y-33475559D01*
X5744285Y-33463631D01*
X5737862Y-33457208D01*
X5717467Y-33417180D01*
X5694735Y-33377808D01*
X5693321Y-33369793D01*
X5691812Y-33366830D01*
X5683095Y-33311797D01*
X5675135Y-33266649D01*
X5683095Y-33221504D01*
X5691812Y-33166467D01*
X5693322Y-33163503D01*
X5694735Y-33155490D01*
X5717462Y-33116124D01*
X5737862Y-33076089D01*
X5744287Y-33069663D01*
X5751172Y-33057739D01*
X5782494Y-33031456D01*
X5809581Y-33004370D01*
X5822805Y-32997631D01*
X5837638Y-32985186D01*
X5871221Y-32972962D01*
X5899959Y-32958320D01*
X5920305Y-32955097D01*
X5943704Y-32946581D01*
X5974077Y-32946581D01*
X6000141Y-32942453D01*
X6026205Y-32946581D01*
X6056578Y-32946581D01*
X6079976Y-32955097D01*
X6100323Y-32958320D01*
X6129063Y-32972963D01*
X6150940Y-32980926D01*
X6215006Y-32921703D01*
X6186755Y-32853498D01*
X6154247Y-32690071D01*
X6154247Y-32523441D01*
X6186755Y-32360014D01*
X6250521Y-32206069D01*
X6343095Y-32067522D01*
X6460920Y-31949697D01*
X6599467Y-31857123D01*
X6753412Y-31793357D01*
X6916839Y-31760849D01*
X7700154Y-31756756D01*
X7783469Y-31760849D01*
G37*
G36*
X78083161Y-31760595D02*
G01*
X78246588Y-31793103D01*
X78400533Y-31856869D01*
X78539080Y-31949443D01*
X78656905Y-32067268D01*
X78749479Y-32205815D01*
X78813245Y-32359760D01*
X78845753Y-32523187D01*
X78845753Y-32689817D01*
X78813245Y-32853244D01*
X78784860Y-32921771D01*
X78848908Y-32980981D01*
X78870919Y-32972969D01*
X78899674Y-32958320D01*
X78920024Y-32955096D01*
X78943422Y-32946581D01*
X78973795Y-32946581D01*
X78999859Y-32942453D01*
X79025922Y-32946581D01*
X79056296Y-32946581D01*
X79079695Y-32955097D01*
X79100040Y-32958320D01*
X79128775Y-32972961D01*
X79162362Y-32985186D01*
X79177195Y-32997632D01*
X79190418Y-33004370D01*
X79217499Y-33031451D01*
X79248828Y-33057739D01*
X79255714Y-33069666D01*
X79262137Y-33076089D01*
X79282528Y-33116109D01*
X79305265Y-33155490D01*
X79306678Y-33163506D01*
X79308187Y-33166467D01*
X79316895Y-33221448D01*
X79324865Y-33266649D01*
X79316894Y-33311853D01*
X79308187Y-33366830D01*
X79306678Y-33369790D01*
X79305265Y-33377808D01*
X79282524Y-33417195D01*
X79262137Y-33457208D01*
X79255715Y-33463629D01*
X79248828Y-33475559D01*
X79217493Y-33501851D01*
X79190418Y-33528927D01*
X79177198Y-33535662D01*
X79162362Y-33548112D01*
X79128768Y-33560339D01*
X79100040Y-33574977D01*
X79079700Y-33578198D01*
X79056296Y-33586717D01*
X79025916Y-33586717D01*
X78999859Y-33590844D01*
X78973802Y-33586717D01*
X78943422Y-33586717D01*
X78920018Y-33578198D01*
X78899677Y-33574977D01*
X78870946Y-33560337D01*
X78837356Y-33548112D01*
X78822520Y-33535663D01*
X78809299Y-33528927D01*
X78782218Y-33501846D01*
X78750890Y-33475559D01*
X78744003Y-33463631D01*
X78737580Y-33457208D01*
X78717187Y-33417184D01*
X78694453Y-33377808D01*
X78693039Y-33369791D01*
X78691530Y-33366829D01*
X78682809Y-33311773D01*
X78674853Y-33266649D01*
X78675279Y-33264231D01*
X78670229Y-33232348D01*
X78594800Y-33207840D01*
X78539080Y-33263561D01*
X78400533Y-33356135D01*
X78246588Y-33419901D01*
X78083161Y-33452409D01*
X77299846Y-33456502D01*
X77216531Y-33452409D01*
X77053104Y-33419901D01*
X76899159Y-33356135D01*
X76760612Y-33263561D01*
X76642787Y-33145736D01*
X76550213Y-33007189D01*
X76486447Y-32853244D01*
X76453939Y-32689817D01*
X76453939Y-32523187D01*
X76486447Y-32359760D01*
X76550213Y-32205815D01*
X76642787Y-32067268D01*
X76760612Y-31949443D01*
X76899159Y-31856869D01*
X77053104Y-31793103D01*
X77216531Y-31760595D01*
X77999846Y-31756502D01*
X78083161Y-31760595D01*
G37*
G36*
X3454741Y-31796970D02*
G01*
X3502292Y-31799306D01*
X3508146Y-31800470D01*
X3521778Y-31801364D01*
X3548118Y-31808421D01*
X3609555Y-31820643D01*
X3638550Y-31832653D01*
X3660465Y-31838525D01*
X3680110Y-31849867D01*
X3709105Y-31861877D01*
X3761188Y-31896678D01*
X3784808Y-31910315D01*
X3791273Y-31916780D01*
X3798708Y-31921748D01*
X3874899Y-31997939D01*
X3879866Y-32005373D01*
X3886333Y-32011840D01*
X3899972Y-32035463D01*
X3934770Y-32087542D01*
X3946778Y-32116534D01*
X3958123Y-32136183D01*
X3963996Y-32158101D01*
X3976004Y-32187092D01*
X3988223Y-32248518D01*
X3995284Y-32274870D01*
X3995284Y-32284013D01*
X3997028Y-32292781D01*
X3997028Y-32400536D01*
X3995284Y-32409303D01*
X3995284Y-32418448D01*
X3988222Y-32444802D01*
X3976004Y-32506225D01*
X3963996Y-32535213D01*
X3958123Y-32557135D01*
X3946777Y-32576786D01*
X3934770Y-32605775D01*
X3899976Y-32657847D01*
X3886333Y-32681478D01*
X3879864Y-32687946D01*
X3874899Y-32695378D01*
X3798708Y-32771569D01*
X3791276Y-32776534D01*
X3784808Y-32783003D01*
X3761177Y-32796646D01*
X3709105Y-32831440D01*
X3680116Y-32843447D01*
X3660465Y-32854793D01*
X3638543Y-32860666D01*
X3609555Y-32872674D01*
X3548138Y-32884890D01*
X3521778Y-32891954D01*
X3512469Y-32891985D01*
X3503797Y-32893711D01*
X2151516Y-32896655D01*
X2151492Y-32896653D01*
X2149989Y-32896659D01*
X2145178Y-32896343D01*
X2097685Y-32894011D01*
X2091837Y-32892847D01*
X2078200Y-32891954D01*
X2051847Y-32884892D01*
X1990422Y-32872674D01*
X1961431Y-32860666D01*
X1939513Y-32854793D01*
X1919864Y-32843448D01*
X1890872Y-32831440D01*
X1838793Y-32796642D01*
X1815170Y-32783003D01*
X1808703Y-32776536D01*
X1801269Y-32771569D01*
X1725078Y-32695378D01*
X1720110Y-32687943D01*
X1713645Y-32681478D01*
X1700008Y-32657858D01*
X1665207Y-32605775D01*
X1653197Y-32576780D01*
X1641855Y-32557135D01*
X1635983Y-32535220D01*
X1623973Y-32506225D01*
X1611753Y-32444796D01*
X1604694Y-32418448D01*
X1604694Y-32409303D01*
X1602950Y-32400536D01*
X1602950Y-32292781D01*
X1604694Y-32284013D01*
X1604694Y-32274870D01*
X1611753Y-32248524D01*
X1623973Y-32187092D01*
X1635983Y-32158094D01*
X1641855Y-32136183D01*
X1653195Y-32116540D01*
X1665207Y-32087542D01*
X1700012Y-32035452D01*
X1713645Y-32011840D01*
X1720108Y-32005376D01*
X1725078Y-31997939D01*
X1801269Y-31921748D01*
X1808706Y-31916778D01*
X1815170Y-31910315D01*
X1838782Y-31896682D01*
X1890872Y-31861877D01*
X1919870Y-31849865D01*
X1939513Y-31838525D01*
X1961424Y-31832653D01*
X1990422Y-31820643D01*
X2051857Y-31808422D01*
X2078200Y-31801364D01*
X2087502Y-31801332D01*
X2096180Y-31799606D01*
X3448461Y-31796662D01*
X3448503Y-31796664D01*
X3449989Y-31796659D01*
X3454741Y-31796970D01*
G37*
G36*
X82854763Y-31796970D02*
G01*
X82902314Y-31799306D01*
X82908168Y-31800470D01*
X82921800Y-31801364D01*
X82948140Y-31808421D01*
X83009577Y-31820643D01*
X83038572Y-31832653D01*
X83060487Y-31838525D01*
X83080132Y-31849867D01*
X83109127Y-31861877D01*
X83161210Y-31896678D01*
X83184830Y-31910315D01*
X83191295Y-31916780D01*
X83198730Y-31921748D01*
X83274921Y-31997939D01*
X83279888Y-32005373D01*
X83286355Y-32011840D01*
X83299994Y-32035463D01*
X83334792Y-32087542D01*
X83346800Y-32116534D01*
X83358145Y-32136183D01*
X83364018Y-32158101D01*
X83376026Y-32187092D01*
X83388245Y-32248518D01*
X83395306Y-32274870D01*
X83395306Y-32284013D01*
X83397050Y-32292781D01*
X83397050Y-32400536D01*
X83395306Y-32409303D01*
X83395306Y-32418448D01*
X83388244Y-32444802D01*
X83376026Y-32506225D01*
X83364018Y-32535213D01*
X83358145Y-32557135D01*
X83346799Y-32576786D01*
X83334792Y-32605775D01*
X83299998Y-32657847D01*
X83286355Y-32681478D01*
X83279886Y-32687946D01*
X83274921Y-32695378D01*
X83198730Y-32771569D01*
X83191298Y-32776534D01*
X83184830Y-32783003D01*
X83161199Y-32796646D01*
X83109127Y-32831440D01*
X83080138Y-32843447D01*
X83060487Y-32854793D01*
X83038565Y-32860666D01*
X83009577Y-32872674D01*
X82948160Y-32884890D01*
X82921800Y-32891954D01*
X82912491Y-32891985D01*
X82903819Y-32893711D01*
X81551538Y-32896655D01*
X81551514Y-32896653D01*
X81550011Y-32896659D01*
X81545200Y-32896343D01*
X81497707Y-32894011D01*
X81491859Y-32892847D01*
X81478222Y-32891954D01*
X81451869Y-32884892D01*
X81390444Y-32872674D01*
X81361453Y-32860666D01*
X81339535Y-32854793D01*
X81319886Y-32843448D01*
X81290894Y-32831440D01*
X81238815Y-32796642D01*
X81215192Y-32783003D01*
X81208725Y-32776536D01*
X81201291Y-32771569D01*
X81125100Y-32695378D01*
X81120132Y-32687943D01*
X81113667Y-32681478D01*
X81100030Y-32657858D01*
X81065229Y-32605775D01*
X81053219Y-32576780D01*
X81041877Y-32557135D01*
X81036005Y-32535220D01*
X81023995Y-32506225D01*
X81011775Y-32444796D01*
X81004716Y-32418448D01*
X81004716Y-32409303D01*
X81002972Y-32400536D01*
X81002972Y-32292781D01*
X81004716Y-32284013D01*
X81004716Y-32274870D01*
X81011775Y-32248524D01*
X81023995Y-32187092D01*
X81036005Y-32158094D01*
X81041877Y-32136183D01*
X81053217Y-32116540D01*
X81065229Y-32087542D01*
X81100034Y-32035452D01*
X81113667Y-32011840D01*
X81120130Y-32005376D01*
X81125100Y-31997939D01*
X81201291Y-31921748D01*
X81208728Y-31916778D01*
X81215192Y-31910315D01*
X81238804Y-31896682D01*
X81290894Y-31861877D01*
X81319892Y-31849865D01*
X81339535Y-31838525D01*
X81361446Y-31832653D01*
X81390444Y-31820643D01*
X81451879Y-31808422D01*
X81478222Y-31801364D01*
X81487524Y-31801332D01*
X81496202Y-31799606D01*
X82848483Y-31796662D01*
X82848525Y-31796664D01*
X82850011Y-31796659D01*
X82854763Y-31796970D01*
G37*
G36*
X13838590Y-25686430D02*
G01*
X13963564Y-25711289D01*
X14081287Y-25760051D01*
X14187235Y-25830843D01*
X14277336Y-25920944D01*
X14348128Y-26026892D01*
X14396890Y-26144615D01*
X14421749Y-26269589D01*
X14421749Y-26397011D01*
X14396890Y-26521985D01*
X14348128Y-26639708D01*
X14277336Y-26745656D01*
X14187235Y-26835757D01*
X14081287Y-26906549D01*
X13963564Y-26955311D01*
X13838590Y-26980170D01*
X11974879Y-26983300D01*
X11911168Y-26980170D01*
X11786194Y-26955311D01*
X11668471Y-26906549D01*
X11562523Y-26835757D01*
X11472422Y-26745656D01*
X11401630Y-26639708D01*
X11352868Y-26521985D01*
X11328009Y-26397011D01*
X11328009Y-26269589D01*
X11352868Y-26144615D01*
X11401630Y-26026892D01*
X11472422Y-25920944D01*
X11562523Y-25830843D01*
X11668471Y-25760051D01*
X11786194Y-25711289D01*
X11911168Y-25686430D01*
X13774879Y-25683300D01*
X13838590Y-25686430D01*
G37*
G36*
X83154747Y-20608611D02*
G01*
X83202303Y-20610947D01*
X83208157Y-20612111D01*
X83221789Y-20613005D01*
X83248129Y-20620062D01*
X83309566Y-20632284D01*
X83338561Y-20644294D01*
X83360476Y-20650166D01*
X83380121Y-20661508D01*
X83409116Y-20673518D01*
X83461199Y-20708319D01*
X83484819Y-20721956D01*
X83491284Y-20728421D01*
X83498719Y-20733389D01*
X83574910Y-20809580D01*
X83579877Y-20817014D01*
X83586344Y-20823481D01*
X83599983Y-20847104D01*
X83634781Y-20899183D01*
X83646789Y-20928175D01*
X83658134Y-20947824D01*
X83664007Y-20969742D01*
X83676015Y-20998733D01*
X83688234Y-21060159D01*
X83695295Y-21086511D01*
X83695295Y-21095654D01*
X83697039Y-21104422D01*
X83697039Y-21212177D01*
X83695295Y-21220944D01*
X83695295Y-21230089D01*
X83688233Y-21256443D01*
X83676015Y-21317866D01*
X83664007Y-21346854D01*
X83658134Y-21368776D01*
X83646788Y-21388427D01*
X83634781Y-21417416D01*
X83599987Y-21469488D01*
X83586344Y-21493119D01*
X83579875Y-21499587D01*
X83574910Y-21507019D01*
X83498719Y-21583210D01*
X83491287Y-21588175D01*
X83484819Y-21594644D01*
X83461188Y-21608287D01*
X83409116Y-21643081D01*
X83380127Y-21655088D01*
X83360476Y-21666434D01*
X83338554Y-21672307D01*
X83309566Y-21684315D01*
X83248145Y-21696532D01*
X83221789Y-21703595D01*
X83212353Y-21703652D01*
X83203755Y-21705363D01*
X82451464Y-21708293D01*
X82451429Y-21708291D01*
X82450000Y-21708300D01*
X82445194Y-21707985D01*
X82397696Y-21705652D01*
X82391848Y-21704488D01*
X82378211Y-21703595D01*
X82351858Y-21696533D01*
X82290433Y-21684315D01*
X82261442Y-21672307D01*
X82239524Y-21666434D01*
X82219875Y-21655089D01*
X82190883Y-21643081D01*
X82138804Y-21608283D01*
X82115181Y-21594644D01*
X82108714Y-21588177D01*
X82101280Y-21583210D01*
X82025089Y-21507019D01*
X82020121Y-21499584D01*
X82013656Y-21493119D01*
X82000019Y-21469499D01*
X81965218Y-21417416D01*
X81953208Y-21388421D01*
X81941866Y-21368776D01*
X81935994Y-21346861D01*
X81923984Y-21317866D01*
X81911764Y-21256437D01*
X81904705Y-21230089D01*
X81904705Y-21220944D01*
X81902961Y-21212177D01*
X81902961Y-21104422D01*
X81904705Y-21095654D01*
X81904705Y-21086511D01*
X81911764Y-21060165D01*
X81923984Y-20998733D01*
X81935994Y-20969735D01*
X81941866Y-20947824D01*
X81953206Y-20928181D01*
X81965218Y-20899183D01*
X82000023Y-20847093D01*
X82013656Y-20823481D01*
X82020119Y-20817017D01*
X82025089Y-20809580D01*
X82101280Y-20733389D01*
X82108717Y-20728419D01*
X82115181Y-20721956D01*
X82138793Y-20708323D01*
X82190883Y-20673518D01*
X82219881Y-20661506D01*
X82239524Y-20650166D01*
X82261435Y-20644294D01*
X82290433Y-20632284D01*
X82351871Y-20620062D01*
X82378211Y-20613005D01*
X82387639Y-20612947D01*
X82396244Y-20611236D01*
X83148535Y-20608306D01*
X83148588Y-20608308D01*
X83150000Y-20608300D01*
X83154747Y-20608611D01*
G37*
G36*
X80558156Y-20000430D02*
G01*
X80655725Y-20050144D01*
X80733156Y-20127575D01*
X80782870Y-20225144D01*
X80800000Y-20333300D01*
X80782870Y-20441456D01*
X80733156Y-20539025D01*
X80655725Y-20616456D01*
X80558156Y-20666170D01*
X80450000Y-20683300D01*
X80341844Y-20666170D01*
X80244275Y-20616456D01*
X80166844Y-20539025D01*
X80117130Y-20441456D01*
X80100000Y-20333300D01*
X80117130Y-20225144D01*
X80166844Y-20127575D01*
X80244275Y-20050144D01*
X80341844Y-20000430D01*
X80450000Y-19983300D01*
X80558156Y-20000430D01*
G37*
G36*
X80558156Y-16000430D02*
G01*
X80655725Y-16050144D01*
X80733156Y-16127575D01*
X80782870Y-16225144D01*
X80800000Y-16333300D01*
X80782870Y-16441456D01*
X80733156Y-16539025D01*
X80655725Y-16616456D01*
X80558156Y-16666170D01*
X80450000Y-16683300D01*
X80341844Y-16666170D01*
X80244275Y-16616456D01*
X80166844Y-16539025D01*
X80117130Y-16441456D01*
X80100000Y-16333300D01*
X80117130Y-16225144D01*
X80166844Y-16127575D01*
X80244275Y-16050144D01*
X80341844Y-16000430D01*
X80450000Y-15983300D01*
X80558156Y-16000430D01*
G37*
G36*
X83287000Y-15037364D02*
G01*
X83406775Y-15069457D01*
X83514162Y-15131457D01*
X83601843Y-15219138D01*
X83663843Y-15326525D01*
X83695936Y-15446300D01*
X83695936Y-15570300D01*
X83663843Y-15690075D01*
X83601843Y-15797462D01*
X83514162Y-15885143D01*
X83406775Y-15947143D01*
X83287000Y-15979236D01*
X82375000Y-15983300D01*
X82313000Y-15979236D01*
X82193225Y-15947143D01*
X82085838Y-15885143D01*
X81998157Y-15797462D01*
X81936157Y-15690075D01*
X81904064Y-15570300D01*
X81904064Y-15446300D01*
X81936157Y-15326525D01*
X81998157Y-15219138D01*
X82085838Y-15131457D01*
X82193225Y-15069457D01*
X82313000Y-15037364D01*
X83225000Y-15033300D01*
X83287000Y-15037364D01*
G37*
G36*
X13838590Y-9686430D02*
G01*
X13963564Y-9711289D01*
X14081287Y-9760051D01*
X14187235Y-9830843D01*
X14277336Y-9920944D01*
X14348128Y-10026892D01*
X14396890Y-10144615D01*
X14421749Y-10269589D01*
X14421749Y-10397011D01*
X14396890Y-10521985D01*
X14348128Y-10639708D01*
X14277336Y-10745656D01*
X14187235Y-10835757D01*
X14081287Y-10906549D01*
X13963564Y-10955311D01*
X13838590Y-10980170D01*
X11974879Y-10983300D01*
X11911168Y-10980170D01*
X11786194Y-10955311D01*
X11668471Y-10906549D01*
X11562523Y-10835757D01*
X11472422Y-10745656D01*
X11401630Y-10639708D01*
X11352868Y-10521985D01*
X11328009Y-10397011D01*
X11328009Y-10269589D01*
X11352868Y-10144615D01*
X11401630Y-10026892D01*
X11472422Y-9920944D01*
X11562523Y-9830843D01*
X11668471Y-9760051D01*
X11786194Y-9711289D01*
X11911168Y-9686430D01*
X13774879Y-9683300D01*
X13838590Y-9686430D01*
G37*
G36*
X3161105Y-7294152D02*
G01*
X3314132Y-7347699D01*
X3451407Y-7433954D01*
X3566046Y-7548593D01*
X3652301Y-7685868D01*
X3705848Y-7838895D01*
X3724000Y-8000000D01*
X3705848Y-8161105D01*
X3652301Y-8314132D01*
X3566046Y-8451407D01*
X3451407Y-8566046D01*
X3314132Y-8652301D01*
X3161105Y-8705848D01*
X3000000Y-8724000D01*
X2838895Y-8705848D01*
X2685868Y-8652301D01*
X2548593Y-8566046D01*
X2433954Y-8451407D01*
X2347699Y-8314132D01*
X2294152Y-8161105D01*
X2276000Y-8000000D01*
X2294152Y-7838895D01*
X2347699Y-7685868D01*
X2433954Y-7548593D01*
X2548593Y-7433954D01*
X2685868Y-7347699D01*
X2838895Y-7294152D01*
X3000000Y-7276000D01*
X3161105Y-7294152D01*
G37*
G36*
X82161105Y-7294152D02*
G01*
X82314132Y-7347699D01*
X82451407Y-7433954D01*
X82566046Y-7548593D01*
X82652301Y-7685868D01*
X82705848Y-7838895D01*
X82724000Y-8000000D01*
X82705848Y-8161105D01*
X82652301Y-8314132D01*
X82566046Y-8451407D01*
X82451407Y-8566046D01*
X82314132Y-8652301D01*
X82161105Y-8705848D01*
X82000000Y-8724000D01*
X81838895Y-8705848D01*
X81685868Y-8652301D01*
X81548593Y-8566046D01*
X81433954Y-8451407D01*
X81347699Y-8314132D01*
X81294152Y-8161105D01*
X81276000Y-8000000D01*
X81294152Y-7838895D01*
X81347699Y-7685868D01*
X81433954Y-7548593D01*
X81548593Y-7433954D01*
X81685868Y-7347699D01*
X81838895Y-7294152D01*
X82000000Y-7276000D01*
X82161105Y-7294152D01*
G37*
G36*
X3081240Y-455032D02*
G01*
X3160116Y-455032D01*
X3232576Y-464185D01*
X3307353Y-468709D01*
X3393842Y-484558D01*
X3477822Y-495168D01*
X3542865Y-511868D01*
X3610223Y-524212D01*
X3700470Y-552334D01*
X3787993Y-574806D01*
X3844935Y-597351D01*
X3904198Y-615818D01*
X3996499Y-657359D01*
X4085737Y-692691D01*
X4134194Y-719330D01*
X4184988Y-742191D01*
X4277446Y-798084D01*
X4366358Y-846964D01*
X4406267Y-875959D01*
X4448501Y-901491D01*
X4539050Y-972431D01*
X4625431Y-1035191D01*
X4657022Y-1064857D01*
X4690885Y-1091387D01*
X4777359Y-1177861D01*
X4858870Y-1254405D01*
X4882658Y-1283160D01*
X4908612Y-1309114D01*
X4988763Y-1411419D01*
X5062993Y-1501148D01*
X5079758Y-1527565D01*
X5098508Y-1551498D01*
X5170048Y-1669840D01*
X5234582Y-1771528D01*
X5245332Y-1794374D01*
X5257808Y-1815011D01*
X5318492Y-1949845D01*
X5370930Y-2061282D01*
X5376861Y-2079538D01*
X5384181Y-2095801D01*
X5431836Y-2248732D01*
X5469887Y-2365841D01*
X5472346Y-2378736D01*
X5475787Y-2389776D01*
X5508376Y-2567612D01*
X5529892Y-2680400D01*
X5530334Y-2687431D01*
X5531290Y-2692646D01*
X5546917Y-2951006D01*
X5550000Y-3000000D01*
X5546917Y-3048997D01*
X5531290Y-3307353D01*
X5530334Y-3312567D01*
X5529892Y-3319600D01*
X5508372Y-3432411D01*
X5475787Y-3610223D01*
X5472347Y-3621261D01*
X5469887Y-3634159D01*
X5431828Y-3751291D01*
X5384181Y-3904198D01*
X5376863Y-3920457D01*
X5370930Y-3938718D01*
X5318481Y-4050175D01*
X5257808Y-4184988D01*
X5245334Y-4205620D01*
X5234582Y-4228472D01*
X5170036Y-4330179D01*
X5098508Y-4448501D01*
X5079761Y-4472428D01*
X5062993Y-4498852D01*
X4988748Y-4588597D01*
X4908612Y-4690885D01*
X4882663Y-4716833D01*
X4858870Y-4745595D01*
X4777342Y-4822154D01*
X4690885Y-4908612D01*
X4657028Y-4935136D01*
X4625431Y-4964809D01*
X4539032Y-5027580D01*
X4448501Y-5098508D01*
X4406275Y-5124034D01*
X4366358Y-5153036D01*
X4277428Y-5201925D01*
X4184988Y-5257808D01*
X4134204Y-5280663D01*
X4085737Y-5307309D01*
X3996481Y-5342647D01*
X3904198Y-5384181D01*
X3844947Y-5402644D01*
X3787993Y-5425194D01*
X3700452Y-5447670D01*
X3610223Y-5475787D01*
X3542879Y-5488128D01*
X3477822Y-5504832D01*
X3393825Y-5515443D01*
X3307353Y-5531290D01*
X3232591Y-5535812D01*
X3160116Y-5544968D01*
X3081223Y-5544968D01*
X3000000Y-5549881D01*
X2918776Y-5544968D01*
X2839884Y-5544968D01*
X2767409Y-5535812D01*
X2692646Y-5531290D01*
X2606171Y-5515442D01*
X2522178Y-5504832D01*
X2457123Y-5488128D01*
X2389776Y-5475787D01*
X2299542Y-5447669D01*
X2212007Y-5425194D01*
X2155056Y-5402645D01*
X2095801Y-5384181D01*
X2003510Y-5342644D01*
X1914263Y-5307309D01*
X1865800Y-5280666D01*
X1815011Y-5257808D01*
X1722560Y-5201919D01*
X1633642Y-5153036D01*
X1593729Y-5124038D01*
X1551498Y-5098508D01*
X1460953Y-5027570D01*
X1374569Y-4964809D01*
X1342976Y-4935141D01*
X1309114Y-4908612D01*
X1222640Y-4822138D01*
X1141130Y-4745595D01*
X1117341Y-4716839D01*
X1091387Y-4690885D01*
X1011232Y-4588575D01*
X937007Y-4498852D01*
X920242Y-4472435D01*
X901491Y-4448501D01*
X829942Y-4330146D01*
X765418Y-4228472D01*
X754668Y-4205628D01*
X742191Y-4184988D01*
X681495Y-4050127D01*
X629070Y-3938718D01*
X623139Y-3920465D01*
X615818Y-3904198D01*
X568147Y-3751216D01*
X530113Y-3634159D01*
X527654Y-3621269D01*
X524212Y-3610223D01*
X491602Y-3432278D01*
X470108Y-3319600D01*
X469666Y-3312575D01*
X468709Y-3307353D01*
X453056Y-3048585D01*
X450000Y-3000000D01*
X453056Y-2951418D01*
X468709Y-2692646D01*
X469666Y-2687423D01*
X470108Y-2680400D01*
X491597Y-2567745D01*
X524212Y-2389776D01*
X527654Y-2378727D01*
X530113Y-2365841D01*
X568139Y-2248807D01*
X615818Y-2095801D01*
X623140Y-2079530D01*
X629070Y-2061282D01*
X681484Y-1949894D01*
X742191Y-1815011D01*
X754670Y-1794367D01*
X765418Y-1771528D01*
X829930Y-1669873D01*
X901491Y-1551498D01*
X920245Y-1527559D01*
X937007Y-1501148D01*
X1011217Y-1411442D01*
X1091387Y-1309114D01*
X1117345Y-1283155D01*
X1141130Y-1254405D01*
X1222624Y-1177876D01*
X1309114Y-1091387D01*
X1342982Y-1064852D01*
X1374569Y-1035191D01*
X1460936Y-972441D01*
X1551498Y-901491D01*
X1593737Y-875956D01*
X1633642Y-846964D01*
X1722542Y-798090D01*
X1815011Y-742191D01*
X1865810Y-719328D01*
X1914263Y-692691D01*
X2003492Y-657362D01*
X2095801Y-615818D01*
X2155067Y-597349D01*
X2212007Y-574806D01*
X2299524Y-552335D01*
X2389776Y-524212D01*
X2457136Y-511867D01*
X2522178Y-495168D01*
X2606153Y-484559D01*
X2692646Y-468709D01*
X2767424Y-464185D01*
X2839884Y-455032D01*
X2918760Y-455032D01*
X3000000Y-450118D01*
X3081240Y-455032D01*
G37*
G36*
X82081240Y-455032D02*
G01*
X82160116Y-455032D01*
X82232576Y-464185D01*
X82307353Y-468709D01*
X82393842Y-484558D01*
X82477822Y-495168D01*
X82542865Y-511868D01*
X82610223Y-524212D01*
X82700470Y-552334D01*
X82787993Y-574806D01*
X82844935Y-597351D01*
X82904198Y-615818D01*
X82996499Y-657359D01*
X83085737Y-692691D01*
X83134194Y-719330D01*
X83184988Y-742191D01*
X83277446Y-798084D01*
X83366358Y-846964D01*
X83406267Y-875959D01*
X83448501Y-901491D01*
X83539050Y-972431D01*
X83625431Y-1035191D01*
X83657022Y-1064857D01*
X83690885Y-1091387D01*
X83777359Y-1177861D01*
X83858870Y-1254405D01*
X83882658Y-1283160D01*
X83908612Y-1309114D01*
X83988763Y-1411419D01*
X84062993Y-1501148D01*
X84079758Y-1527565D01*
X84098508Y-1551498D01*
X84170048Y-1669840D01*
X84234582Y-1771528D01*
X84245332Y-1794374D01*
X84257808Y-1815011D01*
X84318492Y-1949845D01*
X84370930Y-2061282D01*
X84376861Y-2079538D01*
X84384181Y-2095801D01*
X84431836Y-2248732D01*
X84469887Y-2365841D01*
X84472346Y-2378736D01*
X84475787Y-2389776D01*
X84508376Y-2567612D01*
X84529892Y-2680400D01*
X84530334Y-2687431D01*
X84531290Y-2692646D01*
X84546917Y-2951006D01*
X84550000Y-3000000D01*
X84546917Y-3048997D01*
X84531290Y-3307353D01*
X84530334Y-3312567D01*
X84529892Y-3319600D01*
X84508372Y-3432411D01*
X84475787Y-3610223D01*
X84472347Y-3621261D01*
X84469887Y-3634159D01*
X84431828Y-3751291D01*
X84384181Y-3904198D01*
X84376863Y-3920457D01*
X84370930Y-3938718D01*
X84318481Y-4050175D01*
X84257808Y-4184988D01*
X84245334Y-4205620D01*
X84234582Y-4228472D01*
X84170036Y-4330179D01*
X84098508Y-4448501D01*
X84079761Y-4472428D01*
X84062993Y-4498852D01*
X83988748Y-4588597D01*
X83908612Y-4690885D01*
X83882663Y-4716833D01*
X83858870Y-4745595D01*
X83777342Y-4822154D01*
X83690885Y-4908612D01*
X83657028Y-4935136D01*
X83625431Y-4964809D01*
X83539032Y-5027580D01*
X83448501Y-5098508D01*
X83406275Y-5124034D01*
X83366358Y-5153036D01*
X83277428Y-5201925D01*
X83184988Y-5257808D01*
X83134204Y-5280663D01*
X83085737Y-5307309D01*
X82996481Y-5342647D01*
X82904198Y-5384181D01*
X82844947Y-5402644D01*
X82787993Y-5425194D01*
X82700452Y-5447670D01*
X82610223Y-5475787D01*
X82542879Y-5488128D01*
X82477822Y-5504832D01*
X82393825Y-5515443D01*
X82307353Y-5531290D01*
X82232591Y-5535812D01*
X82160116Y-5544968D01*
X82081223Y-5544968D01*
X82000000Y-5549881D01*
X81918776Y-5544968D01*
X81839884Y-5544968D01*
X81767409Y-5535812D01*
X81692646Y-5531290D01*
X81606171Y-5515442D01*
X81522178Y-5504832D01*
X81457123Y-5488128D01*
X81389776Y-5475787D01*
X81299542Y-5447669D01*
X81212007Y-5425194D01*
X81155056Y-5402645D01*
X81095801Y-5384181D01*
X81003510Y-5342644D01*
X80914263Y-5307309D01*
X80865800Y-5280666D01*
X80815011Y-5257808D01*
X80722560Y-5201919D01*
X80633642Y-5153036D01*
X80593729Y-5124038D01*
X80551498Y-5098508D01*
X80460953Y-5027570D01*
X80374569Y-4964809D01*
X80342976Y-4935141D01*
X80309114Y-4908612D01*
X80222640Y-4822138D01*
X80141130Y-4745595D01*
X80117341Y-4716839D01*
X80091387Y-4690885D01*
X80011232Y-4588575D01*
X79937007Y-4498852D01*
X79920242Y-4472435D01*
X79901491Y-4448501D01*
X79829942Y-4330146D01*
X79765418Y-4228472D01*
X79754668Y-4205628D01*
X79742191Y-4184988D01*
X79681495Y-4050127D01*
X79629070Y-3938718D01*
X79623139Y-3920465D01*
X79615818Y-3904198D01*
X79568147Y-3751216D01*
X79530113Y-3634159D01*
X79527654Y-3621269D01*
X79524212Y-3610223D01*
X79491602Y-3432278D01*
X79470108Y-3319600D01*
X79469666Y-3312575D01*
X79468709Y-3307353D01*
X79453056Y-3048585D01*
X79450000Y-3000000D01*
X79453056Y-2951418D01*
X79468709Y-2692646D01*
X79469666Y-2687423D01*
X79470108Y-2680400D01*
X79491597Y-2567745D01*
X79524212Y-2389776D01*
X79527654Y-2378727D01*
X79530113Y-2365841D01*
X79568139Y-2248807D01*
X79615818Y-2095801D01*
X79623140Y-2079530D01*
X79629070Y-2061282D01*
X79681484Y-1949894D01*
X79742191Y-1815011D01*
X79754670Y-1794367D01*
X79765418Y-1771528D01*
X79829930Y-1669873D01*
X79901491Y-1551498D01*
X79920245Y-1527559D01*
X79937007Y-1501148D01*
X80011217Y-1411442D01*
X80091387Y-1309114D01*
X80117345Y-1283155D01*
X80141130Y-1254405D01*
X80222624Y-1177876D01*
X80309114Y-1091387D01*
X80342982Y-1064852D01*
X80374569Y-1035191D01*
X80460936Y-972441D01*
X80551498Y-901491D01*
X80593737Y-875956D01*
X80633642Y-846964D01*
X80722542Y-798090D01*
X80815011Y-742191D01*
X80865810Y-719328D01*
X80914263Y-692691D01*
X81003492Y-657362D01*
X81095801Y-615818D01*
X81155067Y-597349D01*
X81212007Y-574806D01*
X81299524Y-552335D01*
X81389776Y-524212D01*
X81457136Y-511867D01*
X81522178Y-495168D01*
X81606153Y-484559D01*
X81692646Y-468709D01*
X81767424Y-464185D01*
X81839884Y-455032D01*
X81918760Y-455032D01*
X82000000Y-450118D01*
X82081240Y-455032D01*
G37*
M02*
