%TF.GenerationSoftware,KiCad,Pcbnew,8.0.3*%
%TF.CreationDate,2024-07-18T08:41:48+12:00*%
%TF.ProjectId,USB Keypad,55534220-4b65-4797-9061-642e6b696361,rev?*%
%TF.SameCoordinates,Original*%
%TF.FileFunction,Legend,Top*%
%TF.FilePolarity,Positive*%
%FSLAX46Y46*%
G04 Gerber Fmt 4.6, Leading zero omitted, Abs format (unit mm)*
G04 Created by KiCad (PCBNEW 8.0.3) date 2024-07-18 08:41:48*
%MOMM*%
%LPD*%
G01*
G04 APERTURE LIST*
G04 Aperture macros list*
%AMRoundRect*
0 Rectangle with rounded corners*
0 $1 Rounding radius*
0 $2 $3 $4 $5 $6 $7 $8 $9 X,Y pos of 4 corners*
0 Add a 4 corners polygon primitive as box body*
4,1,4,$2,$3,$4,$5,$6,$7,$8,$9,$2,$3,0*
0 Add four circle primitives for the rounded corners*
1,1,$1+$1,$2,$3*
1,1,$1+$1,$4,$5*
1,1,$1+$1,$6,$7*
1,1,$1+$1,$8,$9*
0 Add four rect primitives between the rounded corners*
20,1,$1+$1,$2,$3,$4,$5,0*
20,1,$1+$1,$4,$5,$6,$7,0*
20,1,$1+$1,$6,$7,$8,$9,0*
20,1,$1+$1,$8,$9,$2,$3,0*%
%AMFreePoly0*
4,1,35,0.535355,0.785355,0.550000,0.750000,0.550000,-0.750000,0.535355,-0.785355,0.500000,-0.800000,0.000000,-0.800000,-0.012286,-0.794911,-0.071157,-0.794911,-0.085244,-0.792886,-0.221795,-0.752791,-0.234740,-0.746879,-0.354462,-0.669938,-0.365217,-0.660618,-0.458414,-0.553063,-0.466109,-0.541091,-0.525228,-0.411637,-0.529237,-0.397982,-0.549491,-0.257116,-0.550000,-0.250000,-0.550000,0.250000,
-0.549491,0.257116,-0.529237,0.397982,-0.525228,0.411637,-0.466109,0.541091,-0.458414,0.553063,-0.365217,0.660618,-0.354462,0.669938,-0.234740,0.746879,-0.221795,0.752791,-0.085244,0.792886,-0.071157,0.794911,-0.012286,0.794911,0.000000,0.800000,0.500000,0.800000,0.535355,0.785355,0.535355,0.785355,$1*%
%AMFreePoly1*
4,1,35,0.012286,0.794911,0.071157,0.794911,0.085244,0.792886,0.221795,0.752791,0.234740,0.746879,0.354462,0.669938,0.365217,0.660618,0.458414,0.553063,0.466109,0.541091,0.525228,0.411637,0.529237,0.397982,0.549491,0.257116,0.550000,0.250000,0.550000,-0.250000,0.549491,-0.257116,0.529237,-0.397982,0.525228,-0.411637,0.466109,-0.541091,0.458414,-0.553063,0.365217,-0.660618,
0.354462,-0.669938,0.234740,-0.746879,0.221795,-0.752791,0.085244,-0.792886,0.071157,-0.794911,0.012286,-0.794911,0.000000,-0.800000,-0.500000,-0.800000,-0.535355,-0.785355,-0.550000,-0.750000,-0.550000,0.750000,-0.535355,0.785355,-0.500000,0.800000,0.000000,0.800000,0.012286,0.794911,0.012286,0.794911,$1*%
G04 Aperture macros list end*
%ADD10C,0.000000*%
%ADD11C,0.150000*%
%ADD12C,0.120000*%
%ADD13C,0.100000*%
%ADD14C,0.160000*%
%ADD15C,0.254000*%
%ADD16RoundRect,0.225000X0.300000X-0.225000X0.300000X0.225000X-0.300000X0.225000X-0.300000X-0.225000X0*%
%ADD17RoundRect,0.225000X-0.325000X-0.225000X0.325000X-0.225000X0.325000X0.225000X-0.325000X0.225000X0*%
%ADD18RoundRect,0.160000X0.210000X-0.160000X0.210000X0.160000X-0.210000X0.160000X-0.210000X-0.160000X0*%
%ADD19RoundRect,0.160000X-0.210000X0.160000X-0.210000X-0.160000X0.210000X-0.160000X0.210000X0.160000X0*%
%ADD20RoundRect,0.160000X-0.160000X-0.210000X0.160000X-0.210000X0.160000X0.210000X-0.160000X0.210000X0*%
%ADD21RoundRect,0.050000X0.850000X-0.850000X0.850000X0.850000X-0.850000X0.850000X-0.850000X-0.850000X0*%
%ADD22O,1.800000X1.800000*%
%ADD23RoundRect,0.050000X0.535001X0.300000X-0.535001X0.300000X-0.535001X-0.300000X0.535001X-0.300000X0*%
%ADD24RoundRect,0.160000X0.160000X0.210000X-0.160000X0.210000X-0.160000X-0.210000X0.160000X-0.210000X0*%
%ADD25RoundRect,0.050000X1.200000X-0.950000X1.200000X0.950000X-1.200000X0.950000X-1.200000X-0.950000X0*%
%ADD26RoundRect,0.274390X0.475610X-0.288110X0.475610X0.288110X-0.475610X0.288110X-0.475610X-0.288110X0*%
%ADD27RoundRect,0.274390X-0.475610X0.288110X-0.475610X-0.288110X0.475610X-0.288110X0.475610X0.288110X0*%
%ADD28C,0.650013*%
%ADD29RoundRect,0.050000X-0.150000X-0.475006X0.150000X-0.475006X0.150000X0.475006X-0.150000X0.475006X0*%
%ADD30O,1.100000X2.400000*%
%ADD31O,1.700000X2.400000*%
%ADD32RoundRect,0.050000X-0.850000X-0.850000X0.850000X-0.850000X0.850000X0.850000X-0.850000X0.850000X0*%
%ADD33RoundRect,0.165789X0.384211X-0.359211X0.384211X0.359211X-0.384211X0.359211X-0.384211X-0.359211X0*%
%ADD34C,0.500000*%
%ADD35RoundRect,0.270000X0.405000X0.655000X-0.405000X0.655000X-0.405000X-0.655000X0.405000X-0.655000X0*%
%ADD36O,1.600000X0.370003*%
%ADD37O,0.370003X1.600000*%
%ADD38FreePoly0,180.000000*%
%ADD39FreePoly1,180.000000*%
%ADD40C,5.100000*%
%ADD41FreePoly0,0.000000*%
%ADD42FreePoly1,0.000000*%
%ADD43RoundRect,0.175000X-0.175000X0.425000X-0.175000X-0.425000X0.175000X-0.425000X0.175000X0.425000X0*%
%ADD44RoundRect,0.165789X-0.359211X-0.384211X0.359211X-0.384211X0.359211X0.384211X-0.359211X0.384211X0*%
G04 APERTURE END LIST*
D10*
G36*
X50348566Y-19299717D02*
G01*
X49622985Y-19299717D01*
X49622985Y-15149157D01*
X50348566Y-15149157D01*
X50348566Y-19299717D01*
G37*
G36*
X46649972Y-10285026D02*
G01*
X43730255Y-10285026D01*
X43730255Y-7999894D01*
X46649972Y-7999894D01*
X46649972Y-10285026D01*
G37*
G36*
X53945135Y-10910311D02*
G01*
X50605285Y-10910311D01*
X50605285Y-10500000D01*
X51230054Y-10500000D01*
X51230054Y-8410205D01*
X50605285Y-8410205D01*
X50605285Y-7999894D01*
X53945135Y-7999894D01*
X53945135Y-10910311D01*
G37*
G36*
X39336658Y-6464333D02*
G01*
X39387573Y-6468181D01*
X39437732Y-6474517D01*
X39487072Y-6483281D01*
X39535531Y-6494410D01*
X39583047Y-6507843D01*
X39629560Y-6523517D01*
X39675006Y-6541372D01*
X39719324Y-6561344D01*
X39762452Y-6583372D01*
X39804328Y-6607395D01*
X39844891Y-6633350D01*
X39884078Y-6661176D01*
X39921827Y-6690810D01*
X39958077Y-6722191D01*
X39992766Y-6755257D01*
X40025832Y-6789946D01*
X40057213Y-6826196D01*
X40086847Y-6863946D01*
X40114673Y-6903133D01*
X40140628Y-6943695D01*
X40164651Y-6985571D01*
X40186679Y-7028699D01*
X40206652Y-7073017D01*
X40224506Y-7118463D01*
X40240181Y-7164976D01*
X40253613Y-7212493D01*
X40264743Y-7260952D01*
X40273506Y-7310292D01*
X40279843Y-7360450D01*
X40283690Y-7411366D01*
X40284986Y-7462976D01*
X40284986Y-11463249D01*
X40283690Y-11514860D01*
X40279843Y-11565775D01*
X40273506Y-11615934D01*
X40264743Y-11665274D01*
X40253613Y-11713733D01*
X40240181Y-11761250D01*
X40224506Y-11807762D01*
X40206652Y-11853208D01*
X40186679Y-11897526D01*
X40164651Y-11940654D01*
X40140628Y-11982530D01*
X40114673Y-12023093D01*
X40086847Y-12062280D01*
X40057213Y-12100029D01*
X40025832Y-12136279D01*
X39992766Y-12170968D01*
X39958077Y-12204034D01*
X39921827Y-12235415D01*
X39884078Y-12265050D01*
X39844891Y-12292875D01*
X39804328Y-12318830D01*
X39762452Y-12342853D01*
X39719324Y-12364881D01*
X39675006Y-12384854D01*
X39629560Y-12402708D01*
X39583047Y-12418383D01*
X39535531Y-12431815D01*
X39487072Y-12442945D01*
X39437732Y-12451708D01*
X39387573Y-12458045D01*
X39336658Y-12461892D01*
X39285047Y-12463188D01*
X35663562Y-12463188D01*
X35285291Y-12463188D01*
X35233681Y-12461892D01*
X35182765Y-12458045D01*
X35132607Y-12451708D01*
X35083267Y-12442945D01*
X35034808Y-12431815D01*
X34987291Y-12418383D01*
X34940779Y-12402708D01*
X34895332Y-12384854D01*
X34851014Y-12364881D01*
X34807886Y-12342853D01*
X34766010Y-12318830D01*
X34725448Y-12292875D01*
X34686261Y-12265050D01*
X34648511Y-12235415D01*
X34612261Y-12204034D01*
X34577572Y-12170968D01*
X34544506Y-12136279D01*
X34513125Y-12100029D01*
X34483491Y-12062280D01*
X34455665Y-12023093D01*
X34429710Y-11982530D01*
X34405687Y-11940654D01*
X34383659Y-11897526D01*
X34363687Y-11853208D01*
X34345832Y-11807762D01*
X34330158Y-11761250D01*
X34316725Y-11713733D01*
X34305596Y-11665274D01*
X34296832Y-11615934D01*
X34290496Y-11565775D01*
X34286648Y-11514860D01*
X34285352Y-11463249D01*
X34285352Y-11066374D01*
X35400013Y-11066374D01*
X35663562Y-11329924D01*
X36913616Y-10079871D01*
X37069679Y-10079871D01*
X37101153Y-10079147D01*
X37132100Y-10076973D01*
X37162519Y-10073350D01*
X37192408Y-10068279D01*
X37221767Y-10061758D01*
X37250594Y-10053787D01*
X37278889Y-10044368D01*
X37306651Y-10033499D01*
X37333879Y-10021180D01*
X37360573Y-10007411D01*
X37386730Y-9992193D01*
X37412350Y-9975525D01*
X37437433Y-9957407D01*
X37461977Y-9937839D01*
X37485981Y-9916821D01*
X37509445Y-9894353D01*
X37531913Y-9870894D01*
X37552931Y-9846906D01*
X37572499Y-9822388D01*
X37590617Y-9797338D01*
X37607285Y-9771757D01*
X37622503Y-9745644D01*
X37636272Y-9718997D01*
X37648590Y-9691818D01*
X37659460Y-9664104D01*
X37668879Y-9635855D01*
X37676850Y-9607071D01*
X37683371Y-9577752D01*
X37688442Y-9547896D01*
X37692065Y-9517503D01*
X37694239Y-9486572D01*
X37694963Y-9455103D01*
X37694653Y-9440140D01*
X37693726Y-9424550D01*
X37692183Y-9408340D01*
X37690027Y-9391514D01*
X37687261Y-9374078D01*
X37683888Y-9356037D01*
X37679909Y-9337396D01*
X37675327Y-9318160D01*
X38017423Y-8976579D01*
X38030426Y-9005914D01*
X38042581Y-9035326D01*
X38053889Y-9064814D01*
X38064350Y-9094378D01*
X38073967Y-9124019D01*
X38082741Y-9153736D01*
X38090673Y-9183530D01*
X38097765Y-9213400D01*
X38104017Y-9243346D01*
X38109431Y-9273368D01*
X38114009Y-9303467D01*
X38117751Y-9333642D01*
X38120660Y-9363893D01*
X38122736Y-9394220D01*
X38123980Y-9424623D01*
X38124395Y-9455103D01*
X38123256Y-9510799D01*
X38119838Y-9565581D01*
X38114139Y-9619449D01*
X38106159Y-9672403D01*
X38095896Y-9724443D01*
X38083348Y-9775568D01*
X38068514Y-9825779D01*
X38051392Y-9875074D01*
X38031982Y-9923453D01*
X38010282Y-9970917D01*
X37986290Y-10017464D01*
X37960005Y-10063095D01*
X37931425Y-10107810D01*
X37900550Y-10151607D01*
X37867378Y-10194488D01*
X37831907Y-10236450D01*
X37793449Y-10275471D01*
X37753760Y-10311968D01*
X37712841Y-10345941D01*
X37670694Y-10377391D01*
X37627320Y-10406321D01*
X37582721Y-10432729D01*
X37536899Y-10456618D01*
X37489854Y-10477989D01*
X37441589Y-10496842D01*
X37392105Y-10513178D01*
X37341403Y-10526998D01*
X37289484Y-10538303D01*
X37236351Y-10547095D01*
X37182005Y-10553373D01*
X37126447Y-10557139D01*
X37069679Y-10558395D01*
X37069679Y-10910311D01*
X37135105Y-10908895D01*
X37199547Y-10904648D01*
X37263003Y-10897571D01*
X37325474Y-10887665D01*
X37386957Y-10874931D01*
X37447451Y-10859371D01*
X37506956Y-10840985D01*
X37565470Y-10819776D01*
X37622993Y-10795743D01*
X37679522Y-10768889D01*
X37735058Y-10739215D01*
X37789598Y-10706721D01*
X37843142Y-10671409D01*
X37895689Y-10633280D01*
X37947238Y-10592335D01*
X37997787Y-10548576D01*
X38045394Y-10501621D01*
X38090558Y-10453529D01*
X38133281Y-10404299D01*
X38173561Y-10353929D01*
X38211399Y-10302420D01*
X38246796Y-10249769D01*
X38279751Y-10195975D01*
X38310264Y-10141038D01*
X38338336Y-10084957D01*
X38363967Y-10027731D01*
X38387157Y-9969357D01*
X38407905Y-9909837D01*
X38426213Y-9849168D01*
X38442079Y-9787349D01*
X38455506Y-9724379D01*
X38466491Y-9660258D01*
X39150171Y-9660258D01*
X39150171Y-9249947D01*
X38466491Y-9249947D01*
X38460045Y-9210086D01*
X38452913Y-9171068D01*
X38445094Y-9132892D01*
X38436589Y-9095558D01*
X38427398Y-9059066D01*
X38417520Y-9023415D01*
X38406956Y-8988604D01*
X38395706Y-8954633D01*
X38383768Y-8921501D01*
X38371144Y-8889208D01*
X38357834Y-8857753D01*
X38343836Y-8827135D01*
X38329151Y-8797355D01*
X38313780Y-8768410D01*
X38297721Y-8740302D01*
X38280975Y-8713029D01*
X39150171Y-7843832D01*
X38886104Y-7580282D01*
X37489809Y-8976578D01*
X35820142Y-10646244D01*
X35400013Y-11066374D01*
X34285352Y-11066374D01*
X34285352Y-9455103D01*
X35194857Y-9455103D01*
X35195582Y-9486572D01*
X35197755Y-9517503D01*
X35201378Y-9547896D01*
X35206449Y-9577752D01*
X35212970Y-9607071D01*
X35220941Y-9635855D01*
X35230361Y-9664104D01*
X35241230Y-9691818D01*
X35253549Y-9718997D01*
X35267317Y-9745644D01*
X35282536Y-9771757D01*
X35299204Y-9797338D01*
X35317322Y-9822388D01*
X35336890Y-9846906D01*
X35357908Y-9870894D01*
X35380376Y-9894353D01*
X35403840Y-9916821D01*
X35427845Y-9937839D01*
X35452388Y-9957407D01*
X35477471Y-9975525D01*
X35503091Y-9992193D01*
X35529249Y-10007411D01*
X35555942Y-10021180D01*
X35583170Y-10033499D01*
X35610932Y-10044368D01*
X35639227Y-10053787D01*
X35668054Y-10061758D01*
X35697413Y-10068279D01*
X35727302Y-10073350D01*
X35757721Y-10076973D01*
X35788668Y-10079147D01*
X35820142Y-10079871D01*
X35858900Y-10079871D01*
X37099134Y-8829818D01*
X35820142Y-8829818D01*
X35788668Y-8830543D01*
X35757721Y-8832716D01*
X35727302Y-8836339D01*
X35697413Y-8841410D01*
X35668054Y-8847931D01*
X35639227Y-8855902D01*
X35610932Y-8865321D01*
X35583170Y-8876191D01*
X35555942Y-8888509D01*
X35529249Y-8902278D01*
X35503091Y-8917496D01*
X35477471Y-8934164D01*
X35452388Y-8952282D01*
X35427845Y-8971850D01*
X35403840Y-8992868D01*
X35380376Y-9015336D01*
X35357908Y-9038800D01*
X35336890Y-9062805D01*
X35317322Y-9087349D01*
X35299204Y-9112431D01*
X35282536Y-9138052D01*
X35267317Y-9164209D01*
X35253549Y-9190902D01*
X35241230Y-9218130D01*
X35230361Y-9245892D01*
X35220941Y-9274187D01*
X35212970Y-9303015D01*
X35206449Y-9332373D01*
X35201378Y-9362262D01*
X35197755Y-9392681D01*
X35195582Y-9423628D01*
X35194857Y-9455103D01*
X34285352Y-9455103D01*
X34285352Y-8351294D01*
X37069679Y-8351294D01*
X37097643Y-8351637D01*
X37125382Y-8352666D01*
X37152896Y-8354380D01*
X37180184Y-8356781D01*
X37207246Y-8359868D01*
X37234081Y-8363641D01*
X37260688Y-8368100D01*
X37287067Y-8373246D01*
X37313217Y-8379079D01*
X37339138Y-8385599D01*
X37364828Y-8392805D01*
X37390288Y-8400698D01*
X37415517Y-8409279D01*
X37440514Y-8418546D01*
X37465278Y-8428501D01*
X37489809Y-8439144D01*
X37753356Y-8185413D01*
X37712920Y-8162944D01*
X37672177Y-8141926D01*
X37631126Y-8122358D01*
X37589770Y-8104240D01*
X37548107Y-8087572D01*
X37506138Y-8072354D01*
X37463864Y-8058586D01*
X37421284Y-8046267D01*
X37378399Y-8035398D01*
X37335209Y-8025978D01*
X37291714Y-8018008D01*
X37247915Y-8011487D01*
X37203811Y-8006415D01*
X37159404Y-8002792D01*
X37114693Y-8000619D01*
X37069679Y-7999894D01*
X37069679Y-8351294D01*
X34285352Y-8351294D01*
X34285352Y-7462976D01*
X34286648Y-7411366D01*
X34290496Y-7360450D01*
X34296832Y-7310292D01*
X34305596Y-7260952D01*
X34316725Y-7212493D01*
X34330158Y-7164976D01*
X34345832Y-7118463D01*
X34363687Y-7073017D01*
X34383659Y-7028699D01*
X34405687Y-6985571D01*
X34429710Y-6943695D01*
X34455665Y-6903133D01*
X34483491Y-6863946D01*
X34513125Y-6826196D01*
X34544506Y-6789946D01*
X34577572Y-6755257D01*
X34612261Y-6722191D01*
X34648511Y-6690810D01*
X34686261Y-6661176D01*
X34725448Y-6633350D01*
X34766010Y-6607395D01*
X34807886Y-6583372D01*
X34851014Y-6561344D01*
X34895332Y-6541372D01*
X34940779Y-6523517D01*
X34987291Y-6507843D01*
X35034808Y-6494410D01*
X35083267Y-6483281D01*
X35132607Y-6474517D01*
X35182765Y-6468181D01*
X35233681Y-6464333D01*
X35285291Y-6463037D01*
X39285047Y-6463037D01*
X39336658Y-6464333D01*
G37*
G36*
X31836857Y-6464333D02*
G01*
X31887773Y-6468181D01*
X31937931Y-6474517D01*
X31987271Y-6483281D01*
X32035730Y-6494410D01*
X32083247Y-6507843D01*
X32129759Y-6523517D01*
X32175206Y-6541372D01*
X32219524Y-6561344D01*
X32262652Y-6583372D01*
X32304528Y-6607395D01*
X32345090Y-6633350D01*
X32384277Y-6661176D01*
X32422027Y-6690810D01*
X32458277Y-6722191D01*
X32492966Y-6755257D01*
X32526032Y-6789946D01*
X32557413Y-6826196D01*
X32587047Y-6863946D01*
X32614873Y-6903133D01*
X32640828Y-6943695D01*
X32664850Y-6985571D01*
X32686879Y-7028699D01*
X32706851Y-7073017D01*
X32724705Y-7118463D01*
X32740380Y-7164976D01*
X32753813Y-7212493D01*
X32764942Y-7260952D01*
X32773706Y-7310292D01*
X32780042Y-7360450D01*
X32783889Y-7411366D01*
X32785185Y-7462976D01*
X32785185Y-11463249D01*
X32783889Y-11514860D01*
X32780042Y-11565775D01*
X32773706Y-11615934D01*
X32764942Y-11665274D01*
X32753813Y-11713733D01*
X32740380Y-11761250D01*
X32724705Y-11807762D01*
X32706851Y-11853208D01*
X32686879Y-11897526D01*
X32664850Y-11940654D01*
X32640828Y-11982530D01*
X32614873Y-12023093D01*
X32587047Y-12062280D01*
X32557413Y-12100029D01*
X32526032Y-12136279D01*
X32492966Y-12170968D01*
X32458277Y-12204034D01*
X32422027Y-12235415D01*
X32384277Y-12265050D01*
X32345090Y-12292875D01*
X32304528Y-12318830D01*
X32262652Y-12342853D01*
X32219524Y-12364881D01*
X32175206Y-12384854D01*
X32129759Y-12402708D01*
X32083247Y-12418383D01*
X32035730Y-12431815D01*
X31987271Y-12442945D01*
X31937931Y-12451708D01*
X31887773Y-12458045D01*
X31836857Y-12461892D01*
X31785246Y-12463188D01*
X29150265Y-12463188D01*
X27785491Y-12463188D01*
X27733879Y-12461892D01*
X27682959Y-12458045D01*
X27632793Y-12451708D01*
X27583444Y-12442945D01*
X27534973Y-12431815D01*
X27487442Y-12418383D01*
X27440914Y-12402708D01*
X27395451Y-12384854D01*
X27351114Y-12364881D01*
X27307966Y-12342853D01*
X27266068Y-12318830D01*
X27225483Y-12292875D01*
X27186273Y-12265050D01*
X27148500Y-12235415D01*
X27112226Y-12204034D01*
X27077513Y-12170968D01*
X27044423Y-12136279D01*
X27013018Y-12100029D01*
X26983360Y-12062280D01*
X26955511Y-12023093D01*
X26929534Y-11982530D01*
X26905490Y-11940654D01*
X26883441Y-11897526D01*
X26863450Y-11853208D01*
X26845578Y-11807762D01*
X26829888Y-11761250D01*
X26816441Y-11713733D01*
X26805300Y-11665274D01*
X26796527Y-11615934D01*
X26790184Y-11565775D01*
X26786332Y-11514860D01*
X26785035Y-11463249D01*
X26785035Y-9034973D01*
X28104850Y-9034973D01*
X29150265Y-10079871D01*
X29150265Y-10910311D01*
X30399801Y-10910311D01*
X30399801Y-10079871D01*
X31444699Y-9034973D01*
X30614775Y-9034973D01*
X28104850Y-9034973D01*
X26785035Y-9034973D01*
X26785035Y-8625179D01*
X28935291Y-8625179D01*
X30614775Y-8625179D01*
X30580597Y-8561318D01*
X30543979Y-8501572D01*
X30504921Y-8445940D01*
X30463424Y-8394424D01*
X30419486Y-8347025D01*
X30373108Y-8303743D01*
X30324289Y-8264580D01*
X30273029Y-8229535D01*
X30219327Y-8198611D01*
X30163184Y-8171807D01*
X30104599Y-8149125D01*
X30043571Y-8130565D01*
X29980101Y-8116128D01*
X29914188Y-8105815D01*
X29845832Y-8099626D01*
X29775033Y-8097563D01*
X29745697Y-8098171D01*
X29716286Y-8099996D01*
X29686798Y-8103039D01*
X29657234Y-8107299D01*
X29627593Y-8112778D01*
X29597876Y-8119477D01*
X29568082Y-8127394D01*
X29538212Y-8136532D01*
X29508266Y-8146890D01*
X29478244Y-8158470D01*
X29448145Y-8171272D01*
X29417971Y-8185296D01*
X29387720Y-8200542D01*
X29357392Y-8217013D01*
X29326989Y-8234707D01*
X29296509Y-8253626D01*
X29265344Y-8273391D01*
X29235326Y-8293623D01*
X29206455Y-8314322D01*
X29178729Y-8335485D01*
X29152149Y-8357111D01*
X29126714Y-8379198D01*
X29102424Y-8401747D01*
X29079279Y-8424754D01*
X29057278Y-8448219D01*
X29036422Y-8472141D01*
X29016709Y-8496517D01*
X28998140Y-8521348D01*
X28980714Y-8546630D01*
X28964430Y-8572364D01*
X28949289Y-8598548D01*
X28935291Y-8625179D01*
X26785035Y-8625179D01*
X26785035Y-7462976D01*
X26786332Y-7411366D01*
X26790184Y-7360450D01*
X26796527Y-7310292D01*
X26805300Y-7260952D01*
X26816441Y-7212493D01*
X26829888Y-7164976D01*
X26845578Y-7118463D01*
X26863450Y-7073017D01*
X26883441Y-7028699D01*
X26905490Y-6985571D01*
X26929534Y-6943695D01*
X26955511Y-6903133D01*
X26983360Y-6863946D01*
X27013018Y-6826196D01*
X27044423Y-6789946D01*
X27077513Y-6755257D01*
X27112226Y-6722191D01*
X27148500Y-6690810D01*
X27186273Y-6661176D01*
X27225483Y-6633350D01*
X27266068Y-6607395D01*
X27307966Y-6583372D01*
X27351114Y-6561344D01*
X27395451Y-6541372D01*
X27440914Y-6523517D01*
X27487442Y-6507843D01*
X27534973Y-6494410D01*
X27583444Y-6483281D01*
X27632793Y-6474517D01*
X27682959Y-6468181D01*
X27733879Y-6464333D01*
X27785491Y-6463037D01*
X31785246Y-6463037D01*
X31836857Y-6464333D01*
G37*
G36*
X70608504Y-15077121D02*
G01*
X70684042Y-15082467D01*
X70756157Y-15091542D01*
X70790937Y-15097520D01*
X70824868Y-15104481D01*
X70857952Y-15112441D01*
X70890191Y-15121419D01*
X70921589Y-15131430D01*
X70952146Y-15142491D01*
X70981866Y-15154620D01*
X71010751Y-15167833D01*
X71038802Y-15182148D01*
X71066022Y-15197580D01*
X71092414Y-15214147D01*
X71117979Y-15231866D01*
X71142720Y-15250754D01*
X71166640Y-15270827D01*
X71189739Y-15292103D01*
X71212021Y-15314598D01*
X71233488Y-15338330D01*
X71254142Y-15363314D01*
X71273986Y-15389569D01*
X71293021Y-15417110D01*
X71311250Y-15445956D01*
X71328675Y-15476121D01*
X71345298Y-15507625D01*
X71361122Y-15540483D01*
X71376149Y-15574712D01*
X71390380Y-15610330D01*
X72792343Y-19299717D01*
X71986827Y-19299717D01*
X70726287Y-15960822D01*
X70719010Y-15943020D01*
X70711012Y-15926498D01*
X70702293Y-15911237D01*
X70692853Y-15897218D01*
X70682693Y-15884425D01*
X70677342Y-15878482D01*
X70671812Y-15872839D01*
X70666101Y-15867492D01*
X70660210Y-15862441D01*
X70654139Y-15857683D01*
X70647888Y-15853215D01*
X70641457Y-15849035D01*
X70634846Y-15845141D01*
X70628054Y-15841531D01*
X70621082Y-15838203D01*
X70606599Y-15832381D01*
X70591394Y-15827658D01*
X70575469Y-15824016D01*
X70558824Y-15821437D01*
X70541458Y-15819903D01*
X70523372Y-15819395D01*
X70505284Y-15819903D01*
X70487908Y-15821437D01*
X70479484Y-15822595D01*
X70471234Y-15824016D01*
X70463158Y-15825703D01*
X70455254Y-15827658D01*
X70447521Y-15829883D01*
X70439958Y-15832381D01*
X70432564Y-15835153D01*
X70425338Y-15838203D01*
X70418278Y-15841531D01*
X70411384Y-15845141D01*
X70404654Y-15849035D01*
X70398088Y-15853215D01*
X70391683Y-15857683D01*
X70385440Y-15862441D01*
X70379356Y-15867492D01*
X70373431Y-15872839D01*
X70367664Y-15878482D01*
X70362053Y-15884425D01*
X70356598Y-15890670D01*
X70351297Y-15897218D01*
X70346149Y-15904073D01*
X70341154Y-15911237D01*
X70336309Y-15918711D01*
X70331613Y-15926498D01*
X70322668Y-15943020D01*
X70314308Y-15960822D01*
X68998428Y-19299717D01*
X68199062Y-19299717D01*
X69656368Y-15610330D01*
X69686710Y-15540483D01*
X69720115Y-15476121D01*
X69756619Y-15417110D01*
X69796257Y-15363314D01*
X69839066Y-15314598D01*
X69861670Y-15292103D01*
X69885081Y-15270827D01*
X69934339Y-15231866D01*
X69986876Y-15197580D01*
X70042727Y-15167833D01*
X70101929Y-15142491D01*
X70164518Y-15121419D01*
X70230530Y-15104481D01*
X70300000Y-15091542D01*
X70372966Y-15082467D01*
X70449462Y-15077121D01*
X70529525Y-15075369D01*
X70608504Y-15077121D01*
G37*
G36*
X24337056Y-6464333D02*
G01*
X24387972Y-6468181D01*
X24438130Y-6474517D01*
X24487470Y-6483281D01*
X24535929Y-6494410D01*
X24583446Y-6507843D01*
X24629959Y-6523517D01*
X24675405Y-6541372D01*
X24719723Y-6561344D01*
X24762851Y-6583372D01*
X24804727Y-6607395D01*
X24845289Y-6633350D01*
X24884476Y-6661176D01*
X24922226Y-6690810D01*
X24958476Y-6722191D01*
X24993165Y-6755257D01*
X25026231Y-6789946D01*
X25057612Y-6826196D01*
X25087246Y-6863946D01*
X25115072Y-6903133D01*
X25141027Y-6943695D01*
X25165050Y-6985571D01*
X25187078Y-7028699D01*
X25207050Y-7073017D01*
X25224905Y-7118463D01*
X25240579Y-7164976D01*
X25254012Y-7212493D01*
X25265141Y-7260952D01*
X25273905Y-7310292D01*
X25280241Y-7360450D01*
X25284089Y-7411366D01*
X25285385Y-7462976D01*
X25285385Y-11463249D01*
X25284089Y-11514860D01*
X25280241Y-11565775D01*
X25273905Y-11615934D01*
X25265141Y-11665274D01*
X25254012Y-11713733D01*
X25240579Y-11761250D01*
X25224905Y-11807762D01*
X25207050Y-11853208D01*
X25187078Y-11897526D01*
X25165050Y-11940654D01*
X25141027Y-11982530D01*
X25115072Y-12023093D01*
X25087246Y-12062280D01*
X25057612Y-12100029D01*
X25026231Y-12136279D01*
X24993165Y-12170968D01*
X24958476Y-12204034D01*
X24922226Y-12235415D01*
X24884476Y-12265050D01*
X24845289Y-12292875D01*
X24804727Y-12318830D01*
X24762851Y-12342853D01*
X24719723Y-12364881D01*
X24675405Y-12384854D01*
X24629959Y-12402708D01*
X24583446Y-12418383D01*
X24535929Y-12431815D01*
X24487470Y-12442945D01*
X24438130Y-12451708D01*
X24387972Y-12458045D01*
X24337056Y-12461892D01*
X24285446Y-12463188D01*
X21649947Y-12463188D01*
X20285173Y-12463188D01*
X20233562Y-12461892D01*
X20182647Y-12458045D01*
X20132488Y-12451708D01*
X20083148Y-12442945D01*
X20034689Y-12431815D01*
X19987172Y-12418383D01*
X19940660Y-12402708D01*
X19895214Y-12384854D01*
X19850896Y-12364881D01*
X19807768Y-12342853D01*
X19765892Y-12318830D01*
X19725329Y-12292875D01*
X19686142Y-12265050D01*
X19648393Y-12235415D01*
X19612143Y-12204034D01*
X19577454Y-12170968D01*
X19544388Y-12136279D01*
X19513007Y-12100029D01*
X19483372Y-12062280D01*
X19455547Y-12023093D01*
X19429592Y-11982530D01*
X19405569Y-11940654D01*
X19383541Y-11897526D01*
X19363568Y-11853208D01*
X19345714Y-11807762D01*
X19330039Y-11761250D01*
X19316607Y-11713733D01*
X19305477Y-11665274D01*
X19296714Y-11615934D01*
X19290377Y-11565775D01*
X19286530Y-11514860D01*
X19285234Y-11463249D01*
X19285234Y-9455103D01*
X20605050Y-9455103D01*
X21649947Y-10500000D01*
X21649947Y-11329924D01*
X22900000Y-11329924D01*
X22900000Y-10500000D01*
X23944898Y-9455103D01*
X23114974Y-9455103D01*
X20878418Y-9455103D01*
X20605050Y-9455103D01*
X19285234Y-9455103D01*
X19285234Y-9034973D01*
X20448987Y-9034973D01*
X20878418Y-9034973D01*
X21434974Y-9034973D01*
X23114974Y-9034973D01*
X23081940Y-8972301D01*
X23046314Y-8913679D01*
X23008096Y-8859105D01*
X22967285Y-8808580D01*
X22923882Y-8762101D01*
X22877885Y-8719668D01*
X22829295Y-8681281D01*
X22778111Y-8646939D01*
X22724333Y-8616639D01*
X22667961Y-8590383D01*
X22608995Y-8568168D01*
X22547433Y-8549995D01*
X22483276Y-8535861D01*
X22416524Y-8525767D01*
X22347176Y-8519711D01*
X22275232Y-8517692D01*
X22244714Y-8518301D01*
X22214195Y-8520126D01*
X22183674Y-8523168D01*
X22153153Y-8527429D01*
X22122630Y-8532908D01*
X22092108Y-8539606D01*
X22061584Y-8547524D01*
X22031061Y-8556661D01*
X22000538Y-8567020D01*
X21970015Y-8578600D01*
X21939492Y-8591401D01*
X21908970Y-8605425D01*
X21878448Y-8620672D01*
X21847928Y-8637142D01*
X21817408Y-8654836D01*
X21786890Y-8673755D01*
X21756903Y-8692332D01*
X21727976Y-8711440D01*
X21700111Y-8731080D01*
X21673309Y-8751253D01*
X21647572Y-8771958D01*
X21622899Y-8793197D01*
X21599292Y-8814969D01*
X21576752Y-8837275D01*
X21555280Y-8860114D01*
X21534878Y-8883489D01*
X21515546Y-8907397D01*
X21497285Y-8931841D01*
X21480096Y-8956821D01*
X21463980Y-8982335D01*
X21448939Y-9008386D01*
X21434974Y-9034973D01*
X20878418Y-9034973D01*
X20896464Y-8978288D01*
X20916422Y-8922979D01*
X20938291Y-8869045D01*
X20962071Y-8816486D01*
X20987760Y-8765301D01*
X21015359Y-8715491D01*
X21044867Y-8667054D01*
X21076282Y-8619991D01*
X21109605Y-8574302D01*
X21144835Y-8529985D01*
X21181970Y-8487042D01*
X21221011Y-8445470D01*
X21261957Y-8405270D01*
X21304807Y-8366442D01*
X21349560Y-8328986D01*
X21396216Y-8292900D01*
X21444283Y-8257423D01*
X21493267Y-8224234D01*
X21543169Y-8193333D01*
X21593987Y-8164720D01*
X21645723Y-8138396D01*
X21698375Y-8114360D01*
X21751943Y-8092613D01*
X21806428Y-8073155D01*
X21861827Y-8055985D01*
X21918142Y-8041105D01*
X21975372Y-8028513D01*
X22033516Y-8018211D01*
X22092575Y-8010198D01*
X22152547Y-8004474D01*
X22213433Y-8001039D01*
X22275232Y-7999894D01*
X22337026Y-8001039D01*
X22397895Y-8004474D01*
X22457842Y-8010198D01*
X22516868Y-8018211D01*
X22574973Y-8028513D01*
X22632159Y-8041105D01*
X22688427Y-8055985D01*
X22743779Y-8073155D01*
X22798215Y-8092613D01*
X22851736Y-8114360D01*
X22904345Y-8138396D01*
X22956041Y-8164720D01*
X23006827Y-8193333D01*
X23056703Y-8224234D01*
X23105671Y-8257423D01*
X23153732Y-8292900D01*
X23200388Y-8328986D01*
X23245141Y-8366442D01*
X23287991Y-8405270D01*
X23328937Y-8445470D01*
X23367978Y-8487042D01*
X23405113Y-8529985D01*
X23440343Y-8574302D01*
X23473666Y-8619991D01*
X23505081Y-8667054D01*
X23534589Y-8715491D01*
X23562188Y-8765301D01*
X23587877Y-8816486D01*
X23611657Y-8869045D01*
X23633526Y-8922979D01*
X23653484Y-8978288D01*
X23671530Y-9034973D01*
X24100961Y-9034973D01*
X24082423Y-8956505D01*
X24060988Y-8879793D01*
X24036657Y-8804835D01*
X24009428Y-8731633D01*
X23979301Y-8660185D01*
X23946276Y-8590493D01*
X23910353Y-8522555D01*
X23871531Y-8456372D01*
X23829810Y-8391944D01*
X23785190Y-8329271D01*
X23737669Y-8268352D01*
X23687249Y-8209188D01*
X23633927Y-8151779D01*
X23577705Y-8096123D01*
X23518581Y-8042223D01*
X23456555Y-7990076D01*
X23391290Y-7940413D01*
X23324886Y-7893961D01*
X23257343Y-7850720D01*
X23188661Y-7810689D01*
X23118838Y-7773867D01*
X23047873Y-7740252D01*
X22975766Y-7709843D01*
X22902515Y-7682640D01*
X22828120Y-7658641D01*
X22752579Y-7637846D01*
X22675893Y-7620252D01*
X22598059Y-7605860D01*
X22519077Y-7594668D01*
X22438945Y-7586675D01*
X22357664Y-7581880D01*
X22275232Y-7580282D01*
X22192833Y-7581880D01*
X22111652Y-7586675D01*
X22031689Y-7594668D01*
X21952944Y-7605860D01*
X21875418Y-7620252D01*
X21799112Y-7637846D01*
X21724025Y-7658641D01*
X21650159Y-7682640D01*
X21577514Y-7709843D01*
X21506089Y-7740252D01*
X21435886Y-7773867D01*
X21366906Y-7810689D01*
X21299147Y-7850720D01*
X21232612Y-7893961D01*
X21167299Y-7940413D01*
X21103211Y-7990076D01*
X21040002Y-8042223D01*
X20979771Y-8096123D01*
X20922516Y-8151779D01*
X20868237Y-8209188D01*
X20816935Y-8268352D01*
X20768609Y-8329271D01*
X20723259Y-8391944D01*
X20680884Y-8456372D01*
X20641485Y-8522555D01*
X20605062Y-8590493D01*
X20571613Y-8660185D01*
X20541139Y-8731633D01*
X20513640Y-8804835D01*
X20489115Y-8879793D01*
X20467564Y-8956505D01*
X20448987Y-9034973D01*
X19285234Y-9034973D01*
X19285234Y-7462976D01*
X19286530Y-7411366D01*
X19290377Y-7360450D01*
X19296714Y-7310292D01*
X19305477Y-7260952D01*
X19316607Y-7212493D01*
X19330039Y-7164976D01*
X19345714Y-7118463D01*
X19363568Y-7073017D01*
X19383541Y-7028699D01*
X19405569Y-6985571D01*
X19429592Y-6943695D01*
X19455547Y-6903133D01*
X19483372Y-6863946D01*
X19513007Y-6826196D01*
X19544388Y-6789946D01*
X19577454Y-6755257D01*
X19612143Y-6722191D01*
X19648393Y-6690810D01*
X19686142Y-6661176D01*
X19725329Y-6633350D01*
X19765892Y-6607395D01*
X19807768Y-6583372D01*
X19850896Y-6561344D01*
X19895214Y-6541372D01*
X19940660Y-6523517D01*
X19987172Y-6507843D01*
X20034689Y-6494410D01*
X20083148Y-6483281D01*
X20132488Y-6474517D01*
X20182647Y-6468181D01*
X20233562Y-6464333D01*
X20285173Y-6463037D01*
X24285446Y-6463037D01*
X24337056Y-6464333D01*
G37*
G36*
X75435663Y-15157096D02*
G01*
X75541060Y-15167032D01*
X75643156Y-15180959D01*
X75741934Y-15198885D01*
X75837373Y-15220819D01*
X75929455Y-15246771D01*
X76018160Y-15276748D01*
X76103469Y-15310761D01*
X76185364Y-15348819D01*
X76263824Y-15390929D01*
X76338832Y-15437102D01*
X76410367Y-15487346D01*
X76478410Y-15541671D01*
X76542943Y-15600085D01*
X76603946Y-15662597D01*
X76661401Y-15729216D01*
X76715287Y-15799952D01*
X76765586Y-15874813D01*
X76812279Y-15953809D01*
X76855346Y-16036947D01*
X76894769Y-16124239D01*
X76930528Y-16215691D01*
X76962604Y-16311314D01*
X76990979Y-16411116D01*
X77015632Y-16515107D01*
X77036545Y-16623295D01*
X77053698Y-16735690D01*
X77067073Y-16852300D01*
X77076650Y-16973134D01*
X77084335Y-17227512D01*
X77082428Y-17356263D01*
X77076718Y-17480807D01*
X77067220Y-17601152D01*
X77053950Y-17717304D01*
X77036925Y-17829273D01*
X77016159Y-17937066D01*
X76991668Y-18040690D01*
X76963469Y-18140155D01*
X76931577Y-18235467D01*
X76896008Y-18326634D01*
X76856777Y-18413665D01*
X76813900Y-18496567D01*
X76767394Y-18575349D01*
X76717273Y-18650017D01*
X76663554Y-18720580D01*
X76606252Y-18787046D01*
X76545384Y-18849423D01*
X76480964Y-18907719D01*
X76413009Y-18961940D01*
X76341534Y-19012097D01*
X76266555Y-19058195D01*
X76188089Y-19100243D01*
X76106150Y-19138250D01*
X76020754Y-19172222D01*
X75931918Y-19202168D01*
X75839657Y-19228096D01*
X75743986Y-19250013D01*
X75644922Y-19267928D01*
X75542480Y-19281848D01*
X75436676Y-19291781D01*
X75327526Y-19297735D01*
X75215045Y-19299717D01*
X73751590Y-19299717D01*
X73709218Y-19298419D01*
X73689106Y-19296794D01*
X73669709Y-19294517D01*
X73651023Y-19291587D01*
X73633047Y-19288003D01*
X73615777Y-19283764D01*
X73599213Y-19278869D01*
X73583350Y-19273315D01*
X73568189Y-19267104D01*
X73553725Y-19260232D01*
X73539957Y-19252699D01*
X73526882Y-19244505D01*
X73514499Y-19235647D01*
X73502805Y-19226125D01*
X73491798Y-19215938D01*
X73481475Y-19205084D01*
X73471835Y-19193562D01*
X73462874Y-19181372D01*
X73454592Y-19168511D01*
X73446985Y-19154980D01*
X73440051Y-19140776D01*
X73433788Y-19125899D01*
X73428194Y-19110348D01*
X73423267Y-19094121D01*
X73419004Y-19077218D01*
X73415403Y-19059637D01*
X73412461Y-19041376D01*
X73410178Y-19022436D01*
X73408549Y-19002815D01*
X73407249Y-18961524D01*
X73407249Y-18500350D01*
X74132827Y-18500350D01*
X74133117Y-18510299D01*
X74133481Y-18514957D01*
X74133992Y-18519410D01*
X74134653Y-18523659D01*
X74135462Y-18527710D01*
X74136423Y-18531564D01*
X74137536Y-18535227D01*
X74138802Y-18538699D01*
X74140222Y-18541987D01*
X74141797Y-18545091D01*
X74143530Y-18548017D01*
X74145419Y-18550767D01*
X74147468Y-18553345D01*
X74149676Y-18555754D01*
X74152045Y-18557997D01*
X74154577Y-18560078D01*
X74157271Y-18562001D01*
X74160131Y-18563768D01*
X74163155Y-18565383D01*
X74166346Y-18566850D01*
X74169705Y-18568171D01*
X74173233Y-18569350D01*
X74176931Y-18570391D01*
X74180800Y-18571297D01*
X74184841Y-18572071D01*
X74193445Y-18573237D01*
X74202751Y-18573918D01*
X74212768Y-18574138D01*
X75215049Y-18574138D01*
X75360639Y-18569417D01*
X75495465Y-18555103D01*
X75558901Y-18544278D01*
X75619717Y-18530971D01*
X75677936Y-18515153D01*
X75733583Y-18496796D01*
X75786680Y-18475871D01*
X75837252Y-18452352D01*
X75885322Y-18426209D01*
X75930915Y-18397415D01*
X75974052Y-18365941D01*
X76014759Y-18331759D01*
X76053058Y-18294842D01*
X76088975Y-18255160D01*
X76122531Y-18212686D01*
X76153750Y-18167391D01*
X76182658Y-18119248D01*
X76209276Y-18068228D01*
X76233629Y-18014304D01*
X76255740Y-17957446D01*
X76275633Y-17897627D01*
X76293332Y-17834819D01*
X76308860Y-17768994D01*
X76322240Y-17700123D01*
X76342655Y-17553131D01*
X76354766Y-17393620D01*
X76358760Y-17221363D01*
X76354766Y-17050188D01*
X76342655Y-16891624D01*
X76333498Y-16817003D01*
X76322240Y-16745453D01*
X76308859Y-16676948D01*
X76293331Y-16611461D01*
X76275632Y-16548964D01*
X76255739Y-16489430D01*
X76233628Y-16432833D01*
X76209275Y-16379145D01*
X76182656Y-16328339D01*
X76153749Y-16280389D01*
X76122529Y-16235267D01*
X76088973Y-16192946D01*
X76053057Y-16153399D01*
X76014757Y-16116600D01*
X75974051Y-16082521D01*
X75930913Y-16051135D01*
X75885321Y-16022415D01*
X75837250Y-15996335D01*
X75786678Y-15972866D01*
X75733581Y-15951983D01*
X75677934Y-15933657D01*
X75619715Y-15917863D01*
X75558900Y-15904573D01*
X75495464Y-15893760D01*
X75429385Y-15885396D01*
X75360639Y-15879456D01*
X75289201Y-15875912D01*
X75215049Y-15874736D01*
X74212768Y-15874736D01*
X74202751Y-15874957D01*
X74193445Y-15875637D01*
X74184841Y-15876803D01*
X74180800Y-15877577D01*
X74176931Y-15878483D01*
X74173233Y-15879524D01*
X74169705Y-15880703D01*
X74166346Y-15882025D01*
X74163155Y-15883491D01*
X74160131Y-15885106D01*
X74157271Y-15886873D01*
X74154577Y-15888796D01*
X74152045Y-15890877D01*
X74149676Y-15893121D01*
X74147468Y-15895529D01*
X74145419Y-15898107D01*
X74143530Y-15900857D01*
X74141797Y-15903783D01*
X74140222Y-15906888D01*
X74138802Y-15910175D01*
X74137536Y-15913648D01*
X74136423Y-15917310D01*
X74135462Y-15921164D01*
X74134653Y-15925215D01*
X74133992Y-15929465D01*
X74133481Y-15933917D01*
X74133117Y-15938575D01*
X74132900Y-15943443D01*
X74132827Y-15948524D01*
X74132827Y-18500350D01*
X73407249Y-18500350D01*
X73407249Y-15948524D01*
X73407249Y-15487351D01*
X73408549Y-15446060D01*
X73410177Y-15426438D01*
X73412461Y-15407498D01*
X73415402Y-15389238D01*
X73419003Y-15371656D01*
X73423266Y-15354753D01*
X73428194Y-15338526D01*
X73433787Y-15322975D01*
X73440050Y-15308098D01*
X73446984Y-15293894D01*
X73454591Y-15280363D01*
X73462873Y-15267503D01*
X73471834Y-15255312D01*
X73481474Y-15243791D01*
X73491797Y-15232937D01*
X73502804Y-15222749D01*
X73514498Y-15213227D01*
X73526881Y-15204369D01*
X73539955Y-15196175D01*
X73553723Y-15188642D01*
X73568187Y-15181771D01*
X73583349Y-15175559D01*
X73599211Y-15170006D01*
X73615776Y-15165110D01*
X73633045Y-15160871D01*
X73651022Y-15157287D01*
X73669708Y-15154357D01*
X73689105Y-15152080D01*
X73709217Y-15150455D01*
X73751590Y-15149157D01*
X75215045Y-15149157D01*
X75435663Y-15157096D01*
G37*
G36*
X54336776Y-6464333D02*
G01*
X54387691Y-6468181D01*
X54437849Y-6474517D01*
X54487189Y-6483281D01*
X54535648Y-6494410D01*
X54583165Y-6507843D01*
X54629677Y-6523517D01*
X54675123Y-6541372D01*
X54719441Y-6561344D01*
X54762569Y-6583372D01*
X54804445Y-6607395D01*
X54845008Y-6633350D01*
X54884195Y-6661176D01*
X54921944Y-6690810D01*
X54958195Y-6722191D01*
X54992884Y-6755257D01*
X55025950Y-6789946D01*
X55057331Y-6826196D01*
X55086965Y-6863946D01*
X55114791Y-6903133D01*
X55140746Y-6943695D01*
X55164769Y-6985571D01*
X55186797Y-7028699D01*
X55206770Y-7073017D01*
X55224624Y-7118463D01*
X55240299Y-7164976D01*
X55253731Y-7212493D01*
X55264861Y-7260952D01*
X55273624Y-7310292D01*
X55279961Y-7360450D01*
X55283808Y-7411366D01*
X55285104Y-7462976D01*
X55285104Y-11463249D01*
X55283808Y-11514860D01*
X55279961Y-11565775D01*
X55273624Y-11615934D01*
X55264861Y-11665274D01*
X55253731Y-11713733D01*
X55240299Y-11761250D01*
X55224624Y-11807762D01*
X55206770Y-11853208D01*
X55186797Y-11897526D01*
X55164769Y-11940654D01*
X55140746Y-11982530D01*
X55114791Y-12023093D01*
X55086965Y-12062280D01*
X55057331Y-12100029D01*
X55025950Y-12136279D01*
X54992884Y-12170968D01*
X54958195Y-12204034D01*
X54921944Y-12235415D01*
X54884195Y-12265050D01*
X54845008Y-12292875D01*
X54804445Y-12318830D01*
X54762569Y-12342853D01*
X54719441Y-12364881D01*
X54675123Y-12384854D01*
X54629677Y-12402708D01*
X54583165Y-12418383D01*
X54535648Y-12431815D01*
X54487189Y-12442945D01*
X54437849Y-12451708D01*
X54387691Y-12458045D01*
X54336776Y-12461892D01*
X54285165Y-12463188D01*
X50605285Y-12463188D01*
X50285409Y-12463188D01*
X50233799Y-12461892D01*
X50182883Y-12458045D01*
X50132725Y-12451708D01*
X50083385Y-12442945D01*
X50034926Y-12431815D01*
X49987409Y-12418383D01*
X49940897Y-12402708D01*
X49895451Y-12384854D01*
X49851133Y-12364881D01*
X49808005Y-12342853D01*
X49766128Y-12318830D01*
X49725566Y-12292875D01*
X49686379Y-12265050D01*
X49648630Y-12235415D01*
X49612379Y-12204034D01*
X49577690Y-12170968D01*
X49544624Y-12136279D01*
X49513243Y-12100029D01*
X49483609Y-12062280D01*
X49455784Y-12023093D01*
X49429828Y-11982530D01*
X49405806Y-11940654D01*
X49383777Y-11897526D01*
X49363805Y-11853208D01*
X49345951Y-11807762D01*
X49330276Y-11761250D01*
X49316843Y-11713733D01*
X49305714Y-11665274D01*
X49296950Y-11615934D01*
X49290614Y-11565775D01*
X49286767Y-11514860D01*
X49285471Y-11463249D01*
X49285471Y-9455103D01*
X49774847Y-9455103D01*
X49775306Y-9480546D01*
X49776683Y-9505605D01*
X49778977Y-9530280D01*
X49782189Y-9554573D01*
X49786318Y-9578483D01*
X49791363Y-9602010D01*
X49797325Y-9625156D01*
X49804202Y-9647919D01*
X49811995Y-9670301D01*
X49820703Y-9692302D01*
X49830326Y-9713922D01*
X49840864Y-9735162D01*
X49852315Y-9756021D01*
X49864680Y-9776501D01*
X49877959Y-9796600D01*
X49892150Y-9816321D01*
X49907067Y-9835511D01*
X49922520Y-9854018D01*
X49938508Y-9871842D01*
X49955032Y-9888982D01*
X49972090Y-9905437D01*
X49989683Y-9921207D01*
X50007811Y-9936292D01*
X50026474Y-9950690D01*
X50045670Y-9964402D01*
X50065400Y-9977427D01*
X50085663Y-9989764D01*
X50106460Y-10001412D01*
X50127790Y-10012372D01*
X50149652Y-10022643D01*
X50172047Y-10032223D01*
X50194974Y-10041114D01*
X50194974Y-10910311D01*
X50195472Y-10930911D01*
X50196965Y-10951206D01*
X50199454Y-10971197D01*
X50202936Y-10990883D01*
X50207412Y-11010265D01*
X50212882Y-11029341D01*
X50219344Y-11048113D01*
X50226799Y-11066580D01*
X50235245Y-11084741D01*
X50244683Y-11102597D01*
X50255112Y-11120148D01*
X50266531Y-11137393D01*
X50278939Y-11154333D01*
X50292337Y-11170966D01*
X50306724Y-11187295D01*
X50322099Y-11203317D01*
X50336938Y-11218686D01*
X50352158Y-11233056D01*
X50367760Y-11246429D01*
X50383742Y-11258805D01*
X50400106Y-11270184D01*
X50416851Y-11280569D01*
X50433978Y-11289960D01*
X50451486Y-11298358D01*
X50469375Y-11305765D01*
X50487646Y-11312180D01*
X50506298Y-11317606D01*
X50525332Y-11322043D01*
X50544748Y-11325493D01*
X50564545Y-11327955D01*
X50584724Y-11329432D01*
X50605285Y-11329924D01*
X53945135Y-11329924D01*
X53965734Y-11329432D01*
X53986029Y-11327955D01*
X54006020Y-11325493D01*
X54025706Y-11322043D01*
X54045088Y-11317606D01*
X54064164Y-11312180D01*
X54082936Y-11305765D01*
X54101402Y-11298358D01*
X54119564Y-11289960D01*
X54137420Y-11280569D01*
X54154970Y-11270184D01*
X54172215Y-11258805D01*
X54189155Y-11246429D01*
X54205788Y-11233056D01*
X54222116Y-11218686D01*
X54238138Y-11203317D01*
X54252324Y-11187295D01*
X54265587Y-11170966D01*
X54277927Y-11154333D01*
X54289345Y-11137393D01*
X54299844Y-11120148D01*
X54309423Y-11102597D01*
X54318085Y-11084741D01*
X54325830Y-11066580D01*
X54332659Y-11048113D01*
X54338575Y-11029341D01*
X54343576Y-11010265D01*
X54347666Y-10990883D01*
X54350845Y-10971197D01*
X54353115Y-10951206D01*
X54354475Y-10930911D01*
X54354929Y-10910311D01*
X54354929Y-7999894D01*
X54354475Y-7979295D01*
X54353115Y-7958999D01*
X54350845Y-7939009D01*
X54347666Y-7919322D01*
X54343576Y-7899941D01*
X54338575Y-7880865D01*
X54332659Y-7862093D01*
X54325830Y-7843626D01*
X54318085Y-7825465D01*
X54309423Y-7807609D01*
X54299844Y-7790058D01*
X54289345Y-7772813D01*
X54277927Y-7755873D01*
X54265587Y-7739239D01*
X54252324Y-7722911D01*
X54238138Y-7706889D01*
X54222116Y-7691520D01*
X54205788Y-7677149D01*
X54189155Y-7663777D01*
X54172215Y-7651401D01*
X54154970Y-7640021D01*
X54137420Y-7629637D01*
X54119564Y-7620245D01*
X54101402Y-7611847D01*
X54082936Y-7604441D01*
X54064164Y-7598025D01*
X54045088Y-7592600D01*
X54025706Y-7588163D01*
X54006020Y-7584713D01*
X53986029Y-7582251D01*
X53965734Y-7580774D01*
X53945135Y-7580282D01*
X50605285Y-7580282D01*
X50584724Y-7580774D01*
X50564545Y-7582251D01*
X50544748Y-7584713D01*
X50525332Y-7588163D01*
X50506298Y-7592600D01*
X50487646Y-7598025D01*
X50469375Y-7604441D01*
X50451486Y-7611847D01*
X50433978Y-7620245D01*
X50416851Y-7629637D01*
X50400106Y-7640021D01*
X50383742Y-7651401D01*
X50367760Y-7663777D01*
X50352158Y-7677149D01*
X50336938Y-7691520D01*
X50322099Y-7706889D01*
X50306724Y-7722911D01*
X50292337Y-7739239D01*
X50278939Y-7755873D01*
X50266531Y-7772813D01*
X50255112Y-7790058D01*
X50244683Y-7807609D01*
X50235245Y-7825465D01*
X50226799Y-7843626D01*
X50219344Y-7862093D01*
X50212882Y-7880865D01*
X50207412Y-7899941D01*
X50202936Y-7919322D01*
X50199454Y-7939009D01*
X50196965Y-7958999D01*
X50195472Y-7979295D01*
X50194974Y-7999894D01*
X50194974Y-8869092D01*
X50172047Y-8877982D01*
X50149652Y-8887563D01*
X50127790Y-8897834D01*
X50106460Y-8908794D01*
X50085663Y-8920442D01*
X50065400Y-8932779D01*
X50045670Y-8945804D01*
X50026474Y-8959516D01*
X50007811Y-8973914D01*
X49989683Y-8988999D01*
X49972090Y-9004769D01*
X49955032Y-9021224D01*
X49938508Y-9038364D01*
X49922520Y-9056188D01*
X49907067Y-9074695D01*
X49892150Y-9093885D01*
X49877959Y-9113605D01*
X49864680Y-9133705D01*
X49852315Y-9154185D01*
X49840864Y-9175044D01*
X49830326Y-9196284D01*
X49820703Y-9217904D01*
X49811995Y-9239905D01*
X49804202Y-9262287D01*
X49797325Y-9285050D01*
X49791363Y-9308196D01*
X49786318Y-9331723D01*
X49782189Y-9355633D01*
X49778977Y-9379925D01*
X49776683Y-9404601D01*
X49775306Y-9429660D01*
X49774847Y-9455103D01*
X49285471Y-9455103D01*
X49285471Y-7462976D01*
X49286767Y-7411366D01*
X49290614Y-7360450D01*
X49296950Y-7310292D01*
X49305714Y-7260952D01*
X49316843Y-7212493D01*
X49330276Y-7164976D01*
X49345951Y-7118463D01*
X49363805Y-7073017D01*
X49383777Y-7028699D01*
X49405806Y-6985571D01*
X49429828Y-6943695D01*
X49455784Y-6903133D01*
X49483609Y-6863946D01*
X49513243Y-6826196D01*
X49544624Y-6789946D01*
X49577690Y-6755257D01*
X49612379Y-6722191D01*
X49648630Y-6690810D01*
X49686379Y-6661176D01*
X49725566Y-6633350D01*
X49766128Y-6607395D01*
X49808005Y-6583372D01*
X49851133Y-6561344D01*
X49895451Y-6541372D01*
X49940897Y-6523517D01*
X49987409Y-6507843D01*
X50034926Y-6494410D01*
X50083385Y-6483281D01*
X50132725Y-6474517D01*
X50182883Y-6468181D01*
X50233799Y-6464333D01*
X50285409Y-6463037D01*
X54285165Y-6463037D01*
X54336776Y-6464333D01*
G37*
G36*
X62349681Y-15157232D02*
G01*
X62454754Y-15167331D01*
X62556618Y-15181475D01*
X62655248Y-15199668D01*
X62750620Y-15221913D01*
X62842709Y-15248214D01*
X62931489Y-15278574D01*
X63016937Y-15312996D01*
X63099028Y-15351483D01*
X63177736Y-15394040D01*
X63253038Y-15440669D01*
X63324907Y-15491374D01*
X63393320Y-15546158D01*
X63458252Y-15605024D01*
X63519678Y-15667977D01*
X63577572Y-15735019D01*
X63631912Y-15806153D01*
X63682670Y-15881384D01*
X63729824Y-15960714D01*
X63773347Y-16044147D01*
X63813216Y-16131686D01*
X63849406Y-16223335D01*
X63881891Y-16319096D01*
X63910647Y-16418974D01*
X63935649Y-16522972D01*
X63956873Y-16631093D01*
X63974294Y-16743340D01*
X63987886Y-16859717D01*
X63997626Y-16980227D01*
X64005447Y-17233661D01*
X64003505Y-17361854D01*
X63997693Y-17485874D01*
X63988033Y-17605728D01*
X63974546Y-17721424D01*
X63957253Y-17832967D01*
X63936176Y-17940364D01*
X63911337Y-18043622D01*
X63882756Y-18142749D01*
X63850455Y-18237750D01*
X63814455Y-18328632D01*
X63774778Y-18415403D01*
X63731445Y-18498068D01*
X63684478Y-18576636D01*
X63633898Y-18651111D01*
X63579726Y-18721502D01*
X63521984Y-18787815D01*
X63460693Y-18850056D01*
X63395874Y-18908233D01*
X63327549Y-18962353D01*
X63255740Y-19012421D01*
X63180467Y-19058445D01*
X63101753Y-19100431D01*
X63019618Y-19138387D01*
X62934084Y-19172318D01*
X62845172Y-19202233D01*
X62752903Y-19228137D01*
X62657300Y-19250037D01*
X62558383Y-19267940D01*
X62456174Y-19281853D01*
X62350695Y-19291782D01*
X62241965Y-19297735D01*
X62130008Y-19299717D01*
X61564304Y-19299717D01*
X61343618Y-19291782D01*
X61238138Y-19281853D01*
X61135929Y-19267940D01*
X61037012Y-19250037D01*
X60941409Y-19228137D01*
X60849140Y-19202233D01*
X60760229Y-19172318D01*
X60674694Y-19138387D01*
X60592559Y-19100431D01*
X60513845Y-19058445D01*
X60438572Y-19012421D01*
X60366763Y-18962353D01*
X60298438Y-18908233D01*
X60233620Y-18850056D01*
X60172328Y-18787815D01*
X60114586Y-18721502D01*
X60060414Y-18651111D01*
X60009834Y-18576636D01*
X59962867Y-18498068D01*
X59919534Y-18415403D01*
X59879857Y-18328632D01*
X59843858Y-18237750D01*
X59811556Y-18142749D01*
X59782975Y-18043622D01*
X59758136Y-17940364D01*
X59737059Y-17832967D01*
X59719766Y-17721424D01*
X59706279Y-17605728D01*
X59696619Y-17485874D01*
X59688865Y-17233661D01*
X60414445Y-17233661D01*
X60418509Y-17404766D01*
X60423621Y-17485528D01*
X60430815Y-17563136D01*
X60440111Y-17637617D01*
X60451533Y-17709003D01*
X60465100Y-17777321D01*
X60480835Y-17842602D01*
X60498758Y-17904874D01*
X60518892Y-17964167D01*
X60541257Y-18020511D01*
X60565876Y-18073933D01*
X60592768Y-18124464D01*
X60621956Y-18172134D01*
X60653462Y-18216970D01*
X60687306Y-18259003D01*
X60723510Y-18298262D01*
X60762095Y-18334775D01*
X60803083Y-18368573D01*
X60846494Y-18399685D01*
X60892352Y-18428139D01*
X60940676Y-18453966D01*
X60991489Y-18477194D01*
X61044811Y-18497852D01*
X61100664Y-18515971D01*
X61159070Y-18531579D01*
X61220050Y-18544705D01*
X61283624Y-18555379D01*
X61349816Y-18563630D01*
X61418645Y-18569487D01*
X61490134Y-18572980D01*
X61564304Y-18574138D01*
X62130008Y-18574138D01*
X62274585Y-18569486D01*
X62408659Y-18555367D01*
X62471808Y-18544682D01*
X62532392Y-18531538D01*
X62590432Y-18515907D01*
X62645947Y-18497756D01*
X62698959Y-18477057D01*
X62749486Y-18453778D01*
X62797550Y-18427890D01*
X62843171Y-18399361D01*
X62886369Y-18368161D01*
X62927164Y-18334260D01*
X62965577Y-18297628D01*
X63001627Y-18258234D01*
X63035336Y-18216048D01*
X63066723Y-18171039D01*
X63095809Y-18123177D01*
X63122613Y-18072432D01*
X63147157Y-18018773D01*
X63169460Y-17962169D01*
X63189543Y-17902591D01*
X63207426Y-17840008D01*
X63223129Y-17774389D01*
X63236672Y-17705705D01*
X63257362Y-17559016D01*
X63269657Y-17399700D01*
X63273719Y-17227512D01*
X63269657Y-17056268D01*
X63264549Y-16975340D01*
X63257362Y-16897509D01*
X63248077Y-16822749D01*
X63236672Y-16751035D01*
X63223128Y-16682344D01*
X63207425Y-16616649D01*
X63189542Y-16553927D01*
X63169459Y-16494153D01*
X63147156Y-16437302D01*
X63122612Y-16383348D01*
X63095808Y-16332268D01*
X63066722Y-16284037D01*
X63035335Y-16238629D01*
X63001626Y-16196021D01*
X62965575Y-16156186D01*
X62927163Y-16119101D01*
X62886367Y-16084741D01*
X62843169Y-16053081D01*
X62797549Y-16024096D01*
X62749485Y-15997761D01*
X62698957Y-15974052D01*
X62645946Y-15952944D01*
X62590430Y-15934412D01*
X62532391Y-15918431D01*
X62471807Y-15904976D01*
X62408658Y-15894024D01*
X62342924Y-15885548D01*
X62274584Y-15879525D01*
X62203619Y-15875929D01*
X62130008Y-15874736D01*
X61564304Y-15874736D01*
X61419659Y-15879527D01*
X61351236Y-15885554D01*
X61285390Y-15894036D01*
X61222102Y-15905000D01*
X61161353Y-15918471D01*
X61103127Y-15934476D01*
X61047405Y-15953040D01*
X60994169Y-15974189D01*
X60943401Y-15997949D01*
X60895083Y-16024345D01*
X60849197Y-16053405D01*
X60805725Y-16085153D01*
X60764648Y-16119616D01*
X60725950Y-16156820D01*
X60689612Y-16196789D01*
X60655615Y-16239551D01*
X60623943Y-16285131D01*
X60594576Y-16333555D01*
X60567497Y-16384849D01*
X60542688Y-16439039D01*
X60520131Y-16496151D01*
X60499807Y-16556210D01*
X60481700Y-16619243D01*
X60465790Y-16685276D01*
X60452060Y-16754333D01*
X60431067Y-16901628D01*
X60418577Y-17061335D01*
X60414445Y-17233661D01*
X59688865Y-17233661D01*
X59690825Y-17104874D01*
X59696687Y-16980227D01*
X59706426Y-16859717D01*
X59720018Y-16743340D01*
X59737439Y-16631093D01*
X59758663Y-16522972D01*
X59783665Y-16418974D01*
X59812421Y-16319096D01*
X59844906Y-16223335D01*
X59881096Y-16131686D01*
X59920965Y-16044147D01*
X59964488Y-15960714D01*
X60011642Y-15881384D01*
X60062401Y-15806153D01*
X60116740Y-15735019D01*
X60174634Y-15667977D01*
X60236060Y-15605024D01*
X60300992Y-15546158D01*
X60369405Y-15491374D01*
X60441274Y-15440669D01*
X60516576Y-15394040D01*
X60595284Y-15351483D01*
X60677375Y-15312996D01*
X60762823Y-15278574D01*
X60851604Y-15248214D01*
X60943692Y-15221913D01*
X61039064Y-15199668D01*
X61137694Y-15181475D01*
X61239558Y-15167331D01*
X61344631Y-15157232D01*
X61452888Y-15151175D01*
X61564304Y-15149157D01*
X62130008Y-15149157D01*
X62349681Y-15157232D01*
G37*
G36*
X46836974Y-6464333D02*
G01*
X46887890Y-6468181D01*
X46938049Y-6474517D01*
X46987389Y-6483281D01*
X47035848Y-6494410D01*
X47083365Y-6507843D01*
X47129877Y-6523517D01*
X47175323Y-6541372D01*
X47219641Y-6561344D01*
X47262769Y-6583372D01*
X47304646Y-6607395D01*
X47345208Y-6633350D01*
X47384395Y-6661176D01*
X47422144Y-6690810D01*
X47458395Y-6722191D01*
X47493084Y-6755257D01*
X47526149Y-6789946D01*
X47557530Y-6826196D01*
X47587165Y-6863946D01*
X47614990Y-6903133D01*
X47640945Y-6943695D01*
X47664968Y-6985571D01*
X47686996Y-7028699D01*
X47706969Y-7073017D01*
X47724823Y-7118463D01*
X47740497Y-7164976D01*
X47753930Y-7212493D01*
X47765059Y-7260952D01*
X47773823Y-7310292D01*
X47780159Y-7360450D01*
X47784007Y-7411366D01*
X47785303Y-7462976D01*
X47785303Y-11463249D01*
X47784007Y-11514860D01*
X47780159Y-11565775D01*
X47773823Y-11615934D01*
X47765059Y-11665274D01*
X47753930Y-11713733D01*
X47740497Y-11761250D01*
X47724823Y-11807762D01*
X47706969Y-11853208D01*
X47686996Y-11897526D01*
X47664968Y-11940654D01*
X47640945Y-11982530D01*
X47614990Y-12023093D01*
X47587165Y-12062280D01*
X47557530Y-12100029D01*
X47526149Y-12136279D01*
X47493084Y-12170968D01*
X47458395Y-12204034D01*
X47422144Y-12235415D01*
X47384395Y-12265050D01*
X47345208Y-12292875D01*
X47304646Y-12318830D01*
X47262769Y-12342853D01*
X47219641Y-12364881D01*
X47175323Y-12384854D01*
X47129877Y-12402708D01*
X47083365Y-12418383D01*
X47035848Y-12431815D01*
X46987389Y-12442945D01*
X46938049Y-12451708D01*
X46887890Y-12458045D01*
X46836974Y-12461892D01*
X46785364Y-12463188D01*
X42899812Y-12463188D01*
X42785093Y-12463188D01*
X42733482Y-12461892D01*
X42682567Y-12458045D01*
X42632408Y-12451708D01*
X42583068Y-12442945D01*
X42534609Y-12431815D01*
X42487092Y-12418383D01*
X42440579Y-12402708D01*
X42395133Y-12384854D01*
X42350815Y-12364881D01*
X42307687Y-12342853D01*
X42265811Y-12318830D01*
X42225249Y-12292875D01*
X42186062Y-12265050D01*
X42148312Y-12235415D01*
X42112062Y-12204034D01*
X42077373Y-12170968D01*
X42044307Y-12136279D01*
X42012926Y-12100029D01*
X41983292Y-12062280D01*
X41955466Y-12023093D01*
X41929511Y-11982530D01*
X41905489Y-11940654D01*
X41883460Y-11897526D01*
X41863488Y-11853208D01*
X41845634Y-11807762D01*
X41829959Y-11761250D01*
X41816526Y-11713733D01*
X41805397Y-11665274D01*
X41796634Y-11615934D01*
X41790297Y-11565775D01*
X41786450Y-11514860D01*
X41785154Y-11463249D01*
X41785154Y-11124768D01*
X42480201Y-11124768D01*
X42480693Y-11145368D01*
X42482170Y-11165664D01*
X42484632Y-11185654D01*
X42488082Y-11205341D01*
X42492519Y-11224722D01*
X42497944Y-11243799D01*
X42504360Y-11262570D01*
X42511766Y-11281037D01*
X42520164Y-11299198D01*
X42529555Y-11317054D01*
X42539940Y-11334605D01*
X42551320Y-11351850D01*
X42563695Y-11368790D01*
X42577068Y-11385424D01*
X42591438Y-11401752D01*
X42606807Y-11417774D01*
X42622830Y-11431966D01*
X42639158Y-11445245D01*
X42655792Y-11457610D01*
X42672732Y-11469062D01*
X42689977Y-11479599D01*
X42707528Y-11489222D01*
X42725384Y-11497930D01*
X42743545Y-11505723D01*
X42762012Y-11512601D01*
X42780783Y-11518562D01*
X42799860Y-11523608D01*
X42819241Y-11527737D01*
X42838927Y-11530949D01*
X42858918Y-11533243D01*
X42879213Y-11534620D01*
X42899812Y-11535079D01*
X45820049Y-11535079D01*
X45820049Y-11124768D01*
X43730255Y-11124768D01*
X42899812Y-11124768D01*
X42899812Y-8625179D01*
X42480201Y-8625179D01*
X42480201Y-11124768D01*
X41785154Y-11124768D01*
X41785154Y-7999894D01*
X43319944Y-7999894D01*
X43319944Y-10285026D01*
X43320442Y-10305626D01*
X43321935Y-10325921D01*
X43324423Y-10345912D01*
X43327905Y-10365598D01*
X43332381Y-10384980D01*
X43337850Y-10404056D01*
X43344312Y-10422828D01*
X43351767Y-10441295D01*
X43360213Y-10459456D01*
X43369650Y-10477312D01*
X43380079Y-10494863D01*
X43391498Y-10512108D01*
X43403906Y-10529048D01*
X43417305Y-10545682D01*
X43431691Y-10562010D01*
X43447067Y-10578032D01*
X43461906Y-10593407D01*
X43477126Y-10607794D01*
X43492727Y-10621192D01*
X43508710Y-10633600D01*
X43525073Y-10645019D01*
X43541818Y-10655448D01*
X43558945Y-10664886D01*
X43576453Y-10673332D01*
X43594342Y-10680787D01*
X43612613Y-10687249D01*
X43631266Y-10692718D01*
X43650300Y-10697195D01*
X43669716Y-10700677D01*
X43689514Y-10703165D01*
X43709693Y-10704658D01*
X43730255Y-10705156D01*
X46649972Y-10705156D01*
X46670572Y-10704658D01*
X46690867Y-10703165D01*
X46710858Y-10700677D01*
X46730544Y-10697195D01*
X46749926Y-10692718D01*
X46769002Y-10687249D01*
X46787774Y-10680787D01*
X46806240Y-10673332D01*
X46824402Y-10664886D01*
X46842258Y-10655448D01*
X46859809Y-10645019D01*
X46877054Y-10633600D01*
X46893994Y-10621192D01*
X46910627Y-10607794D01*
X46926955Y-10593407D01*
X46942977Y-10578032D01*
X46958352Y-10562010D01*
X46972739Y-10545682D01*
X46986137Y-10529048D01*
X46998546Y-10512108D01*
X47009964Y-10494863D01*
X47020393Y-10477312D01*
X47029831Y-10459456D01*
X47038277Y-10441295D01*
X47045731Y-10422828D01*
X47052194Y-10404056D01*
X47057663Y-10384980D01*
X47062139Y-10365598D01*
X47065621Y-10345912D01*
X47068109Y-10325921D01*
X47069603Y-10305626D01*
X47070100Y-10285026D01*
X47070100Y-7999894D01*
X47069603Y-7979295D01*
X47068109Y-7958999D01*
X47065621Y-7939009D01*
X47062139Y-7919322D01*
X47057663Y-7899941D01*
X47052194Y-7880865D01*
X47045731Y-7862093D01*
X47038277Y-7843626D01*
X47029831Y-7825465D01*
X47020393Y-7807609D01*
X47009964Y-7790058D01*
X46998546Y-7772813D01*
X46986137Y-7755873D01*
X46972739Y-7739239D01*
X46958352Y-7722911D01*
X46942977Y-7706889D01*
X46926955Y-7691520D01*
X46910627Y-7677149D01*
X46893994Y-7663777D01*
X46877054Y-7651401D01*
X46859809Y-7640021D01*
X46842258Y-7629637D01*
X46824402Y-7620245D01*
X46806240Y-7611847D01*
X46787774Y-7604441D01*
X46769002Y-7598025D01*
X46749926Y-7592600D01*
X46730544Y-7588163D01*
X46710858Y-7584713D01*
X46690867Y-7582251D01*
X46670572Y-7580774D01*
X46649972Y-7580282D01*
X43730255Y-7580282D01*
X43709693Y-7580774D01*
X43689514Y-7582251D01*
X43669716Y-7584713D01*
X43650300Y-7588163D01*
X43631266Y-7592600D01*
X43612613Y-7598025D01*
X43594342Y-7604441D01*
X43576453Y-7611847D01*
X43558945Y-7620245D01*
X43541818Y-7629637D01*
X43525073Y-7640021D01*
X43508710Y-7651401D01*
X43492727Y-7663777D01*
X43477126Y-7677149D01*
X43461906Y-7691520D01*
X43447067Y-7706889D01*
X43431691Y-7722911D01*
X43417305Y-7739239D01*
X43403906Y-7755873D01*
X43391498Y-7772813D01*
X43380079Y-7790058D01*
X43369650Y-7807609D01*
X43360213Y-7825465D01*
X43351767Y-7843626D01*
X43344312Y-7862093D01*
X43337850Y-7880865D01*
X43332381Y-7899941D01*
X43327905Y-7919322D01*
X43324423Y-7939009D01*
X43321935Y-7958999D01*
X43320442Y-7979295D01*
X43319944Y-7999894D01*
X41785154Y-7999894D01*
X41785154Y-7462976D01*
X41786450Y-7411366D01*
X41790297Y-7360450D01*
X41796634Y-7310292D01*
X41805397Y-7260952D01*
X41816526Y-7212493D01*
X41829959Y-7164976D01*
X41845634Y-7118463D01*
X41863488Y-7073017D01*
X41883460Y-7028699D01*
X41905489Y-6985571D01*
X41929511Y-6943695D01*
X41955466Y-6903133D01*
X41983292Y-6863946D01*
X42012926Y-6826196D01*
X42044307Y-6789946D01*
X42077373Y-6755257D01*
X42112062Y-6722191D01*
X42148312Y-6690810D01*
X42186062Y-6661176D01*
X42225249Y-6633350D01*
X42265811Y-6607395D01*
X42307687Y-6583372D01*
X42350815Y-6561344D01*
X42395133Y-6541372D01*
X42440579Y-6523517D01*
X42487092Y-6507843D01*
X42534609Y-6494410D01*
X42583068Y-6483281D01*
X42632408Y-6474517D01*
X42682567Y-6468181D01*
X42733482Y-6464333D01*
X42785093Y-6463037D01*
X46785364Y-6463037D01*
X46836974Y-6464333D01*
G37*
G36*
X61837093Y-6464333D02*
G01*
X61888008Y-6468181D01*
X61938167Y-6474517D01*
X61987507Y-6483281D01*
X62035966Y-6494410D01*
X62083483Y-6507843D01*
X62129995Y-6523517D01*
X62175442Y-6541372D01*
X62219760Y-6561344D01*
X62262888Y-6583372D01*
X62304764Y-6607395D01*
X62345326Y-6633350D01*
X62384513Y-6661176D01*
X62422263Y-6690810D01*
X62458513Y-6722191D01*
X62493202Y-6755257D01*
X62526268Y-6789946D01*
X62557649Y-6826196D01*
X62587283Y-6863946D01*
X62615108Y-6903133D01*
X62641063Y-6943695D01*
X62665086Y-6985571D01*
X62687115Y-7028699D01*
X62707087Y-7073017D01*
X62724941Y-7118463D01*
X62740616Y-7164976D01*
X62754048Y-7212493D01*
X62765177Y-7260952D01*
X62773941Y-7310292D01*
X62780278Y-7360450D01*
X62784125Y-7411366D01*
X62785421Y-7462976D01*
X62785421Y-11463249D01*
X62784125Y-11514860D01*
X62780278Y-11565775D01*
X62773941Y-11615934D01*
X62765177Y-11665274D01*
X62754048Y-11713733D01*
X62740616Y-11761250D01*
X62724941Y-11807762D01*
X62707087Y-11853208D01*
X62687115Y-11897526D01*
X62665086Y-11940654D01*
X62641063Y-11982530D01*
X62615108Y-12023093D01*
X62587283Y-12062280D01*
X62557649Y-12100029D01*
X62526268Y-12136279D01*
X62493202Y-12170968D01*
X62458513Y-12204034D01*
X62422263Y-12235415D01*
X62384513Y-12265050D01*
X62345326Y-12292875D01*
X62304764Y-12318830D01*
X62262888Y-12342853D01*
X62219760Y-12364881D01*
X62175442Y-12384854D01*
X62129995Y-12402708D01*
X62083483Y-12418383D01*
X62035966Y-12431815D01*
X61987507Y-12442945D01*
X61938167Y-12451708D01*
X61888008Y-12458045D01*
X61837093Y-12461892D01*
X61785482Y-12463188D01*
X61229963Y-12463188D01*
X57785211Y-12463188D01*
X57733600Y-12461892D01*
X57682685Y-12458045D01*
X57632526Y-12451708D01*
X57583186Y-12442945D01*
X57534727Y-12431815D01*
X57487210Y-12418383D01*
X57440698Y-12402708D01*
X57395252Y-12384854D01*
X57350934Y-12364881D01*
X57307805Y-12342853D01*
X57265929Y-12318830D01*
X57225367Y-12292875D01*
X57186180Y-12265050D01*
X57148430Y-12235415D01*
X57112180Y-12204034D01*
X57077491Y-12170968D01*
X57044425Y-12136279D01*
X57013044Y-12100029D01*
X56983410Y-12062280D01*
X56955585Y-12023093D01*
X56929630Y-11982530D01*
X56905607Y-11940654D01*
X56883579Y-11897526D01*
X56863606Y-11853208D01*
X56845752Y-11807762D01*
X56830077Y-11761250D01*
X56816645Y-11713733D01*
X56805516Y-11665274D01*
X56796752Y-11615934D01*
X56790415Y-11565775D01*
X56786568Y-11514860D01*
X56785272Y-11463249D01*
X56785272Y-10285026D01*
X58320062Y-10285026D01*
X61229963Y-10285026D01*
X59775270Y-7999894D01*
X58320062Y-10285026D01*
X56785272Y-10285026D01*
X56785272Y-7462976D01*
X56786568Y-7411366D01*
X56790415Y-7360450D01*
X56796752Y-7310292D01*
X56805516Y-7260952D01*
X56816645Y-7212493D01*
X56830077Y-7164976D01*
X56845752Y-7118463D01*
X56863606Y-7073017D01*
X56883579Y-7028699D01*
X56905607Y-6985571D01*
X56929630Y-6943695D01*
X56955585Y-6903133D01*
X56983410Y-6863946D01*
X57013044Y-6826196D01*
X57044425Y-6789946D01*
X57077491Y-6755257D01*
X57112180Y-6722191D01*
X57148430Y-6690810D01*
X57186180Y-6661176D01*
X57225367Y-6633350D01*
X57265929Y-6607395D01*
X57307805Y-6583372D01*
X57350934Y-6561344D01*
X57395252Y-6541372D01*
X57440698Y-6523517D01*
X57487210Y-6507843D01*
X57534727Y-6494410D01*
X57583186Y-6483281D01*
X57632526Y-6474517D01*
X57682685Y-6468181D01*
X57733600Y-6464333D01*
X57785211Y-6463037D01*
X61785482Y-6463037D01*
X61837093Y-6464333D01*
G37*
G36*
X47755102Y-15076426D02*
G01*
X47810046Y-15079575D01*
X47863189Y-15084783D01*
X47914531Y-15092014D01*
X47964071Y-15101237D01*
X48011810Y-15112416D01*
X48057747Y-15125518D01*
X48101882Y-15140510D01*
X48144217Y-15157357D01*
X48184749Y-15176025D01*
X48223481Y-15196482D01*
X48260411Y-15218693D01*
X48295539Y-15242624D01*
X48328866Y-15268242D01*
X48360391Y-15295513D01*
X48390116Y-15324403D01*
X48418038Y-15354878D01*
X48444159Y-15386904D01*
X48468479Y-15420448D01*
X48490997Y-15455477D01*
X48511714Y-15491955D01*
X48530629Y-15529850D01*
X48547743Y-15569127D01*
X48563056Y-15609754D01*
X48576567Y-15651695D01*
X48588276Y-15694918D01*
X48598184Y-15739388D01*
X48606291Y-15785072D01*
X48612596Y-15831935D01*
X48617099Y-15879945D01*
X48619802Y-15929068D01*
X48620702Y-15979269D01*
X48620702Y-19299717D01*
X47888973Y-19299717D01*
X47888973Y-16016163D01*
X47888722Y-16002491D01*
X47887976Y-15989150D01*
X47886743Y-15976147D01*
X47885034Y-15963488D01*
X47882855Y-15951181D01*
X47880218Y-15939232D01*
X47877130Y-15927647D01*
X47873601Y-15916434D01*
X47869639Y-15905600D01*
X47865254Y-15895150D01*
X47860455Y-15885092D01*
X47855250Y-15875433D01*
X47849649Y-15866179D01*
X47843661Y-15857337D01*
X47837294Y-15848914D01*
X47830558Y-15840917D01*
X47823462Y-15833352D01*
X47816014Y-15826226D01*
X47808225Y-15819546D01*
X47800102Y-15813319D01*
X47791654Y-15807551D01*
X47782892Y-15802249D01*
X47773823Y-15797420D01*
X47764457Y-15793070D01*
X47754803Y-15789207D01*
X47744869Y-15785837D01*
X47734665Y-15782967D01*
X47724200Y-15780604D01*
X47713483Y-15778754D01*
X47702523Y-15777425D01*
X47691328Y-15776622D01*
X47679908Y-15776353D01*
X47670163Y-15776568D01*
X47660532Y-15777207D01*
X47651020Y-15778263D01*
X47641633Y-15779727D01*
X47632377Y-15781593D01*
X47623257Y-15783851D01*
X47614278Y-15786495D01*
X47605448Y-15789515D01*
X47596770Y-15792905D01*
X47588251Y-15796657D01*
X47579896Y-15800761D01*
X47571712Y-15805212D01*
X47563703Y-15810000D01*
X47555875Y-15815118D01*
X47548235Y-15820559D01*
X47540786Y-15826313D01*
X47533536Y-15832374D01*
X47526490Y-15838733D01*
X47513032Y-15852314D01*
X47500456Y-15866994D01*
X47488808Y-15882711D01*
X47478133Y-15899400D01*
X47468476Y-15916999D01*
X47459882Y-15935444D01*
X47452396Y-15954673D01*
X46443962Y-18604883D01*
X46412646Y-18691541D01*
X46378485Y-18773848D01*
X46341224Y-18851633D01*
X46300614Y-18924726D01*
X46256400Y-18992955D01*
X46208331Y-19056149D01*
X46182772Y-19085804D01*
X46156155Y-19114136D01*
X46128448Y-19141124D01*
X46099619Y-19166746D01*
X46069638Y-19190981D01*
X46038472Y-19213808D01*
X46006090Y-19235204D01*
X45972460Y-19255150D01*
X45937552Y-19273622D01*
X45901333Y-19290601D01*
X45863772Y-19306064D01*
X45824837Y-19319990D01*
X45784497Y-19332358D01*
X45742721Y-19343147D01*
X45699476Y-19352334D01*
X45654732Y-19359899D01*
X45608456Y-19365820D01*
X45560618Y-19370075D01*
X45511185Y-19372645D01*
X45460126Y-19373506D01*
X45403939Y-19372448D01*
X45349518Y-19369298D01*
X45296865Y-19364087D01*
X45245981Y-19356848D01*
X45196867Y-19347614D01*
X45149524Y-19336418D01*
X45103952Y-19323292D01*
X45060155Y-19308269D01*
X45018131Y-19291381D01*
X44977883Y-19272661D01*
X44939412Y-19252143D01*
X44902719Y-19229857D01*
X44867805Y-19205838D01*
X44834670Y-19180117D01*
X44803317Y-19152728D01*
X44773746Y-19123703D01*
X44745959Y-19093075D01*
X44719956Y-19060876D01*
X44695739Y-19027139D01*
X44673309Y-18991896D01*
X44652667Y-18955181D01*
X44633813Y-18917026D01*
X44616750Y-18877464D01*
X44601479Y-18836527D01*
X44587999Y-18794247D01*
X44576314Y-18750659D01*
X44566423Y-18705793D01*
X44558327Y-18659683D01*
X44552029Y-18612362D01*
X44547529Y-18563862D01*
X44544828Y-18514216D01*
X44543928Y-18463457D01*
X44543928Y-16016163D01*
X44543659Y-16002491D01*
X44542862Y-15989150D01*
X44541546Y-15976147D01*
X44539724Y-15963488D01*
X44537407Y-15951181D01*
X44534605Y-15939232D01*
X44531331Y-15927647D01*
X44527595Y-15916434D01*
X44523408Y-15905600D01*
X44518783Y-15895150D01*
X44513729Y-15885092D01*
X44508259Y-15875433D01*
X44502384Y-15866179D01*
X44496115Y-15857337D01*
X44489463Y-15848914D01*
X44482439Y-15840917D01*
X44475055Y-15833352D01*
X44467322Y-15826226D01*
X44459251Y-15819546D01*
X44450854Y-15813319D01*
X44442141Y-15807551D01*
X44433124Y-15802249D01*
X44423815Y-15797420D01*
X44414224Y-15793070D01*
X44404363Y-15789207D01*
X44394243Y-15785837D01*
X44383875Y-15782967D01*
X44373271Y-15780604D01*
X44362442Y-15778754D01*
X44351398Y-15777425D01*
X44340152Y-15776622D01*
X44328715Y-15776353D01*
X44318446Y-15776568D01*
X44308393Y-15777207D01*
X44298553Y-15778263D01*
X44288926Y-15779727D01*
X44279511Y-15781593D01*
X44270306Y-15783851D01*
X44261311Y-15786495D01*
X44252524Y-15789515D01*
X44243945Y-15792905D01*
X44235571Y-15796657D01*
X44227402Y-15800761D01*
X44219437Y-15805212D01*
X44211675Y-15810000D01*
X44204114Y-15815118D01*
X44196753Y-15820559D01*
X44189592Y-15826313D01*
X44175864Y-15838733D01*
X44162919Y-15852314D01*
X44150748Y-15866994D01*
X44139343Y-15882711D01*
X44128695Y-15899400D01*
X44118795Y-15916999D01*
X44109633Y-15935444D01*
X44101202Y-15954673D01*
X42859108Y-19299717D01*
X42084337Y-19299717D01*
X43369474Y-15843991D01*
X43400720Y-15757334D01*
X43434687Y-15675027D01*
X43471644Y-15597241D01*
X43511861Y-15524148D01*
X43555609Y-15455920D01*
X43603159Y-15392726D01*
X43628443Y-15363071D01*
X43654780Y-15334738D01*
X43682201Y-15307751D01*
X43710742Y-15282128D01*
X43740436Y-15257893D01*
X43771316Y-15235067D01*
X43803417Y-15213670D01*
X43836772Y-15193725D01*
X43871415Y-15175252D01*
X43907380Y-15158274D01*
X43944701Y-15142810D01*
X43983411Y-15128884D01*
X44023544Y-15116516D01*
X44065134Y-15105728D01*
X44108215Y-15096541D01*
X44152820Y-15088976D01*
X44198984Y-15083055D01*
X44246739Y-15078799D01*
X44296121Y-15076230D01*
X44347162Y-15075369D01*
X44403908Y-15076426D01*
X44458852Y-15079575D01*
X44511995Y-15084783D01*
X44563337Y-15092014D01*
X44612877Y-15101237D01*
X44660615Y-15112416D01*
X44706553Y-15125518D01*
X44750688Y-15140510D01*
X44793023Y-15157357D01*
X44833555Y-15176025D01*
X44872287Y-15196482D01*
X44909217Y-15218693D01*
X44944345Y-15242624D01*
X44977672Y-15268242D01*
X45009197Y-15295513D01*
X45038922Y-15324403D01*
X45066844Y-15354878D01*
X45092965Y-15386904D01*
X45117285Y-15420448D01*
X45139803Y-15455477D01*
X45160520Y-15491955D01*
X45179435Y-15529850D01*
X45196549Y-15569127D01*
X45211861Y-15609754D01*
X45225372Y-15651695D01*
X45237082Y-15694918D01*
X45246990Y-15739388D01*
X45255096Y-15785072D01*
X45261401Y-15831935D01*
X45265905Y-15879945D01*
X45268607Y-15929068D01*
X45269508Y-15979269D01*
X45269508Y-18432712D01*
X45269759Y-18445825D01*
X45270505Y-18458642D01*
X45271737Y-18471155D01*
X45273447Y-18483357D01*
X45275625Y-18495238D01*
X45278263Y-18506792D01*
X45281351Y-18518010D01*
X45284880Y-18528885D01*
X45288842Y-18539409D01*
X45293227Y-18549574D01*
X45298027Y-18559371D01*
X45303231Y-18568794D01*
X45308832Y-18577833D01*
X45314821Y-18586482D01*
X45321188Y-18594733D01*
X45327924Y-18602577D01*
X45335020Y-18610007D01*
X45342467Y-18617014D01*
X45350257Y-18623592D01*
X45358380Y-18629731D01*
X45366828Y-18635425D01*
X45375590Y-18640664D01*
X45384659Y-18645443D01*
X45394025Y-18649751D01*
X45403680Y-18653583D01*
X45413613Y-18656929D01*
X45423817Y-18659782D01*
X45434282Y-18662133D01*
X45444999Y-18663976D01*
X45455960Y-18665302D01*
X45467155Y-18666104D01*
X45478574Y-18666373D01*
X45488878Y-18666176D01*
X45499033Y-18665588D01*
X45509034Y-18664615D01*
X45518878Y-18663262D01*
X45528560Y-18661536D01*
X45538076Y-18659442D01*
X45547420Y-18656985D01*
X45556589Y-18654171D01*
X45565578Y-18651006D01*
X45574381Y-18647495D01*
X45582996Y-18643644D01*
X45591417Y-18639459D01*
X45599640Y-18634945D01*
X45607661Y-18630108D01*
X45615474Y-18624953D01*
X45623075Y-18619487D01*
X45630461Y-18613714D01*
X45637625Y-18607641D01*
X45644565Y-18601272D01*
X45651274Y-18594615D01*
X45657750Y-18587673D01*
X45663987Y-18580454D01*
X45669980Y-18572962D01*
X45675726Y-18565203D01*
X45681220Y-18557183D01*
X45686457Y-18548907D01*
X45691432Y-18540381D01*
X45696142Y-18531612D01*
X45700582Y-18522603D01*
X45704747Y-18513361D01*
X45708632Y-18503892D01*
X45712234Y-18494201D01*
X46720668Y-15843991D01*
X46751914Y-15757334D01*
X46785881Y-15675027D01*
X46822838Y-15597241D01*
X46863055Y-15524148D01*
X46906804Y-15455920D01*
X46954353Y-15392726D01*
X46979638Y-15363071D01*
X47005974Y-15334738D01*
X47033396Y-15307751D01*
X47061936Y-15282128D01*
X47091630Y-15257893D01*
X47122511Y-15235067D01*
X47154611Y-15213670D01*
X47187967Y-15193725D01*
X47222610Y-15175252D01*
X47258575Y-15158274D01*
X47295896Y-15142810D01*
X47334606Y-15128884D01*
X47374739Y-15116516D01*
X47416329Y-15105728D01*
X47459410Y-15096541D01*
X47504015Y-15088976D01*
X47550178Y-15083055D01*
X47597934Y-15078799D01*
X47647315Y-15076230D01*
X47698356Y-15075369D01*
X47755102Y-15076426D01*
G37*
G36*
X76836692Y-6464333D02*
G01*
X76887608Y-6468181D01*
X76937766Y-6474517D01*
X76987106Y-6483281D01*
X77035566Y-6494410D01*
X77083082Y-6507843D01*
X77129595Y-6523517D01*
X77175041Y-6541372D01*
X77219359Y-6561344D01*
X77262487Y-6583372D01*
X77304363Y-6607395D01*
X77344926Y-6633350D01*
X77384113Y-6661176D01*
X77421862Y-6690810D01*
X77458112Y-6722191D01*
X77492801Y-6755257D01*
X77525867Y-6789946D01*
X77557248Y-6826196D01*
X77586882Y-6863946D01*
X77614708Y-6903133D01*
X77640663Y-6943695D01*
X77664686Y-6985571D01*
X77686714Y-7028699D01*
X77706686Y-7073017D01*
X77724541Y-7118463D01*
X77740215Y-7164976D01*
X77753648Y-7212493D01*
X77764777Y-7260952D01*
X77773541Y-7310292D01*
X77779877Y-7360450D01*
X77783724Y-7411366D01*
X77785020Y-7462976D01*
X77785020Y-11463249D01*
X77783724Y-11514860D01*
X77779877Y-11565775D01*
X77773541Y-11615934D01*
X77764777Y-11665274D01*
X77753648Y-11713733D01*
X77740215Y-11761250D01*
X77724541Y-11807762D01*
X77706686Y-11853208D01*
X77686714Y-11897526D01*
X77664686Y-11940654D01*
X77640663Y-11982530D01*
X77614708Y-12023093D01*
X77586882Y-12062280D01*
X77557248Y-12100029D01*
X77525867Y-12136279D01*
X77492801Y-12170968D01*
X77458112Y-12204034D01*
X77421862Y-12235415D01*
X77384113Y-12265050D01*
X77344926Y-12292875D01*
X77304363Y-12318830D01*
X77262487Y-12342853D01*
X77219359Y-12364881D01*
X77175041Y-12384854D01*
X77129595Y-12402708D01*
X77083082Y-12418383D01*
X77035566Y-12431815D01*
X76987106Y-12442945D01*
X76937766Y-12451708D01*
X76887608Y-12458045D01*
X76836692Y-12461892D01*
X76785081Y-12463188D01*
X76230077Y-12463188D01*
X74355257Y-12463188D01*
X72785329Y-12463188D01*
X72733719Y-12461892D01*
X72682803Y-12458045D01*
X72632644Y-12451708D01*
X72583304Y-12442945D01*
X72534845Y-12431815D01*
X72487328Y-12418383D01*
X72440816Y-12402708D01*
X72395370Y-12384854D01*
X72351052Y-12364881D01*
X72307924Y-12342853D01*
X72266048Y-12318830D01*
X72225485Y-12292875D01*
X72186298Y-12265050D01*
X72148549Y-12235415D01*
X72112299Y-12204034D01*
X72077610Y-12170968D01*
X72044544Y-12136279D01*
X72013163Y-12100029D01*
X71983528Y-12062280D01*
X71955703Y-12023093D01*
X71929748Y-11982530D01*
X71905725Y-11940654D01*
X71883697Y-11897526D01*
X71863724Y-11853208D01*
X71845870Y-11807762D01*
X71830196Y-11761250D01*
X71816763Y-11713733D01*
X71805634Y-11665274D01*
X71796870Y-11615934D01*
X71790534Y-11565775D01*
X71786687Y-11514860D01*
X71785390Y-11463249D01*
X71785390Y-9874715D01*
X73320180Y-9874715D01*
X73320180Y-10910311D01*
X74355257Y-10910311D01*
X74355257Y-10500000D01*
X75195001Y-10500000D01*
X75195001Y-10910311D01*
X76230077Y-10910311D01*
X76230077Y-9874715D01*
X75819768Y-9874715D01*
X75819768Y-10500000D01*
X75195001Y-10500000D01*
X74355257Y-10500000D01*
X73729974Y-10500000D01*
X73729974Y-9874715D01*
X73320180Y-9874715D01*
X71785390Y-9874715D01*
X71785390Y-9034973D01*
X73320180Y-9034973D01*
X73729974Y-9034973D01*
X73729974Y-8410205D01*
X74355257Y-8410205D01*
X75195001Y-8410205D01*
X75819768Y-8410205D01*
X75819768Y-9034973D01*
X76230077Y-9034973D01*
X76230077Y-7999894D01*
X75195001Y-7999894D01*
X75195001Y-8410205D01*
X74355257Y-8410205D01*
X74355257Y-7999894D01*
X73320180Y-7999894D01*
X73320180Y-9034973D01*
X71785390Y-9034973D01*
X71785390Y-7462976D01*
X71786687Y-7411366D01*
X71790534Y-7360450D01*
X71796870Y-7310292D01*
X71805634Y-7260952D01*
X71816763Y-7212493D01*
X71830196Y-7164976D01*
X71845870Y-7118463D01*
X71863724Y-7073017D01*
X71883697Y-7028699D01*
X71905725Y-6985571D01*
X71929748Y-6943695D01*
X71955703Y-6903133D01*
X71983528Y-6863946D01*
X72013163Y-6826196D01*
X72044544Y-6789946D01*
X72077610Y-6755257D01*
X72112299Y-6722191D01*
X72148549Y-6690810D01*
X72186298Y-6661176D01*
X72225485Y-6633350D01*
X72266048Y-6607395D01*
X72307924Y-6583372D01*
X72351052Y-6561344D01*
X72395370Y-6541372D01*
X72440816Y-6523517D01*
X72487328Y-6507843D01*
X72534845Y-6494410D01*
X72583304Y-6483281D01*
X72632644Y-6474517D01*
X72682803Y-6468181D01*
X72733719Y-6464333D01*
X72785329Y-6463037D01*
X76785081Y-6463037D01*
X76836692Y-6464333D01*
G37*
G36*
X57868732Y-15150835D02*
G01*
X57951683Y-15155810D01*
X58031548Y-15163992D01*
X58108353Y-15175290D01*
X58182122Y-15189615D01*
X58252881Y-15206876D01*
X58320654Y-15226983D01*
X58385465Y-15249846D01*
X58447341Y-15275376D01*
X58506304Y-15303482D01*
X58562381Y-15334074D01*
X58615596Y-15367061D01*
X58665973Y-15402355D01*
X58713538Y-15439864D01*
X58758316Y-15479499D01*
X58800330Y-15521170D01*
X58839606Y-15564786D01*
X58876168Y-15610258D01*
X58910042Y-15657496D01*
X58941252Y-15706408D01*
X58969823Y-15756906D01*
X58995779Y-15808899D01*
X59019146Y-15862297D01*
X59039948Y-15917011D01*
X59058210Y-15972949D01*
X59073956Y-16030022D01*
X59087212Y-16088140D01*
X59098003Y-16147213D01*
X59106352Y-16207151D01*
X59112285Y-16267863D01*
X59117002Y-16391251D01*
X59114085Y-16488429D01*
X59105196Y-16585868D01*
X59090129Y-16682965D01*
X59068675Y-16779117D01*
X59040628Y-16873719D01*
X59024067Y-16920250D01*
X59005780Y-16966168D01*
X58985742Y-17011397D01*
X58963925Y-17055861D01*
X58940305Y-17099486D01*
X58914855Y-17142195D01*
X58887549Y-17183913D01*
X58858363Y-17224565D01*
X58827269Y-17264075D01*
X58794241Y-17302369D01*
X58759255Y-17339369D01*
X58722284Y-17375002D01*
X58683301Y-17409191D01*
X58642282Y-17441861D01*
X58599201Y-17472938D01*
X58554031Y-17502344D01*
X58506746Y-17530005D01*
X58457321Y-17555846D01*
X58405729Y-17579790D01*
X58351946Y-17601763D01*
X58295945Y-17621690D01*
X58237699Y-17639493D01*
X59203088Y-19299717D01*
X58397571Y-19299717D01*
X57450630Y-17694834D01*
X56368410Y-17694834D01*
X56356089Y-17695197D01*
X56344497Y-17696299D01*
X56338978Y-17697133D01*
X56333645Y-17698157D01*
X56328498Y-17699376D01*
X56323540Y-17700791D01*
X56318771Y-17702403D01*
X56314192Y-17704216D01*
X56309804Y-17706232D01*
X56305609Y-17708453D01*
X56301608Y-17710881D01*
X56297802Y-17713518D01*
X56294191Y-17716367D01*
X56290778Y-17719430D01*
X56287562Y-17722709D01*
X56284546Y-17726206D01*
X56281731Y-17729924D01*
X56279117Y-17733865D01*
X56276705Y-17738032D01*
X56274498Y-17742425D01*
X56272495Y-17747049D01*
X56270698Y-17751904D01*
X56269109Y-17756993D01*
X56267728Y-17762319D01*
X56266556Y-17767884D01*
X56265595Y-17773690D01*
X56264845Y-17779738D01*
X56264308Y-17786033D01*
X56263985Y-17792575D01*
X56263877Y-17799367D01*
X56263877Y-19299717D01*
X55538299Y-19299717D01*
X55538299Y-17657940D01*
X55540620Y-17573539D01*
X55543538Y-17533731D01*
X55547643Y-17495497D01*
X55552945Y-17458821D01*
X55559457Y-17423688D01*
X55567190Y-17390081D01*
X55576154Y-17357986D01*
X55586361Y-17327385D01*
X55597822Y-17298264D01*
X55610549Y-17270607D01*
X55624553Y-17244398D01*
X55639845Y-17219620D01*
X55656436Y-17196260D01*
X55674338Y-17174299D01*
X55693561Y-17153724D01*
X55714118Y-17134518D01*
X55736019Y-17116665D01*
X55759275Y-17100150D01*
X55783898Y-17084956D01*
X55809900Y-17071069D01*
X55837291Y-17058472D01*
X55866082Y-17047149D01*
X55896286Y-17037086D01*
X55927912Y-17028265D01*
X55960973Y-17020671D01*
X55995480Y-17014289D01*
X56031443Y-17009103D01*
X56107786Y-17002254D01*
X56190092Y-17000000D01*
X57807272Y-17000000D01*
X57845177Y-16999179D01*
X57881656Y-16996751D01*
X57916722Y-16992764D01*
X57950392Y-16987269D01*
X57982679Y-16980315D01*
X58013598Y-16971951D01*
X58043163Y-16962227D01*
X58071390Y-16951192D01*
X58098293Y-16938896D01*
X58123886Y-16925389D01*
X58148185Y-16910720D01*
X58171203Y-16894938D01*
X58192956Y-16878094D01*
X58213458Y-16860236D01*
X58232724Y-16841415D01*
X58250768Y-16821679D01*
X58267605Y-16801079D01*
X58283250Y-16779663D01*
X58297717Y-16757482D01*
X58311020Y-16734585D01*
X58323176Y-16711021D01*
X58334198Y-16686840D01*
X58344100Y-16662092D01*
X58352898Y-16636826D01*
X58367239Y-16584938D01*
X58377338Y-16531572D01*
X58383311Y-16477126D01*
X58385276Y-16421996D01*
X58383176Y-16367210D01*
X58376834Y-16313740D01*
X58366185Y-16261891D01*
X58359227Y-16236670D01*
X58351169Y-16211970D01*
X58342003Y-16187827D01*
X58331721Y-16164282D01*
X58320315Y-16141371D01*
X58307778Y-16119134D01*
X58294101Y-16097609D01*
X58279277Y-16076833D01*
X58263298Y-16056845D01*
X58246156Y-16037684D01*
X58227843Y-16019388D01*
X58208351Y-16001994D01*
X58187672Y-15985542D01*
X58165799Y-15970070D01*
X58142723Y-15955615D01*
X58118437Y-15942216D01*
X58092932Y-15929912D01*
X58066202Y-15918740D01*
X58038237Y-15908739D01*
X58009031Y-15899948D01*
X57978575Y-15892404D01*
X57946861Y-15886146D01*
X57913882Y-15881211D01*
X57879629Y-15877640D01*
X57844095Y-15875469D01*
X57807272Y-15874736D01*
X55532150Y-15874736D01*
X55532150Y-15149157D01*
X57782672Y-15149157D01*
X57868732Y-15150835D01*
G37*
G36*
X67061466Y-15150835D02*
G01*
X67144416Y-15155810D01*
X67224281Y-15163992D01*
X67301085Y-15175290D01*
X67374855Y-15189614D01*
X67445613Y-15206875D01*
X67513386Y-15226983D01*
X67578197Y-15249846D01*
X67640072Y-15275376D01*
X67699036Y-15303482D01*
X67755113Y-15334073D01*
X67808328Y-15367061D01*
X67858705Y-15402355D01*
X67906270Y-15439864D01*
X67951047Y-15479499D01*
X67993061Y-15521170D01*
X68032337Y-15564786D01*
X68068900Y-15610258D01*
X68102773Y-15657495D01*
X68133983Y-15706408D01*
X68162554Y-15756906D01*
X68188510Y-15808899D01*
X68211877Y-15862297D01*
X68232679Y-15917010D01*
X68250941Y-15972948D01*
X68266688Y-16030022D01*
X68279944Y-16088140D01*
X68290734Y-16147213D01*
X68299084Y-16207150D01*
X68305017Y-16267862D01*
X68309734Y-16391250D01*
X68305422Y-16509249D01*
X68292248Y-16627337D01*
X68269850Y-16744453D01*
X68237868Y-16859533D01*
X68218170Y-16915978D01*
X68195942Y-16971515D01*
X68171137Y-17026012D01*
X68143712Y-17079335D01*
X68113620Y-17131353D01*
X68080817Y-17181931D01*
X68045258Y-17230938D01*
X68006897Y-17278240D01*
X67965690Y-17323705D01*
X67921592Y-17367199D01*
X67874557Y-17408591D01*
X67824541Y-17447746D01*
X67771499Y-17484532D01*
X67715385Y-17518816D01*
X67656155Y-17550466D01*
X67593763Y-17579348D01*
X67528164Y-17605330D01*
X67459314Y-17628279D01*
X67387167Y-17648062D01*
X67311678Y-17664545D01*
X67232803Y-17677597D01*
X67150496Y-17687085D01*
X67064712Y-17692874D01*
X66975406Y-17694834D01*
X65684120Y-17694834D01*
X65671798Y-17695197D01*
X65660206Y-17696299D01*
X65654687Y-17697133D01*
X65649353Y-17698157D01*
X65644207Y-17699376D01*
X65639248Y-17700791D01*
X65634479Y-17702403D01*
X65629900Y-17704216D01*
X65625512Y-17706232D01*
X65621317Y-17708453D01*
X65617316Y-17710881D01*
X65613509Y-17713518D01*
X65609899Y-17716367D01*
X65606485Y-17719430D01*
X65603270Y-17722709D01*
X65600254Y-17726206D01*
X65597439Y-17729924D01*
X65594824Y-17733865D01*
X65592413Y-17738032D01*
X65590206Y-17742425D01*
X65588203Y-17747049D01*
X65586406Y-17751904D01*
X65584817Y-17756993D01*
X65583436Y-17762319D01*
X65582264Y-17767884D01*
X65581303Y-17773690D01*
X65580553Y-17779738D01*
X65580016Y-17786033D01*
X65579693Y-17792575D01*
X65579586Y-17799367D01*
X65579586Y-19299717D01*
X64854007Y-19299717D01*
X64854007Y-17657940D01*
X64856328Y-17573539D01*
X64859246Y-17533731D01*
X64863351Y-17495497D01*
X64868653Y-17458821D01*
X64875165Y-17423688D01*
X64882898Y-17390081D01*
X64891862Y-17357986D01*
X64902069Y-17327385D01*
X64913530Y-17298264D01*
X64926257Y-17270607D01*
X64940261Y-17244398D01*
X64955552Y-17219620D01*
X64972143Y-17196260D01*
X64990045Y-17174299D01*
X65009268Y-17153724D01*
X65029825Y-17134518D01*
X65051726Y-17116665D01*
X65074982Y-17100150D01*
X65099605Y-17084956D01*
X65125607Y-17071069D01*
X65152997Y-17058472D01*
X65181789Y-17047149D01*
X65211992Y-17037086D01*
X65243618Y-17028265D01*
X65276679Y-17020671D01*
X65311186Y-17014289D01*
X65347149Y-17009103D01*
X65423492Y-17002254D01*
X65505798Y-17000000D01*
X67000000Y-17000000D01*
X67037905Y-16999179D01*
X67074383Y-16996752D01*
X67109450Y-16992770D01*
X67143119Y-16987281D01*
X67175406Y-16980338D01*
X67206324Y-16971991D01*
X67235890Y-16962291D01*
X67264116Y-16951288D01*
X67291019Y-16939033D01*
X67316612Y-16925577D01*
X67340911Y-16910970D01*
X67363929Y-16895263D01*
X67385682Y-16878506D01*
X67406184Y-16860751D01*
X67425449Y-16842048D01*
X67443493Y-16822448D01*
X67460330Y-16802001D01*
X67475975Y-16780757D01*
X67490442Y-16758769D01*
X67503746Y-16736086D01*
X67515902Y-16712759D01*
X67526923Y-16688838D01*
X67536826Y-16664375D01*
X67545624Y-16639420D01*
X67559965Y-16588236D01*
X67570064Y-16535692D01*
X67576037Y-16482193D01*
X67578002Y-16428145D01*
X67575904Y-16372277D01*
X67569572Y-16317859D01*
X67564801Y-16291287D01*
X67558952Y-16265189D01*
X67552018Y-16239602D01*
X67543991Y-16214564D01*
X67534866Y-16190110D01*
X67524635Y-16166280D01*
X67513291Y-16143109D01*
X67500829Y-16120635D01*
X67487240Y-16098896D01*
X67472519Y-16077927D01*
X67456658Y-16057767D01*
X67439652Y-16038453D01*
X67421492Y-16020021D01*
X67402172Y-16002509D01*
X67381686Y-15985954D01*
X67360027Y-15970394D01*
X67337188Y-15955864D01*
X67313163Y-15942404D01*
X67287943Y-15930048D01*
X67261524Y-15918836D01*
X67233897Y-15908804D01*
X67205057Y-15899988D01*
X67174996Y-15892427D01*
X67143708Y-15886158D01*
X67111186Y-15881217D01*
X67077424Y-15877641D01*
X67042413Y-15875469D01*
X67006149Y-15874736D01*
X64847858Y-15874736D01*
X64847858Y-15149157D01*
X66975406Y-15149157D01*
X67061466Y-15150835D01*
G37*
G36*
X50411000Y-9250174D02*
G01*
X50421636Y-9250854D01*
X50432038Y-9251989D01*
X50442209Y-9253578D01*
X50452147Y-9255623D01*
X50461854Y-9258124D01*
X50471331Y-9261082D01*
X50480578Y-9264496D01*
X50489597Y-9268369D01*
X50498387Y-9272699D01*
X50506950Y-9277489D01*
X50515286Y-9282738D01*
X50523395Y-9288447D01*
X50531280Y-9294617D01*
X50538939Y-9301249D01*
X50546375Y-9308342D01*
X50553473Y-9315784D01*
X50560121Y-9323460D01*
X50566316Y-9331370D01*
X50572058Y-9339513D01*
X50577346Y-9347888D01*
X50582180Y-9356494D01*
X50586557Y-9365331D01*
X50590478Y-9374398D01*
X50593941Y-9383694D01*
X50596945Y-9393217D01*
X50599489Y-9402968D01*
X50601573Y-9412945D01*
X50603196Y-9423148D01*
X50604356Y-9433576D01*
X50605053Y-9444228D01*
X50605285Y-9455103D01*
X50605053Y-9465972D01*
X50604356Y-9476607D01*
X50603196Y-9487010D01*
X50601573Y-9497180D01*
X50599489Y-9507118D01*
X50596945Y-9516825D01*
X50593941Y-9526302D01*
X50590478Y-9535549D01*
X50586557Y-9544568D01*
X50582180Y-9553358D01*
X50577346Y-9561921D01*
X50572058Y-9570257D01*
X50566316Y-9578367D01*
X50560121Y-9586251D01*
X50553473Y-9593911D01*
X50546375Y-9601347D01*
X50538939Y-9608446D01*
X50531279Y-9615094D01*
X50523394Y-9621289D01*
X50515284Y-9627032D01*
X50506948Y-9632320D01*
X50498386Y-9637153D01*
X50489595Y-9641531D01*
X50480577Y-9645451D01*
X50471330Y-9648914D01*
X50461853Y-9651918D01*
X50452146Y-9654463D01*
X50442207Y-9656547D01*
X50432038Y-9658169D01*
X50421635Y-9659329D01*
X50411000Y-9660026D01*
X50400131Y-9660258D01*
X50389255Y-9660026D01*
X50378603Y-9659329D01*
X50368175Y-9658169D01*
X50357972Y-9656547D01*
X50347995Y-9654463D01*
X50338244Y-9651918D01*
X50328720Y-9648914D01*
X50319425Y-9645451D01*
X50310358Y-9641531D01*
X50301521Y-9637153D01*
X50292915Y-9632320D01*
X50284540Y-9627032D01*
X50276397Y-9621289D01*
X50268487Y-9615094D01*
X50260811Y-9608446D01*
X50253370Y-9601347D01*
X50246277Y-9593911D01*
X50239646Y-9586251D01*
X50233476Y-9578367D01*
X50227767Y-9570257D01*
X50222518Y-9561921D01*
X50217728Y-9553358D01*
X50213397Y-9544568D01*
X50209524Y-9535549D01*
X50206110Y-9526302D01*
X50203152Y-9516825D01*
X50200651Y-9507118D01*
X50198606Y-9497180D01*
X50197016Y-9487010D01*
X50195882Y-9476608D01*
X50195201Y-9465972D01*
X50194974Y-9455103D01*
X50195201Y-9444228D01*
X50195882Y-9433576D01*
X50197016Y-9423148D01*
X50198606Y-9412945D01*
X50200651Y-9402968D01*
X50203152Y-9393217D01*
X50206110Y-9383694D01*
X50209524Y-9374398D01*
X50213397Y-9365332D01*
X50217728Y-9356495D01*
X50222518Y-9347888D01*
X50227767Y-9339513D01*
X50233476Y-9331370D01*
X50239646Y-9323460D01*
X50246277Y-9315784D01*
X50253370Y-9308342D01*
X50260812Y-9301249D01*
X50268488Y-9294617D01*
X50276398Y-9288447D01*
X50284541Y-9282738D01*
X50292916Y-9277489D01*
X50301523Y-9272699D01*
X50310359Y-9268369D01*
X50319426Y-9264496D01*
X50328722Y-9261082D01*
X50338245Y-9258124D01*
X50347996Y-9255623D01*
X50357973Y-9253578D01*
X50368176Y-9251989D01*
X50378604Y-9250854D01*
X50389256Y-9250174D01*
X50400131Y-9249947D01*
X50411000Y-9250174D01*
G37*
G36*
X69343737Y-6466506D02*
G01*
X69394653Y-6470353D01*
X69444811Y-6476690D01*
X69494151Y-6485454D01*
X69542610Y-6496583D01*
X69590127Y-6510016D01*
X69636640Y-6525690D01*
X69682086Y-6543545D01*
X69726404Y-6563517D01*
X69769532Y-6585546D01*
X69811408Y-6609568D01*
X69851970Y-6635523D01*
X69891157Y-6663349D01*
X69928907Y-6692983D01*
X69965157Y-6724365D01*
X69999846Y-6757431D01*
X70032912Y-6792120D01*
X70064293Y-6828370D01*
X70093927Y-6866119D01*
X70121753Y-6905306D01*
X70147708Y-6945869D01*
X70171731Y-6987745D01*
X70193759Y-7030873D01*
X70213731Y-7075191D01*
X70231586Y-7120637D01*
X70247260Y-7167149D01*
X70260693Y-7214666D01*
X70271822Y-7263125D01*
X70280586Y-7312465D01*
X70286922Y-7362623D01*
X70290770Y-7413539D01*
X70292066Y-7465149D01*
X70292066Y-11465424D01*
X70290770Y-11517034D01*
X70286922Y-11567949D01*
X70280586Y-11618108D01*
X70271822Y-11667447D01*
X70260693Y-11715907D01*
X70247260Y-11763423D01*
X70231586Y-11809935D01*
X70213731Y-11855382D01*
X70193759Y-11899700D01*
X70171731Y-11942828D01*
X70147708Y-11984704D01*
X70121753Y-12025266D01*
X70093927Y-12064453D01*
X70064293Y-12102203D01*
X70032912Y-12138453D01*
X69999846Y-12173142D01*
X69965157Y-12206208D01*
X69928907Y-12237589D01*
X69891157Y-12267223D01*
X69851970Y-12295049D01*
X69811408Y-12321004D01*
X69769532Y-12345027D01*
X69726404Y-12367056D01*
X69682086Y-12387028D01*
X69636640Y-12404882D01*
X69590127Y-12420557D01*
X69542610Y-12433990D01*
X69494151Y-12445119D01*
X69444811Y-12453883D01*
X69394653Y-12460219D01*
X69343737Y-12464066D01*
X69292127Y-12465363D01*
X65291854Y-12465363D01*
X65240243Y-12464066D01*
X65189328Y-12460219D01*
X65139169Y-12453883D01*
X65089829Y-12445119D01*
X65041370Y-12433990D01*
X64993853Y-12420557D01*
X64947341Y-12404882D01*
X64901895Y-12387028D01*
X64857577Y-12367056D01*
X64814449Y-12345027D01*
X64772573Y-12321004D01*
X64732010Y-12295049D01*
X64692823Y-12267223D01*
X64655074Y-12237589D01*
X64618824Y-12206208D01*
X64584135Y-12173142D01*
X64551069Y-12138453D01*
X64519688Y-12102203D01*
X64490053Y-12064453D01*
X64462228Y-12025266D01*
X64436273Y-11984704D01*
X64412250Y-11942828D01*
X64390222Y-11899700D01*
X64370249Y-11855382D01*
X64352395Y-11809935D01*
X64336720Y-11763423D01*
X64323288Y-11715907D01*
X64312158Y-11667447D01*
X64303395Y-11618108D01*
X64297058Y-11567949D01*
X64293211Y-11517034D01*
X64291915Y-11465424D01*
X64291915Y-10910419D01*
X64291915Y-10500107D01*
X65844792Y-10500107D01*
X65844792Y-10910419D01*
X68755209Y-10910419D01*
X68755209Y-10500107D01*
X65844792Y-10500107D01*
X64291915Y-10500107D01*
X64291915Y-10079979D01*
X65913521Y-10079979D01*
X68686996Y-10079979D01*
X67300000Y-8000000D01*
X65913521Y-10079979D01*
X64291915Y-10079979D01*
X64291915Y-7465149D01*
X64293211Y-7413539D01*
X64297058Y-7362623D01*
X64303395Y-7312465D01*
X64312158Y-7263125D01*
X64323288Y-7214666D01*
X64336720Y-7167149D01*
X64352395Y-7120637D01*
X64370249Y-7075191D01*
X64390222Y-7030873D01*
X64412250Y-6987745D01*
X64436273Y-6945869D01*
X64462228Y-6905306D01*
X64490053Y-6866119D01*
X64519688Y-6828370D01*
X64551069Y-6792120D01*
X64584135Y-6757431D01*
X64618824Y-6724365D01*
X64655074Y-6692983D01*
X64692823Y-6663349D01*
X64732010Y-6635523D01*
X64772573Y-6609568D01*
X64814449Y-6585546D01*
X64857577Y-6563517D01*
X64901895Y-6543545D01*
X64947341Y-6525690D01*
X64993853Y-6510016D01*
X65041370Y-6496583D01*
X65089829Y-6485454D01*
X65139169Y-6476690D01*
X65189328Y-6470353D01*
X65240243Y-6466506D01*
X65291854Y-6465210D01*
X69292127Y-6465210D01*
X69343737Y-6466506D01*
G37*
G36*
X54677446Y-15874736D02*
G01*
X53072563Y-15874736D01*
X52927918Y-15879457D01*
X52793649Y-15893772D01*
X52730361Y-15904596D01*
X52669613Y-15917904D01*
X52611387Y-15933722D01*
X52555665Y-15952079D01*
X52502429Y-15973003D01*
X52451661Y-15996522D01*
X52403343Y-16022665D01*
X52357456Y-16051459D01*
X52313984Y-16082933D01*
X52272908Y-16117115D01*
X52234210Y-16154033D01*
X52197871Y-16193714D01*
X52163875Y-16236189D01*
X52132202Y-16281483D01*
X52102835Y-16329626D01*
X52075756Y-16380646D01*
X52050947Y-16434570D01*
X52028390Y-16491428D01*
X52008066Y-16551247D01*
X51989959Y-16614055D01*
X51974049Y-16679880D01*
X51960319Y-16748751D01*
X51939326Y-16895743D01*
X51926836Y-17055254D01*
X51922704Y-17227511D01*
X51926768Y-17398686D01*
X51931880Y-17479531D01*
X51939074Y-17557250D01*
X51948370Y-17631871D01*
X51959792Y-17703421D01*
X51973359Y-17771926D01*
X51989094Y-17837413D01*
X52007018Y-17899910D01*
X52027151Y-17959444D01*
X52049517Y-18016041D01*
X52074135Y-18069729D01*
X52101028Y-18120535D01*
X52130216Y-18168485D01*
X52161721Y-18213607D01*
X52195565Y-18255928D01*
X52231769Y-18295475D01*
X52270354Y-18332274D01*
X52311342Y-18366353D01*
X52354754Y-18397739D01*
X52400612Y-18426459D01*
X52448936Y-18452539D01*
X52499748Y-18476008D01*
X52553071Y-18496891D01*
X52608924Y-18515217D01*
X52667330Y-18531011D01*
X52728309Y-18544301D01*
X52791884Y-18555114D01*
X52858075Y-18563478D01*
X52926904Y-18569418D01*
X52998393Y-18572962D01*
X53072563Y-18574138D01*
X54677446Y-18574138D01*
X54677446Y-19299717D01*
X53072563Y-19299717D01*
X52851876Y-19291713D01*
X52746397Y-19281701D01*
X52644188Y-19267676D01*
X52545271Y-19249633D01*
X52449668Y-19227569D01*
X52357399Y-19201479D01*
X52268487Y-19171358D01*
X52182953Y-19137201D01*
X52100818Y-19099005D01*
X52022104Y-19056765D01*
X51946831Y-19010475D01*
X51875022Y-18960133D01*
X51806697Y-18905733D01*
X51741878Y-18847270D01*
X51680587Y-18784741D01*
X51622845Y-18718140D01*
X51568673Y-18647464D01*
X51518093Y-18572707D01*
X51471126Y-18493865D01*
X51427793Y-18410934D01*
X51388116Y-18323910D01*
X51352116Y-18232787D01*
X51319815Y-18137561D01*
X51291234Y-18038228D01*
X51266395Y-17934783D01*
X51245318Y-17827221D01*
X51228025Y-17715539D01*
X51214538Y-17599732D01*
X51204878Y-17479794D01*
X51197124Y-17227512D01*
X51199084Y-17098743D01*
X51204945Y-16974147D01*
X51214685Y-16853720D01*
X51228277Y-16737455D01*
X51245698Y-16625347D01*
X51266922Y-16517390D01*
X51291924Y-16413579D01*
X51320680Y-16313908D01*
X51353165Y-16218371D01*
X51389355Y-16126963D01*
X51429224Y-16039678D01*
X51472747Y-15956511D01*
X51519901Y-15877455D01*
X51570659Y-15802506D01*
X51624999Y-15731657D01*
X51682893Y-15664903D01*
X51744319Y-15602238D01*
X51809251Y-15543657D01*
X51877664Y-15489154D01*
X51949533Y-15438723D01*
X52024835Y-15392360D01*
X52103543Y-15350057D01*
X52185634Y-15311810D01*
X52271082Y-15277613D01*
X52359862Y-15247460D01*
X52451951Y-15221346D01*
X52547323Y-15199265D01*
X52645953Y-15181211D01*
X52747817Y-15167179D01*
X52852890Y-15157163D01*
X52961147Y-15151157D01*
X53072563Y-15149157D01*
X54677446Y-15149157D01*
X54677446Y-15874736D01*
G37*
%TO.C,SW7*%
D11*
X56825000Y-1800000D02*
G75*
G02*
X56675000Y-1800000I-75000J0D01*
G01*
X56675000Y-1800000D02*
G75*
G02*
X56825000Y-1800000I75000J0D01*
G01*
D10*
%TO.C,kibuzzard-66976111*%
G36*
X34072902Y-16201218D02*
G01*
X34122045Y-16234095D01*
X34150299Y-16290259D01*
X34159717Y-16371081D01*
X34159717Y-16410807D01*
X33870675Y-16410807D01*
X33859717Y-16342314D01*
X33875394Y-16257839D01*
X33922426Y-16207154D01*
X34000812Y-16190259D01*
X34072902Y-16201218D01*
G37*
G36*
X34549271Y-16176047D02*
G01*
X34606977Y-16207382D01*
X34640367Y-16259951D01*
X34651497Y-16334095D01*
X34640539Y-16410807D01*
X34276155Y-16410807D01*
X34276155Y-16353273D01*
X34287456Y-16269026D01*
X34321360Y-16210807D01*
X34379922Y-16176903D01*
X34465196Y-16165602D01*
X34549271Y-16176047D01*
G37*
G36*
X34390539Y-14784780D02*
G01*
X34493963Y-14797108D01*
X34565881Y-14817656D01*
X34629066Y-14865944D01*
X34650128Y-14936834D01*
X34629066Y-15007725D01*
X34565881Y-15056013D01*
X34493963Y-15076560D01*
X34390539Y-15088889D01*
X34255607Y-15092999D01*
X34120675Y-15088889D01*
X34017251Y-15076560D01*
X33945333Y-15056013D01*
X33882148Y-15007725D01*
X33861086Y-14936834D01*
X33882148Y-14865944D01*
X33945333Y-14817656D01*
X34017251Y-14797108D01*
X34120675Y-14784780D01*
X34255607Y-14780670D01*
X34390539Y-14784780D01*
G37*
G36*
X34390539Y-15469711D02*
G01*
X34493963Y-15482040D01*
X34565881Y-15502588D01*
X34629066Y-15550876D01*
X34650128Y-15621766D01*
X34629066Y-15692656D01*
X34565881Y-15740944D01*
X34493963Y-15761492D01*
X34390539Y-15773821D01*
X34255607Y-15777930D01*
X34120675Y-15773821D01*
X34017251Y-15761492D01*
X33945333Y-15740944D01*
X33882148Y-15692656D01*
X33861086Y-15621766D01*
X33882148Y-15550876D01*
X33945333Y-15502588D01*
X34017251Y-15482040D01*
X34120675Y-15469711D01*
X34255607Y-15465602D01*
X34390539Y-15469711D01*
G37*
G36*
X34883461Y-14936834D02*
G01*
X34883461Y-15621766D01*
X34883461Y-16334095D01*
X34883461Y-16564232D01*
X34883461Y-16678387D01*
X34255607Y-17096956D01*
X33627753Y-16678387D01*
X33627753Y-16564232D01*
X33627753Y-16342314D01*
X33741908Y-16342314D01*
X33748758Y-16455328D01*
X33769306Y-16564232D01*
X34741908Y-16564232D01*
X34757129Y-16488737D01*
X34766261Y-16412025D01*
X34769306Y-16334095D01*
X34760934Y-16236987D01*
X34735820Y-16157535D01*
X34693963Y-16095739D01*
X34635363Y-16051599D01*
X34560021Y-16025115D01*
X34467936Y-16016287D01*
X34376155Y-16029471D01*
X34298073Y-16069026D01*
X34240881Y-16128444D01*
X34211771Y-16201218D01*
X34210402Y-16201218D01*
X34182319Y-16137006D01*
X34133689Y-16086834D01*
X34068621Y-16054471D01*
X33991223Y-16043684D01*
X33901470Y-16055629D01*
X33831662Y-16091465D01*
X33781799Y-16151191D01*
X33751881Y-16234807D01*
X33741908Y-16342314D01*
X33627753Y-16342314D01*
X33627753Y-15621766D01*
X33741908Y-15621766D01*
X33753552Y-15716971D01*
X33788484Y-15791629D01*
X33851840Y-15848307D01*
X33948758Y-15889574D01*
X34033385Y-15908220D01*
X34135668Y-15919407D01*
X34255607Y-15923136D01*
X34375546Y-15919407D01*
X34477829Y-15908220D01*
X34562456Y-15889574D01*
X34659374Y-15848307D01*
X34722730Y-15791629D01*
X34757662Y-15716971D01*
X34769306Y-15621766D01*
X34757662Y-15526560D01*
X34722730Y-15451903D01*
X34659374Y-15395225D01*
X34562456Y-15353958D01*
X34477829Y-15335312D01*
X34375546Y-15324125D01*
X34255607Y-15320396D01*
X34135668Y-15324125D01*
X34033385Y-15335312D01*
X33948758Y-15353958D01*
X33851840Y-15395225D01*
X33788484Y-15451903D01*
X33753552Y-15526560D01*
X33741908Y-15621766D01*
X33627753Y-15621766D01*
X33627753Y-14936834D01*
X33741908Y-14936834D01*
X33753552Y-15032040D01*
X33788484Y-15106697D01*
X33851840Y-15163376D01*
X33948758Y-15204643D01*
X34033385Y-15223288D01*
X34135668Y-15234475D01*
X34255607Y-15238204D01*
X34375546Y-15234475D01*
X34477829Y-15223288D01*
X34562456Y-15204643D01*
X34659374Y-15163376D01*
X34722730Y-15106697D01*
X34757662Y-15032040D01*
X34769306Y-14936834D01*
X34757662Y-14841629D01*
X34722730Y-14766971D01*
X34659374Y-14710293D01*
X34562456Y-14669026D01*
X34477829Y-14650381D01*
X34375546Y-14639194D01*
X34255607Y-14635465D01*
X34135668Y-14639194D01*
X34033385Y-14650381D01*
X33948758Y-14669026D01*
X33851840Y-14710293D01*
X33788484Y-14766971D01*
X33753552Y-14841629D01*
X33741908Y-14936834D01*
X33627753Y-14936834D01*
X33627753Y-13971081D01*
X33755607Y-13971081D01*
X33755607Y-14532725D01*
X33874785Y-14532725D01*
X33874785Y-14328615D01*
X34755607Y-14328615D01*
X34755607Y-14175191D01*
X33874785Y-14175191D01*
X33874785Y-13971081D01*
X33755607Y-13971081D01*
X33627753Y-13971081D01*
X33627753Y-13856926D01*
X34883461Y-13856926D01*
X34883461Y-13971081D01*
X34883461Y-14175191D01*
X34883461Y-14936834D01*
G37*
D12*
%TO.C,J1*%
X25380000Y-19830000D02*
X25380000Y-18500000D01*
X26710000Y-19830000D02*
X25380000Y-19830000D01*
X27980000Y-17170000D02*
X40740000Y-17170000D01*
X27980000Y-19830000D02*
X27980000Y-17170000D01*
X27980000Y-19830000D02*
X40740000Y-19830000D01*
X40740000Y-19830000D02*
X40740000Y-17170000D01*
%TO.C,SW1*%
D11*
X18075000Y-20550000D02*
G75*
G02*
X17925000Y-20550000I-75000J0D01*
G01*
X17925000Y-20550000D02*
G75*
G02*
X18075000Y-20550000I75000J0D01*
G01*
%TO.C,LDO1*%
D13*
X38614900Y-20990005D02*
G75*
G02*
X38514900Y-20990005I-50000J0D01*
G01*
X38514900Y-20990005D02*
G75*
G02*
X38614900Y-20990005I50000J0D01*
G01*
D10*
%TO.C,kibuzzard-66975F57*%
G36*
X81698273Y-8890000D02*
G01*
X81363418Y-9392283D01*
X81272093Y-9392283D01*
X81025518Y-9392283D01*
X80583874Y-9392283D01*
X79929628Y-9392283D01*
X79754285Y-9392283D01*
X79662961Y-9392283D01*
X79662961Y-9160685D01*
X79754285Y-9160685D01*
X79754285Y-9265890D01*
X79840313Y-9292192D01*
X79929628Y-9300959D01*
X80004970Y-9294262D01*
X80066614Y-9274170D01*
X80114559Y-9240685D01*
X80148806Y-9193805D01*
X80169354Y-9133531D01*
X80176203Y-9059863D01*
X80167299Y-8982877D01*
X80140587Y-8923973D01*
X80096066Y-8883151D01*
X80033737Y-8860411D01*
X80033737Y-8859315D01*
X80091271Y-8831438D01*
X80132367Y-8789452D01*
X80157025Y-8733356D01*
X80165244Y-8663151D01*
X80151545Y-8586027D01*
X80110450Y-8527808D01*
X80043874Y-8491233D01*
X80034758Y-8490000D01*
X80263874Y-8490000D01*
X80441408Y-9290000D01*
X80583874Y-9290000D01*
X80612748Y-9160685D01*
X80850176Y-9160685D01*
X80850176Y-9265890D01*
X80936203Y-9292192D01*
X81025518Y-9300959D01*
X81100861Y-9294262D01*
X81162504Y-9274170D01*
X81210450Y-9240685D01*
X81244696Y-9193805D01*
X81265244Y-9133531D01*
X81272093Y-9059863D01*
X81263189Y-8982877D01*
X81236477Y-8923973D01*
X81191956Y-8883151D01*
X81129628Y-8860411D01*
X81129628Y-8859315D01*
X81187162Y-8831438D01*
X81228258Y-8789452D01*
X81252915Y-8733356D01*
X81261135Y-8663151D01*
X81247436Y-8586027D01*
X81206340Y-8527808D01*
X81139765Y-8491233D01*
X81049628Y-8479041D01*
X80990206Y-8483303D01*
X80928836Y-8496088D01*
X80865518Y-8517397D01*
X80865518Y-8619315D01*
X80950450Y-8584795D01*
X81027710Y-8573288D01*
X81091028Y-8584977D01*
X81129019Y-8620046D01*
X81141682Y-8678493D01*
X81131819Y-8740137D01*
X81102230Y-8782603D01*
X81050450Y-8807260D01*
X80974011Y-8815479D01*
X80952093Y-8815479D01*
X80952093Y-8911918D01*
X80974011Y-8911918D01*
X81056203Y-8920274D01*
X81109902Y-8945342D01*
X81139491Y-8989315D01*
X81149354Y-9054384D01*
X81140724Y-9120548D01*
X81114833Y-9167808D01*
X81071682Y-9196164D01*
X81011271Y-9205616D01*
X80929902Y-9194384D01*
X80850176Y-9160685D01*
X80612748Y-9160685D01*
X80762504Y-8490000D01*
X80640861Y-8490000D01*
X80515929Y-9180411D01*
X80514833Y-9180411D01*
X80389902Y-8490000D01*
X80263874Y-8490000D01*
X80034758Y-8490000D01*
X79953737Y-8479041D01*
X79894316Y-8483303D01*
X79832946Y-8496088D01*
X79769628Y-8517397D01*
X79769628Y-8619315D01*
X79854559Y-8584795D01*
X79931819Y-8573288D01*
X79995138Y-8584977D01*
X80033128Y-8620046D01*
X80045792Y-8678493D01*
X80035929Y-8740137D01*
X80006340Y-8782603D01*
X79954559Y-8807260D01*
X79878121Y-8815479D01*
X79856203Y-8815479D01*
X79856203Y-8911918D01*
X79878121Y-8911918D01*
X79960313Y-8920274D01*
X80014011Y-8945342D01*
X80043600Y-8989315D01*
X80053463Y-9054384D01*
X80044833Y-9120548D01*
X80018943Y-9167808D01*
X79975792Y-9196164D01*
X79915381Y-9205616D01*
X79834011Y-9194384D01*
X79754285Y-9160685D01*
X79662961Y-9160685D01*
X79662961Y-8387717D01*
X79754285Y-8387717D01*
X81272093Y-8387717D01*
X81363418Y-8387717D01*
X81698273Y-8890000D01*
G37*
%TO.C,kibuzzard-66975F78*%
G36*
X81059765Y-16211370D02*
G01*
X81112094Y-16262329D01*
X81134620Y-16318828D01*
X81148136Y-16397732D01*
X81152642Y-16499041D01*
X81148197Y-16610944D01*
X81134864Y-16696788D01*
X81112642Y-16756575D01*
X81060450Y-16809178D01*
X80983874Y-16826712D01*
X80934559Y-16816849D01*
X80934559Y-16204247D01*
X80983874Y-16194384D01*
X81059765Y-16211370D01*
G37*
G36*
X81698273Y-16510000D02*
G01*
X81363418Y-17012283D01*
X81272094Y-17012283D01*
X80983874Y-17012283D01*
X80272642Y-17012283D01*
X79971272Y-17012283D01*
X79697299Y-17012283D01*
X79605975Y-17012283D01*
X79605975Y-16504521D01*
X79697299Y-16504521D01*
X79701580Y-16602123D01*
X79714422Y-16686712D01*
X79735826Y-16758288D01*
X79765792Y-16816849D01*
X79804320Y-16862397D01*
X79851409Y-16894932D01*
X79907059Y-16914452D01*
X79971272Y-16920959D01*
X80036782Y-16916697D01*
X80069311Y-16910000D01*
X80272642Y-16910000D01*
X80393189Y-16910000D01*
X80393189Y-16329178D01*
X80395381Y-16329178D01*
X80566340Y-16910000D01*
X80689080Y-16910000D01*
X80689080Y-16120959D01*
X80811820Y-16120959D01*
X80811820Y-16899041D01*
X80894285Y-16915479D01*
X80983874Y-16920959D01*
X81074833Y-16911507D01*
X81146066Y-16883151D01*
X81200176Y-16831507D01*
X81239765Y-16752192D01*
X81257725Y-16682664D01*
X81268501Y-16598280D01*
X81272094Y-16499041D01*
X81267881Y-16396610D01*
X81255244Y-16310685D01*
X81234183Y-16241267D01*
X81204696Y-16188356D01*
X81150206Y-16138737D01*
X81076599Y-16108965D01*
X80983874Y-16099041D01*
X80897573Y-16104521D01*
X80811820Y-16120959D01*
X80689080Y-16120959D01*
X80689080Y-16110000D01*
X80574011Y-16110000D01*
X80574011Y-16690822D01*
X80570724Y-16690822D01*
X80399765Y-16110000D01*
X80272642Y-16110000D01*
X80272642Y-16910000D01*
X80069311Y-16910000D01*
X80098882Y-16903912D01*
X80157573Y-16882603D01*
X80157573Y-16433288D01*
X79902231Y-16433288D01*
X79902231Y-16526438D01*
X80040313Y-16526438D01*
X80040313Y-16813562D01*
X79974559Y-16826712D01*
X79907710Y-16808082D01*
X79858395Y-16752192D01*
X79835868Y-16691553D01*
X79822352Y-16608995D01*
X79817847Y-16504521D01*
X79822596Y-16402420D01*
X79836842Y-16322603D01*
X79860587Y-16265068D01*
X79915107Y-16212877D01*
X79993189Y-16195479D01*
X80060313Y-16202055D01*
X80130176Y-16221781D01*
X80130176Y-16123151D01*
X80063052Y-16105068D01*
X79993189Y-16099041D01*
X79902778Y-16109878D01*
X79828806Y-16142390D01*
X79771272Y-16196575D01*
X79738909Y-16252397D01*
X79715792Y-16322329D01*
X79701922Y-16406370D01*
X79697299Y-16504521D01*
X79605975Y-16504521D01*
X79605975Y-16007717D01*
X79697299Y-16007717D01*
X81272094Y-16007717D01*
X81363418Y-16007717D01*
X81698273Y-16510000D01*
G37*
D13*
%TO.C,U2*%
X1109398Y-9782501D02*
X3209500Y-9782501D01*
X1109398Y-10782501D02*
X3209500Y-10782501D01*
X1209500Y-10082526D02*
X1209500Y-10482552D01*
X1209500Y-10482552D02*
X3109398Y-10482552D01*
X2100000Y-11239702D02*
X2100000Y-10884101D01*
X2109398Y-9682476D02*
X2109398Y-9382476D01*
X3109398Y-10082526D02*
X1209500Y-10082526D01*
X3109398Y-10482552D02*
X3109398Y-10082526D01*
D10*
%TO.C,kibuzzard-6697610A*%
G36*
X32322566Y-16093911D02*
G01*
X32322566Y-16573363D01*
X32322566Y-16687519D01*
X31708411Y-17096956D01*
X31094256Y-16687519D01*
X31094256Y-16573363D01*
X31094256Y-16093911D01*
X31208411Y-16093911D01*
X31208411Y-16573363D01*
X32208411Y-16573363D01*
X32208411Y-16093911D01*
X32089233Y-16093911D01*
X32089233Y-16419939D01*
X31728959Y-16419939D01*
X31728959Y-16107610D01*
X31612521Y-16107610D01*
X31612521Y-16419939D01*
X31327589Y-16419939D01*
X31327589Y-16093911D01*
X31208411Y-16093911D01*
X31094256Y-16093911D01*
X31094256Y-15391172D01*
X31208411Y-15391172D01*
X31208411Y-15535007D01*
X31934438Y-15535007D01*
X31934438Y-15539117D01*
X31208411Y-15752816D01*
X31208411Y-15911720D01*
X32208411Y-15911720D01*
X32208411Y-15761035D01*
X31482384Y-15761035D01*
X31482384Y-15758295D01*
X32208411Y-15544596D01*
X32208411Y-15391172D01*
X31208411Y-15391172D01*
X31094256Y-15391172D01*
X31094256Y-15277016D01*
X32322566Y-15277016D01*
X32322566Y-15391172D01*
X32322566Y-15911720D01*
X32322566Y-16093911D01*
G37*
%TO.C,SW5*%
D11*
X41825000Y-1800000D02*
G75*
G02*
X41675000Y-1800000I-75000J0D01*
G01*
X41675000Y-1800000D02*
G75*
G02*
X41825000Y-1800000I75000J0D01*
G01*
%TO.C,SW6*%
X49325000Y-1800000D02*
G75*
G02*
X49175000Y-1800000I-75000J0D01*
G01*
X49175000Y-1800000D02*
G75*
G02*
X49325000Y-1800000I75000J0D01*
G01*
D10*
%TO.C,kibuzzard-66976119*%
G36*
X36685680Y-16181126D02*
G01*
X36741160Y-16214003D01*
X36771982Y-16272907D01*
X36782256Y-16361948D01*
X36782256Y-16415373D01*
X36432941Y-16415373D01*
X36421982Y-16335921D01*
X36432769Y-16262976D01*
X36465132Y-16211263D01*
X36520783Y-16180441D01*
X36601434Y-16170167D01*
X36685680Y-16181126D01*
G37*
G36*
X37430658Y-15993455D02*
G01*
X37430658Y-16568797D01*
X37430658Y-16682953D01*
X36809653Y-17096956D01*
X36188648Y-16682953D01*
X36188648Y-16568797D01*
X36188648Y-16335921D01*
X36302804Y-16335921D01*
X36305848Y-16414764D01*
X36314980Y-16492390D01*
X36330201Y-16568797D01*
X37316502Y-16568797D01*
X37316502Y-16415373D01*
X36901434Y-16415373D01*
X36901434Y-16361948D01*
X36928146Y-16279071D01*
X36966674Y-16252873D01*
X37028831Y-16230441D01*
X37316502Y-16150989D01*
X37316502Y-15993455D01*
X37037050Y-16078387D01*
X36929516Y-16122222D01*
X36861708Y-16174277D01*
X36858968Y-16174277D01*
X36819756Y-16107154D01*
X36763763Y-16059208D01*
X36690989Y-16030441D01*
X36601434Y-16020852D01*
X36507446Y-16029300D01*
X36431875Y-16054642D01*
X36374721Y-16096880D01*
X36334767Y-16157230D01*
X36310795Y-16236910D01*
X36302804Y-16335921D01*
X36188648Y-16335921D01*
X36188648Y-15331811D01*
X36316502Y-15331811D01*
X36316502Y-15490715D01*
X36700064Y-15616743D01*
X36700064Y-15619482D01*
X36316502Y-15744140D01*
X36316502Y-15907154D01*
X36806913Y-15715373D01*
X37316502Y-15911263D01*
X37316502Y-15749619D01*
X36916502Y-15624962D01*
X36916502Y-15622222D01*
X37316502Y-15496195D01*
X37316502Y-15329071D01*
X36806913Y-15523592D01*
X36316502Y-15331811D01*
X36188648Y-15331811D01*
X36188648Y-15329071D01*
X36188648Y-15214916D01*
X37430658Y-15214916D01*
X37430658Y-15329071D01*
X37430658Y-15993455D01*
G37*
%TO.C,SW9*%
D11*
X71825000Y-1800000D02*
G75*
G02*
X71675000Y-1800000I-75000J0D01*
G01*
X71675000Y-1800000D02*
G75*
G02*
X71825000Y-1800000I75000J0D01*
G01*
D10*
%TO.C,kibuzzard-66975F2F*%
G36*
X79966066Y-11131370D02*
G01*
X80018395Y-11182329D01*
X80040921Y-11238828D01*
X80054437Y-11317732D01*
X80058943Y-11419041D01*
X80054498Y-11530944D01*
X80041165Y-11616788D01*
X80018943Y-11676575D01*
X79966751Y-11729178D01*
X79890175Y-11746712D01*
X79840860Y-11736849D01*
X79840860Y-11124247D01*
X79890175Y-11114384D01*
X79966066Y-11131370D01*
G37*
G36*
X81087710Y-11131233D02*
G01*
X81126340Y-11181781D01*
X81142778Y-11239315D01*
X81152641Y-11322055D01*
X81155929Y-11430000D01*
X81152641Y-11537945D01*
X81142778Y-11620685D01*
X81126340Y-11678219D01*
X81087710Y-11728767D01*
X81030997Y-11745616D01*
X80974285Y-11728767D01*
X80935655Y-11678219D01*
X80919217Y-11620685D01*
X80909354Y-11537945D01*
X80906066Y-11430000D01*
X80909354Y-11322055D01*
X80919217Y-11239315D01*
X80935655Y-11181781D01*
X80974285Y-11131233D01*
X81030997Y-11114384D01*
X81087710Y-11131233D01*
G37*
G36*
X81698273Y-11430000D02*
G01*
X81363417Y-11932283D01*
X81272093Y-11932283D01*
X81030997Y-11932283D01*
X80669354Y-11932283D01*
X79890175Y-11932283D01*
X79578943Y-11932283D01*
X78822778Y-11932283D01*
X78630997Y-11932283D01*
X78539673Y-11932283D01*
X78539673Y-11227260D01*
X78630997Y-11227260D01*
X78642367Y-11305068D01*
X78676477Y-11369726D01*
X78714163Y-11407717D01*
X78766583Y-11444247D01*
X78833737Y-11479315D01*
X78880723Y-11507534D01*
X78912093Y-11539589D01*
X78929764Y-11578493D01*
X78935655Y-11627260D01*
X78927984Y-11678356D01*
X78904970Y-11715479D01*
X78868258Y-11738082D01*
X78819491Y-11745616D01*
X78755320Y-11737702D01*
X78694315Y-11713957D01*
X78636477Y-11674384D01*
X78636477Y-11788356D01*
X78692733Y-11817580D01*
X78754833Y-11835114D01*
X78822778Y-11840959D01*
X78907600Y-11832192D01*
X78973573Y-11805890D01*
X79020696Y-11762055D01*
X79048970Y-11700685D01*
X79058395Y-11621781D01*
X79046614Y-11537123D01*
X79011271Y-11469452D01*
X78971210Y-11430365D01*
X78913859Y-11392009D01*
X78839217Y-11354384D01*
X78790510Y-11321629D01*
X78761287Y-11277428D01*
X78751545Y-11221781D01*
X78759217Y-11176849D01*
X78782230Y-11142877D01*
X78818669Y-11121507D01*
X78866614Y-11114384D01*
X78951819Y-11126164D01*
X79036477Y-11161507D01*
X79036477Y-11051918D01*
X78977542Y-11033653D01*
X78957085Y-11030000D01*
X79124148Y-11030000D01*
X79195381Y-11830000D01*
X79313737Y-11830000D01*
X79378395Y-11293014D01*
X79381682Y-11293014D01*
X79436477Y-11830000D01*
X79578943Y-11830000D01*
X79649199Y-11040959D01*
X79718121Y-11040959D01*
X79718121Y-11819041D01*
X79800586Y-11835479D01*
X79890175Y-11840959D01*
X79981134Y-11831507D01*
X80052367Y-11803151D01*
X80106477Y-11751507D01*
X80146066Y-11672192D01*
X80164026Y-11602664D01*
X80174803Y-11518280D01*
X80178395Y-11419041D01*
X80174182Y-11316610D01*
X80161545Y-11230685D01*
X80140484Y-11161267D01*
X80120463Y-11125342D01*
X80296751Y-11125342D01*
X80419491Y-11125342D01*
X80419491Y-11734658D01*
X80296751Y-11734658D01*
X80296751Y-11830000D01*
X80669354Y-11830000D01*
X80669354Y-11734658D01*
X80546614Y-11734658D01*
X80546614Y-11430000D01*
X80789901Y-11430000D01*
X80792885Y-11525951D01*
X80801834Y-11607778D01*
X80816751Y-11675479D01*
X80849764Y-11753014D01*
X80895107Y-11803699D01*
X80954833Y-11831644D01*
X81030997Y-11840959D01*
X81107162Y-11831644D01*
X81166888Y-11803699D01*
X81212230Y-11753014D01*
X81245244Y-11675479D01*
X81260160Y-11607778D01*
X81269110Y-11525951D01*
X81272093Y-11430000D01*
X81269110Y-11334049D01*
X81260160Y-11252222D01*
X81245244Y-11184521D01*
X81212230Y-11106986D01*
X81166888Y-11056301D01*
X81107162Y-11028356D01*
X81030997Y-11019041D01*
X80954833Y-11028356D01*
X80895107Y-11056301D01*
X80849764Y-11106986D01*
X80816751Y-11184521D01*
X80801834Y-11252222D01*
X80792885Y-11334049D01*
X80789901Y-11430000D01*
X80546614Y-11430000D01*
X80546614Y-11125342D01*
X80669354Y-11125342D01*
X80669354Y-11030000D01*
X80296751Y-11030000D01*
X80296751Y-11125342D01*
X80120463Y-11125342D01*
X80110997Y-11108356D01*
X80056507Y-11058737D01*
X79982900Y-11028965D01*
X79890175Y-11019041D01*
X79803874Y-11024521D01*
X79718121Y-11040959D01*
X79649199Y-11040959D01*
X79650175Y-11030000D01*
X79540586Y-11030000D01*
X79500038Y-11714932D01*
X79497847Y-11714932D01*
X79439764Y-11161507D01*
X79342230Y-11161507D01*
X79281956Y-11638219D01*
X79279764Y-11638219D01*
X79241408Y-11030000D01*
X79124148Y-11030000D01*
X78957085Y-11030000D01*
X78916172Y-11022694D01*
X78852367Y-11019041D01*
X78786918Y-11025129D01*
X78732306Y-11043394D01*
X78688532Y-11073836D01*
X78645381Y-11139589D01*
X78630997Y-11227260D01*
X78539673Y-11227260D01*
X78539673Y-10927717D01*
X78630997Y-10927717D01*
X81272093Y-10927717D01*
X81363417Y-10927717D01*
X81698273Y-11430000D01*
G37*
%TO.C,kibuzzard-66976121*%
G36*
X39964155Y-16215830D02*
G01*
X39964155Y-16573364D01*
X39964155Y-16687519D01*
X39350000Y-17096956D01*
X38735845Y-16687519D01*
X38735845Y-16573364D01*
X38735845Y-16011720D01*
X38850000Y-16011720D01*
X38850000Y-16573364D01*
X38969178Y-16573364D01*
X38969178Y-16369254D01*
X39850000Y-16369254D01*
X39850000Y-16215830D01*
X38969178Y-16215830D01*
X38969178Y-16011720D01*
X38850000Y-16011720D01*
X38735845Y-16011720D01*
X38735845Y-15319939D01*
X38850000Y-15319939D01*
X38850000Y-15478843D01*
X39233562Y-15604871D01*
X39233562Y-15607610D01*
X38850000Y-15732268D01*
X38850000Y-15895282D01*
X39340411Y-15703501D01*
X39850000Y-15899391D01*
X39850000Y-15737747D01*
X39450000Y-15613090D01*
X39450000Y-15610350D01*
X39850000Y-15484323D01*
X39850000Y-15317199D01*
X39340411Y-15511720D01*
X38850000Y-15319939D01*
X38735845Y-15319939D01*
X38735845Y-15317199D01*
X38735845Y-15203044D01*
X39964155Y-15203044D01*
X39964155Y-15317199D01*
X39964155Y-16215830D01*
G37*
D14*
%TO.C,LED4*%
X37800000Y-15890000D02*
X38100000Y-15530000D01*
X38100000Y-15530000D02*
X38400000Y-15890000D01*
X38400000Y-15890000D02*
X37800000Y-15890000D01*
%TO.C,SW4*%
D11*
X34325000Y-1800000D02*
G75*
G02*
X34175000Y-1800000I-75000J0D01*
G01*
X34175000Y-1800000D02*
G75*
G02*
X34325000Y-1800000I75000J0D01*
G01*
D14*
%TO.C,LED7*%
X32720000Y-15890000D02*
X33020000Y-15530000D01*
X33020000Y-15530000D02*
X33320000Y-15890000D01*
X33320000Y-15890000D02*
X32720000Y-15890000D01*
%TO.C,LED1*%
X31000000Y-22680000D02*
X31300000Y-22320000D01*
X31300000Y-22320000D02*
X31600000Y-22680000D01*
X31600000Y-22680000D02*
X31000000Y-22680000D01*
D12*
%TO.C,F1*%
X27852064Y-20840000D02*
X26647936Y-20840000D01*
X27852064Y-22660000D02*
X26647936Y-22660000D01*
D14*
%TO.C,LED2*%
X46700000Y-22680000D02*
X47000000Y-22320000D01*
X47000000Y-22320000D02*
X47300000Y-22680000D01*
X47300000Y-22680000D02*
X46700000Y-22680000D01*
%TO.C,SW2*%
D11*
X19325000Y-1800000D02*
G75*
G02*
X19175000Y-1800000I-75000J0D01*
G01*
X19175000Y-1800000D02*
G75*
G02*
X19325000Y-1800000I75000J0D01*
G01*
D15*
%TO.C,U1*%
X7340260Y-8129885D02*
G75*
G02*
X6999392Y-8129885I-170434J0D01*
G01*
X6999392Y-8129885D02*
G75*
G02*
X7340260Y-8129885I170434J0D01*
G01*
D12*
%TO.C,JP1*%
X55800000Y-22990000D02*
X55800000Y-22390000D01*
X56500000Y-21690000D02*
X57900000Y-21690000D01*
X57900000Y-23690000D02*
X56500000Y-23690000D01*
X58600000Y-22390000D02*
X58600000Y-22990000D01*
X55800000Y-22390000D02*
G75*
G02*
X56500000Y-21690000I700000J0D01*
G01*
X56500000Y-23690000D02*
G75*
G02*
X55800000Y-22990000I0J700000D01*
G01*
X57900000Y-21690000D02*
G75*
G02*
X58600000Y-22390000I1J-699999D01*
G01*
X58600000Y-22990000D02*
G75*
G02*
X57900000Y-23690000I-699999J-1D01*
G01*
D10*
%TO.C,kibuzzard-66975FBD*%
G36*
X24071233Y-21295205D02*
G01*
X23992329Y-21285890D01*
X23941918Y-21266712D01*
X23914795Y-21236301D01*
X23905753Y-21193288D01*
X23943562Y-21124247D01*
X23994384Y-21106712D01*
X24071233Y-21100137D01*
X24071233Y-21295205D01*
G37*
G36*
X24071233Y-22391096D02*
G01*
X23992329Y-22381781D01*
X23941918Y-22362603D01*
X23914795Y-22332192D01*
X23905753Y-22289178D01*
X23943562Y-22220137D01*
X23994384Y-22202603D01*
X24071233Y-22196027D01*
X24071233Y-22391096D01*
G37*
G36*
X23895342Y-22742877D02*
G01*
X23939726Y-22769178D01*
X23964384Y-22816301D01*
X23972603Y-22887534D01*
X23972603Y-22930274D01*
X23693151Y-22930274D01*
X23684384Y-22866712D01*
X23693014Y-22808356D01*
X23718904Y-22766986D01*
X23763425Y-22742329D01*
X23827945Y-22734110D01*
X23895342Y-22742877D01*
G37*
G36*
X24502283Y-21168082D02*
G01*
X24502283Y-21752192D01*
X24502283Y-22263973D01*
X24502283Y-22592740D01*
X24502283Y-23053014D01*
X24502283Y-23144338D01*
X23497717Y-23144338D01*
X23497717Y-23053014D01*
X23497717Y-22866712D01*
X23589041Y-22866712D01*
X23591476Y-22929787D01*
X23598782Y-22991887D01*
X23610959Y-23053014D01*
X24400000Y-23053014D01*
X24400000Y-22930274D01*
X24067945Y-22930274D01*
X24067945Y-22887534D01*
X24089315Y-22821233D01*
X24120137Y-22800274D01*
X24169863Y-22782329D01*
X24400000Y-22718767D01*
X24400000Y-22592740D01*
X24176438Y-22660685D01*
X24090411Y-22695753D01*
X24036164Y-22737397D01*
X24033973Y-22737397D01*
X24002603Y-22683699D01*
X23957808Y-22645342D01*
X23899589Y-22622329D01*
X23827945Y-22614658D01*
X23752755Y-22621416D01*
X23692298Y-22641689D01*
X23646575Y-22675479D01*
X23614612Y-22723760D01*
X23595434Y-22787504D01*
X23589041Y-22866712D01*
X23497717Y-22866712D01*
X23497717Y-22285890D01*
X23819178Y-22285890D01*
X23827397Y-22356210D01*
X23852055Y-22413744D01*
X23893151Y-22458493D01*
X23950685Y-22490457D01*
X24024658Y-22509635D01*
X24115068Y-22516027D01*
X24193570Y-22510883D01*
X24259994Y-22495451D01*
X24314342Y-22469732D01*
X24356612Y-22433724D01*
X24386805Y-22387428D01*
X24404920Y-22330844D01*
X24410959Y-22263973D01*
X24404110Y-22187534D01*
X24383562Y-22107260D01*
X24292603Y-22107260D01*
X24314795Y-22182329D01*
X24322192Y-22249726D01*
X24312740Y-22308493D01*
X24284384Y-22351096D01*
X24233562Y-22378356D01*
X24156712Y-22391096D01*
X24156712Y-22079863D01*
X24112877Y-22077671D01*
X24019300Y-22083394D01*
X23944597Y-22100563D01*
X23888767Y-22129178D01*
X23850107Y-22169482D01*
X23826910Y-22221720D01*
X23819178Y-22285890D01*
X23497717Y-22285890D01*
X23497717Y-21741233D01*
X23819178Y-21741233D01*
X23829452Y-21830548D01*
X23860274Y-21894658D01*
X23910274Y-21933288D01*
X23978082Y-21946164D01*
X24041233Y-21935205D01*
X24090411Y-21902329D01*
X24128630Y-21843425D01*
X24158904Y-21754384D01*
X24191781Y-21682055D01*
X24246575Y-21662329D01*
X24304110Y-21687534D01*
X24322192Y-21770822D01*
X24311507Y-21853288D01*
X24279452Y-21940685D01*
X24375890Y-21940685D01*
X24395373Y-21882237D01*
X24407062Y-21819406D01*
X24410959Y-21752192D01*
X24400274Y-21662740D01*
X24368219Y-21596027D01*
X24316438Y-21554521D01*
X24246575Y-21540685D01*
X24176438Y-21551233D01*
X24126027Y-21582877D01*
X24088767Y-21643562D01*
X24058082Y-21741233D01*
X24027397Y-21806438D01*
X23978082Y-21825616D01*
X23924658Y-21801781D01*
X23906849Y-21730274D01*
X23913699Y-21646986D01*
X23934247Y-21559315D01*
X23843288Y-21559315D01*
X23829893Y-21616545D01*
X23821857Y-21677184D01*
X23819178Y-21741233D01*
X23497717Y-21741233D01*
X23497717Y-21190000D01*
X23819178Y-21190000D01*
X23827397Y-21260320D01*
X23852055Y-21317854D01*
X23893151Y-21362603D01*
X23950685Y-21394566D01*
X24024658Y-21413744D01*
X24115068Y-21420137D01*
X24193570Y-21414993D01*
X24259994Y-21399561D01*
X24314342Y-21373841D01*
X24356612Y-21337833D01*
X24386805Y-21291538D01*
X24404920Y-21234954D01*
X24410959Y-21168082D01*
X24404110Y-21091644D01*
X24383562Y-21011370D01*
X24292603Y-21011370D01*
X24314795Y-21086438D01*
X24322192Y-21153836D01*
X24312740Y-21212603D01*
X24284384Y-21255205D01*
X24233562Y-21282466D01*
X24156712Y-21295205D01*
X24156712Y-20983973D01*
X24112877Y-20981781D01*
X24019300Y-20987504D01*
X23944597Y-21004673D01*
X23888767Y-21033288D01*
X23850107Y-21073592D01*
X23826910Y-21125830D01*
X23819178Y-21190000D01*
X23497717Y-21190000D01*
X23497717Y-20631096D01*
X23643836Y-20631096D01*
X23643836Y-20750548D01*
X23852055Y-20750548D01*
X23852055Y-20863425D01*
X23940822Y-20863425D01*
X23940822Y-20750548D01*
X24235616Y-20750548D01*
X24320548Y-20740822D01*
X24373699Y-20711644D01*
X24401644Y-20657534D01*
X24410959Y-20573014D01*
X24407671Y-20512466D01*
X24397808Y-20457945D01*
X24298082Y-20457945D01*
X24310411Y-20504795D01*
X24314521Y-20551096D01*
X24296438Y-20616849D01*
X24213699Y-20631096D01*
X23940822Y-20631096D01*
X23940822Y-20446986D01*
X23852055Y-20446986D01*
X23852055Y-20631096D01*
X23643836Y-20631096D01*
X23497717Y-20631096D01*
X23497717Y-20446986D01*
X23497717Y-20355662D01*
X24502283Y-20355662D01*
X24502283Y-20446986D01*
X24502283Y-20573014D01*
X24502283Y-21168082D01*
G37*
D12*
%TO.C,JP2*%
X50150000Y-23000000D02*
X50150000Y-22400000D01*
X50850000Y-21700000D02*
X52250000Y-21700000D01*
X52250000Y-23700000D02*
X50850000Y-23700000D01*
X52950000Y-22400000D02*
X52950000Y-23000000D01*
X50150000Y-22400000D02*
G75*
G02*
X50850000Y-21700000I699999J1D01*
G01*
X50850000Y-23700000D02*
G75*
G02*
X50150000Y-23000000I-1J699999D01*
G01*
X52250000Y-21700000D02*
G75*
G02*
X52950000Y-22400000I0J-700000D01*
G01*
X52950000Y-23000000D02*
G75*
G02*
X52250000Y-23700000I-700000J0D01*
G01*
%TO.C,SW3*%
D11*
X26825000Y-1800000D02*
G75*
G02*
X26675000Y-1800000I-75000J0D01*
G01*
X26675000Y-1800000D02*
G75*
G02*
X26825000Y-1800000I75000J0D01*
G01*
D14*
%TO.C,LED5*%
X35260000Y-15890000D02*
X35560000Y-15530000D01*
X35560000Y-15530000D02*
X35860000Y-15890000D01*
X35860000Y-15890000D02*
X35260000Y-15890000D01*
D10*
%TO.C,kibuzzard-66975F6C*%
G36*
X79415929Y-13671370D02*
G01*
X79468258Y-13722329D01*
X79490785Y-13778828D01*
X79504301Y-13857732D01*
X79508806Y-13959041D01*
X79504362Y-14070944D01*
X79491028Y-14156788D01*
X79468806Y-14216575D01*
X79416614Y-14269178D01*
X79340039Y-14286712D01*
X79290724Y-14276849D01*
X79290724Y-13664247D01*
X79340039Y-13654384D01*
X79415929Y-13671370D01*
G37*
G36*
X81698273Y-13970000D02*
G01*
X81363418Y-14472283D01*
X81272094Y-14472283D01*
X80945518Y-14472283D01*
X80689080Y-14472283D01*
X79985518Y-14472283D01*
X79340039Y-14472283D01*
X79028806Y-14472283D01*
X78272642Y-14472283D01*
X78080861Y-14472283D01*
X77989537Y-14472283D01*
X77989537Y-13767260D01*
X78080861Y-13767260D01*
X78092231Y-13845068D01*
X78126340Y-13909726D01*
X78164027Y-13947717D01*
X78216447Y-13984247D01*
X78283601Y-14019315D01*
X78330587Y-14047534D01*
X78361957Y-14079589D01*
X78379628Y-14118493D01*
X78385518Y-14167260D01*
X78377847Y-14218356D01*
X78354833Y-14255479D01*
X78318121Y-14278082D01*
X78269354Y-14285616D01*
X78205184Y-14277702D01*
X78144179Y-14253957D01*
X78086340Y-14214384D01*
X78086340Y-14328356D01*
X78142596Y-14357580D01*
X78204696Y-14375114D01*
X78272642Y-14380959D01*
X78357464Y-14372192D01*
X78423436Y-14345890D01*
X78470559Y-14302055D01*
X78498833Y-14240685D01*
X78508258Y-14161781D01*
X78496477Y-14077123D01*
X78461135Y-14009452D01*
X78421074Y-13970365D01*
X78363722Y-13932009D01*
X78289080Y-13894384D01*
X78240374Y-13861629D01*
X78211150Y-13817428D01*
X78201409Y-13761781D01*
X78209080Y-13716849D01*
X78232094Y-13682877D01*
X78268532Y-13661507D01*
X78316477Y-13654384D01*
X78401683Y-13666164D01*
X78486340Y-13701507D01*
X78486340Y-13591918D01*
X78427406Y-13573653D01*
X78406949Y-13570000D01*
X78574012Y-13570000D01*
X78645244Y-14370000D01*
X78763601Y-14370000D01*
X78828258Y-13833014D01*
X78831546Y-13833014D01*
X78886340Y-14370000D01*
X79028806Y-14370000D01*
X79099063Y-13580959D01*
X79167984Y-13580959D01*
X79167984Y-14359041D01*
X79250450Y-14375479D01*
X79340039Y-14380959D01*
X79430998Y-14371507D01*
X79502231Y-14343151D01*
X79556340Y-14291507D01*
X79595929Y-14212192D01*
X79613890Y-14142664D01*
X79624666Y-14058280D01*
X79628258Y-13959041D01*
X79708258Y-13959041D01*
X79712590Y-14057928D01*
X79725587Y-14143630D01*
X79747248Y-14216147D01*
X79777573Y-14275479D01*
X79816563Y-14321627D01*
X79864217Y-14354589D01*
X79920536Y-14374366D01*
X79985518Y-14380959D01*
X80058669Y-14374110D01*
X80071876Y-14370000D01*
X80310998Y-14370000D01*
X80689080Y-14370000D01*
X80822779Y-14370000D01*
X80945518Y-14370000D01*
X80945518Y-13986438D01*
X80947710Y-13986438D01*
X81139491Y-14370000D01*
X81272094Y-14370000D01*
X81057299Y-13951370D01*
X81266614Y-13570000D01*
X81135107Y-13570000D01*
X80947710Y-13920685D01*
X80945518Y-13920685D01*
X80945518Y-13570000D01*
X80822779Y-13570000D01*
X80822779Y-14370000D01*
X80689080Y-14370000D01*
X80689080Y-14274658D01*
X80433738Y-14274658D01*
X80433738Y-13570000D01*
X80310998Y-13570000D01*
X80310998Y-14370000D01*
X80071876Y-14370000D01*
X80124696Y-14353562D01*
X80124696Y-14252740D01*
X80062231Y-14278219D01*
X80004149Y-14286712D01*
X79950572Y-14277610D01*
X79906736Y-14250304D01*
X79872642Y-14204795D01*
X79848289Y-14141081D01*
X79833677Y-14059163D01*
X79828806Y-13959041D01*
X79833220Y-13866286D01*
X79846462Y-13790396D01*
X79868532Y-13731370D01*
X79899430Y-13689209D01*
X79939156Y-13663912D01*
X79987710Y-13655479D01*
X80012916Y-13659863D01*
X80012916Y-13830822D01*
X80130176Y-13830822D01*
X80130176Y-13583151D01*
X80060313Y-13565068D01*
X79982231Y-13559041D01*
X79918018Y-13565291D01*
X79862368Y-13584041D01*
X79815279Y-13615291D01*
X79776751Y-13659041D01*
X79746786Y-13715291D01*
X79725381Y-13784041D01*
X79712539Y-13865291D01*
X79708258Y-13959041D01*
X79628258Y-13959041D01*
X79624046Y-13856610D01*
X79611409Y-13770685D01*
X79590347Y-13701267D01*
X79560861Y-13648356D01*
X79506371Y-13598737D01*
X79432763Y-13568965D01*
X79340039Y-13559041D01*
X79253738Y-13564521D01*
X79167984Y-13580959D01*
X79099063Y-13580959D01*
X79100039Y-13570000D01*
X78990450Y-13570000D01*
X78949902Y-14254932D01*
X78947710Y-14254932D01*
X78889628Y-13701507D01*
X78792094Y-13701507D01*
X78731820Y-14178219D01*
X78729628Y-14178219D01*
X78691272Y-13570000D01*
X78574012Y-13570000D01*
X78406949Y-13570000D01*
X78366036Y-13562694D01*
X78302231Y-13559041D01*
X78236782Y-13565129D01*
X78182170Y-13583394D01*
X78138395Y-13613836D01*
X78095244Y-13679589D01*
X78080861Y-13767260D01*
X77989537Y-13767260D01*
X77989537Y-13467717D01*
X78080861Y-13467717D01*
X81272094Y-13467717D01*
X81363418Y-13467717D01*
X81698273Y-13970000D01*
G37*
D14*
%TO.C,LED6*%
X30180000Y-15890000D02*
X30480000Y-15530000D01*
X30480000Y-15530000D02*
X30780000Y-15890000D01*
X30780000Y-15890000D02*
X30180000Y-15890000D01*
D10*
%TO.C,kibuzzard-669760FB*%
G36*
X26714016Y-15086149D02*
G01*
X26600317Y-15088889D01*
X26502905Y-15087062D01*
X26420713Y-15081583D01*
X26353742Y-15072451D01*
X26279084Y-15053444D01*
X26233194Y-15029300D01*
X26201687Y-14957382D01*
X26225659Y-14892998D01*
X26307166Y-14851903D01*
X26714016Y-15086149D01*
G37*
G36*
X26697729Y-14827702D02*
G01*
X26779921Y-14833181D01*
X26846892Y-14842314D01*
X26921550Y-14861320D01*
X26967440Y-14885464D01*
X26998947Y-14957382D01*
X26970865Y-15025875D01*
X26874290Y-15068341D01*
X26461961Y-14829985D01*
X26526002Y-14826903D01*
X26600317Y-14825875D01*
X26697729Y-14827702D01*
G37*
G36*
X27228171Y-15554642D02*
G01*
X27228171Y-16368341D01*
X27228171Y-16564231D01*
X27228171Y-16678387D01*
X26600317Y-17096956D01*
X25972463Y-16678387D01*
X25972463Y-16564231D01*
X25972463Y-16098478D01*
X26100317Y-16098478D01*
X26100317Y-16543683D01*
X26631824Y-16557382D01*
X26631824Y-16431355D01*
X26590728Y-16383752D01*
X26577029Y-16331355D01*
X26624290Y-16250533D01*
X26687475Y-16231012D01*
X26782509Y-16224505D01*
X26882680Y-16233752D01*
X26947577Y-16261492D01*
X26983022Y-16309437D01*
X26994838Y-16379300D01*
X26981824Y-16470738D01*
X26942783Y-16564231D01*
X27072920Y-16564231D01*
X27103742Y-16470053D01*
X27114016Y-16368341D01*
X27105492Y-16274429D01*
X27079921Y-16199087D01*
X27037303Y-16142314D01*
X26974898Y-16102740D01*
X26889967Y-16078995D01*
X26782509Y-16071081D01*
X26666618Y-16079848D01*
X26576481Y-16106149D01*
X26512098Y-16149985D01*
X26473468Y-16211355D01*
X26460591Y-16290259D01*
X26469153Y-16355327D01*
X26494838Y-16410807D01*
X26494838Y-16413546D01*
X26218125Y-16403957D01*
X26218125Y-16098478D01*
X26100317Y-16098478D01*
X25972463Y-16098478D01*
X25972463Y-15331355D01*
X26100317Y-15331355D01*
X26100317Y-15483409D01*
X26963331Y-15639574D01*
X26963331Y-15640944D01*
X26100317Y-15797108D01*
X26100317Y-15954642D01*
X27100317Y-15732724D01*
X27100317Y-15554642D01*
X26100317Y-15331355D01*
X25972463Y-15331355D01*
X25972463Y-14957382D01*
X26086618Y-14957382D01*
X26097749Y-15042656D01*
X26131139Y-15109437D01*
X26193125Y-15160635D01*
X26290043Y-15199163D01*
X26375355Y-15217047D01*
X26478780Y-15227778D01*
X26600317Y-15231355D01*
X26721854Y-15227778D01*
X26825279Y-15217047D01*
X26910591Y-15199163D01*
X27007509Y-15160635D01*
X27069495Y-15109437D01*
X27102885Y-15042656D01*
X27114016Y-14957382D01*
X27102885Y-14872108D01*
X27069495Y-14805327D01*
X27007509Y-14754129D01*
X26910591Y-14715601D01*
X26825279Y-14697717D01*
X26721854Y-14686986D01*
X26600317Y-14683409D01*
X26478780Y-14686986D01*
X26375355Y-14697717D01*
X26290043Y-14715601D01*
X26193125Y-14754129D01*
X26131139Y-14805327D01*
X26097749Y-14872108D01*
X26086618Y-14957382D01*
X25972463Y-14957382D01*
X25972463Y-14683409D01*
X25972463Y-14569254D01*
X27228171Y-14569254D01*
X27228171Y-14683409D01*
X27228171Y-14957382D01*
X27228171Y-15554642D01*
G37*
%TO.C,kibuzzard-66976103*%
G36*
X29287395Y-14750609D02*
G01*
X29394701Y-14767276D01*
X29469434Y-14795054D01*
X29535188Y-14860294D01*
X29557105Y-14956013D01*
X29544777Y-15017657D01*
X28779023Y-15017657D01*
X28766694Y-14956013D01*
X28787927Y-14861150D01*
X28851626Y-14795739D01*
X28922250Y-14767581D01*
X29020880Y-14750686D01*
X29147516Y-14745054D01*
X29287395Y-14750609D01*
G37*
G36*
X29789069Y-15845054D02*
G01*
X29789069Y-16221766D01*
X29789069Y-16564232D01*
X29789069Y-16678387D01*
X29161215Y-17096956D01*
X28533361Y-16678387D01*
X28533361Y-16564232D01*
X28533361Y-16194369D01*
X28647516Y-16194369D01*
X28661063Y-16307383D01*
X28701702Y-16399848D01*
X28769434Y-16471766D01*
X28839212Y-16512220D01*
X28926626Y-16541116D01*
X29031677Y-16558453D01*
X29154366Y-16564232D01*
X29276369Y-16558881D01*
X29382105Y-16542828D01*
X29471575Y-16516073D01*
X29544777Y-16478616D01*
X29601712Y-16430456D01*
X29642379Y-16371595D01*
X29666780Y-16302032D01*
X29674914Y-16221766D01*
X29669586Y-16139879D01*
X29653605Y-16062253D01*
X29626968Y-15988889D01*
X29065325Y-15988889D01*
X29065325Y-16308068D01*
X29181763Y-16308068D01*
X29181763Y-16135465D01*
X29540667Y-16135465D01*
X29557105Y-16217657D01*
X29533818Y-16301218D01*
X29463955Y-16362862D01*
X29388156Y-16391020D01*
X29284959Y-16407915D01*
X29154366Y-16413547D01*
X29026740Y-16407611D01*
X28926968Y-16389803D01*
X28855051Y-16360122D01*
X28789811Y-16291972D01*
X28768064Y-16194369D01*
X28776283Y-16110465D01*
X28800941Y-16023136D01*
X28677653Y-16023136D01*
X28655051Y-16107040D01*
X28647516Y-16194369D01*
X28533361Y-16194369D01*
X28533361Y-15324506D01*
X28661215Y-15324506D01*
X28661215Y-15468342D01*
X29387242Y-15468342D01*
X29387242Y-15472451D01*
X28661215Y-15686150D01*
X28661215Y-15845054D01*
X29661215Y-15845054D01*
X29661215Y-15694369D01*
X28935188Y-15694369D01*
X28935188Y-15691629D01*
X29661215Y-15477931D01*
X29661215Y-15324506D01*
X28661215Y-15324506D01*
X28533361Y-15324506D01*
X28533361Y-14956013D01*
X28647516Y-14956013D01*
X28654366Y-15063889D01*
X28674914Y-15171081D01*
X29647516Y-15171081D01*
X29668064Y-15067999D01*
X29674914Y-14956013D01*
X29663099Y-14842314D01*
X29627653Y-14753273D01*
X29563099Y-14685636D01*
X29463955Y-14636150D01*
X29377045Y-14613699D01*
X29271565Y-14600229D01*
X29147516Y-14595739D01*
X29019477Y-14601004D01*
X28912071Y-14616800D01*
X28825299Y-14643127D01*
X28759160Y-14679985D01*
X28697136Y-14748098D01*
X28659921Y-14840107D01*
X28647516Y-14956013D01*
X28533361Y-14956013D01*
X28533361Y-14595739D01*
X28533361Y-14481584D01*
X29789069Y-14481584D01*
X29789069Y-14595739D01*
X29789069Y-14956013D01*
X29789069Y-15845054D01*
G37*
%TO.C,ESD1*%
D13*
X15849987Y-13050000D02*
G75*
G02*
X15749987Y-13050000I-50000J0D01*
G01*
X15749987Y-13050000D02*
G75*
G02*
X15849987Y-13050000I50000J0D01*
G01*
D14*
%TO.C,LED3*%
X7820000Y-700000D02*
X8180000Y-1000000D01*
X7820000Y-1300000D02*
X7820000Y-700000D01*
X8180000Y-1000000D02*
X7820000Y-1300000D01*
%TO.C,SW8*%
D11*
X64325000Y-1800000D02*
G75*
G02*
X64175000Y-1800000I-75000J0D01*
G01*
X64175000Y-1800000D02*
G75*
G02*
X64325000Y-1800000I75000J0D01*
G01*
%TD*%
%LPC*%
D16*
%TO.C,C12*%
X44000000Y-23275000D03*
X44000000Y-21625000D03*
%TD*%
D17*
%TO.C,SW7*%
X56750000Y-1150000D03*
X62750000Y-1150000D03*
X56750000Y-4850000D03*
X62750000Y-4850000D03*
%TD*%
D18*
%TO.C,R2*%
X16250000Y-15260000D03*
X16250000Y-14240000D03*
%TD*%
D19*
%TO.C,C10*%
X5200000Y-14290000D03*
X5200000Y-15310000D03*
%TD*%
%TO.C,C15*%
X15619900Y-7749900D03*
X15619900Y-8769900D03*
%TD*%
D20*
%TO.C,R26*%
X12490000Y-1000000D03*
X13510000Y-1000000D03*
%TD*%
D18*
%TO.C,R3*%
X18250000Y-15260000D03*
X18250000Y-14240000D03*
%TD*%
%TO.C,R28*%
X67000000Y-23210000D03*
X67000000Y-22190000D03*
%TD*%
D21*
%TO.C,J1*%
X26710000Y-18500000D03*
D22*
X29250000Y-18500000D03*
X31790000Y-18500000D03*
X34330000Y-18500000D03*
X36870000Y-18500000D03*
X39410000Y-18500000D03*
%TD*%
D20*
%TO.C,R6*%
X12490000Y-4750000D03*
X13510000Y-4750000D03*
%TD*%
D17*
%TO.C,SW1*%
X18000000Y-19900000D03*
X24000000Y-19900000D03*
X18000000Y-23600000D03*
X24000000Y-23600000D03*
%TD*%
D23*
%TO.C,LDO1*%
X38529823Y-21500038D03*
X38529823Y-23399962D03*
X40999977Y-22450000D03*
%TD*%
D24*
%TO.C,C30*%
X13520000Y-2250000D03*
X12500000Y-2250000D03*
%TD*%
D18*
%TO.C,C7*%
X37400000Y-22960000D03*
X37400000Y-21940000D03*
%TD*%
D24*
%TO.C,C34*%
X10610000Y-2900000D03*
X9590000Y-2900000D03*
%TD*%
D19*
%TO.C,C38*%
X64500000Y-22190000D03*
X64500000Y-23210000D03*
%TD*%
D16*
%TO.C,C13*%
X42500000Y-23275000D03*
X42500000Y-21625000D03*
%TD*%
D25*
%TO.C,U2*%
X2099924Y-12349938D03*
X2099924Y-8249862D03*
%TD*%
D26*
%TO.C,C3*%
X34900000Y-23412500D03*
X34900000Y-21587500D03*
%TD*%
D17*
%TO.C,SW5*%
X41750000Y-1150000D03*
X47750000Y-1150000D03*
X41750000Y-4850000D03*
X47750000Y-4850000D03*
%TD*%
%TO.C,SW6*%
X49250000Y-1150000D03*
X55250000Y-1150000D03*
X49250000Y-4850000D03*
X55250000Y-4850000D03*
%TD*%
D19*
%TO.C,R5*%
X19000000Y-17490000D03*
X19000000Y-18510000D03*
%TD*%
D16*
%TO.C,C14*%
X45500000Y-23275000D03*
X45500000Y-21625000D03*
%TD*%
D18*
%TO.C,C9*%
X13599900Y-15259900D03*
X13599900Y-14239900D03*
%TD*%
D19*
%TO.C,C2*%
X6300000Y-14290000D03*
X6300000Y-15310000D03*
%TD*%
%TO.C,C1*%
X4400000Y-7790000D03*
X4400000Y-8810000D03*
%TD*%
D27*
%TO.C,FB1*%
X32900000Y-21587500D03*
X32900000Y-23412500D03*
%TD*%
D17*
%TO.C,SW9*%
X71750000Y-1150000D03*
X77750000Y-1150000D03*
X71750000Y-4850000D03*
X77750000Y-4850000D03*
%TD*%
D28*
%TO.C,J2*%
X8099949Y-19074959D03*
X14900051Y-19074959D03*
D29*
X8875159Y-17099089D03*
X9375032Y-17099089D03*
X9875159Y-17099089D03*
X10375032Y-17099089D03*
X10874905Y-17099089D03*
X11375032Y-17099089D03*
X11874905Y-17099089D03*
X12375032Y-17099089D03*
X12874905Y-17099089D03*
X13375032Y-17099089D03*
X13874905Y-17099089D03*
X14375032Y-17099089D03*
X14125095Y-18498886D03*
X13624968Y-18498886D03*
X13125095Y-18498886D03*
X12624968Y-18498886D03*
X12125095Y-18498886D03*
X11624968Y-18498886D03*
X11124841Y-18498886D03*
X10624968Y-18498886D03*
X10125095Y-18498886D03*
X9624968Y-18498886D03*
X9125095Y-18498886D03*
X8624968Y-18498886D03*
D30*
X7179959Y-22275111D03*
D31*
X7440056Y-17724946D03*
X15560198Y-17724946D03*
D30*
X15820041Y-22275111D03*
%TD*%
D32*
%TO.C,J3*%
X82750000Y-8670000D03*
D22*
X82750000Y-11210000D03*
X82750000Y-13750000D03*
X82750000Y-16290000D03*
%TD*%
D20*
%TO.C,R20*%
X15590000Y-1000000D03*
X16610000Y-1000000D03*
%TD*%
D33*
%TO.C,LED4*%
X38100000Y-14910000D03*
X38100000Y-16510000D03*
%TD*%
D19*
%TO.C,R13*%
X20250000Y-17490000D03*
X20250000Y-18510000D03*
%TD*%
D24*
%TO.C,R17*%
X24010000Y-14750000D03*
X22990000Y-14750000D03*
%TD*%
%TO.C,R7*%
X11010000Y-1000000D03*
X9990000Y-1000000D03*
%TD*%
D18*
%TO.C,R8*%
X49250000Y-23210000D03*
X49250000Y-22190000D03*
%TD*%
D19*
%TO.C,R22*%
X48200000Y-21590000D03*
X48200000Y-22610000D03*
%TD*%
D17*
%TO.C,SW4*%
X34250000Y-1150000D03*
X40250000Y-1150000D03*
X34250000Y-4850000D03*
X40250000Y-4850000D03*
%TD*%
D18*
%TO.C,R9*%
X59500000Y-23200000D03*
X59500000Y-22180000D03*
%TD*%
%TO.C,R10*%
X53850000Y-23210000D03*
X53850000Y-22190000D03*
%TD*%
D33*
%TO.C,LED7*%
X33020000Y-14910000D03*
X33020000Y-16510000D03*
%TD*%
%TO.C,LED1*%
X31300000Y-21700000D03*
X31300000Y-23300000D03*
%TD*%
D34*
%TO.C,MB3*%
X0Y-14300000D03*
X0Y-13700000D03*
X0Y-13100000D03*
X0Y-12500000D03*
X0Y-11900000D03*
X0Y-11300000D03*
X0Y-10700000D03*
%TD*%
D35*
%TO.C,F1*%
X28650000Y-21750000D03*
X25850000Y-21750000D03*
%TD*%
D20*
%TO.C,C18*%
X6979900Y-3129900D03*
X7999900Y-3129900D03*
%TD*%
D33*
%TO.C,LED2*%
X47000000Y-21700000D03*
X47000000Y-23300000D03*
%TD*%
D17*
%TO.C,SW2*%
X19250000Y-1150000D03*
X25250000Y-1150000D03*
X19250000Y-4850000D03*
X25250000Y-4850000D03*
%TD*%
D18*
%TO.C,C5*%
X17750000Y-18510000D03*
X17750000Y-17490000D03*
%TD*%
D24*
%TO.C,R15*%
X24010000Y-18500000D03*
X22990000Y-18500000D03*
%TD*%
D19*
%TO.C,R14*%
X21500000Y-17490000D03*
X21500000Y-18510000D03*
%TD*%
D24*
%TO.C,R12*%
X24010000Y-16000000D03*
X22990000Y-16000000D03*
%TD*%
D36*
%TO.C,U1*%
X5749964Y-7999836D03*
X5749964Y-8499964D03*
X5749964Y-8999836D03*
X5749964Y-9499964D03*
X5749964Y-9999836D03*
X5749964Y-10499964D03*
X5749964Y-10999836D03*
X5749964Y-11499964D03*
X5749964Y-11999836D03*
X5749964Y-12499964D03*
X5749964Y-12999836D03*
X5749964Y-13499964D03*
D37*
X7249836Y-14999836D03*
X7749964Y-14999836D03*
X8249836Y-14999836D03*
X8749964Y-14999836D03*
X9249836Y-14999836D03*
X9749964Y-14999836D03*
X10249836Y-14999836D03*
X10749964Y-14999836D03*
X11249836Y-14999836D03*
X11749964Y-14999836D03*
X12249836Y-14999836D03*
X12749964Y-14999836D03*
D36*
X14249836Y-13499964D03*
X14249836Y-12999836D03*
X14249836Y-12499964D03*
X14249836Y-11999836D03*
X14249836Y-11499964D03*
X14249836Y-10999836D03*
X14249836Y-10499964D03*
X14249836Y-9999836D03*
X14249836Y-9499964D03*
X14249836Y-8999836D03*
X14249836Y-8499964D03*
X14249836Y-7999836D03*
D37*
X12749964Y-6499964D03*
X12249836Y-6499964D03*
X11749964Y-6499964D03*
X11249836Y-6499964D03*
X10749964Y-6499964D03*
X10249836Y-6499964D03*
X9749964Y-6499964D03*
X9249836Y-6499964D03*
X8749964Y-6499964D03*
X8249836Y-6499964D03*
X7749964Y-6499964D03*
X7249836Y-6499964D03*
%TD*%
D38*
%TO.C,JP1*%
X57850000Y-22690000D03*
D39*
X56550000Y-22690000D03*
%TD*%
D18*
%TO.C,C8*%
X36400000Y-22960000D03*
X36400000Y-21940000D03*
%TD*%
D19*
%TO.C,C11*%
X16619900Y-7749900D03*
X16619900Y-8769900D03*
%TD*%
D18*
%TO.C,C4*%
X14599900Y-15259900D03*
X14599900Y-14239900D03*
%TD*%
D34*
%TO.C,M1*%
X3000000Y-5000000D03*
X1585786Y-4414214D03*
X4414214Y-4414214D03*
X1000000Y-3000000D03*
D40*
X3000000Y-3000000D03*
D34*
X5000000Y-3000000D03*
X1585786Y-1585786D03*
X4414214Y-1585786D03*
X3000000Y-1000000D03*
%TD*%
D41*
%TO.C,JP2*%
X50900000Y-22700000D03*
D42*
X52200000Y-22700000D03*
%TD*%
D17*
%TO.C,SW3*%
X26750000Y-1150000D03*
X32750000Y-1150000D03*
X26750000Y-4850000D03*
X32750000Y-4850000D03*
%TD*%
D18*
%TO.C,C6*%
X4400000Y-12710000D03*
X4400000Y-11690000D03*
%TD*%
D33*
%TO.C,LED5*%
X35560000Y-14910000D03*
X35560000Y-16510000D03*
%TD*%
D34*
%TO.C,M2*%
X82000000Y-5000000D03*
X80585786Y-4414214D03*
X83414214Y-4414214D03*
X80000000Y-3000000D03*
D40*
X82000000Y-3000000D03*
D34*
X84000000Y-3000000D03*
X80585786Y-1585786D03*
X83414214Y-1585786D03*
X82000000Y-1000000D03*
%TD*%
%TO.C,MB2*%
X85000000Y-10700000D03*
X85000000Y-11300000D03*
X85000000Y-11900000D03*
X85000000Y-12500000D03*
X85000000Y-13100000D03*
X85000000Y-13700000D03*
X85000000Y-14300000D03*
%TD*%
D24*
%TO.C,C31*%
X13510000Y-3500000D03*
X12490000Y-3500000D03*
%TD*%
D20*
%TO.C,C16*%
X6989900Y-4139900D03*
X8009900Y-4139900D03*
%TD*%
D19*
%TO.C,C39*%
X65750000Y-22190000D03*
X65750000Y-23210000D03*
%TD*%
D33*
%TO.C,LED6*%
X30480000Y-14910000D03*
X30480000Y-16510000D03*
%TD*%
D24*
%TO.C,C35*%
X16610000Y-2250000D03*
X15590000Y-2250000D03*
%TD*%
D19*
%TO.C,R1*%
X4400000Y-9739900D03*
X4400000Y-10759900D03*
%TD*%
D24*
%TO.C,R16*%
X24010000Y-17250000D03*
X22990000Y-17250000D03*
%TD*%
D34*
%TO.C,M3*%
X82000000Y-24000000D03*
X80585786Y-23414214D03*
X83414214Y-23414214D03*
X80000000Y-22000000D03*
D40*
X82000000Y-22000000D03*
D34*
X84000000Y-22000000D03*
X80585786Y-20585786D03*
X83414214Y-20585786D03*
X82000000Y-20000000D03*
%TD*%
D24*
%TO.C,C36*%
X16610000Y-3500000D03*
X15590000Y-3500000D03*
%TD*%
D20*
%TO.C,R21*%
X15590000Y-4750000D03*
X16610000Y-4750000D03*
%TD*%
D34*
%TO.C,M4*%
X3000000Y-24000000D03*
X1585786Y-23414214D03*
X4414214Y-23414214D03*
X1000000Y-22000000D03*
D40*
X3000000Y-22000000D03*
D34*
X5000000Y-22000000D03*
X1585786Y-20585786D03*
X4414214Y-20585786D03*
X3000000Y-20000000D03*
%TD*%
D18*
%TO.C,R18*%
X30100000Y-22610000D03*
X30100000Y-21590000D03*
%TD*%
D27*
%TO.C,C33*%
X2600000Y-14587500D03*
X2600000Y-16412500D03*
%TD*%
D20*
%TO.C,R19*%
X9590000Y-4250000D03*
X10610000Y-4250000D03*
%TD*%
D18*
%TO.C,R11*%
X54900000Y-23200000D03*
X54900000Y-22180000D03*
%TD*%
D43*
%TO.C,ESD1*%
X16300038Y-13100013D03*
X17250000Y-13100013D03*
X18199962Y-13100013D03*
X18199962Y-10399987D03*
X17250000Y-10399987D03*
X16300038Y-10399987D03*
%TD*%
D18*
%TO.C,R24*%
X62000000Y-23210000D03*
X62000000Y-22190000D03*
%TD*%
%TO.C,R27*%
X63250000Y-23210000D03*
X63250000Y-22190000D03*
%TD*%
%TO.C,R4*%
X20000000Y-15260000D03*
X20000000Y-14240000D03*
%TD*%
D20*
%TO.C,C17*%
X6989900Y-5149900D03*
X8009900Y-5149900D03*
%TD*%
D19*
%TO.C,C32*%
X4100000Y-14290000D03*
X4100000Y-15310000D03*
%TD*%
D44*
%TO.C,LED3*%
X8800000Y-1000000D03*
X7200000Y-1000000D03*
%TD*%
D17*
%TO.C,SW8*%
X64250000Y-1150000D03*
X70250000Y-1150000D03*
X64250000Y-4850000D03*
X70250000Y-4850000D03*
%TD*%
D19*
%TO.C,C37*%
X60750000Y-22190000D03*
X60750000Y-23210000D03*
%TD*%
%LPD*%
M02*
