M48
; DRILL file {KiCad 8.0.3} date 2024-07-18T08:41:48+1200
; FORMAT={-:-/ absolute / inch / decimal}
; #@! TF.CreationDate,2024-07-18T08:41:48+12:00
; #@! TF.GenerationSoftware,Kicad,Pcbnew,8.0.3
; #@! TF.FileFunction,Plated,1,2,PTH
FMAT,2
INCH
; #@! TA.AperFunction,Plated,PTH,ViaDrill
T1C0.0118
; #@! TA.AperFunction,Plated,PTH,ComponentDrill
T2C0.0118
; #@! TA.AperFunction,Plated,PTH,ViaDrill
T3C0.0157
; #@! TA.AperFunction,Plated,PTH,ComponentDrill
T4C0.0236
; #@! TA.AperFunction,Plated,PTH,ComponentDrill
T5C0.0394
; #@! TA.AperFunction,Plated,PTH,ComponentDrill
T6C0.0472
; #@! TA.AperFunction,Plated,PTH,ComponentDrill
T7C0.1181
%
G90
G05
T1
X0.2713Y-0.4035
X0.2827Y-0.0951
X0.3286Y-0.6308
X0.3379Y-0.3079
X0.3787Y-0.3878
X0.4002Y-0.4279
X0.4014Y-0.325
X0.4103Y-0.5437
X0.4138Y-0.641
X0.4139Y-0.1956
X0.4155Y-0.3506
X0.431Y-0.4609
X0.4461Y-0.7645
X0.4609Y-0.3785
X0.4625Y-0.4186
X0.4655Y-0.0295
X0.4708Y-0.7749
X0.4879Y-0.6387
X0.4986Y-0.798
X0.5151Y-0.4337
X0.5157Y-0.357
X0.5255Y-0.627
X0.5561Y-0.2035
X0.5755Y-0.2925
X0.581Y-0.1057
X0.5876Y-0.0295
X0.5954Y-0.4198
X0.6162Y-0.6186
X0.6692Y-0.644
X0.6802Y-0.1962
X0.6939Y-0.0712
X0.7406Y-0.6522
X0.7516Y-0.0868
X0.7692Y-0.6674
X0.8197Y-0.5929
X0.8313Y-0.1015
X0.8343Y-0.6624
X0.8876Y-0.1023
X0.9128Y-0.1825
X0.9724Y-0.4559
X0.9822Y-0.7344
X1.8854Y-0.7902
X2.2634Y-0.9376
X2.3782Y-0.7698
X2.3917Y-0.9384
X2.4609Y-0.5918
X2.5309Y-0.5486
X2.5886Y-0.9384
T2
X0.0394Y-0.1181
X0.0394Y-0.8661
X0.0624Y-0.0624
X0.0624Y-0.1738
X0.0624Y-0.8105
X0.0624Y-0.9218
X0.1181Y-0.0394
X0.1181Y-0.1969
X0.1181Y-0.7874
X0.1181Y-0.9449
X0.1738Y-0.0624
X0.1738Y-0.1738
X0.1738Y-0.8105
X0.1738Y-0.9218
X0.1969Y-0.1181
X0.1969Y-0.8661
X3.1496Y-0.1181
X3.1496Y-0.8661
X3.1727Y-0.0624
X3.1727Y-0.1738
X3.1727Y-0.8105
X3.1727Y-0.9218
X3.2283Y-0.0394
X3.2283Y-0.1969
X3.2283Y-0.7874
X3.2283Y-0.9449
X3.284Y-0.0624
X3.284Y-0.1738
X3.284Y-0.8105
X3.284Y-0.9218
X3.3071Y-0.1181
X3.3071Y-0.8661
T3
X0.039Y-0.2646
X0.0441Y-0.5425
X0.1378Y-0.2689
X0.1524Y-0.5268
X0.215Y-0.2898
X0.2283Y-0.2189
X0.2705Y-0.6339
X0.2894Y-0.3598
X0.3547Y-0.2024
X0.4421Y-0.0768
X0.4638Y-0.8055
X0.485Y-0.5402
X0.4961Y-0.4551
X0.6996Y-0.6524
X0.7331Y-0.2988
X0.752Y-0.2531
X0.7933Y-0.089
X0.8327Y-0.9142
X0.8835Y-0.5461
X1.4705Y-0.0724
X1.4823Y-0.5291
X1.5165Y-0.8835
X1.7598Y-0.0854
X1.7622Y-0.8835
X2.461Y-0.8398
X2.4646Y-0.9449
X2.5799Y-0.1165
X2.639Y-0.0571
X2.6831Y-0.9382
X2.763Y-0.1941
T5
X1.0516Y-0.7283
X1.1516Y-0.7283
X1.2516Y-0.7283
X1.3516Y-0.7283
X1.4516Y-0.7283
X1.5516Y-0.7283
X3.2579Y-0.3413
X3.2579Y-0.4413
X3.2579Y-0.5413
X3.2579Y-0.6413
T7
X0.1181Y-0.1181
X0.1181Y-0.8661
X3.2283Y-0.1181
X3.2283Y-0.8661
T4
G00X0.2827Y-0.8514
M15
G01X0.2827Y-0.9026
M16
G05
G00X0.6228Y-0.8514
M15
G01X0.6228Y-0.9026
M16
G05
T6
G00X0.2929Y-0.686
M15
G01X0.2929Y-0.7096
M16
G05
G00X0.6126Y-0.686
M15
G01X0.6126Y-0.7096
M16
G05
M30
