%TF.GenerationSoftware,KiCad,Pcbnew,8.0.3*%
%TF.CreationDate,2024-07-18T08:41:48+12:00*%
%TF.ProjectId,USB Keypad,55534220-4b65-4797-9061-642e6b696361,rev?*%
%TF.SameCoordinates,Original*%
%TF.FileFunction,Paste,Top*%
%TF.FilePolarity,Positive*%
%FSLAX46Y46*%
G04 Gerber Fmt 4.6, Leading zero omitted, Abs format (unit mm)*
G04 Created by KiCad (PCBNEW 8.0.3) date 2024-07-18 08:41:48*
%MOMM*%
%LPD*%
G01*
G04 APERTURE LIST*
G04 Aperture macros list*
%AMRoundRect*
0 Rectangle with rounded corners*
0 $1 Rounding radius*
0 $2 $3 $4 $5 $6 $7 $8 $9 X,Y pos of 4 corners*
0 Add a 4 corners polygon primitive as box body*
4,1,4,$2,$3,$4,$5,$6,$7,$8,$9,$2,$3,0*
0 Add four circle primitives for the rounded corners*
1,1,$1+$1,$2,$3*
1,1,$1+$1,$4,$5*
1,1,$1+$1,$6,$7*
1,1,$1+$1,$8,$9*
0 Add four rect primitives between the rounded corners*
20,1,$1+$1,$2,$3,$4,$5,0*
20,1,$1+$1,$4,$5,$6,$7,0*
20,1,$1+$1,$6,$7,$8,$9,0*
20,1,$1+$1,$8,$9,$2,$3,0*%
G04 Aperture macros list end*
%ADD10RoundRect,0.225000X0.300000X-0.225000X0.300000X0.225000X-0.300000X0.225000X-0.300000X-0.225000X0*%
%ADD11RoundRect,0.225000X-0.325000X-0.225000X0.325000X-0.225000X0.325000X0.225000X-0.325000X0.225000X0*%
%ADD12RoundRect,0.160000X0.210000X-0.160000X0.210000X0.160000X-0.210000X0.160000X-0.210000X-0.160000X0*%
%ADD13RoundRect,0.160000X-0.210000X0.160000X-0.210000X-0.160000X0.210000X-0.160000X0.210000X0.160000X0*%
%ADD14RoundRect,0.160000X-0.160000X-0.210000X0.160000X-0.210000X0.160000X0.210000X-0.160000X0.210000X0*%
%ADD15RoundRect,0.050000X0.535001X0.300000X-0.535001X0.300000X-0.535001X-0.300000X0.535001X-0.300000X0*%
%ADD16RoundRect,0.160000X0.160000X0.210000X-0.160000X0.210000X-0.160000X-0.210000X0.160000X-0.210000X0*%
%ADD17RoundRect,0.050000X1.200000X-0.950000X1.200000X0.950000X-1.200000X0.950000X-1.200000X-0.950000X0*%
%ADD18RoundRect,0.274390X0.475610X-0.288110X0.475610X0.288110X-0.475610X0.288110X-0.475610X-0.288110X0*%
%ADD19RoundRect,0.274390X-0.475610X0.288110X-0.475610X-0.288110X0.475610X-0.288110X0.475610X0.288110X0*%
%ADD20RoundRect,0.050000X-0.150000X-0.475006X0.150000X-0.475006X0.150000X0.475006X-0.150000X0.475006X0*%
%ADD21RoundRect,0.165789X0.384211X-0.359211X0.384211X0.359211X-0.384211X0.359211X-0.384211X-0.359211X0*%
%ADD22RoundRect,0.270000X0.405000X0.655000X-0.405000X0.655000X-0.405000X-0.655000X0.405000X-0.655000X0*%
%ADD23O,1.600000X0.370003*%
%ADD24O,0.370003X1.600000*%
%ADD25RoundRect,0.175000X-0.175000X0.425000X-0.175000X-0.425000X0.175000X-0.425000X0.175000X0.425000X0*%
%ADD26RoundRect,0.165789X-0.359211X-0.384211X0.359211X-0.384211X0.359211X0.384211X-0.359211X0.384211X0*%
G04 APERTURE END LIST*
D10*
%TO.C,C12*%
X44000000Y-23275000D03*
X44000000Y-21625000D03*
%TD*%
D11*
%TO.C,SW7*%
X56750000Y-1150000D03*
X62750000Y-1150000D03*
X56750000Y-4850000D03*
X62750000Y-4850000D03*
%TD*%
D12*
%TO.C,R2*%
X16250000Y-15260000D03*
X16250000Y-14240000D03*
%TD*%
D13*
%TO.C,C10*%
X5200000Y-14290000D03*
X5200000Y-15310000D03*
%TD*%
%TO.C,C15*%
X15619900Y-7749900D03*
X15619900Y-8769900D03*
%TD*%
D14*
%TO.C,R26*%
X12490000Y-1000000D03*
X13510000Y-1000000D03*
%TD*%
D12*
%TO.C,R3*%
X18250000Y-15260000D03*
X18250000Y-14240000D03*
%TD*%
%TO.C,R28*%
X67000000Y-23210000D03*
X67000000Y-22190000D03*
%TD*%
D14*
%TO.C,R6*%
X12490000Y-4750000D03*
X13510000Y-4750000D03*
%TD*%
D11*
%TO.C,SW1*%
X18000000Y-19900000D03*
X24000000Y-19900000D03*
X18000000Y-23600000D03*
X24000000Y-23600000D03*
%TD*%
D15*
%TO.C,LDO1*%
X38529823Y-21500038D03*
X38529823Y-23399962D03*
X40999977Y-22450000D03*
%TD*%
D16*
%TO.C,C30*%
X13520000Y-2250000D03*
X12500000Y-2250000D03*
%TD*%
D12*
%TO.C,C7*%
X37400000Y-22960000D03*
X37400000Y-21940000D03*
%TD*%
D16*
%TO.C,C34*%
X10610000Y-2900000D03*
X9590000Y-2900000D03*
%TD*%
D13*
%TO.C,C38*%
X64500000Y-22190000D03*
X64500000Y-23210000D03*
%TD*%
D10*
%TO.C,C13*%
X42500000Y-23275000D03*
X42500000Y-21625000D03*
%TD*%
D17*
%TO.C,U2*%
X2099924Y-12349938D03*
X2099924Y-8249862D03*
%TD*%
D18*
%TO.C,C3*%
X34900000Y-23412500D03*
X34900000Y-21587500D03*
%TD*%
D11*
%TO.C,SW5*%
X41750000Y-1150000D03*
X47750000Y-1150000D03*
X41750000Y-4850000D03*
X47750000Y-4850000D03*
%TD*%
%TO.C,SW6*%
X49250000Y-1150000D03*
X55250000Y-1150000D03*
X49250000Y-4850000D03*
X55250000Y-4850000D03*
%TD*%
D13*
%TO.C,R5*%
X19000000Y-17490000D03*
X19000000Y-18510000D03*
%TD*%
D10*
%TO.C,C14*%
X45500000Y-23275000D03*
X45500000Y-21625000D03*
%TD*%
D12*
%TO.C,C9*%
X13599900Y-15259900D03*
X13599900Y-14239900D03*
%TD*%
D13*
%TO.C,C2*%
X6300000Y-14290000D03*
X6300000Y-15310000D03*
%TD*%
%TO.C,C1*%
X4400000Y-7790000D03*
X4400000Y-8810000D03*
%TD*%
D19*
%TO.C,FB1*%
X32900000Y-21587500D03*
X32900000Y-23412500D03*
%TD*%
D11*
%TO.C,SW9*%
X71750000Y-1150000D03*
X77750000Y-1150000D03*
X71750000Y-4850000D03*
X77750000Y-4850000D03*
%TD*%
D20*
%TO.C,J2*%
X8875159Y-17099089D03*
X9375032Y-17099089D03*
X9875159Y-17099089D03*
X10375032Y-17099089D03*
X10874905Y-17099089D03*
X11375032Y-17099089D03*
X11874905Y-17099089D03*
X12375032Y-17099089D03*
X12874905Y-17099089D03*
X13375032Y-17099089D03*
X13874905Y-17099089D03*
X14375032Y-17099089D03*
X14125095Y-18498886D03*
X13624968Y-18498886D03*
X13125095Y-18498886D03*
X12624968Y-18498886D03*
X12125095Y-18498886D03*
X11624968Y-18498886D03*
X11124841Y-18498886D03*
X10624968Y-18498886D03*
X10125095Y-18498886D03*
X9624968Y-18498886D03*
X9125095Y-18498886D03*
X8624968Y-18498886D03*
%TD*%
D14*
%TO.C,R20*%
X15590000Y-1000000D03*
X16610000Y-1000000D03*
%TD*%
D21*
%TO.C,LED4*%
X38100000Y-14910000D03*
X38100000Y-16510000D03*
%TD*%
D13*
%TO.C,R13*%
X20250000Y-17490000D03*
X20250000Y-18510000D03*
%TD*%
D16*
%TO.C,R17*%
X24010000Y-14750000D03*
X22990000Y-14750000D03*
%TD*%
%TO.C,R7*%
X11010000Y-1000000D03*
X9990000Y-1000000D03*
%TD*%
D12*
%TO.C,R8*%
X49250000Y-23210000D03*
X49250000Y-22190000D03*
%TD*%
D13*
%TO.C,R22*%
X48200000Y-21590000D03*
X48200000Y-22610000D03*
%TD*%
D11*
%TO.C,SW4*%
X34250000Y-1150000D03*
X40250000Y-1150000D03*
X34250000Y-4850000D03*
X40250000Y-4850000D03*
%TD*%
D12*
%TO.C,R9*%
X59500000Y-23200000D03*
X59500000Y-22180000D03*
%TD*%
%TO.C,R10*%
X53850000Y-23210000D03*
X53850000Y-22190000D03*
%TD*%
D21*
%TO.C,LED7*%
X33020000Y-14910000D03*
X33020000Y-16510000D03*
%TD*%
%TO.C,LED1*%
X31300000Y-21700000D03*
X31300000Y-23300000D03*
%TD*%
D22*
%TO.C,F1*%
X28650000Y-21750000D03*
X25850000Y-21750000D03*
%TD*%
D14*
%TO.C,C18*%
X6979900Y-3129900D03*
X7999900Y-3129900D03*
%TD*%
D21*
%TO.C,LED2*%
X47000000Y-21700000D03*
X47000000Y-23300000D03*
%TD*%
D11*
%TO.C,SW2*%
X19250000Y-1150000D03*
X25250000Y-1150000D03*
X19250000Y-4850000D03*
X25250000Y-4850000D03*
%TD*%
D12*
%TO.C,C5*%
X17750000Y-18510000D03*
X17750000Y-17490000D03*
%TD*%
D16*
%TO.C,R15*%
X24010000Y-18500000D03*
X22990000Y-18500000D03*
%TD*%
D13*
%TO.C,R14*%
X21500000Y-17490000D03*
X21500000Y-18510000D03*
%TD*%
D16*
%TO.C,R12*%
X24010000Y-16000000D03*
X22990000Y-16000000D03*
%TD*%
D23*
%TO.C,U1*%
X5749964Y-7999836D03*
X5749964Y-8499964D03*
X5749964Y-8999836D03*
X5749964Y-9499964D03*
X5749964Y-9999836D03*
X5749964Y-10499964D03*
X5749964Y-10999836D03*
X5749964Y-11499964D03*
X5749964Y-11999836D03*
X5749964Y-12499964D03*
X5749964Y-12999836D03*
X5749964Y-13499964D03*
D24*
X7249836Y-14999836D03*
X7749964Y-14999836D03*
X8249836Y-14999836D03*
X8749964Y-14999836D03*
X9249836Y-14999836D03*
X9749964Y-14999836D03*
X10249836Y-14999836D03*
X10749964Y-14999836D03*
X11249836Y-14999836D03*
X11749964Y-14999836D03*
X12249836Y-14999836D03*
X12749964Y-14999836D03*
D23*
X14249836Y-13499964D03*
X14249836Y-12999836D03*
X14249836Y-12499964D03*
X14249836Y-11999836D03*
X14249836Y-11499964D03*
X14249836Y-10999836D03*
X14249836Y-10499964D03*
X14249836Y-9999836D03*
X14249836Y-9499964D03*
X14249836Y-8999836D03*
X14249836Y-8499964D03*
X14249836Y-7999836D03*
D24*
X12749964Y-6499964D03*
X12249836Y-6499964D03*
X11749964Y-6499964D03*
X11249836Y-6499964D03*
X10749964Y-6499964D03*
X10249836Y-6499964D03*
X9749964Y-6499964D03*
X9249836Y-6499964D03*
X8749964Y-6499964D03*
X8249836Y-6499964D03*
X7749964Y-6499964D03*
X7249836Y-6499964D03*
%TD*%
D12*
%TO.C,C8*%
X36400000Y-22960000D03*
X36400000Y-21940000D03*
%TD*%
D13*
%TO.C,C11*%
X16619900Y-7749900D03*
X16619900Y-8769900D03*
%TD*%
D12*
%TO.C,C4*%
X14599900Y-15259900D03*
X14599900Y-14239900D03*
%TD*%
D11*
%TO.C,SW3*%
X26750000Y-1150000D03*
X32750000Y-1150000D03*
X26750000Y-4850000D03*
X32750000Y-4850000D03*
%TD*%
D12*
%TO.C,C6*%
X4400000Y-12710000D03*
X4400000Y-11690000D03*
%TD*%
D21*
%TO.C,LED5*%
X35560000Y-14910000D03*
X35560000Y-16510000D03*
%TD*%
D16*
%TO.C,C31*%
X13510000Y-3500000D03*
X12490000Y-3500000D03*
%TD*%
D14*
%TO.C,C16*%
X6989900Y-4139900D03*
X8009900Y-4139900D03*
%TD*%
D13*
%TO.C,C39*%
X65750000Y-22190000D03*
X65750000Y-23210000D03*
%TD*%
D21*
%TO.C,LED6*%
X30480000Y-14910000D03*
X30480000Y-16510000D03*
%TD*%
D16*
%TO.C,C35*%
X16610000Y-2250000D03*
X15590000Y-2250000D03*
%TD*%
D13*
%TO.C,R1*%
X4400000Y-9739900D03*
X4400000Y-10759900D03*
%TD*%
D16*
%TO.C,R16*%
X24010000Y-17250000D03*
X22990000Y-17250000D03*
%TD*%
%TO.C,C36*%
X16610000Y-3500000D03*
X15590000Y-3500000D03*
%TD*%
D14*
%TO.C,R21*%
X15590000Y-4750000D03*
X16610000Y-4750000D03*
%TD*%
D12*
%TO.C,R18*%
X30100000Y-22610000D03*
X30100000Y-21590000D03*
%TD*%
D19*
%TO.C,C33*%
X2600000Y-14587500D03*
X2600000Y-16412500D03*
%TD*%
D14*
%TO.C,R19*%
X9590000Y-4250000D03*
X10610000Y-4250000D03*
%TD*%
D12*
%TO.C,R11*%
X54900000Y-23200000D03*
X54900000Y-22180000D03*
%TD*%
D25*
%TO.C,ESD1*%
X16300038Y-13100013D03*
X17250000Y-13100013D03*
X18199962Y-13100013D03*
X18199962Y-10399987D03*
X17250000Y-10399987D03*
X16300038Y-10399987D03*
%TD*%
D12*
%TO.C,R24*%
X62000000Y-23210000D03*
X62000000Y-22190000D03*
%TD*%
%TO.C,R27*%
X63250000Y-23210000D03*
X63250000Y-22190000D03*
%TD*%
%TO.C,R4*%
X20000000Y-15260000D03*
X20000000Y-14240000D03*
%TD*%
D14*
%TO.C,C17*%
X6989900Y-5149900D03*
X8009900Y-5149900D03*
%TD*%
D13*
%TO.C,C32*%
X4100000Y-14290000D03*
X4100000Y-15310000D03*
%TD*%
D26*
%TO.C,LED3*%
X8800000Y-1000000D03*
X7200000Y-1000000D03*
%TD*%
D11*
%TO.C,SW8*%
X64250000Y-1150000D03*
X70250000Y-1150000D03*
X64250000Y-4850000D03*
X70250000Y-4850000D03*
%TD*%
D13*
%TO.C,C37*%
X60750000Y-22190000D03*
X60750000Y-23210000D03*
%TD*%
M02*
