M48
; DRILL file {KiCad 8.0.3} date 2024-07-18T08:21:33+1200
; FORMAT={-:-/ absolute / inch / decimal}
; #@! TF.CreationDate,2024-07-18T08:21:33+12:00
; #@! TF.GenerationSoftware,Kicad,Pcbnew,8.0.3
; #@! TF.FileFunction,Plated,1,2,PTH
FMAT,2
INCH
; #@! TA.AperFunction,Plated,PTH,ViaDrill
T1C0.0118
; #@! TA.AperFunction,Plated,PTH,ComponentDrill
T2C0.0118
; #@! TA.AperFunction,Plated,PTH,ViaDrill
T3C0.0157
; #@! TA.AperFunction,Plated,PTH,ComponentDrill
T4C0.0197
; #@! TA.AperFunction,Plated,PTH,ComponentDrill
T5C0.0236
; #@! TA.AperFunction,Plated,PTH,ComponentDrill
T6C0.0240
; #@! TA.AperFunction,Plated,PTH,ComponentDrill
T7C0.0394
; #@! TA.AperFunction,Plated,PTH,ComponentDrill
T8C0.0472
; #@! TA.AperFunction,Plated,PTH,ComponentDrill
T9C0.1181
%
G90
G05
T1
X0.9406Y-0.9547
X0.952Y-0.6463
X0.9609Y-2.0434
X0.9679Y-2.3947
X0.9979Y-1.182
X1.0072Y-0.8591
X1.048Y-0.939
X1.0695Y-0.9791
X1.0707Y-0.8762
X1.0796Y-1.0949
X1.0831Y-1.1922
X1.0832Y-0.7468
X1.0848Y-0.9018
X1.1003Y-1.0121
X1.1154Y-1.3157
X1.1302Y-0.9296
X1.1318Y-0.9698
X1.1348Y-0.5807
X1.1401Y-1.326
X1.1572Y-1.1899
X1.1679Y-1.3492
X1.1844Y-0.9848
X1.185Y-0.9081
X1.1948Y-1.1781
X1.2254Y-0.7547
X1.2448Y-0.8437
X1.2503Y-0.6569
X1.2569Y-0.5807
X1.2647Y-0.971
X1.2855Y-1.1698
X1.3385Y-1.1952
X1.3495Y-0.7474
X1.3632Y-0.6224
X1.4099Y-1.2034
X1.4209Y-0.638
X1.4385Y-1.2186
X1.489Y-1.1441
X1.5006Y-0.6527
X1.5036Y-1.2135
X1.5569Y-0.6535
X1.582Y-0.7337
X1.6417Y-1.007
X1.6515Y-1.2855
X1.7109Y-2.3691
X1.7192Y-2.0101
X1.7361Y-3.9868
X1.7618Y-3.9862
X2.0562Y-1.8666
X2.1504Y-1.9121
X2.5546Y-1.3414
X2.9252Y-4.5354
X2.9291Y-4.7953
X2.9313Y-1.9869
X2.9326Y-1.4888
X2.9331Y-3.248
X2.9582Y-3.2544
X2.9711Y-1.9672
X2.9989Y-2.1961
X3.0118Y-3.4961
X3.0118Y-3.6142
X3.0118Y-3.7323
X3.0118Y-3.8504
X3.0118Y-3.9724
X3.0118Y-4.0906
X3.0118Y-4.2087
X3.0118Y-4.3268
X3.0118Y-4.4291
X3.0118Y-4.7953
X3.0126Y-3.3413
X3.0199Y-1.8362
X3.0315Y-3.3071
X3.0315Y-3.3858
X3.0428Y-3.2611
X3.0475Y-1.3209
X3.0492Y-1.8396
X3.061Y-1.4896
X3.0836Y-1.7165
X3.0906Y-4.565
X3.1204Y-3.4944
X3.122Y-4.5551
X3.1302Y-1.1429
X3.1339Y-4.6614
X3.1417Y-4.7953
X3.1634Y-3.8094
X3.1661Y-3.7426
X3.1732Y-3.9252
X3.1756Y-3.4839
X3.1811Y-4.6614
X3.1893Y-2.3673
X3.1913Y-2.4312
X3.1946Y-4.1563
X3.2002Y-1.0998
X3.201Y-2.4033
X3.211Y-3.3486
X3.2201Y-3.6193
X3.2224Y-3.4193
X3.2244Y-3.4673
X3.2274Y-2.206
X3.2323Y-3.3858
X3.248Y-3.5039
X3.2485Y-1.9681
X3.2512Y-3.6315
X3.2559Y-4.5551
X3.2576Y-3.7402
X3.2579Y-1.4896
X3.2583Y-3.6928
X3.2717Y-4.6628
X3.2762Y-2.2848
X3.2874Y-3.3858
X3.2915Y-1.884
X3.2945Y-2.3459
X3.2989Y-1.9511
X3.3071Y-4.7953
X3.315Y-4.6628
X3.3228Y-3.5194
X3.3291Y-4.1063
X3.3306Y-4.062
X3.3465Y-2.122
X3.3465Y-3.3858
X3.3499Y-1.874
X3.3621Y-3.6375
X3.3763Y-3.8811
X3.3836Y-1.917
X3.3976Y-3.3858
X3.3976Y-3.6378
X3.4004Y-4.169
X3.408Y-1.9336
X3.4165Y-3.8079
X3.4263Y-4.2185
X3.4449Y-3.3858
X3.4528Y-1.9961
X3.4562Y-3.8802
X3.4646Y-3.5236
X3.4687Y-2.4818
X3.4714Y-1.9297
X3.4971Y-1.944
X3.4978Y-3.6837
X3.4982Y-1.9696
X3.5039Y-3.3858
X3.5039Y-3.5236
X3.5039Y-4.9272
X3.5118Y-3.9272
X3.5376Y-1.906
X3.5394Y-3.4921
X3.5433Y-4.9803
X3.5522Y-1.9812
X3.5579Y-3.3913
X3.5591Y-4.1929
X3.563Y-4.7638
X3.5669Y-3.4331
X3.5827Y-4.9803
X3.6024Y-4.7638
X3.6142Y-4.0343
X3.622Y-4.9803
X3.6276Y-4.1705
X3.6417Y-4.7638
X3.6575Y-3.8425
X3.6575Y-4.0591
X3.6614Y-3.8976
X3.6614Y-4.0157
X3.6614Y-4.9803
X3.6618Y-3.6079
X3.6677Y-3.5678
X3.6811Y-4.7638
X3.6867Y-3.37
X3.7008Y-4.9803
X3.7205Y-4.685
X3.7205Y-4.7638
X3.725Y-3.6332
X3.7913Y-3.8543
X3.7992Y-4.0157
X3.7992Y-4.1339
X3.7992Y-4.2323
X3.7992Y-4.6063
X3.8171Y-3.8679
X3.9094Y-4.4843
X3.9134Y-4.376
X3.9567Y-3.8976
X3.9567Y-4.0157
X3.9567Y-4.2323
X3.9567Y-4.5866
X3.9567Y-4.6654
X3.9567Y-4.7677
T2
X0.7087Y-0.6693
X0.7087Y-1.4173
X0.7087Y-1.7323
X0.7087Y-2.6772
X0.7087Y-2.9921
X0.7087Y-4.9213
X0.7087Y-5.2362
X0.7087Y-7.1654
X0.7317Y-0.6136
X0.7317Y-0.725
X0.7317Y-1.3616
X0.7317Y-1.473
X0.7317Y-1.6766
X0.7317Y-1.788
X0.7317Y-2.6215
X0.7317Y-2.7328
X0.7317Y-2.9364
X0.7317Y-3.0478
X0.7317Y-4.8656
X0.7317Y-4.9769
X0.7317Y-5.1805
X0.7317Y-5.2919
X0.7317Y-7.1097
X0.7317Y-7.221
X0.7874Y-0.5906
X0.7874Y-0.748
X0.7874Y-1.3386
X0.7874Y-1.4961
X0.7874Y-1.6535
X0.7874Y-1.811
X0.7874Y-2.5984
X0.7874Y-2.7559
X0.7874Y-2.9134
X0.7874Y-3.0709
X0.7874Y-4.8425
X0.7874Y-5.0
X0.7874Y-5.1575
X0.7874Y-5.315
X0.7874Y-7.0866
X0.7874Y-7.2441
X0.8431Y-0.6136
X0.8431Y-0.725
X0.8431Y-1.3616
X0.8431Y-1.473
X0.8431Y-1.6766
X0.8431Y-1.788
X0.8431Y-2.6215
X0.8431Y-2.7328
X0.8431Y-2.9364
X0.8431Y-3.0478
X0.8431Y-4.8656
X0.8431Y-4.9769
X0.8431Y-5.1805
X0.8431Y-5.2919
X0.8431Y-7.1097
X0.8431Y-7.221
X0.8661Y-0.6693
X0.8661Y-1.4173
X0.8661Y-1.7323
X0.8661Y-2.6772
X0.8661Y-2.9921
X0.8661Y-4.9213
X0.8661Y-5.2362
X0.8661Y-7.1654
X1.7583Y-3.8839
X1.7717Y-4.9272
X3.4646Y-1.7323
X3.4646Y-2.6772
X3.4876Y-1.6766
X3.4876Y-1.788
X3.4876Y-2.6215
X3.4876Y-2.7328
X3.5433Y-1.6535
X3.5433Y-1.811
X3.5433Y-2.5984
X3.5433Y-2.7559
X3.599Y-1.6766
X3.599Y-1.788
X3.599Y-2.6215
X3.599Y-2.7328
X3.622Y-1.7323
X3.622Y-2.6772
X3.8189Y-0.6693
X3.8189Y-1.4173
X3.8189Y-2.9921
X3.8189Y-4.9213
X3.8189Y-5.2362
X3.8189Y-7.1654
X3.842Y-0.6136
X3.842Y-0.725
X3.842Y-1.3616
X3.842Y-1.473
X3.842Y-2.9364
X3.842Y-3.0478
X3.842Y-4.8656
X3.842Y-4.9769
X3.842Y-5.1805
X3.842Y-5.2919
X3.842Y-7.1097
X3.842Y-7.221
X3.8976Y-0.5906
X3.8976Y-0.748
X3.8976Y-1.3386
X3.8976Y-1.4961
X3.8976Y-2.9134
X3.8976Y-3.0709
X3.8976Y-4.8425
X3.8976Y-5.0
X3.8976Y-5.1575
X3.8976Y-5.315
X3.8976Y-7.0866
X3.8976Y-7.2441
X3.9533Y-0.6136
X3.9533Y-0.725
X3.9533Y-1.3616
X3.9533Y-1.473
X3.9533Y-2.9364
X3.9533Y-3.0478
X3.9533Y-4.8656
X3.9533Y-4.9769
X3.9533Y-5.1805
X3.9533Y-5.2919
X3.9533Y-7.1097
X3.9533Y-7.221
X3.9764Y-0.6693
X3.9764Y-1.4173
X3.9764Y-2.9921
X3.9764Y-4.9213
X3.9764Y-5.2362
X3.9764Y-7.1654
T3
X0.7083Y-0.8157
X0.7087Y-1.9291
X0.7087Y-2.0472
X0.7087Y-2.1654
X0.7087Y-2.2835
X0.7087Y-2.4016
X0.7087Y-2.5197
X0.7134Y-1.0937
X0.8071Y-0.8201
X0.8217Y-1.078
X0.8345Y-6.582
X0.8598Y-6.744
X0.8843Y-0.8409
X0.8874Y-6.5573
X0.8902Y-6.5242
X0.8943Y-6.4891
X0.8949Y-6.6641
X0.8976Y-0.7701
X0.9055Y-1.6535
X0.9055Y-2.7559
X0.9398Y-1.185
X0.9587Y-0.911
X0.9646Y-1.7913
X0.9646Y-1.9094
X0.9646Y-2.1457
X0.9646Y-2.2638
X0.9646Y-2.5
X0.9646Y-2.6181
X1.0236Y-1.6535
X1.0236Y-2.7559
X1.024Y-0.7535
X1.1114Y-0.628
X1.1331Y-1.3567
X1.1417Y-1.6535
X1.1417Y-2.7559
X1.1543Y-1.0913
X1.1654Y-1.0063
X1.2559Y-6.3833
X1.2598Y-1.6535
X1.2598Y-2.7559
X1.2769Y-6.3338
X1.2914Y-6.4253
X1.3375Y-6.2347
X1.3658Y-6.3914
X1.3689Y-1.2035
X1.378Y-1.6535
X1.378Y-2.7559
X1.3952Y-6.291
X1.4024Y-0.85
X1.4103Y-5.8227
X1.4213Y-0.8043
X1.4521Y-5.888
X1.4626Y-0.6402
X1.4646Y-6.0991
X1.4707Y-6.1989
X1.4714Y-5.6738
X1.4961Y-1.6535
X1.4961Y-2.7559
X1.502Y-1.4654
X1.5109Y-6.1566
X1.5528Y-1.0972
X1.5642Y-6.1084
X1.6102Y-6.412
X1.6142Y-1.6535
X1.6142Y-2.7559
X1.7201Y-2.2661
X1.7209Y-2.5016
X1.7225Y-5.7647
X1.7232Y-2.6217
X1.7323Y-1.6535
X1.7323Y-2.7559
X1.8497Y-5.8511
X1.8504Y-1.6535
X1.8504Y-2.7559
X1.8746Y-6.3889
X1.9685Y-1.6535
X1.9685Y-2.7559
X2.0079Y-1.9094
X2.0866Y-1.6535
X2.0866Y-2.7559
X2.1222Y-7.1183
X2.1398Y-0.6236
X2.1516Y-1.0803
X2.1714Y-5.5914
X2.1858Y-1.4346
X2.2047Y-1.6535
X2.2047Y-2.7559
X2.3228Y-1.6535
X2.3228Y-2.7559
X2.4291Y-0.6366
X2.4315Y-1.4346
X2.4409Y-1.6535
X2.4409Y-2.7559
X2.4492Y-6.7136
X2.4604Y-5.8715
X2.4689Y-6.202
X2.4744Y-6.8952
X2.5181Y-6.4617
X2.5591Y-1.6535
X2.5591Y-2.7559
X2.5663Y-6.222
X2.6136Y-6.9432
X2.6162Y-6.3718
X2.6772Y-1.6535
X2.6772Y-2.7559
X2.7165Y-2.0472
X2.7417Y-6.5934
X2.7953Y-2.7559
X2.7961Y-6.0864
X2.8223Y-5.912
X2.8549Y-5.8503
X2.876Y-6.0085
X2.9134Y-2.7559
X2.9912Y-5.7893
X3.0315Y-2.7559
X3.0512Y-4.6614
X3.0512Y-4.9252
X3.0631Y-6.0638
X3.065Y-3.8386
X3.0843Y-1.7941
X3.1303Y-1.3909
X3.1339Y-1.4961
X3.1359Y-6.6581
X3.1496Y-2.7559
X3.1681Y-1.976
X3.1819Y-4.9272
X3.2133Y-5.7761
X3.2492Y-0.6677
X3.2598Y-3.0571
X3.2677Y-2.7559
X3.3083Y-0.6083
X3.3091Y-4.9272
X3.3398Y-2.3748
X3.3518Y-5.7472
X3.3524Y-1.4894
X3.3529Y-5.9212
X3.3588Y-3.0576
X3.3819Y-2.4252
X3.3858Y-2.7559
X3.3894Y-2.2445
X3.3908Y-5.9762
X3.4252Y-4.4469
X3.4291Y-4.2559
X3.4323Y-0.7453
X3.4539Y-2.4106
X3.4701Y-2.1228
X3.489Y-6.2373
X3.4945Y-6.3295
X3.5295Y-2.3803
X3.5433Y-2.2047
X3.5489Y-6.1671
X3.563Y-3.1122
X3.5636Y-6.5827
X3.589Y-4.124
X3.5953Y-4.2358
X3.6025Y-6.4773
X3.6111Y-6.4495
X3.6427Y-6.5827
X3.6496Y-4.6634
X3.6535Y-6.5367
X3.6614Y-1.6535
X3.6614Y-1.7717
X3.6614Y-1.8504
X3.6614Y-1.9291
X3.6614Y-1.9685
X3.6614Y-2.0079
X3.6614Y-2.0472
X3.6614Y-2.1654
X3.6614Y-2.2441
X3.6614Y-2.3228
X3.6614Y-2.4016
X3.6614Y-2.4803
X3.6614Y-2.5591
X3.6614Y-2.6378
X3.6614Y-2.7165
X3.6614Y-5.9096
X3.7028Y-4.6083
X3.7201Y-4.2331
X3.7323Y-4.4508
X3.7969Y-6.5416
X3.7992Y-4.3524
X3.8016Y-6.5753
X3.811Y-4.2717
X3.8481Y-6.5606
X3.9092Y-3.2207
X3.9094Y-3.4016
X3.9685Y-3.5118
X3.9685Y-3.7087
X3.9843Y-4.2953
X3.9843Y-4.5512
X3.9882Y-4.4291
T7
X1.7209Y-1.2795
X1.8209Y-1.2795
X1.9209Y-1.2795
X2.0209Y-1.2795
X2.1209Y-1.2795
X2.2209Y-1.2795
X2.2228Y-1.7598
X2.3228Y-1.7598
X2.4228Y-1.7598
X2.5228Y-1.7598
X2.6228Y-1.7598
X2.7228Y-1.7598
X3.0063Y-2.9606
X3.1063Y-2.9606
X3.2063Y-2.9606
X3.3063Y-2.9606
X3.4063Y-2.9606
X3.5063Y-2.9606
X3.6614Y-6.8504
X3.6732Y-2.9646
X3.6732Y-3.0646
X3.6732Y-3.1646
X3.6732Y-3.2646
X3.8583Y-6.8504
X3.9272Y-0.8925
X3.9272Y-0.9925
X3.9272Y-1.0925
X3.9272Y-1.1925
T9
X0.7874Y-0.6693
X0.7874Y-1.4173
X0.7874Y-1.7323
X0.7874Y-2.6772
X0.7874Y-2.9921
X0.7874Y-4.9213
X0.7874Y-5.2362
X0.7874Y-7.1654
X3.5433Y-1.7323
X3.5433Y-2.6772
X3.8976Y-0.6693
X3.8976Y-1.4173
X3.8976Y-2.9921
X3.8976Y-4.9213
X3.8976Y-5.2362
X3.8976Y-7.1654
T4
G00X3.9154Y-5.7287
M15
G01X3.9429Y-5.7287
M16
G05
G00X3.9154Y-5.9511
M15
G01X3.9429Y-5.9511
M16
G05
T5
G00X0.8051Y-6.3916
M15
G01X0.7539Y-6.3916
M16
G05
G00X0.8051Y-6.7318
M15
G01X0.7539Y-6.7318
M16
G05
G00X0.952Y-1.4026
M15
G01X0.952Y-1.4537
M16
G05
G00X1.2921Y-1.4026
M15
G01X1.2921Y-1.4537
M16
G05
G00X2.8654Y-1.751
M15
G01X2.8654Y-1.6998
M16
G05
G00X3.2055Y-1.751
M15
G01X3.2055Y-1.6998
M16
G05
G00X3.8755Y-3.7866
M15
G01X3.9267Y-3.7866
M16
G05
G00X3.8755Y-4.1268
M15
G01X3.9267Y-4.1268
M16
G05
G00X3.8799Y-6.3916
M15
G01X3.9311Y-6.3916
M16
G05
G00X3.8799Y-6.7318
M15
G01X3.9311Y-6.7318
M16
G05
T6
G00X1.2134Y-5.5249
M15
G01X1.139Y-5.5249
M16
G05
G00X1.2134Y-6.1549
M15
G01X1.139Y-6.1549
M16
G05
T8
G00X0.9705Y-6.4018
M15
G01X0.9469Y-6.4018
M16
G05
G00X0.9705Y-6.7215
M15
G01X0.9469Y-6.7215
M16
G05
G00X0.9622Y-1.2372
M15
G01X0.9622Y-1.2608
M16
G05
G00X1.2819Y-1.2372
M15
G01X1.2819Y-1.2608
M16
G05
G00X2.8756Y-1.9163
M15
G01X2.8756Y-1.8927
M16
G05
G00X3.1953Y-1.9163
M15
G01X3.1953Y-1.8927
M16
G05
G00X3.7102Y-3.7968
M15
G01X3.7338Y-3.7968
M16
G05
G00X3.7102Y-4.1165
M15
G01X3.7338Y-4.1165
M16
G05
G00X3.7146Y-6.4018
M15
G01X3.7382Y-6.4018
M16
G05
G00X3.7146Y-6.7215
M15
G01X3.7382Y-6.7215
M16
G05
M30
