%TF.GenerationSoftware,KiCad,Pcbnew,8.0.3*%
%TF.CreationDate,2024-07-18T08:21:33+12:00*%
%TF.ProjectId,Batch 1,42617463-6820-4312-9e6b-696361645f70,rev?*%
%TF.SameCoordinates,Original*%
%TF.FileFunction,Profile,NP*%
%FSLAX46Y46*%
G04 Gerber Fmt 4.6, Leading zero omitted, Abs format (unit mm)*
G04 Created by KiCad (PCBNEW 8.0.3) date 2024-07-18 08:21:33*
%MOMM*%
%LPD*%
G01*
G04 APERTURE LIST*
%TA.AperFunction,Profile*%
%ADD10C,0.050000*%
%TD*%
G04 APERTURE END LIST*
D10*
X102800001Y-27700001D02*
G75*
G02*
X103599999Y-28500001I-1J-799999D01*
G01*
X102000000Y-76000000D02*
X102000000Y-86300000D01*
X103600002Y-186000002D02*
X106000000Y-186000002D01*
X16199999Y-54799999D02*
G75*
G02*
X15400001Y-53999999I1J799999D01*
G01*
X15400002Y-176000002D02*
X15400002Y-139200002D01*
X29200002Y-154600002D02*
G75*
G02*
X28700002Y-155100002I-500002J2D01*
G01*
X13000000Y-186000000D02*
X13000000Y-129000000D01*
X17000000Y-44000000D02*
G75*
G02*
X20000000Y-41000000I3000000J0D01*
G01*
X15400000Y-24500000D02*
X15400000Y-13000000D01*
X17000002Y-134700002D02*
X17000002Y-133000002D01*
X101000000Y-41000000D02*
G75*
G02*
X102000000Y-42000000I0J-1000000D01*
G01*
X20000002Y-130000002D02*
X99000002Y-130000002D01*
X102000002Y-133000002D02*
X102000002Y-134500002D01*
X13000000Y-129000000D02*
X13000000Y-72000000D01*
X102000000Y-17000000D02*
X102000000Y-24000000D01*
X20000000Y-128000000D02*
X99000000Y-128000000D01*
X20000002Y-185000002D02*
X99000002Y-185000002D01*
X99000000Y-14000000D02*
G75*
G02*
X102000000Y-17000000I0J-3000000D01*
G01*
X105996250Y-13000000D02*
X106000000Y-40000000D01*
X17500002Y-141600002D02*
X28700002Y-141600002D01*
X20000002Y-185000002D02*
G75*
G02*
X16999998Y-182000002I-2J3000002D01*
G01*
X17000000Y-125000000D02*
X17000000Y-114700000D01*
X17000000Y-36000000D02*
X17000000Y-29000000D01*
X28700002Y-141600002D02*
G75*
G02*
X29199998Y-142100002I-2J-499998D01*
G01*
X20000000Y-73000000D02*
X99000000Y-73000000D01*
X20000000Y-128000000D02*
G75*
G02*
X17000000Y-125000000I0J3000000D01*
G01*
X16199999Y-25299999D02*
G75*
G02*
X15400001Y-24499999I1J799999D01*
G01*
X13000000Y-72000000D02*
X13000000Y-40000000D01*
X99000002Y-130000002D02*
G75*
G02*
X101999998Y-133000002I-2J-2999998D01*
G01*
X15400000Y-28500000D02*
G75*
G02*
X16200000Y-27700000I800000J0D01*
G01*
X102000002Y-180300002D02*
X102000002Y-182000002D01*
X106000000Y-129000002D02*
X106000000Y-186000002D01*
X20000000Y-41000000D02*
X101000000Y-41000000D01*
X13000000Y-40000000D02*
X13000000Y-13000000D01*
X20000000Y-71000000D02*
X101000000Y-71000000D01*
X17000000Y-68000000D02*
X17000000Y-58500000D01*
X15400002Y-129000002D02*
X15400002Y-135200002D01*
X99000000Y-73000000D02*
G75*
G02*
X102000000Y-76000000I0J-3000000D01*
G01*
X102000000Y-70000000D02*
G75*
G02*
X101000000Y-71000000I-1000000J0D01*
G01*
X15400000Y-13000000D02*
X13000000Y-13000000D01*
X15400000Y-86800000D02*
X15500000Y-72000000D01*
X20000000Y-14000000D02*
X99000000Y-14000000D01*
X105996250Y-40000000D02*
X106000000Y-72000000D01*
X15400001Y-53999999D02*
X15400000Y-40000000D01*
X102000002Y-139500002D02*
X102000002Y-175300002D01*
X17000000Y-86300000D02*
X17000000Y-76000000D01*
X103600000Y-72000000D02*
X103607500Y-86800000D01*
X103600000Y-13000000D02*
X103600000Y-24500000D01*
X20000000Y-71000000D02*
G75*
G02*
X17000000Y-68000000I0J3000000D01*
G01*
X15400000Y-58000000D02*
G75*
G02*
X16200000Y-57200000I800000J0D01*
G01*
X17000002Y-133000002D02*
G75*
G02*
X20000002Y-130000002I2999998J2D01*
G01*
X103600002Y-139000002D02*
X103600002Y-175800002D01*
X17000002Y-155600002D02*
G75*
G02*
X17500002Y-155100002I499998J2D01*
G01*
X15392500Y-129000000D02*
X15392500Y-114200000D01*
X17500002Y-141600002D02*
G75*
G02*
X16999998Y-141100002I-2J500002D01*
G01*
X103600000Y-28500000D02*
X103600000Y-40000000D01*
X102000000Y-36000000D02*
G75*
G02*
X99000000Y-39000000I-3000000J0D01*
G01*
X103600000Y-24500000D02*
G75*
G02*
X102800000Y-25300000I-800000J0D01*
G01*
X15400002Y-186000002D02*
X13000000Y-186000000D01*
X102000000Y-29000000D02*
X102000000Y-36000000D01*
X103600002Y-186000002D02*
X103600002Y-179800002D01*
X102000000Y-91300000D02*
X102000000Y-109700000D01*
X15400000Y-40000000D02*
X15400000Y-28500000D01*
X29200002Y-142100002D02*
X29200002Y-154600002D01*
X103600002Y-129000002D02*
X103600002Y-135000002D01*
X103603750Y-13000000D02*
X105996250Y-13000000D01*
X102000002Y-182000002D02*
G75*
G02*
X99000002Y-185000002I-3000002J2D01*
G01*
X20000000Y-39000000D02*
X99000000Y-39000000D01*
X102000000Y-125000000D02*
G75*
G02*
X99000000Y-128000000I-3000000J0D01*
G01*
X20000000Y-39000000D02*
G75*
G02*
X17000000Y-36000000I0J3000000D01*
G01*
X102000000Y-114700000D02*
X102000000Y-125000000D01*
X103600000Y-90800000D02*
X103600000Y-110200000D01*
X102000000Y-58500000D02*
X102000000Y-70000000D01*
X103600000Y-114200000D02*
X103600000Y-129000000D01*
X17000002Y-175500002D02*
X17000002Y-155600002D01*
X17000000Y-53500000D02*
X17000000Y-44000000D01*
X17000000Y-24000000D02*
X17000000Y-17000000D01*
X17000000Y-17000000D02*
G75*
G02*
X20000000Y-14000000I3000000J0D01*
G01*
X106000000Y-72000000D02*
X106000000Y-129000000D01*
X103600000Y-40000000D02*
X103600000Y-54000000D01*
X17000000Y-76000000D02*
G75*
G02*
X20000000Y-73000000I3000000J0D01*
G01*
X17000000Y-109700000D02*
X17000000Y-91300000D01*
X17000002Y-141100002D02*
X17000002Y-139700002D01*
X103600000Y-54000000D02*
G75*
G02*
X102800000Y-54800000I-800000J0D01*
G01*
X15400000Y-110200000D02*
X15400000Y-90800000D01*
X103599999Y-58000001D02*
X103600000Y-72000000D01*
X28700002Y-155100002D02*
X17500002Y-155100002D01*
X102000000Y-42000000D02*
X102000000Y-53500000D01*
X17000002Y-182000002D02*
X17000002Y-180500002D01*
X102800001Y-57200001D02*
G75*
G02*
X103599999Y-58000001I-1J-799999D01*
G01*
X15500000Y-72000000D02*
X15400000Y-58000000D01*
X15400002Y-186000002D02*
X15400002Y-180000002D01*
%TO.C,*%
X16200002Y-136000002D02*
G75*
G02*
X15400002Y-135200002I1J800001D01*
G01*
%TO.C,MB1*%
X17000000Y-24500000D02*
X17000000Y-24000000D01*
X17000000Y-28500000D02*
X17000000Y-29000000D01*
X16200000Y-27700000D02*
G75*
G02*
X17000000Y-28500000I-1J-800001D01*
G01*
X17000000Y-24500000D02*
G75*
G02*
X16200000Y-25300000I-800000J0D01*
G01*
%TO.C,*%
X16200000Y-87600000D02*
G75*
G02*
X15400000Y-86800000I1J800001D01*
G01*
%TO.C,MB4*%
X102000000Y-54000000D02*
X102000000Y-53500000D01*
X102000000Y-58000000D02*
X102000000Y-58500000D01*
X102000000Y-58000000D02*
G75*
G02*
X102800000Y-57200000I800000J0D01*
G01*
X102800000Y-54800000D02*
G75*
G02*
X102000000Y-54000000I1J800001D01*
G01*
%TO.C,REF\u002A\u002A*%
X102000000Y-86800000D02*
X102000000Y-86300000D01*
X102000000Y-90800000D02*
X102000000Y-91300000D01*
X102000000Y-90800000D02*
G75*
G02*
X102800000Y-90000000I800000J0D01*
G01*
X102800000Y-87600000D02*
G75*
G02*
X102000000Y-86800000I1J800001D01*
G01*
%TO.C,*%
X103600000Y-110200000D02*
G75*
G02*
X102800000Y-111000000I-800001J1D01*
G01*
X103607500Y-86800000D02*
G75*
G02*
X102807500Y-87600000I-800001J1D01*
G01*
X15400002Y-139200002D02*
G75*
G02*
X16200002Y-138400002I800001J-1D01*
G01*
X102800000Y-113400000D02*
G75*
G02*
X103600000Y-114200000I-1J-800001D01*
G01*
X102800002Y-179000002D02*
G75*
G02*
X103600002Y-179800002I-1J-800001D01*
G01*
%TO.C,REF\u002A\u002A*%
X17000002Y-176000002D02*
X17000002Y-175500002D01*
X17000002Y-180000002D02*
X17000002Y-180500002D01*
X16200002Y-179200002D02*
G75*
G02*
X17000002Y-180000002I-1J-800001D01*
G01*
X17000002Y-176000002D02*
G75*
G02*
X16200002Y-176800002I-800000J0D01*
G01*
%TO.C,*%
X102800000Y-90000000D02*
G75*
G02*
X103600000Y-90800000I-1J-800001D01*
G01*
%TO.C,REF\u002A\u002A*%
X102000002Y-135000002D02*
X102000002Y-134500002D01*
X102000002Y-139000002D02*
X102000002Y-139500002D01*
X102000002Y-139000002D02*
G75*
G02*
X102800002Y-138200002I800000J0D01*
G01*
X102800002Y-135800002D02*
G75*
G02*
X102000002Y-135000002I1J800001D01*
G01*
X17000000Y-86800000D02*
X17000000Y-86300000D01*
X17000000Y-90800000D02*
X17000000Y-91300000D01*
X16200000Y-90000000D02*
G75*
G02*
X17000000Y-90800000I-1J-800001D01*
G01*
X17000000Y-86800000D02*
G75*
G02*
X16200000Y-87600000I-800000J0D01*
G01*
%TO.C,*%
X15392500Y-114200000D02*
G75*
G02*
X16192500Y-113400000I800001J-1D01*
G01*
%TO.C,REF\u002A\u002A*%
X102000002Y-175800002D02*
X102000002Y-175300002D01*
X102000002Y-179800002D02*
X102000002Y-180300002D01*
X102000002Y-179800002D02*
G75*
G02*
X102800002Y-179000002I800000J0D01*
G01*
X102800002Y-176600002D02*
G75*
G02*
X102000002Y-175800002I1J800001D01*
G01*
%TO.C,*%
X15400000Y-90800000D02*
G75*
G02*
X16200000Y-90000000I800001J-1D01*
G01*
%TO.C,REF\u002A\u002A*%
X17000002Y-135200002D02*
X17000002Y-134700002D01*
X17000002Y-139200002D02*
X17000002Y-139700002D01*
X16200002Y-138400002D02*
G75*
G02*
X17000002Y-139200002I-1J-800001D01*
G01*
X17000002Y-135200002D02*
G75*
G02*
X16200002Y-136000002I-800000J0D01*
G01*
%TO.C,*%
X102800002Y-138200002D02*
G75*
G02*
X103600002Y-139000002I-1J-800001D01*
G01*
X15400002Y-180000002D02*
G75*
G02*
X16200002Y-179200002I800001J-1D01*
G01*
X103600002Y-175800002D02*
G75*
G02*
X102800002Y-176600002I-800001J1D01*
G01*
%TO.C,MB2*%
X102000000Y-24500000D02*
X102000000Y-24000000D01*
X102000000Y-28500000D02*
X102000000Y-29000000D01*
X102000000Y-28500000D02*
G75*
G02*
X102800000Y-27700000I800000J0D01*
G01*
X102800000Y-25300000D02*
G75*
G02*
X102000000Y-24500000I1J800001D01*
G01*
%TO.C,*%
X103600002Y-135000002D02*
G75*
G02*
X102800002Y-135800002I-800001J1D01*
G01*
%TO.C,REF\u002A\u002A*%
X17000000Y-110200000D02*
X17000000Y-109700000D01*
X17000000Y-114200000D02*
X17000000Y-114700000D01*
X16200000Y-113400000D02*
G75*
G02*
X17000000Y-114200000I-1J-800001D01*
G01*
X17000000Y-110200000D02*
G75*
G02*
X16200000Y-111000000I-800000J0D01*
G01*
%TO.C,MB3*%
X17000000Y-54000000D02*
X17000000Y-53500000D01*
X17000000Y-58000000D02*
X17000000Y-58500000D01*
X16200000Y-57200000D02*
G75*
G02*
X17000000Y-58000000I-1J-800001D01*
G01*
X17000000Y-54000000D02*
G75*
G02*
X16200000Y-54800000I-800000J0D01*
G01*
%TO.C,*%
X16200002Y-176800002D02*
G75*
G02*
X15400002Y-176000002I1J800001D01*
G01*
%TO.C,REF\u002A\u002A*%
X102000000Y-110200000D02*
X102000000Y-109700000D01*
X102000000Y-114200000D02*
X102000000Y-114700000D01*
X102000000Y-114200000D02*
G75*
G02*
X102800000Y-113400000I800000J0D01*
G01*
X102800000Y-111000000D02*
G75*
G02*
X102000000Y-110200000I1J800001D01*
G01*
%TO.C,*%
X16200000Y-111000000D02*
G75*
G02*
X15400000Y-110200000I1J800001D01*
G01*
%TD*%
M02*
