M48
; DRILL file {KiCad 8.0.3} date 2024-07-18T08:21:33+1200
; FORMAT={-:-/ absolute / inch / decimal}
; #@! TF.CreationDate,2024-07-18T08:21:33+12:00
; #@! TF.GenerationSoftware,Kicad,Pcbnew,8.0.3
; #@! TF.FileFunction,NonPlated,1,2,NPTH
FMAT,2
INCH
; #@! TA.AperFunction,NonPlated,NPTH,ComponentDrill
T1C0.0157
; #@! TA.AperFunction,NonPlated,NPTH,ComponentDrill
T2C0.0217
; #@! TA.AperFunction,NonPlated,NPTH,ComponentDrill
T3C0.0236
; #@! TA.AperFunction,NonPlated,NPTH,ComponentDrill
T4C0.0454
; #@! TA.AperFunction,NonPlated,NPTH,ComponentDrill
T5C0.0512
; #@! TA.AperFunction,NonPlated,NPTH,ComponentDrill
T6C0.0591
%
G90
G05
T1
X0.6693Y-0.9724
X0.6693Y-0.9961
X0.6693Y-1.0197
X0.6693Y-1.0433
X0.6693Y-1.0669
X0.6693Y-1.0906
X0.6693Y-1.1142
X0.6693Y-2.1339
X0.6693Y-2.1575
X0.6693Y-2.1811
X0.6693Y-2.2047
X0.6693Y-2.2283
X0.6693Y-2.252
X0.6693Y-2.2756
X0.6693Y-3.4252
X0.6693Y-3.4488
X0.6693Y-3.4724
X0.6693Y-3.4961
X0.6693Y-3.5197
X0.6693Y-3.5433
X0.6693Y-3.5669
X0.6693Y-4.3465
X0.6693Y-4.3701
X0.6693Y-4.3937
X0.6693Y-4.4173
X0.6693Y-4.4409
X0.6693Y-4.4646
X0.6693Y-4.4882
X0.6693Y-5.3307
X0.6693Y-5.3543
X0.6693Y-5.378
X0.6693Y-5.4016
X0.6693Y-5.4252
X0.6693Y-5.4488
X0.6693Y-5.4724
X0.6693Y-6.937
X0.6693Y-6.9606
X0.6693Y-6.9843
X0.6693Y-7.0079
X0.6693Y-7.0315
X0.6693Y-7.0551
X0.6693Y-7.0787
X4.0157Y-0.9724
X4.0157Y-0.9961
X4.0157Y-1.0197
X4.0157Y-1.0433
X4.0157Y-1.0669
X4.0157Y-1.0906
X4.0157Y-1.1142
X4.0157Y-2.1339
X4.0157Y-2.1575
X4.0157Y-2.1811
X4.0157Y-2.2047
X4.0157Y-2.2283
X4.0157Y-2.252
X4.0157Y-2.2756
X4.0157Y-3.4252
X4.0157Y-3.4488
X4.0157Y-3.4724
X4.0157Y-3.4961
X4.0157Y-3.5197
X4.0157Y-3.5433
X4.0157Y-3.5669
X4.0157Y-4.3465
X4.0157Y-4.3701
X4.0157Y-4.3937
X4.0157Y-4.4173
X4.0157Y-4.4409
X4.0157Y-4.4646
X4.0157Y-4.4882
X4.0157Y-5.3228
X4.0157Y-5.3465
X4.0157Y-5.3701
X4.0157Y-5.3937
X4.0157Y-5.4173
X4.0157Y-5.4409
X4.0157Y-5.4646
X4.0157Y-6.9291
X4.0157Y-6.9528
X4.0157Y-6.9764
X4.0157Y-7.0
X4.0157Y-7.0236
X4.0157Y-7.0472
X4.0157Y-7.0709
T2
X0.9055Y-6.4278
X0.9055Y-6.6955
X0.9882Y-1.3022
X1.2559Y-1.3022
X2.9016Y-1.8514
X3.1693Y-1.8514
X3.7751Y-3.8228
X3.7751Y-4.0906
X3.7795Y-6.4278
X3.7795Y-6.6955
T3
X3.8366Y-5.7612
X3.8366Y-5.9186
T4
X0.5906Y-1.0394
X0.5906Y-7.0039
X3.8976Y-6.9685
X4.0945Y-7.0
X4.1063Y-1.0433
T5
X3.2526Y-6.6253
T6
X3.0439Y-6.8341
M30
