%TF.GenerationSoftware,KiCad,Pcbnew,8.0.3*%
%TF.CreationDate,2024-07-18T08:21:33+12:00*%
%TF.ProjectId,Batch 1,42617463-6820-4312-9e6b-696361645f70,rev?*%
%TF.SameCoordinates,Original*%
%TF.FileFunction,Paste,Top*%
%TF.FilePolarity,Positive*%
%FSLAX46Y46*%
G04 Gerber Fmt 4.6, Leading zero omitted, Abs format (unit mm)*
G04 Created by KiCad (PCBNEW 8.0.3) date 2024-07-18 08:21:33*
%MOMM*%
%LPD*%
G01*
G04 APERTURE LIST*
G04 Aperture macros list*
%AMRoundRect*
0 Rectangle with rounded corners*
0 $1 Rounding radius*
0 $2 $3 $4 $5 $6 $7 $8 $9 X,Y pos of 4 corners*
0 Add a 4 corners polygon primitive as box body*
4,1,4,$2,$3,$4,$5,$6,$7,$8,$9,$2,$3,0*
0 Add four circle primitives for the rounded corners*
1,1,$1+$1,$2,$3*
1,1,$1+$1,$4,$5*
1,1,$1+$1,$6,$7*
1,1,$1+$1,$8,$9*
0 Add four rect primitives between the rounded corners*
20,1,$1+$1,$2,$3,$4,$5,0*
20,1,$1+$1,$4,$5,$6,$7,0*
20,1,$1+$1,$6,$7,$8,$9,0*
20,1,$1+$1,$8,$9,$2,$3,0*%
%AMFreePoly0*
4,1,20,1.085355,0.835355,1.100000,0.800000,1.100000,0.350000,1.085355,0.314645,1.078673,0.309038,0.600000,-0.026033,0.600000,-0.379290,0.835355,-0.614645,0.850000,-0.650000,0.850000,-0.800000,0.835355,-0.835355,0.800000,-0.850000,-1.050000,-0.850000,-1.085355,-0.835355,-1.100000,-0.800000,-1.100000,0.800000,-1.085355,0.835355,-1.050000,0.850000,1.050000,0.850000,1.085355,0.835355,
1.085355,0.835355,$1*%
%AMFreePoly1*
4,1,20,1.085355,0.835355,1.100000,0.800000,1.100000,-0.800000,1.085355,-0.835355,1.050000,-0.850000,-0.800000,-0.850000,-0.835355,-0.835355,-0.850000,-0.800000,-0.850000,-0.650000,-0.835355,-0.614645,-0.600000,-0.379290,-0.600000,-0.026033,-1.078673,0.309038,-1.099239,0.341311,-1.100000,0.350000,-1.100000,0.800000,-1.085355,0.835355,-1.050000,0.850000,1.050000,0.850000,1.085355,0.835355,
1.085355,0.835355,$1*%
G04 Aperture macros list end*
%ADD10RoundRect,0.270000X-0.405000X-0.655000X0.405000X-0.655000X0.405000X0.655000X-0.405000X0.655000X0*%
%ADD11RoundRect,0.050000X0.400000X0.325006X-0.400000X0.325006X-0.400000X-0.325006X0.400000X-0.325006X0*%
%ADD12RoundRect,0.160000X-0.160000X-0.210000X0.160000X-0.210000X0.160000X0.210000X-0.160000X0.210000X0*%
%ADD13RoundRect,0.160000X-0.210000X0.160000X-0.210000X-0.160000X0.210000X-0.160000X0.210000X0.160000X0*%
%ADD14RoundRect,0.050000X0.300000X-0.535001X0.300000X0.535001X-0.300000X0.535001X-0.300000X-0.535001X0*%
%ADD15RoundRect,0.243750X-0.243750X-0.281250X0.243750X-0.281250X0.243750X0.281250X-0.243750X0.281250X0*%
%ADD16RoundRect,0.160000X0.160000X0.210000X-0.160000X0.210000X-0.160000X-0.210000X0.160000X-0.210000X0*%
%ADD17RoundRect,0.137500X0.212500X0.137500X-0.212500X0.137500X-0.212500X-0.137500X0.212500X-0.137500X0*%
%ADD18RoundRect,0.160000X0.210000X-0.160000X0.210000X0.160000X-0.210000X0.160000X-0.210000X-0.160000X0*%
%ADD19RoundRect,0.050000X-0.400000X-0.325006X0.400000X-0.325006X0.400000X0.325006X-0.400000X0.325006X0*%
%ADD20RoundRect,0.274390X-0.475610X0.288110X-0.475610X-0.288110X0.475610X-0.288110X0.475610X0.288110X0*%
%ADD21RoundRect,0.225000X-0.325000X-0.225000X0.325000X-0.225000X0.325000X0.225000X-0.325000X0.225000X0*%
%ADD22RoundRect,0.274390X0.475610X-0.288110X0.475610X0.288110X-0.475610X0.288110X-0.475610X-0.288110X0*%
%ADD23RoundRect,0.050000X0.535001X0.300000X-0.535001X0.300000X-0.535001X-0.300000X0.535001X-0.300000X0*%
%ADD24RoundRect,0.270000X0.655000X-0.405000X0.655000X0.405000X-0.655000X0.405000X-0.655000X-0.405000X0*%
%ADD25RoundRect,0.050000X0.500000X0.600000X-0.500000X0.600000X-0.500000X-0.600000X0.500000X-0.600000X0*%
%ADD26RoundRect,0.225000X0.225000X0.300000X-0.225000X0.300000X-0.225000X-0.300000X0.225000X-0.300000X0*%
%ADD27RoundRect,0.165789X0.384211X-0.359211X0.384211X0.359211X-0.384211X0.359211X-0.384211X-0.359211X0*%
%ADD28RoundRect,0.050000X0.150000X0.475006X-0.150000X0.475006X-0.150000X-0.475006X0.150000X-0.475006X0*%
%ADD29RoundRect,0.165789X-0.384211X0.359211X-0.384211X-0.359211X0.384211X-0.359211X0.384211X0.359211X0*%
%ADD30RoundRect,0.165789X-0.359211X-0.384211X0.359211X-0.384211X0.359211X0.384211X-0.359211X0.384211X0*%
%ADD31RoundRect,0.225000X0.300000X-0.225000X0.300000X0.225000X-0.300000X0.225000X-0.300000X-0.225000X0*%
%ADD32RoundRect,0.225000X0.325000X0.225000X-0.325000X0.225000X-0.325000X-0.225000X0.325000X-0.225000X0*%
%ADD33RoundRect,0.050000X0.475006X-0.150000X0.475006X0.150000X-0.475006X0.150000X-0.475006X-0.150000X0*%
%ADD34RoundRect,0.050000X-0.950000X-1.200000X0.950000X-1.200000X0.950000X1.200000X-0.950000X1.200000X0*%
%ADD35RoundRect,0.050000X0.282829X0.270002X-0.282829X0.270002X-0.282829X-0.270002X0.282829X-0.270002X0*%
%ADD36RoundRect,0.270000X0.405000X0.655000X-0.405000X0.655000X-0.405000X-0.655000X0.405000X-0.655000X0*%
%ADD37RoundRect,0.272222X-0.652778X0.340278X-0.652778X-0.340278X0.652778X-0.340278X0.652778X0.340278X0*%
%ADD38RoundRect,0.175000X0.425000X0.175000X-0.425000X0.175000X-0.425000X-0.175000X0.425000X-0.175000X0*%
%ADD39RoundRect,0.274390X0.288110X0.475610X-0.288110X0.475610X-0.288110X-0.475610X0.288110X-0.475610X0*%
%ADD40RoundRect,0.050000X-0.300000X0.535001X-0.300000X-0.535001X0.300000X-0.535001X0.300000X0.535001X0*%
%ADD41RoundRect,0.050000X0.675000X-0.200000X0.675000X0.200000X-0.675000X0.200000X-0.675000X-0.200000X0*%
%ADD42FreePoly0,90.000000*%
%ADD43RoundRect,0.050000X0.950000X-0.950000X0.950000X0.950000X-0.950000X0.950000X-0.950000X-0.950000X0*%
%ADD44FreePoly1,90.000000*%
%ADD45RoundRect,0.225000X-0.225000X0.325000X-0.225000X-0.325000X0.225000X-0.325000X0.225000X0.325000X0*%
%ADD46RoundRect,0.050000X0.325006X-0.400000X0.325006X0.400000X-0.325006X0.400000X-0.325006X-0.400000X0*%
%ADD47RoundRect,0.160001X0.172828X0.160001X-0.172828X0.160001X-0.172828X-0.160001X0.172828X-0.160001X0*%
%ADD48RoundRect,0.165789X0.359211X0.384211X-0.359211X0.384211X-0.359211X-0.384211X0.359211X-0.384211X0*%
%ADD49RoundRect,0.175000X-0.175000X0.425000X-0.175000X-0.425000X0.175000X-0.425000X0.175000X0.425000X0*%
%ADD50RoundRect,0.272222X0.652778X-0.340278X0.652778X0.340278X-0.652778X0.340278X-0.652778X-0.340278X0*%
%ADD51RoundRect,0.050000X0.700000X0.600000X-0.700000X0.600000X-0.700000X-0.600000X0.700000X-0.600000X0*%
%ADD52RoundRect,0.050000X-0.500000X-0.600000X0.500000X-0.600000X0.500000X0.600000X-0.500000X0.600000X0*%
%ADD53RoundRect,0.050000X-0.475006X0.150000X-0.475006X-0.150000X0.475006X-0.150000X0.475006X0.150000X0*%
%ADD54RoundRect,0.165000X0.385000X0.685000X-0.385000X0.685000X-0.385000X-0.685000X0.385000X-0.685000X0*%
%ADD55O,0.370003X1.600000*%
%ADD56O,1.600000X0.370003*%
%ADD57RoundRect,0.050000X-0.535001X-0.300000X0.535001X-0.300000X0.535001X0.300000X-0.535001X0.300000X0*%
%ADD58RoundRect,0.050000X0.325006X0.140005X-0.325006X0.140005X-0.325006X-0.140005X0.325006X-0.140005X0*%
%ADD59RoundRect,0.050000X0.140005X0.325006X-0.140005X0.325006X-0.140005X-0.325006X0.140005X-0.325006X0*%
%ADD60RoundRect,0.050000X1.900000X1.900000X-1.900000X1.900000X-1.900000X-1.900000X1.900000X-1.900000X0*%
%ADD61RoundRect,0.050000X1.200000X-0.950000X1.200000X0.950000X-1.200000X0.950000X-1.200000X-0.950000X0*%
%ADD62RoundRect,0.050000X0.550000X-1.400000X0.550000X1.400000X-0.550000X1.400000X-0.550000X-1.400000X0*%
%ADD63RoundRect,0.225000X-0.300000X0.225000X-0.300000X-0.225000X0.300000X-0.225000X0.300000X0.225000X0*%
%ADD64RoundRect,0.212503X0.212503X-0.337497X0.212503X0.337497X-0.212503X0.337497X-0.212503X-0.337497X0*%
%ADD65RoundRect,0.165000X-0.685000X0.385000X-0.685000X-0.385000X0.685000X-0.385000X0.685000X0.385000X0*%
%ADD66RoundRect,0.175000X0.175000X-0.425000X0.175000X0.425000X-0.175000X0.425000X-0.175000X-0.425000X0*%
%ADD67RoundRect,0.725000X0.636396X1.661701X-1.661701X-0.636396X-0.636396X-1.661701X1.661701X0.636396X0*%
%ADD68RoundRect,0.050000X-0.150000X-0.475006X0.150000X-0.475006X0.150000X0.475006X-0.150000X0.475006X0*%
%ADD69RoundRect,0.050000X-0.800000X0.350000X-0.800000X-0.350000X0.800000X-0.350000X0.800000X0.350000X0*%
%ADD70RoundRect,0.050000X-0.750000X0.800000X-0.750000X-0.800000X0.750000X-0.800000X0.750000X0.800000X0*%
G04 APERTURE END LIST*
D10*
%TO.C,F2*%
X70600000Y-53400000D03*
X73400000Y-53400000D03*
%TD*%
D11*
%TO.C,RGB70*%
X75049936Y-101550013D03*
X76550064Y-101550013D03*
X75049936Y-102450013D03*
X76550064Y-102450013D03*
%TD*%
D12*
%TO.C,R37*%
X83290000Y-45300000D03*
X84310000Y-45300000D03*
%TD*%
%TO.C,C67*%
X83850000Y-89950000D03*
X84870000Y-89950000D03*
%TD*%
D13*
%TO.C,C54*%
X82600000Y-86690000D03*
X82600000Y-87710000D03*
%TD*%
D14*
%TO.C,U8*%
X84599962Y-115964923D03*
X82700038Y-115964923D03*
X83650000Y-118435077D03*
%TD*%
D12*
%TO.C,R2*%
X32590000Y-18750000D03*
X33610000Y-18750000D03*
%TD*%
D15*
%TO.C,D36*%
X58905602Y-170718602D03*
X60480602Y-170718602D03*
%TD*%
D16*
%TO.C,C5*%
X30510000Y-17500000D03*
X29490000Y-17500000D03*
%TD*%
D17*
%TO.C,D28*%
X72410002Y-147150002D03*
X70310002Y-147150002D03*
%TD*%
D18*
%TO.C,R1*%
X35250000Y-29260000D03*
X35250000Y-28240000D03*
%TD*%
D19*
%TO.C,RGB44*%
X43750064Y-56449987D03*
X42249936Y-56449987D03*
X43750064Y-55549987D03*
X42249936Y-55549987D03*
%TD*%
D12*
%TO.C,R59*%
X95790000Y-84200000D03*
X96810000Y-84200000D03*
%TD*%
D20*
%TO.C,C37*%
X63870000Y-53257500D03*
X63870000Y-55082500D03*
%TD*%
D16*
%TO.C,C59*%
X95610000Y-85300000D03*
X94590000Y-85300000D03*
%TD*%
D13*
%TO.C,R5*%
X36000000Y-31490000D03*
X36000000Y-32510000D03*
%TD*%
D16*
%TO.C,R74*%
X91610000Y-101300000D03*
X90590000Y-101300000D03*
%TD*%
D21*
%TO.C,SW15*%
X75500000Y-63650000D03*
X81500000Y-63650000D03*
X75500000Y-67350000D03*
X81500000Y-67350000D03*
%TD*%
D16*
%TO.C,C57*%
X80910000Y-84900000D03*
X79890000Y-84900000D03*
%TD*%
D22*
%TO.C,FB3*%
X88300000Y-122372500D03*
X88300000Y-120547500D03*
%TD*%
D16*
%TO.C,R78*%
X83610000Y-114700000D03*
X82590000Y-114700000D03*
%TD*%
D19*
%TO.C,RGB16*%
X31750064Y-47449987D03*
X30249936Y-47449987D03*
X31750064Y-46549987D03*
X30249936Y-46549987D03*
%TD*%
D16*
%TO.C,R73*%
X91610000Y-100200000D03*
X90590000Y-100200000D03*
%TD*%
D11*
%TO.C,RGB73*%
X75049936Y-92550013D03*
X76550064Y-92550013D03*
X75049936Y-93450013D03*
X76550064Y-93450013D03*
%TD*%
D18*
%TO.C,C38*%
X87300000Y-48910000D03*
X87300000Y-47890000D03*
%TD*%
D13*
%TO.C,C35*%
X45000000Y-53490000D03*
X45000000Y-54510000D03*
%TD*%
D18*
%TO.C,C71*%
X80180000Y-98500000D03*
X80180000Y-97480000D03*
%TD*%
D16*
%TO.C,R18*%
X41010000Y-30000000D03*
X39990000Y-30000000D03*
%TD*%
D23*
%TO.C,LDO1*%
X55529823Y-35500038D03*
X55529823Y-37399962D03*
X57999977Y-36450000D03*
%TD*%
D18*
%TO.C,C10*%
X34750000Y-32510000D03*
X34750000Y-31490000D03*
%TD*%
D19*
%TO.C,RGB53*%
X37750064Y-65449987D03*
X36249936Y-65449987D03*
X37750064Y-64549987D03*
X36249936Y-64549987D03*
%TD*%
D15*
%TO.C,D14*%
X58405602Y-148218602D03*
X59980602Y-148218602D03*
%TD*%
D19*
%TO.C,RGB41*%
X40750064Y-50449987D03*
X39249936Y-50449987D03*
X40750064Y-49549987D03*
X39249936Y-49549987D03*
%TD*%
%TO.C,RGB32*%
X37750064Y-53449987D03*
X36249936Y-53449987D03*
X37750064Y-52549987D03*
X36249936Y-52549987D03*
%TD*%
D16*
%TO.C,C88*%
X89510000Y-116200000D03*
X88490000Y-116200000D03*
%TD*%
%TO.C,R30*%
X53910000Y-44650000D03*
X52890000Y-44650000D03*
%TD*%
D19*
%TO.C,RGB60*%
X37750064Y-68449987D03*
X36249936Y-68449987D03*
X37750064Y-67549987D03*
X36249936Y-67549987D03*
%TD*%
%TO.C,RGB28*%
X34750064Y-59449987D03*
X33249936Y-59449987D03*
X34750064Y-58549987D03*
X33249936Y-58549987D03*
%TD*%
D16*
%TO.C,R97*%
X65713102Y-173218602D03*
X64693102Y-173218602D03*
%TD*%
%TO.C,L2*%
X92110000Y-55100000D03*
X91090000Y-55100000D03*
%TD*%
D24*
%TO.C,F4*%
X91590000Y-125060000D03*
X91590000Y-122260000D03*
%TD*%
D25*
%TO.C,U7*%
X82549911Y-102000000D03*
X79450089Y-102000000D03*
%TD*%
D11*
%TO.C,RGB38*%
X46379936Y-54330013D03*
X47880064Y-54330013D03*
X46379936Y-55230013D03*
X47880064Y-55230013D03*
%TD*%
D19*
%TO.C,RGB20*%
X28750064Y-53449987D03*
X27249936Y-53449987D03*
X28750064Y-52549987D03*
X27249936Y-52549987D03*
%TD*%
D16*
%TO.C,R65*%
X82010000Y-103800000D03*
X80990000Y-103800000D03*
%TD*%
D19*
%TO.C,RGB18*%
X34750064Y-56449987D03*
X33249936Y-56449987D03*
X34750064Y-55549987D03*
X33249936Y-55549987D03*
%TD*%
D26*
%TO.C,C83*%
X89825000Y-111120000D03*
X88175000Y-111120000D03*
%TD*%
D27*
%TO.C,LED3*%
X52560000Y-28910000D03*
X52560000Y-30510000D03*
%TD*%
D28*
%TO.C,J4*%
X79724941Y-49000911D03*
X79225068Y-49000911D03*
X78724941Y-49000911D03*
X78225068Y-49000911D03*
X77725195Y-49000911D03*
X77225068Y-49000911D03*
X76725195Y-49000911D03*
X76225068Y-49000911D03*
X75725195Y-49000911D03*
X75225068Y-49000911D03*
X74725195Y-49000911D03*
X74225068Y-49000911D03*
X74475005Y-47601114D03*
X74975132Y-47601114D03*
X75475005Y-47601114D03*
X75975132Y-47601114D03*
X76475005Y-47601114D03*
X76975132Y-47601114D03*
X77475259Y-47601114D03*
X77975132Y-47601114D03*
X78475005Y-47601114D03*
X78975132Y-47601114D03*
X79475005Y-47601114D03*
X79975132Y-47601114D03*
%TD*%
D18*
%TO.C,R44*%
X84100000Y-64310000D03*
X84100000Y-63290000D03*
%TD*%
D16*
%TO.C,R76*%
X80210000Y-114700000D03*
X79190000Y-114700000D03*
%TD*%
D15*
%TO.C,D4*%
X57405602Y-164718602D03*
X58980602Y-164718602D03*
%TD*%
D29*
%TO.C,LED17*%
X89060000Y-79264000D03*
X89060000Y-77664000D03*
%TD*%
D18*
%TO.C,R3*%
X37000000Y-29260000D03*
X37000000Y-28240000D03*
%TD*%
D19*
%TO.C,RGB13*%
X37750064Y-50449987D03*
X36249936Y-50449987D03*
X37750064Y-49549987D03*
X36249936Y-49549987D03*
%TD*%
D13*
%TO.C,C16*%
X23300000Y-28290000D03*
X23300000Y-29310000D03*
%TD*%
D19*
%TO.C,RGB12*%
X34750064Y-53449987D03*
X33249936Y-53449987D03*
X34750064Y-52549987D03*
X33249936Y-52549987D03*
%TD*%
D15*
%TO.C,D35*%
X57405602Y-167218602D03*
X58980602Y-167218602D03*
%TD*%
D19*
%TO.C,RGB11*%
X25750064Y-62449987D03*
X24249936Y-62449987D03*
X25750064Y-61549987D03*
X24249936Y-61549987D03*
%TD*%
D16*
%TO.C,C64*%
X84010000Y-104800000D03*
X82990000Y-104800000D03*
%TD*%
%TO.C,R70*%
X93000000Y-89800000D03*
X91980000Y-89800000D03*
%TD*%
D30*
%TO.C,LED19*%
X91284000Y-91104000D03*
X89684000Y-91104000D03*
%TD*%
D18*
%TO.C,R11*%
X33250000Y-29260000D03*
X33250000Y-28240000D03*
%TD*%
D13*
%TO.C,C60*%
X77800000Y-92490000D03*
X77800000Y-93510000D03*
%TD*%
D11*
%TO.C,RGB68*%
X75049936Y-95550013D03*
X76550064Y-95550013D03*
X75049936Y-96450013D03*
X76550064Y-96450013D03*
%TD*%
D21*
%TO.C,SW13*%
X45500000Y-63650000D03*
X51500000Y-63650000D03*
X45500000Y-67350000D03*
X51500000Y-67350000D03*
%TD*%
D18*
%TO.C,R50*%
X78900000Y-87510000D03*
X78900000Y-86490000D03*
%TD*%
D19*
%TO.C,RGB5*%
X31750064Y-53449987D03*
X30249936Y-53449987D03*
X31750064Y-52549987D03*
X30249936Y-52549987D03*
%TD*%
D16*
%TO.C,C62*%
X82930000Y-89950000D03*
X81910000Y-89950000D03*
%TD*%
D19*
%TO.C,RGB61*%
X43750064Y-68449987D03*
X42249936Y-68449987D03*
X43750064Y-67549987D03*
X42249936Y-67549987D03*
%TD*%
D13*
%TO.C,C52*%
X90100000Y-56290000D03*
X90100000Y-57310000D03*
%TD*%
%TO.C,C13*%
X21400000Y-21790000D03*
X21400000Y-22810000D03*
%TD*%
D21*
%TO.C,SW5*%
X58750000Y-15150000D03*
X64750000Y-15150000D03*
X58750000Y-18850000D03*
X64750000Y-18850000D03*
%TD*%
D13*
%TO.C,R90*%
X64703102Y-161708602D03*
X64703102Y-162728602D03*
%TD*%
D16*
%TO.C,C7*%
X33610000Y-17500000D03*
X32590000Y-17500000D03*
%TD*%
D31*
%TO.C,C25*%
X62500000Y-37275000D03*
X62500000Y-35625000D03*
%TD*%
D16*
%TO.C,C39*%
X82410000Y-54400000D03*
X81390000Y-54400000D03*
%TD*%
D19*
%TO.C,RGB26*%
X25750064Y-53449987D03*
X24249936Y-53449987D03*
X25750064Y-52549987D03*
X24249936Y-52549987D03*
%TD*%
D21*
%TO.C,SW11*%
X53000000Y-63650000D03*
X59000000Y-63650000D03*
X53000000Y-67350000D03*
X59000000Y-67350000D03*
%TD*%
D19*
%TO.C,RGB49*%
X40750064Y-62449987D03*
X39249936Y-62449987D03*
X40750064Y-61549987D03*
X39249936Y-61549987D03*
%TD*%
%TO.C,RGB34*%
X28750064Y-44449987D03*
X27249936Y-44449987D03*
X28750064Y-43549987D03*
X27249936Y-43549987D03*
%TD*%
D11*
%TO.C,RGB67*%
X75049936Y-89550013D03*
X76550064Y-89550013D03*
X75049936Y-90450013D03*
X76550064Y-90450013D03*
%TD*%
D19*
%TO.C,RGB50*%
X43750064Y-59449987D03*
X42249936Y-59449987D03*
X43750064Y-58549987D03*
X42249936Y-58549987D03*
%TD*%
%TO.C,RGB2*%
X25750064Y-59449987D03*
X24249936Y-59449987D03*
X25750064Y-58549987D03*
X24249936Y-58549987D03*
%TD*%
D21*
%TO.C,SW9*%
X88750000Y-15150000D03*
X94750000Y-15150000D03*
X88750000Y-18850000D03*
X94750000Y-18850000D03*
%TD*%
D19*
%TO.C,RGB4*%
X28750064Y-59449987D03*
X27249936Y-59449987D03*
X28750064Y-58549987D03*
X27249936Y-58549987D03*
%TD*%
D13*
%TO.C,L3*%
X91000000Y-50290000D03*
X91000000Y-51310000D03*
%TD*%
D18*
%TO.C,R21*%
X71900000Y-37200000D03*
X71900000Y-36180000D03*
%TD*%
D32*
%TO.C,SW18*%
X100800000Y-114250000D03*
X94800000Y-114250000D03*
X100800000Y-110550000D03*
X94800000Y-110550000D03*
%TD*%
D16*
%TO.C,R81*%
X97610000Y-115700000D03*
X96590000Y-115700000D03*
%TD*%
%TO.C,R94*%
X65723102Y-170718602D03*
X64703102Y-170718602D03*
%TD*%
D11*
%TO.C,RGB74*%
X75049936Y-110550013D03*
X76550064Y-110550013D03*
X75049936Y-111450013D03*
X76550064Y-111450013D03*
%TD*%
D16*
%TO.C,R27*%
X53910000Y-47150000D03*
X52890000Y-47150000D03*
%TD*%
%TO.C,R14*%
X41010000Y-32500000D03*
X39990000Y-32500000D03*
%TD*%
D13*
%TO.C,C75*%
X77800000Y-104490000D03*
X77800000Y-105510000D03*
%TD*%
D33*
%TO.C,J12*%
X94023991Y-169291543D03*
X94023991Y-168791670D03*
X94023991Y-168291543D03*
X94023991Y-167791670D03*
X94023991Y-167291797D03*
X94023991Y-166791670D03*
X94023991Y-166291797D03*
X94023991Y-165791670D03*
X94023991Y-165291797D03*
X94023991Y-164791670D03*
X94023991Y-164291797D03*
X94023991Y-163791670D03*
X95423788Y-164041607D03*
X95423788Y-164541734D03*
X95423788Y-165041607D03*
X95423788Y-165541734D03*
X95423788Y-166041607D03*
X95423788Y-166541734D03*
X95423788Y-167041861D03*
X95423788Y-167541734D03*
X95423788Y-168041607D03*
X95423788Y-168541734D03*
X95423788Y-169041607D03*
X95423788Y-169541734D03*
%TD*%
%TO.C,J8*%
X93911989Y-103124841D03*
X93911989Y-102624968D03*
X93911989Y-102124841D03*
X93911989Y-101624968D03*
X93911989Y-101125095D03*
X93911989Y-100624968D03*
X93911989Y-100125095D03*
X93911989Y-99624968D03*
X93911989Y-99125095D03*
X93911989Y-98624968D03*
X93911989Y-98125095D03*
X93911989Y-97624968D03*
X95311786Y-97874905D03*
X95311786Y-98375032D03*
X95311786Y-98874905D03*
X95311786Y-99375032D03*
X95311786Y-99874905D03*
X95311786Y-100375032D03*
X95311786Y-100875159D03*
X95311786Y-101375032D03*
X95311786Y-101874905D03*
X95311786Y-102375032D03*
X95311786Y-102874905D03*
X95311786Y-103375032D03*
%TD*%
D22*
%TO.C,C73*%
X79533100Y-91545600D03*
X79533100Y-89720600D03*
%TD*%
D11*
%TO.C,RGB72*%
X75049936Y-107550013D03*
X76550064Y-107550013D03*
X75049936Y-108450013D03*
X76550064Y-108450013D03*
%TD*%
D17*
%TO.C,D17*%
X81000002Y-153050002D03*
X78900002Y-153050002D03*
%TD*%
D11*
%TO.C,RGB71*%
X75049936Y-98550013D03*
X76550064Y-98550013D03*
X75049936Y-99450013D03*
X76550064Y-99450013D03*
%TD*%
D18*
%TO.C,R19*%
X76500000Y-37200000D03*
X76500000Y-36180000D03*
%TD*%
D16*
%TO.C,R84*%
X65713102Y-150718602D03*
X64693102Y-150718602D03*
%TD*%
%TO.C,C40*%
X83000000Y-50600000D03*
X81980000Y-50600000D03*
%TD*%
D29*
%TO.C,LED20*%
X86000000Y-115600000D03*
X86000000Y-114000000D03*
%TD*%
D21*
%TO.C,SW6*%
X66250000Y-15150000D03*
X72250000Y-15150000D03*
X66250000Y-18850000D03*
X72250000Y-18850000D03*
%TD*%
D16*
%TO.C,C15*%
X27610000Y-16900000D03*
X26590000Y-16900000D03*
%TD*%
D15*
%TO.C,D5*%
X57405601Y-159718602D03*
X58980603Y-159718602D03*
%TD*%
D34*
%TO.C,U5*%
X84199962Y-87699924D03*
X88300038Y-87699924D03*
%TD*%
D13*
%TO.C,R82*%
X65703102Y-161708602D03*
X65703102Y-162728602D03*
%TD*%
D21*
%TO.C,SW8*%
X73750000Y-15150000D03*
X79750000Y-15150000D03*
X73750000Y-18850000D03*
X79750000Y-18850000D03*
%TD*%
D13*
%TO.C,C27*%
X81500000Y-36190000D03*
X81500000Y-37210000D03*
%TD*%
D21*
%TO.C,SW3*%
X51250000Y-15150000D03*
X57250000Y-15150000D03*
X51250000Y-18850000D03*
X57250000Y-18850000D03*
%TD*%
D13*
%TO.C,C41*%
X65390000Y-53730000D03*
X65390000Y-54750000D03*
%TD*%
D18*
%TO.C,C4*%
X31599900Y-29259900D03*
X31599900Y-28239900D03*
%TD*%
D16*
%TO.C,C3*%
X33610000Y-16250000D03*
X32590000Y-16250000D03*
%TD*%
D27*
%TO.C,LED11*%
X67900000Y-46700000D03*
X67900000Y-48300000D03*
%TD*%
D19*
%TO.C,RGB63*%
X40750064Y-65449987D03*
X39249936Y-65449987D03*
X40750064Y-64549987D03*
X39249936Y-64549987D03*
%TD*%
D35*
%TO.C,R79*%
X80132817Y-119650000D03*
X79267183Y-119650000D03*
%TD*%
D15*
%TO.C,D7*%
X58405602Y-145718602D03*
X59980602Y-145718602D03*
%TD*%
D36*
%TO.C,F1*%
X45650000Y-35750000D03*
X42850000Y-35750000D03*
%TD*%
D18*
%TO.C,R51*%
X87400000Y-64310000D03*
X87400000Y-63290000D03*
%TD*%
D15*
%TO.C,D33*%
X58905602Y-179218602D03*
X60480602Y-179218602D03*
%TD*%
D11*
%TO.C,RGB65*%
X75049936Y-86550013D03*
X76550064Y-86550013D03*
X75049936Y-87450013D03*
X76550064Y-87450013D03*
%TD*%
D37*
%TO.C,C29*%
X20000000Y-49075000D03*
X20000000Y-52000000D03*
%TD*%
D12*
%TO.C,R4*%
X29490000Y-15000000D03*
X30510000Y-15000000D03*
%TD*%
D18*
%TO.C,R49*%
X86300000Y-64310000D03*
X86300000Y-63290000D03*
%TD*%
D13*
%TO.C,C26*%
X82750000Y-36190000D03*
X82750000Y-37210000D03*
%TD*%
D38*
%TO.C,ESD2*%
X75749987Y-52950038D03*
X75749987Y-53900000D03*
X75749987Y-54849962D03*
X78450013Y-54849962D03*
X78450013Y-53900000D03*
X78450013Y-52950038D03*
%TD*%
D39*
%TO.C,C87*%
X89912500Y-118720000D03*
X88087500Y-118720000D03*
%TD*%
D16*
%TO.C,C69*%
X88800000Y-102120000D03*
X87780000Y-102120000D03*
%TD*%
D21*
%TO.C,SW12*%
X60500000Y-63650000D03*
X66500000Y-63650000D03*
X60500000Y-67350000D03*
X66500000Y-67350000D03*
%TD*%
D18*
%TO.C,R15*%
X47100000Y-36610000D03*
X47100000Y-35590000D03*
%TD*%
D16*
%TO.C,R88*%
X65703102Y-148218602D03*
X64683102Y-148218602D03*
%TD*%
D19*
%TO.C,RGB29*%
X34750064Y-62449987D03*
X33249936Y-62449987D03*
X34750064Y-61549987D03*
X33249936Y-61549987D03*
%TD*%
D40*
%TO.C,LDO3*%
X88050038Y-115035077D03*
X89949962Y-115035077D03*
X89000000Y-112564923D03*
%TD*%
D11*
%TO.C,RGB69*%
X75049936Y-104550013D03*
X76550064Y-104550013D03*
X75049936Y-105450013D03*
X76550064Y-105450013D03*
%TD*%
D12*
%TO.C,C1*%
X23989900Y-19149900D03*
X25009900Y-19149900D03*
%TD*%
D29*
%TO.C,LED14*%
X81440000Y-79264000D03*
X81440000Y-77664000D03*
%TD*%
D13*
%TO.C,R39*%
X76100000Y-50390000D03*
X76100000Y-51410000D03*
%TD*%
D41*
%TO.C,J10*%
X97125002Y-149633302D03*
X97125002Y-148983302D03*
X97125002Y-148333302D03*
X97125002Y-147683302D03*
X97125002Y-147033302D03*
D42*
X97250002Y-151433302D03*
D43*
X99800002Y-149533302D03*
X99800002Y-147133302D03*
D44*
X97250002Y-145233302D03*
%TD*%
D16*
%TO.C,R71*%
X90994000Y-89834000D03*
X89974000Y-89834000D03*
%TD*%
D15*
%TO.C,D10*%
X58405602Y-143218602D03*
X59980602Y-143218602D03*
%TD*%
D19*
%TO.C,RGB33*%
X31750064Y-59449987D03*
X30249936Y-59449987D03*
X31750064Y-58549987D03*
X30249936Y-58549987D03*
%TD*%
D20*
%TO.C,C19*%
X19600000Y-28587500D03*
X19600000Y-30412500D03*
%TD*%
D13*
%TO.C,R85*%
X65703102Y-164208602D03*
X65703102Y-165228602D03*
%TD*%
D45*
%TO.C,SW17*%
X83950000Y-106000000D03*
X83950000Y-112000000D03*
X80250000Y-106000000D03*
X80250000Y-112000000D03*
%TD*%
D29*
%TO.C,LED12*%
X65390000Y-48290000D03*
X65390000Y-46690000D03*
%TD*%
D19*
%TO.C,RGB7*%
X25750064Y-44449987D03*
X24249936Y-44449987D03*
X25750064Y-43549987D03*
X24249936Y-43549987D03*
%TD*%
%TO.C,RGB45*%
X43750064Y-50449987D03*
X42249936Y-50449987D03*
X43750064Y-49549987D03*
X42249936Y-49549987D03*
%TD*%
D13*
%TO.C,C2*%
X33619900Y-21749900D03*
X33619900Y-22769900D03*
%TD*%
D29*
%TO.C,LED10*%
X62850000Y-48290000D03*
X62850000Y-46690000D03*
%TD*%
D18*
%TO.C,R26*%
X66250000Y-37210000D03*
X66250000Y-36190000D03*
%TD*%
D19*
%TO.C,RGB31*%
X28750064Y-47449987D03*
X27249936Y-47449987D03*
X28750064Y-46549987D03*
X27249936Y-46549987D03*
%TD*%
D13*
%TO.C,R75*%
X92800000Y-106490000D03*
X92800000Y-107510000D03*
%TD*%
D19*
%TO.C,RGB25*%
X37750064Y-47449987D03*
X36249936Y-47449987D03*
X37750064Y-46549987D03*
X36249936Y-46549987D03*
%TD*%
%TO.C,RGB10*%
X37750064Y-44449987D03*
X36249936Y-44449987D03*
X37750064Y-43549987D03*
X36249936Y-43549987D03*
%TD*%
D46*
%TO.C,RGB66*%
X80849987Y-86149936D03*
X80849987Y-87650064D03*
X79949987Y-86149936D03*
X79949987Y-87650064D03*
%TD*%
D18*
%TO.C,R31*%
X46000000Y-52000000D03*
X46000000Y-50980000D03*
%TD*%
D16*
%TO.C,C86*%
X95610000Y-115700000D03*
X94590000Y-115700000D03*
%TD*%
D12*
%TO.C,R67*%
X82990000Y-103800000D03*
X84010000Y-103800000D03*
%TD*%
D18*
%TO.C,R33*%
X52700000Y-49710000D03*
X52700000Y-48690000D03*
%TD*%
D17*
%TO.C,D22*%
X76705002Y-147150002D03*
X74605002Y-147150002D03*
%TD*%
D13*
%TO.C,R98*%
X65703102Y-166708602D03*
X65703102Y-167728602D03*
%TD*%
D47*
%TO.C,R62*%
X45000017Y-100000000D03*
X44134383Y-100000000D03*
%TD*%
D16*
%TO.C,R17*%
X41010000Y-28750000D03*
X39990000Y-28750000D03*
%TD*%
%TO.C,C74*%
X82210000Y-91000000D03*
X81190000Y-91000000D03*
%TD*%
D27*
%TO.C,LED2*%
X55100000Y-28910000D03*
X55100000Y-30510000D03*
%TD*%
D13*
%TO.C,R40*%
X77200000Y-50390000D03*
X77200000Y-51410000D03*
%TD*%
D17*
%TO.C,D25*%
X81000002Y-144200002D03*
X78900002Y-144200002D03*
%TD*%
D16*
%TO.C,C66*%
X88800000Y-101120000D03*
X87780000Y-101120000D03*
%TD*%
D17*
%TO.C,D29*%
X72410002Y-150100002D03*
X70310002Y-150100002D03*
%TD*%
D48*
%TO.C,LED13*%
X71100000Y-55200000D03*
X72700000Y-55200000D03*
%TD*%
D12*
%TO.C,R41*%
X83290000Y-46600000D03*
X84310000Y-46600000D03*
%TD*%
D13*
%TO.C,C48*%
X90100000Y-53980000D03*
X90100000Y-55000000D03*
%TD*%
D27*
%TO.C,LED18*%
X91500000Y-112900000D03*
X91500000Y-114500000D03*
%TD*%
D16*
%TO.C,C42*%
X83010000Y-52600000D03*
X81990000Y-52600000D03*
%TD*%
%TO.C,C89*%
X89510000Y-117230000D03*
X88490000Y-117230000D03*
%TD*%
D18*
%TO.C,R45*%
X85200000Y-64310000D03*
X85200000Y-63290000D03*
%TD*%
D16*
%TO.C,R91*%
X65713102Y-143218602D03*
X64693102Y-143218602D03*
%TD*%
D18*
%TO.C,R32*%
X53900000Y-49710000D03*
X53900000Y-48690000D03*
%TD*%
D19*
%TO.C,RGB3*%
X34750064Y-50449987D03*
X33249936Y-50449987D03*
X34750064Y-49549987D03*
X33249936Y-49549987D03*
%TD*%
D12*
%TO.C,R42*%
X68990000Y-55200000D03*
X70010000Y-55200000D03*
%TD*%
D13*
%TO.C,C18*%
X32619900Y-21749900D03*
X32619900Y-22769900D03*
%TD*%
%TO.C,R12*%
X21400000Y-23739900D03*
X21400000Y-24759900D03*
%TD*%
D27*
%TO.C,LED5*%
X50020000Y-28910000D03*
X50020000Y-30510000D03*
%TD*%
D17*
%TO.C,D31*%
X76705002Y-153050002D03*
X74605002Y-153050002D03*
%TD*%
D12*
%TO.C,R61*%
X95790000Y-82168000D03*
X96810000Y-82168000D03*
%TD*%
D49*
%TO.C,ESD1*%
X33300038Y-27100013D03*
X34250000Y-27100013D03*
X35199962Y-27100013D03*
X35199962Y-24399987D03*
X34250000Y-24399987D03*
X33300038Y-24399987D03*
%TD*%
D17*
%TO.C,D27*%
X81000002Y-156000002D03*
X78900002Y-156000002D03*
%TD*%
D13*
%TO.C,R64*%
X80000000Y-103790000D03*
X80000000Y-104810000D03*
%TD*%
D21*
%TO.C,SW4*%
X36250000Y-15150000D03*
X42250000Y-15150000D03*
X36250000Y-18850000D03*
X42250000Y-18850000D03*
%TD*%
D13*
%TO.C,R66*%
X84600000Y-113790000D03*
X84600000Y-114810000D03*
%TD*%
D15*
%TO.C,D11*%
X58405602Y-153218602D03*
X59980602Y-153218602D03*
%TD*%
D12*
%TO.C,C11*%
X23979900Y-17129900D03*
X24999900Y-17129900D03*
%TD*%
D19*
%TO.C,RGB48*%
X40750064Y-47449987D03*
X39249936Y-47449987D03*
X40750064Y-46549987D03*
X39249936Y-46549987D03*
%TD*%
D18*
%TO.C,C43*%
X84500000Y-59610000D03*
X84500000Y-58590000D03*
%TD*%
D27*
%TO.C,LED4*%
X47480000Y-28910000D03*
X47480000Y-30510000D03*
%TD*%
D16*
%TO.C,R28*%
X50050000Y-55230000D03*
X49030000Y-55230000D03*
%TD*%
D15*
%TO.C,D12*%
X58405602Y-150718602D03*
X59980602Y-150718602D03*
%TD*%
D13*
%TO.C,C65*%
X77800000Y-110490000D03*
X77800000Y-111510000D03*
%TD*%
D29*
%TO.C,LED16*%
X86520000Y-79264000D03*
X86520000Y-77664000D03*
%TD*%
D18*
%TO.C,R25*%
X80250000Y-37210000D03*
X80250000Y-36190000D03*
%TD*%
D12*
%TO.C,R8*%
X26590000Y-18250000D03*
X27610000Y-18250000D03*
%TD*%
D16*
%TO.C,R95*%
X65703102Y-176718602D03*
X64683102Y-176718602D03*
%TD*%
D19*
%TO.C,RGB47*%
X43750064Y-44449987D03*
X42249936Y-44449987D03*
X43750064Y-43549987D03*
X42249936Y-43549987D03*
%TD*%
D21*
%TO.C,SW14*%
X68000000Y-63650000D03*
X74000000Y-63650000D03*
X68000000Y-67350000D03*
X74000000Y-67350000D03*
%TD*%
D12*
%TO.C,R7*%
X29490000Y-18750000D03*
X30510000Y-18750000D03*
%TD*%
D50*
%TO.C,C30*%
X20000000Y-63000000D03*
X20000000Y-60075000D03*
%TD*%
D15*
%TO.C,D34*%
X58905602Y-173218602D03*
X60480602Y-173218602D03*
%TD*%
D19*
%TO.C,RGB21*%
X34750064Y-47449987D03*
X33249936Y-47449987D03*
X34750064Y-46549987D03*
X33249936Y-46549987D03*
%TD*%
D20*
%TO.C,FB1*%
X49900000Y-35587500D03*
X49900000Y-37412500D03*
%TD*%
D16*
%TO.C,R69*%
X86810000Y-89950000D03*
X85790000Y-89950000D03*
%TD*%
%TO.C,R89*%
X65713102Y-153218602D03*
X64693102Y-153218602D03*
%TD*%
D19*
%TO.C,RGB14*%
X34750064Y-44449987D03*
X33249936Y-44449987D03*
X34750064Y-43549987D03*
X33249936Y-43549987D03*
%TD*%
D14*
%TO.C,U9*%
X81149962Y-115964923D03*
X79250038Y-115964923D03*
X80200000Y-118435077D03*
%TD*%
D19*
%TO.C,RGB19*%
X31750064Y-50449987D03*
X30249936Y-50449987D03*
X31750064Y-49549987D03*
X30249936Y-49549987D03*
%TD*%
%TO.C,RGB40*%
X40750064Y-59449987D03*
X39249936Y-59449987D03*
X40750064Y-58549987D03*
X39249936Y-58549987D03*
%TD*%
D51*
%TO.C,X1*%
X88173176Y-58251668D03*
X85973024Y-58251668D03*
X85973024Y-60001732D03*
X88173176Y-60001732D03*
%TD*%
D13*
%TO.C,C6*%
X21100000Y-28290000D03*
X21100000Y-29310000D03*
%TD*%
D18*
%TO.C,C34*%
X49000000Y-50020000D03*
X49000000Y-49000000D03*
%TD*%
D29*
%TO.C,LED15*%
X83980000Y-79264000D03*
X83980000Y-77664000D03*
%TD*%
D17*
%TO.C,D30*%
X72410002Y-144200002D03*
X70310002Y-144200002D03*
%TD*%
D12*
%TO.C,R43*%
X83280000Y-42800000D03*
X84300000Y-42800000D03*
%TD*%
D36*
%TO.C,F5*%
X89900002Y-179200002D03*
X87100002Y-179200002D03*
%TD*%
D13*
%TO.C,C79*%
X93420000Y-92480000D03*
X93420000Y-93500000D03*
%TD*%
%TO.C,C68*%
X77800000Y-107490000D03*
X77800000Y-108510000D03*
%TD*%
D52*
%TO.C,U3*%
X47450089Y-52000000D03*
X50549911Y-52000000D03*
%TD*%
D17*
%TO.C,D23*%
X76705002Y-158950002D03*
X74605002Y-158950002D03*
%TD*%
D19*
%TO.C,RGB58*%
X25750064Y-68449987D03*
X24249936Y-68449987D03*
X25750064Y-67549987D03*
X24249936Y-67549987D03*
%TD*%
D13*
%TO.C,R87*%
X64703102Y-164208602D03*
X64703102Y-165228602D03*
%TD*%
D19*
%TO.C,RGB46*%
X40750064Y-44449987D03*
X39249936Y-44449987D03*
X40750064Y-43549987D03*
X39249936Y-43549987D03*
%TD*%
%TO.C,RGB30*%
X25750064Y-50449987D03*
X24249936Y-50449987D03*
X25750064Y-49549987D03*
X24249936Y-49549987D03*
%TD*%
D16*
%TO.C,L1*%
X92110000Y-54100000D03*
X91090000Y-54100000D03*
%TD*%
D12*
%TO.C,R60*%
X95790000Y-83184000D03*
X96810000Y-83184000D03*
%TD*%
D22*
%TO.C,C23*%
X51900000Y-37412500D03*
X51900000Y-35587500D03*
%TD*%
D16*
%TO.C,R55*%
X79410000Y-82260000D03*
X78390000Y-82260000D03*
%TD*%
D19*
%TO.C,RGB27*%
X31750064Y-44449987D03*
X30249936Y-44449987D03*
X31750064Y-43549987D03*
X30249936Y-43549987D03*
%TD*%
D16*
%TO.C,R13*%
X41010000Y-31250000D03*
X39990000Y-31250000D03*
%TD*%
D53*
%TO.C,J11*%
X24976013Y-164041861D03*
X24976013Y-164541734D03*
X24976013Y-165041861D03*
X24976013Y-165541734D03*
X24976013Y-166041607D03*
X24976013Y-166541734D03*
X24976013Y-167041607D03*
X24976013Y-167541734D03*
X24976013Y-168041607D03*
X24976013Y-168541734D03*
X24976013Y-169041607D03*
X24976013Y-169541734D03*
X23576216Y-169291797D03*
X23576216Y-168791670D03*
X23576216Y-168291797D03*
X23576216Y-167791670D03*
X23576216Y-167291797D03*
X23576216Y-166791670D03*
X23576216Y-166291543D03*
X23576216Y-165791670D03*
X23576216Y-165291797D03*
X23576216Y-164791670D03*
X23576216Y-164291797D03*
X23576216Y-163791670D03*
%TD*%
D54*
%TO.C,D1*%
X55129975Y-51430000D03*
X58530025Y-51430000D03*
%TD*%
D18*
%TO.C,R80*%
X91500000Y-119610000D03*
X91500000Y-118590000D03*
%TD*%
D55*
%TO.C,U6*%
X88550064Y-91250064D03*
X88049936Y-91250064D03*
X87550064Y-91250064D03*
X87049936Y-91250064D03*
X86550064Y-91250064D03*
X86049936Y-91250064D03*
X85550064Y-91250064D03*
X85049936Y-91250064D03*
X84550064Y-91250064D03*
X84049936Y-91250064D03*
X83550064Y-91250064D03*
X83049936Y-91250064D03*
D56*
X81550064Y-92749936D03*
X81550064Y-93250064D03*
X81550064Y-93749936D03*
X81550064Y-94250064D03*
X81550064Y-94749936D03*
X81550064Y-95250064D03*
X81550064Y-95749936D03*
X81550064Y-96250064D03*
X81550064Y-96749936D03*
X81550064Y-97250064D03*
X81550064Y-97749936D03*
X81550064Y-98250064D03*
D55*
X83049936Y-99749936D03*
X83550064Y-99749936D03*
X84049936Y-99749936D03*
X84550064Y-99749936D03*
X85049936Y-99749936D03*
X85550064Y-99749936D03*
X86049936Y-99749936D03*
X86550064Y-99749936D03*
X87049936Y-99749936D03*
X87550064Y-99749936D03*
X88049936Y-99749936D03*
X88550064Y-99749936D03*
D56*
X90049936Y-98250064D03*
X90049936Y-97749936D03*
X90049936Y-97250064D03*
X90049936Y-96749936D03*
X90049936Y-96250064D03*
X90049936Y-95749936D03*
X90049936Y-95250064D03*
X90049936Y-94749936D03*
X90049936Y-94250064D03*
X90049936Y-93749936D03*
X90049936Y-93250064D03*
X90049936Y-92749936D03*
%TD*%
D57*
%TO.C,LDO2*%
X60969977Y-55059962D03*
X60969977Y-53160038D03*
X58499823Y-54110000D03*
%TD*%
D13*
%TO.C,R34*%
X50000000Y-49000000D03*
X50000000Y-50020000D03*
%TD*%
D58*
%TO.C,U4*%
X89027621Y-54072564D03*
X89027621Y-53572436D03*
X89027621Y-53072564D03*
X89027621Y-52572436D03*
X89027621Y-52072564D03*
X89027621Y-51572436D03*
X89027621Y-51072564D03*
X89027621Y-50572436D03*
D59*
X88300164Y-49844979D03*
X87800036Y-49844979D03*
X87300164Y-49844979D03*
X86800036Y-49844979D03*
X86300164Y-49844979D03*
X85800036Y-49844979D03*
X85300164Y-49844979D03*
X84800036Y-49844979D03*
D58*
X84072579Y-50572436D03*
X84072579Y-51072564D03*
X84072579Y-51572436D03*
X84072579Y-52072564D03*
X84072579Y-52572436D03*
X84072579Y-53072564D03*
X84072579Y-53572436D03*
X84072579Y-54072564D03*
D59*
X84800036Y-54800021D03*
X85300164Y-54800021D03*
X85800036Y-54800021D03*
X86300164Y-54800021D03*
X86800036Y-54800021D03*
X87300164Y-54800021D03*
X87800036Y-54800021D03*
X88300164Y-54800021D03*
D60*
X86550100Y-52322500D03*
%TD*%
D19*
%TO.C,RGB55*%
X34750064Y-65449987D03*
X33249936Y-65449987D03*
X34750064Y-64549987D03*
X33249936Y-64549987D03*
%TD*%
D21*
%TO.C,SW1*%
X35000000Y-33900000D03*
X41000000Y-33900000D03*
X35000000Y-37600000D03*
X41000000Y-37600000D03*
%TD*%
D19*
%TO.C,RGB24*%
X37750064Y-62449987D03*
X36249936Y-62449987D03*
X37750064Y-61549987D03*
X36249936Y-61549987D03*
%TD*%
D16*
%TO.C,R93*%
X65713102Y-179218602D03*
X64693102Y-179218602D03*
%TD*%
D13*
%TO.C,C9*%
X22200000Y-28290000D03*
X22200000Y-29310000D03*
%TD*%
D17*
%TO.C,D26*%
X72410002Y-158950002D03*
X70310002Y-158950002D03*
%TD*%
D12*
%TO.C,R68*%
X85790000Y-102100000D03*
X86810000Y-102100000D03*
%TD*%
D16*
%TO.C,R57*%
X97610000Y-85300000D03*
X96590000Y-85300000D03*
%TD*%
D19*
%TO.C,RGB17*%
X25750064Y-47449987D03*
X24249936Y-47449987D03*
X25750064Y-46549987D03*
X24249936Y-46549987D03*
%TD*%
D27*
%TO.C,LED7*%
X64000000Y-35700000D03*
X64000000Y-37300000D03*
%TD*%
D16*
%TO.C,C46*%
X92010000Y-48300000D03*
X90990000Y-48300000D03*
%TD*%
D29*
%TO.C,LED9*%
X57770000Y-48290000D03*
X57770000Y-46690000D03*
%TD*%
D19*
%TO.C,RGB42*%
X43750064Y-47449987D03*
X42249936Y-47449987D03*
X43750064Y-46549987D03*
X42249936Y-46549987D03*
%TD*%
D13*
%TO.C,R92*%
X64703102Y-159208602D03*
X64703102Y-160228602D03*
%TD*%
%TO.C,R6*%
X37250000Y-31490000D03*
X37250000Y-32510000D03*
%TD*%
D61*
%TO.C,U1*%
X19099924Y-26349938D03*
X19099924Y-22249862D03*
%TD*%
D19*
%TO.C,RGB37*%
X43750064Y-53449987D03*
X42249936Y-53449987D03*
X43750064Y-52549987D03*
X42249936Y-52549987D03*
%TD*%
D12*
%TO.C,C14*%
X23989900Y-18139900D03*
X25009900Y-18139900D03*
%TD*%
D17*
%TO.C,D24*%
X76705002Y-144200002D03*
X74605002Y-144200002D03*
%TD*%
D13*
%TO.C,C31*%
X62280000Y-53600000D03*
X62280000Y-54620000D03*
%TD*%
D16*
%TO.C,C44*%
X82410000Y-55400000D03*
X81390000Y-55400000D03*
%TD*%
D18*
%TO.C,C8*%
X30599900Y-29259900D03*
X30599900Y-28239900D03*
%TD*%
D16*
%TO.C,R56*%
X75940000Y-85430000D03*
X74920000Y-85430000D03*
%TD*%
D18*
%TO.C,R22*%
X84000000Y-37210000D03*
X84000000Y-36190000D03*
%TD*%
D30*
%TO.C,LED1*%
X25800000Y-15000000D03*
X24200000Y-15000000D03*
%TD*%
D62*
%TO.C,C85*%
X81900000Y-125099949D03*
X81900000Y-120900051D03*
%TD*%
D12*
%TO.C,R46*%
X75790000Y-82260000D03*
X76810000Y-82260000D03*
%TD*%
D15*
%TO.C,D32*%
X60405602Y-167218602D03*
X61980602Y-167218602D03*
%TD*%
D13*
%TO.C,C80*%
X91400000Y-92490000D03*
X91400000Y-93510000D03*
%TD*%
D17*
%TO.C,D18*%
X81000002Y-150100002D03*
X78900002Y-150100002D03*
%TD*%
D18*
%TO.C,R48*%
X83020000Y-64320000D03*
X83020000Y-63300000D03*
%TD*%
D13*
%TO.C,C28*%
X77750000Y-36190000D03*
X77750000Y-37210000D03*
%TD*%
D17*
%TO.C,D20*%
X72410002Y-153050002D03*
X70310002Y-153050002D03*
%TD*%
D16*
%TO.C,R9*%
X28010000Y-15000000D03*
X26990000Y-15000000D03*
%TD*%
D19*
%TO.C,RGB56*%
X28750064Y-68449987D03*
X27249936Y-68449987D03*
X28750064Y-67549987D03*
X27249936Y-67549987D03*
%TD*%
%TO.C,RGB8*%
X28750064Y-50449987D03*
X27249936Y-50449987D03*
X28750064Y-49549987D03*
X27249936Y-49549987D03*
%TD*%
D13*
%TO.C,C76*%
X77800000Y-113490000D03*
X77800000Y-114510000D03*
%TD*%
D12*
%TO.C,R58*%
X95790000Y-81152000D03*
X96810000Y-81152000D03*
%TD*%
D11*
%TO.C,RGB75*%
X75049936Y-113550013D03*
X76550064Y-113550013D03*
X75049936Y-114450013D03*
X76550064Y-114450013D03*
%TD*%
D13*
%TO.C,R86*%
X65703102Y-159208602D03*
X65703102Y-160228602D03*
%TD*%
D18*
%TO.C,C17*%
X21400000Y-26710000D03*
X21400000Y-25690000D03*
%TD*%
D13*
%TO.C,C77*%
X77800000Y-101490000D03*
X77800000Y-102510000D03*
%TD*%
D63*
%TO.C,C90*%
X70500002Y-162175002D03*
X70500002Y-163825002D03*
%TD*%
D19*
%TO.C,RGB1*%
X25750064Y-56449987D03*
X24249936Y-56449987D03*
X25750064Y-55549987D03*
X24249936Y-55549987D03*
%TD*%
D18*
%TO.C,C78*%
X79180000Y-98500000D03*
X79180000Y-97480000D03*
%TD*%
D63*
%TO.C,C36*%
X56950000Y-53385000D03*
X56950000Y-55035000D03*
%TD*%
D12*
%TO.C,R52*%
X75790000Y-77660000D03*
X76810000Y-77660000D03*
%TD*%
D16*
%TO.C,R99*%
X90680002Y-181380002D03*
X89660002Y-181380002D03*
%TD*%
D30*
%TO.C,LED22*%
X88100002Y-181400002D03*
X86500002Y-181400002D03*
%TD*%
D13*
%TO.C,C61*%
X77800000Y-98490000D03*
X77800000Y-99510000D03*
%TD*%
D16*
%TO.C,R35*%
X53910000Y-43400000D03*
X52890000Y-43400000D03*
%TD*%
D13*
%TO.C,C58*%
X89850000Y-86690000D03*
X89850000Y-87710000D03*
%TD*%
D29*
%TO.C,LED8*%
X60310000Y-48290000D03*
X60310000Y-46690000D03*
%TD*%
D27*
%TO.C,LED6*%
X48300000Y-35700000D03*
X48300000Y-37300000D03*
%TD*%
D16*
%TO.C,R54*%
X78810000Y-85200000D03*
X77790000Y-85200000D03*
%TD*%
%TO.C,R83*%
X65713102Y-145718602D03*
X64693102Y-145718602D03*
%TD*%
%TO.C,C49*%
X92010000Y-49300000D03*
X90990000Y-49300000D03*
%TD*%
D18*
%TO.C,R24*%
X70850000Y-37210000D03*
X70850000Y-36190000D03*
%TD*%
D19*
%TO.C,RGB57*%
X25750064Y-65449987D03*
X24249936Y-65449987D03*
X25750064Y-64549987D03*
X24249936Y-64549987D03*
%TD*%
%TO.C,RGB6*%
X37750064Y-56449987D03*
X36249936Y-56449987D03*
X37750064Y-55549987D03*
X36249936Y-55549987D03*
%TD*%
D16*
%TO.C,R47*%
X79410000Y-77660000D03*
X78390000Y-77660000D03*
%TD*%
D64*
%TO.C,D2*%
X77500000Y-122972593D03*
X77500000Y-120627407D03*
%TD*%
D26*
%TO.C,C82*%
X89825000Y-109480000D03*
X88175000Y-109480000D03*
%TD*%
D16*
%TO.C,C45*%
X83010000Y-51600000D03*
X81990000Y-51600000D03*
%TD*%
D13*
%TO.C,R96*%
X64703102Y-166708602D03*
X64703102Y-167728602D03*
%TD*%
D19*
%TO.C,RGB59*%
X31750064Y-68449987D03*
X30249936Y-68449987D03*
X31750064Y-67549987D03*
X30249936Y-67549987D03*
%TD*%
D18*
%TO.C,C53*%
X89800000Y-59510000D03*
X89800000Y-58490000D03*
%TD*%
D17*
%TO.C,D21*%
X72410002Y-156000002D03*
X70310002Y-156000002D03*
%TD*%
D19*
%TO.C,RGB36*%
X40750064Y-53449987D03*
X39249936Y-53449987D03*
X40750064Y-52549987D03*
X39249936Y-52549987D03*
%TD*%
D15*
%TO.C,D8*%
X60405602Y-164718602D03*
X61980602Y-164718602D03*
%TD*%
%TO.C,D37*%
X58905602Y-176718602D03*
X60480602Y-176718602D03*
%TD*%
D31*
%TO.C,C24*%
X59500000Y-37275000D03*
X59500000Y-35625000D03*
%TD*%
D29*
%TO.C,LED21*%
X91500000Y-117400000D03*
X91500000Y-115800000D03*
%TD*%
D65*
%TO.C,D3*%
X86400000Y-124700025D03*
X86400000Y-121299975D03*
%TD*%
D12*
%TO.C,C63*%
X80990000Y-104800000D03*
X82010000Y-104800000D03*
%TD*%
D13*
%TO.C,R16*%
X38500000Y-31490000D03*
X38500000Y-32510000D03*
%TD*%
D12*
%TO.C,R10*%
X32590000Y-15000000D03*
X33610000Y-15000000D03*
%TD*%
D19*
%TO.C,RGB54*%
X34750064Y-68449987D03*
X33249936Y-68449987D03*
X34750064Y-67549987D03*
X33249936Y-67549987D03*
%TD*%
D24*
%TO.C,F3*%
X93990000Y-125060000D03*
X93990000Y-122260000D03*
%TD*%
D66*
%TO.C,ESD3*%
X88949962Y-103449987D03*
X88000000Y-103449987D03*
X87050038Y-103449987D03*
X87050038Y-106150013D03*
X88000000Y-106150013D03*
X88949962Y-106150013D03*
%TD*%
D19*
%TO.C,RGB9*%
X31750064Y-62449987D03*
X30249936Y-62449987D03*
X31750064Y-61549987D03*
X30249936Y-61549987D03*
%TD*%
D67*
%TO.C,B1*%
X73927033Y-176972971D03*
X85664971Y-165235033D03*
%TD*%
D13*
%TO.C,R63*%
X81200000Y-113780000D03*
X81200000Y-114800000D03*
%TD*%
D68*
%TO.C,J1*%
X25875159Y-31099089D03*
X26375032Y-31099089D03*
X26875159Y-31099089D03*
X27375032Y-31099089D03*
X27874905Y-31099089D03*
X28375032Y-31099089D03*
X28874905Y-31099089D03*
X29375032Y-31099089D03*
X29874905Y-31099089D03*
X30375032Y-31099089D03*
X30874905Y-31099089D03*
X31375032Y-31099089D03*
X31125095Y-32498886D03*
X30624968Y-32498886D03*
X30125095Y-32498886D03*
X29624968Y-32498886D03*
X29125095Y-32498886D03*
X28624968Y-32498886D03*
X28124841Y-32498886D03*
X27624968Y-32498886D03*
X27125095Y-32498886D03*
X26624968Y-32498886D03*
X26125095Y-32498886D03*
X25624968Y-32498886D03*
%TD*%
D17*
%TO.C,D16*%
X76705002Y-150100002D03*
X74605002Y-150100002D03*
%TD*%
D15*
%TO.C,D6*%
X60405602Y-159718602D03*
X61980602Y-159718602D03*
%TD*%
D31*
%TO.C,C22*%
X61000000Y-37275000D03*
X61000000Y-35625000D03*
%TD*%
D18*
%TO.C,C21*%
X53400000Y-36960000D03*
X53400000Y-35940000D03*
%TD*%
D13*
%TO.C,C50*%
X89100000Y-55790000D03*
X89100000Y-56810000D03*
%TD*%
D17*
%TO.C,D15*%
X76705002Y-156000002D03*
X74605002Y-156000002D03*
%TD*%
D13*
%TO.C,R36*%
X87300000Y-55790000D03*
X87300000Y-56810000D03*
%TD*%
%TO.C,R23*%
X65200000Y-35590000D03*
X65200000Y-36610000D03*
%TD*%
D12*
%TO.C,R38*%
X83290000Y-44000000D03*
X84310000Y-44000000D03*
%TD*%
D17*
%TO.C,D19*%
X81000002Y-147150002D03*
X78900002Y-147150002D03*
%TD*%
D39*
%TO.C,FB2*%
X68602500Y-53470000D03*
X66777500Y-53470000D03*
%TD*%
D19*
%TO.C,RGB15*%
X28750064Y-56449987D03*
X27249936Y-56449987D03*
X28750064Y-55549987D03*
X27249936Y-55549987D03*
%TD*%
D15*
%TO.C,D9*%
X57405602Y-162218602D03*
X58980602Y-162218602D03*
%TD*%
D18*
%TO.C,C20*%
X54400000Y-36960000D03*
X54400000Y-35940000D03*
%TD*%
D63*
%TO.C,C32*%
X55310000Y-53385000D03*
X55310000Y-55035000D03*
%TD*%
D12*
%TO.C,R53*%
X74920000Y-84400000D03*
X75940000Y-84400000D03*
%TD*%
D18*
%TO.C,C51*%
X93100000Y-54000000D03*
X93100000Y-52980000D03*
%TD*%
D19*
%TO.C,RGB51*%
X31750064Y-65449987D03*
X30249936Y-65449987D03*
X31750064Y-64549987D03*
X30249936Y-64549987D03*
%TD*%
%TO.C,RGB39*%
X40750064Y-56449987D03*
X39249936Y-56449987D03*
X40750064Y-55549987D03*
X39249936Y-55549987D03*
%TD*%
%TO.C,RGB62*%
X43750064Y-65449987D03*
X42249936Y-65449987D03*
X43750064Y-64549987D03*
X42249936Y-64549987D03*
%TD*%
D16*
%TO.C,R29*%
X53910000Y-45900000D03*
X52890000Y-45900000D03*
%TD*%
D32*
%TO.C,SW16*%
X100800000Y-90450000D03*
X94800000Y-90450000D03*
X100800000Y-86750000D03*
X94800000Y-86750000D03*
%TD*%
D13*
%TO.C,L4*%
X92000000Y-50290000D03*
X92000000Y-51310000D03*
%TD*%
%TO.C,C81*%
X92410000Y-92490000D03*
X92410000Y-93510000D03*
%TD*%
%TO.C,C70*%
X77800000Y-89490000D03*
X77800000Y-90510000D03*
%TD*%
D21*
%TO.C,SW2*%
X43750000Y-15150000D03*
X49750000Y-15150000D03*
X43750000Y-18850000D03*
X49750000Y-18850000D03*
%TD*%
%TO.C,SW7*%
X81250000Y-15150000D03*
X87250000Y-15150000D03*
X81250000Y-18850000D03*
X87250000Y-18850000D03*
%TD*%
D19*
%TO.C,RGB35*%
X37750064Y-59449987D03*
X36249936Y-59449987D03*
X37750064Y-58549987D03*
X36249936Y-58549987D03*
%TD*%
D37*
%TO.C,C33*%
X53190000Y-51967500D03*
X53190000Y-54892500D03*
%TD*%
D16*
%TO.C,C47*%
X91020000Y-52300000D03*
X90000000Y-52300000D03*
%TD*%
D15*
%TO.C,D13*%
X60405602Y-162218602D03*
X61980602Y-162218602D03*
%TD*%
D26*
%TO.C,C84*%
X89825000Y-107870000D03*
X88175000Y-107870000D03*
%TD*%
D13*
%TO.C,C72*%
X77800000Y-95490000D03*
X77800000Y-96510000D03*
%TD*%
D19*
%TO.C,RGB64*%
X40750064Y-68449987D03*
X39249936Y-68449987D03*
X40750064Y-67549987D03*
X39249936Y-67549987D03*
%TD*%
D16*
%TO.C,C55*%
X75940000Y-83390000D03*
X74920000Y-83390000D03*
%TD*%
D18*
%TO.C,R72*%
X91200000Y-111428000D03*
X91200000Y-110408000D03*
%TD*%
%TO.C,R20*%
X79000000Y-37210000D03*
X79000000Y-36190000D03*
%TD*%
D16*
%TO.C,C12*%
X30520000Y-16250000D03*
X29500000Y-16250000D03*
%TD*%
D19*
%TO.C,RGB22*%
X31750064Y-56449987D03*
X30249936Y-56449987D03*
X31750064Y-55549987D03*
X30249936Y-55549987D03*
%TD*%
D13*
%TO.C,R77*%
X86000000Y-116790000D03*
X86000000Y-117810000D03*
%TD*%
%TO.C,C56*%
X77800000Y-86490000D03*
X77800000Y-87510000D03*
%TD*%
D56*
%TO.C,U2*%
X22749964Y-21999836D03*
X22749964Y-22499964D03*
X22749964Y-22999836D03*
X22749964Y-23499964D03*
X22749964Y-23999836D03*
X22749964Y-24499964D03*
X22749964Y-24999836D03*
X22749964Y-25499964D03*
X22749964Y-25999836D03*
X22749964Y-26499964D03*
X22749964Y-26999836D03*
X22749964Y-27499964D03*
D55*
X24249836Y-28999836D03*
X24749964Y-28999836D03*
X25249836Y-28999836D03*
X25749964Y-28999836D03*
X26249836Y-28999836D03*
X26749964Y-28999836D03*
X27249836Y-28999836D03*
X27749964Y-28999836D03*
X28249836Y-28999836D03*
X28749964Y-28999836D03*
X29249836Y-28999836D03*
X29749964Y-28999836D03*
D56*
X31249836Y-27499964D03*
X31249836Y-26999836D03*
X31249836Y-26499964D03*
X31249836Y-25999836D03*
X31249836Y-25499964D03*
X31249836Y-24999836D03*
X31249836Y-24499964D03*
X31249836Y-23999836D03*
X31249836Y-23499964D03*
X31249836Y-22999836D03*
X31249836Y-22499964D03*
X31249836Y-21999836D03*
D55*
X29749964Y-20499964D03*
X29249836Y-20499964D03*
X28749964Y-20499964D03*
X28249836Y-20499964D03*
X27749964Y-20499964D03*
X27249836Y-20499964D03*
X26749964Y-20499964D03*
X26249836Y-20499964D03*
X25749964Y-20499964D03*
X25249836Y-20499964D03*
X24749964Y-20499964D03*
X24249836Y-20499964D03*
%TD*%
D69*
%TO.C,J9*%
X30674983Y-145333302D03*
X30674983Y-147333302D03*
X30674983Y-149333302D03*
X30674983Y-151333302D03*
X30674983Y-152333302D03*
X30674983Y-150333302D03*
X30674983Y-148333302D03*
X30674983Y-146333302D03*
X30674983Y-144333302D03*
D70*
X25924919Y-140733353D03*
X22725021Y-140733353D03*
X25924919Y-155933251D03*
X22725021Y-155933251D03*
%TD*%
D19*
%TO.C,RGB23*%
X28750064Y-62449987D03*
X27249936Y-62449987D03*
X28750064Y-61549987D03*
X27249936Y-61549987D03*
%TD*%
%TO.C,RGB43*%
X43750064Y-62449987D03*
X42249936Y-62449987D03*
X43750064Y-61549987D03*
X42249936Y-61549987D03*
%TD*%
D32*
%TO.C,SW10*%
X51040000Y-47160000D03*
X45040000Y-47160000D03*
X51040000Y-43460000D03*
X45040000Y-43460000D03*
%TD*%
D19*
%TO.C,RGB52*%
X28750064Y-65449987D03*
X27249936Y-65449987D03*
X28750064Y-64549987D03*
X27249936Y-64549987D03*
%TD*%
M02*
