<?xml version="1.0" encoding="UTF-8" standalone="no"?>
<!-- Created with Inkscape (http://www.inkscape.org/) -->

<svg
   width="210mm"
   height="297mm"
   viewBox="0 0 210 297"
   version="1.1"
   id="svg1"
   inkscape:version="1.3.2 (091e20e, 2023-11-25, custom)"
   sodipodi:docname="silkscreen_export.svg"
   xml:space="preserve"
   xmlns:inkscape="http://www.inkscape.org/namespaces/inkscape"
   xmlns:sodipodi="http://sodipodi.sourceforge.net/DTD/sodipodi-0.dtd"
   xmlns="http://www.w3.org/2000/svg"
   xmlns:svg="http://www.w3.org/2000/svg"><sodipodi:namedview
     id="namedview1"
     pagecolor="#505050"
     bordercolor="#ffffff"
     borderopacity="1"
     inkscape:showpageshadow="0"
     inkscape:pageopacity="0"
     inkscape:pagecheckerboard="1"
     inkscape:deskcolor="#505050"
     inkscape:document-units="mm"
     inkscape:zoom="9.1667148"
     inkscape:cx="69.926906"
     inkscape:cy="62.563308"
     inkscape:window-width="3840"
     inkscape:window-height="2054"
     inkscape:window-x="-11"
     inkscape:window-y="-11"
     inkscape:window-maximized="1"
     inkscape:current-layer="layer1"
     showguides="true" /><defs
     id="defs1"><clipPath
       clipPathUnits="userSpaceOnUse"
       id="clipPath159"><rect
         style="fill:#000000;stroke:#000000;stroke-width:0;stroke-linejoin:bevel;paint-order:stroke markers fill;stop-color:#000000"
         id="rect5-4"
         width="20"
         height="200"
         x="530"
         y="595" /></clipPath><clipPath
       clipPathUnits="userSpaceOnUse"
       id="clipPath5"><path
         id="path151"
         style="stroke-width:0.1;stroke-linecap:square;paint-order:markers fill stroke;stop-color:#000000"
         d="m 438.25066,553.76374 859.87054,0 v 201.39554 l -859.87054,0 z"
         sodipodi:nodetypes="ccccc" /></clipPath><clipPath
       clipPathUnits="userSpaceOnUse"
       id="clipPath25"><rect
         style="fill:#ff0000;stroke:none;stroke-width:3;stroke-linecap:square;stroke-linejoin:miter;paint-order:stroke markers fill;stop-color:#000000"
         id="rect25-8"
         width="78"
         height="45.033199"
         x="763.61322"
         y="452.82422" /></clipPath><clipPath
       clipPathUnits="userSpaceOnUse"
       id="clipPath149"><rect
         style="fill:none;stroke:#000000;stroke-width:0.999999;stroke-linecap:butt;stroke-linejoin:bevel;paint-order:stroke markers fill;stop-color:#000000"
         id="rect149"
         width="46.160622"
         height="39.922417"
         x="86.574379"
         y="420.06253" /></clipPath><rect
       x="-83.618151"
       y="60.090904"
       width="33.78667"
       height="15.438517"
       id="rect142" /><clipPath
       clipPathUnits="userSpaceOnUse"
       id="clipPath27"><rect
         style="fill:none;stroke:#000000;stroke-width:0.999999;stroke-linecap:butt;stroke-linejoin:bevel;paint-order:stroke markers fill;stop-color:#000000"
         id="rect28-6"
         width="46.160622"
         height="39.922417"
         x="86.574379"
         y="420.06253" /></clipPath><rect
       x="-35.715133"
       y="-17.867931"
       width="13.807794"
       height="9.2284169"
       id="rect107" /><inkscape:path-effect
       effect="fillet_chamfer"
       id="path-effect9"
       is_visible="true"
       lpeversion="1"
       nodesatellites_param="F,0,0,1,0,1,0,1 @ F,0,0,1,0,1,0,1 @ F,0,0,1,0,1,0,1 @ F,0,0,1,0,1,0,1"
       radius="2"
       unit="mm"
       method="auto"
       mode="F"
       chamfer_steps="1"
       flexible="false"
       use_knot_distance="true"
       apply_no_radius="true"
       apply_with_radius="true"
       only_selected="false"
       hide_knots="false" /><filter
       id="mask-powermask-path-effect107_inverse"
       inkscape:label="filtermask-powermask-path-effect107"
       style="color-interpolation-filters:sRGB"
       height="100"
       width="100"
       x="-50"
       y="-50"><feColorMatrix
         id="mask-powermask-path-effect107_primitive1"
         values="1"
         type="saturate"
         result="fbSourceGraphic" /><feColorMatrix
         id="mask-powermask-path-effect107_primitive2"
         values="-1 0 0 0 1 0 -1 0 0 1 0 0 -1 0 1 0 0 0 1 0 "
         in="fbSourceGraphic" /></filter><filter
       id="mask-powermask-path-effect37_inverse"
       inkscape:label="filtermask-powermask-path-effect37"
       style="color-interpolation-filters:sRGB"
       height="100"
       width="100"
       x="-50"
       y="-50"><feColorMatrix
         id="mask-powermask-path-effect37_primitive1"
         values="1"
         type="saturate"
         result="fbSourceGraphic" /><feColorMatrix
         id="mask-powermask-path-effect37_primitive2"
         values="-1 0 0 0 1 0 -1 0 0 1 0 0 -1 0 1 0 0 0 1 0 "
         in="fbSourceGraphic" /></filter><filter
       id="mask-powermask-path-effect42_inverse"
       inkscape:label="filtermask-powermask-path-effect42"
       style="color-interpolation-filters:sRGB"
       height="100"
       width="100"
       x="-50"
       y="-50"><feColorMatrix
         id="mask-powermask-path-effect42_primitive1"
         values="1"
         type="saturate"
         result="fbSourceGraphic" /><feColorMatrix
         id="mask-powermask-path-effect42_primitive2"
         values="-1 0 0 0 1 0 -1 0 0 1 0 0 -1 0 1 0 0 0 1 0 "
         in="fbSourceGraphic" /></filter><filter
       id="mask-powermask-path-effect43_inverse"
       inkscape:label="filtermask-powermask-path-effect43"
       style="color-interpolation-filters:sRGB"
       height="100"
       width="100"
       x="-50"
       y="-50"><feColorMatrix
         id="mask-powermask-path-effect43_primitive1"
         values="1"
         type="saturate"
         result="fbSourceGraphic" /><feColorMatrix
         id="mask-powermask-path-effect43_primitive2"
         values="-1 0 0 0 1 0 -1 0 0 1 0 0 -1 0 1 0 0 0 1 0 "
         in="fbSourceGraphic" /></filter><filter
       id="mask-powermask-path-effect44_inverse"
       inkscape:label="filtermask-powermask-path-effect44"
       style="color-interpolation-filters:sRGB"
       height="100"
       width="100"
       x="-50"
       y="-50"><feColorMatrix
         id="mask-powermask-path-effect44_primitive1"
         values="1"
         type="saturate"
         result="fbSourceGraphic" /><feColorMatrix
         id="mask-powermask-path-effect44_primitive2"
         values="-1 0 0 0 1 0 -1 0 0 1 0 0 -1 0 1 0 0 0 1 0 "
         in="fbSourceGraphic" /></filter><filter
       id="mask-powermask-path-effect45_inverse"
       inkscape:label="filtermask-powermask-path-effect45"
       style="color-interpolation-filters:sRGB"
       height="100"
       width="100"
       x="-50"
       y="-50"><feColorMatrix
         id="mask-powermask-path-effect45_primitive1"
         values="1"
         type="saturate"
         result="fbSourceGraphic" /><feColorMatrix
         id="mask-powermask-path-effect45_primitive2"
         values="-1 0 0 0 1 0 -1 0 0 1 0 0 -1 0 1 0 0 0 1 0 "
         in="fbSourceGraphic" /></filter><filter
       id="mask-powermask-path-effect46_inverse"
       inkscape:label="filtermask-powermask-path-effect46"
       style="color-interpolation-filters:sRGB"
       height="100"
       width="100"
       x="-50"
       y="-50"><feColorMatrix
         id="mask-powermask-path-effect46_primitive1"
         values="1"
         type="saturate"
         result="fbSourceGraphic" /><feColorMatrix
         id="mask-powermask-path-effect46_primitive2"
         values="-1 0 0 0 1 0 -1 0 0 1 0 0 -1 0 1 0 0 0 1 0 "
         in="fbSourceGraphic" /></filter><filter
       id="mask-powermask-path-effect47_inverse"
       inkscape:label="filtermask-powermask-path-effect47"
       style="color-interpolation-filters:sRGB"
       height="100"
       width="100"
       x="-50"
       y="-50"><feColorMatrix
         id="mask-powermask-path-effect47_primitive1"
         values="1"
         type="saturate"
         result="fbSourceGraphic" /><feColorMatrix
         id="mask-powermask-path-effect47_primitive2"
         values="-1 0 0 0 1 0 -1 0 0 1 0 0 -1 0 1 0 0 0 1 0 "
         in="fbSourceGraphic" /></filter></defs><g
     inkscape:label="Layer 1"
     inkscape:groupmode="layer"
     id="layer1"><text
       xml:space="preserve"
       transform="scale(0.26458333)"
       id="text107"
       style="font-style:normal;font-variant:normal;font-weight:normal;font-stretch:normal;font-size:7.55906px;line-height:9.44882px;font-family:Nasalization;-inkscape-font-specification:Nasalization;text-align:end;white-space:pre;shape-inside:url(#rect107);display:inline;fill:#000000;stroke:none;stroke-width:0.377953;stroke-linecap:round;stroke-dasharray:none" /><path
       id="rect111"
       style="fill:#ffffff;stroke:none;stroke-width:0.1;stroke-linecap:round;stroke-dasharray:none"
       d="M -4.7805868 -1.3916463 C -5.8885856 -1.3916463 -6.7809814 -0.49976728 -6.7809814 0.60823161 L -6.7809814 11.608594 C -6.7809814 12.716593 -5.8885856 13.608472 -4.7805868 13.608472 L -3.7806478 13.608472 C -2.6726489 13.608472 -1.7807699 12.716593 -1.7807699 11.608594 L -1.7807699 0.60823161 C -1.7807699 -0.49976728 -2.6726489 -1.3916463 -3.7806478 -1.3916463 L -4.7805868 -1.3916463 z M -4.2793254 0.58704427 C -3.601326 0.58704427 -3.238562 0.91071776 -3.238562 1.5017171 C -3.238562 2.0927165 -3.601326 2.4169067 -4.2793254 2.4169067 C -4.9603247 2.4169067 -5.3231893 2.0897165 -5.3231893 1.5017171 C -5.3231893 0.91371776 -4.9603247 0.58704427 -4.2793254 0.58704427 z M -4.2824259 0.93792725 C -4.7444255 0.93792725 -4.9692057 1.1087175 -4.9692057 1.5017171 C -4.9692057 1.8977167 -4.7444255 2.0691243 -4.2824259 2.0691243 C -3.8174264 2.0691243 -3.5925456 1.8977167 -3.5925456 1.5017171 C -3.5925456 1.1057175 -3.8174264 0.93792725 -4.2824259 0.93792725 z M -3.6762614 2.6628866 L -3.2685343 2.6628866 L -3.2685343 3.0049845 L -3.6762614 3.0049845 L -3.6762614 2.6628866 z M -4.7201253 3.3620687 C -4.4201256 3.3620687 -4.2525227 3.5058413 -4.1775228 3.832841 L -3.988387 4.6756836 C -3.9553871 4.8166835 -3.8801783 4.843632 -3.7661784 4.843632 L -3.6643758 4.843632 C -3.6313758 4.843632 -3.6225179 4.8318746 -3.6225179 4.8048747 L -3.6225179 3.4158122 L -3.2685343 3.4158122 L -3.2685343 5.0296672 C -3.2685343 5.143667 -3.3223823 5.1981323 -3.4333822 5.1981323 L -3.7393066 5.1981323 C -4.0693063 5.1981323 -4.2431833 5.0987147 -4.3211833 4.753715 L -4.5165202 3.9020874 C -4.5495201 3.7580875 -4.618441 3.7129517 -4.7144409 3.7129517 C -4.8494408 3.7129517 -4.9392334 3.8000322 -4.9392334 3.9620321 L -4.9392334 5.1319865 L -5.293217 5.1319865 L -5.293217 3.9708171 C -5.293217 3.5808174 -5.092125 3.3620687 -4.7201253 3.3620687 z M -3.826123 5.5640015 C -3.5021234 5.5640015 -3.2685343 5.7649967 -3.2685343 6.2419963 L -3.2685343 7.1416829 C -3.2685343 7.2556828 -3.3223823 7.3096313 -3.4333822 7.3096313 L -5.1283691 7.3096313 C -5.239369 7.3096313 -5.293217 7.2556828 -5.293217 7.1416829 L -5.293217 6.2507812 C -5.293217 5.7737817 -5.0682117 5.5727865 -4.7382121 5.5727865 C -4.5042123 5.5727865 -4.3631103 5.674725 -4.2881104 5.8637248 C -4.2101104 5.671725 -4.0601228 5.5640015 -3.826123 5.5640015 z M -3.8834839 5.9210856 C -4.0544837 5.9210856 -4.1444499 6.0256947 -4.1444499 6.2326945 L -4.1444499 6.961849 L -3.6524902 6.961849 C -3.6284903 6.961849 -3.6194173 6.9470916 -3.6194173 6.9230916 L -3.6194173 6.2326945 C -3.6194173 6.0196947 -3.7184841 5.9210856 -3.8834839 5.9210856 z M -4.681368 5.9298706 C -4.8403678 5.9298706 -4.9454346 6.0228959 -4.9454346 6.2388957 L -4.9454346 6.9230916 C -4.9454346 6.9470916 -4.933261 6.961849 -4.9092611 6.961849 L -4.4384888 6.961849 L -4.4384888 6.2419963 C -4.4384888 6.0319965 -4.5163682 5.9298706 -4.681368 5.9298706 z M -3.8622965 7.702889 C -3.5202969 7.702889 -3.2685343 7.8858113 -3.2685343 8.3478109 L -3.2685343 9.4759074 L -3.6225179 9.4759074 L -3.6225179 8.3359253 C -3.6225179 8.1439255 -3.7271823 8.0568726 -3.8741821 8.0568726 C -4.006182 8.0568726 -4.1263631 8.1256829 -4.1263631 8.3746826 L -4.1263631 8.8459717 C -4.1263631 9.3859711 -4.4293406 9.5120809 -4.7113403 9.5120809 C -5.04734 9.5120809 -5.293217 9.331628 -5.293217 8.8816284 L -5.293217 7.8558512 L -4.9392334 7.8558512 L -4.9392334 8.8940308 C -4.9392334 9.0770306 -4.8404546 9.1580973 -4.6994548 9.1580973 C -4.5764549 9.1580973 -4.4591593 9.094857 -4.4591593 8.8578573 L -4.4591593 8.3839844 C -4.4591593 7.8319849 -4.1532963 7.702889 -3.8622965 7.702889 z M -5.293217 9.8929362 L -3.9134562 9.8929362 C -3.4874566 9.8929362 -3.2685343 10.117744 -3.2685343 10.549744 L -3.2685343 10.976074 C -3.2685343 11.408074 -3.4874566 11.629781 -3.9134562 11.629781 L -5.293217 11.629781 L -5.293217 11.270113 L -3.940328 11.270113 C -3.7393282 11.270113 -3.6225179 11.167699 -3.6225179 10.9337 L -3.6225179 10.574032 C -3.6225179 10.346032 -3.7393282 10.240719 -3.940328 10.240719 L -5.293217 10.240719 L -5.293217 9.8929362 z " /><rect
       style="fill:none;stroke:#f9f9f9;stroke-width:0.1;stroke-linecap:round;stroke-dasharray:none"
       id="rect10"
       width="30"
       height="15"
       x="-6.7041011"
       y="-1.3916166"
       rx="2"
       ry="2" /><path
       id="rect14-2-9-4"
       style="fill:#ffffff;stroke-width:0.1;stroke-linecap:round;fill-opacity:1"
       d="M 0.50022786 0 C 0.22323066 3.9165811e-17 7.0499092e-16 0.22323066 0 0.50022786 L 0 1.5001668 C 3.9165811e-17 1.7771648 0.22323066 1.9998779 0.50022786 1.9998779 L 15.499829 1.9998779 C 15.776829 1.9998779 16.000057 1.7771648 16.000057 1.5001668 L 16.000057 0.50022786 C 16.000057 0.22323066 15.776829 7.0499092e-16 15.499829 0 L 0.50022786 0 z M 1.2211141 0.25011393 L 1.3714925 0.25011393 L 1.2960449 0.85007731 L 1.7461466 0.85007731 L 0.99632161 1.749764 L 0.84645996 1.749764 L 0.92139079 1.2252482 L 0.54621989 1.2252482 L 1.2211141 0.25011393 z M 8.7824097 0.32039388 L 9.0423421 0.32039388 L 9.452653 1.4066325 C 9.464653 1.4386325 9.4867994 1.4526245 9.5187988 1.4526245 C 9.5507988 1.4526245 9.5704279 1.4386325 9.5844279 1.4066325 L 10.014376 0.32039388 L 10.276375 0.32039388 L 9.8004354 1.5203206 C 9.7504354 1.64632 9.6587982 1.6944702 9.5187988 1.6944702 C 9.3868 1.6944702 9.2845779 1.65232 9.2345785 1.5203206 L 8.7824097 0.32039388 z M 10.588501 0.32039388 L 11.18278 0.32039388 C 11.50078 0.32039388 11.634432 0.47039846 11.634432 0.69039714 C 11.634432 0.84639618 11.566645 0.94063751 11.440645 0.99063721 C 11.568645 1.0426367 11.640633 1.1426299 11.640633 1.2986287 C 11.640633 1.5146275 11.506464 1.6701823 11.188464 1.6701823 L 10.588501 1.6701823 C 10.512501 1.6701823 10.476363 1.6346277 10.476363 1.5606283 L 10.476363 0.43046468 C 10.476363 0.3564651 10.512501 0.32039388 10.588501 0.32039388 z M 11.9047 0.32039388 L 12.144478 0.32039388 L 12.144478 1.2226644 C 12.144478 1.3566638 12.212754 1.4345378 12.368754 1.4345378 L 12.608533 1.4345378 C 12.760533 1.4345378 12.830741 1.3566638 12.830741 1.2226644 L 12.830741 0.32039388 L 13.062769 0.32039388 L 13.062769 1.2402344 C 13.062769 1.5242326 12.912552 1.6701823 12.624552 1.6701823 L 12.340332 1.6701823 C 12.052332 1.6701823 11.9047 1.5242326 11.9047 1.2402344 L 11.9047 0.32039388 z M 13.736629 0.32039388 L 14.420308 0.32039388 L 14.420308 0.55655518 L 13.728361 0.55655518 C 13.606361 0.55655518 13.552661 0.62223595 13.552661 0.71623535 C 13.552661 0.79823487 13.594649 0.87643229 13.752649 0.87643229 L 14.068392 0.87643229 C 14.436392 0.87643229 14.522628 1.080342 14.522628 1.2743408 C 14.522628 1.5023396 14.40068 1.6701823 14.09268 1.6701823 L 13.340788 1.6701823 L 13.340788 1.4345378 L 14.100431 1.4345378 C 14.228431 1.4345378 14.286466 1.3645888 14.286466 1.2665894 C 14.286466 1.1785894 14.240593 1.098641 14.074593 1.098641 L 13.7604 1.098641 C 13.400406 1.098641 13.3165 0.89648275 13.3165 0.70848389 C 13.3165 0.48448521 13.436635 0.32039388 13.736629 0.32039388 z M 10.734745 0.55242106 C 10.718745 0.55242106 10.70839 0.56019234 10.70839 0.57619222 L 10.70839 0.89038493 L 11.188464 0.89038493 C 11.328464 0.89038493 11.39672 0.83863704 11.39672 0.7286377 C 11.39672 0.6226383 11.334531 0.55242106 11.190531 0.55242106 L 10.734745 0.55242106 z M 1.1797729 0.57412516 L 0.83302409 1.0748698 L 1.0939901 1.0748698 L 1.0376628 1.4650269 L 1.4257528 0.99993896 L 1.1255127 0.99993896 L 1.1797729 0.57412516 z M 10.70839 1.0862386 L 10.70839 1.414384 C 10.70839 1.4303834 10.718745 1.4366048 10.734745 1.4366048 L 11.194666 1.4366048 C 11.33666 1.4366048 11.402405 1.3703876 11.402405 1.2603882 C 11.402405 1.1463888 11.33266 1.0862386 11.194666 1.0862386 L 10.70839 1.0862386 z M 0.50022786 2.5001058 C 0.22323066 2.5001058 7.0499092e-16 2.7228199 0 2.9998169 L 0 3.9997559 C 3.9165811e-17 4.2767529 0.22323066 4.4999837 0.50022786 4.4999837 L 15.499829 4.4999837 C 15.776829 4.4999837 16.000057 4.2767529 16.000057 3.9997559 L 16.000057 2.9998169 C 16.000057 2.7228199 15.776829 2.5001058 15.499829 2.5001058 L 0.50022786 2.5001058 z M 12.184786 2.8204997 L 12.660726 2.8204997 C 13.054726 2.8204997 13.268441 3.0404309 13.268441 3.4964274 C 13.268441 3.9504246 13.056726 4.1702881 12.660726 4.1702881 L 12.184786 4.1702881 C 12.108786 4.1702881 12.072648 4.1342166 12.072648 4.0602173 L 12.072648 2.9305705 C 12.072648 2.8565705 12.108786 2.8204997 12.184786 2.8204997 z M 1.4794963 2.9000814 L 1.8128092 3.2333944 L 1.4794963 3.5667074 L 1.3844116 3.473173 L 1.5580444 3.300057 L 0.54621989 3.300057 L 0.54621989 3.1667318 L 1.5580444 3.1667318 L 1.3844116 2.993099 L 1.4794963 2.9000814 z M 13.926799 2.9564087 L 14.074593 2.9564087 L 14.074593 3.4245972 L 14.538647 3.4245972 L 14.538647 3.5703247 L 14.074593 3.5703247 L 14.074593 4.032312 L 13.926799 4.032312 L 13.926799 3.5703247 L 13.462744 3.5703247 L 13.462744 3.4245972 L 13.926799 3.4245972 L 13.926799 2.9564087 z M 12.334648 3.056661 C 12.316648 3.056661 12.308809 3.0624321 12.308809 3.0804321 L 12.308809 3.9103556 C 12.308809 3.9283556 12.316648 3.9346436 12.334648 3.9346436 L 12.660726 3.9346436 C 12.922726 3.9346436 13.032796 3.8043576 13.032796 3.4943604 C 13.032796 3.1863625 12.922726 3.056661 12.660726 3.056661 L 12.334648 3.056661 z M 0.81287028 3.4333822 L 0.90795492 3.5269165 L 0.73483887 3.7000326 L 1.7461466 3.7000326 L 1.7461466 3.8333577 L 0.73483887 3.8333577 L 0.90795492 4.0064738 L 0.81287028 4.1000081 L 0.47955729 3.7666951 L 0.81287028 3.4333822 z M 0.50022786 5.0002116 C 0.22323066 5.0002116 7.0499092e-16 5.2229257 0 5.4999227 L 0 6.4998617 C 3.9165811e-17 6.7768587 0.22323066 7.0000895 0.50022786 7.0000895 L 15.499829 7.0000895 C 15.776829 7.0000895 16.000057 6.7768587 16.000057 6.4998617 L 16.000057 5.4999227 C 16.000057 5.2229257 15.776829 5.0002116 15.499829 5.0002116 L 0.50022786 5.0002116 z M 12.592513 5.3206055 L 13.068453 5.3206055 C 13.462453 5.3206055 13.676685 5.5405372 13.676685 5.9965332 C 13.676685 6.4505292 13.464453 6.6703939 13.068453 6.6703939 L 12.592513 6.6703939 C 12.516513 6.6703939 12.480375 6.6343223 12.480375 6.5603231 L 12.480375 5.4306763 C 12.480375 5.3566763 12.516513 5.3206055 12.592513 5.3206055 z M 1.4794963 5.5081909 L 1.8128092 5.8415039 L 1.4794963 6.1748169 L 1.3844116 6.0817993 L 1.5580444 5.9081665 L 0.54621989 5.9081665 L 0.54621989 5.7748413 L 1.5580444 5.7748413 L 1.3844116 5.6017253 L 1.4794963 5.5081909 z M 12.742375 5.55625 C 12.724375 5.55625 12.716536 5.5625379 12.716536 5.5805379 L 12.716536 6.4104614 C 12.716536 6.4284614 12.724375 6.4342326 12.742375 6.4342326 L 13.068453 6.4342326 C 13.330453 6.4342326 13.440523 6.3044637 13.440523 5.9944661 C 13.440523 5.6864693 13.330453 5.55625 13.068453 5.55625 L 12.742375 5.55625 z M 13.848767 5.9345215 L 14.562419 5.9345215 L 14.562419 6.1386434 L 13.848767 6.1386434 L 13.848767 5.9345215 z M 0.81287028 6.0414917 L 0.90795492 6.135026 L 0.73483887 6.3081421 L 1.7461466 6.3081421 L 1.7461466 6.4414673 L 0.73483887 6.4414673 L 0.90795492 6.6151001 L 0.81287028 6.7086344 L 0.47955729 6.3748047 L 0.81287028 6.0414917 z M 0.50022786 7.4998006 C 0.22323066 7.4998006 7.0499092e-16 7.7230315 0 8.0000285 L 0 8.9999674 C 3.9165811e-17 9.2769654 0.22323066 9.5001953 0.50022786 9.5001953 L 15.499829 9.5001953 C 15.776829 9.5001953 16.000057 9.2769654 16.000057 8.9999674 L 16.000057 8.0000285 C 16.000057 7.7230315 15.776829 7.4998006 15.499829 7.4998006 L 0.50022786 7.4998006 z M 1.2211141 7.7499146 L 1.3714925 7.7499146 L 1.2960449 8.3498779 L 1.7461466 8.3498779 L 0.99632161 9.2500814 L 0.84645996 9.2500814 L 0.92139079 8.7250488 L 0.54621989 8.7250488 L 1.2211141 7.7499146 z M 11.860775 7.7964233 C 12.048775 7.7964233 12.132403 7.8925382 12.188403 8.0465373 L 12.582694 8.9085002 C 12.598694 8.9404993 12.624477 8.9643107 12.668477 8.9643107 C 12.718477 8.9643107 12.748576 8.9343455 12.748576 8.8883464 L 12.748576 7.8201945 L 12.986804 7.8201945 L 12.986804 8.8981649 C 12.986804 9.0761631 12.884737 9.1942708 12.676746 9.1942708 C 12.488746 9.1942708 12.402533 9.0986719 12.346533 8.9446737 L 11.952759 8.082194 C 11.934759 8.0421949 11.910526 8.0243164 11.868526 8.0243164 C 11.814526 8.0243164 11.786361 8.0543487 11.786361 8.1023478 L 11.786361 9.1704997 L 11.550716 9.1704997 L 11.550716 8.0904622 C 11.550716 7.914464 11.650775 7.7964233 11.860775 7.7964233 z M 10.654647 7.8201945 L 11.210685 7.8201945 L 11.210685 8.0563558 L 10.654647 8.0563558 C 10.394647 8.0563558 10.280509 8.1866417 10.280509 8.496639 C 10.280509 8.8046363 10.392647 8.9343384 10.654647 8.9343384 L 10.878406 8.9343384 C 11.010406 8.9343384 11.066508 8.8541682 11.066508 8.7441691 C 11.066508 8.63617 11.010627 8.5726034 10.900627 8.5726034 L 10.600387 8.5726034 L 10.600387 8.3664144 L 10.924398 8.3664144 C 11.164398 8.3664144 11.282515 8.5143059 11.282515 8.7483032 C 11.282515 8.9843014 11.164386 9.1704997 10.862386 9.1704997 L 10.654647 9.1704997 C 10.260647 9.1704997 10.044348 8.9486345 10.044348 8.496639 C 10.044348 8.0426435 10.262647 7.8201945 10.654647 7.8201945 z M 13.422437 7.8201945 L 13.898376 7.8201945 C 14.292376 7.8201945 14.506608 8.0406435 14.506608 8.496639 C 14.506608 8.9506345 14.294376 9.1704997 13.898376 9.1704997 L 13.422437 9.1704997 C 13.346437 9.1704997 13.310299 9.134428 13.310299 9.0604289 L 13.310299 7.9302653 C 13.310299 7.8562662 13.346437 7.8201945 13.422437 7.8201945 z M 13.572815 8.0563558 C 13.554815 8.0563558 13.54646 8.0626437 13.54646 8.0806437 L 13.54646 8.9105672 C 13.54646 8.9285672 13.554815 8.9343384 13.572815 8.9343384 L 13.898376 8.9343384 C 14.160376 8.9343384 14.270447 8.8045692 14.270447 8.4945719 C 14.270447 8.1865746 14.160376 8.0563558 13.898376 8.0563558 L 13.572815 8.0563558 z M 1.1797729 8.0744425 L 0.83302409 8.5751872 L 1.0939901 8.5751872 L 1.0376628 8.9648275 L 1.4257528 8.5002563 L 1.1255127 8.5002563 L 1.1797729 8.0744425 z M 0.50022786 9.9999064 C 0.22323066 9.9999064 7.0499092e-16 10.223144 0 10.500134 L 0 11.500073 C 3.9165811e-17 11.777073 0.22323066 11.999784 0.50022786 11.999784 L 15.499829 11.999784 C 15.776829 11.999784 16.000057 11.777073 16.000057 11.500073 L 16.000057 10.500134 C 16.000057 10.223144 15.776829 9.9999064 15.499829 9.9999064 L 0.50022786 9.9999064 z M 9.632487 10.156486 L 9.8443604 10.156486 L 9.8443604 10.614339 L 10.216431 10.614339 C 10.572421 10.614339 10.748698 10.786336 10.748698 11.076326 L 10.748698 11.670605 L 10.534757 11.670605 L 10.534757 11.076326 C 10.534757 10.914336 10.436421 10.818461 10.216431 10.818461 L 9.8443604 10.818461 L 9.8443604 11.670605 L 9.632487 11.670605 L 9.632487 10.156486 z M 12.866398 10.156486 L 13.078788 10.156486 L 13.078788 11.670605 L 12.866398 11.670605 L 12.866398 10.156486 z M 14.256494 10.156486 L 14.470435 10.156486 L 14.470435 11.218437 C 14.470435 11.522427 14.334335 11.670605 14.082345 11.670605 L 13.790373 11.670605 C 13.508373 11.670605 13.33252 11.498472 13.33252 11.142472 C 13.33252 10.786482 13.508373 10.614339 13.790373 10.614339 L 14.256494 10.614339 L 14.256494 10.156486 z M 11.046354 10.216431 L 11.260811 10.216431 L 11.260811 10.46241 L 11.046354 10.46241 L 11.046354 10.216431 z M 1.1461833 10.25002 L 1.7461466 10.474813 L 1.7461466 10.932666 C 1.7461466 11.122666 1.6897728 11.295356 1.5766479 11.450981 C 1.4635231 11.606605 1.3199331 11.706437 1.1461833 11.750187 C 0.97243344 11.706437 0.82884347 11.606605 0.71571859 11.450981 C 0.6025937 11.295356 0.54621989 11.122666 0.54621989 10.932666 L 0.54621989 10.474813 L 1.1461833 10.25002 z M 8.5963745 10.3203 L 9.2805705 10.3203 L 9.2805705 10.556462 L 8.588623 10.556462 C 8.466625 10.556462 8.4124064 10.622659 8.4124064 10.716659 C 8.4124064 10.798649 8.4543962 10.876339 8.6123942 10.876339 L 8.928654 10.876339 C 9.29665 10.876339 9.382373 11.080247 9.382373 11.274247 C 9.382373 11.502247 9.2604221 11.670605 8.9524251 11.670605 L 8.200533 11.670605 L 8.200533 11.434444 L 8.9606934 11.434444 C 9.0886914 11.434444 9.1467285 11.364496 9.1467285 11.266496 C 9.1467285 11.178496 9.1003364 11.098547 8.9343384 11.098547 L 8.6206624 11.098547 C 8.2606664 11.098547 8.1767619 10.89639 8.1767619 10.70839 C 8.1767619 10.4844 8.2963775 10.3203 8.5963745 10.3203 z M 1.1461833 10.409184 L 0.69608154 10.578166 L 0.69608154 10.932666 C 0.69608154 11.083916 0.73872242 11.221294 0.82372233 11.345044 C 0.90872225 11.468794 1.0161834 11.551324 1.1461833 11.592574 C 1.2761831 11.551324 1.3836443 11.468794 1.4686442 11.345044 C 1.5536441 11.221294 1.596285 11.083916 1.596285 10.932666 L 1.596285 10.578166 L 1.1461833 10.409184 z M 11.046354 10.614339 L 11.258744 10.614339 L 11.258744 11.670605 L 11.046354 11.670605 L 11.046354 10.614339 z M 11.908317 10.614339 L 12.250415 10.614339 C 12.500415 10.614339 12.606466 10.73436 12.606466 10.93835 C 12.606466 11.13235 12.508348 11.242208 12.248348 11.242208 L 11.74657 11.242208 L 11.74657 11.318172 C 11.74657 11.402172 11.792317 11.464417 11.908317 11.464417 L 12.554789 11.464417 L 12.554789 11.670605 L 11.908317 11.670605 C 11.644317 11.670605 11.540381 11.522306 11.540381 11.322306 L 11.540381 10.962638 C 11.540381 10.762648 11.644317 10.614339 11.908317 10.614339 z M 11.908317 10.818461 C 11.792317 10.818461 11.74657 10.882189 11.74657 10.964189 L 11.74657 11.076326 L 12.242664 11.076326 C 12.356654 11.076326 12.398726 11.028236 12.398726 10.950236 C 12.398726 10.870236 12.352348 10.818461 12.248348 10.818461 L 11.908317 10.818461 z M 13.810527 10.818461 C 13.628527 10.818461 13.54646 10.914482 13.54646 11.142472 C 13.54646 11.370472 13.628527 11.464417 13.810527 11.464417 L 14.020333 11.464417 C 14.190333 11.464417 14.256494 11.388618 14.256494 11.208618 L 14.256494 10.818461 L 13.810527 10.818461 z " /><g
       id="text8"
       style="font-size:2px;line-height:2.5px;font-family:Nasalization;-inkscape-font-specification:Nasalization;stroke-width:0.499999;stroke-linecap:round"
       aria-label="VBUS&#10;D+&#10;D-&#10;GND&#10;Shield" /><path
       id="rect111-6"
       style="fill:#ffffff;stroke:none;stroke-width:0.1;stroke-linecap:round;stroke-dasharray:none"
       d="M -4.7809272 -1.3918726 C -5.8889261 -1.3918726 -6.7808052 -0.49947682 -6.7808052 0.60852207 L -6.7808052 21.608274 C -6.7808052 22.716273 -5.8889261 23.608152 -4.7809272 23.608152 L -3.7809883 23.608152 C -2.6729894 23.608152 -1.7805936 22.716273 -1.7805936 21.608274 L -1.7805936 0.60852207 C -1.7805936 -0.49947682 -2.6729894 -1.3918726 -3.7809883 -1.3918726 L -4.7809272 -1.3918726 z M -4.2791491 5.6965836 C -3.6011497 5.6965836 -3.2383857 6.020257 -3.2383857 6.6112564 C -3.2383857 7.2022559 -3.6011497 7.5264461 -4.2791491 7.5264461 C -4.9601484 7.5264461 -5.3235298 7.1992559 -5.3235298 6.6112564 C -5.3235298 6.023257 -4.9601484 5.6965836 -4.2791491 5.6965836 z M -4.2822497 6.0474666 C -4.7442492 6.0474666 -4.9695462 6.2182568 -4.9695462 6.6112564 C -4.9695462 7.007256 -4.7442492 7.1781469 -4.2822497 7.1781469 C -3.8172501 7.1781469 -3.5923693 7.007256 -3.5923693 6.6112564 C -3.5923693 6.2152568 -3.8172501 6.0474666 -4.2822497 6.0474666 z M -3.6760851 7.7724259 L -3.2683581 7.7724259 L -3.2683581 8.1145239 L -3.6760851 8.1145239 L -3.6760851 7.7724259 z M -3.8114774 8.4142472 C -3.5084777 8.4142472 -3.2683581 8.6121419 -3.2683581 9.0891414 L -3.2683581 10.112335 L -3.6223416 10.112335 L -3.6223416 9.0891414 C -3.6223416 8.8821416 -3.7182072 8.7832169 -3.880207 8.7832169 C -4.0422068 8.7832169 -4.1230862 8.8882422 -4.1230862 9.092242 L -4.1230862 9.7164933 L -4.4445136 9.7164933 L -4.4445136 9.1015437 C -4.4445136 8.8945439 -4.519393 8.7925187 -4.6873929 8.7925187 C -4.8403927 8.7925187 -4.9395739 8.8854433 -4.9395739 9.0984431 L -4.9395739 10.109234 L -5.2935574 10.109234 L -5.2935574 9.0984431 C -5.2935574 8.6214436 -5.0624378 8.4204483 -4.7504381 8.4204483 C -4.5104384 8.4204483 -4.3633502 8.5222863 -4.2853502 8.7082861 C -4.2043503 8.5162863 -4.0544771 8.4142472 -3.8114774 8.4142472 z M -3.8264635 10.454433 C -3.5024638 10.454433 -3.2683581 10.655428 -3.2683581 11.132428 L -3.2683581 12.032631 C -3.2683581 12.146631 -3.322206 12.200579 -3.4332059 12.200579 L -5.1281928 12.200579 C -5.2391927 12.200579 -5.2935574 12.146631 -5.2935574 12.032631 L -5.2935574 11.141212 C -5.2935574 10.664213 -5.0685522 10.463218 -4.7385525 10.463218 C -4.5045528 10.463218 -4.3634507 10.565156 -4.2884508 10.754156 C -4.2104509 10.562156 -4.0604633 10.454433 -3.8264635 10.454433 z M -3.8833076 10.811517 C -4.0543074 10.811517 -4.1442736 10.916126 -4.1442736 11.123126 L -4.1442736 11.85228 L -3.6523139 11.85228 C -3.628314 11.85228 -3.619241 11.837523 -3.619241 11.813523 L -3.619241 11.123126 C -3.619241 10.910126 -3.7183078 10.811517 -3.8833076 10.811517 z M -4.6811917 10.820302 C -4.8401916 10.820302 -4.9452583 10.913327 -4.9452583 11.129327 L -4.9452583 11.813523 C -4.9452583 11.837523 -4.9330848 11.85228 -4.9090848 11.85228 L -4.4383125 11.85228 L -4.4383125 11.132428 C -4.4383125 10.922428 -4.5161919 10.820302 -4.6811917 10.820302 z M -3.8621203 12.59332 C -3.5201206 12.59332 -3.2683581 12.776243 -3.2683581 13.238242 L -3.2683581 14.366339 L -3.6223416 14.366339 L -3.6223416 13.226357 C -3.6223416 13.034357 -3.7275227 12.947304 -3.8745226 12.947304 C -4.0065225 12.947304 -4.1261868 13.016631 -4.1261868 13.265631 L -4.1261868 13.736403 C -4.1261868 14.276402 -4.4291643 14.402512 -4.711164 14.402512 C -5.0471637 14.402512 -5.2935574 14.222576 -5.2935574 13.772576 L -5.2935574 12.746282 L -4.9395739 12.746282 L -4.9395739 13.784462 C -4.9395739 13.967462 -4.8402783 14.048529 -4.6992785 14.048529 C -4.5762786 14.048529 -4.4594998 13.985288 -4.4594998 13.748289 L -4.4594998 13.274416 C -4.4594998 12.722416 -4.15312 12.59332 -3.8621203 12.59332 z M -5.2935574 14.783367 L -3.9132799 14.783367 C -3.4872804 14.783367 -3.2683581 15.008175 -3.2683581 15.440175 L -3.2683581 15.866505 C -3.2683581 16.298505 -3.4872804 16.520212 -3.9132799 16.520212 L -5.2935574 16.520212 L -5.2935574 16.160544 L -3.9401517 16.160544 C -3.7391519 16.160544 -3.6223416 16.058131 -3.6223416 15.824131 L -3.6223416 15.464463 C -3.6223416 15.236463 -3.7391519 15.13115 -3.9401517 15.13115 L -5.2935574 15.13115 L -5.2935574 14.783367 z "
       transform="translate(-0.000176292, 16.4416)" /><rect
       style="fill:none;stroke:#f9f9f9;stroke-width:0.1;stroke-linecap:round;stroke-dasharray:none"
       id="rect10-1"
       width="30"
       height="25"
       x="-6.7041011"
       y="-1.3916166"
       rx="2"
       ry="2"
       transform="translate(-1.76292e-4,16.4416)" /><path
       id="rect14-5"
       style="fill:#ffffff;fill-opacity:1;stroke:none;stroke-width:0.1;stroke-linecap:round;stroke-dasharray:none"
       d="M 5.0003879 -0.00018105469 C 4.7233885 -0.00018105469 4.50016 0.22304737 4.50016 0.50004681 L 4.50016 1.4999858 C 4.50016 1.7769852 4.7233885 2.0002136 5.0003879 2.0002136 L 15.500005 2.0002136 C 15.777005 2.0002136 16.000233 1.7769852 16.000233 1.4999858 L 16.000233 0.50004681 C 16.000233 0.22304737 15.777005 -0.00018105469 15.500005 -0.00018105469 L 5.0003879 -0.00018105469 z M 11.300779 0.25716758 L 12.326556 0.25716758 L 12.326556 0.49332887 L 11.932781 0.49332887 L 11.932781 1.6074728 L 11.694553 1.6074728 L 11.694553 0.49332887 L 11.300779 0.49332887 L 11.300779 0.25716758 z M 12.478484 0.25716758 L 12.766322 0.25716758 L 13.180767 0.75532839 L 13.614332 0.25716758 L 13.906304 0.25716758 L 13.328562 0.92120973 L 13.910438 1.6074728 L 13.622601 1.6074728 L 13.174566 1.0715882 L 12.714646 1.6074728 L 12.422674 1.6074728 L 13.026771 0.90363975 L 12.478484 0.25716758 z M 14.004489 0.25716758 L 14.1466 0.25716758 C 14.392598 0.25716758 14.460792 0.34562898 14.460792 0.57962852 L 14.460792 1.6074728 L 14.224631 1.6074728 L 14.224631 0.59564821 C 14.224631 0.52364835 14.198446 0.49332887 14.126446 0.49332887 L 14.004489 0.49332887 L 14.004489 0.25716758 z M 6.0003268 0.35431927 L 6.3336398 0.68763226 L 6.0003268 1.0209452 L 5.9052422 0.92792767 L 6.0783583 0.75429486 L 5.0670505 0.75429486 L 5.0670505 0.62096966 L 6.0783583 0.62096966 L 5.9052422 0.44785361 L 6.0003268 0.35431927 z M 5.3337009 0.88762005 L 5.4282687 0.98115439 L 5.2551527 1.1542704 L 6.2669772 1.1542704 L 6.2669772 1.2875956 L 5.2551527 1.2875956 L 5.4282687 1.4612285 L 5.3337009 1.554246 L 5.0003879 1.220933 L 5.3337009 0.88762005 z "
       transform="translate(-0.000176292, 16.5046)" /><path
       id="rect14-2-6"
       style="fill:#ffffff;fill-opacity:1;stroke:none;stroke-width:0.1;stroke-linecap:round;stroke-dasharray:none"
       d="M 5.0003879 2.4999247 C 4.7233885 2.4999247 4.50016 2.7231532 4.50016 3.0001526 L 4.50016 4.0000916 C 4.50016 4.277091 4.7233885 4.4998027 5.0003879 4.4998027 L 15.500005 4.4998027 C 15.777005 4.4998027 16.000233 4.277091 16.000233 4.0000916 L 16.000233 3.0001526 C 16.000233 2.7231532 15.777005 2.4999247 15.500005 2.4999247 L 5.0003879 2.4999247 z M 11.11681 2.7572734 L 11.848549 2.7572734 C 12.152547 2.7572734 12.282631 2.9453835 12.282631 3.1613831 C 12.282631 3.3293827 12.202343 3.50956 11.996343 3.5675598 L 12.310536 4.1075785 L 12.048536 4.1075785 L 11.740545 3.5856466 L 11.388628 3.5856466 C 11.366628 3.5856466 11.354522 3.5952363 11.354522 3.6192363 L 11.354522 4.1075785 L 11.118361 4.1075785 L 11.118361 3.5732442 C 11.118361 3.4212446 11.182751 3.3593038 11.330751 3.3593038 L 11.8563 3.3593038 C 11.9903 3.3593038 12.044402 3.2672014 12.044402 3.1712016 C 12.044402 3.0752018 11.9863 2.9934347 11.8563 2.9934347 L 11.11681 2.9934347 L 11.11681 2.7572734 z M 12.478484 2.7572734 L 12.766322 2.7572734 L 13.180767 3.2554342 L 13.614332 2.7572734 L 13.906304 2.7572734 L 13.328562 3.4213155 L 13.910438 4.1075785 L 13.622601 4.1075785 L 13.174566 3.5711772 L 12.714646 4.1075785 L 12.422674 4.1075785 L 13.026771 3.4032288 L 12.478484 2.7572734 z M 14.004489 2.7572734 L 14.1466 2.7572734 C 14.392598 2.7572734 14.460792 2.8452181 14.460792 3.0792175 L 14.460792 4.1075785 L 14.224631 4.1075785 L 14.224631 3.0952372 C 14.224631 3.0232374 14.198446 2.9934347 14.126446 2.9934347 L 14.004489 2.9934347 L 14.004489 2.7572734 z M 6.0003268 2.8792298 L 6.3336398 3.2125427 L 6.0003268 3.5458557 L 5.9052422 3.4523214 L 6.0783583 3.2792053 L 5.0670505 3.2792053 L 5.0670505 3.1458801 L 6.0783583 3.1458801 L 5.9052422 2.9727641 L 6.0003268 2.8792298 z M 5.3337009 3.4125305 L 5.4282687 3.5060649 L 5.2551527 3.6791809 L 6.2669772 3.6791809 L 6.2669772 3.8125061 L 5.2551527 3.8125061 L 5.4282687 3.9856222 L 5.3337009 4.0791565 L 5.0003879 3.7458435 L 5.3337009 3.4125305 z "
       transform="translate(-0.000176292, 16.5046)" /><path
       id="rect14-2-6-9"
       style="fill:#ffffff;fill-opacity:1;stroke:none;stroke-width:0.1;stroke-linecap:round;stroke-dasharray:none"
       d="M 5.0003879 5.0584249 C 4.7233888 5.0584249 4.50016 5.2811369 4.50016 5.558136 L 4.50016 6.5585917 C 4.50016 6.8355911 4.7233888 7.0583028 5.0003879 7.0583028 L 15.500005 7.0583028 C 15.777005 7.0583028 16.000233 6.8355911 16.000233 6.5585917 L 16.000233 5.558136 C 16.000233 5.2811369 15.777005 5.0584249 15.500005 5.0584249 L 5.0003879 5.0584249 z M 10.506512 5.2573792 L 11.532806 5.2573792 L 11.532806 5.4935405 L 11.138515 5.4935405 L 11.138515 6.6071676 L 10.900803 6.6071676 L 10.900803 5.4935405 L 10.506512 5.4935405 L 10.506512 5.2573792 z M 11.684734 5.2573792 L 11.972572 5.2573792 L 12.3865 5.75554 L 12.820582 5.2573792 L 13.112554 5.2573792 L 12.534812 5.9214213 L 13.116688 6.6071676 L 12.828334 6.6071676 L 12.380299 6.071283 L 11.920379 6.6071676 L 11.628407 6.6071676 L 12.232505 5.9033346 L 11.684734 5.2573792 z M 13.330629 5.2573792 L 14.104742 5.2573792 C 14.364739 5.2573792 14.510402 5.3912686 14.510402 5.639268 C 14.510402 5.8392674 14.414726 5.9515198 14.196726 6.0015198 L 13.634486 6.1276103 C 13.540486 6.1496103 13.522348 6.1994052 13.522348 6.2754049 L 13.522348 6.3436178 C 13.522348 6.3656178 13.530703 6.371523 13.548703 6.371523 L 14.474745 6.371523 L 14.474745 6.6071676 L 13.398325 6.6071676 C 13.322325 6.6071676 13.286704 6.5716135 13.286704 6.4976135 L 13.286704 6.2934916 C 13.286704 6.0734925 13.35281 5.9574016 13.58281 5.9054016 L 14.150734 5.775177 C 14.246734 5.753177 14.276307 5.7074021 14.276307 5.6434021 C 14.276307 5.5534024 14.218426 5.4935405 14.110426 5.4935405 L 13.330629 5.4935405 L 13.330629 5.2573792 z M 6.0003268 5.4041402 L 6.3336398 5.7374532 L 6.0003268 6.0707662 L 5.9052422 5.9772319 L 6.0783583 5.8041158 L 5.0670505 5.8041158 L 5.0670505 5.6707906 L 6.0783583 5.6707906 L 5.9052422 5.4976746 L 6.0003268 5.4041402 z M 5.3337009 5.937441 L 5.4282687 6.0309754 L 5.2551527 6.2040914 L 6.2669772 6.2040914 L 6.2669772 6.3374166 L 5.2551527 6.3374166 L 5.4282687 6.5105326 L 5.3337009 6.604067 L 5.0003879 6.270754 L 5.3337009 5.937441 z "
       transform="translate(-0.000176292, 16.5046)" /><path
       id="rect14-2-6-8"
       style="fill:#ffffff;fill-opacity:1;stroke:none;stroke-width:0.1;stroke-linecap:round;stroke-dasharray:none"
       d="M 5.0003879 7.5585307 C 4.7233885 7.5585307 4.50016 7.7812424 4.50016 8.0582418 L 4.50016 9.0581808 C 4.50016 9.3351802 4.7233885 9.5584086 5.0003879 9.5584086 L 15.500005 9.5584086 C 15.777005 9.5584086 16.000233 9.3351802 16.000233 9.0581808 L 16.000233 8.0582418 C 16.000233 7.7812424 15.777005 7.5585307 15.500005 7.5585307 L 5.0003879 7.5585307 z M 10.322544 7.757485 L 11.054799 7.757485 C 11.358797 7.757485 11.488364 7.9455951 11.488364 8.1615947 C 11.488364 8.3295943 11.408593 8.5092547 11.202593 8.5672547 L 11.516786 9.1072734 L 11.254786 9.1072734 L 10.946795 8.5853414 L 10.594362 8.5853414 C 10.572362 8.5853414 10.560772 8.5954479 10.560772 8.6194479 L 10.560772 9.1072734 L 10.324611 9.1072734 L 10.324611 8.5734558 C 10.324611 8.4214562 10.388484 8.3595154 10.536484 8.3595154 L 11.06255 8.3595154 C 11.19655 8.3595154 11.250652 8.267413 11.250652 8.1714132 C 11.250652 8.0754134 11.19255 7.9936463 11.06255 7.9936463 L 10.322544 7.9936463 L 10.322544 7.757485 z M 11.684734 7.757485 L 11.972572 7.757485 L 12.3865 8.2556458 L 12.820582 7.757485 L 13.112554 7.757485 L 12.534812 8.4215271 L 13.116688 9.1072734 L 12.828334 9.1072734 L 12.380299 8.5713888 L 11.920379 9.1072734 L 11.628407 9.1072734 L 12.232505 8.4034404 L 11.684734 7.757485 z M 13.330629 7.757485 L 14.104742 7.757485 C 14.36474 7.757485 14.510402 7.8913742 14.510402 8.1393738 C 14.510402 8.3393734 14.414726 8.4516256 14.196726 8.5016256 L 13.634486 8.6271993 C 13.540486 8.6491993 13.522348 8.6995109 13.522348 8.7755107 L 13.522348 8.8432068 C 13.522348 8.8652068 13.530703 8.8716288 13.548703 8.8716288 L 14.474745 8.8716288 L 14.474745 9.1072734 L 13.398325 9.1072734 C 13.322325 9.1072734 13.286704 9.0712024 13.286704 8.9972026 L 13.286704 8.7935974 C 13.286704 8.5735978 13.35281 8.4575074 13.58281 8.4055074 L 14.150734 8.2752828 C 14.246734 8.2532828 14.276307 8.2075077 14.276307 8.1435079 C 14.276307 8.0535081 14.218426 7.9936463 14.110426 7.9936463 L 13.330629 7.9936463 L 13.330629 7.757485 z M 6.0003268 7.9290507 L 6.3336398 8.2623637 L 6.0003268 8.5956767 L 5.9052422 8.5021424 L 6.0783583 8.3290263 L 5.0670505 8.3290263 L 5.0670505 8.1957011 L 6.0783583 8.1957011 L 5.9052422 8.0220683 L 6.0003268 7.9290507 z M 5.3337009 8.4623515 L 5.4282687 8.5553691 L 5.2551527 8.7290019 L 6.2669772 8.7290019 L 6.2669772 8.8623271 L 5.2551527 8.8623271 L 5.4282687 9.0354431 L 5.3337009 9.1289775 L 5.0003879 8.7956645 L 5.3337009 8.4623515 z "
       transform="translate(-0.000176292, 16.5046)" /><path
       id="rect141"
       style="fill:#ffffff;fill-opacity:1;stroke:none;stroke-width:0.1;stroke-linecap:round;stroke-dasharray:none"
       d="M 0.10973033 -0.0048319336 C -0.16726911 -0.0048319336 -0.39049754 0.21839649 -0.39049754 0.49539593 L -0.39049754 8.9956523 C -0.39049754 9.2726517 -0.16726911 9.4953634 0.10973033 9.4953634 L 3.1095472 9.4953634 C 3.3865466 9.4953634 3.6097751 9.2726517 3.6097751 8.9956523 L 3.6097751 0.49539593 C 3.6097751 0.21839649 3.3865466 -0.0048319336 3.1095472 -0.0048319336 L 0.10973033 -0.0048319336 z M 0.40531952 0.85609743 L 1.0424899 0.85609743 C 1.2248897 0.85609743 1.3137912 0.93795827 1.3137912 1.0891581 L 1.3137912 1.2643412 C 1.3137912 1.4335411 1.2106145 1.5392599 0.99701467 1.5392599 C 0.78341487 1.5392599 0.68023814 1.4335411 0.68023814 1.2643412 L 0.68023814 0.98477174 L 0.40531952 0.98477174 L 0.40531952 0.85609743 z M 0.80271129 0.98477174 L 0.80271129 1.2524557 C 0.80271129 1.3616556 0.8602148 1.4105855 0.99701467 1.4105855 C 1.1338146 1.4105855 1.1902845 1.3616556 1.1902845 1.2524557 L 1.1902845 1.1263652 C 1.1902845 1.0243653 1.1448054 0.98477174 1.0368055 0.98477174 L 0.80271129 0.98477174 z M 2.6217217 1.4353902 C 2.7345215 1.4353902 2.813958 1.4938131 2.813958 1.6426127 L 2.813958 2.0110657 L 2.6904514 2.0110657 L 2.6904514 1.6426127 C 2.6904514 1.5838129 2.669888 1.5599304 2.6206882 1.5599304 C 2.5702882 1.5599304 2.5498915 1.5862476 2.5498915 1.6498474 L 2.5498915 1.8002258 C 2.5498915 1.9754256 2.4620896 2.0183004 2.3648898 2.0183004 C 2.25089 2.0183004 2.180405 1.9597112 2.180405 1.8121114 L 2.180405 1.4601949 L 2.3028781 1.4601949 L 2.3028781 1.8105611 C 2.3028781 1.8693611 2.3267084 1.8937602 2.3747084 1.8937602 C 2.4191082 1.8937602 2.4429212 1.874643 2.4429212 1.8038432 L 2.4429212 1.6550151 C 2.4429212 1.4798153 2.5233219 1.4353902 2.6217217 1.4353902 z M 0.87454153 1.6648336 C 0.99094146 1.6648336 1.0569593 1.7238077 1.0569593 1.8798076 L 1.0569593 2.1810812 L 1.1024346 2.1810812 C 1.1528345 2.1810812 1.1902845 2.1535294 1.1902845 2.0839295 L 1.1902845 1.6963562 L 1.3137912 1.6963562 L 1.3137912 2.0839295 C 1.3137912 2.2423293 1.2250183 2.3045878 1.1050184 2.3045878 L 0.88901093 2.3045878 C 0.76901105 2.3045878 0.68023814 2.2423293 0.68023814 2.0839295 L 0.68023814 1.878774 C 0.68023814 1.7287742 0.75214165 1.6648336 0.87454153 1.6648336 z M 0.88177623 1.7898906 C 0.83377627 1.7898906 0.80271129 1.8174076 0.80271129 1.8798076 L 0.80271129 2.0839295 C 0.80271129 2.1535294 0.84084451 2.1810812 0.89004446 2.1810812 L 0.95722382 2.1810812 L 0.95722382 1.8834249 C 0.95722382 1.815025 0.92857618 1.7898906 0.88177623 1.7898906 z M 2.180405 2.113385 L 2.3028781 2.113385 L 2.3028781 2.3366272 C 2.3028781 2.3930272 2.3293269 2.4177592 2.3845269 2.4177592 L 2.813958 2.4177592 L 2.813958 2.5454 L 2.3648898 2.5454 C 2.2376902 2.5454 2.180405 2.498634 2.180405 2.3738342 L 2.180405 2.113385 z M 0.87454153 2.4472148 C 0.99094146 2.4472148 1.0569593 2.5061889 1.0569593 2.6621887 L 1.0569593 2.9634623 L 1.1024346 2.9634623 C 1.1528345 2.9634623 1.1902845 2.9359106 1.1902845 2.8663106 L 1.1902845 2.4787374 L 1.3137912 2.4787374 L 1.3137912 2.8663106 C 1.3137912 3.0247105 1.2250183 3.086969 1.1050184 3.086969 L 0.88901093 3.086969 C 0.76901105 3.086969 0.68023814 3.0247105 0.68023814 2.8663106 L 0.68023814 2.6611552 C 0.68023814 2.5111554 0.75214165 2.4472148 0.87454153 2.4472148 z M 0.88177623 2.5722717 C 0.83377627 2.5722717 0.80271129 2.5997888 0.80271129 2.6621887 L 0.80271129 2.8663106 C 0.80271129 2.9359106 0.84084451 2.9634623 0.89004446 2.9634623 L 0.95722382 2.9634623 L 0.95722382 2.6658061 C 0.95722382 2.5974062 0.92857618 2.5722717 0.88177623 2.5722717 z M 1.9416599 2.725234 L 2.0889377 2.725234 L 2.0889377 2.8533915 L 1.9416599 2.8533915 L 1.9416599 2.725234 z M 2.180405 2.7262675 L 2.813958 2.7262675 L 2.813958 2.8533915 L 2.180405 2.8533915 L 2.180405 2.7262675 z M 2.3891778 3.0337423 L 2.686834 3.0337423 C 2.7780338 3.0337423 2.813958 3.0576839 2.813958 3.1644837 L 2.813958 3.4605896 C 2.813958 3.6105894 2.740688 3.6729798 2.6206882 3.6729798 C 2.5054884 3.6729798 2.4382704 3.6155557 2.4382704 3.4595561 L 2.4382704 3.1582825 L 2.3902113 3.1582825 C 2.3410113 3.1582825 2.3028781 3.1858342 2.3028781 3.2554342 L 2.3028781 3.6347392 L 2.180405 3.6347392 L 2.180405 3.2544007 C 2.180405 3.0960009 2.269178 3.0337423 2.3891778 3.0337423 z M 2.5390394 3.1582825 L 2.5390394 3.4569723 C 2.5390394 3.5241721 2.5666535 3.5484396 2.6134535 3.5484396 C 2.6602533 3.5484396 2.6904514 3.5231559 2.6904514 3.4595561 L 2.6904514 3.1934225 C 2.6904514 3.1682225 2.6806952 3.1582825 2.6578952 3.1582825 L 2.5390394 3.1582825 z M 0.99701467 3.2259786 C 1.2106145 3.2259786 1.3137912 3.3318639 1.3137912 3.4998637 L 1.3137912 3.7804667 L 1.5680392 3.7804667 L 1.5680392 3.9075908 L 0.95153941 3.9075908 C 0.76913958 3.9075908 0.68023814 3.8274467 0.68023814 3.6750468 L 0.68023814 3.4998637 C 0.68023814 3.3318639 0.78341487 3.2259786 0.99701467 3.2259786 z M 0.99701467 3.3546529 C 0.8602148 3.3546529 0.80271129 3.4023829 0.80271129 3.5127828 L 0.80271129 3.6378398 C 0.80271129 3.7410397 0.84802392 3.7804667 0.95722382 3.7804667 L 1.1902845 3.7804667 L 1.1902845 3.5127828 C 1.1902845 3.4023829 1.1338146 3.3546529 0.99701467 3.3546529 z M 2.246034 3.7473938 C 2.3684338 3.7473938 2.5007989 3.8182434 2.5007989 4.007843 L 2.5007989 4.260024 C 2.5007989 4.273224 2.5065527 4.2801778 2.5209527 4.2801778 L 2.813958 4.2801778 L 2.813958 4.4217713 L 2.4935642 4.4217713 C 2.4023642 4.4217713 2.3648898 4.383447 2.3648898 4.2946472 L 2.3648898 4.0031922 C 2.3648898 3.9227922 2.3096687 3.8905375 2.2532687 3.8905375 C 2.1944689 3.8905375 2.145265 3.9253588 2.145265 4.0021586 L 2.145265 4.4233215 L 2.0036716 4.4233215 L 2.0036716 4.007843 C 2.0036716 3.8254434 2.1164344 3.7473938 2.246034 3.7473938 z M 1.0760796 4.0553854 C 1.2128795 4.0553854 1.3137912 4.1284509 1.3137912 4.3132507 L 1.3137912 4.764386 L 1.1721978 4.764386 L 1.1721978 4.3085999 C 1.1721978 4.2317999 1.1302287 4.1969788 1.0714287 4.1969788 C 1.0186287 4.1969788 0.97065969 4.2245029 0.97065969 4.3241028 L 0.97065969 4.5127218 C 0.97065969 4.7287216 0.84936534 4.7788554 0.73656545 4.7788554 C 0.60216558 4.7788554 0.50402151 4.707191 0.50402151 4.5271912 L 0.50402151 4.1163635 L 0.64561493 4.1163635 L 0.64561493 4.5318421 C 0.64561493 4.605042 0.68533315 4.637262 0.7417331 4.637262 C 0.79093305 4.637262 0.8373345 4.6121726 0.8373345 4.5173727 L 0.8373345 4.3277201 C 0.8373345 4.1069204 0.95967969 4.0553854 1.0760796 4.0553854 z M 0.68023814 4.87394 L 0.80271129 4.87394 L 0.80271129 5.0971822 C 0.80271129 5.1535822 0.8291601 5.178831 0.88436005 5.178831 L 1.3137912 5.178831 L 1.3137912 5.305955 L 0.86523977 5.305955 C 0.7380399 5.305955 0.68023814 5.2591891 0.68023814 5.1343893 L 0.68023814 4.87394 z M 2.3891778 4.9282003 L 2.686834 4.9282003 C 2.7780338 4.9282003 2.813958 4.9526586 2.813958 5.0594584 L 2.813958 5.3555644 C 2.813958 5.505564 2.740688 5.5679545 2.6206882 5.5679545 C 2.5054884 5.5679545 2.4382704 5.5105305 2.4382704 5.3545309 L 2.4382704 5.0532573 L 2.3902113 5.0532573 C 2.3410113 5.0532573 2.3028781 5.080809 2.3028781 5.150409 L 2.3028781 5.529714 L 2.180405 5.529714 L 2.180405 5.1493754 C 2.180405 4.9909758 2.269178 4.9282003 2.3891778 4.9282003 z M 2.5390394 5.0532573 L 2.5390394 5.351947 C 2.5390394 5.419147 2.5666535 5.4434143 2.6134535 5.4434143 C 2.6602533 5.4434143 2.6904514 5.4181307 2.6904514 5.3545309 L 2.6904514 5.0878805 C 2.6904514 5.0626805 2.6806952 5.0532573 2.6578952 5.0532573 L 2.5390394 5.0532573 z M 0.87454153 5.4604675 C 0.99094146 5.4604675 1.0569593 5.5194417 1.0569593 5.6754415 L 1.0569593 5.9767151 L 1.1024346 5.9767151 C 1.1528345 5.9767151 1.1902845 5.9491633 1.1902845 5.8795634 L 1.1902845 5.4919902 L 1.3137912 5.4919902 L 1.3137912 5.8795634 C 1.3137912 6.0379633 1.2250183 6.1002218 1.1050184 6.1002218 L 0.88901093 6.1002218 C 0.76901105 6.1002218 0.68023814 6.0379633 0.68023814 5.8795634 L 0.68023814 5.674408 C 0.68023814 5.5244081 0.75214165 5.4604675 0.87454153 5.4604675 z M 0.88177623 5.5855245 C 0.83377627 5.5855245 0.80271129 5.6130416 0.80271129 5.6754415 L 0.80271129 5.8795634 C 0.80271129 5.9491633 0.84084451 5.9767151 0.89004446 5.9767151 L 0.95722382 5.9767151 L 0.95722382 5.6790589 C 0.95722382 5.6106589 0.92857618 5.5855245 0.88177623 5.5855245 z M 2.180405 5.6785421 L 2.3028781 5.6785421 L 2.3028781 5.8537252 L 2.6026014 5.8537252 C 2.6734014 5.8537252 2.6976861 5.8284589 2.6976861 5.7684591 L 2.6976861 5.6806091 L 2.813958 5.6806091 L 2.813958 5.7948141 C 2.813958 5.9256137 2.7609665 5.9818827 2.5953667 5.9818827 L 2.3028781 5.9818827 L 2.3028781 6.0681824 L 2.180405 6.0681824 L 2.180405 5.9818827 L 2.0300266 5.9818827 L 2.0300266 5.8537252 L 2.180405 5.8537252 L 2.180405 5.6785421 z M 2.3891778 6.1849711 L 2.686834 6.1849711 C 2.7780338 6.1849711 2.813958 6.2089127 2.813958 6.3157125 L 2.813958 6.6118185 C 2.813958 6.7618182 2.740688 6.8242086 2.6206882 6.8242086 C 2.5054884 6.8242086 2.4382704 6.7667848 2.4382704 6.6107849 L 2.4382704 6.3095113 L 2.3902113 6.3095113 C 2.3410113 6.3095113 2.3028781 6.3370632 2.3028781 6.406663 L 2.3028781 6.785968 L 2.180405 6.785968 L 2.180405 6.4056295 C 2.180405 6.2472299 2.269178 6.1849711 2.3891778 6.1849711 z M 0.99701467 6.2392314 C 1.2106145 6.2392314 1.3137912 6.3451166 1.3137912 6.5131165 L 1.3137912 6.7937195 L 1.5680392 6.7937195 L 1.5680392 6.9208435 L 0.95153941 6.9208435 C 0.76913958 6.9208435 0.68023814 6.8406995 0.68023814 6.6882996 L 0.68023814 6.5131165 C 0.68023814 6.3451166 0.78341487 6.2392314 0.99701467 6.2392314 z M 2.5390394 6.3095113 L 2.5390394 6.6082011 C 2.5390394 6.6754009 2.5666535 6.6996684 2.6134535 6.6996684 C 2.6602533 6.6996684 2.6904514 6.6743849 2.6904514 6.6107849 L 2.6904514 6.3446513 C 2.6904514 6.3194513 2.6806952 6.3095113 2.6578952 6.3095113 L 2.5390394 6.3095113 z M 0.99701467 6.3679057 C 0.8602148 6.3679057 0.80271129 6.4156357 0.80271129 6.5260356 L 0.80271129 6.6510925 C 0.80271129 6.7542924 0.84802392 6.7937195 0.95722382 6.7937195 L 1.1902845 6.7937195 L 1.1902845 6.5260356 C 1.1902845 6.4156357 1.1338146 6.3679057 0.99701467 6.3679057 z M 2.4093316 6.9492656 C 2.681731 6.9492656 2.813958 7.0765016 2.813958 7.3141012 L 2.813958 7.5998718 C 2.813958 7.6454718 2.7922122 7.6670512 2.7478122 7.6670512 L 2.0698174 7.6670512 C 2.0254174 7.6670512 2.0036716 7.6454718 2.0036716 7.5998718 L 2.0036716 7.3141012 C 2.0036716 7.0777016 2.135732 6.9492656 2.4093316 6.9492656 z M 2.408298 7.090859 C 2.2234984 7.090859 2.145265 7.1569014 2.145265 7.3141012 L 2.145265 7.5094381 C 2.145265 7.5202381 2.1489344 7.5254578 2.1597344 7.5254578 L 2.6578952 7.5254578 C 2.6686952 7.5254578 2.6723646 7.5202381 2.6723646 7.5094381 L 2.6723646 7.3141012 C 2.6723646 7.1569014 2.5942978 7.090859 2.408298 7.090859 z M 0.68023814 7.0975769 L 1.064194 7.0975769 C 1.2105939 7.0975769 1.3137912 7.1907789 1.3137912 7.3719788 L 1.3137912 7.489801 C 1.3137912 7.6710009 1.2105939 7.7647197 1.064194 7.7647197 L 0.68023814 7.7647197 L 0.68023814 7.6360453 L 1.0595432 7.6360453 C 1.1339431 7.6360453 1.1902845 7.5807824 1.1902845 7.4799825 L 1.1902845 7.3771464 C 1.1902845 7.2763464 1.1339431 7.2221171 1.0595432 7.2221171 L 0.68023814 7.2221171 L 0.68023814 7.0975769 z M 1.0760796 7.910964 C 1.2128795 7.910964 1.3137912 7.9840295 1.3137912 8.1688294 L 1.3137912 8.6199646 L 1.1721978 8.6199646 L 1.1721978 8.1641785 C 1.1721978 8.0873786 1.1302287 8.0525574 1.0714287 8.0525574 C 1.0186287 8.0525574 0.97065969 8.0800815 0.97065969 8.1796814 L 0.97065969 8.3683004 C 0.97065969 8.5843002 0.84936534 8.634434 0.73656545 8.634434 C 0.60216558 8.634434 0.50402151 8.5627696 0.50402151 8.3827698 L 0.50402151 7.9724589 L 0.64561493 7.9724589 L 0.64561493 8.3874207 C 0.64561493 8.4606206 0.68533315 8.4928406 0.7417331 8.4928406 C 0.79093305 8.4928406 0.8373345 8.4677512 0.8373345 8.3729513 L 0.8373345 8.1832988 C 0.8373345 7.962499 0.95967969 7.910964 1.0760796 7.910964 z "
       transform="translate(-0.000176292, 16.5046)" /><g
       id="text143"
       style="font-size:1.2px;line-height:1.5px;font-family:Nasalization;-inkscape-font-specification:Nasalization;text-align:end;text-anchor:end;fill:#ffffff;stroke-width:0.1;stroke-linecap:round"
       transform="matrix(6.12303e-17 -1 1 6.12303e-17 -0.000176292 16.5046)"
       aria-label="SuperSpeed&#10; Data Pairs" /><path
       id="rect14-5-6"
       style="fill:#ffffff;fill-opacity:1;stroke:none;stroke-width:0.1;stroke-linecap:round;stroke-dasharray:none"
       d="M 9.0001437 0.00013020833 C 8.723144 0.00013020833 8.5004326 0.22284159 8.5004326 0.49984131 L 8.5004326 1.4997803 C 8.5004326 1.77678 8.723144 2.0000081 9.0001437 2.0000081 L 15.500005 2.0000081 C 15.777005 2.0000081 16.000233 1.77678 16.000233 1.4997803 L 16.000233 0.49984131 C 16.000233 0.22284159 15.777005 0.00013020833 15.500005 0.00013020833 L 9.0001437 0.00013020833 z M 10.160796 0.27349854 L 10.844476 0.27349854 L 10.844476 0.50965983 L 10.152528 0.50965983 C 10.030529 0.50965983 9.9763115 0.5753401 9.9763115 0.66934001 C 9.9763115 0.75133992 10.018299 0.82953695 10.176299 0.82953695 L 10.492559 0.82953695 C 10.860559 0.82953695 10.946795 1.0334457 10.946795 1.2274455 C 10.946795 1.4554452 10.82433 1.6232869 10.51633 1.6232869 L 9.7644382 1.6232869 L 9.7644382 1.3876424 L 10.524598 1.3876424 C 10.652598 1.3876424 10.710634 1.3171771 10.710634 1.2191772 C 10.710634 1.1311773 10.66476 1.0512288 10.49876 1.0512288 L 10.184568 1.0512288 C 9.8245683 1.0512288 9.740667 0.84958835 9.740667 0.66158854 C 9.740667 0.43758877 9.8607971 0.27349854 10.160796 0.27349854 z M 11.320416 0.27349854 L 11.914695 0.27349854 C 12.232694 0.27349854 12.366347 0.42350201 12.366347 0.64350179 C 12.366347 0.79950163 12.29856 0.89322515 12.17256 0.9432251 C 12.30056 0.99522506 12.372548 1.0952168 12.372548 1.2512166 C 12.372548 1.4672164 12.238379 1.6232869 11.920379 1.6232869 L 11.320416 1.6232869 C 11.244416 1.6232869 11.208794 1.5872161 11.208794 1.5132161 L 11.208794 0.38356934 C 11.208794 0.30956941 11.244416 0.27349854 11.320416 0.27349854 z M 12.636614 0.27349854 L 12.876393 0.27349854 L 12.876393 1.1752523 C 12.876393 1.3092521 12.944669 1.3876424 13.100669 1.3876424 L 13.340447 1.3876424 C 13.492447 1.3876424 13.562656 1.3092521 13.562656 1.1752523 L 13.562656 0.27349854 L 13.794683 0.27349854 L 13.794683 1.193339 C 13.794683 1.4773387 13.644467 1.6232869 13.356467 1.6232869 L 13.072763 1.6232869 C 12.784764 1.6232869 12.636614 1.4773387 12.636614 1.193339 L 12.636614 0.27349854 z M 14.004489 0.27349854 L 14.1466 0.27349854 C 14.392599 0.27349854 14.460792 0.36144294 14.460792 0.59544271 L 14.460792 1.6232869 L 14.224631 1.6232869 L 14.224631 0.6114624 C 14.224631 0.53946247 14.198446 0.50965983 14.126446 0.50965983 L 14.004489 0.50965983 L 14.004489 0.27349854 z M 11.46666 0.50552572 C 11.45066 0.50552572 11.440305 0.51329689 11.440305 0.52929687 L 11.440305 0.84348958 L 11.920379 0.84348958 C 12.060379 0.84348958 12.128635 0.79122548 12.128635 0.68122559 C 12.128635 0.57522569 12.066446 0.50552572 11.922446 0.50552572 L 11.46666 0.50552572 z M 11.440305 1.0393433 L 11.440305 1.3674886 C 11.440305 1.3834886 11.45066 1.3891927 11.46666 1.3891927 L 11.92658 1.3891927 C 12.06858 1.3891927 12.134319 1.3234927 12.134319 1.2134928 C 12.134319 1.099493 12.06458 1.0393433 11.92658 1.0393433 L 11.440305 1.0393433 z "
       transform="translate(-0.000176292, 27.5)" /><path
       id="rect14-2-6-2"
       style="fill:#ffffff;fill-opacity:1;stroke:none;stroke-width:0.1;stroke-linecap:round;stroke-dasharray:none"
       d="M 9.0001437 2.500236 C 8.723144 2.500236 8.5004326 2.7229474 8.5004326 2.9999471 L 8.5004326 3.9998861 C 8.5004326 4.2768858 8.723144 4.5001139 9.0001437 4.5001139 L 15.500005 4.5001139 C 15.777005 4.5001139 16.000233 4.2768858 16.000233 3.9998861 L 16.000233 2.9999471 C 16.000233 2.7229474 15.777005 2.500236 15.500005 2.500236 L 9.0001437 2.500236 z M 9.3665296 2.7736043 L 10.050726 2.7736043 L 10.050726 3.0092489 L 9.3587782 3.0092489 C 9.2367783 3.0092489 9.1825615 3.0754459 9.1825615 3.1694458 C 9.1825615 3.2514457 9.2245495 3.3296427 9.3825493 3.3296427 L 9.6988091 3.3296427 C 10.066809 3.3296427 10.152528 3.5335515 10.152528 3.7275513 C 10.152528 3.955551 10.03058 4.1233927 9.7225803 4.1233927 L 8.9706882 4.1233927 L 8.9706882 3.8872314 L 9.7303317 3.8872314 C 9.8583316 3.8872314 9.9163669 3.8172829 9.9163669 3.719283 C 9.9163669 3.6312831 9.8704933 3.5513346 9.7044935 3.5513346 L 9.3903008 3.5513346 C 9.0303012 3.5513346 8.9464003 3.3491774 8.9464003 3.1611776 C 8.9464003 2.9371778 9.0665299 2.7736043 9.3665296 2.7736043 z M 10.526666 2.7736043 L 11.120428 2.7736043 C 11.438427 2.7736043 11.572597 2.9236078 11.572597 3.1436076 C 11.572597 3.2996074 11.50481 3.3933309 11.37881 3.4433309 C 11.50681 3.4953308 11.578798 3.5953226 11.578798 3.7513224 C 11.578798 3.9673222 11.444629 4.1233927 11.126629 4.1233927 L 10.526666 4.1233927 C 10.450666 4.1233927 10.414528 4.0873219 10.414528 4.0133219 L 10.414528 2.8836751 C 10.414528 2.8096752 10.450666 2.7736043 10.526666 2.7736043 z M 11.842348 2.7736043 L 12.082643 2.7736043 L 12.082643 3.6753581 C 12.082643 3.8093579 12.150402 3.8872314 12.306402 3.8872314 L 12.546697 3.8872314 C 12.698697 3.8872314 12.768389 3.8093579 12.768389 3.6753581 L 12.768389 2.7736043 L 13.000416 2.7736043 L 13.000416 3.6934448 C 13.000416 3.9774445 12.850717 4.1233927 12.562717 4.1233927 L 12.278497 4.1233927 C 11.990497 4.1233927 11.842348 3.9774445 11.842348 3.6934448 L 11.842348 2.7736043 z M 13.330629 2.7736043 L 14.104742 2.7736043 C 14.364741 2.7736043 14.510402 2.9074934 14.510402 3.1554932 C 14.510402 3.355493 14.414726 3.4672282 14.196726 3.5172282 L 13.634486 3.6433187 C 13.540486 3.6653187 13.522348 3.7156301 13.522348 3.79163 L 13.522348 3.8593262 C 13.522348 3.8813261 13.530703 3.8872314 13.548703 3.8872314 L 14.474745 3.8872314 L 14.474745 4.1233927 L 13.398325 4.1233927 C 13.322325 4.1233927 13.286704 4.0873219 13.286704 4.0133219 L 13.286704 3.8092 C 13.286704 3.5892003 13.35281 3.4736267 13.58281 3.4216268 L 14.150734 3.2914022 C 14.246734 3.2694022 14.276307 3.2236272 14.276307 3.1596273 C 14.276307 3.0696274 14.218426 3.0092489 14.110426 3.0092489 L 13.330629 3.0092489 L 13.330629 2.7736043 z M 10.672393 3.0056315 C 10.656393 3.0056315 10.646555 3.0134027 10.646555 3.0294027 L 10.646555 3.3435954 L 11.126629 3.3435954 C 11.266629 3.3435954 11.334368 3.2913313 11.334368 3.1813314 C 11.334368 3.0753315 11.272696 3.0056315 11.128696 3.0056315 L 10.672393 3.0056315 z M 10.646555 3.5394491 L 10.646555 3.8675944 C 10.646555 3.8835944 10.656393 3.8892985 10.672393 3.8892985 L 11.132313 3.8892985 C 11.274313 3.8892985 11.340569 3.8235985 11.340569 3.7135986 C 11.340569 3.5995987 11.270313 3.5394491 11.132313 3.5394491 L 10.646555 3.5394491 z "
       transform="translate(-0.000176292, 27.5)" /><path
       id="rect141-5"
       style="fill:#ffffff;fill-opacity:1;stroke:none;stroke-width:0.1;stroke-linecap:round;stroke-dasharray:none"
       d="M 0.10973033 0.00013020833 C -0.16726911 0.00013020833 -0.39049754 0.22284187 -0.39049754 0.49984131 L -0.39049754 3.9998861 C -0.39049754 4.2768855 -0.16726911 4.5001139 0.10973033 4.5001139 L 7.1098198 4.5001139 C 7.3868194 4.5001139 7.6095309 4.2768855 7.6095309 3.9998861 L 7.6095309 0.49984131 C 7.6095309 0.22284187 7.3868194 0.00013020833 7.1098198 0.00013020833 L 0.10973033 0.00013020833 z M 2.3323337 0.88741455 L 2.4604912 0.88741455 L 2.4604912 1.524585 C 2.4604912 1.7069848 2.3791471 1.7958862 2.2279473 1.7958862 L 2.0527642 1.7958862 C 1.8835644 1.7958862 1.7778456 1.6927095 1.7778456 1.4791097 C 1.7778456 1.2655098 1.8835644 1.1623332 2.0527642 1.1623332 L 2.3323337 1.1623332 L 2.3323337 0.88741455 z M 3.4242567 0.88741455 L 3.5513807 0.88741455 L 3.5513807 1.1623332 L 3.8325005 1.1623332 C 4.0005003 1.1623332 4.1058688 1.2655098 4.1058688 1.4791097 C 4.1058688 1.6927095 4.0005003 1.7958862 3.8325005 1.7958862 L 3.6573174 1.7958862 C 3.5049176 1.7958862 3.4242567 1.7069848 3.4242567 1.524585 L 3.4242567 0.88741455 z M 6.4375095 0.88741455 L 6.565667 0.88741455 L 6.565667 1.524585 C 6.565667 1.7069848 6.484323 1.7958862 6.3331231 1.7958862 L 6.15794 1.7958862 C 5.9887401 1.7958862 5.8830213 1.6927095 5.8830213 1.4791097 C 5.8830213 1.2655098 5.9887401 1.1623332 6.15794 1.1623332 L 6.4375095 1.1623332 L 6.4375095 0.88741455 z M 1.4982761 0.92358805 L 1.6264336 0.92358805 L 1.6264336 1.0708659 L 1.4982761 1.0708659 L 1.4982761 0.92358805 z M 0.87660858 0.98559977 L 1.2869195 0.98559977 L 1.2869195 1.1271932 L 0.8719577 1.1271932 C 0.79875777 1.1271932 0.76602102 1.1669114 0.76602102 1.2233114 C 0.76602102 1.2725113 0.7916272 1.3194295 0.88642711 1.3194295 L 1.0760796 1.3194295 C 1.2968794 1.3194295 1.3484144 1.4417748 1.3484144 1.5581746 C 1.3484144 1.6949745 1.2748321 1.7958862 1.0900322 1.7958862 L 0.638897 1.7958862 L 0.638897 1.6542928 L 1.0951999 1.6542928 C 1.1719998 1.6542928 1.206821 1.6123237 1.206821 1.5535238 C 1.206821 1.5007238 1.1792969 1.4527547 1.079697 1.4527547 L 0.89107798 1.4527547 C 0.67507819 1.4527547 0.62442759 1.3314605 0.62442759 1.2186605 C 0.62442759 1.0842607 0.69660875 0.98559977 0.87660858 0.98559977 z M 1.4982761 1.1623332 L 1.6254001 1.1623332 L 1.6254001 1.7958862 L 1.4982761 1.7958862 L 1.4982761 1.1623332 z M 2.8496148 1.1623332 L 3.0547702 1.1623332 C 3.2047701 1.1623332 3.2681939 1.2342366 3.2681939 1.3566366 C 3.2681939 1.4730364 3.2092198 1.5390544 3.0532199 1.5390544 L 2.7524631 1.5390544 L 2.7524631 1.5845296 C 2.7524631 1.6349296 2.7800148 1.6723796 2.8496148 1.6723796 L 3.237188 1.6723796 L 3.237188 1.7958862 L 2.8496148 1.7958862 C 2.6912149 1.7958862 2.6284396 1.7071133 2.6284396 1.5871134 L 2.6284396 1.371106 C 2.6284396 1.251106 2.6912149 1.1623332 2.8496148 1.1623332 z M 4.2836358 1.1623332 L 4.6639743 1.1623332 C 4.8223741 1.1623332 4.8846327 1.251106 4.8846327 1.371106 L 4.8846327 1.6687622 C 4.8846327 1.7599621 4.8606912 1.7958862 4.7538913 1.7958862 L 4.4572686 1.7958862 C 4.3072687 1.7958862 4.2448784 1.7226163 4.2448784 1.6026164 C 4.2448784 1.4874165 4.302819 1.4201986 4.4588189 1.4201986 L 4.7600925 1.4201986 L 4.7600925 1.3721395 C 4.7600925 1.3229395 4.7320239 1.2848063 4.662424 1.2848063 L 4.2836358 1.2848063 L 4.2836358 1.1623332 z M 5.1533501 1.1623332 L 5.4148329 1.1623332 C 5.6296327 1.1623332 5.7341932 1.2641189 5.7341932 1.4393188 L 5.7341932 1.7958862 L 5.6060357 1.7958862 L 5.6060357 1.4393188 C 5.6060357 1.3397189 5.5480327 1.2848063 5.4148329 1.2848063 L 5.2076104 1.2848063 C 5.1968104 1.2848063 5.1921074 1.2903763 5.1921074 1.3023763 L 5.1921074 1.7958862 L 5.0644667 1.7958862 L 5.0644667 1.2605184 C 5.0644667 1.1861185 5.0897502 1.1623332 5.1533501 1.1623332 z M 2.0646498 1.2848063 C 1.9554499 1.2848063 1.9065199 1.3423098 1.9065199 1.4791097 C 1.9065199 1.6159096 1.9554499 1.6723796 2.0646498 1.6723796 L 2.1907403 1.6723796 C 2.2927402 1.6723796 2.3323337 1.6263837 2.3323337 1.5183838 L 2.3323337 1.2848063 L 2.0646498 1.2848063 z M 2.8496148 1.2848063 C 2.7800148 1.2848063 2.7524631 1.3229395 2.7524631 1.3721395 L 2.7524631 1.4393188 L 3.0501193 1.4393188 C 3.1185193 1.4393188 3.1436537 1.4106712 3.1436537 1.3638713 C 3.1436537 1.3158713 3.1156198 1.2848063 3.0532199 1.2848063 L 2.8496148 1.2848063 z M 3.5513807 1.2848063 L 3.5513807 1.5183838 C 3.5513807 1.6263837 3.5913245 1.6723796 3.6945244 1.6723796 L 3.8190646 1.6723796 C 3.9294645 1.6723796 3.9777113 1.6159096 3.9777113 1.4791097 C 3.9777113 1.3423098 3.9294645 1.2848063 3.8190646 1.2848063 L 3.5513807 1.2848063 z M 6.1698255 1.2848063 C 6.0606257 1.2848063 6.0116957 1.3423098 6.0116957 1.4791097 C 6.0116957 1.6159096 6.0606257 1.6723796 6.1698255 1.6723796 L 6.295916 1.6723796 C 6.397916 1.6723796 6.4375095 1.6263837 6.4375095 1.5183838 L 6.4375095 1.2848063 L 6.1698255 1.2848063 z M 4.4608859 1.5209676 C 4.393686 1.5209676 4.3699354 1.5485817 4.3699354 1.5953817 C 4.3699354 1.6421816 4.3952189 1.6723796 4.4588189 1.6723796 L 4.7249525 1.6723796 C 4.7501525 1.6723796 4.7600925 1.6626234 4.7600925 1.6398234 L 4.7600925 1.5209676 L 4.4608859 1.5209676 z M 0.43322479 2.2217 L 0.45131155 2.2217 L 0.45131155 2.30955 L 0.43322479 2.30955 C 0.25682514 2.30955 0.1970635 2.3884287 0.1970635 2.6356283 L 0.1970635 3.1983846 C 0.1970635 3.4455842 0.25682514 3.5249797 0.43322479 3.5249797 L 0.45131155 3.5249797 L 0.45131155 3.6128296 L 0.43322479 3.6128296 C 0.19322526 3.6128296 0.10921356 3.4880487 0.10921356 3.1880493 L 0.10921356 2.6464803 C 0.10921356 2.3464809 0.19322526 2.2217 0.43322479 2.2217 z M 6.7682386 2.2217 L 6.7863254 2.2217 C 7.0263249 2.2217 7.1098198 2.3464809 7.1098198 2.6464803 L 7.1098198 3.1880493 C 7.1098198 3.4880487 7.0263249 3.6128296 6.7863254 3.6128296 L 6.7682386 3.6128296 L 6.7682386 3.5249797 L 6.7863254 3.5249797 C 6.9627251 3.5249797 7.0224867 3.4455842 7.0224867 3.1983846 L 7.0224867 2.6356283 C 7.0224867 2.3884287 6.9627251 2.30955 6.7863254 2.30955 L 6.7682386 2.30955 L 6.7682386 2.2217 z M 1.3825209 2.3875814 L 1.5096449 2.3875814 L 1.5096449 3.2960531 L 1.3825209 3.2960531 L 1.3825209 2.3875814 z M 5.0303602 2.3875814 L 5.1590345 2.3875814 L 5.1590345 3.0247518 C 5.1590345 3.2071514 5.0771736 3.2960531 4.9259738 3.2960531 L 4.7507907 3.2960531 C 4.5815911 3.2960531 4.4758721 3.1923594 4.4758721 2.9787598 C 4.4758721 2.7651602 4.5815911 2.6619832 4.7507907 2.6619832 L 5.0303602 2.6619832 L 5.0303602 2.3875814 z M 1.7148003 2.5121216 L 1.8434746 2.5121216 L 1.8434746 2.6619832 L 2.0186577 2.6619832 L 2.0186577 2.7844564 L 1.8434746 2.7844564 L 1.8434746 3.0846965 C 1.8434746 3.1554963 1.868224 3.1792643 1.928224 3.1792643 L 2.0160739 3.1792643 L 2.0160739 3.2960531 L 1.901869 3.2960531 C 1.7710692 3.2960531 1.7148003 3.2430614 1.7148003 3.0774618 L 1.7148003 2.7844564 L 1.6285007 2.7844564 L 1.6285007 2.6619832 L 1.7148003 2.6619832 L 1.7148003 2.5121216 z M 0.6011732 2.6619832 L 0.98151174 2.6619832 C 1.1399114 2.6619832 1.2026869 2.7507562 1.2026869 2.870756 L 1.2026869 3.1684123 C 1.2026869 3.2596121 1.1782285 3.2960531 1.0714287 3.2960531 L 0.77532278 3.2960531 C 0.62532307 3.2960531 0.56293264 3.222783 0.56293264 3.1027832 C 0.56293264 2.9875834 0.6203566 2.9203654 0.77635631 2.9203654 L 1.0776299 2.9203654 L 1.0776299 2.8723063 C 1.0776299 2.8231065 1.050078 2.7844564 0.98047821 2.7844564 L 0.6011732 2.7844564 L 0.6011732 2.6619832 z M 2.5514418 2.6619832 L 3.2030816 2.6619832 C 3.4178812 2.6619832 3.5234754 2.7642861 3.5234754 2.9394857 L 3.5234754 3.2960531 L 3.3948011 3.2960531 L 3.3948011 2.9394857 C 3.3948011 2.8398859 3.3373149 2.7844564 3.2041151 2.7844564 L 3.055287 2.7844564 L 3.055287 3.2960531 L 2.9271294 3.2960531 L 2.9271294 2.7844564 L 2.6051852 2.7844564 C 2.5943854 2.7844564 2.5896823 2.7905431 2.5896823 2.8025431 L 2.5896823 3.2960531 L 2.4625583 3.2960531 L 2.4625583 2.7606852 C 2.4625583 2.6862854 2.4878418 2.6619832 2.5514418 2.6619832 z M 3.9456719 2.6619832 L 4.0789971 2.6619832 C 4.2469967 2.6619832 4.3539157 2.7651602 4.3539157 2.9787598 C 4.3539157 3.1923594 4.2469967 3.2960531 4.0789971 3.2960531 L 3.9456719 3.2960531 C 3.7764722 3.2960531 3.6707533 3.1923594 3.6707533 2.9787598 C 3.6707533 2.7651602 3.7764722 2.6619832 3.9456719 2.6619832 z M 5.5476413 2.6619832 L 5.7527967 2.6619832 C 5.9027965 2.6619832 5.9662204 2.7344036 5.9662204 2.8568034 C 5.9662204 2.9732032 5.907763 3.0392212 5.7517632 3.0392212 L 5.4504896 3.0392212 L 5.4504896 3.0846965 C 5.4504896 3.1350963 5.4780415 3.1720296 5.5476413 3.1720296 L 5.9352145 3.1720296 L 5.9352145 3.2960531 L 5.5476413 3.2960531 C 5.3892417 3.2960531 5.3269829 3.2067633 5.3269829 3.0867635 L 5.3269829 2.870756 C 5.3269829 2.7507562 5.3892417 2.6619832 5.5476413 2.6619832 z M 6.2990166 2.6619832 L 6.6504164 2.6619832 L 6.6504164 2.7844564 L 6.3000502 2.7844564 C 6.2412502 2.7844564 6.2173679 2.8088034 6.2173679 2.8568034 C 6.2173679 2.9012032 6.2364849 2.9250163 6.3072849 2.9250163 L 6.456113 2.9250163 C 6.6313126 2.9250163 6.6757378 3.0054169 6.6757378 3.1038167 C 6.6757378 3.2166165 6.6167982 3.2960531 6.4679986 3.2960531 L 6.0995456 3.2960531 L 6.0995456 3.1720296 L 6.4679986 3.1720296 C 6.5267984 3.1720296 6.5506808 3.1519832 6.5506808 3.1027832 C 6.5506808 3.0523834 6.5243637 3.0319865 6.4607639 3.0319865 L 6.3109022 3.0319865 C 6.1357026 3.0319865 6.0923109 2.9441847 6.0923109 2.8469849 C 6.0923109 2.7329851 6.151417 2.6619832 6.2990166 2.6619832 z M 3.9575575 2.7844564 C 3.8471576 2.7844564 3.7994276 2.84196 3.7994276 2.9787598 C 3.7994276 3.1155594 3.8471577 3.1720296 3.9575575 3.1720296 L 4.0671115 3.1720296 C 4.1763113 3.1720296 4.2252414 3.1155594 4.2252414 2.9787598 C 4.2252414 2.84196 4.1763113 2.7844564 4.0671115 2.7844564 L 3.9575575 2.7844564 z M 4.7626763 2.7844564 C 4.6534765 2.7844564 4.6045464 2.84196 4.6045464 2.9787598 C 4.6045464 3.1155594 4.6534765 3.1720296 4.7626763 3.1720296 L 4.8887668 3.1720296 C 4.9907666 3.1720296 5.0303602 3.1265504 5.0303602 3.0185506 L 5.0303602 2.7844564 L 4.7626763 2.7844564 z M 5.5476413 2.7844564 C 5.4780415 2.7844564 5.4504896 2.8231065 5.4504896 2.8723063 L 5.4504896 2.9394857 L 5.7481459 2.9394857 C 5.8165457 2.9394857 5.8416802 2.9108379 5.8416802 2.8640381 C 5.8416802 2.8160381 5.814163 2.7844564 5.7517632 2.7844564 L 5.5476413 2.7844564 z M 0.77894013 3.0211344 C 0.71174025 3.0211344 0.68747284 3.0487485 0.68747284 3.0955485 C 0.68747284 3.1423485 0.71275643 3.1720296 0.77635631 3.1720296 L 1.0430067 3.1720296 C 1.0682067 3.1720296 1.0776299 3.1627902 1.0776299 3.1399902 L 1.0776299 3.0211344 L 0.77894013 3.0211344 z "
       transform="translate(-0.000176292, 27.5)" /><g
       id="text8-9-1"
       style="font-size:2px;line-height:2.5px;font-family:Nasalization;-inkscape-font-specification:Nasalization;stroke-width:0.499999;stroke-linecap:round"
       transform="translate(-0.000176292, 27.453)"
       aria-label="SBU1&#10;SBU2&#10;&#10;" /><g
       id="text143-2"
       style="font-size:1.2px;line-height:1.5px;font-family:Nasalization;-inkscape-font-specification:Nasalization;text-align:end;text-anchor:end;fill:#ffffff;stroke-width:0.1;stroke-linecap:round"
       transform="translate(-0.000176292, 27.5)"
       aria-label="Sideband&#10;(alt modes)" /><path
       id="rect14-5-6-0"
       style="fill:#ffffff;fill-opacity:1;stroke:none;stroke-width:0.1;stroke-linecap:round;stroke-dasharray:none"
       d="M 9.0001437 -0.0002360026 C 8.723144 -0.0002360026 8.5004326 0.22299214 8.5004326 0.49999186 L 8.5004326 1.4999308 C 8.5004326 1.7769305 8.723144 2.0001587 9.0001437 2.0001587 L 15.500005 2.0001587 C 15.777005 2.0001587 16.000233 1.7769305 16.000233 1.4999308 L 16.000233 0.49999186 C 16.000233 0.22299214 15.777005 -0.0002360026 15.500005 -0.0002360026 L 9.0001437 -0.0002360026 z M 11.962754 0.27364909 L 12.484686 0.27364909 L 12.484686 0.50929362 L 11.962754 0.50929362 C 11.702754 0.50929362 11.588616 0.63957713 11.588616 0.94957682 C 11.588616 1.2575765 11.700754 1.3872762 11.962754 1.3872762 L 12.484686 1.3872762 L 12.484686 1.6234375 L 11.962754 1.6234375 C 11.568754 1.6234375 11.352455 1.4015764 11.352455 0.94957682 C 11.352455 0.49557728 11.570754 0.27364909 11.962754 0.27364909 z M 13.306341 0.27364909 L 13.82879 0.27364909 L 13.82879 0.50929362 L 13.306341 0.50929362 C 13.046341 0.50929362 12.93272 0.63957713 12.93272 0.94957682 C 12.93272 1.2575765 13.044341 1.3872762 13.306341 1.3872762 L 13.82879 1.3872762 L 13.82879 1.6234375 L 13.306341 1.6234375 C 12.912341 1.6234375 12.696559 1.4015764 12.696559 0.94957682 C 12.696559 0.49557728 12.914341 0.27364909 13.306341 0.27364909 z M 14.004489 0.27364909 L 14.1466 0.27364909 C 14.392599 0.27364909 14.460792 0.3615935 14.460792 0.59559326 L 14.460792 1.6234375 L 14.224631 1.6234375 L 14.224631 0.61161296 C 14.224631 0.53961303 14.198446 0.50929362 14.126446 0.50929362 L 14.004489 0.50929362 L 14.004489 0.27364909 z "
       transform="translate(-0.000176292, 33.5)" /><path
       id="rect14-2-6-2-1"
       style="fill:#ffffff;fill-opacity:1;stroke:none;stroke-width:0.1;stroke-linecap:round;stroke-dasharray:none"
       d="M 9.0001437 2.4998698 C 8.723144 2.4998698 8.5004326 2.7230979 8.5004326 3.0000977 L 8.5004326 4.0000366 C 8.5004326 4.2770363 8.723144 4.4997477 9.0001437 4.4997477 L 15.500005 4.4997477 C 15.777005 4.4997477 16.000233 4.2770363 16.000233 4.0000366 L 16.000233 3.0000977 C 16.000233 2.7230979 15.777005 2.4998698 15.500005 2.4998698 L 9.0001437 2.4998698 z M 11.168487 2.7732381 L 11.690419 2.7732381 L 11.690419 3.0093994 L 11.168487 3.0093994 C 10.908487 3.0093994 10.794349 3.1391662 10.794349 3.4491659 C 10.794349 3.7571655 10.906487 3.887382 11.168487 3.887382 L 11.690419 3.887382 L 11.690419 4.1235433 L 11.168487 4.1235433 C 10.774487 4.1235433 10.558705 3.9011654 10.558705 3.4491659 C 10.558705 2.9951663 10.776487 2.7732381 11.168487 2.7732381 z M 12.512591 2.7732381 L 13.034523 2.7732381 L 13.034523 3.0093994 L 12.512591 3.0093994 C 12.252591 3.0093994 12.138453 3.1391662 12.138453 3.4491659 C 12.138453 3.7571655 12.250591 3.887382 12.512591 3.887382 L 13.034523 3.887382 L 13.034523 4.1235433 L 12.512591 4.1235433 C 12.118591 4.1235433 11.902809 3.9011654 11.902809 3.4491659 C 11.902809 2.9951663 12.120591 2.7732381 12.512591 2.7732381 z M 13.330629 2.7732381 L 14.104742 2.7732381 C 14.364741 2.7732381 14.510402 2.907644 14.510402 3.1556437 C 14.510402 3.3556435 14.414726 3.4673788 14.196726 3.5173787 L 13.634486 3.6434692 C 13.540486 3.6654692 13.522348 3.7152639 13.522348 3.7912638 L 13.522348 3.8594767 C 13.522348 3.8814767 13.530703 3.887382 13.548703 3.887382 L 14.474745 3.887382 L 14.474745 4.1235433 L 13.398325 4.1235433 C 13.322325 4.1235433 13.286704 4.0874724 13.286704 4.0134725 L 13.286704 3.8093506 C 13.286704 3.5893508 13.35281 3.4732605 13.58281 3.4212606 L 14.150734 3.2915527 C 14.246734 3.2695528 14.276307 3.223261 14.276307 3.1592611 C 14.276307 3.0692612 14.218426 3.0093994 14.110426 3.0093994 L 13.330629 3.0093994 L 13.330629 2.7732381 z "
       transform="translate(-0.000176292, 33.5)" /><path
       id="rect141-5-6"
       style="fill:#ffffff;fill-opacity:1;stroke:none;stroke-width:0.1;stroke-linecap:round;stroke-dasharray:none"
       d="M 0.10973033 -0.0002360026 C -0.16726911 -0.0002360026 -0.39049754 0.22299242 -0.39049754 0.49999186 L -0.39049754 4.0000366 C -0.39049754 4.277036 -0.16726911 4.4997477 0.10973033 4.4997477 L 7.1098198 4.4997477 C 7.3868194 4.4997477 7.6095309 4.277036 7.6095309 4.0000366 L 7.6095309 0.49999186 C 7.6095309 0.22299242 7.3868194 -0.0002360026 7.1098198 -0.0002360026 L 0.10973033 -0.0002360026 z M 4.3471978 0.8875651 L 4.4608859 0.8875651 L 4.4608859 1.0038371 L 4.3735528 1.0038371 C 4.3135528 1.0038371 4.2882866 1.027605 4.2882866 1.0984049 L 4.2882866 1.161967 L 4.4634697 1.161967 L 4.4634697 1.2844401 L 4.2882866 1.2844401 L 4.2882866 1.7960368 L 4.1601291 1.7960368 L 4.1601291 1.2844401 L 4.0733127 1.2844401 L 4.0733127 1.161967 L 4.1601291 1.161967 L 4.1601291 1.1056396 C 4.1601291 0.94003984 4.2163979 0.8875651 4.3471978 0.8875651 z M 4.5869764 0.92322184 L 4.7156507 0.92322184 L 4.7156507 1.0710164 L 4.5869764 1.0710164 L 4.5869764 0.92322184 z M 2.0176242 0.98575033 L 2.3313002 0.98575033 L 2.3313002 1.1273437 L 2.0176242 1.1273437 C 1.8616244 1.1273437 1.7933485 1.2054104 1.7933485 1.3914103 C 1.7933485 1.5762101 1.8604244 1.6544434 2.0176242 1.6544434 L 2.3313002 1.6544434 L 2.3313002 1.7960368 L 2.0176242 1.7960368 C 1.7812244 1.7960368 1.6517551 1.66261 1.6517551 1.3914103 C 1.6517551 1.1190105 1.7824244 0.98575033 2.0176242 0.98575033 z M 2.7379937 1.161967 L 2.8713189 1.161967 C 3.0393187 1.161967 3.1457207 1.2651436 3.1457207 1.4787435 C 3.1457207 1.6923433 3.0393187 1.7960368 2.8713189 1.7960368 L 2.7379937 1.7960368 C 2.5687938 1.7960368 2.4630751 1.6923433 2.4630751 1.4787435 C 2.4630751 1.2651436 2.5687938 1.161967 2.7379937 1.161967 z M 3.3870497 1.161967 L 3.6485324 1.161967 C 3.8633322 1.161967 3.9678928 1.2642695 3.9678928 1.4394694 L 3.9678928 1.7960368 L 3.8392184 1.7960368 L 3.8392184 1.4394694 C 3.8392184 1.3398695 3.7817323 1.2844401 3.6485324 1.2844401 L 3.4413099 1.2844401 C 3.4305099 1.2844401 3.4252902 1.2905269 3.4252902 1.3025269 L 3.4252902 1.7960368 L 3.2981662 1.7960368 L 3.2981662 1.2606689 C 3.2981662 1.186269 3.3234497 1.161967 3.3870497 1.161967 z M 4.5869764 1.161967 L 4.7141004 1.161967 L 4.7141004 1.7960368 L 4.5869764 1.7960368 L 4.5869764 1.161967 z M 5.1414645 1.161967 L 5.3166476 1.161967 C 5.4678475 1.161967 5.5497084 1.2508683 5.5497084 1.4332682 L 5.5497084 1.7981038 C 5.5497084 1.9781037 5.4870128 2.0492513 5.3094129 2.0492513 L 4.9326918 2.0492513 L 4.9326918 1.9267782 L 5.2949435 1.9267782 C 5.3897434 1.9267782 5.421034 1.8893037 5.421034 1.7981038 L 5.421034 1.769165 L 5.1414645 1.769165 C 4.9722647 1.769165 4.8665459 1.6699906 4.8665459 1.4647909 C 4.8665459 1.260791 4.9722647 1.161967 5.1414645 1.161967 z M 2.7498793 1.2844401 C 2.6394794 1.2844401 2.5912326 1.3419436 2.5912326 1.4787435 C 2.5912326 1.6155434 2.6394794 1.6720133 2.7498793 1.6720133 L 2.8589165 1.6720133 C 2.9681164 1.6720133 3.0175632 1.6155434 3.0175632 1.4787435 C 3.0175632 1.3419436 2.9681164 1.2844401 2.8589165 1.2844401 L 2.7498793 1.2844401 z M 5.1533501 1.2844401 C 5.0441502 1.2844401 4.9952202 1.3398419 4.9952202 1.4694417 C 4.9952202 1.5990416 5.0441502 1.6544434 5.1533501 1.6544434 L 5.421034 1.6544434 L 5.421034 1.4322347 C 5.421034 1.3290348 5.3814405 1.2844401 5.2794406 1.2844401 L 5.1533501 1.2844401 z M 5.9336642 2.3872152 L 6.0607883 2.3872152 L 6.0607883 3.2956868 L 5.9336642 3.2956868 L 5.9336642 2.3872152 z M 0.38361542 2.4859172 L 0.5272759 2.4859172 L 0.5272759 3.0269694 C 0.5272759 3.1073692 0.56803481 3.1540934 0.66163463 3.1540934 L 0.80581187 3.1540934 C 0.8970117 3.1540934 0.93913707 3.1073692 0.93913707 3.0269694 L 0.93913707 2.4859172 L 1.0781467 2.4859172 L 1.0781467 3.0378215 C 1.0781467 3.2082211 0.98843005 3.2956868 0.81563039 3.2956868 L 0.64509817 3.2956868 C 0.4722985 3.2956868 0.38361542 3.2082211 0.38361542 3.0378215 L 0.38361542 2.4859172 z M 1.4827731 2.4859172 L 1.893084 2.4859172 L 1.893084 2.6275106 L 1.4781223 2.6275106 C 1.4049223 2.6275106 1.3721856 2.6672289 1.3721856 2.7236287 C 1.3721856 2.7728287 1.3972751 2.8192301 1.4920749 2.8192301 L 1.6817274 2.8192301 C 1.902527 2.8192301 1.9540622 2.9415755 1.9540622 3.0579753 C 1.9540622 3.1947749 1.8809964 3.2956868 1.6961968 3.2956868 L 1.2450615 3.2956868 L 1.2450615 3.1540934 L 1.7008477 3.1540934 C 1.7776475 3.1540934 1.8124688 3.1121242 1.8124688 3.0533244 C 1.8124688 3.0005244 1.7849445 2.9525553 1.6853447 2.9525553 L 1.4972425 2.9525553 C 1.2812431 2.9525553 1.2305921 2.8312609 1.2305921 2.7184611 C 1.2305921 2.5840613 1.3027735 2.4859172 1.4827731 2.4859172 z M 2.1788547 2.4859172 L 2.5349053 2.4859172 C 2.725705 2.4859172 2.8062066 2.5756094 2.8062066 2.707609 C 2.8062066 2.801209 2.7655344 2.8579598 2.6899346 2.8879598 C 2.7667345 2.9191598 2.8098239 2.9788449 2.8098239 3.0724447 C 2.8098239 3.2020443 2.7293224 3.2956868 2.5385226 3.2956868 L 2.1788547 3.2956868 C 2.1332547 3.2956868 2.1116753 3.2744576 2.1116753 3.2300578 L 2.1116753 2.5515462 C 2.1116753 2.5071464 2.1332547 2.4859172 2.1788547 2.4859172 z M 3.3100518 2.4859172 L 3.6237277 2.4859172 L 3.6237277 2.6275106 L 3.3100518 2.6275106 C 3.154052 2.6275106 3.0857761 2.7055775 3.0857761 2.8915771 C 3.0857761 3.0763769 3.152852 3.1540934 3.3100518 3.1540934 L 3.6237277 3.1540934 L 3.6237277 3.2956868 L 3.3100518 3.2956868 C 3.0736522 3.2956868 2.9441826 3.1627767 2.9441826 2.8915771 C 2.9441826 2.6191777 3.0748522 2.4859172 3.3100518 2.4859172 z M 4.4490003 2.4859172 L 4.5595879 2.4859172 C 4.7947875 2.4859172 4.9254571 2.6202111 4.9254571 2.8926107 C 4.9254571 3.1638101 4.7959875 3.2956868 4.5595879 3.2956868 L 4.4490003 3.2956868 C 4.2126009 3.2956868 4.0831312 3.1638101 4.0831312 2.8926107 C 4.0831312 2.6202111 4.2138009 2.4859172 4.4490003 2.4859172 z M 2.2661878 2.6249268 C 2.256588 2.6249268 2.2506849 2.6297962 2.2506849 2.6393962 L 2.2506849 2.8280151 L 2.5385226 2.8280151 C 2.6225226 2.8280151 2.6635796 2.7963465 2.6635796 2.7303467 C 2.6635796 2.6667467 2.6264729 2.6249268 2.5400729 2.6249268 L 2.2661878 2.6249268 z M 4.4490003 2.6275106 C 4.2930007 2.6275106 4.2247246 2.7066111 4.2247246 2.8926107 C 4.2247246 3.0774103 4.2918007 3.1540934 4.4490003 3.1540934 L 4.5595879 3.1540934 C 4.7155877 3.1540934 4.7828301 3.0775769 4.7828301 2.8915771 C 4.7828301 2.7067775 4.7155877 2.6275106 4.5595879 2.6275106 L 4.4490003 2.6275106 z M 5.1740207 2.6621338 L 5.4355034 2.6621338 C 5.650303 2.6621338 5.7548638 2.7644366 5.7548638 2.9396362 L 5.7548638 3.2956868 L 5.6261895 3.2956868 L 5.6261895 2.9396362 C 5.6261895 2.8400364 5.5687032 2.7846069 5.4355034 2.7846069 L 5.2277642 2.7846069 C 5.2169642 2.7846069 5.2122613 2.7906937 5.2122613 2.8026937 L 5.2122613 3.2956868 L 5.0851372 3.2956868 L 5.0851372 2.7608358 C 5.0851372 2.6864358 5.1104209 2.6621338 5.1740207 2.6621338 z M 6.1744764 2.6621338 L 6.3088351 2.6621338 L 6.5000379 3.1339396 C 6.5084379 3.1567396 6.5142785 3.1602946 6.5382785 3.1602946 L 6.5553317 3.1602946 L 6.7697889 2.6621338 L 6.9056979 2.6621338 L 6.5238091 3.5504517 L 6.3868666 3.5504517 L 6.5057224 3.2729492 C 6.4337224 3.2729492 6.4084664 3.2501178 6.3868666 3.1949178 L 6.1744764 2.6621338 z M 2.2506849 2.9453206 L 2.2506849 3.1422078 C 2.2506849 3.1518078 2.256588 3.1556437 2.2661878 3.1556437 L 2.54214 3.1556437 C 2.6273398 3.1556437 2.667197 3.115707 2.667197 3.049707 C 2.667197 2.9813072 2.6249398 2.9453206 2.54214 2.9453206 L 2.2506849 2.9453206 z "
       transform="translate(-0.000176292, 33.5)" /><g
       id="text8-9-1-9"
       style="font-size:2px;line-height:2.5px;font-family:Nasalization;-inkscape-font-specification:Nasalization;stroke-width:0.499999;stroke-linecap:round"
       transform="translate(-0.000176292, 33.453)"
       aria-label="CC1&#10;CC2&#10;&#10;" /><g
       id="text143-2-1"
       style="font-size:1.2px;line-height:1.5px;font-family:Nasalization;-inkscape-font-specification:Nasalization;text-align:end;text-anchor:end;fill:#ffffff;stroke-width:0.1;stroke-linecap:round"
       transform="translate(-0.000176292, 33.5)"
       aria-label="Config&#10;USBC Only" /><g
       id="text8-9"
       style="font-size:2px;line-height:2.5px;font-family:Nasalization;-inkscape-font-specification:Nasalization;stroke-width:0.499999;stroke-linecap:round"
       transform="translate(-0.000176292, 16.4416)"
       aria-label="TX1&#10;RX1&#10;TX2&#10;RX2" /></g></svg>
