<?xml version="1.0" encoding="UTF-8" standalone="no"?>
<!-- Created with Inkscape (http://www.inkscape.org/) -->

<svg
   width="210mm"
   height="297mm"
   viewBox="0 0 210 297"
   version="1.1"
   id="svg1"
   inkscape:version="1.3.2 (091e20e, 2023-11-25, custom)"
   sodipodi:docname="graphics.svg"
   xmlns:inkscape="http://www.inkscape.org/namespaces/inkscape"
   xmlns:sodipodi="http://sodipodi.sourceforge.net/DTD/sodipodi-0.dtd"
   xmlns="http://www.w3.org/2000/svg"
   xmlns:svg="http://www.w3.org/2000/svg">
  <sodipodi:namedview
     id="namedview1"
     pagecolor="#505050"
     bordercolor="#ffffff"
     borderopacity="1"
     inkscape:showpageshadow="0"
     inkscape:pageopacity="0"
     inkscape:pagecheckerboard="1"
     inkscape:deskcolor="#505050"
     inkscape:document-units="mm"
     inkscape:zoom="6.4818462"
     inkscape:cx="152.50285"
     inkscape:cy="173.17597"
     inkscape:window-width="3840"
     inkscape:window-height="2054"
     inkscape:window-x="-11"
     inkscape:window-y="-11"
     inkscape:window-maximized="1"
     inkscape:current-layer="layer1" />
  <defs
     id="defs1" />
  <g
     inkscape:label="Layer 1"
     inkscape:groupmode="layer"
     id="layer1">
    <path
       d="m 76.17489,49.556505 -4.463687,-1.111528 c -1.377921,-0.343124 -2.2651,0.198553 -2.613057,1.595881 l -0.343123,1.377921 c -0.347957,1.397328 0.179183,2.301498 1.557104,2.644622 l 4.463688,1.111528 0.280298,-1.125626 -4.376354,-1.08978 C 70.029613,52.797626 69.735743,52.36376 69.919386,51.626281 l 0.289964,-1.16444 c 0.188477,-0.756886 0.649076,-0.992573 1.299222,-0.830676 l 4.376354,1.08978 z m -4.889315,11.252108 c 0.991878,-1.125246 0.773495,-2.117571 -0.06669,-2.858173 -0.705154,-0.621577 -1.740545,-0.974373 -2.930799,0.375922 l -1.038166,1.177757 c -0.548839,0.622636 -1.000993,0.530673 -1.331065,0.239722 -0.36758,-0.324014 -0.438374,-0.773 -0.01517,-1.253104 l 2.512758,-2.850623 -0.885193,-0.780277 -2.486308,2.820616 c -1.018328,1.155252 -0.791554,2.168303 0.06363,2.922131 0.727659,0.641414 1.777164,0.993321 2.993868,-0.38698 l 1.044779,-1.185259 c 0.522389,-0.592629 0.953816,-0.492275 1.261383,-0.221162 0.352577,0.310789 0.421593,0.731546 0.01823,1.189146 l -2.287932,2.595566 0.885193,0.780278 z m -6.902358,5.731831 c 0.353703,-0.138904 0.45545,-0.372244 0.320201,-0.716639 l -2.065282,-5.259002 c -0.135249,-0.344395 -0.368589,-0.446142 -0.722292,-0.307238 l -2.79239,1.09661 c -1.479968,0.581203 -1.818483,1.552134 -1.423703,2.557395 0.285118,0.726022 0.802973,1.059827 1.493723,1.067891 -0.495018,0.462987 -0.639687,1.024744 -0.354568,1.750766 0.40209,1.023876 1.299877,1.477064 2.779844,0.895861 z m -1.958484,-3.34563 -2.261836,0.888254 c -0.64225,0.25222 -1.07769,0.100919 -1.286046,-0.429635 -0.201045,-0.511938 -0.01451,-0.939729 0.646357,-1.19926 l 2.140832,-0.840734 c 0.07446,-0.02924 0.13197,-0.0196 0.161213,0.05487 z m 0.932119,2.373532 c 0.02924,0.07446 -0.0027,0.129973 -0.07714,0.159216 l -2.122217,0.833423 c -0.670174,0.263187 -1.086659,0.05072 -1.280394,-0.442598 -0.201045,-0.511939 0.02039,-0.878228 0.671945,-1.134104 l 2.233912,-0.877288 z m -11.463053,3.28048 0.262404,-1.150454 -1.920673,-0.438082 1.238636,-5.430532 -1.160203,-0.264628 -1.238636,5.430533 -1.920673,-0.438082 -0.262405,1.150454 z m -8.718991,-4.816805 c 1.072525,0.769474 1.926406,0.471336 2.509341,-0.341183 l 1.049282,-1.462534 c 0.582935,-0.812519 0.591797,-1.71691 -0.480728,-2.486383 l -2.624437,-1.882879 -0.600423,0.836894 2.624437,1.882879 c 0.471261,0.338102 0.477431,0.724058 0.232598,1.065316 l -0.221515,0.308758 -2.039423,-1.463166 c -1.056275,-0.757815 -1.775023,-0.596568 -2.34047,0.191576 -0.594593,0.828769 -0.513719,1.625236 0.50193,2.353904 z m 1.678276,-0.949731 c -0.239003,0.333133 -0.612422,0.459064 -1.083683,0.120962 l -1.381282,-0.990989 c -0.42251,-0.303126 -0.457827,-0.648456 -0.224653,-0.973464 0.227345,-0.316882 0.537878,-0.38947 1.001014,-0.0572 l 2.015047,1.445678 z M 37.80308,59.042265 38.694753,58.546968 37.160302,55.78453 c -0.28164,-0.50703 -0.113584,-0.86348 0.244834,-1.062571 l 0.349675,-0.194234 1.21882,2.194215 c 0.631262,1.136445 1.353889,1.284128 2.19311,0.817966 0.874189,-0.485586 1.15494,-1.236371 0.547958,-2.329108 l -1.199397,-2.159247 c -0.432171,-0.778028 -0.791545,-0.80719 -1.455929,-0.438145 l -2.167989,1.204253 c -0.874189,0.485585 -1.268584,1.299497 -0.627611,2.453427 z m 1.928348,-5.280755 1.078,1.9407 c 0.257361,0.46332 0.140786,0.768296 -0.200147,0.957674 -0.340934,0.189379 -0.639115,0.126226 -0.911043,-0.36332 l -1.209108,-2.176731 0.865447,-0.48073 c 0.166096,-0.09226 0.274878,-0.06117 0.376851,0.122407 z m -6.921884,-9.520965 c -0.239372,1.945328 0.729198,3.162731 2.982206,3.439963 2.243082,0.27601 3.476672,-0.660343 3.717265,-2.615596 l 0.318756,-2.590462 -1.171167,-0.144112 -0.318756,2.590463 c -0.159988,1.300193 -0.873514,1.776618 -2.401986,1.58854 -1.538398,-0.189299 -2.113919,-0.834416 -1.955151,-2.124685 l 0.318755,-2.590462 -1.171167,-0.144112 z m 4.220559,-7.663542 c -0.762696,1.185915 -0.51538,2.391251 0.981734,3.354086 1.497113,0.962836 2.696446,0.68788 3.459141,-0.498036 l 0.60042,-0.933593 c 0.757286,-1.177505 0.515379,-2.391251 -0.981734,-3.354087 -1.497113,-0.962835 -2.701855,-0.679468 -3.459141,0.498036 z m 1.404224,-0.297749 c 0.492236,-0.765378 1.117729,-0.850578 2.076554,-0.23393 0.958825,0.616647 1.132354,1.215719 0.640118,1.981098 L 40.658763,38.7918 c -0.497645,0.773789 -1.109318,0.855987 -2.068143,0.239339 -0.958826,-0.616647 -1.146174,-1.212718 -0.648529,-1.986507 z m 2.963352,-4.948186 0.550003,0.859008 3.04864,-1.951972 c 0.235806,-0.150982 0.404602,-0.128442 0.512445,0.03999 0.07549,0.117903 0.105844,0.276581 -0.03629,0.462583 l -1.972435,2.557186 c -0.395093,0.5142 -0.385888,1.066391 -0.06775,1.563269 0.393629,0.614781 1.031429,0.776372 1.7978,0.285683 l 3.166542,-2.027464 -0.550003,-0.859009 -3.116013,1.995111 c -0.227384,0.145589 -0.401572,0.114627 -0.509416,-0.05381 -0.09167,-0.143168 -0.07216,-0.29815 0.04169,-0.454161 l 1.95862,-2.560215 c 0.355348,-0.465004 0.423634,-1.00744 0.07314,-1.554848 -0.39363,-0.614781 -1.023008,-0.781764 -1.7978,-0.285682 z m 11.922657,-4.568899 -1.168258,4.365979 -0.138516,0.02033 c -0.197879,0.02905 -0.251706,0.0066 -0.34856,-0.17119 l -2.143947,-3.657388 -1.108123,0.162672 2.396112,4.135837 c 0.244903,0.428979 0.480273,0.586463 1.07391,0.499317 l -0.643989,2.429295 1.127911,-0.165577 2.071477,-7.783405 z m 10.499681,0.736674 c -1.459234,-0.770153 -2.419775,-0.214219 -2.984554,0.855886 -0.578781,1.096636 -0.314695,1.903146 0.896912,2.542607 l 2.502807,1.320929 c -0.664272,0.915829 -1.405435,1.056101 -2.36057,0.552001 l -1.963334,-1.036206 -0.550776,1.043574 1.963333,1.036206 c 1.733394,0.914848 3.220143,0.433105 4.321695,-1.654042 1.08755,-2.060615 0.571169,-3.396037 -0.826159,-4.133516 z m -1.972179,1.401503 c 0.27072,-0.512943 0.749271,-0.712666 1.341808,-0.399937 l 0.831322,0.438753 c 0.999354,0.527439 1.219712,1.288255 0.684167,2.45294 l -2.423213,-1.27892 c -0.539474,-0.284724 -0.71414,-0.682206 -0.434084,-1.212836 z m 10.511905,5.801499 c -1.103724,-1.619689 -2.717439,-1.839054 -4.593304,-0.560762 -1.867602,1.272661 -2.259338,2.846523 -1.149983,4.474476 1.109355,1.627954 2.71744,1.839055 4.585041,0.566394 1.875865,-1.278292 2.26197,-2.860418 1.158246,-4.480108 z m -0.975119,0.664487 c 0.737693,1.082548 0.438894,1.975923 -0.833719,2.843134 -1.280877,0.872843 -2.216005,0.832418 -2.95933,-0.258393 -0.743324,-1.090812 -0.444525,-1.984187 0.836352,-2.85703 1.272613,-0.867211 2.213373,-0.818522 2.956697,0.272289 z m 4.716505,9.449404 c -0.194667,-1.950309 -1.506943,-2.914743 -3.765719,-2.689287 -2.248825,0.224462 -3.345577,1.419299 -3.149918,3.379558 0.19566,1.96026 1.506943,2.914743 3.755768,2.690281 2.258776,-0.225456 3.354535,-1.430243 3.159869,-3.380552 z m -1.174166,0.117197 c 0.130109,1.303523 -0.559571,1.945194 -2.091956,2.098147 -1.542336,0.153945 -2.344247,-0.328796 -2.475349,-1.64227 -0.131102,-1.313473 0.558578,-1.955145 2.100914,-2.10909 1.532385,-0.152952 2.335289,0.33974 2.466391,1.653213 z M 100.09997,-6.85 c -1.960005,0 -3.050005,1.21 -3.050005,3.48 0,2.26 1.08,3.47 3.050005,3.47 1.97,0 3.05,-1.21 3.05,-3.47 0,-2.27 -1.09,-3.48 -3.05,-3.48 z m 0,1.18 c 1.31,0 1.88,0.75 1.88,2.29 0,1.55 -0.56,2.3 -1.88,2.3 -1.320005,0 -1.890005,-0.75 -1.890005,-2.3 0,-1.54 0.57,-2.29 1.890005,-2.29 z"
       id="text2"
       style="font-size:10px;line-height:100px;font-family:Nasalization;-inkscape-font-specification:Nasalization;letter-spacing:0px;fill:#ffffff;stroke-width:0.25;stroke-linecap:round"
       aria-label="USB Tea Cozy 9000 " />
    <circle
       style="fill:none;stroke:none;stroke-width:0.25;stroke-linecap:round"
       id="path1"
       cx="75.651192"
       cy="86.835793"
       r="10" />
    <path
       id="rect1"
       style="fill:#ffffff;stroke:none;stroke-width:0.25;stroke-linecap:round"
       d="M 4.8679199 36.945032 C 4.3139205 36.945032 3.8674642 37.391488 3.8674642 37.945487 C 3.8674642 38.499487 4.3139205 38.945426 4.8679199 38.945426 L 8.8676758 38.945426 C 9.4216752 38.945426 9.8676147 38.499487 9.8676147 37.945487 C 9.8676147 37.391488 9.4216752 36.945032 8.8676758 36.945032 L 4.8679199 36.945032 z M 7.6057373 37.422522 L 7.7034058 37.422522 C 7.8264056 37.422522 7.9028768 37.500767 7.9028768 37.661267 C 7.9028768 37.821767 7.8264056 37.899495 7.7034058 37.899495 L 7.6057373 37.899495 C 7.4827374 37.899495 7.4078166 37.821767 7.4078166 37.661267 C 7.4078166 37.500767 7.4827374 37.422522 7.6057373 37.422522 z M 6.7778809 37.425623 C 7.0718806 37.425623 7.2352173 37.607055 7.2352173 37.947555 C 7.2352173 38.286554 7.0733806 38.467936 6.7778809 38.467936 C 6.4823812 38.467936 6.3200277 38.286554 6.3200277 37.947555 C 6.3200277 37.607055 6.4838812 37.425623 6.7778809 37.425623 z M 5.7727743 37.440609 L 5.8792277 37.440609 C 6.0637275 37.440609 6.1148722 37.506438 6.1148722 37.681938 L 6.1148722 38.45295 L 5.9376221 38.45295 L 5.9376221 37.693823 C 5.9376221 37.639823 5.9182415 37.617342 5.8642415 37.617342 L 5.7727743 37.617342 L 5.7727743 37.440609 z M 8.4832031 37.440609 L 8.8749105 37.440609 L 8.8749105 37.617342 L 8.4832031 37.617342 C 8.2882033 37.617342 8.2026001 37.715055 8.2026001 37.947555 C 8.2026001 38.178554 8.2867033 38.276217 8.4832031 38.276217 L 8.8749105 38.276217 L 8.8749105 38.45295 L 8.4832031 38.45295 C 8.1877034 38.45295 8.0258667 38.286554 8.0258667 37.947555 C 8.0258667 37.607055 8.1892034 37.440609 8.4832031 37.440609 z M 7.6145223 37.51709 C 7.5365224 37.51709 7.5049683 37.559267 7.5049683 37.661267 C 7.5049683 37.763267 7.5365224 37.803377 7.6145223 37.803377 L 7.694104 37.803377 C 7.7706039 37.803377 7.803658 37.763267 7.803658 37.661267 C 7.803658 37.559267 7.7706039 37.51709 7.694104 37.51709 L 7.6145223 37.51709 z M 5.2084676 37.542411 L 5.3195719 37.542411 L 5.3195719 37.893294 L 5.6678711 37.893294 L 5.6678711 38.002848 L 5.3195719 38.002848 L 5.3195719 38.349597 L 5.2084676 38.349597 L 5.2084676 38.002848 L 4.8606852 38.002848 L 4.8606852 37.893294 L 5.2084676 37.893294 L 5.2084676 37.542411 z M 6.7778809 37.602356 C 6.5798811 37.602356 6.4941772 37.715004 6.4941772 37.946004 C 6.4941772 38.178504 6.5798811 38.291203 6.7778809 38.291203 C 6.9758807 38.291203 7.0595174 38.178504 7.0595174 37.946004 C 7.0595174 37.715004 6.9743807 37.602356 6.7778809 37.602356 z " />
    <path
       id="rect1-7"
       style="fill:#ffffff;stroke:none;stroke-width:0.25;stroke-linecap:round"
       d="M 4.7599162 34.354492 C 4.2059167 34.354492 3.7594604 34.800432 3.7594604 35.354431 C 3.7594604 35.908431 4.2059167 36.35437 4.7599162 36.35437 L 8.759672 36.35437 C 9.3136715 36.35437 9.759611 35.908431 9.759611 35.354431 C 9.759611 34.800432 9.3136715 34.354492 8.759672 34.354492 L 4.7599162 34.354492 z M 7.3530396 34.831466 L 7.4501912 34.831466 C 7.5731911 34.831466 7.650179 34.909711 7.650179 35.070211 C 7.650179 35.230711 7.5731911 35.308439 7.4501912 35.308439 L 7.3530396 35.308439 C 7.2300397 35.308439 7.1551188 35.230711 7.1551188 35.070211 C 7.1551188 34.909711 7.2300397 34.831466 7.3530396 34.831466 z M 6.5251831 34.834566 C 6.8191828 34.834566 6.9825195 35.015999 6.9825195 35.356498 C 6.9825195 35.695498 6.8206828 35.87688 6.5251831 35.87688 C 6.2296834 35.87688 6.0673299 35.695498 6.0673299 35.356498 C 6.0673299 35.015999 6.2311834 34.834566 6.5251831 34.834566 z M 5.5200765 34.849552 L 5.6265299 34.849552 C 5.8110298 34.849552 5.8621745 34.915382 5.8621745 35.090881 L 5.8621745 35.861894 L 5.6849243 35.861894 L 5.6849243 35.102767 C 5.6849243 35.048767 5.6655437 35.026286 5.6115438 35.026286 L 5.5200765 35.026286 L 5.5200765 34.849552 z M 8.2305054 34.849552 L 8.621696 34.849552 L 8.621696 35.026286 L 8.2305054 35.026286 C 8.0355056 35.026286 7.9499023 35.123998 7.9499023 35.356498 C 7.9499023 35.587498 8.0340056 35.68516 8.2305054 35.68516 L 8.621696 35.68516 L 8.621696 35.861894 L 8.2305054 35.861894 C 7.9350057 35.861894 7.7731689 35.695498 7.7731689 35.356498 C 7.7731689 35.015999 7.9365057 34.849552 8.2305054 34.849552 z M 7.3618245 34.926034 C 7.2838246 34.926034 7.2522705 34.968211 7.2522705 35.070211 C 7.2522705 35.172211 7.2838246 35.212321 7.3618245 35.212321 L 7.4414062 35.212321 C 7.5179062 35.212321 7.5509603 35.172211 7.5509603 35.070211 C 7.5509603 34.968211 7.5179062 34.926034 7.4414062 34.926034 L 7.3618245 34.926034 z M 6.5251831 35.0113 C 6.3271833 35.0113 6.2414795 35.123948 6.2414795 35.354948 C 6.2414795 35.587448 6.3271833 35.700146 6.5251831 35.700146 C 6.7231829 35.700146 6.8068197 35.587448 6.8068197 35.354948 C 6.8068197 35.123948 6.7216829 35.0113 6.5251831 35.0113 z M 4.8973755 35.309989 L 5.4327433 35.309989 L 5.4327433 35.462952 L 4.8973755 35.462952 L 4.8973755 35.309989 z " />
    <path
       id="rect2"
       style="fill:#ffffff;stroke:none;stroke-width:0.25;stroke-linecap:round"
       d="M 0.99993896 40.000142 C 0.44593952 40.000142 0 40.446082 0 41.000081 C 7.8332324e-17 41.554081 0.44593952 42.00002 0.99993896 42.00002 L 8.9999674 42.00002 C 9.5539669 42.00002 9.9999064 41.554081 9.9999064 41.000081 C 9.9999064 40.446082 9.5539669 40.000142 8.9999674 40.000142 L 0.99993896 40.000142 z M 3.4163289 40.477116 L 3.5139974 40.477116 C 3.6369973 40.477116 3.7134684 40.555361 3.7134684 40.715861 C 3.7134684 40.876361 3.6369973 40.954089 3.5139974 40.954089 L 3.4163289 40.954089 C 3.2933291 40.954089 3.2184082 40.876361 3.2184082 40.715861 C 3.2184082 40.555361 3.2933291 40.477116 3.4163289 40.477116 z M 2.5884725 40.480216 C 2.8824722 40.480216 3.0458089 40.661649 3.0458089 41.002148 C 3.0458089 41.341148 2.8839722 41.52253 2.5884725 41.52253 C 2.2929728 41.52253 2.1306193 41.341148 2.1306193 41.002148 C 2.1306193 40.661649 2.2944728 40.480216 2.5884725 40.480216 z M 1.3911296 40.495203 L 1.5606283 40.495203 C 1.797628 40.495203 1.9600871 40.636112 1.9600871 40.985612 C 1.9600871 41.339612 1.7962336 41.507544 1.5022339 41.507544 L 1.1694377 41.507544 L 1.1694377 41.330811 L 1.5022339 41.330811 C 1.6642337 41.330811 1.7526358 41.260065 1.7766357 41.092065 L 1.3523722 41.092065 C 1.1468724 41.092065 1.0552327 41.003663 1.0552327 40.817664 C 1.0552327 40.636164 1.1436298 40.495203 1.3911296 40.495203 z M 4.2937948 40.495203 L 4.6855021 40.495203 L 4.6855021 40.672453 L 4.2937948 40.672453 C 4.098795 40.672453 4.0131917 40.769649 4.0131917 41.002148 C 4.0131917 41.233148 4.097295 41.330811 4.2937948 41.330811 L 4.6855021 41.330811 L 4.6855021 41.507544 L 4.2937948 41.507544 C 3.9982951 41.507544 3.8364583 41.341148 3.8364583 41.002148 C 3.8364583 40.661649 3.9997951 40.495203 4.2937948 40.495203 z M 3.4251139 40.571684 C 3.347114 40.571684 3.3160767 40.613861 3.3160767 40.715861 C 3.3160767 40.817861 3.347114 40.858488 3.4251139 40.858488 L 3.5046956 40.858488 C 3.5811956 40.858488 3.6142497 40.817861 3.6142497 40.715861 C 3.6142497 40.613861 3.5811956 40.571684 3.5046956 40.571684 L 3.4251139 40.571684 z M 2.5884725 40.657467 C 2.3904727 40.657467 2.3047689 40.769598 2.3047689 41.000598 C 2.3047689 41.233098 2.3904727 41.345797 2.5884725 41.345797 C 2.7864723 41.345797 2.870109 41.233098 2.870109 41.000598 C 2.870109 40.769598 2.7849723 40.657467 2.5884725 40.657467 z M 1.3776937 40.672453 C 1.2771938 40.672453 1.227832 40.732214 1.227832 40.819214 C 1.227832 40.909214 1.2789591 40.949955 1.370459 40.949955 L 1.7812866 40.949955 C 1.7707866 40.757955 1.6882702 40.672453 1.5187703 40.672453 L 1.3776937 40.672453 z " />
    <path
       id="rect2-8"
       style="fill:#ffffff;stroke:none;stroke-width:0.25;stroke-linecap:round"
       d="M 0.99993896 42.999959 C 0.44593952 42.999959 0 43.445899 0 43.999898 C 7.8332324e-17 44.553898 0.44593952 44.999837 0.99993896 44.999837 L 8.9999674 44.999837 C 9.5539669 44.999837 9.9999064 44.553898 9.9999064 43.999898 C 9.9999064 43.445899 9.5539669 42.999959 8.9999674 42.999959 L 0.99993896 42.999959 z M 3.4328654 43.47745 L 3.5305339 43.47745 C 3.6535337 43.47745 3.7300049 43.555178 3.7300049 43.715678 C 3.7300049 43.876178 3.6535337 43.954423 3.5305339 43.954423 L 3.4328654 43.954423 C 3.3098655 43.954423 3.2349447 43.876178 3.2349447 43.715678 C 3.2349447 43.555178 3.3098655 43.47745 3.4328654 43.47745 z M 2.605009 43.480033 C 2.8990087 43.480033 3.0623454 43.661982 3.0623454 44.002482 C 3.0623454 44.341482 2.9005087 44.522864 2.605009 44.522864 C 2.3095092 44.522864 2.1471558 44.341482 2.1471558 44.002482 C 2.1471558 43.661982 2.3110092 43.480033 2.605009 43.480033 z M 1.3973307 43.49502 L 1.6360758 43.49502 C 1.8745756 43.49502 1.9750732 43.607522 1.9750732 43.772522 C 1.9750732 43.888022 1.9238959 43.961882 1.830896 43.999382 C 1.9253959 44.038381 1.9792074 44.111825 1.9792074 44.228825 C 1.9792074 44.390825 1.8787097 44.507878 1.64021 44.507878 L 1.3926799 44.507878 C 1.1541801 44.507878 1.0552327 44.390825 1.0552327 44.228825 C 1.0552327 44.111825 1.1080107 44.038381 1.2025106 43.999382 C 1.1095107 43.961882 1.0583333 43.888022 1.0583333 43.772522 C 1.0583333 43.607522 1.158831 43.49502 1.3973307 43.49502 z M 4.3103312 43.49502 L 4.7020386 43.49502 L 4.7020386 43.67227 L 4.3103312 43.67227 C 4.1153314 43.67227 4.0297282 43.769982 4.0297282 44.002482 C 4.0297282 44.233482 4.1138314 44.330627 4.3103312 44.330627 L 4.7020386 44.330627 L 4.7020386 44.507878 L 4.3103312 44.507878 C 4.0148315 44.507878 3.8529948 44.341482 3.8529948 44.002482 C 3.8529948 43.661982 4.0163315 43.49502 4.3103312 43.49502 z M 3.4416504 43.571501 C 3.3636505 43.571501 3.3320964 43.613678 3.3320964 43.715678 C 3.3320964 43.817678 3.3636505 43.858305 3.4416504 43.858305 L 3.5212321 43.858305 C 3.597732 43.858305 3.6307861 43.817678 3.6307861 43.715678 C 3.6307861 43.613678 3.597732 43.571501 3.5212321 43.571501 L 3.4416504 43.571501 z M 2.605009 43.657284 C 2.4070091 43.657284 2.3213053 43.769932 2.3213053 44.000932 C 2.3213053 44.233432 2.4070091 44.345614 2.605009 44.345614 C 2.8030088 44.345614 2.8866455 44.233432 2.8866455 44.000932 C 2.8866455 43.769932 2.8015088 43.657284 2.605009 43.657284 z M 1.3926799 43.669169 C 1.28468 43.669169 1.236617 43.721911 1.236617 43.79991 C 1.236617 43.88391 1.2892302 43.9229 1.3942301 43.9229 L 1.64021 43.9229 C 1.7452099 43.9229 1.7962728 43.88391 1.7962728 43.79991 C 1.7962728 43.721911 1.7497601 43.669169 1.6417603 43.669169 L 1.3926799 43.669169 z M 1.3885457 44.075863 C 1.2865458 44.075863 1.2324829 44.119453 1.2324829 44.201953 C 1.2324829 44.284453 1.2835458 44.332178 1.3885457 44.332178 L 1.6448608 44.332178 C 1.7513607 44.332178 1.8009237 44.284453 1.8009237 44.201953 C 1.8009237 44.119453 1.7483607 44.075863 1.6448608 44.075863 L 1.3885457 44.075863 z " />
    <path
       id="rect2-1"
       style="fill:#ffffff;stroke:none;stroke-width:0.25;stroke-linecap:round"
       d="M 0.99993896 45.999776 C 0.44593952 45.999776 0 46.446232 0 47.000232 C 7.8332324e-17 47.554231 0.44593952 48.000171 0.99993896 48.000171 L 8.9999674 48.000171 C 9.5539669 48.000171 9.9999064 47.554231 9.9999064 47.000232 C 9.9999064 46.446232 9.5539669 45.999776 8.9999674 45.999776 L 0.99993896 45.999776 z M 3.3444987 46.477266 L 3.4416504 46.477266 C 3.5646503 46.477266 3.6411214 46.554995 3.6411214 46.715495 C 3.6411214 46.875995 3.5646503 46.95424 3.4416504 46.95424 L 3.3444987 46.95424 C 3.2214988 46.95424 3.146578 46.875995 3.146578 46.715495 C 3.146578 46.554995 3.2214988 46.477266 3.3444987 46.477266 z M 2.5161255 46.480367 C 2.8101252 46.480367 2.9739787 46.661799 2.9739787 47.002299 C 2.9739787 47.341299 2.8116252 47.522681 2.5161255 47.522681 C 2.2206258 47.522681 2.0587891 47.341299 2.0587891 47.002299 C 2.0587891 46.661799 2.2221258 46.480367 2.5161255 46.480367 z M 1.0552327 46.495353 L 1.6898193 46.495353 C 1.8788191 46.495353 1.9342489 46.603059 1.9342489 46.702059 C 1.9342489 46.769559 1.909033 46.835516 1.850533 46.916516 L 1.4154175 47.507694 L 1.1932088 47.507694 L 1.7151408 46.801278 C 1.7331408 46.777278 1.740979 46.756132 1.740979 46.735132 C 1.740979 46.703632 1.7241319 46.672087 1.668632 46.672087 L 1.0552327 46.672087 L 1.0552327 46.495353 z M 4.2219645 46.495353 L 4.6131551 46.495353 L 4.6131551 46.672087 L 4.2219645 46.672087 C 4.0269647 46.672087 3.9413615 46.769799 3.9413615 47.002299 C 3.9413615 47.233299 4.0254647 47.330961 4.2219645 47.330961 L 4.6131551 47.330961 L 4.6131551 47.507694 L 4.2219645 47.507694 C 3.9264648 47.507694 3.7641113 47.341299 3.7641113 47.002299 C 3.7641113 46.661799 3.9279648 46.495353 4.2219645 46.495353 z M 3.3532837 46.571834 C 3.2752838 46.571834 3.2437297 46.613495 3.2437297 46.715495 C 3.2437297 46.817495 3.2752838 46.858122 3.3532837 46.858122 L 3.4328654 46.858122 C 3.5093653 46.858122 3.5424194 46.817495 3.5424194 46.715495 C 3.5424194 46.613495 3.5093653 46.571834 3.4328654 46.571834 L 3.3532837 46.571834 z M 2.5161255 46.6571 C 2.3181257 46.6571 2.2329386 46.769749 2.2329386 47.000749 C 2.2329386 47.233248 2.3181257 47.345947 2.5161255 47.345947 C 2.7141253 47.345947 2.7982788 47.233248 2.7982788 47.000749 C 2.7982788 46.769749 2.7126253 46.6571 2.5161255 46.6571 z " />
    <path
       id="rect2-3"
       style="fill:#ffffff;stroke:none;stroke-width:0.25;stroke-linecap:round"
       d="m 0.9999392,49.00011 c -0.554,0 -0.999939,0.445939 -0.999939,0.999939 0,0.553999 0.445939,0.999939 0.999939,0.999939 h 8.000028 c 0.554,0 0.999939,-0.44594 0.999939,-0.999939 0,-0.554 -0.445939,-0.999939 -0.999939,-0.999939 z m 2.410189,0.476973 h 0.09767 c 0.123,0 0.199471,0.07825 0.199471,0.238745 0,0.1605 -0.07647,0.238229 -0.199471,0.238229 h -0.09767 c -0.123,0 -0.197921,-0.07773 -0.197921,-0.238229 0,-0.160499 0.07492,-0.238745 0.197921,-0.238745 z m -0.827857,0.0031 c 0.294,0 0.457336,0.181432 0.457336,0.521932 0,0.339 -0.161836,0.520382 -0.457336,0.520382 -0.2955,0 -0.457336,-0.181382 -0.457336,-0.520382 0,-0.3405 0.163336,-0.521932 0.457336,-0.521932 z m -1.069185,0.01499 h 0.38809 v 0.17725 h -0.38809 c -0.168,0 -0.255469,0.07173 -0.276469,0.238229 h 0.42478 c 0.207,0 0.29869,0.0884 0.29869,0.274401 0,0.1815 -0.09023,0.322461 -0.315226,0.322461 h -0.1726 c -0.254999,0 -0.417029,-0.166395 -0.417029,-0.505395 0,-0.3405 0.163854,-0.506946 0.457854,-0.506946 z m 2.774507,0 h 0.391708 v 0.17725 h -0.391708 c -0.194999,0 -0.280086,0.0972 -0.280086,0.329696 0,0.231 0.08359,0.328662 0.280086,0.328662 h 0.391708 v 0.176733 h -0.391708 c -0.295499,0 -0.457336,-0.166395 -0.457336,-0.505395 0,-0.3405 0.163337,-0.506946 0.457336,-0.506946 z m -0.868164,0.07648 c -0.078,0 -0.109554,0.04218 -0.109554,0.144177 0,0.102 0.03155,0.142627 0.109554,0.142627 h 0.07958 c 0.0765,0 0.109554,-0.04063 0.109554,-0.142627 0,-0.101999 -0.03305,-0.144177 -0.109554,-0.144177 z m -0.837158,0.08578 c -0.198,0 -0.283187,0.112132 -0.283187,0.343132 0,0.232499 0.08519,0.345198 0.283187,0.345198 0.198,0 0.282153,-0.112699 0.282153,-0.345198 0,-0.231 -0.08565,-0.343132 -0.282153,-0.343132 z m -1.348238,0.395842 c 0.012,0.194999 0.09602,0.277502 0.262516,0.277502 h 0.14056 c 0.1005,0 0.148828,-0.06028 0.148828,-0.147278 0,-0.09 -0.05113,-0.130224 -0.142627,-0.130224 z" />
    <path
       id="rect2-8-3"
       style="fill:#ffffff;stroke:none;stroke-width:0.25;stroke-linecap:round"
       d="M 0.99993896 51.999927 C 0.44593952 51.999927 0 52.445866 0 52.999866 C 7.8332324e-17 53.553865 0.44593952 53.999805 0.99993896 53.999805 L 8.9999674 53.999805 C 9.5539669 53.999805 9.9999064 53.553865 9.9999064 52.999866 C 9.9999064 52.445866 9.5539669 51.999927 8.9999674 51.999927 L 0.99993896 51.999927 z M 3.3398478 52.477417 L 3.4375163 52.477417 C 3.5605162 52.477417 3.6369873 52.555146 3.6369873 52.715645 C 3.6369873 52.876145 3.5605162 52.95439 3.4375163 52.95439 L 3.3398478 52.95439 C 3.2168479 52.95439 3.1419271 52.876145 3.1419271 52.715645 C 3.1419271 52.555146 3.2168479 52.477417 3.3398478 52.477417 z M 2.5119914 52.480001 C 2.8059911 52.480001 2.9693278 52.66195 2.9693278 53.00245 C 2.9693278 53.341449 2.8074911 53.522831 2.5119914 53.522831 C 2.2164917 53.522831 2.0541382 53.341449 2.0541382 53.00245 C 2.0541382 52.66195 2.2179917 52.480001 2.5119914 52.480001 z M 1.1394653 52.495504 L 1.8381307 52.495504 L 1.8381307 52.672237 L 1.2516032 52.672237 C 1.2381032 52.672237 1.2324829 52.676824 1.2324829 52.690324 L 1.2324829 52.874809 C 1.2324829 52.886809 1.2381032 52.892896 1.2516032 52.892896 L 1.5518433 52.892896 C 1.824843 52.892896 1.8939412 53.027518 1.8939412 53.189518 C 1.8939412 53.374018 1.8024298 53.507845 1.56993 53.507845 L 1.0598836 53.507845 L 1.0598836 53.330595 L 1.5756144 53.330595 C 1.6761143 53.330595 1.7166911 53.273934 1.7166911 53.186934 C 1.7166911 53.105934 1.6791281 53.053092 1.5606283 53.053092 L 1.1394653 53.053092 C 1.0824654 53.053092 1.0552327 53.026427 1.0552327 52.970927 L 1.0552327 52.577669 C 1.0552327 52.522169 1.0824654 52.495504 1.1394653 52.495504 z M 4.2173136 52.495504 L 4.609021 52.495504 L 4.609021 52.672237 L 4.2173136 52.672237 C 4.0223138 52.672237 3.9367106 52.76995 3.9367106 53.00245 C 3.9367106 53.233449 4.0208138 53.330595 4.2173136 53.330595 L 4.609021 53.330595 L 4.609021 53.507845 L 4.2173136 53.507845 C 3.9218139 53.507845 3.7599772 53.341449 3.7599772 53.00245 C 3.7599772 52.66195 3.9233139 52.495504 4.2173136 52.495504 z M 3.3486328 52.571985 C 3.2706329 52.571985 3.2390788 52.613645 3.2390788 52.715645 C 3.2390788 52.817645 3.2706329 52.858272 3.3486328 52.858272 L 3.4282145 52.858272 C 3.5047144 52.858272 3.5377686 52.817645 3.5377686 52.715645 C 3.5377686 52.613645 3.5047144 52.571985 3.4282145 52.571985 L 3.3486328 52.571985 z M 2.5119914 52.657251 C 2.3139916 52.657251 2.2282878 52.769899 2.2282878 53.000899 C 2.2282878 53.233399 2.3139916 53.345581 2.5119914 53.345581 C 2.7099912 53.345581 2.7936279 53.233399 2.7936279 53.000899 C 2.7936279 52.769899 2.7084912 52.657251 2.5119914 52.657251 z " />
    <path
       id="rect2-8-0"
       style="fill:#ffffff;stroke:none;stroke-width:0.25;stroke-linecap:round"
       d="M 0.99993896 54.999744 C 0.44593952 54.999744 0 55.4462 0 56.000199 C 7.8332324e-17 56.554199 0.44593952 57.000138 0.99993896 57.000138 L 8.9999674 57.000138 C 9.5539669 57.000138 9.9999064 56.554199 9.9999064 56.000199 C 9.9999064 55.4462 9.5539669 54.999744 8.9999674 54.999744 L 0.99993896 54.999744 z M 3.4328654 55.477234 L 3.5305339 55.477234 C 3.6535337 55.477234 3.7300049 55.555479 3.7300049 55.715979 C 3.7300049 55.876479 3.6535337 55.954207 3.5305339 55.954207 L 3.4328654 55.954207 C 3.3098655 55.954207 3.2349447 55.876479 3.2349447 55.715979 C 3.2349447 55.555479 3.3098655 55.477234 3.4328654 55.477234 z M 2.605009 55.480334 C 2.8990087 55.480334 3.0623454 55.661767 3.0623454 56.002266 C 3.0623454 56.341266 2.9005087 56.522648 2.605009 56.522648 C 2.3095092 56.522648 2.1471558 56.341266 2.1471558 56.002266 C 2.1471558 55.661767 2.3110092 55.480334 2.605009 55.480334 z M 1.6464111 55.495321 L 1.7590658 55.495321 C 1.8895656 55.495321 1.9420003 55.559806 1.9420003 55.679806 L 1.9420003 56.507662 L 1.7631999 56.507662 L 1.7631999 56.297856 L 1.289327 56.297856 C 1.1183272 56.297856 1.0552327 56.236156 1.0552327 56.122156 C 1.0552327 56.047156 1.080778 56.003858 1.118278 55.958858 L 1.4107666 55.609009 C 1.4737665 55.534009 1.5249113 55.495321 1.6464111 55.495321 z M 4.3103312 55.495321 L 4.7020386 55.495321 L 4.7020386 55.672054 L 4.3103312 55.672054 C 4.1153314 55.672054 4.0297282 55.769767 4.0297282 56.002266 C 4.0297282 56.233266 4.1138314 56.330929 4.3103312 56.330929 L 4.7020386 56.330929 L 4.7020386 56.507662 L 4.3103312 56.507662 C 4.0148315 56.507662 3.8529948 56.341266 3.8529948 56.002266 C 3.8529948 55.661767 4.0163315 55.495321 4.3103312 55.495321 z M 3.4416504 55.571802 C 3.3636505 55.571802 3.3320964 55.613979 3.3320964 55.715979 C 3.3320964 55.817979 3.3636505 55.858089 3.4416504 55.858089 L 3.5212321 55.858089 C 3.597732 55.858089 3.6307861 55.817979 3.6307861 55.715979 C 3.6307861 55.613979 3.597732 55.571802 3.5212321 55.571802 L 3.4416504 55.571802 z M 2.605009 55.657068 C 2.4070091 55.657068 2.3213053 55.769716 2.3213053 56.000716 C 2.3213053 56.233216 2.4070091 56.345915 2.605009 56.345915 C 2.8030088 56.345915 2.8866455 56.233216 2.8866455 56.000716 C 2.8866455 55.769716 2.8015088 55.657068 2.605009 55.657068 z M 1.6386597 55.672054 C 1.5936597 55.672054 1.5756924 55.682979 1.5471924 55.715979 L 1.2712402 56.044124 C 1.2592402 56.057624 1.2531535 56.071133 1.2531535 56.090633 C 1.2531535 56.122133 1.2728497 56.140243 1.3208496 56.140243 L 1.7631999 56.140243 L 1.7631999 55.721663 C 1.7631999 55.690163 1.7497413 55.672054 1.7182414 55.672054 L 1.6386597 55.672054 z " />
    <path
       id="rect2-1-7"
       style="fill:#ffffff;stroke:none;stroke-width:0.25;stroke-linecap:round"
       d="M 0.99993896 58.000077 C 0.44593952 58.000077 0 58.446017 0 59.000016 C 7.8332324e-17 59.554016 0.44593952 59.999955 0.99993896 59.999955 L 8.9999674 59.999955 C 9.5539669 59.999955 9.9999064 59.554016 9.9999064 59.000016 C 9.9999064 58.446017 9.5539669 58.000077 8.9999674 58.000077 L 0.99993896 58.000077 z M 3.3594849 58.477051 L 3.4566366 58.477051 C 3.5796364 58.477051 3.6561076 58.555296 3.6561076 58.715796 C 3.6561076 58.876296 3.5796364 58.954024 3.4566366 58.954024 L 3.3594849 58.954024 C 3.236485 58.954024 3.1615641 58.876296 3.1615641 58.715796 C 3.1615641 58.555296 3.236485 58.477051 3.3594849 58.477051 z M 2.5311117 58.480151 C 2.8251114 58.480151 2.9889648 58.661584 2.9889648 59.002083 C 2.9889648 59.341083 2.8266114 59.522982 2.5311117 59.522982 C 2.2356119 59.522982 2.0737752 59.341083 2.0737752 59.002083 C 2.0737752 58.661584 2.2371119 58.480151 2.5311117 58.480151 z M 1.056783 58.495138 L 1.5621785 58.495138 C 1.8006783 58.495138 1.9011759 58.610956 1.9011759 58.766956 C 1.9011759 58.886955 1.8505154 58.9605 1.7575155 58.9995 C 1.8535154 59.039999 1.9042765 59.114678 1.9042765 59.236178 C 1.9042765 59.387677 1.8053292 59.507996 1.5668294 59.507996 L 1.0552327 59.507996 L 1.0552327 59.330745 L 1.5668294 59.330745 C 1.6703293 59.330745 1.7197917 59.282554 1.7197917 59.201554 C 1.7197917 59.120554 1.667279 59.080115 1.5652791 59.080115 L 1.2531535 59.080115 L 1.2531535 58.919918 L 1.5606283 58.919918 C 1.6641282 58.919918 1.7151408 58.882478 1.7151408 58.798478 C 1.7151408 58.721978 1.6686784 58.672388 1.5621785 58.672388 L 1.056783 58.672388 L 1.056783 58.495138 z M 4.2369507 58.495138 L 4.6281413 58.495138 L 4.6281413 58.672388 L 4.2369507 58.672388 C 4.0419509 58.672388 3.9563477 58.769584 3.9563477 59.002083 C 3.9563477 59.233083 4.0404509 59.330745 4.2369507 59.330745 L 4.6281413 59.330745 L 4.6281413 59.507996 L 4.2369507 59.507996 C 3.941451 59.507996 3.7790975 59.341083 3.7790975 59.002083 C 3.7790975 58.661584 3.942951 58.495138 4.2369507 58.495138 z M 3.3682699 58.571619 C 3.2902699 58.571619 3.2587158 58.613796 3.2587158 58.715796 C 3.2587158 58.817796 3.2902699 58.858423 3.3682699 58.858423 L 3.4478516 58.858423 C 3.5243515 58.858423 3.5574056 58.817796 3.5574056 58.715796 C 3.5574056 58.613796 3.5243515 58.571619 3.4478516 58.571619 L 3.3682699 58.571619 z M 2.5311117 58.657402 C 2.3331119 58.657402 2.2479248 58.769533 2.2479248 59.000533 C 2.2479248 59.233033 2.3331119 59.345732 2.5311117 59.345732 C 2.7291115 59.345732 2.813265 59.233033 2.813265 59.000533 C 2.813265 58.769533 2.7276115 58.657402 2.5311117 58.657402 z " />
    <path
       id="rect2-3-2"
       style="fill:#ffffff;stroke:none;stroke-width:0.25;stroke-linecap:round"
       d="M 0.99993896 60.999894 C 0.44593952 60.999894 0 61.445834 0 61.999833 C 7.8332324e-17 62.553833 0.44593952 62.999772 0.99993896 62.999772 L 8.9999674 62.999772 C 9.5539669 62.999772 9.9999064 62.553833 9.9999064 61.999833 C 9.9999064 61.445834 9.5539669 60.999894 8.9999674 60.999894 L 0.99993896 60.999894 z M 3.3951416 61.477384 L 3.4928101 61.477384 C 3.6158099 61.477384 3.6922811 61.555113 3.6922811 61.715613 C 3.6922811 61.876113 3.6158099 61.954358 3.4928101 61.954358 L 3.3951416 61.954358 C 3.2721417 61.954358 3.1972209 61.876113 3.1972209 61.715613 C 3.1972209 61.555113 3.2721417 61.477384 3.3951416 61.477384 z M 2.5672852 61.480485 C 2.8612849 61.480485 3.0246216 61.661917 3.0246216 62.002417 C 3.0246216 62.341417 2.8627849 62.522799 2.5672852 62.522799 C 2.2717855 62.522799 2.1099487 62.341417 2.1099487 62.002417 C 2.1099487 61.661917 2.2732855 61.480485 2.5672852 61.480485 z M 1.0883057 61.495471 L 1.668632 61.495471 C 1.8636318 61.495471 1.9735229 61.595759 1.9735229 61.781759 C 1.9735229 61.931758 1.9013783 62.01556 1.7378784 62.05306 L 1.3161987 62.147628 C 1.2456988 62.164128 1.2324829 62.201732 1.2324829 62.258732 L 1.2324829 62.309892 C 1.2324829 62.326392 1.2381032 62.330562 1.2516032 62.330562 L 1.9461344 62.330562 L 1.9461344 62.507812 L 1.1394653 62.507812 C 1.0824654 62.507812 1.0552327 62.48063 1.0552327 62.42513 L 1.0552327 62.272168 C 1.0552327 62.107168 1.1049416 62.02023 1.2774414 61.98123 L 1.7032552 61.883561 C 1.7752551 61.867061 1.7978231 61.832859 1.7978231 61.784859 C 1.7978231 61.717359 1.7542828 61.672205 1.6732829 61.672205 L 1.0883057 61.672205 L 1.0883057 61.495471 z M 4.2726074 61.495471 L 4.6643148 61.495471 L 4.6643148 61.672205 L 4.2726074 61.672205 C 4.0776076 61.672205 3.9925212 61.769917 3.9925212 62.002417 C 3.9925212 62.233417 4.0761076 62.330562 4.2726074 62.330562 L 4.6643148 62.330562 L 4.6643148 62.507812 L 4.2726074 62.507812 C 3.9771077 62.507812 3.815271 62.341417 3.815271 62.002417 C 3.815271 61.661917 3.9786077 61.495471 4.2726074 61.495471 z M 3.4044434 61.571952 C 3.3264434 61.571952 3.2948893 61.613613 3.2948893 61.715613 C 3.2948893 61.817613 3.3264434 61.85824 3.4044434 61.85824 L 3.4840251 61.85824 C 3.560525 61.85824 3.5935791 61.817613 3.5935791 61.715613 C 3.5935791 61.613613 3.560525 61.571952 3.4840251 61.571952 L 3.4044434 61.571952 z M 2.5672852 61.657218 C 2.3692854 61.657218 2.2835815 61.769867 2.2835815 62.000867 C 2.2835815 62.233366 2.3692854 62.345549 2.5672852 62.345549 C 2.765285 62.345549 2.8494385 62.233366 2.8494385 62.000867 C 2.8494385 61.769867 2.763785 61.657218 2.5672852 61.657218 z " />
    <path
       id="rect2-8-3-6"
       style="fill:#ffffff;stroke:none;stroke-width:0.25;stroke-linecap:round"
       d="M 0.99993896 64.000228 C 0.44593952 64.000228 0 64.446167 0 65.000167 C 7.8332324e-17 65.554166 0.44593952 66.000106 0.99993896 66.000106 L 8.9999674 66.000106 C 9.5539669 66.000106 9.9999064 65.554166 9.9999064 65.000167 C 9.9999064 64.446167 9.5539669 64.000228 8.9999674 64.000228 L 0.99993896 64.000228 z M 2.8881958 64.477201 L 2.9858643 64.477201 C 3.1088641 64.477201 3.1853353 64.555447 3.1853353 64.715946 C 3.1853353 64.876446 3.1088641 64.954175 2.9858643 64.954175 L 2.8881958 64.954175 C 2.7651959 64.954175 2.6902751 64.876446 2.6902751 64.715946 C 2.6902751 64.555447 2.7651959 64.477201 2.8881958 64.477201 z M 2.0603394 64.480302 C 2.3543391 64.480302 2.5176758 64.661734 2.5176758 65.002234 C 2.5176758 65.341234 2.3558391 65.522616 2.0603394 65.522616 C 1.7648397 65.522616 1.6030029 65.341234 1.6030029 65.002234 C 1.6030029 64.661734 1.7663396 64.480302 2.0603394 64.480302 z M 1.0552327 64.495288 L 1.1616862 64.495288 C 1.346186 64.495288 1.3973307 64.561117 1.3973307 64.736617 L 1.3973307 65.507629 L 1.2200806 65.507629 L 1.2200806 64.748503 C 1.2200806 64.694503 1.2007 64.672021 1.1467 64.672021 L 1.0552327 64.672021 L 1.0552327 64.495288 z M 3.7656616 64.495288 L 4.157369 64.495288 L 4.157369 64.672021 L 3.7656616 64.672021 C 3.5706618 64.672021 3.4855754 64.769734 3.4855754 65.002234 C 3.4855754 65.233234 3.5691618 65.330896 3.7656616 65.330896 L 4.157369 65.330896 L 4.157369 65.507629 L 3.7656616 65.507629 C 3.4701619 65.507629 3.3083252 65.341234 3.3083252 65.002234 C 3.3083252 64.661734 3.4716619 64.495288 3.7656616 64.495288 z M 2.8974976 64.571769 C 2.8194976 64.571769 2.7879435 64.613947 2.7879435 64.715946 C 2.7879435 64.817946 2.8194976 64.858057 2.8974976 64.858057 L 2.9770793 64.858057 C 3.0535792 64.858057 3.0861165 64.817946 3.0861165 64.715946 C 3.0861165 64.613947 3.0535792 64.571769 2.9770793 64.571769 L 2.8974976 64.571769 z M 2.0603394 64.657035 C 1.8623396 64.657035 1.7766357 64.769684 1.7766357 65.000684 C 1.7766357 65.233183 1.8623396 65.345882 2.0603394 65.345882 C 2.2583392 65.345882 2.3424927 65.233183 2.3424927 65.000684 C 2.3424927 64.769684 2.2568392 64.657035 2.0603394 64.657035 z " />
    <g
       id="g1"
       transform="translate(12.652527,13.306314)" />
    <path
       id="rect2-8-3-6-0"
       style="fill:#ffffff;stroke:none;stroke-width:0.25;stroke-linecap:round"
       d="M 0.99993896 67.000045 C 0.44593952 67.000045 0 67.445984 0 67.999984 C 7.8332324e-17 68.553983 0.44593952 68.999923 0.99993896 68.999923 L 8.9999674 68.999923 C 9.5539669 68.999923 9.9999064 68.553983 9.9999064 67.999984 C 9.9999064 67.445984 9.5539669 67.000045 8.9999674 67.000045 L 0.99993896 67.000045 z M 3.4628377 67.477018 L 3.5605062 67.477018 C 3.6835061 67.477018 3.7599772 67.555264 3.7599772 67.715763 C 3.7599772 67.876263 3.6835061 67.954508 3.5605062 67.954508 L 3.4628377 67.954508 C 3.3398379 67.954508 3.264917 67.876263 3.264917 67.715763 C 3.264917 67.555264 3.3398379 67.477018 3.4628377 67.477018 z M 1.5130859 67.480119 C 1.8070856 67.480119 1.9704224 67.661551 1.9704224 68.002051 C 1.9704224 68.34105 1.8085856 68.522949 1.5130859 68.522949 C 1.2175862 68.522949 1.0552327 68.34105 1.0552327 68.002051 C 1.0552327 67.661551 1.2190862 67.480119 1.5130859 67.480119 z M 2.6349813 67.480119 C 2.928981 67.480119 3.0923177 67.661551 3.0923177 68.002051 C 3.0923177 68.34105 2.930481 68.522949 2.6349813 68.522949 C 2.3394816 68.522949 2.1771281 68.34105 2.1771281 68.002051 C 2.1771281 67.661551 2.3409816 67.480119 2.6349813 67.480119 z M 4.3403035 67.495105 L 4.7320109 67.495105 L 4.7320109 67.672355 L 4.3403035 67.672355 C 4.1453037 67.672355 4.0597005 67.769551 4.0597005 68.002051 C 4.0597005 68.233051 4.1438037 68.330713 4.3403035 68.330713 L 4.7320109 68.330713 L 4.7320109 68.507963 L 4.3403035 68.507963 C 4.0448038 68.507963 3.8829671 68.34105 3.8829671 68.002051 C 3.8829671 67.661551 4.0463038 67.495105 4.3403035 67.495105 z M 3.4716227 67.571586 C 3.3936228 67.571586 3.3625854 67.613763 3.3625854 67.715763 C 3.3625854 67.817763 3.3936228 67.85839 3.4716227 67.85839 L 3.5512044 67.85839 C 3.6277044 67.85839 3.6607585 67.817763 3.6607585 67.715763 C 3.6607585 67.613763 3.6277044 67.571586 3.5512044 67.571586 L 3.4716227 67.571586 z M 1.5130859 67.657369 C 1.3150861 67.657369 1.2293823 67.769501 1.2293823 68.0005 C 1.2293823 68.233 1.3150861 68.345699 1.5130859 68.345699 C 1.7110857 68.345699 1.7947225 68.233 1.7947225 68.0005 C 1.7947225 67.769501 1.7095857 67.657369 1.5130859 67.657369 z M 2.6349813 67.657369 C 2.4369815 67.657369 2.3512777 67.769501 2.3512777 68.0005 C 2.3512777 68.233 2.4369815 68.345699 2.6349813 68.345699 C 2.8329811 68.345699 2.9166178 68.233 2.9166178 68.0005 C 2.9166178 67.769501 2.8314811 67.657369 2.6349813 67.657369 z " />
    <circle
       style="fill:none;stroke:none;stroke-width:0.25;stroke-linecap:round"
       id="path2"
       cx="54.371082"
       cy="47.105274"
       r="15" />
  </g>
</svg>
