%TF.GenerationSoftware,KiCad,Pcbnew,8.0.5*%
%TF.CreationDate,2024-09-24T22:25:09+12:00*%
%TF.ProjectId,USB Cable Tester,55534220-4361-4626-9c65-205465737465,rev?*%
%TF.SameCoordinates,Original*%
%TF.FileFunction,Soldermask,Bot*%
%TF.FilePolarity,Negative*%
%FSLAX46Y46*%
G04 Gerber Fmt 4.6, Leading zero omitted, Abs format (unit mm)*
G04 Created by KiCad (PCBNEW 8.0.5) date 2024-09-24 22:25:09*
%MOMM*%
%LPD*%
G01*
G04 APERTURE LIST*
G04 APERTURE END LIST*
G36*
X36438298Y-46356725D02*
G01*
X36478108Y-46356725D01*
X36511630Y-46364987D01*
X36544102Y-46368646D01*
X36586101Y-46383342D01*
X36629784Y-46394109D01*
X36655617Y-46407667D01*
X36680976Y-46416541D01*
X36723832Y-46443469D01*
X36768106Y-46466706D01*
X36785895Y-46482466D01*
X36803766Y-46493695D01*
X36844121Y-46534050D01*
X36885035Y-46570297D01*
X36895435Y-46585364D01*
X36906304Y-46596233D01*
X36940467Y-46650603D01*
X36973776Y-46698859D01*
X36978324Y-46710853D01*
X36983458Y-46719023D01*
X37007740Y-46788416D01*
X37029170Y-46844923D01*
X37030050Y-46852174D01*
X37031353Y-46855897D01*
X37042299Y-46953050D01*
X37048000Y-47000000D01*
X37042298Y-47046953D01*
X37031353Y-47144102D01*
X37030050Y-47147823D01*
X37029170Y-47155077D01*
X37007735Y-47211595D01*
X36983458Y-47280976D01*
X36978325Y-47289143D01*
X36973776Y-47301141D01*
X36940460Y-47349406D01*
X36906304Y-47403766D01*
X36895437Y-47414632D01*
X36885035Y-47429703D01*
X36844112Y-47465957D01*
X36803766Y-47506304D01*
X36785899Y-47517530D01*
X36768106Y-47533294D01*
X36723822Y-47556535D01*
X36680976Y-47583458D01*
X36655623Y-47592329D01*
X36629784Y-47605891D01*
X36586091Y-47616659D01*
X36544102Y-47631353D01*
X36511638Y-47635010D01*
X36478108Y-47643275D01*
X36438289Y-47643275D01*
X36400000Y-47647589D01*
X36361711Y-47643275D01*
X36321892Y-47643275D01*
X36288362Y-47635010D01*
X36255897Y-47631353D01*
X36213905Y-47616659D01*
X36170216Y-47605891D01*
X36144378Y-47592330D01*
X36119023Y-47583458D01*
X36076171Y-47556532D01*
X36031894Y-47533294D01*
X36014103Y-47517532D01*
X35996233Y-47506304D01*
X35955878Y-47465949D01*
X35914965Y-47429703D01*
X35904564Y-47414635D01*
X35893695Y-47403766D01*
X35859528Y-47349390D01*
X35826224Y-47301141D01*
X35821675Y-47289147D01*
X35816541Y-47280976D01*
X35792251Y-47211561D01*
X35770830Y-47155077D01*
X35769949Y-47147827D01*
X35768646Y-47144102D01*
X35757687Y-47046839D01*
X35752000Y-47000000D01*
X35757686Y-46953165D01*
X35768646Y-46855897D01*
X35769949Y-46852170D01*
X35770830Y-46844923D01*
X35792246Y-46788450D01*
X35816541Y-46719023D01*
X35821676Y-46710849D01*
X35826224Y-46698859D01*
X35859521Y-46650619D01*
X35893695Y-46596233D01*
X35904566Y-46585361D01*
X35914965Y-46570297D01*
X35955869Y-46534058D01*
X35996233Y-46493695D01*
X36014107Y-46482463D01*
X36031894Y-46466706D01*
X36076161Y-46443472D01*
X36119023Y-46416541D01*
X36144384Y-46407666D01*
X36170216Y-46394109D01*
X36213895Y-46383343D01*
X36255897Y-46368646D01*
X36288369Y-46364987D01*
X36321892Y-46356725D01*
X36361702Y-46356725D01*
X36400000Y-46352410D01*
X36438298Y-46356725D01*
G37*
G36*
X71334716Y-42440278D02*
G01*
X71643542Y-42496872D01*
X71943294Y-42590279D01*
X72229601Y-42719135D01*
X72498289Y-42881563D01*
X72745440Y-43075193D01*
X72967449Y-43297202D01*
X73161079Y-43544353D01*
X73323507Y-43813041D01*
X73452363Y-44099348D01*
X73545770Y-44399100D01*
X73602364Y-44707926D01*
X73621321Y-45021321D01*
X73602364Y-45334716D01*
X73545770Y-45643542D01*
X73452363Y-45943294D01*
X73323507Y-46229601D01*
X73161079Y-46498289D01*
X72967449Y-46745440D01*
X72745440Y-46967449D01*
X72498289Y-47161079D01*
X72229601Y-47323507D01*
X71943294Y-47452363D01*
X71643542Y-47545770D01*
X71334716Y-47602364D01*
X71021321Y-47621321D01*
X70707926Y-47602364D01*
X70399100Y-47545770D01*
X70099348Y-47452363D01*
X69813041Y-47323507D01*
X69544353Y-47161079D01*
X69297202Y-46967449D01*
X69075193Y-46745440D01*
X68881563Y-46498289D01*
X68719135Y-46229601D01*
X68590279Y-45943294D01*
X68496872Y-45643542D01*
X68440278Y-45334716D01*
X68421321Y-45021321D01*
X68440278Y-44707926D01*
X68496872Y-44399100D01*
X68590279Y-44099348D01*
X68719135Y-43813041D01*
X68881563Y-43544353D01*
X69075193Y-43297202D01*
X69297202Y-43075193D01*
X69544353Y-42881563D01*
X69813041Y-42719135D01*
X70099348Y-42590279D01*
X70399100Y-42496872D01*
X70707926Y-42440278D01*
X71021321Y-42421321D01*
X71334716Y-42440278D01*
G37*
G36*
X60655380Y-45875805D02*
G01*
X60687560Y-45875805D01*
X60724457Y-45884899D01*
X60763671Y-45890062D01*
X60790514Y-45901180D01*
X60816181Y-45907507D01*
X60855095Y-45927931D01*
X60896321Y-45945007D01*
X60915129Y-45959439D01*
X60933485Y-45969073D01*
X60971013Y-46002320D01*
X61010230Y-46032412D01*
X61021375Y-46046936D01*
X61032644Y-46056920D01*
X61064959Y-46103737D01*
X61097635Y-46146321D01*
X61102560Y-46158211D01*
X61107899Y-46165946D01*
X61131061Y-46227021D01*
X61152580Y-46278971D01*
X61153545Y-46286305D01*
X61154875Y-46289811D01*
X61165171Y-46374613D01*
X61171321Y-46421321D01*
X61165182Y-46467947D01*
X61154875Y-46552830D01*
X61153545Y-46556334D01*
X61152580Y-46563671D01*
X61131057Y-46615631D01*
X61107899Y-46676695D01*
X61102561Y-46684428D01*
X61097635Y-46696321D01*
X61064952Y-46738913D01*
X61032644Y-46785721D01*
X61021377Y-46795702D01*
X61010230Y-46810230D01*
X60971005Y-46840328D01*
X60933485Y-46873568D01*
X60915133Y-46883199D01*
X60896321Y-46897635D01*
X60855086Y-46914714D01*
X60816181Y-46935134D01*
X60790519Y-46941459D01*
X60763671Y-46952580D01*
X60724455Y-46957742D01*
X60687560Y-46966837D01*
X60655380Y-46966837D01*
X60621321Y-46971321D01*
X60587262Y-46966837D01*
X60555082Y-46966837D01*
X60518186Y-46957742D01*
X60478971Y-46952580D01*
X60452124Y-46941459D01*
X60426460Y-46935134D01*
X60387550Y-46914712D01*
X60346321Y-46897635D01*
X60327510Y-46883201D01*
X60309156Y-46873568D01*
X60271629Y-46840322D01*
X60232412Y-46810230D01*
X60221266Y-46795704D01*
X60209997Y-46785721D01*
X60177679Y-46738900D01*
X60145007Y-46696321D01*
X60140082Y-46684432D01*
X60134742Y-46676695D01*
X60111572Y-46615602D01*
X60090062Y-46563671D01*
X60089096Y-46556338D01*
X60087766Y-46552830D01*
X60077457Y-46467934D01*
X60071321Y-46421321D01*
X60077457Y-46374711D01*
X60087766Y-46289811D01*
X60089096Y-46286301D01*
X60090062Y-46278971D01*
X60111568Y-46227050D01*
X60134742Y-46165946D01*
X60140083Y-46158207D01*
X60145007Y-46146321D01*
X60177672Y-46103750D01*
X60209997Y-46056920D01*
X60221269Y-46046933D01*
X60232412Y-46032412D01*
X60271620Y-46002326D01*
X60309156Y-45969073D01*
X60327514Y-45959437D01*
X60346321Y-45945007D01*
X60387541Y-45927933D01*
X60426460Y-45907507D01*
X60452128Y-45901180D01*
X60478971Y-45890062D01*
X60518183Y-45884899D01*
X60555082Y-45875805D01*
X60587262Y-45875805D01*
X60621321Y-45871321D01*
X60655380Y-45875805D01*
G37*
G36*
X62655380Y-45875805D02*
G01*
X62687560Y-45875805D01*
X62724457Y-45884899D01*
X62763671Y-45890062D01*
X62790514Y-45901180D01*
X62816181Y-45907507D01*
X62855095Y-45927931D01*
X62896321Y-45945007D01*
X62915129Y-45959439D01*
X62933485Y-45969073D01*
X62971013Y-46002320D01*
X63010230Y-46032412D01*
X63021375Y-46046936D01*
X63032644Y-46056920D01*
X63064959Y-46103737D01*
X63097635Y-46146321D01*
X63102560Y-46158211D01*
X63107899Y-46165946D01*
X63131061Y-46227021D01*
X63152580Y-46278971D01*
X63153545Y-46286305D01*
X63154875Y-46289811D01*
X63165171Y-46374613D01*
X63171321Y-46421321D01*
X63165182Y-46467947D01*
X63154875Y-46552830D01*
X63153545Y-46556334D01*
X63152580Y-46563671D01*
X63131057Y-46615631D01*
X63107899Y-46676695D01*
X63102561Y-46684428D01*
X63097635Y-46696321D01*
X63064952Y-46738913D01*
X63032644Y-46785721D01*
X63021377Y-46795702D01*
X63010230Y-46810230D01*
X62971005Y-46840328D01*
X62933485Y-46873568D01*
X62915133Y-46883199D01*
X62896321Y-46897635D01*
X62855086Y-46914714D01*
X62816181Y-46935134D01*
X62790519Y-46941459D01*
X62763671Y-46952580D01*
X62724455Y-46957742D01*
X62687560Y-46966837D01*
X62655380Y-46966837D01*
X62621321Y-46971321D01*
X62587262Y-46966837D01*
X62555082Y-46966837D01*
X62518186Y-46957742D01*
X62478971Y-46952580D01*
X62452124Y-46941459D01*
X62426460Y-46935134D01*
X62387550Y-46914712D01*
X62346321Y-46897635D01*
X62327510Y-46883201D01*
X62309156Y-46873568D01*
X62271629Y-46840322D01*
X62232412Y-46810230D01*
X62221266Y-46795704D01*
X62209997Y-46785721D01*
X62177679Y-46738900D01*
X62145007Y-46696321D01*
X62140082Y-46684432D01*
X62134742Y-46676695D01*
X62111572Y-46615602D01*
X62090062Y-46563671D01*
X62089096Y-46556338D01*
X62087766Y-46552830D01*
X62077457Y-46467934D01*
X62071321Y-46421321D01*
X62077457Y-46374711D01*
X62087766Y-46289811D01*
X62089096Y-46286301D01*
X62090062Y-46278971D01*
X62111568Y-46227050D01*
X62134742Y-46165946D01*
X62140083Y-46158207D01*
X62145007Y-46146321D01*
X62177672Y-46103750D01*
X62209997Y-46056920D01*
X62221269Y-46046933D01*
X62232412Y-46032412D01*
X62271620Y-46002326D01*
X62309156Y-45969073D01*
X62327514Y-45959437D01*
X62346321Y-45945007D01*
X62387541Y-45927933D01*
X62426460Y-45907507D01*
X62452128Y-45901180D01*
X62478971Y-45890062D01*
X62518183Y-45884899D01*
X62555082Y-45875805D01*
X62587262Y-45875805D01*
X62621321Y-45871321D01*
X62655380Y-45875805D01*
G37*
G36*
X64655380Y-45875805D02*
G01*
X64687560Y-45875805D01*
X64724457Y-45884899D01*
X64763671Y-45890062D01*
X64790514Y-45901180D01*
X64816181Y-45907507D01*
X64855095Y-45927931D01*
X64896321Y-45945007D01*
X64915129Y-45959439D01*
X64933485Y-45969073D01*
X64971013Y-46002320D01*
X65010230Y-46032412D01*
X65021375Y-46046936D01*
X65032644Y-46056920D01*
X65064959Y-46103737D01*
X65097635Y-46146321D01*
X65102560Y-46158211D01*
X65107899Y-46165946D01*
X65131061Y-46227021D01*
X65152580Y-46278971D01*
X65153545Y-46286305D01*
X65154875Y-46289811D01*
X65165171Y-46374613D01*
X65171321Y-46421321D01*
X65165182Y-46467947D01*
X65154875Y-46552830D01*
X65153545Y-46556334D01*
X65152580Y-46563671D01*
X65131057Y-46615631D01*
X65107899Y-46676695D01*
X65102561Y-46684428D01*
X65097635Y-46696321D01*
X65064952Y-46738913D01*
X65032644Y-46785721D01*
X65021377Y-46795702D01*
X65010230Y-46810230D01*
X64971005Y-46840328D01*
X64933485Y-46873568D01*
X64915133Y-46883199D01*
X64896321Y-46897635D01*
X64855086Y-46914714D01*
X64816181Y-46935134D01*
X64790519Y-46941459D01*
X64763671Y-46952580D01*
X64724455Y-46957742D01*
X64687560Y-46966837D01*
X64655380Y-46966837D01*
X64621321Y-46971321D01*
X64587262Y-46966837D01*
X64555082Y-46966837D01*
X64518186Y-46957742D01*
X64478971Y-46952580D01*
X64452124Y-46941459D01*
X64426460Y-46935134D01*
X64387550Y-46914712D01*
X64346321Y-46897635D01*
X64327510Y-46883201D01*
X64309156Y-46873568D01*
X64271629Y-46840322D01*
X64232412Y-46810230D01*
X64221266Y-46795704D01*
X64209997Y-46785721D01*
X64177679Y-46738900D01*
X64145007Y-46696321D01*
X64140082Y-46684432D01*
X64134742Y-46676695D01*
X64111572Y-46615602D01*
X64090062Y-46563671D01*
X64089096Y-46556338D01*
X64087766Y-46552830D01*
X64077457Y-46467934D01*
X64071321Y-46421321D01*
X64077457Y-46374711D01*
X64087766Y-46289811D01*
X64089096Y-46286301D01*
X64090062Y-46278971D01*
X64111568Y-46227050D01*
X64134742Y-46165946D01*
X64140083Y-46158207D01*
X64145007Y-46146321D01*
X64177672Y-46103750D01*
X64209997Y-46056920D01*
X64221269Y-46046933D01*
X64232412Y-46032412D01*
X64271620Y-46002326D01*
X64309156Y-45969073D01*
X64327514Y-45959437D01*
X64346321Y-45945007D01*
X64387541Y-45927933D01*
X64426460Y-45907507D01*
X64452128Y-45901180D01*
X64478971Y-45890062D01*
X64518183Y-45884899D01*
X64555082Y-45875805D01*
X64587262Y-45875805D01*
X64621321Y-45871321D01*
X64655380Y-45875805D01*
G37*
G36*
X58322696Y-44509330D02*
G01*
X58435735Y-44574593D01*
X58528031Y-44666889D01*
X58593294Y-44779928D01*
X58627076Y-44906007D01*
X58631354Y-44971270D01*
X58631354Y-46071270D01*
X58627076Y-46136533D01*
X58593294Y-46262612D01*
X58528031Y-46375651D01*
X58435735Y-46467947D01*
X58322696Y-46533210D01*
X58196617Y-46566992D01*
X58066091Y-46566992D01*
X57940012Y-46533210D01*
X57826973Y-46467947D01*
X57734677Y-46375651D01*
X57669414Y-46262612D01*
X57635632Y-46136533D01*
X57631354Y-46071270D01*
X57631354Y-44971270D01*
X57635632Y-44906007D01*
X57669414Y-44779928D01*
X57734677Y-44666889D01*
X57826973Y-44574593D01*
X57940012Y-44509330D01*
X58066091Y-44475548D01*
X58196617Y-44475548D01*
X58322696Y-44509330D01*
G37*
G36*
X67302630Y-44509330D02*
G01*
X67415669Y-44574593D01*
X67507965Y-44666889D01*
X67573228Y-44779928D01*
X67607010Y-44906007D01*
X67611288Y-44971270D01*
X67611288Y-46071270D01*
X67607010Y-46136533D01*
X67573228Y-46262612D01*
X67507965Y-46375651D01*
X67415669Y-46467947D01*
X67302630Y-46533210D01*
X67176551Y-46566992D01*
X67046025Y-46566992D01*
X66919946Y-46533210D01*
X66806907Y-46467947D01*
X66714611Y-46375651D01*
X66649348Y-46262612D01*
X66615566Y-46136533D01*
X66611288Y-46071270D01*
X66611288Y-44971270D01*
X66615566Y-44906007D01*
X66649348Y-44779928D01*
X66714611Y-44666889D01*
X66806907Y-44574593D01*
X66919946Y-44509330D01*
X67046025Y-44475548D01*
X67176551Y-44475548D01*
X67302630Y-44509330D01*
G37*
G36*
X60655380Y-43875805D02*
G01*
X60687560Y-43875805D01*
X60724457Y-43884899D01*
X60763671Y-43890062D01*
X60790514Y-43901180D01*
X60816181Y-43907507D01*
X60855095Y-43927931D01*
X60896321Y-43945007D01*
X60915129Y-43959439D01*
X60933485Y-43969073D01*
X60971013Y-44002320D01*
X61010230Y-44032412D01*
X61021375Y-44046936D01*
X61032644Y-44056920D01*
X61064959Y-44103737D01*
X61097635Y-44146321D01*
X61102560Y-44158211D01*
X61107899Y-44165946D01*
X61131061Y-44227021D01*
X61152580Y-44278971D01*
X61153545Y-44286305D01*
X61154875Y-44289811D01*
X61165171Y-44374613D01*
X61171321Y-44421321D01*
X61165171Y-44468032D01*
X61154875Y-44552830D01*
X61153545Y-44556334D01*
X61152580Y-44563671D01*
X61131057Y-44615631D01*
X61107899Y-44676695D01*
X61102561Y-44684428D01*
X61097635Y-44696321D01*
X61064952Y-44738913D01*
X61032644Y-44785721D01*
X61021377Y-44795702D01*
X61010230Y-44810230D01*
X60971005Y-44840328D01*
X60933485Y-44873568D01*
X60915133Y-44883199D01*
X60896321Y-44897635D01*
X60855086Y-44914714D01*
X60816181Y-44935134D01*
X60790519Y-44941459D01*
X60763671Y-44952580D01*
X60724455Y-44957742D01*
X60687560Y-44966837D01*
X60655380Y-44966837D01*
X60621321Y-44971321D01*
X60587262Y-44966837D01*
X60555082Y-44966837D01*
X60518186Y-44957742D01*
X60478971Y-44952580D01*
X60452124Y-44941459D01*
X60426460Y-44935134D01*
X60387550Y-44914712D01*
X60346321Y-44897635D01*
X60327510Y-44883201D01*
X60309156Y-44873568D01*
X60271629Y-44840322D01*
X60232412Y-44810230D01*
X60221266Y-44795704D01*
X60209997Y-44785721D01*
X60177679Y-44738900D01*
X60145007Y-44696321D01*
X60140082Y-44684432D01*
X60134742Y-44676695D01*
X60111572Y-44615602D01*
X60090062Y-44563671D01*
X60089096Y-44556338D01*
X60087766Y-44552830D01*
X60077457Y-44467934D01*
X60071321Y-44421321D01*
X60077457Y-44374711D01*
X60087766Y-44289811D01*
X60089096Y-44286301D01*
X60090062Y-44278971D01*
X60111568Y-44227050D01*
X60134742Y-44165946D01*
X60140083Y-44158207D01*
X60145007Y-44146321D01*
X60177672Y-44103750D01*
X60209997Y-44056920D01*
X60221269Y-44046933D01*
X60232412Y-44032412D01*
X60271620Y-44002326D01*
X60309156Y-43969073D01*
X60327514Y-43959437D01*
X60346321Y-43945007D01*
X60387541Y-43927933D01*
X60426460Y-43907507D01*
X60452128Y-43901180D01*
X60478971Y-43890062D01*
X60518183Y-43884899D01*
X60555082Y-43875805D01*
X60587262Y-43875805D01*
X60621321Y-43871321D01*
X60655380Y-43875805D01*
G37*
G36*
X62655380Y-43875805D02*
G01*
X62687560Y-43875805D01*
X62724457Y-43884899D01*
X62763671Y-43890062D01*
X62790514Y-43901180D01*
X62816181Y-43907507D01*
X62855095Y-43927931D01*
X62896321Y-43945007D01*
X62915129Y-43959439D01*
X62933485Y-43969073D01*
X62971013Y-44002320D01*
X63010230Y-44032412D01*
X63021375Y-44046936D01*
X63032644Y-44056920D01*
X63064959Y-44103737D01*
X63097635Y-44146321D01*
X63102560Y-44158211D01*
X63107899Y-44165946D01*
X63131061Y-44227021D01*
X63152580Y-44278971D01*
X63153545Y-44286305D01*
X63154875Y-44289811D01*
X63165171Y-44374613D01*
X63171321Y-44421321D01*
X63165171Y-44468032D01*
X63154875Y-44552830D01*
X63153545Y-44556334D01*
X63152580Y-44563671D01*
X63131057Y-44615631D01*
X63107899Y-44676695D01*
X63102561Y-44684428D01*
X63097635Y-44696321D01*
X63064952Y-44738913D01*
X63032644Y-44785721D01*
X63021377Y-44795702D01*
X63010230Y-44810230D01*
X62971005Y-44840328D01*
X62933485Y-44873568D01*
X62915133Y-44883199D01*
X62896321Y-44897635D01*
X62855086Y-44914714D01*
X62816181Y-44935134D01*
X62790519Y-44941459D01*
X62763671Y-44952580D01*
X62724455Y-44957742D01*
X62687560Y-44966837D01*
X62655380Y-44966837D01*
X62621321Y-44971321D01*
X62587262Y-44966837D01*
X62555082Y-44966837D01*
X62518186Y-44957742D01*
X62478971Y-44952580D01*
X62452124Y-44941459D01*
X62426460Y-44935134D01*
X62387550Y-44914712D01*
X62346321Y-44897635D01*
X62327510Y-44883201D01*
X62309156Y-44873568D01*
X62271629Y-44840322D01*
X62232412Y-44810230D01*
X62221266Y-44795704D01*
X62209997Y-44785721D01*
X62177679Y-44738900D01*
X62145007Y-44696321D01*
X62140082Y-44684432D01*
X62134742Y-44676695D01*
X62111572Y-44615602D01*
X62090062Y-44563671D01*
X62089096Y-44556338D01*
X62087766Y-44552830D01*
X62077457Y-44467934D01*
X62071321Y-44421321D01*
X62077457Y-44374711D01*
X62087766Y-44289811D01*
X62089096Y-44286301D01*
X62090062Y-44278971D01*
X62111568Y-44227050D01*
X62134742Y-44165946D01*
X62140083Y-44158207D01*
X62145007Y-44146321D01*
X62177672Y-44103750D01*
X62209997Y-44056920D01*
X62221269Y-44046933D01*
X62232412Y-44032412D01*
X62271620Y-44002326D01*
X62309156Y-43969073D01*
X62327514Y-43959437D01*
X62346321Y-43945007D01*
X62387541Y-43927933D01*
X62426460Y-43907507D01*
X62452128Y-43901180D01*
X62478971Y-43890062D01*
X62518183Y-43884899D01*
X62555082Y-43875805D01*
X62587262Y-43875805D01*
X62621321Y-43871321D01*
X62655380Y-43875805D01*
G37*
G36*
X64655380Y-43875805D02*
G01*
X64687560Y-43875805D01*
X64724457Y-43884899D01*
X64763671Y-43890062D01*
X64790514Y-43901180D01*
X64816181Y-43907507D01*
X64855095Y-43927931D01*
X64896321Y-43945007D01*
X64915129Y-43959439D01*
X64933485Y-43969073D01*
X64971013Y-44002320D01*
X65010230Y-44032412D01*
X65021375Y-44046936D01*
X65032644Y-44056920D01*
X65064959Y-44103737D01*
X65097635Y-44146321D01*
X65102560Y-44158211D01*
X65107899Y-44165946D01*
X65131061Y-44227021D01*
X65152580Y-44278971D01*
X65153545Y-44286305D01*
X65154875Y-44289811D01*
X65165171Y-44374613D01*
X65171321Y-44421321D01*
X65165171Y-44468032D01*
X65154875Y-44552830D01*
X65153545Y-44556334D01*
X65152580Y-44563671D01*
X65131057Y-44615631D01*
X65107899Y-44676695D01*
X65102561Y-44684428D01*
X65097635Y-44696321D01*
X65064952Y-44738913D01*
X65032644Y-44785721D01*
X65021377Y-44795702D01*
X65010230Y-44810230D01*
X64971005Y-44840328D01*
X64933485Y-44873568D01*
X64915133Y-44883199D01*
X64896321Y-44897635D01*
X64855086Y-44914714D01*
X64816181Y-44935134D01*
X64790519Y-44941459D01*
X64763671Y-44952580D01*
X64724455Y-44957742D01*
X64687560Y-44966837D01*
X64655380Y-44966837D01*
X64621321Y-44971321D01*
X64587262Y-44966837D01*
X64555082Y-44966837D01*
X64518186Y-44957742D01*
X64478971Y-44952580D01*
X64452124Y-44941459D01*
X64426460Y-44935134D01*
X64387550Y-44914712D01*
X64346321Y-44897635D01*
X64327510Y-44883201D01*
X64309156Y-44873568D01*
X64271629Y-44840322D01*
X64232412Y-44810230D01*
X64221266Y-44795704D01*
X64209997Y-44785721D01*
X64177679Y-44738900D01*
X64145007Y-44696321D01*
X64140082Y-44684432D01*
X64134742Y-44676695D01*
X64111572Y-44615602D01*
X64090062Y-44563671D01*
X64089096Y-44556338D01*
X64087766Y-44552830D01*
X64077457Y-44467934D01*
X64071321Y-44421321D01*
X64077457Y-44374711D01*
X64087766Y-44289811D01*
X64089096Y-44286301D01*
X64090062Y-44278971D01*
X64111568Y-44227050D01*
X64134742Y-44165946D01*
X64140083Y-44158207D01*
X64145007Y-44146321D01*
X64177672Y-44103750D01*
X64209997Y-44056920D01*
X64221269Y-44046933D01*
X64232412Y-44032412D01*
X64271620Y-44002326D01*
X64309156Y-43969073D01*
X64327514Y-43959437D01*
X64346321Y-43945007D01*
X64387541Y-43927933D01*
X64426460Y-43907507D01*
X64452128Y-43901180D01*
X64478971Y-43890062D01*
X64518183Y-43884899D01*
X64555082Y-43875805D01*
X64587262Y-43875805D01*
X64621321Y-43871321D01*
X64655380Y-43875805D01*
G37*
G36*
X58682615Y-40319439D02*
G01*
X58795654Y-40384702D01*
X58887950Y-40476998D01*
X58953213Y-40590037D01*
X58986995Y-40716116D01*
X58991273Y-40781379D01*
X58991273Y-41481379D01*
X58986995Y-41546642D01*
X58953213Y-41672721D01*
X58887950Y-41785760D01*
X58795654Y-41878056D01*
X58682615Y-41943319D01*
X58556536Y-41977101D01*
X58426010Y-41977101D01*
X58299931Y-41943319D01*
X58186892Y-41878056D01*
X58094596Y-41785760D01*
X58029333Y-41672721D01*
X57995551Y-41546642D01*
X57991273Y-41481379D01*
X57991273Y-40781379D01*
X57995551Y-40716116D01*
X58029333Y-40590037D01*
X58094596Y-40476998D01*
X58186892Y-40384702D01*
X58299931Y-40319439D01*
X58426010Y-40285657D01*
X58556536Y-40285657D01*
X58682615Y-40319439D01*
G37*
G36*
X66942711Y-40319439D02*
G01*
X67055750Y-40384702D01*
X67148046Y-40476998D01*
X67213309Y-40590037D01*
X67247091Y-40716116D01*
X67251369Y-40781379D01*
X67251369Y-41481379D01*
X67247091Y-41546642D01*
X67213309Y-41672721D01*
X67148046Y-41785760D01*
X67055750Y-41878056D01*
X66942711Y-41943319D01*
X66816632Y-41977101D01*
X66686106Y-41977101D01*
X66560027Y-41943319D01*
X66446988Y-41878056D01*
X66354692Y-41785760D01*
X66289429Y-41672721D01*
X66255647Y-41546642D01*
X66251369Y-41481379D01*
X66251369Y-40781379D01*
X66255647Y-40716116D01*
X66289429Y-40590037D01*
X66354692Y-40476998D01*
X66446988Y-40384702D01*
X66560027Y-40319439D01*
X66686106Y-40285657D01*
X66816632Y-40285657D01*
X66942711Y-40319439D01*
G37*
G36*
X60248767Y-40896616D02*
G01*
X60280311Y-40896616D01*
X60304610Y-40905460D01*
X60326088Y-40908862D01*
X60356422Y-40924318D01*
X60391273Y-40937003D01*
X60406665Y-40949919D01*
X60420643Y-40957041D01*
X60449273Y-40985671D01*
X60481729Y-41012905D01*
X60488862Y-41025260D01*
X60495684Y-41032082D01*
X60517346Y-41074596D01*
X60540770Y-41115167D01*
X60542225Y-41123424D01*
X60543863Y-41126637D01*
X60553311Y-41186290D01*
X60561275Y-41231456D01*
X60553305Y-41276655D01*
X60543863Y-41336274D01*
X60542226Y-41339486D01*
X60540770Y-41347745D01*
X60517342Y-41388323D01*
X60495684Y-41430829D01*
X60488863Y-41437649D01*
X60481729Y-41450007D01*
X60449267Y-41477245D01*
X60420643Y-41505870D01*
X60406668Y-41512990D01*
X60391273Y-41525909D01*
X60356415Y-41538596D01*
X60326088Y-41554049D01*
X60304615Y-41557449D01*
X60280311Y-41566296D01*
X60248761Y-41566296D01*
X60221270Y-41570650D01*
X60193779Y-41566296D01*
X60162229Y-41566296D01*
X60137924Y-41557449D01*
X60116451Y-41554049D01*
X60086121Y-41538594D01*
X60051267Y-41525909D01*
X60035872Y-41512991D01*
X60021896Y-41505870D01*
X59993266Y-41477240D01*
X59960811Y-41450007D01*
X59953677Y-41437651D01*
X59946855Y-41430829D01*
X59925189Y-41388308D01*
X59901770Y-41347745D01*
X59900314Y-41339489D01*
X59898676Y-41336274D01*
X59889222Y-41276584D01*
X59881265Y-41231456D01*
X59889221Y-41186331D01*
X59898676Y-41126637D01*
X59900314Y-41123421D01*
X59901770Y-41115167D01*
X59925185Y-41074610D01*
X59946855Y-41032082D01*
X59953678Y-41025258D01*
X59960811Y-41012905D01*
X59993258Y-40985678D01*
X60021896Y-40957041D01*
X60035877Y-40949916D01*
X60051268Y-40937003D01*
X60086112Y-40924320D01*
X60116451Y-40908862D01*
X60137930Y-40905460D01*
X60162229Y-40896616D01*
X60193772Y-40896616D01*
X60221270Y-40892261D01*
X60248767Y-40896616D01*
G37*
G36*
X61048869Y-40896616D02*
G01*
X61080413Y-40896616D01*
X61104712Y-40905460D01*
X61126190Y-40908862D01*
X61156524Y-40924318D01*
X61191375Y-40937003D01*
X61206767Y-40949919D01*
X61220745Y-40957041D01*
X61249375Y-40985671D01*
X61281831Y-41012905D01*
X61288964Y-41025260D01*
X61295786Y-41032082D01*
X61317448Y-41074596D01*
X61340872Y-41115167D01*
X61342327Y-41123424D01*
X61343965Y-41126637D01*
X61353405Y-41186248D01*
X61361377Y-41231456D01*
X61353403Y-41276673D01*
X61343965Y-41336275D01*
X61342327Y-41339487D01*
X61340872Y-41347745D01*
X61317446Y-41388319D01*
X61295786Y-41430829D01*
X61288965Y-41437649D01*
X61281831Y-41450007D01*
X61249369Y-41477245D01*
X61220745Y-41505870D01*
X61206770Y-41512990D01*
X61191375Y-41525909D01*
X61156517Y-41538596D01*
X61126190Y-41554049D01*
X61104717Y-41557449D01*
X61080413Y-41566296D01*
X61048863Y-41566296D01*
X61021372Y-41570650D01*
X60993881Y-41566296D01*
X60962331Y-41566296D01*
X60938026Y-41557449D01*
X60916553Y-41554049D01*
X60886223Y-41538594D01*
X60851369Y-41525909D01*
X60835974Y-41512991D01*
X60821998Y-41505870D01*
X60793368Y-41477240D01*
X60760913Y-41450007D01*
X60753779Y-41437651D01*
X60746957Y-41430829D01*
X60725291Y-41388308D01*
X60701872Y-41347745D01*
X60700416Y-41339489D01*
X60698778Y-41336274D01*
X60689327Y-41276599D01*
X60681367Y-41231456D01*
X60689321Y-41186346D01*
X60698778Y-41126637D01*
X60700416Y-41123421D01*
X60701872Y-41115167D01*
X60725287Y-41074610D01*
X60746957Y-41032082D01*
X60753780Y-41025258D01*
X60760913Y-41012905D01*
X60793360Y-40985678D01*
X60821998Y-40957041D01*
X60835979Y-40949916D01*
X60851370Y-40937003D01*
X60886214Y-40924320D01*
X60916553Y-40908862D01*
X60938032Y-40905460D01*
X60962331Y-40896616D01*
X60993874Y-40896616D01*
X61021372Y-40892261D01*
X61048869Y-40896616D01*
G37*
G36*
X61848716Y-40896616D02*
G01*
X61880260Y-40896616D01*
X61904559Y-40905460D01*
X61926037Y-40908862D01*
X61956371Y-40924318D01*
X61991222Y-40937003D01*
X62006614Y-40949919D01*
X62020592Y-40957041D01*
X62049222Y-40985671D01*
X62081678Y-41012905D01*
X62088811Y-41025260D01*
X62095633Y-41032082D01*
X62117295Y-41074596D01*
X62140719Y-41115167D01*
X62142174Y-41123424D01*
X62143812Y-41126637D01*
X62153257Y-41186275D01*
X62161224Y-41231456D01*
X62153256Y-41276640D01*
X62143812Y-41336274D01*
X62142175Y-41339486D01*
X62140719Y-41347745D01*
X62117291Y-41388323D01*
X62095633Y-41430829D01*
X62088812Y-41437649D01*
X62081678Y-41450007D01*
X62049216Y-41477245D01*
X62020592Y-41505870D01*
X62006617Y-41512990D01*
X61991222Y-41525909D01*
X61956364Y-41538596D01*
X61926037Y-41554049D01*
X61904564Y-41557449D01*
X61880260Y-41566296D01*
X61848710Y-41566296D01*
X61821219Y-41570650D01*
X61793728Y-41566296D01*
X61762178Y-41566296D01*
X61737873Y-41557449D01*
X61716400Y-41554049D01*
X61686070Y-41538594D01*
X61651216Y-41525909D01*
X61635821Y-41512991D01*
X61621845Y-41505870D01*
X61593215Y-41477240D01*
X61560760Y-41450007D01*
X61553626Y-41437651D01*
X61546804Y-41430829D01*
X61525138Y-41388308D01*
X61501719Y-41347745D01*
X61500263Y-41339489D01*
X61498625Y-41336274D01*
X61489166Y-41276558D01*
X61481214Y-41231456D01*
X61489164Y-41186367D01*
X61498625Y-41126637D01*
X61500263Y-41123421D01*
X61501719Y-41115167D01*
X61525134Y-41074610D01*
X61546804Y-41032082D01*
X61553627Y-41025258D01*
X61560760Y-41012905D01*
X61593207Y-40985678D01*
X61621845Y-40957041D01*
X61635826Y-40949916D01*
X61651217Y-40937003D01*
X61686061Y-40924320D01*
X61716400Y-40908862D01*
X61737879Y-40905460D01*
X61762178Y-40896616D01*
X61793721Y-40896616D01*
X61821219Y-40892261D01*
X61848716Y-40896616D01*
G37*
G36*
X63448666Y-40896616D02*
G01*
X63480210Y-40896616D01*
X63504509Y-40905460D01*
X63525987Y-40908862D01*
X63556321Y-40924318D01*
X63591172Y-40937003D01*
X63606564Y-40949919D01*
X63620542Y-40957041D01*
X63649172Y-40985671D01*
X63681628Y-41012905D01*
X63688761Y-41025260D01*
X63695583Y-41032082D01*
X63717245Y-41074596D01*
X63740669Y-41115167D01*
X63742124Y-41123424D01*
X63743762Y-41126637D01*
X63753202Y-41186248D01*
X63761174Y-41231456D01*
X63753200Y-41276673D01*
X63743762Y-41336275D01*
X63742124Y-41339487D01*
X63740669Y-41347745D01*
X63717243Y-41388319D01*
X63695583Y-41430829D01*
X63688762Y-41437649D01*
X63681628Y-41450007D01*
X63649166Y-41477245D01*
X63620542Y-41505870D01*
X63606567Y-41512990D01*
X63591172Y-41525909D01*
X63556314Y-41538596D01*
X63525987Y-41554049D01*
X63504514Y-41557449D01*
X63480210Y-41566296D01*
X63448660Y-41566296D01*
X63421169Y-41570650D01*
X63393678Y-41566296D01*
X63362128Y-41566296D01*
X63337823Y-41557449D01*
X63316350Y-41554049D01*
X63286020Y-41538594D01*
X63251166Y-41525909D01*
X63235771Y-41512991D01*
X63221795Y-41505870D01*
X63193165Y-41477240D01*
X63160710Y-41450007D01*
X63153576Y-41437651D01*
X63146754Y-41430829D01*
X63125088Y-41388308D01*
X63101669Y-41347745D01*
X63100213Y-41339489D01*
X63098575Y-41336274D01*
X63089121Y-41276584D01*
X63081164Y-41231456D01*
X63089120Y-41186331D01*
X63098575Y-41126637D01*
X63100213Y-41123421D01*
X63101669Y-41115167D01*
X63125084Y-41074610D01*
X63146754Y-41032082D01*
X63153577Y-41025258D01*
X63160710Y-41012905D01*
X63193157Y-40985678D01*
X63221795Y-40957041D01*
X63235776Y-40949916D01*
X63251167Y-40937003D01*
X63286011Y-40924320D01*
X63316350Y-40908862D01*
X63337829Y-40905460D01*
X63362128Y-40896616D01*
X63393671Y-40896616D01*
X63421169Y-40892261D01*
X63448666Y-40896616D01*
G37*
G36*
X64248767Y-40896616D02*
G01*
X64280311Y-40896616D01*
X64304610Y-40905460D01*
X64326088Y-40908862D01*
X64356422Y-40924318D01*
X64391273Y-40937003D01*
X64406665Y-40949919D01*
X64420643Y-40957041D01*
X64449273Y-40985671D01*
X64481729Y-41012905D01*
X64488862Y-41025260D01*
X64495684Y-41032082D01*
X64517346Y-41074596D01*
X64540770Y-41115167D01*
X64542225Y-41123424D01*
X64543863Y-41126637D01*
X64553311Y-41186290D01*
X64561275Y-41231456D01*
X64553305Y-41276655D01*
X64543863Y-41336274D01*
X64542226Y-41339486D01*
X64540770Y-41347745D01*
X64517342Y-41388323D01*
X64495684Y-41430829D01*
X64488863Y-41437649D01*
X64481729Y-41450007D01*
X64449267Y-41477245D01*
X64420643Y-41505870D01*
X64406668Y-41512990D01*
X64391273Y-41525909D01*
X64356415Y-41538596D01*
X64326088Y-41554049D01*
X64304615Y-41557449D01*
X64280311Y-41566296D01*
X64248761Y-41566296D01*
X64221270Y-41570650D01*
X64193779Y-41566296D01*
X64162229Y-41566296D01*
X64137924Y-41557449D01*
X64116451Y-41554049D01*
X64086121Y-41538594D01*
X64051267Y-41525909D01*
X64035872Y-41512991D01*
X64021896Y-41505870D01*
X63993266Y-41477240D01*
X63960811Y-41450007D01*
X63953677Y-41437651D01*
X63946855Y-41430829D01*
X63925189Y-41388308D01*
X63901770Y-41347745D01*
X63900314Y-41339489D01*
X63898676Y-41336274D01*
X63889217Y-41276558D01*
X63881265Y-41231456D01*
X63889215Y-41186367D01*
X63898676Y-41126637D01*
X63900314Y-41123421D01*
X63901770Y-41115167D01*
X63925185Y-41074610D01*
X63946855Y-41032082D01*
X63953678Y-41025258D01*
X63960811Y-41012905D01*
X63993258Y-40985678D01*
X64021896Y-40957041D01*
X64035877Y-40949916D01*
X64051268Y-40937003D01*
X64086112Y-40924320D01*
X64116451Y-40908862D01*
X64137930Y-40905460D01*
X64162229Y-40896616D01*
X64193772Y-40896616D01*
X64221270Y-40892261D01*
X64248767Y-40896616D01*
G37*
G36*
X65048869Y-40896616D02*
G01*
X65080413Y-40896616D01*
X65104712Y-40905460D01*
X65126190Y-40908862D01*
X65156524Y-40924318D01*
X65191375Y-40937003D01*
X65206767Y-40949919D01*
X65220745Y-40957041D01*
X65249375Y-40985671D01*
X65281831Y-41012905D01*
X65288964Y-41025260D01*
X65295786Y-41032082D01*
X65317448Y-41074596D01*
X65340872Y-41115167D01*
X65342327Y-41123424D01*
X65343965Y-41126637D01*
X65353410Y-41186275D01*
X65361377Y-41231456D01*
X65353409Y-41276640D01*
X65343965Y-41336274D01*
X65342328Y-41339486D01*
X65340872Y-41347745D01*
X65317444Y-41388323D01*
X65295786Y-41430829D01*
X65288965Y-41437649D01*
X65281831Y-41450007D01*
X65249369Y-41477245D01*
X65220745Y-41505870D01*
X65206770Y-41512990D01*
X65191375Y-41525909D01*
X65156517Y-41538596D01*
X65126190Y-41554049D01*
X65104717Y-41557449D01*
X65080413Y-41566296D01*
X65048863Y-41566296D01*
X65021372Y-41570650D01*
X64993881Y-41566296D01*
X64962331Y-41566296D01*
X64938026Y-41557449D01*
X64916553Y-41554049D01*
X64886223Y-41538594D01*
X64851369Y-41525909D01*
X64835974Y-41512991D01*
X64821998Y-41505870D01*
X64793368Y-41477240D01*
X64760913Y-41450007D01*
X64753779Y-41437651D01*
X64746957Y-41430829D01*
X64725291Y-41388308D01*
X64701872Y-41347745D01*
X64700416Y-41339489D01*
X64698778Y-41336274D01*
X64689327Y-41276599D01*
X64681367Y-41231456D01*
X64689321Y-41186346D01*
X64698778Y-41126637D01*
X64700416Y-41123421D01*
X64701872Y-41115167D01*
X64725287Y-41074610D01*
X64746957Y-41032082D01*
X64753780Y-41025258D01*
X64760913Y-41012905D01*
X64793360Y-40985678D01*
X64821998Y-40957041D01*
X64835979Y-40949916D01*
X64851370Y-40937003D01*
X64886214Y-40924320D01*
X64916553Y-40908862D01*
X64938032Y-40905460D01*
X64962331Y-40896616D01*
X64993874Y-40896616D01*
X65021372Y-40892261D01*
X65048869Y-40896616D01*
G37*
G36*
X73038298Y-40056725D02*
G01*
X73078108Y-40056725D01*
X73111630Y-40064987D01*
X73144102Y-40068646D01*
X73186101Y-40083342D01*
X73229784Y-40094109D01*
X73255617Y-40107667D01*
X73280976Y-40116541D01*
X73323832Y-40143469D01*
X73368106Y-40166706D01*
X73385895Y-40182466D01*
X73403766Y-40193695D01*
X73444121Y-40234050D01*
X73485035Y-40270297D01*
X73495435Y-40285364D01*
X73506304Y-40296233D01*
X73540467Y-40350603D01*
X73573776Y-40398859D01*
X73578324Y-40410853D01*
X73583458Y-40419023D01*
X73607740Y-40488416D01*
X73629170Y-40544923D01*
X73630050Y-40552174D01*
X73631353Y-40555897D01*
X73642299Y-40653050D01*
X73648000Y-40700000D01*
X73642298Y-40746953D01*
X73631353Y-40844102D01*
X73630050Y-40847823D01*
X73629170Y-40855077D01*
X73607735Y-40911595D01*
X73583458Y-40980976D01*
X73578325Y-40989143D01*
X73573776Y-41001141D01*
X73540460Y-41049406D01*
X73506304Y-41103766D01*
X73495437Y-41114632D01*
X73485035Y-41129703D01*
X73444112Y-41165957D01*
X73403766Y-41206304D01*
X73385899Y-41217530D01*
X73368106Y-41233294D01*
X73323822Y-41256535D01*
X73280976Y-41283458D01*
X73255623Y-41292329D01*
X73229784Y-41305891D01*
X73186091Y-41316659D01*
X73144102Y-41331353D01*
X73111638Y-41335010D01*
X73078108Y-41343275D01*
X73038289Y-41343275D01*
X73000000Y-41347589D01*
X72961711Y-41343275D01*
X72921892Y-41343275D01*
X72888362Y-41335010D01*
X72855897Y-41331353D01*
X72813905Y-41316659D01*
X72770216Y-41305891D01*
X72744378Y-41292330D01*
X72719023Y-41283458D01*
X72676171Y-41256532D01*
X72631894Y-41233294D01*
X72614103Y-41217532D01*
X72596233Y-41206304D01*
X72555878Y-41165949D01*
X72514965Y-41129703D01*
X72504564Y-41114635D01*
X72493695Y-41103766D01*
X72459528Y-41049390D01*
X72426224Y-41001141D01*
X72421675Y-40989147D01*
X72416541Y-40980976D01*
X72392251Y-40911561D01*
X72370830Y-40855077D01*
X72369949Y-40847827D01*
X72368646Y-40844102D01*
X72357687Y-40746839D01*
X72352000Y-40700000D01*
X72357686Y-40653165D01*
X72368646Y-40555897D01*
X72369949Y-40552170D01*
X72370830Y-40544923D01*
X72392246Y-40488450D01*
X72416541Y-40419023D01*
X72421676Y-40410849D01*
X72426224Y-40398859D01*
X72459521Y-40350619D01*
X72493695Y-40296233D01*
X72504566Y-40285361D01*
X72514965Y-40270297D01*
X72555869Y-40234058D01*
X72596233Y-40193695D01*
X72614107Y-40182463D01*
X72631894Y-40166706D01*
X72676161Y-40143472D01*
X72719023Y-40116541D01*
X72744384Y-40107666D01*
X72770216Y-40094109D01*
X72813895Y-40083343D01*
X72855897Y-40068646D01*
X72888369Y-40064987D01*
X72921892Y-40056725D01*
X72961702Y-40056725D01*
X73000000Y-40052410D01*
X73038298Y-40056725D01*
G37*
G36*
X59848716Y-40196590D02*
G01*
X59880260Y-40196590D01*
X59904559Y-40205434D01*
X59926037Y-40208836D01*
X59956371Y-40224292D01*
X59991222Y-40236977D01*
X60006614Y-40249893D01*
X60020592Y-40257015D01*
X60049222Y-40285645D01*
X60081678Y-40312879D01*
X60088811Y-40325234D01*
X60095633Y-40332056D01*
X60117295Y-40374570D01*
X60140719Y-40415141D01*
X60142174Y-40423398D01*
X60143812Y-40426611D01*
X60153257Y-40486249D01*
X60161224Y-40531430D01*
X60153256Y-40576614D01*
X60143812Y-40636248D01*
X60142175Y-40639460D01*
X60140719Y-40647719D01*
X60117291Y-40688297D01*
X60095633Y-40730803D01*
X60088812Y-40737623D01*
X60081678Y-40749981D01*
X60049216Y-40777219D01*
X60020592Y-40805844D01*
X60006617Y-40812964D01*
X59991222Y-40825883D01*
X59956364Y-40838570D01*
X59926037Y-40854023D01*
X59904564Y-40857423D01*
X59880260Y-40866270D01*
X59848710Y-40866270D01*
X59821219Y-40870624D01*
X59793728Y-40866270D01*
X59762178Y-40866270D01*
X59737873Y-40857423D01*
X59716400Y-40854023D01*
X59686070Y-40838568D01*
X59651216Y-40825883D01*
X59635821Y-40812965D01*
X59621845Y-40805844D01*
X59593215Y-40777214D01*
X59560760Y-40749981D01*
X59553626Y-40737625D01*
X59546804Y-40730803D01*
X59525138Y-40688282D01*
X59501719Y-40647719D01*
X59500263Y-40639463D01*
X59498625Y-40636248D01*
X59489171Y-40576558D01*
X59481214Y-40531430D01*
X59489170Y-40486305D01*
X59498625Y-40426611D01*
X59500263Y-40423395D01*
X59501719Y-40415141D01*
X59525134Y-40374584D01*
X59546804Y-40332056D01*
X59553627Y-40325232D01*
X59560760Y-40312879D01*
X59593207Y-40285652D01*
X59621845Y-40257015D01*
X59635826Y-40249890D01*
X59651217Y-40236977D01*
X59686061Y-40224294D01*
X59716400Y-40208836D01*
X59737879Y-40205434D01*
X59762178Y-40196590D01*
X59793721Y-40196590D01*
X59821219Y-40192235D01*
X59848716Y-40196590D01*
G37*
G36*
X61448666Y-40196590D02*
G01*
X61480210Y-40196590D01*
X61504509Y-40205434D01*
X61525987Y-40208836D01*
X61556321Y-40224292D01*
X61591172Y-40236977D01*
X61606564Y-40249893D01*
X61620542Y-40257015D01*
X61649172Y-40285645D01*
X61681628Y-40312879D01*
X61688761Y-40325234D01*
X61695583Y-40332056D01*
X61717245Y-40374570D01*
X61740669Y-40415141D01*
X61742124Y-40423398D01*
X61743762Y-40426611D01*
X61753202Y-40486222D01*
X61761174Y-40531430D01*
X61753200Y-40576647D01*
X61743762Y-40636249D01*
X61742124Y-40639461D01*
X61740669Y-40647719D01*
X61717243Y-40688293D01*
X61695583Y-40730803D01*
X61688762Y-40737623D01*
X61681628Y-40749981D01*
X61649166Y-40777219D01*
X61620542Y-40805844D01*
X61606567Y-40812964D01*
X61591172Y-40825883D01*
X61556314Y-40838570D01*
X61525987Y-40854023D01*
X61504514Y-40857423D01*
X61480210Y-40866270D01*
X61448660Y-40866270D01*
X61421169Y-40870624D01*
X61393678Y-40866270D01*
X61362128Y-40866270D01*
X61337823Y-40857423D01*
X61316350Y-40854023D01*
X61286020Y-40838568D01*
X61251166Y-40825883D01*
X61235771Y-40812965D01*
X61221795Y-40805844D01*
X61193165Y-40777214D01*
X61160710Y-40749981D01*
X61153576Y-40737625D01*
X61146754Y-40730803D01*
X61125088Y-40688282D01*
X61101669Y-40647719D01*
X61100213Y-40639463D01*
X61098575Y-40636248D01*
X61089121Y-40576558D01*
X61081164Y-40531430D01*
X61089120Y-40486305D01*
X61098575Y-40426611D01*
X61100213Y-40423395D01*
X61101669Y-40415141D01*
X61125084Y-40374584D01*
X61146754Y-40332056D01*
X61153577Y-40325232D01*
X61160710Y-40312879D01*
X61193157Y-40285652D01*
X61221795Y-40257015D01*
X61235776Y-40249890D01*
X61251167Y-40236977D01*
X61286011Y-40224294D01*
X61316350Y-40208836D01*
X61337829Y-40205434D01*
X61362128Y-40196590D01*
X61393671Y-40196590D01*
X61421169Y-40192235D01*
X61448666Y-40196590D01*
G37*
G36*
X62248767Y-40196590D02*
G01*
X62280311Y-40196590D01*
X62304610Y-40205434D01*
X62326088Y-40208836D01*
X62356422Y-40224292D01*
X62391273Y-40236977D01*
X62406665Y-40249893D01*
X62420643Y-40257015D01*
X62449273Y-40285645D01*
X62481729Y-40312879D01*
X62488862Y-40325234D01*
X62495684Y-40332056D01*
X62517346Y-40374570D01*
X62540770Y-40415141D01*
X62542225Y-40423398D01*
X62543863Y-40426611D01*
X62553311Y-40486264D01*
X62561275Y-40531430D01*
X62553305Y-40576629D01*
X62543863Y-40636248D01*
X62542226Y-40639460D01*
X62540770Y-40647719D01*
X62517342Y-40688297D01*
X62495684Y-40730803D01*
X62488863Y-40737623D01*
X62481729Y-40749981D01*
X62449267Y-40777219D01*
X62420643Y-40805844D01*
X62406668Y-40812964D01*
X62391273Y-40825883D01*
X62356415Y-40838570D01*
X62326088Y-40854023D01*
X62304615Y-40857423D01*
X62280311Y-40866270D01*
X62248761Y-40866270D01*
X62221270Y-40870624D01*
X62193779Y-40866270D01*
X62162229Y-40866270D01*
X62137924Y-40857423D01*
X62116451Y-40854023D01*
X62086121Y-40838568D01*
X62051267Y-40825883D01*
X62035872Y-40812965D01*
X62021896Y-40805844D01*
X61993266Y-40777214D01*
X61960811Y-40749981D01*
X61953677Y-40737625D01*
X61946855Y-40730803D01*
X61925189Y-40688282D01*
X61901770Y-40647719D01*
X61900314Y-40639463D01*
X61898676Y-40636248D01*
X61889217Y-40576532D01*
X61881265Y-40531430D01*
X61889215Y-40486341D01*
X61898676Y-40426611D01*
X61900314Y-40423395D01*
X61901770Y-40415141D01*
X61925185Y-40374584D01*
X61946855Y-40332056D01*
X61953678Y-40325232D01*
X61960811Y-40312879D01*
X61993258Y-40285652D01*
X62021896Y-40257015D01*
X62035877Y-40249890D01*
X62051268Y-40236977D01*
X62086112Y-40224294D01*
X62116451Y-40208836D01*
X62137930Y-40205434D01*
X62162229Y-40196590D01*
X62193772Y-40196590D01*
X62221270Y-40192235D01*
X62248767Y-40196590D01*
G37*
G36*
X63048869Y-40196590D02*
G01*
X63080413Y-40196590D01*
X63104712Y-40205434D01*
X63126190Y-40208836D01*
X63156524Y-40224292D01*
X63191375Y-40236977D01*
X63206767Y-40249893D01*
X63220745Y-40257015D01*
X63249375Y-40285645D01*
X63281831Y-40312879D01*
X63288964Y-40325234D01*
X63295786Y-40332056D01*
X63317448Y-40374570D01*
X63340872Y-40415141D01*
X63342327Y-40423398D01*
X63343965Y-40426611D01*
X63353405Y-40486222D01*
X63361377Y-40531430D01*
X63353403Y-40576647D01*
X63343965Y-40636249D01*
X63342327Y-40639461D01*
X63340872Y-40647719D01*
X63317446Y-40688293D01*
X63295786Y-40730803D01*
X63288965Y-40737623D01*
X63281831Y-40749981D01*
X63249369Y-40777219D01*
X63220745Y-40805844D01*
X63206770Y-40812964D01*
X63191375Y-40825883D01*
X63156517Y-40838570D01*
X63126190Y-40854023D01*
X63104717Y-40857423D01*
X63080413Y-40866270D01*
X63048863Y-40866270D01*
X63021372Y-40870624D01*
X62993881Y-40866270D01*
X62962331Y-40866270D01*
X62938026Y-40857423D01*
X62916553Y-40854023D01*
X62886223Y-40838568D01*
X62851369Y-40825883D01*
X62835974Y-40812965D01*
X62821998Y-40805844D01*
X62793368Y-40777214D01*
X62760913Y-40749981D01*
X62753779Y-40737625D01*
X62746957Y-40730803D01*
X62725291Y-40688282D01*
X62701872Y-40647719D01*
X62700416Y-40639463D01*
X62698778Y-40636248D01*
X62689327Y-40576573D01*
X62681367Y-40531430D01*
X62689321Y-40486320D01*
X62698778Y-40426611D01*
X62700416Y-40423395D01*
X62701872Y-40415141D01*
X62725287Y-40374584D01*
X62746957Y-40332056D01*
X62753780Y-40325232D01*
X62760913Y-40312879D01*
X62793360Y-40285652D01*
X62821998Y-40257015D01*
X62835979Y-40249890D01*
X62851370Y-40236977D01*
X62886214Y-40224294D01*
X62916553Y-40208836D01*
X62938032Y-40205434D01*
X62962331Y-40196590D01*
X62993874Y-40196590D01*
X63021372Y-40192235D01*
X63048869Y-40196590D01*
G37*
G36*
X63848716Y-40196590D02*
G01*
X63880260Y-40196590D01*
X63904559Y-40205434D01*
X63926037Y-40208836D01*
X63956371Y-40224292D01*
X63991222Y-40236977D01*
X64006614Y-40249893D01*
X64020592Y-40257015D01*
X64049222Y-40285645D01*
X64081678Y-40312879D01*
X64088811Y-40325234D01*
X64095633Y-40332056D01*
X64117295Y-40374570D01*
X64140719Y-40415141D01*
X64142174Y-40423398D01*
X64143812Y-40426611D01*
X64153257Y-40486249D01*
X64161224Y-40531430D01*
X64153256Y-40576614D01*
X64143812Y-40636248D01*
X64142175Y-40639460D01*
X64140719Y-40647719D01*
X64117291Y-40688297D01*
X64095633Y-40730803D01*
X64088812Y-40737623D01*
X64081678Y-40749981D01*
X64049216Y-40777219D01*
X64020592Y-40805844D01*
X64006617Y-40812964D01*
X63991222Y-40825883D01*
X63956364Y-40838570D01*
X63926037Y-40854023D01*
X63904564Y-40857423D01*
X63880260Y-40866270D01*
X63848710Y-40866270D01*
X63821219Y-40870624D01*
X63793728Y-40866270D01*
X63762178Y-40866270D01*
X63737873Y-40857423D01*
X63716400Y-40854023D01*
X63686070Y-40838568D01*
X63651216Y-40825883D01*
X63635821Y-40812965D01*
X63621845Y-40805844D01*
X63593215Y-40777214D01*
X63560760Y-40749981D01*
X63553626Y-40737625D01*
X63546804Y-40730803D01*
X63525138Y-40688282D01*
X63501719Y-40647719D01*
X63500263Y-40639463D01*
X63498625Y-40636248D01*
X63489166Y-40576532D01*
X63481214Y-40531430D01*
X63489164Y-40486341D01*
X63498625Y-40426611D01*
X63500263Y-40423395D01*
X63501719Y-40415141D01*
X63525134Y-40374584D01*
X63546804Y-40332056D01*
X63553627Y-40325232D01*
X63560760Y-40312879D01*
X63593207Y-40285652D01*
X63621845Y-40257015D01*
X63635826Y-40249890D01*
X63651217Y-40236977D01*
X63686061Y-40224294D01*
X63716400Y-40208836D01*
X63737879Y-40205434D01*
X63762178Y-40196590D01*
X63793721Y-40196590D01*
X63821219Y-40192235D01*
X63848716Y-40196590D01*
G37*
G36*
X65448920Y-40196590D02*
G01*
X65480464Y-40196590D01*
X65504763Y-40205434D01*
X65526241Y-40208836D01*
X65556575Y-40224292D01*
X65591426Y-40236977D01*
X65606818Y-40249893D01*
X65620796Y-40257015D01*
X65649426Y-40285645D01*
X65681882Y-40312879D01*
X65689015Y-40325234D01*
X65695837Y-40332056D01*
X65717499Y-40374570D01*
X65740923Y-40415141D01*
X65742378Y-40423398D01*
X65744016Y-40426611D01*
X65753461Y-40486249D01*
X65761428Y-40531430D01*
X65753460Y-40576614D01*
X65744016Y-40636248D01*
X65742379Y-40639460D01*
X65740923Y-40647719D01*
X65717495Y-40688297D01*
X65695837Y-40730803D01*
X65689016Y-40737623D01*
X65681882Y-40749981D01*
X65649420Y-40777219D01*
X65620796Y-40805844D01*
X65606821Y-40812964D01*
X65591426Y-40825883D01*
X65556568Y-40838570D01*
X65526241Y-40854023D01*
X65504768Y-40857423D01*
X65480464Y-40866270D01*
X65448914Y-40866270D01*
X65421423Y-40870624D01*
X65393932Y-40866270D01*
X65362382Y-40866270D01*
X65338077Y-40857423D01*
X65316604Y-40854023D01*
X65286274Y-40838568D01*
X65251420Y-40825883D01*
X65236025Y-40812965D01*
X65222049Y-40805844D01*
X65193419Y-40777214D01*
X65160964Y-40749981D01*
X65153830Y-40737625D01*
X65147008Y-40730803D01*
X65125342Y-40688282D01*
X65101923Y-40647719D01*
X65100467Y-40639463D01*
X65098829Y-40636248D01*
X65089375Y-40576558D01*
X65081418Y-40531430D01*
X65089374Y-40486305D01*
X65098829Y-40426611D01*
X65100467Y-40423395D01*
X65101923Y-40415141D01*
X65125338Y-40374584D01*
X65147008Y-40332056D01*
X65153831Y-40325232D01*
X65160964Y-40312879D01*
X65193411Y-40285652D01*
X65222049Y-40257015D01*
X65236030Y-40249890D01*
X65251421Y-40236977D01*
X65286265Y-40224294D01*
X65316604Y-40208836D01*
X65338083Y-40205434D01*
X65362382Y-40196590D01*
X65393925Y-40196590D01*
X65421423Y-40192235D01*
X65448920Y-40196590D01*
G37*
G36*
X59049646Y-39510928D02*
G01*
X59074644Y-39510928D01*
X59103919Y-39519523D01*
X59137251Y-39524803D01*
X59158130Y-39535441D01*
X59176870Y-39540944D01*
X59207261Y-39560475D01*
X59241787Y-39578067D01*
X59254649Y-39590929D01*
X59266501Y-39598546D01*
X59293988Y-39630268D01*
X59324748Y-39661028D01*
X59330609Y-39672531D01*
X59336275Y-39679070D01*
X59356448Y-39723243D01*
X59378012Y-39765564D01*
X59379199Y-39773060D01*
X59380534Y-39775983D01*
X59389119Y-39835692D01*
X59396365Y-39881443D01*
X59389118Y-39927197D01*
X59380534Y-39986902D01*
X59379199Y-39989824D01*
X59378012Y-39997322D01*
X59356443Y-40039651D01*
X59336275Y-40083815D01*
X59330610Y-40090352D01*
X59324748Y-40101858D01*
X59293982Y-40132623D01*
X59266501Y-40164339D01*
X59254652Y-40171953D01*
X59241787Y-40184819D01*
X59207253Y-40202414D01*
X59176870Y-40221941D01*
X59158134Y-40227442D01*
X59137251Y-40238083D01*
X59103916Y-40243362D01*
X59074644Y-40251958D01*
X59049646Y-40251958D01*
X59021372Y-40256436D01*
X58993098Y-40251958D01*
X58968100Y-40251958D01*
X58938826Y-40243362D01*
X58905493Y-40238083D01*
X58884611Y-40227443D01*
X58865873Y-40221941D01*
X58835485Y-40202412D01*
X58800957Y-40184819D01*
X58788093Y-40171955D01*
X58776242Y-40164339D01*
X58748754Y-40132616D01*
X58717996Y-40101858D01*
X58712134Y-40090354D01*
X58706468Y-40083815D01*
X58686290Y-40039632D01*
X58664732Y-39997322D01*
X58663545Y-39989827D01*
X58662209Y-39986902D01*
X58653614Y-39927128D01*
X58646379Y-39881443D01*
X58653614Y-39835761D01*
X58662209Y-39775983D01*
X58663545Y-39773057D01*
X58664732Y-39765564D01*
X58686286Y-39723261D01*
X58706468Y-39679070D01*
X58712136Y-39672528D01*
X58717996Y-39661028D01*
X58748747Y-39630276D01*
X58776242Y-39598546D01*
X58788096Y-39590927D01*
X58800957Y-39578067D01*
X58835477Y-39560477D01*
X58865873Y-39540944D01*
X58884614Y-39535440D01*
X58905493Y-39524803D01*
X58938824Y-39519523D01*
X58968100Y-39510928D01*
X58993098Y-39510928D01*
X59021372Y-39506450D01*
X59049646Y-39510928D01*
G37*
G36*
X38753549Y-33630890D02*
G01*
X38898438Y-33690905D01*
X39028836Y-33778034D01*
X39139729Y-33888927D01*
X39226858Y-34019325D01*
X39286873Y-34164214D01*
X39317469Y-34318028D01*
X39321321Y-34396442D01*
X39321321Y-35896442D01*
X39317469Y-35974856D01*
X39286873Y-36128670D01*
X39226858Y-36273559D01*
X39139729Y-36403957D01*
X39028836Y-36514850D01*
X38898438Y-36601979D01*
X38753549Y-36661994D01*
X38599735Y-36692590D01*
X38442907Y-36692590D01*
X38289093Y-36661994D01*
X38144204Y-36601979D01*
X38013806Y-36514850D01*
X37902913Y-36403957D01*
X37815784Y-36273559D01*
X37755769Y-36128670D01*
X37725173Y-35974856D01*
X37721321Y-35896442D01*
X37721321Y-34396442D01*
X37725173Y-34318028D01*
X37755769Y-34164214D01*
X37815784Y-34019325D01*
X37902913Y-33888927D01*
X38013806Y-33778034D01*
X38144204Y-33690905D01*
X38289093Y-33630890D01*
X38442907Y-33600294D01*
X38599735Y-33600294D01*
X38753549Y-33630890D01*
G37*
G36*
X54753549Y-33630890D02*
G01*
X54898438Y-33690905D01*
X55028836Y-33778034D01*
X55139729Y-33888927D01*
X55226858Y-34019325D01*
X55286873Y-34164214D01*
X55317469Y-34318028D01*
X55321321Y-34396442D01*
X55321321Y-35896442D01*
X55317469Y-35974856D01*
X55286873Y-36128670D01*
X55226858Y-36273559D01*
X55139729Y-36403957D01*
X55028836Y-36514850D01*
X54898438Y-36601979D01*
X54753549Y-36661994D01*
X54599735Y-36692590D01*
X54442907Y-36692590D01*
X54289093Y-36661994D01*
X54144204Y-36601979D01*
X54013806Y-36514850D01*
X53902913Y-36403957D01*
X53815784Y-36273559D01*
X53755769Y-36128670D01*
X53725173Y-35974856D01*
X53721321Y-35896442D01*
X53721321Y-34396442D01*
X53725173Y-34318028D01*
X53755769Y-34164214D01*
X53815784Y-34019325D01*
X53902913Y-33888927D01*
X54013806Y-33778034D01*
X54144204Y-33690905D01*
X54289093Y-33630890D01*
X54442907Y-33600294D01*
X54599735Y-33600294D01*
X54753549Y-33630890D01*
G37*
G36*
X68464423Y-19169587D02*
G01*
X68484280Y-19180833D01*
X68535029Y-19236513D01*
X68560408Y-19247601D01*
X68630898Y-19247042D01*
X68655437Y-19256307D01*
X68742844Y-19334533D01*
X68752489Y-19348259D01*
X68758501Y-19363130D01*
X68777563Y-19381982D01*
X68875750Y-19420417D01*
X68889471Y-19429784D01*
X69019698Y-19570741D01*
X69028644Y-19577573D01*
X69226557Y-19680473D01*
X69237414Y-19689004D01*
X69308930Y-19770837D01*
X69316204Y-19783541D01*
X69336853Y-19845487D01*
X69353834Y-19865042D01*
X69457422Y-19916677D01*
X69475204Y-19936354D01*
X69519622Y-20053895D01*
X69526961Y-20065349D01*
X69625058Y-20164832D01*
X69635503Y-20189125D01*
X69636736Y-20225629D01*
X69641558Y-20241732D01*
X69678642Y-20302473D01*
X69683860Y-20317801D01*
X69690403Y-20378113D01*
X69703642Y-20401478D01*
X69711328Y-20407296D01*
X69724360Y-20426124D01*
X69745682Y-20498122D01*
X69755508Y-20513541D01*
X69867796Y-20612820D01*
X69873527Y-20624562D01*
X69874171Y-20625131D01*
X69874069Y-20625672D01*
X69877747Y-20633206D01*
X69872344Y-20662096D01*
X69875363Y-20683285D01*
X69924350Y-20780240D01*
X69927915Y-20791334D01*
X69940088Y-20869740D01*
X69943424Y-20879879D01*
X70004456Y-20996619D01*
X70010448Y-21004726D01*
X70103868Y-21097053D01*
X70111283Y-21107467D01*
X70166428Y-21222737D01*
X70176171Y-21234718D01*
X70245375Y-21287506D01*
X70258703Y-21307852D01*
X70268886Y-21349329D01*
X70282118Y-21368741D01*
X70389544Y-21444610D01*
X70404557Y-21450408D01*
X70472729Y-21458780D01*
X70484102Y-21465215D01*
X70484953Y-21465320D01*
X70485045Y-21465748D01*
X70490029Y-21468569D01*
X70491389Y-21471477D01*
X70504309Y-21531665D01*
X70503318Y-21550847D01*
X70493597Y-21580701D01*
X70494290Y-21603363D01*
X70569129Y-21792997D01*
X70571647Y-21804152D01*
X70578088Y-21898524D01*
X70590574Y-21922564D01*
X70666482Y-21984058D01*
X70676040Y-21989437D01*
X70714082Y-22003074D01*
X70741645Y-22001008D01*
X70743183Y-22000179D01*
X70743721Y-21999520D01*
X70743945Y-21999929D01*
X70750527Y-22001904D01*
X70751123Y-22002621D01*
X70833254Y-22152410D01*
X70845196Y-22164844D01*
X70866192Y-22177482D01*
X70873954Y-22187990D01*
X70874690Y-22188433D01*
X70874676Y-22188966D01*
X70879506Y-22195505D01*
X70878449Y-22235949D01*
X70885095Y-22256841D01*
X70904686Y-22283035D01*
X70907910Y-22295695D01*
X70908425Y-22296383D01*
X70908196Y-22296816D01*
X70910037Y-22304043D01*
X70896405Y-22329898D01*
X70893318Y-22352735D01*
X70902801Y-22395840D01*
X70904141Y-22400347D01*
X70970631Y-22576370D01*
X70973212Y-22581686D01*
X71078491Y-22756170D01*
X71082857Y-22782744D01*
X71068848Y-22846230D01*
X71069107Y-22861519D01*
X71100081Y-22982243D01*
X71104961Y-22992868D01*
X71217059Y-23153266D01*
X71219875Y-23166023D01*
X71220368Y-23166729D01*
X71219680Y-23167193D01*
X71212908Y-23177803D01*
X71204510Y-23183478D01*
X71191710Y-23186092D01*
X71191000Y-23186573D01*
X71190473Y-23186345D01*
X71181920Y-23188093D01*
X71132693Y-23166806D01*
X71103361Y-23167860D01*
X71035226Y-23203337D01*
X71020522Y-23218565D01*
X70959975Y-23345502D01*
X70956769Y-23360009D01*
X70958139Y-23495461D01*
X70953262Y-23507578D01*
X70953271Y-23508439D01*
X70952740Y-23508307D01*
X70944388Y-23511866D01*
X70923977Y-23509475D01*
X70879274Y-23555677D01*
X70893891Y-23652644D01*
X70896652Y-23661720D01*
X70935483Y-23743991D01*
X70950647Y-23759558D01*
X70976804Y-23772755D01*
X70988848Y-23782432D01*
X71098113Y-23916346D01*
X71105147Y-23929973D01*
X71134772Y-24037576D01*
X71145183Y-24053983D01*
X71205226Y-24105447D01*
X71211462Y-24109650D01*
X71376510Y-24195048D01*
X71380301Y-24196713D01*
X71705559Y-24315482D01*
X71714634Y-24317394D01*
X72101221Y-24342648D01*
X72106270Y-24342586D01*
X72221538Y-24332174D01*
X72229721Y-24330354D01*
X72331260Y-24293555D01*
X72344321Y-24294140D01*
X72345111Y-24293854D01*
X72345371Y-24294187D01*
X72356789Y-24294699D01*
X72397807Y-24236851D01*
X72366856Y-24159809D01*
X72351098Y-24142494D01*
X72349945Y-24141899D01*
X72341508Y-24131924D01*
X72340746Y-24131531D01*
X72341122Y-24130956D01*
X72341996Y-24120511D01*
X72365902Y-24084082D01*
X72370627Y-24072595D01*
X72399953Y-23927709D01*
X72407250Y-23916867D01*
X72407420Y-23916029D01*
X72407669Y-23916313D01*
X72409816Y-23915894D01*
X72418220Y-23920767D01*
X72473376Y-23983708D01*
X72481577Y-23999672D01*
X72505807Y-24103320D01*
X72514883Y-24119452D01*
X72618382Y-24220907D01*
X72623503Y-24232928D01*
X72624115Y-24233528D01*
X72623639Y-24233829D01*
X72620438Y-24241783D01*
X72571428Y-24272891D01*
X72558560Y-24275137D01*
X72557835Y-24275598D01*
X72557428Y-24275335D01*
X72550150Y-24276606D01*
X72545347Y-24274592D01*
X72520693Y-24274046D01*
X72491810Y-24284680D01*
X72469963Y-24309712D01*
X72448310Y-24407867D01*
X72448439Y-24422608D01*
X72464840Y-24491250D01*
X72464172Y-24495439D01*
X72464092Y-24505211D01*
X72481459Y-24626774D01*
X72479492Y-24644944D01*
X72475286Y-24656197D01*
X72477652Y-24685126D01*
X72490579Y-24707654D01*
X72494843Y-24732269D01*
X72485820Y-24782460D01*
X72486800Y-24798130D01*
X72504886Y-24856001D01*
X72513685Y-24870117D01*
X72566179Y-24919896D01*
X72571498Y-24931831D01*
X72572120Y-24932421D01*
X72571734Y-24932510D01*
X72570518Y-24935682D01*
X72534398Y-24956355D01*
X72524123Y-25016923D01*
X72568128Y-25067616D01*
X72582053Y-25077103D01*
X72614683Y-25088657D01*
X72649080Y-25082197D01*
X72708286Y-25031138D01*
X72720694Y-25027039D01*
X72721344Y-25026480D01*
X72721479Y-25026915D01*
X72727238Y-25029815D01*
X72728104Y-25031375D01*
X72741119Y-25073187D01*
X72752816Y-25089840D01*
X72802757Y-25127641D01*
X72826420Y-25134295D01*
X72830217Y-25133915D01*
X72842729Y-25137690D01*
X72843582Y-25137605D01*
X72843749Y-25137997D01*
X72848721Y-25139498D01*
X72851270Y-25142894D01*
X72862732Y-25169807D01*
X72872335Y-25182528D01*
X72918972Y-25220254D01*
X72931528Y-25240087D01*
X72935854Y-25257909D01*
X72947349Y-25276030D01*
X73062075Y-25368486D01*
X73068336Y-25379953D01*
X73069006Y-25380493D01*
X73068925Y-25381032D01*
X73072900Y-25388311D01*
X73059283Y-25480065D01*
X73063571Y-25501994D01*
X73097176Y-25558885D01*
X73108088Y-25570075D01*
X73143241Y-25592047D01*
X73150827Y-25602685D01*
X73151555Y-25603140D01*
X73151486Y-25603609D01*
X73155616Y-25609400D01*
X73155634Y-25609841D01*
X73146176Y-25675007D01*
X73144780Y-25681050D01*
X73131054Y-25723894D01*
X73129498Y-25733476D01*
X73128433Y-25823017D01*
X73129387Y-25831246D01*
X73137094Y-25862381D01*
X73138174Y-25872405D01*
X73137399Y-25900061D01*
X73121751Y-25943550D01*
X73124750Y-25972950D01*
X73134194Y-25988396D01*
X73134888Y-25988902D01*
X73134912Y-25989572D01*
X73140236Y-25998279D01*
X73141334Y-26028160D01*
X73150496Y-26050004D01*
X73159401Y-26059418D01*
X73164063Y-26071621D01*
X73164654Y-26072246D01*
X73164410Y-26072529D01*
X73164998Y-26074068D01*
X73161169Y-26083985D01*
X73129796Y-26120552D01*
X73135485Y-26176085D01*
X73180183Y-26210596D01*
X73189708Y-26224633D01*
X73192348Y-26237429D01*
X73192831Y-26238140D01*
X73192619Y-26238740D01*
X73194577Y-26248227D01*
X73185523Y-26273913D01*
X73186385Y-26298491D01*
X73190691Y-26308429D01*
X73190903Y-26321489D01*
X73191245Y-26322277D01*
X73190918Y-26322424D01*
X73190919Y-26322432D01*
X73181761Y-26332036D01*
X73161809Y-26341031D01*
X73148087Y-26405391D01*
X73216545Y-26482331D01*
X73220833Y-26494671D01*
X73221405Y-26495314D01*
X73221348Y-26496153D01*
X73225543Y-26508225D01*
X73221290Y-26571120D01*
X73222525Y-26582501D01*
X73248037Y-26669973D01*
X73258252Y-26685837D01*
X73310907Y-26731138D01*
X73316797Y-26742801D01*
X73317448Y-26743361D01*
X73317276Y-26743749D01*
X73319554Y-26748259D01*
X73317061Y-26762759D01*
X73321884Y-26786597D01*
X73463119Y-27007190D01*
X73465417Y-27020051D01*
X73465881Y-27020776D01*
X73465636Y-27021276D01*
X73467125Y-27029608D01*
X73455561Y-27053238D01*
X73444286Y-27066759D01*
X73368596Y-27122602D01*
X73349691Y-27129681D01*
X73199605Y-27141860D01*
X73187790Y-27145116D01*
X73152320Y-27162556D01*
X73143496Y-27168907D01*
X73102804Y-27210035D01*
X73094588Y-27246308D01*
X73108122Y-27285246D01*
X73108694Y-27285888D01*
X73108289Y-27285969D01*
X73106373Y-27289928D01*
X73101230Y-27292497D01*
X72894551Y-27334265D01*
X72881730Y-27331755D01*
X72880888Y-27331926D01*
X72880790Y-27331571D01*
X72879785Y-27331375D01*
X72867289Y-27314132D01*
X72834335Y-27299990D01*
X72745741Y-27311838D01*
X72742284Y-27312492D01*
X72733432Y-27314669D01*
X72681382Y-27318097D01*
X72662668Y-27314393D01*
X72648408Y-27307388D01*
X72610391Y-27311820D01*
X72602345Y-27318442D01*
X72589852Y-27322250D01*
X72589189Y-27322796D01*
X72589309Y-27322064D01*
X72586015Y-27311257D01*
X72594194Y-27261414D01*
X72587460Y-27235047D01*
X72544211Y-27179641D01*
X72491394Y-27172724D01*
X72466594Y-27191480D01*
X72466158Y-27192224D01*
X72465999Y-27191870D01*
X72463235Y-27191487D01*
X72457449Y-27185037D01*
X72443042Y-27152957D01*
X72443036Y-27152946D01*
X72435462Y-27136082D01*
X72426370Y-27124165D01*
X72393890Y-27097388D01*
X72368631Y-27089866D01*
X72343286Y-27092681D01*
X72318160Y-27086157D01*
X72287002Y-27063974D01*
X72270210Y-27057924D01*
X72206826Y-27053293D01*
X72195152Y-27047427D01*
X72194298Y-27047365D01*
X72194134Y-27046915D01*
X72187663Y-27043664D01*
X72187574Y-27043512D01*
X72174786Y-27008388D01*
X72174785Y-27008378D01*
X72163245Y-26976686D01*
X72147713Y-26958661D01*
X72111994Y-26939264D01*
X72103770Y-26929108D01*
X72103016Y-26928699D01*
X72103412Y-26928062D01*
X72106958Y-26894329D01*
X72097226Y-26866695D01*
X72067569Y-26836832D01*
X72065689Y-26835083D01*
X72015984Y-26792372D01*
X72010327Y-26786297D01*
X71979877Y-26745270D01*
X71972843Y-26727490D01*
X71969640Y-26699724D01*
X71957802Y-26677754D01*
X71931115Y-26655402D01*
X71919066Y-26636108D01*
X71914044Y-26615844D01*
X71897975Y-26594588D01*
X71829185Y-26555280D01*
X71821184Y-26544950D01*
X71820439Y-26544524D01*
X71820466Y-26544022D01*
X71815583Y-26537717D01*
X71815403Y-26536021D01*
X71795649Y-26508276D01*
X71680435Y-26454094D01*
X71666952Y-26450973D01*
X71303666Y-26445402D01*
X71285081Y-26450747D01*
X71281311Y-26453191D01*
X71140833Y-26491321D01*
X71119673Y-26508316D01*
X71107361Y-26531819D01*
X71097333Y-26540189D01*
X71096934Y-26540952D01*
X71096123Y-26541199D01*
X71086246Y-26549445D01*
X70970886Y-26584694D01*
X70968380Y-26585364D01*
X70686301Y-26650309D01*
X70681268Y-26651908D01*
X70553930Y-26704053D01*
X70548044Y-26707202D01*
X70280465Y-26887875D01*
X70269818Y-26899691D01*
X70258117Y-26921631D01*
X70248027Y-26929925D01*
X70247623Y-26930684D01*
X70247416Y-26930332D01*
X70243423Y-26929944D01*
X70238747Y-26925457D01*
X70229277Y-26909360D01*
X70177813Y-26895603D01*
X69925454Y-27038965D01*
X69919703Y-27043120D01*
X69804955Y-27146786D01*
X69792648Y-27151167D01*
X69792011Y-27151743D01*
X69791753Y-27151485D01*
X69791129Y-27151708D01*
X69791098Y-27151695D01*
X69750373Y-27159980D01*
X69657190Y-27259752D01*
X69654003Y-27263754D01*
X69546127Y-27423500D01*
X69522676Y-27444815D01*
X69514358Y-27456693D01*
X69509946Y-27467464D01*
X69438614Y-27581525D01*
X69433569Y-27599384D01*
X69433803Y-27627655D01*
X69432490Y-27637966D01*
X69438462Y-27683226D01*
X69434559Y-27705120D01*
X69373025Y-27822139D01*
X69369976Y-27830599D01*
X69345327Y-27947480D01*
X69347655Y-27968280D01*
X69354422Y-27983008D01*
X69355052Y-27983592D01*
X69354932Y-27984118D01*
X69358362Y-27991583D01*
X69340212Y-28071443D01*
X69340573Y-28087505D01*
X69354512Y-28138190D01*
X69355824Y-28146704D01*
X69359141Y-28235146D01*
X69358745Y-28242155D01*
X69350626Y-28295736D01*
X69342380Y-28313958D01*
X69331481Y-28326906D01*
X69323624Y-28347860D01*
X69323365Y-28362341D01*
X69323698Y-28362211D01*
X69323358Y-28362731D01*
X69323191Y-28372141D01*
X69293191Y-28418157D01*
X69290903Y-28451982D01*
X69304819Y-28481337D01*
X69305472Y-28494386D01*
X69305840Y-28495163D01*
X69305533Y-28495624D01*
X69305955Y-28504039D01*
X69251599Y-28586049D01*
X69246948Y-28612969D01*
X69252414Y-28635000D01*
X69250467Y-28647917D01*
X69250675Y-28648754D01*
X69250302Y-28649010D01*
X69249382Y-28655122D01*
X69247796Y-28656809D01*
X69151407Y-28723209D01*
X69136637Y-28758076D01*
X69145090Y-28808465D01*
X69161028Y-28831955D01*
X69191906Y-28850659D01*
X69207306Y-28855390D01*
X69238812Y-28857012D01*
X69250610Y-28862625D01*
X69251468Y-28862670D01*
X69251366Y-28863368D01*
X69254951Y-28873460D01*
X69251927Y-28894250D01*
X69245241Y-28905474D01*
X69245118Y-28906326D01*
X69244741Y-28906313D01*
X69243824Y-28907855D01*
X69220896Y-28915057D01*
X69200500Y-28932715D01*
X69193709Y-28946846D01*
X69183975Y-28955557D01*
X69183603Y-28956333D01*
X69182977Y-28955968D01*
X69172001Y-28955361D01*
X69072472Y-28897386D01*
X69055119Y-28892893D01*
X68971081Y-28894629D01*
X68946219Y-28906233D01*
X68925262Y-28930217D01*
X68917048Y-28950556D01*
X68916583Y-28959939D01*
X68910992Y-28971746D01*
X68910950Y-28972604D01*
X68910522Y-28972739D01*
X68907899Y-28978280D01*
X68895891Y-28985183D01*
X68879846Y-29006596D01*
X68876873Y-29018894D01*
X68870674Y-29030025D01*
X68867114Y-29053065D01*
X68872777Y-29080776D01*
X68870295Y-29093601D01*
X68870468Y-29094445D01*
X68870032Y-29094960D01*
X68868087Y-29105016D01*
X68846115Y-29131048D01*
X68834509Y-29137046D01*
X68833954Y-29137704D01*
X68833582Y-29137525D01*
X68796119Y-29156888D01*
X68782887Y-29216165D01*
X68795922Y-29233153D01*
X68799300Y-29245767D01*
X68799823Y-29246448D01*
X68799548Y-29246693D01*
X68799846Y-29247803D01*
X68794500Y-29257939D01*
X68739158Y-29307589D01*
X68724733Y-29315599D01*
X68719572Y-29317097D01*
X68706588Y-29315661D01*
X68705763Y-29315901D01*
X68705534Y-29315544D01*
X68683548Y-29313114D01*
X68656911Y-29321771D01*
X68631603Y-29344819D01*
X68621185Y-29363793D01*
X68619639Y-29372681D01*
X68612647Y-29383714D01*
X68612500Y-29384561D01*
X68611938Y-29384349D01*
X68603043Y-29386344D01*
X68590290Y-29381545D01*
X68562385Y-29383327D01*
X68556412Y-29386494D01*
X68543408Y-29387729D01*
X68542649Y-29388132D01*
X68541994Y-29387863D01*
X68531288Y-29388881D01*
X68519780Y-29384167D01*
X68510505Y-29374963D01*
X68509711Y-29374638D01*
X68509607Y-29374071D01*
X68501707Y-29366232D01*
X68483245Y-29357307D01*
X68483066Y-29357079D01*
X68482724Y-29357176D01*
X68482718Y-29356637D01*
X68477655Y-29350198D01*
X68477001Y-29283468D01*
X68480407Y-29267574D01*
X68501185Y-29222505D01*
X68516894Y-29205685D01*
X68594803Y-29163100D01*
X68604584Y-29154934D01*
X68639096Y-29112236D01*
X68646418Y-29093531D01*
X68647430Y-29078336D01*
X68648246Y-29072666D01*
X68661192Y-29014584D01*
X68660923Y-28999130D01*
X68639882Y-28918111D01*
X68641687Y-28905168D01*
X68641473Y-28904341D01*
X68641834Y-28904117D01*
X68642544Y-28899033D01*
X68645592Y-28895916D01*
X68693450Y-28866331D01*
X68706966Y-28850130D01*
X68712952Y-28834857D01*
X68730721Y-28797686D01*
X68694406Y-28737647D01*
X68669344Y-28736721D01*
X68646316Y-28727400D01*
X68637033Y-28719058D01*
X68631396Y-28707271D01*
X68630758Y-28706698D01*
X68630919Y-28706275D01*
X68628206Y-28700600D01*
X68630492Y-28686080D01*
X68619962Y-28655496D01*
X68604572Y-28641116D01*
X68603770Y-28640816D01*
X68604071Y-28640022D01*
X68603632Y-28627079D01*
X68632313Y-28551465D01*
X68637680Y-28541879D01*
X68739184Y-28410585D01*
X68745220Y-28397823D01*
X68780331Y-28244710D01*
X68780875Y-28233076D01*
X68770003Y-28151189D01*
X68771348Y-28135303D01*
X68788396Y-28080371D01*
X68769601Y-28036406D01*
X68611887Y-27957891D01*
X68588808Y-27955377D01*
X68516188Y-27973533D01*
X68493341Y-27992575D01*
X68450054Y-28087933D01*
X68447126Y-28102604D01*
X68451829Y-28248752D01*
X68450225Y-28260832D01*
X68425398Y-28342173D01*
X68421476Y-28346935D01*
X68415458Y-28363942D01*
X68368504Y-28440589D01*
X68355778Y-28453116D01*
X68288521Y-28492873D01*
X68273790Y-28541162D01*
X68293105Y-28581687D01*
X68295095Y-28607827D01*
X68288507Y-28629683D01*
X68295157Y-28661933D01*
X68300420Y-28668188D01*
X68304366Y-28680642D01*
X68304920Y-28681300D01*
X68304370Y-28681257D01*
X68262944Y-28694590D01*
X68249318Y-28771728D01*
X68271438Y-28788933D01*
X68271582Y-28788853D01*
X68271783Y-28789201D01*
X68282265Y-28797354D01*
X68285719Y-28803333D01*
X68287425Y-28816288D01*
X68287855Y-28817031D01*
X68287580Y-28817462D01*
X68288597Y-28825176D01*
X68282344Y-28835001D01*
X68271647Y-28842498D01*
X68271185Y-28843225D01*
X68270526Y-28843284D01*
X68262312Y-28849042D01*
X68249188Y-28850222D01*
X68236719Y-28846323D01*
X68235863Y-28846400D01*
X68235237Y-28845859D01*
X68223249Y-28842111D01*
X68209174Y-28829954D01*
X68185936Y-28821788D01*
X68148955Y-28823141D01*
X68136711Y-28818586D01*
X68135853Y-28818618D01*
X68135771Y-28818236D01*
X68104801Y-28806716D01*
X68076609Y-28814433D01*
X68066500Y-28815498D01*
X68066399Y-28815840D01*
X68065887Y-28815562D01*
X68057100Y-28816489D01*
X68043397Y-28809066D01*
X68017782Y-28806360D01*
X67996190Y-28812707D01*
X67996152Y-28813062D01*
X67995422Y-28812932D01*
X67984641Y-28816102D01*
X67963166Y-28812302D01*
X67952150Y-28805274D01*
X67951306Y-28805125D01*
X67951315Y-28804742D01*
X67944025Y-28800091D01*
X67882918Y-28823398D01*
X67872223Y-28861420D01*
X67872325Y-28862275D01*
X67871889Y-28862607D01*
X67869637Y-28870615D01*
X67855472Y-28881425D01*
X67842845Y-28884772D01*
X67842162Y-28885294D01*
X67842147Y-28884904D01*
X67839698Y-28883482D01*
X67836799Y-28875390D01*
X67836504Y-28867265D01*
X67827149Y-28845196D01*
X67808570Y-28825868D01*
X67785416Y-28815531D01*
X67733864Y-28813744D01*
X67721974Y-28808329D01*
X67721115Y-28808300D01*
X67720899Y-28807840D01*
X67673279Y-28786154D01*
X67619200Y-28811063D01*
X67594375Y-28897342D01*
X67597633Y-28923707D01*
X67604251Y-28935103D01*
X67605988Y-28948050D01*
X67606420Y-28948794D01*
X67606150Y-28949259D01*
X67607238Y-28957364D01*
X67582937Y-28999367D01*
X67595832Y-29050546D01*
X67599225Y-29052638D01*
X67600069Y-29052775D01*
X67600470Y-29053406D01*
X67610211Y-29059414D01*
X67615455Y-29067667D01*
X67641042Y-29083382D01*
X67703171Y-29089411D01*
X67714705Y-29095555D01*
X67715560Y-29095638D01*
X67715618Y-29096041D01*
X67719237Y-29097969D01*
X67721786Y-29103733D01*
X67726193Y-29134115D01*
X67722977Y-29146776D01*
X67723101Y-29147629D01*
X67722653Y-29147511D01*
X67716981Y-29150887D01*
X67715509Y-29150803D01*
X67633131Y-29129159D01*
X67622727Y-29121256D01*
X67621898Y-29121038D01*
X67621713Y-29120485D01*
X67602665Y-29106015D01*
X67547803Y-29114760D01*
X67521304Y-29153080D01*
X67517200Y-29184200D01*
X67525101Y-29206348D01*
X67525457Y-29206366D01*
X67525277Y-29206839D01*
X67529344Y-29218238D01*
X67534720Y-29227819D01*
X67543769Y-29239010D01*
X67544111Y-29238910D01*
X67544080Y-29239395D01*
X67548731Y-29245146D01*
X67544648Y-29310472D01*
X67552152Y-29333838D01*
X67582479Y-29371040D01*
X67639358Y-29437094D01*
X67700365Y-29436008D01*
X67713347Y-29419799D01*
X67713348Y-29419798D01*
X67713178Y-29419488D01*
X67713852Y-29419743D01*
X67724792Y-29418533D01*
X67734797Y-29422316D01*
X67767365Y-29417935D01*
X67776232Y-29411483D01*
X67776678Y-29410756D01*
X67776737Y-29411395D01*
X67782502Y-29419319D01*
X67787592Y-29473614D01*
X67783740Y-29486098D01*
X67783821Y-29486956D01*
X67783366Y-29487312D01*
X67780782Y-29495690D01*
X67764500Y-29508449D01*
X67754316Y-29553622D01*
X67768093Y-29581245D01*
X67768742Y-29581809D01*
X67768196Y-29581713D01*
X67760669Y-29585468D01*
X67740167Y-29581872D01*
X67712831Y-29588973D01*
X67671892Y-29622217D01*
X67662140Y-29666590D01*
X67662419Y-29667160D01*
X67662775Y-29667138D01*
X67662656Y-29667642D01*
X67666354Y-29675180D01*
X67665979Y-29679645D01*
X67682011Y-29712084D01*
X67686596Y-29715015D01*
X67694195Y-29725812D01*
X67694921Y-29726272D01*
X67694946Y-29726879D01*
X67700265Y-29734436D01*
X67700569Y-29741722D01*
X67696077Y-29753989D01*
X67696113Y-29754847D01*
X67695709Y-29754994D01*
X67693892Y-29759957D01*
X67690510Y-29762214D01*
X67550685Y-29813250D01*
X67534554Y-29825824D01*
X67413644Y-30003849D01*
X67411290Y-30007918D01*
X67393655Y-30044234D01*
X67388369Y-30053698D01*
X67387774Y-30057145D01*
X67370870Y-30090441D01*
X67367385Y-30108055D01*
X67367936Y-30114997D01*
X67365500Y-30131449D01*
X67343536Y-30187544D01*
X67334479Y-30196961D01*
X67334167Y-30197761D01*
X67333767Y-30197702D01*
X67331089Y-30200488D01*
X67324412Y-30201382D01*
X67277272Y-30194465D01*
X67251032Y-30201638D01*
X67220088Y-30226631D01*
X67210442Y-30239421D01*
X67155978Y-30367905D01*
X67153503Y-30383840D01*
X67167017Y-30529128D01*
X67222173Y-30563172D01*
X67277473Y-30541592D01*
X67299332Y-30540074D01*
X67333859Y-30548283D01*
X67344447Y-30555940D01*
X67345282Y-30556139D01*
X67345026Y-30556620D01*
X67346341Y-30564803D01*
X67291042Y-30668893D01*
X67289825Y-30698427D01*
X67299931Y-30721939D01*
X67302751Y-30732690D01*
X67305043Y-30754002D01*
X67299116Y-30780179D01*
X67302012Y-30802930D01*
X67308508Y-30815537D01*
X67309164Y-30816092D01*
X67308312Y-30816160D01*
X67296780Y-30822103D01*
X67265839Y-30824593D01*
X67235744Y-30847176D01*
X67217752Y-30894464D01*
X67229149Y-30935565D01*
X67259643Y-30959538D01*
X67259953Y-30959364D01*
X67259955Y-30959784D01*
X67263726Y-30962748D01*
X67265009Y-30967582D01*
X67265663Y-31063911D01*
X67256411Y-31088397D01*
X67233005Y-31114584D01*
X67221235Y-31120250D01*
X67220662Y-31120892D01*
X67219891Y-31120897D01*
X67194985Y-31132889D01*
X67175088Y-31164183D01*
X67174520Y-31217857D01*
X67164787Y-31243883D01*
X67155875Y-31253437D01*
X67155575Y-31254242D01*
X67155241Y-31254117D01*
X67141240Y-31269130D01*
X67135827Y-31276969D01*
X67130628Y-31287514D01*
X67130572Y-31288373D01*
X67130057Y-31288671D01*
X67125618Y-31297677D01*
X67114104Y-31305946D01*
X67099851Y-31339281D01*
X67101176Y-31348697D01*
X67097907Y-31361340D01*
X67098027Y-31362192D01*
X67097660Y-31362294D01*
X67097121Y-31364381D01*
X67089054Y-31369882D01*
X67087615Y-31370283D01*
X67074648Y-31368707D01*
X67073819Y-31368939D01*
X67073946Y-31368622D01*
X67041745Y-31364711D01*
X66996733Y-31425767D01*
X67019612Y-31476845D01*
X67021245Y-31502258D01*
X67019641Y-31507582D01*
X67017624Y-31510043D01*
X67010970Y-31540615D01*
X67015025Y-31555980D01*
X67013271Y-31568925D01*
X67013491Y-31569758D01*
X67013072Y-31569662D01*
X67008949Y-31572802D01*
X67004687Y-31572873D01*
X66979289Y-31567063D01*
X66941445Y-31582330D01*
X66908652Y-31632490D01*
X66922335Y-31687524D01*
X66928105Y-31690709D01*
X66928957Y-31690805D01*
X66928301Y-31691310D01*
X66917668Y-31710572D01*
X66917967Y-31744679D01*
X66924070Y-31755291D01*
X66925753Y-31768244D01*
X66926181Y-31768989D01*
X66925862Y-31769087D01*
X66926557Y-31774432D01*
X66942603Y-31799174D01*
X66952720Y-31805367D01*
X66953566Y-31805501D01*
X66953415Y-31806281D01*
X66956246Y-31818041D01*
X66952979Y-31835024D01*
X66945790Y-31845931D01*
X66945628Y-31846777D01*
X66945181Y-31846088D01*
X66923000Y-31831471D01*
X66909201Y-31826323D01*
X66895084Y-31824456D01*
X66883773Y-31817917D01*
X66882922Y-31817805D01*
X66882829Y-31817371D01*
X66877749Y-31814435D01*
X66876519Y-31811769D01*
X66871407Y-31787837D01*
X66837597Y-31759177D01*
X66820231Y-31758377D01*
X66819422Y-31758670D01*
X66819161Y-31757896D01*
X66810787Y-31748716D01*
X66807594Y-31739248D01*
X66793513Y-31721493D01*
X66765067Y-31703851D01*
X66757444Y-31693241D01*
X66756715Y-31692789D01*
X66756642Y-31692124D01*
X66738584Y-31666990D01*
X66681786Y-31660213D01*
X66622536Y-31711168D01*
X66610127Y-31715246D01*
X66609475Y-31715808D01*
X66609421Y-31715478D01*
X66561405Y-31731262D01*
X66558009Y-31821638D01*
X66617743Y-31846380D01*
X66618600Y-31846380D01*
X66618665Y-31846761D01*
X66621278Y-31847844D01*
X66625229Y-31855482D01*
X66626507Y-31862956D01*
X66623614Y-31875694D01*
X66623759Y-31876542D01*
X66623402Y-31876627D01*
X66623197Y-31877531D01*
X66613406Y-31884151D01*
X66599297Y-31887516D01*
X66576784Y-31905297D01*
X66553487Y-31951397D01*
X66543581Y-31959913D01*
X66543194Y-31960680D01*
X66542740Y-31960636D01*
X66537896Y-31964802D01*
X66536008Y-31965012D01*
X66395981Y-31951548D01*
X66368581Y-31961388D01*
X66346086Y-31983883D01*
X66337712Y-31998064D01*
X66327281Y-32034160D01*
X66332054Y-32063149D01*
X66336095Y-32068959D01*
X66336818Y-32069423D01*
X66336434Y-32069694D01*
X66335219Y-32076464D01*
X66334588Y-32077124D01*
X66320243Y-32087272D01*
X66305736Y-32120261D01*
X66306064Y-32122843D01*
X66302680Y-32128458D01*
X66281808Y-32147983D01*
X66269580Y-32152577D01*
X66268953Y-32153164D01*
X66268477Y-32152586D01*
X66253411Y-32145749D01*
X66211238Y-32154967D01*
X66202154Y-32165441D01*
X66201881Y-32166261D01*
X66201435Y-32166269D01*
X66197592Y-32170702D01*
X66194749Y-32171403D01*
X66187667Y-32171544D01*
X66167544Y-32178797D01*
X66146338Y-32195669D01*
X66145921Y-32196423D01*
X66145592Y-32196054D01*
X66138129Y-32195206D01*
X66124792Y-32180278D01*
X66104931Y-32169494D01*
X66072214Y-32164444D01*
X66061050Y-32157661D01*
X66060196Y-32157530D01*
X66059796Y-32156899D01*
X66052115Y-32152233D01*
X65988878Y-32182091D01*
X65980065Y-32243470D01*
X65973401Y-32254706D01*
X65973279Y-32255558D01*
X65972718Y-32255856D01*
X65967804Y-32264144D01*
X65963228Y-32266585D01*
X65950225Y-32267853D01*
X65949466Y-32268258D01*
X65948904Y-32267981D01*
X65939450Y-32268904D01*
X65907795Y-32253338D01*
X65861133Y-32265404D01*
X65851017Y-32279948D01*
X65840022Y-32286999D01*
X65839532Y-32287705D01*
X65838966Y-32287676D01*
X65831726Y-32292321D01*
X65803697Y-32290920D01*
X65775271Y-32303619D01*
X65755510Y-32328030D01*
X65744030Y-32334265D01*
X65743490Y-32334933D01*
X65743413Y-32334106D01*
X65737365Y-32322970D01*
X65737220Y-32321390D01*
X65724986Y-32298345D01*
X65699121Y-32277145D01*
X65692954Y-32265625D01*
X65692292Y-32265083D01*
X65692485Y-32264750D01*
X65691236Y-32262416D01*
X65695044Y-32244924D01*
X65652899Y-32195829D01*
X65560878Y-32201563D01*
X65544416Y-32207168D01*
X65528473Y-32217939D01*
X65521145Y-32224732D01*
X65482948Y-32272964D01*
X65476863Y-32285262D01*
X65462883Y-32340204D01*
X65491720Y-32387066D01*
X65532797Y-32396180D01*
X65600289Y-32442183D01*
X65607448Y-32453115D01*
X65608157Y-32453598D01*
X65607775Y-32453820D01*
X65606579Y-32459558D01*
X65604437Y-32461556D01*
X65592281Y-32468649D01*
X65576029Y-32500505D01*
X65575048Y-32501702D01*
X65575046Y-32501702D01*
X65575215Y-32502017D01*
X65574391Y-32501767D01*
X65558770Y-32503321D01*
X65528955Y-32526806D01*
X65515934Y-32564149D01*
X65506843Y-32574803D01*
X65495206Y-32580737D01*
X65494648Y-32581392D01*
X65494593Y-32581028D01*
X65493621Y-32580713D01*
X65487960Y-32570511D01*
X65477062Y-32497865D01*
X65460054Y-32473144D01*
X65419065Y-32449975D01*
X65407472Y-32446047D01*
X65333722Y-32435734D01*
X65322461Y-32429110D01*
X65321611Y-32428992D01*
X65321824Y-32428507D01*
X65319910Y-32421127D01*
X65271204Y-32394065D01*
X65192982Y-32418494D01*
X65177356Y-32428958D01*
X65150294Y-32461518D01*
X65143306Y-32491412D01*
X65152026Y-32527967D01*
X65149963Y-32540868D01*
X65150163Y-32541705D01*
X65149736Y-32542290D01*
X65148000Y-32553148D01*
X65068180Y-32662506D01*
X65056544Y-32672892D01*
X65008680Y-32700109D01*
X64998624Y-32708974D01*
X64944840Y-32780800D01*
X64939545Y-32791495D01*
X64867886Y-33043972D01*
X64877355Y-33078818D01*
X64891391Y-33092255D01*
X64892192Y-33092567D01*
X64892190Y-33093020D01*
X64896759Y-33097394D01*
X64897174Y-33099381D01*
X64896872Y-33214835D01*
X64921621Y-33249077D01*
X64948930Y-33258019D01*
X64958845Y-33266528D01*
X64959660Y-33266795D01*
X64959346Y-33267003D01*
X64959493Y-33268917D01*
X64953340Y-33277016D01*
X64908897Y-33306646D01*
X64896082Y-33309180D01*
X64895367Y-33309658D01*
X64895086Y-33309377D01*
X64891821Y-33310024D01*
X64885026Y-33306388D01*
X64841880Y-33263244D01*
X64813464Y-33253476D01*
X64672273Y-33270963D01*
X64659680Y-33267485D01*
X64658829Y-33267591D01*
X64658746Y-33267227D01*
X64657234Y-33266810D01*
X64651463Y-33257722D01*
X64648969Y-33246727D01*
X64632927Y-33224905D01*
X64600799Y-33206249D01*
X64573780Y-33203165D01*
X64398813Y-33257055D01*
X64385805Y-33255829D01*
X64384986Y-33256082D01*
X64384864Y-33255740D01*
X64384336Y-33255691D01*
X64376183Y-33246265D01*
X64347306Y-33165164D01*
X64347967Y-33152116D01*
X64347679Y-33151307D01*
X64348016Y-33151136D01*
X64348119Y-33149118D01*
X64355106Y-33141966D01*
X64383827Y-33127496D01*
X64400258Y-33109102D01*
X64414704Y-33070022D01*
X64423581Y-33060431D01*
X64423878Y-33059628D01*
X64424424Y-33059519D01*
X64430203Y-33053277D01*
X64453520Y-33048658D01*
X64470633Y-33039484D01*
X64642851Y-32866141D01*
X64646196Y-32862190D01*
X64974433Y-32405256D01*
X64976062Y-32402754D01*
X65098444Y-32194394D01*
X65101429Y-32187675D01*
X65143232Y-32054937D01*
X65144664Y-32042765D01*
X65136003Y-31920823D01*
X65130035Y-31904088D01*
X65098569Y-31859473D01*
X65061755Y-31845307D01*
X64995202Y-31860319D01*
X64982329Y-31858098D01*
X64981490Y-31858288D01*
X64981398Y-31857938D01*
X64981061Y-31857880D01*
X64973530Y-31847575D01*
X64965225Y-31815705D01*
X64967019Y-31802760D01*
X64966804Y-31801932D01*
X64967195Y-31801494D01*
X64968426Y-31792621D01*
X65102088Y-31643254D01*
X65109385Y-31629720D01*
X65119054Y-31593229D01*
X65203456Y-31454782D01*
X65206456Y-31450550D01*
X65429200Y-31178440D01*
X65435835Y-31164859D01*
X65442011Y-31137613D01*
X65441867Y-31136769D01*
X65442350Y-31136121D01*
X65445074Y-31124107D01*
X66275460Y-30010902D01*
X66277667Y-30007525D01*
X66418203Y-29760242D01*
X66422167Y-29748598D01*
X66423933Y-29736015D01*
X66678551Y-29736015D01*
X66748554Y-29792630D01*
X66777234Y-29775771D01*
X66777748Y-29775091D01*
X66778190Y-29775209D01*
X66783909Y-29771848D01*
X66815537Y-29773776D01*
X66855206Y-29701688D01*
X66841183Y-29682274D01*
X66840452Y-29681823D01*
X66840291Y-29681039D01*
X66833172Y-29671182D01*
X66821175Y-29612523D01*
X66721540Y-29606589D01*
X66678551Y-29736015D01*
X66423933Y-29736015D01*
X66439423Y-29625656D01*
X66443433Y-29613325D01*
X66486667Y-29532138D01*
X66496756Y-29523832D01*
X66497159Y-29523076D01*
X66497634Y-29523109D01*
X66503186Y-29518539D01*
X66503466Y-29518507D01*
X66662497Y-29529717D01*
X66659356Y-29535906D01*
X66701284Y-29571599D01*
X66707225Y-29583224D01*
X66707898Y-29583797D01*
X66707872Y-29584490D01*
X66717323Y-29602983D01*
X66809121Y-29589980D01*
X66815221Y-29558437D01*
X66815050Y-29557601D01*
X66815431Y-29557351D01*
X66824588Y-29510002D01*
X66796298Y-29466128D01*
X66770582Y-29459988D01*
X66797710Y-29459988D01*
X66839996Y-29524836D01*
X66900183Y-29519932D01*
X66912621Y-29523936D01*
X66913477Y-29523867D01*
X66913889Y-29524337D01*
X66950347Y-29514928D01*
X66967257Y-29496926D01*
X66979167Y-29491550D01*
X66979754Y-29490926D01*
X66980253Y-29491060D01*
X66987439Y-29487817D01*
X67019850Y-29496545D01*
X67073131Y-29441133D01*
X67053685Y-29378771D01*
X67054544Y-29354560D01*
X67092017Y-29258853D01*
X67020435Y-29198831D01*
X66906572Y-29268394D01*
X66894735Y-29280863D01*
X66797710Y-29459988D01*
X66770582Y-29459988D01*
X66709601Y-29445428D01*
X66689604Y-29421473D01*
X66688845Y-29421076D01*
X66688746Y-29420446D01*
X66682522Y-29412990D01*
X66675126Y-29365595D01*
X66678145Y-29352516D01*
X66678130Y-29352416D01*
X66678187Y-29352332D01*
X66681208Y-29339252D01*
X66868368Y-29070687D01*
X66869866Y-29068326D01*
X67063825Y-28731615D01*
X67067890Y-28719760D01*
X67075071Y-28668122D01*
X67769131Y-28668122D01*
X67790161Y-28743095D01*
X67790963Y-28743272D01*
X67801283Y-28744006D01*
X67802312Y-28745786D01*
X67836798Y-28753424D01*
X67837002Y-28753134D01*
X67837424Y-28753563D01*
X67846398Y-28755551D01*
X67868575Y-28778076D01*
X67936223Y-28765777D01*
X67953267Y-28727396D01*
X67953289Y-28726543D01*
X67953545Y-28726794D01*
X68013792Y-28703602D01*
X68003765Y-28604825D01*
X67962042Y-28597870D01*
X67950958Y-28590954D01*
X67950112Y-28590813D01*
X67950189Y-28590474D01*
X67929649Y-28577658D01*
X68058039Y-28577658D01*
X68108400Y-28664191D01*
X68153675Y-28651716D01*
X68175492Y-28650525D01*
X68206008Y-28629018D01*
X68210494Y-28618334D01*
X68245493Y-28577432D01*
X68219061Y-28505856D01*
X68195113Y-28502101D01*
X68194985Y-28502310D01*
X68194475Y-28502001D01*
X68151446Y-28495255D01*
X68115445Y-28512116D01*
X68105675Y-28528443D01*
X68100046Y-28535660D01*
X68058039Y-28577658D01*
X67929649Y-28577658D01*
X67921370Y-28572492D01*
X67876288Y-28577645D01*
X67854442Y-28599492D01*
X67842376Y-28604489D01*
X67841765Y-28605101D01*
X67841197Y-28604978D01*
X67813710Y-28616364D01*
X67795726Y-28633991D01*
X67789226Y-28648833D01*
X67779811Y-28657870D01*
X67779457Y-28658679D01*
X67778961Y-28658685D01*
X67769131Y-28668122D01*
X67075071Y-28668122D01*
X67084912Y-28597348D01*
X67087712Y-28587469D01*
X67143027Y-28461617D01*
X67145420Y-28453357D01*
X67156150Y-28382306D01*
X67379805Y-28382306D01*
X67417251Y-28405218D01*
X67483156Y-28481990D01*
X67532074Y-28488660D01*
X67543286Y-28481146D01*
X67556102Y-28478576D01*
X67556811Y-28478101D01*
X67557338Y-28478328D01*
X67567692Y-28476252D01*
X67596105Y-28419416D01*
X67575305Y-28375881D01*
X67574670Y-28375310D01*
X67575120Y-28375019D01*
X67577845Y-28367309D01*
X67595056Y-28356203D01*
X67604222Y-28334876D01*
X67611376Y-28324410D01*
X67611182Y-28324113D01*
X67612002Y-28324292D01*
X67624603Y-28321923D01*
X67691822Y-28336597D01*
X67739334Y-28254391D01*
X67690048Y-28200153D01*
X67658133Y-28189362D01*
X67640674Y-28192558D01*
X67627905Y-28189814D01*
X67627058Y-28189970D01*
X67626743Y-28189565D01*
X67619146Y-28187933D01*
X67575522Y-28131757D01*
X67558624Y-28120236D01*
X67514296Y-28107184D01*
X67465847Y-28135471D01*
X67461420Y-28154592D01*
X67461562Y-28155442D01*
X67461073Y-28156088D01*
X67458304Y-28168053D01*
X67454146Y-28173560D01*
X67448325Y-28202723D01*
X67454694Y-28227384D01*
X67455211Y-28228070D01*
X67455067Y-28228826D01*
X67457999Y-28240177D01*
X67453409Y-28264322D01*
X67446243Y-28275245D01*
X67446083Y-28276091D01*
X67445583Y-28276252D01*
X67441212Y-28282916D01*
X67389661Y-28299545D01*
X67379805Y-28382306D01*
X67156150Y-28382306D01*
X67172110Y-28276620D01*
X67178857Y-28265429D01*
X67178985Y-28264582D01*
X67179354Y-28264604D01*
X67180072Y-28263414D01*
X67190682Y-28260274D01*
X67213795Y-28261661D01*
X67252127Y-28232572D01*
X67258311Y-28203923D01*
X67482079Y-27688130D01*
X67490858Y-27675712D01*
X67500189Y-27667030D01*
X67511010Y-27641736D01*
X67509434Y-27519322D01*
X67512387Y-27504319D01*
X67531852Y-27458482D01*
X67531852Y-27458481D01*
X67559796Y-27392675D01*
X67610841Y-27272467D01*
X67613446Y-27260167D01*
X67614389Y-27200842D01*
X67619349Y-27182927D01*
X67650318Y-27129374D01*
X67653979Y-27119883D01*
X67720231Y-26811981D01*
X67690918Y-26766709D01*
X67641046Y-26756096D01*
X67630281Y-26748694D01*
X67629441Y-26748516D01*
X67629161Y-26747924D01*
X67620966Y-26742290D01*
X67608785Y-26716523D01*
X67598515Y-26694798D01*
X67595791Y-26671582D01*
X67601746Y-26643369D01*
X67601746Y-26643361D01*
X67610624Y-26601300D01*
X67610624Y-26601293D01*
X67650057Y-26414450D01*
X67653005Y-26410147D01*
X67658278Y-26384465D01*
X67649211Y-26338678D01*
X67635564Y-26269776D01*
X67628031Y-26254448D01*
X67568195Y-26185957D01*
X67514903Y-26182071D01*
X67487351Y-26205617D01*
X67486961Y-26206385D01*
X67486650Y-26206031D01*
X67479960Y-26205507D01*
X67476017Y-26193933D01*
X67475451Y-26193289D01*
X67475619Y-26192764D01*
X67472913Y-26184820D01*
X67524523Y-26023720D01*
X67526079Y-26014130D01*
X67526522Y-25976139D01*
X67526956Y-25938835D01*
X67527810Y-25865434D01*
X67528242Y-25828138D01*
X67521485Y-25807607D01*
X67449146Y-25711945D01*
X67435511Y-25680593D01*
X67420623Y-25664448D01*
X67410030Y-25658782D01*
X67409173Y-25658698D01*
X67409272Y-25657896D01*
X67405692Y-25646083D01*
X67412330Y-25592371D01*
X67420435Y-25526775D01*
X67419773Y-25515092D01*
X67401450Y-25438960D01*
X67399742Y-25431722D01*
X67399678Y-25431593D01*
X67399052Y-25428992D01*
X67398067Y-25422250D01*
X67393906Y-25345040D01*
X67393319Y-25334134D01*
X67377963Y-25049216D01*
X67369357Y-25028560D01*
X67366151Y-25025019D01*
X67339808Y-24930589D01*
X67311131Y-24827794D01*
X67290014Y-24752102D01*
X67279591Y-24735769D01*
X67264810Y-24723143D01*
X67264800Y-24723134D01*
X67209710Y-24676077D01*
X67196500Y-24664794D01*
X67189874Y-24657401D01*
X67169973Y-24628149D01*
X67112932Y-24544306D01*
X67105957Y-24534056D01*
X67093042Y-24522905D01*
X66999252Y-24477460D01*
X66976556Y-24475098D01*
X66913491Y-24490788D01*
X66902337Y-24491831D01*
X66743887Y-24482724D01*
X66724412Y-24475794D01*
X66692612Y-24452787D01*
X66660365Y-24429456D01*
X66567924Y-24362575D01*
X66552033Y-24356485D01*
X66534255Y-24354599D01*
X66534201Y-24354596D01*
X66481310Y-24348993D01*
X66469831Y-24342748D01*
X66468978Y-24342658D01*
X66468610Y-24342083D01*
X66459497Y-24337126D01*
X66429970Y-24291027D01*
X66420994Y-24281730D01*
X66392920Y-24262326D01*
X66392914Y-24262321D01*
X66367199Y-24244546D01*
X66367200Y-24244546D01*
X66348665Y-24231734D01*
X66334215Y-24226167D01*
X66297468Y-24221340D01*
X66279725Y-24213968D01*
X66255663Y-24195412D01*
X66232726Y-24177723D01*
X66226543Y-24171540D01*
X66222577Y-24169897D01*
X66164574Y-24125165D01*
X66106656Y-24080501D01*
X66094420Y-24063598D01*
X66070605Y-23996120D01*
X66068194Y-23989289D01*
X66068194Y-23989286D01*
X66042427Y-23916281D01*
X66042427Y-23914484D01*
X66038743Y-23905591D01*
X66037662Y-23885097D01*
X66065681Y-23767495D01*
X66065681Y-23767490D01*
X66090076Y-23665099D01*
X66090076Y-23665094D01*
X66095579Y-23641998D01*
X66106243Y-23623648D01*
X66145512Y-23586935D01*
X66211765Y-23524991D01*
X66216860Y-23518905D01*
X66279702Y-23421951D01*
X66291957Y-23410195D01*
X66398042Y-23347541D01*
X66412182Y-23342682D01*
X66480080Y-23333909D01*
X66493706Y-23328923D01*
X66536655Y-23301205D01*
X66551275Y-23295683D01*
X66753972Y-23265243D01*
X66765610Y-23261148D01*
X66939912Y-23159592D01*
X66949816Y-23150700D01*
X67066484Y-22992392D01*
X67072020Y-22986384D01*
X67139473Y-22927587D01*
X67149988Y-22921132D01*
X67211737Y-22896170D01*
X67223535Y-22888032D01*
X67281232Y-22825770D01*
X67300421Y-22814833D01*
X67370467Y-22799706D01*
X67378283Y-22796941D01*
X67531046Y-22719829D01*
X67552606Y-22716228D01*
X67622469Y-22725824D01*
X67633748Y-22732421D01*
X67634599Y-22732538D01*
X67634294Y-22732740D01*
X67634999Y-22733153D01*
X67650284Y-22736680D01*
X67662467Y-22731424D01*
X67670280Y-22731020D01*
X67805925Y-22684512D01*
X67816617Y-22678401D01*
X68009791Y-22512985D01*
X68014404Y-22508129D01*
X68043623Y-22470228D01*
X68043623Y-22470226D01*
X68097492Y-22400347D01*
X68157044Y-22323099D01*
X68192461Y-22277155D01*
X68196172Y-22271063D01*
X68222129Y-22215563D01*
X68222129Y-22215562D01*
X68223674Y-22212260D01*
X68266886Y-22119856D01*
X68269490Y-22111546D01*
X68277756Y-22063359D01*
X68304371Y-21908180D01*
X68314813Y-21847291D01*
X68315262Y-21840651D01*
X68314348Y-21814348D01*
X68311656Y-21736956D01*
X68310151Y-21693698D01*
X68308079Y-21634156D01*
X68303219Y-21494508D01*
X68302403Y-21488312D01*
X68217629Y-21121213D01*
X68215284Y-21114502D01*
X68180559Y-21041774D01*
X68179866Y-21028719D01*
X68179504Y-21027961D01*
X68179510Y-21027961D01*
X68173823Y-21015237D01*
X68166292Y-21010640D01*
X68139172Y-20949956D01*
X68139170Y-20949954D01*
X68131289Y-20932317D01*
X68131286Y-20932311D01*
X68109864Y-20884378D01*
X68067535Y-20789665D01*
X68060588Y-20779664D01*
X67980134Y-20700563D01*
X67896799Y-20742858D01*
X67901653Y-20776000D01*
X67902094Y-20776739D01*
X67901805Y-20777036D01*
X67902453Y-20781460D01*
X67900367Y-20785197D01*
X67889197Y-20790014D01*
X67888600Y-20790630D01*
X67887771Y-20790630D01*
X67876179Y-20795630D01*
X67860651Y-20795630D01*
X67848581Y-20790630D01*
X67847723Y-20790630D01*
X67847449Y-20790161D01*
X67839808Y-20786996D01*
X67772934Y-20672553D01*
X67771160Y-20659606D01*
X67770728Y-20658867D01*
X67771205Y-20658778D01*
X67775701Y-20652857D01*
X67784884Y-20651152D01*
X67797666Y-20653863D01*
X67798510Y-20653707D01*
X67798944Y-20654134D01*
X67808034Y-20656063D01*
X67863056Y-20710187D01*
X67946590Y-20667382D01*
X67924266Y-20523045D01*
X67921146Y-20513317D01*
X67882515Y-20436725D01*
X67871919Y-20424512D01*
X67743446Y-20334971D01*
X67730407Y-20318671D01*
X67726539Y-20309189D01*
X67726609Y-20296122D01*
X67726286Y-20295330D01*
X67726615Y-20294991D01*
X67726654Y-20287750D01*
X67735437Y-20274346D01*
X67707371Y-20209938D01*
X67684198Y-20205987D01*
X67673155Y-20199032D01*
X67672310Y-20198888D01*
X67671936Y-20198264D01*
X67662565Y-20192363D01*
X67607324Y-20100293D01*
X67589647Y-20085903D01*
X67582061Y-20083253D01*
X67572315Y-20074552D01*
X67571505Y-20074269D01*
X67571208Y-20073563D01*
X67562523Y-20065809D01*
X67532773Y-19995041D01*
X67512514Y-19976082D01*
X67434067Y-19949062D01*
X67424284Y-19940405D01*
X67423470Y-19940125D01*
X67423094Y-19939352D01*
X67413340Y-19930721D01*
X67376206Y-19854322D01*
X67375425Y-19841279D01*
X67375051Y-19840508D01*
X67375350Y-19840015D01*
X67374826Y-19831248D01*
X67434708Y-19732679D01*
X67445249Y-19724957D01*
X67445695Y-19724224D01*
X67446383Y-19724127D01*
X67454919Y-19717875D01*
X67488011Y-19713213D01*
X67507666Y-19703053D01*
X67522879Y-19686934D01*
X67534802Y-19681586D01*
X67535390Y-19680964D01*
X67535680Y-19681192D01*
X67536957Y-19680620D01*
X67547447Y-19684079D01*
X67568563Y-19700670D01*
X67596670Y-19707223D01*
X67601869Y-19706126D01*
X67614719Y-19708526D01*
X67615558Y-19708349D01*
X67616026Y-19708770D01*
X67625464Y-19710533D01*
X67638450Y-19722210D01*
X67679230Y-19727139D01*
X67696771Y-19717741D01*
X67697314Y-19717079D01*
X67697562Y-19717317D01*
X67721099Y-19704708D01*
X67734788Y-19690937D01*
X67738233Y-19684413D01*
X67767270Y-19644987D01*
X67772673Y-19615469D01*
X67768212Y-19599516D01*
X67769775Y-19586542D01*
X67769545Y-19585717D01*
X67769888Y-19585605D01*
X67769945Y-19585138D01*
X67779669Y-19577188D01*
X67806966Y-19568363D01*
X67825475Y-19553612D01*
X67837207Y-19533936D01*
X67847687Y-19526127D01*
X67848126Y-19525392D01*
X67848586Y-19525790D01*
X67857773Y-19527132D01*
X67957390Y-19613394D01*
X67964101Y-19617884D01*
X68030476Y-19651231D01*
X68051634Y-19654207D01*
X68129448Y-19639560D01*
X68155631Y-19643364D01*
X68194544Y-19621078D01*
X68198571Y-19611176D01*
X68198566Y-19610324D01*
X68199038Y-19610028D01*
X68202259Y-19602110D01*
X68298105Y-19542077D01*
X68313672Y-19501580D01*
X68273891Y-19361791D01*
X68275396Y-19348811D01*
X68275162Y-19347989D01*
X68275524Y-19347701D01*
X68276303Y-19340989D01*
X68277058Y-19340100D01*
X68297309Y-19324031D01*
X68309425Y-19303964D01*
X68330559Y-19191889D01*
X68337711Y-19180951D01*
X68337870Y-19180110D01*
X68338516Y-19180309D01*
X68348620Y-19178195D01*
X68357924Y-19181067D01*
X68381076Y-19179824D01*
X68413300Y-19165947D01*
X68435098Y-19163674D01*
X68464423Y-19169587D01*
G37*
G36*
X68782965Y-29611897D02*
G01*
X68785592Y-29611837D01*
X68792535Y-29617488D01*
X68822795Y-29664281D01*
X68825151Y-29677131D01*
X68825618Y-29677853D01*
X68825419Y-29678592D01*
X68827520Y-29690048D01*
X68821075Y-29714050D01*
X68811988Y-29730121D01*
X68773896Y-29769644D01*
X68761920Y-29774865D01*
X68761324Y-29775484D01*
X68760525Y-29775473D01*
X68748017Y-29780927D01*
X68726625Y-29818392D01*
X68731557Y-29858608D01*
X68728139Y-29896689D01*
X68736764Y-29922474D01*
X68750408Y-29937563D01*
X68754796Y-29949869D01*
X68755372Y-29950506D01*
X68754878Y-29950780D01*
X68751190Y-29958554D01*
X68666379Y-30005742D01*
X68654178Y-30063762D01*
X68662159Y-30074294D01*
X68662901Y-30074728D01*
X68662272Y-30074790D01*
X68645888Y-30087208D01*
X68637281Y-30096966D01*
X68626102Y-30116341D01*
X68625991Y-30117194D01*
X68625706Y-30117029D01*
X68622594Y-30122424D01*
X68618630Y-30133563D01*
X68614283Y-30160409D01*
X68614482Y-30161247D01*
X68614106Y-30161505D01*
X68613091Y-30167777D01*
X68611731Y-30169205D01*
X68602567Y-30175506D01*
X68589788Y-30178224D01*
X68589082Y-30178710D01*
X68588512Y-30178495D01*
X68579448Y-30180424D01*
X68510915Y-30154608D01*
X68501381Y-30145673D01*
X68500578Y-30145371D01*
X68500551Y-30144895D01*
X68495339Y-30140011D01*
X68495249Y-30139643D01*
X68493529Y-30108931D01*
X68497844Y-30096578D01*
X68497801Y-30095799D01*
X68478769Y-30050246D01*
X68458772Y-30040754D01*
X68458509Y-30040993D01*
X68458389Y-30040572D01*
X68453324Y-30038168D01*
X68451655Y-30035153D01*
X68449685Y-30028206D01*
X68451202Y-30015227D01*
X68450969Y-30014403D01*
X68451311Y-30014295D01*
X68451342Y-30014036D01*
X68462591Y-30004878D01*
X68470357Y-29955767D01*
X68449729Y-29923852D01*
X68449381Y-29923916D01*
X68449394Y-29923333D01*
X68444568Y-29915866D01*
X68445451Y-29878201D01*
X68447613Y-29866535D01*
X68457389Y-29839159D01*
X68466158Y-29829472D01*
X68466447Y-29828665D01*
X68466680Y-29828981D01*
X68502581Y-29827196D01*
X68522136Y-29819620D01*
X68547747Y-29798504D01*
X68560241Y-29794682D01*
X68560904Y-29794137D01*
X68561696Y-29794237D01*
X68562524Y-29793985D01*
X68577605Y-29784300D01*
X68593166Y-29766767D01*
X68593446Y-29765959D01*
X68593801Y-29766052D01*
X68594567Y-29765189D01*
X68605670Y-29764098D01*
X68639855Y-29722225D01*
X68637831Y-29702739D01*
X68641557Y-29690211D01*
X68641469Y-29689362D01*
X68641830Y-29689293D01*
X68642190Y-29688084D01*
X68651873Y-29682310D01*
X68675442Y-29677863D01*
X68701956Y-29647674D01*
X68713149Y-29636849D01*
X68768909Y-29612224D01*
X68781973Y-29611920D01*
X68782757Y-29611575D01*
X68782965Y-29611897D01*
G37*
G36*
X68125501Y-29837241D02*
G01*
X68126325Y-29837000D01*
X68126539Y-29837789D01*
X68134359Y-29847489D01*
X68153553Y-29918064D01*
X68151895Y-29931024D01*
X68152121Y-29931853D01*
X68151756Y-29932118D01*
X68150965Y-29938305D01*
X68149494Y-29939945D01*
X68130592Y-29953692D01*
X68117891Y-29956747D01*
X68117196Y-29957253D01*
X68116719Y-29957029D01*
X68108943Y-29958900D01*
X68060892Y-29936322D01*
X68052092Y-29926662D01*
X68051315Y-29926297D01*
X68051299Y-29925792D01*
X68046128Y-29920115D01*
X68044717Y-29872695D01*
X68049356Y-29860479D01*
X68049331Y-29859622D01*
X68049726Y-29859505D01*
X68051278Y-29855420D01*
X68056222Y-29852385D01*
X68112509Y-29835847D01*
X68125501Y-29837241D01*
G37*
G36*
X58703149Y-8273263D02*
G01*
X58730817Y-8283510D01*
X58746491Y-8285292D01*
X58791512Y-8279482D01*
X58807840Y-8281032D01*
X58846590Y-8293770D01*
X58856496Y-8302290D01*
X58857311Y-8302558D01*
X58857442Y-8303103D01*
X58883324Y-8325364D01*
X58912325Y-8332983D01*
X58987863Y-8317948D01*
X58996205Y-8315072D01*
X59001613Y-8312341D01*
X59002171Y-8311693D01*
X59002622Y-8311831D01*
X59008950Y-8308637D01*
X59009441Y-8308692D01*
X59022214Y-8312608D01*
X59042394Y-8328069D01*
X59059367Y-8355094D01*
X59076082Y-8368660D01*
X59083591Y-8371431D01*
X59089890Y-8374443D01*
X59114181Y-8388974D01*
X59142728Y-8391966D01*
X59225651Y-8363545D01*
X59238692Y-8364361D01*
X59239503Y-8364084D01*
X59239929Y-8364439D01*
X59248374Y-8364968D01*
X59251822Y-8367841D01*
X59257894Y-8379410D01*
X59258553Y-8379959D01*
X59258355Y-8380288D01*
X59269003Y-8400573D01*
X59298254Y-8419169D01*
X59329066Y-8420560D01*
X59370835Y-8436221D01*
X59380383Y-8445142D01*
X59381188Y-8445444D01*
X59380864Y-8445614D01*
X59381075Y-8451801D01*
X59413083Y-8487097D01*
X59414900Y-8487336D01*
X59415716Y-8487119D01*
X59415815Y-8487457D01*
X59415984Y-8487480D01*
X59424038Y-8497732D01*
X59431991Y-8524855D01*
X59494634Y-8547045D01*
X59516930Y-8531635D01*
X59529709Y-8528881D01*
X59530412Y-8528396D01*
X59530699Y-8528668D01*
X59552834Y-8523900D01*
X59568153Y-8516007D01*
X59582575Y-8502853D01*
X59594865Y-8498412D01*
X59595499Y-8497835D01*
X59595603Y-8498246D01*
X59600163Y-8500386D01*
X59609391Y-8517531D01*
X59624940Y-8532083D01*
X59629065Y-8533962D01*
X59637978Y-8543517D01*
X59638759Y-8543873D01*
X59638753Y-8544349D01*
X59659308Y-8566384D01*
X59673804Y-8575445D01*
X59704250Y-8584767D01*
X59763352Y-8618451D01*
X59771364Y-8628772D01*
X59772109Y-8629197D01*
X59772001Y-8629593D01*
X59774649Y-8633004D01*
X59774658Y-8639623D01*
X59785241Y-8664175D01*
X59804652Y-8682557D01*
X59807332Y-8688559D01*
X59833397Y-8708600D01*
X59856605Y-8712346D01*
X59857437Y-8712149D01*
X59857893Y-8712554D01*
X59867099Y-8714040D01*
X59887547Y-8732190D01*
X59899409Y-8754034D01*
X59900007Y-8757987D01*
X59917015Y-8782671D01*
X59922850Y-8785967D01*
X59930905Y-8796260D01*
X59931653Y-8796682D01*
X59931634Y-8797190D01*
X59936414Y-8803298D01*
X59934297Y-8861023D01*
X59924640Y-8884429D01*
X59917450Y-8892210D01*
X59909065Y-8922778D01*
X59925308Y-8998758D01*
X59944348Y-9022668D01*
X60069049Y-9080838D01*
X60080425Y-9089068D01*
X60133866Y-9145891D01*
X60144002Y-9153195D01*
X60191783Y-9175271D01*
X60207134Y-9188499D01*
X60242538Y-9242402D01*
X60250325Y-9250670D01*
X60498740Y-9436037D01*
X60511120Y-9452412D01*
X60548313Y-9549739D01*
X60550756Y-9562101D01*
X60553097Y-9654709D01*
X60559344Y-9673281D01*
X60697947Y-9865928D01*
X60706674Y-9874257D01*
X60763141Y-9911010D01*
X60771844Y-9915001D01*
X60999810Y-9981282D01*
X61004781Y-9982315D01*
X61099233Y-9994356D01*
X61137861Y-9971186D01*
X61140162Y-9965130D01*
X61140138Y-9964281D01*
X61140850Y-9964319D01*
X61146855Y-9961623D01*
X61153965Y-9965028D01*
X61154822Y-9965075D01*
X61154818Y-9965437D01*
X61155309Y-9965672D01*
X61162843Y-9985648D01*
X61204236Y-10008821D01*
X61250720Y-9999907D01*
X61263518Y-10002544D01*
X61264360Y-10002383D01*
X61264997Y-10002849D01*
X61276794Y-10005280D01*
X61293783Y-10017703D01*
X61300576Y-10028864D01*
X61301269Y-10029371D01*
X61301054Y-10029650D01*
X61306383Y-10038405D01*
X61330755Y-10054456D01*
X61380448Y-10061497D01*
X61391701Y-10068141D01*
X61392549Y-10068262D01*
X61392570Y-10068655D01*
X61395410Y-10070332D01*
X61398071Y-10077628D01*
X61400405Y-10120166D01*
X61396073Y-10132493D01*
X61396121Y-10133352D01*
X61395800Y-10133270D01*
X61383202Y-10169129D01*
X61388026Y-10201106D01*
X61397604Y-10214041D01*
X61400768Y-10226717D01*
X61401280Y-10227408D01*
X61401047Y-10227834D01*
X61402837Y-10235003D01*
X61375339Y-10285515D01*
X61365178Y-10293723D01*
X61364767Y-10294480D01*
X61364696Y-10294112D01*
X61364667Y-10294137D01*
X61359333Y-10293571D01*
X61323197Y-10313842D01*
X61318463Y-10323832D01*
X61308779Y-10332592D01*
X61308411Y-10333369D01*
X61308048Y-10333253D01*
X61306415Y-10334731D01*
X61275697Y-10335263D01*
X61248897Y-10348956D01*
X61238410Y-10362938D01*
X61227170Y-10369592D01*
X61226654Y-10370281D01*
X61226233Y-10370146D01*
X61193779Y-10389362D01*
X61187248Y-10454808D01*
X61242404Y-10504517D01*
X61248206Y-10516476D01*
X61248483Y-10516726D01*
X61248507Y-10517097D01*
X61254309Y-10529056D01*
X61256701Y-10565205D01*
X61258492Y-10573917D01*
X61270178Y-10607024D01*
X61300766Y-10630507D01*
X61311425Y-10631339D01*
X61311586Y-10631025D01*
X61311894Y-10631376D01*
X61318833Y-10631918D01*
X61319428Y-10632381D01*
X61356804Y-10674967D01*
X61365797Y-10696326D01*
X61369100Y-10739259D01*
X61373309Y-10753009D01*
X61409536Y-10816659D01*
X61413710Y-10822422D01*
X61520923Y-10940747D01*
X61525322Y-10953049D01*
X61525899Y-10953685D01*
X61525647Y-10953958D01*
X61526121Y-10955281D01*
X61521859Y-10965459D01*
X61503149Y-10985796D01*
X61497298Y-11025363D01*
X61535624Y-11104671D01*
X61578830Y-11124065D01*
X61581589Y-11123280D01*
X61582254Y-11122755D01*
X61582276Y-11123142D01*
X61584814Y-11124556D01*
X61587825Y-11132467D01*
X61590070Y-11171168D01*
X61588301Y-11184851D01*
X61582680Y-11202099D01*
X61574186Y-11212026D01*
X61573920Y-11212845D01*
X61573451Y-11212885D01*
X61568980Y-11218112D01*
X61543402Y-11225413D01*
X61518563Y-11280268D01*
X61572751Y-11394664D01*
X61576315Y-11409613D01*
X61577519Y-11456571D01*
X61580783Y-11470032D01*
X61665252Y-11644797D01*
X61675265Y-11656908D01*
X61750281Y-11712689D01*
X61756984Y-11723904D01*
X61757674Y-11724417D01*
X61757508Y-11724781D01*
X61759365Y-11727887D01*
X61758365Y-11734994D01*
X61751695Y-11749696D01*
X61758987Y-11789697D01*
X61920602Y-11950922D01*
X61927025Y-11959507D01*
X62018704Y-12128105D01*
X62021821Y-12132381D01*
X62060483Y-12354880D01*
X62061015Y-12362501D01*
X62045067Y-12852675D01*
X62046633Y-12863798D01*
X62096281Y-13017597D01*
X62098773Y-13023351D01*
X62184970Y-13179259D01*
X62189476Y-13194129D01*
X62197748Y-13293057D01*
X62193771Y-13305501D01*
X62193843Y-13306359D01*
X62193331Y-13306877D01*
X62186463Y-13328373D01*
X62191390Y-13359017D01*
X62299336Y-13507649D01*
X62303497Y-13512349D01*
X62465737Y-13663385D01*
X62468998Y-13666049D01*
X62777926Y-13886655D01*
X62780500Y-13888315D01*
X63332549Y-14208734D01*
X63335465Y-14210235D01*
X63810301Y-14425144D01*
X63819085Y-14427712D01*
X64418220Y-14514526D01*
X64429244Y-14514246D01*
X64460994Y-14507988D01*
X64482980Y-14492999D01*
X64499623Y-14466952D01*
X64504409Y-14460931D01*
X64529139Y-14435656D01*
X64541158Y-14430524D01*
X64541756Y-14429913D01*
X64542179Y-14430087D01*
X64570415Y-14418032D01*
X64585038Y-14405857D01*
X64589464Y-14399185D01*
X64597051Y-14391306D01*
X64609027Y-14386078D01*
X64609621Y-14385462D01*
X64610313Y-14385516D01*
X64620038Y-14381272D01*
X64648581Y-14383537D01*
X64667259Y-14379503D01*
X64687564Y-14368288D01*
X64700548Y-14366828D01*
X64701299Y-14366414D01*
X64701852Y-14366681D01*
X64711168Y-14365635D01*
X64725468Y-14372554D01*
X64752001Y-14373816D01*
X64779909Y-14363450D01*
X64792969Y-14363933D01*
X64793771Y-14363636D01*
X64793756Y-14364102D01*
X64803265Y-14374345D01*
X64822590Y-14384625D01*
X64837645Y-14386980D01*
X64929198Y-14413571D01*
X64939394Y-14421738D01*
X64940218Y-14421978D01*
X64940447Y-14422582D01*
X64948974Y-14429412D01*
X64951553Y-14434991D01*
X64969224Y-14451964D01*
X65001878Y-14465489D01*
X65002130Y-14465238D01*
X65002197Y-14465620D01*
X65004887Y-14466735D01*
X65014989Y-14486153D01*
X65026246Y-14498576D01*
X65039388Y-14507150D01*
X65040230Y-14507308D01*
X65040169Y-14507659D01*
X65040187Y-14507671D01*
X65043020Y-14520633D01*
X65039787Y-14539515D01*
X65049116Y-14569382D01*
X65065060Y-14585655D01*
X65081866Y-14618454D01*
X65085931Y-14634224D01*
X65087495Y-14684619D01*
X65085197Y-14698696D01*
X65075948Y-14723666D01*
X65067016Y-14733386D01*
X65066819Y-14733921D01*
X65066303Y-14734163D01*
X65060046Y-14740974D01*
X65051169Y-14764055D01*
X65051402Y-14790676D01*
X65051739Y-14791469D01*
X65051412Y-14791802D01*
X65051472Y-14798583D01*
X65050864Y-14799513D01*
X65029030Y-14821837D01*
X65017017Y-14826969D01*
X65016417Y-14827584D01*
X65016271Y-14827288D01*
X64992744Y-14837342D01*
X64979885Y-14847142D01*
X64978423Y-14848978D01*
X64967092Y-14857743D01*
X64960650Y-14881005D01*
X64954258Y-14895589D01*
X64954256Y-14895589D01*
X64954504Y-14895847D01*
X64953763Y-14895782D01*
X64943263Y-14899883D01*
X64918869Y-14897751D01*
X64892889Y-14906622D01*
X64870613Y-14927177D01*
X64858986Y-14934809D01*
X64835409Y-14940632D01*
X64818887Y-14939033D01*
X64797802Y-14944057D01*
X64776009Y-14957851D01*
X64775514Y-14958555D01*
X64775351Y-14958179D01*
X64771713Y-14957363D01*
X64745403Y-14962287D01*
X64728314Y-14973756D01*
X64715509Y-14976329D01*
X64714793Y-14976811D01*
X64714408Y-14976551D01*
X64703356Y-14978773D01*
X64686275Y-14987989D01*
X64677825Y-14996535D01*
X64665786Y-15001601D01*
X64665183Y-15002212D01*
X64664979Y-15001773D01*
X64648851Y-14995200D01*
X64609150Y-15004056D01*
X64583885Y-15031457D01*
X64584220Y-15031580D01*
X64583670Y-15031689D01*
X64577908Y-15037940D01*
X64563561Y-15040808D01*
X64540051Y-15058355D01*
X64533896Y-15070012D01*
X64533816Y-15070870D01*
X64533412Y-15070928D01*
X64531527Y-15074499D01*
X64519739Y-15079739D01*
X64500723Y-15101765D01*
X64451096Y-15279877D01*
X64450006Y-15286007D01*
X64437458Y-15441913D01*
X64437487Y-15447472D01*
X64461658Y-15713349D01*
X64464175Y-15723286D01*
X64538549Y-15896572D01*
X64541610Y-15902135D01*
X64592289Y-15976111D01*
X64619181Y-15991004D01*
X64625191Y-15991252D01*
X64637164Y-15996752D01*
X64637797Y-15996779D01*
X64638228Y-15997241D01*
X64650197Y-16002740D01*
X64701144Y-16057347D01*
X64714818Y-16066136D01*
X64866238Y-16116732D01*
X64875952Y-16121652D01*
X64935367Y-16163647D01*
X64959446Y-16169503D01*
X64991413Y-16165058D01*
X65004060Y-16168348D01*
X65004909Y-16168230D01*
X65005193Y-16168642D01*
X65012598Y-16170569D01*
X65093290Y-16287520D01*
X65106409Y-16298652D01*
X65249687Y-16366183D01*
X65262624Y-16376299D01*
X65368913Y-16506680D01*
X65372665Y-16519196D01*
X65373208Y-16519862D01*
X65373114Y-16520694D01*
X65376774Y-16532902D01*
X65371987Y-16575497D01*
X65378793Y-16599857D01*
X65450571Y-16692965D01*
X65455740Y-16702075D01*
X65621866Y-17123604D01*
X65626669Y-17131933D01*
X65682222Y-17201951D01*
X65685808Y-17214515D01*
X65686341Y-17215187D01*
X65685799Y-17215484D01*
X65672402Y-17239584D01*
X65669752Y-17266409D01*
X65699344Y-17358654D01*
X65709208Y-17373579D01*
X65832028Y-17479858D01*
X65847201Y-17487280D01*
X65890783Y-17495954D01*
X65928541Y-17479124D01*
X65936187Y-17466244D01*
X65946651Y-17458413D01*
X65947088Y-17457677D01*
X65947417Y-17457839D01*
X65948359Y-17457135D01*
X65959713Y-17458318D01*
X65988495Y-17472484D01*
X65997117Y-17482301D01*
X65997887Y-17482680D01*
X65997541Y-17482923D01*
X65997226Y-17487806D01*
X65994098Y-17491466D01*
X65961651Y-17514331D01*
X65947124Y-17547900D01*
X65955319Y-17605984D01*
X65965454Y-17625607D01*
X66033998Y-17690429D01*
X66039332Y-17702355D01*
X66039956Y-17702945D01*
X66039929Y-17703690D01*
X66044569Y-17714062D01*
X66043842Y-17734796D01*
X66050505Y-17756031D01*
X66062454Y-17771973D01*
X66072943Y-17781076D01*
X66125331Y-17809825D01*
X66136318Y-17818995D01*
X66256262Y-17966789D01*
X66265027Y-17974345D01*
X66319899Y-18006784D01*
X66327746Y-18017231D01*
X66328485Y-18017668D01*
X66328399Y-18018101D01*
X66331903Y-18022765D01*
X66331989Y-18025764D01*
X66317277Y-18100633D01*
X66317890Y-18115911D01*
X66335960Y-18180126D01*
X66340537Y-18189861D01*
X66502450Y-18424230D01*
X66510805Y-18429624D01*
X66517704Y-18435514D01*
X66686071Y-18623963D01*
X66689700Y-18628746D01*
X66764412Y-18745621D01*
X66770031Y-18761604D01*
X66772228Y-18781981D01*
X66780910Y-18801058D01*
X66854118Y-18880149D01*
X66863647Y-18900967D01*
X66865409Y-18916668D01*
X66861786Y-18929220D01*
X66861883Y-18930076D01*
X66861530Y-18929894D01*
X66858592Y-18931517D01*
X66834282Y-18927057D01*
X66814430Y-18929530D01*
X66790787Y-18940352D01*
X66777732Y-18940830D01*
X66776951Y-18941188D01*
X66776545Y-18940873D01*
X66763158Y-18941364D01*
X66744102Y-18948227D01*
X66722907Y-18964501D01*
X66712253Y-18978662D01*
X66686127Y-19045225D01*
X66684010Y-19060527D01*
X66695576Y-19176903D01*
X66694226Y-19191149D01*
X66671024Y-19269460D01*
X66662704Y-19279939D01*
X66662651Y-19280120D01*
X66662486Y-19280213D01*
X66654167Y-19290693D01*
X66638660Y-19299507D01*
X66625696Y-19301125D01*
X66624947Y-19301551D01*
X66624353Y-19301292D01*
X66603410Y-19303907D01*
X66570645Y-19342506D01*
X66570914Y-19349431D01*
X66496483Y-19437178D01*
X66488635Y-19456627D01*
X66484738Y-19517765D01*
X66486245Y-19529883D01*
X66509864Y-19603365D01*
X66524188Y-19621648D01*
X66535201Y-19628439D01*
X66536047Y-19628576D01*
X66536371Y-19629161D01*
X66545058Y-19634518D01*
X66571858Y-19682860D01*
X66607682Y-19700884D01*
X66640128Y-19696566D01*
X66662726Y-19697858D01*
X66674492Y-19703538D01*
X66675350Y-19703588D01*
X66675268Y-19703913D01*
X66677786Y-19705129D01*
X66705772Y-19726477D01*
X66714780Y-19727090D01*
X66726485Y-19732898D01*
X66727341Y-19732957D01*
X66727458Y-19733381D01*
X66736548Y-19737892D01*
X66751356Y-19750017D01*
X66785880Y-19760523D01*
X66795973Y-19768822D01*
X66796795Y-19769072D01*
X66797177Y-19769811D01*
X66806960Y-19777855D01*
X66807605Y-19779102D01*
X66808703Y-19792121D01*
X66809098Y-19792885D01*
X66808795Y-19793210D01*
X66811900Y-19830000D01*
X66834797Y-19860097D01*
X66867772Y-19872292D01*
X66868629Y-19872260D01*
X66868430Y-19872615D01*
X66874018Y-19884763D01*
X66877903Y-19901779D01*
X66886524Y-19912333D01*
X66887282Y-19912741D01*
X66887145Y-19913094D01*
X66888440Y-19914679D01*
X66887580Y-19937609D01*
X66895059Y-19960021D01*
X66915570Y-19985301D01*
X66927176Y-19994281D01*
X66927366Y-19994104D01*
X66927735Y-19994633D01*
X66937667Y-19999161D01*
X66940622Y-20002815D01*
X66974143Y-20015207D01*
X66991337Y-20012033D01*
X66992056Y-20011567D01*
X66992160Y-20012037D01*
X66998214Y-20016205D01*
X67035217Y-20181957D01*
X67036076Y-20188366D01*
X67037720Y-20223447D01*
X67033291Y-20235736D01*
X67033332Y-20236595D01*
X67032879Y-20236880D01*
X67030124Y-20244528D01*
X67028679Y-20245439D01*
X67015802Y-20247646D01*
X67015076Y-20248105D01*
X67014631Y-20247388D01*
X67004153Y-20239978D01*
X66978252Y-20198201D01*
X66968546Y-20188170D01*
X66949371Y-20175389D01*
X66926331Y-20170043D01*
X66908697Y-20172383D01*
X66896075Y-20169014D01*
X66895220Y-20169128D01*
X66894831Y-20168682D01*
X66871613Y-20162486D01*
X66818587Y-20228758D01*
X66847729Y-20284461D01*
X66848388Y-20285012D01*
X66848418Y-20285778D01*
X66853832Y-20296126D01*
X66854426Y-20311116D01*
X66873840Y-20341052D01*
X66880290Y-20344245D01*
X66888894Y-20354084D01*
X66889663Y-20354465D01*
X66888935Y-20354663D01*
X66880324Y-20362194D01*
X66859796Y-20367792D01*
X66846836Y-20366143D01*
X66846006Y-20366370D01*
X66845813Y-20366013D01*
X66827609Y-20363698D01*
X66783308Y-20403676D01*
X66784537Y-20454880D01*
X66784886Y-20455667D01*
X66784414Y-20455349D01*
X66775772Y-20455557D01*
X66746355Y-20435745D01*
X66702668Y-20438222D01*
X66678917Y-20458471D01*
X66678525Y-20459239D01*
X66678138Y-20458878D01*
X66670132Y-20458241D01*
X66644348Y-20434156D01*
X66570461Y-20459540D01*
X66558096Y-20537349D01*
X66551263Y-20548484D01*
X66551129Y-20549333D01*
X66550653Y-20549108D01*
X66542291Y-20551112D01*
X66516474Y-20543157D01*
X66465748Y-20575547D01*
X66461216Y-20608825D01*
X66461435Y-20609657D01*
X66460866Y-20609676D01*
X66453984Y-20614909D01*
X66447925Y-20615112D01*
X66424094Y-20626094D01*
X66401408Y-20650904D01*
X66401115Y-20651714D01*
X66400811Y-20651398D01*
X66395172Y-20651651D01*
X66378622Y-20640898D01*
X66380869Y-20637774D01*
X66335134Y-20590413D01*
X66315057Y-20580433D01*
X66248688Y-20572449D01*
X66219493Y-20673299D01*
X66224588Y-20681710D01*
X66283818Y-20709872D01*
X66342606Y-20834982D01*
X66345834Y-20855094D01*
X66344879Y-20862957D01*
X66348977Y-20883432D01*
X66363125Y-20908372D01*
X66363804Y-20908901D01*
X66363892Y-20909724D01*
X66370098Y-20920663D01*
X66380009Y-21012734D01*
X66375673Y-21034363D01*
X66369255Y-21046033D01*
X66359057Y-21054198D01*
X66358644Y-21054951D01*
X66358549Y-21054309D01*
X66352355Y-21046574D01*
X66347191Y-21011551D01*
X66335892Y-20998697D01*
X66328045Y-20984665D01*
X66327694Y-20984707D01*
X66327610Y-20983887D01*
X66319951Y-20970190D01*
X66255017Y-20961843D01*
X66239046Y-20978458D01*
X66227082Y-20983691D01*
X66226488Y-20984309D01*
X66226230Y-20983855D01*
X66218835Y-20980960D01*
X66208594Y-20962935D01*
X66192964Y-20948855D01*
X66165682Y-20936919D01*
X66156629Y-20927501D01*
X66155844Y-20927158D01*
X66156186Y-20926406D01*
X66156843Y-20893112D01*
X66152163Y-20875468D01*
X66121739Y-20824520D01*
X66117517Y-20802257D01*
X66107459Y-20784052D01*
X66087704Y-20765694D01*
X66087580Y-20766028D01*
X66087512Y-20765516D01*
X66081760Y-20760171D01*
X66066860Y-20647738D01*
X66070230Y-20635114D01*
X66070118Y-20634265D01*
X66070495Y-20634418D01*
X66071093Y-20634074D01*
X66087498Y-20590853D01*
X66078178Y-20562783D01*
X66079119Y-20549750D01*
X66078850Y-20548937D01*
X66079167Y-20549086D01*
X66079169Y-20549072D01*
X66079517Y-20548771D01*
X66083821Y-20495830D01*
X66062096Y-20469756D01*
X66056020Y-20454972D01*
X66039053Y-20437237D01*
X66024344Y-20430413D01*
X66024083Y-20430654D01*
X66023897Y-20430206D01*
X66008173Y-20422911D01*
X65994708Y-20414302D01*
X65987827Y-20413365D01*
X65968674Y-20399198D01*
X65964464Y-20395571D01*
X65930867Y-20361974D01*
X65925866Y-20349901D01*
X65925261Y-20349296D01*
X65925480Y-20348968D01*
X65906617Y-20303427D01*
X65840826Y-20288639D01*
X65810007Y-20316550D01*
X65797706Y-20320945D01*
X65797068Y-20321524D01*
X65796580Y-20320929D01*
X65786002Y-20315921D01*
X65727062Y-20244097D01*
X65713112Y-20234113D01*
X65683992Y-20223192D01*
X65674444Y-20214271D01*
X65673641Y-20213970D01*
X65673539Y-20213425D01*
X65667373Y-20207664D01*
X65659034Y-20163095D01*
X65651961Y-20148048D01*
X65628062Y-20119316D01*
X65617438Y-20110911D01*
X65568696Y-20086662D01*
X65529955Y-20091400D01*
X65514878Y-20104228D01*
X65502446Y-20108241D01*
X65501792Y-20108799D01*
X65501477Y-20108554D01*
X65498172Y-20109622D01*
X65491230Y-20106926D01*
X65386300Y-20025428D01*
X65379833Y-20014074D01*
X65379157Y-20013549D01*
X65379144Y-20012864D01*
X65373979Y-20003795D01*
X65373498Y-19977345D01*
X65372173Y-19968716D01*
X65360648Y-19929582D01*
X65319455Y-19903406D01*
X65307408Y-19905253D01*
X65307323Y-19905601D01*
X65306972Y-19905320D01*
X65301029Y-19906232D01*
X65298654Y-19905061D01*
X65227709Y-19848203D01*
X65188270Y-19844861D01*
X65068650Y-19911233D01*
X65064964Y-19911654D01*
X65042220Y-19924348D01*
X65021069Y-19951252D01*
X65013920Y-19973032D01*
X65014251Y-19983400D01*
X65009639Y-19995622D01*
X65009667Y-19996483D01*
X65009083Y-19997096D01*
X65004549Y-20009115D01*
X64918726Y-20099311D01*
X64915941Y-20146832D01*
X64922372Y-20155406D01*
X64933797Y-20211418D01*
X64931310Y-20224242D01*
X64931482Y-20225084D01*
X64931022Y-20225727D01*
X64928734Y-20237531D01*
X64905720Y-20269751D01*
X64902090Y-20303710D01*
X64919506Y-20344075D01*
X64919721Y-20349340D01*
X64919598Y-20354271D01*
X64917391Y-20378542D01*
X64911320Y-20390098D01*
X64911241Y-20390977D01*
X64910837Y-20391019D01*
X64909853Y-20392893D01*
X64925502Y-20444037D01*
X64932212Y-20447644D01*
X64933071Y-20447731D01*
X64933218Y-20448185D01*
X64939493Y-20451558D01*
X64939693Y-20451923D01*
X64944057Y-20465342D01*
X64958792Y-20483794D01*
X64976517Y-20494361D01*
X64984326Y-20504837D01*
X64985061Y-20505276D01*
X64985005Y-20505748D01*
X64989309Y-20511523D01*
X64989326Y-20511783D01*
X64987976Y-20523185D01*
X64983358Y-20531431D01*
X64979157Y-20548832D01*
X64981310Y-20607350D01*
X64971331Y-20638925D01*
X64974936Y-20667266D01*
X64978805Y-20673448D01*
X64979506Y-20673948D01*
X64979393Y-20674388D01*
X64982742Y-20679740D01*
X64982655Y-20681790D01*
X64976053Y-20707515D01*
X64968211Y-20717961D01*
X64967997Y-20718796D01*
X64967377Y-20719072D01*
X64961197Y-20727306D01*
X64959618Y-20728012D01*
X64946559Y-20728365D01*
X64945771Y-20728718D01*
X64945318Y-20728399D01*
X64945187Y-20728403D01*
X64911194Y-20755448D01*
X64884404Y-20858743D01*
X64876534Y-20869171D01*
X64876318Y-20870005D01*
X64875959Y-20869932D01*
X64875518Y-20870518D01*
X64863549Y-20872523D01*
X64817356Y-20863181D01*
X64806516Y-20855887D01*
X64805675Y-20855717D01*
X64805623Y-20855286D01*
X64784693Y-20841203D01*
X64772151Y-20840527D01*
X64756293Y-20835600D01*
X64756066Y-20835874D01*
X64755958Y-20835496D01*
X64752958Y-20834564D01*
X64748565Y-20827824D01*
X64744452Y-20813430D01*
X64728867Y-20793475D01*
X64677562Y-20763895D01*
X64638484Y-20766324D01*
X64475608Y-20889415D01*
X64467258Y-20898707D01*
X64406844Y-20999399D01*
X64402188Y-21014656D01*
X64399384Y-21068490D01*
X64393763Y-21080283D01*
X64393719Y-21081143D01*
X64393121Y-21081631D01*
X64382125Y-21104705D01*
X64380110Y-21128226D01*
X64384037Y-21142208D01*
X64402464Y-21235366D01*
X64399902Y-21248177D01*
X64400069Y-21249021D01*
X64399649Y-21249440D01*
X64397454Y-21260420D01*
X64404575Y-21288820D01*
X64490583Y-21393299D01*
X64518784Y-21405768D01*
X64702385Y-21396675D01*
X64710867Y-21395114D01*
X64891449Y-21336372D01*
X64904476Y-21337392D01*
X64905291Y-21337128D01*
X64904937Y-21337440D01*
X64904389Y-21344436D01*
X64904001Y-21344936D01*
X64882536Y-21363892D01*
X64870850Y-21370887D01*
X64774717Y-21406574D01*
X64767548Y-21408453D01*
X64574771Y-21439011D01*
X64559165Y-21438154D01*
X64524125Y-21428572D01*
X64508247Y-21428194D01*
X64405148Y-21451181D01*
X64385206Y-21450085D01*
X64318699Y-21427375D01*
X64305609Y-21419613D01*
X64186474Y-21310494D01*
X64177028Y-21293038D01*
X64157341Y-21276865D01*
X64140044Y-21271502D01*
X64015830Y-21184587D01*
X64008461Y-21177789D01*
X63899929Y-21046568D01*
X63894932Y-21041698D01*
X63733518Y-20915061D01*
X63724231Y-20909957D01*
X63690438Y-20898007D01*
X63686430Y-20891286D01*
X63679101Y-20888695D01*
X63666830Y-20886765D01*
X63666645Y-20887069D01*
X63666325Y-20886685D01*
X63658839Y-20885508D01*
X63537567Y-20739774D01*
X63529169Y-20718895D01*
X63527297Y-20692476D01*
X63518149Y-20671755D01*
X63489375Y-20641531D01*
X63484669Y-20629335D01*
X63484079Y-20628716D01*
X63484137Y-20627958D01*
X63479962Y-20617137D01*
X63497517Y-20390923D01*
X63497517Y-20390905D01*
X63497732Y-20388142D01*
X63497732Y-20388139D01*
X63499822Y-20361208D01*
X63499635Y-20354386D01*
X63492785Y-20302945D01*
X63492783Y-20302939D01*
X63480409Y-20210005D01*
X63480255Y-20201458D01*
X63491365Y-20086652D01*
X63491180Y-20078837D01*
X63465130Y-19898868D01*
X63465161Y-19898684D01*
X63463630Y-19888505D01*
X63463278Y-19886070D01*
X63444139Y-19753847D01*
X63444139Y-19753840D01*
X63443522Y-19749588D01*
X63442222Y-19739024D01*
X63441900Y-19738380D01*
X63438243Y-19713117D01*
X63436832Y-19702577D01*
X63436671Y-19702256D01*
X63428584Y-19646391D01*
X63419042Y-19627466D01*
X63373666Y-19582527D01*
X63373298Y-19581790D01*
X63365405Y-19574347D01*
X63308104Y-19517596D01*
X63301027Y-19507846D01*
X63266111Y-19438343D01*
X63265443Y-19437014D01*
X63263822Y-19433349D01*
X63262924Y-19432003D01*
X63229498Y-19365466D01*
X63227960Y-19361751D01*
X63226635Y-19359764D01*
X63186003Y-19278887D01*
X63183981Y-19274219D01*
X63182895Y-19272700D01*
X63138411Y-19184152D01*
X63131883Y-19175284D01*
X63073755Y-19119232D01*
X63072959Y-19117639D01*
X63064442Y-19110252D01*
X62895601Y-18947440D01*
X62888767Y-18942387D01*
X62839233Y-18914935D01*
X62817001Y-18911283D01*
X62708312Y-18931103D01*
X62695540Y-18928349D01*
X62694696Y-18928504D01*
X62694067Y-18928032D01*
X62682371Y-18925511D01*
X62640151Y-18893846D01*
X62616788Y-18887270D01*
X62523492Y-18896142D01*
X62511001Y-18892306D01*
X62510148Y-18892388D01*
X62509513Y-18891849D01*
X62498147Y-18888360D01*
X62492545Y-18877463D01*
X62491892Y-18876909D01*
X62491906Y-18876220D01*
X62487104Y-18866877D01*
X62487508Y-18847926D01*
X62487508Y-18847912D01*
X62487567Y-18845150D01*
X62487567Y-18845132D01*
X62489066Y-18774623D01*
X62495824Y-18754147D01*
X62501533Y-18746089D01*
X62507396Y-18721871D01*
X62497918Y-18655219D01*
X62497308Y-18652058D01*
X62485585Y-18604213D01*
X62476919Y-18588763D01*
X62432675Y-18544221D01*
X62422549Y-18524631D01*
X62414870Y-18480478D01*
X62414525Y-18478499D01*
X62413097Y-18468998D01*
X62412753Y-18468311D01*
X62390073Y-18337901D01*
X62379163Y-18318473D01*
X62360282Y-18301927D01*
X62349848Y-18286603D01*
X62345565Y-18274667D01*
X62345565Y-18274662D01*
X62345224Y-18273713D01*
X62342909Y-18266065D01*
X62341982Y-18264675D01*
X62295857Y-18136090D01*
X62293995Y-18128456D01*
X62261902Y-17890504D01*
X62261902Y-17887299D01*
X62260892Y-17883024D01*
X62251120Y-17810570D01*
X62248589Y-17801650D01*
X62243537Y-17790304D01*
X62241710Y-17786201D01*
X62161039Y-17605029D01*
X62145788Y-17588894D01*
X62128434Y-17579963D01*
X62119988Y-17569994D01*
X62119226Y-17569602D01*
X62119128Y-17568979D01*
X62112925Y-17561657D01*
X62102249Y-17493263D01*
X62100283Y-17486122D01*
X61994457Y-17223104D01*
X61991671Y-17217700D01*
X61870753Y-17028837D01*
X61866351Y-17023364D01*
X61700035Y-16857049D01*
X61694044Y-16849216D01*
X61579307Y-16649094D01*
X61573861Y-16642040D01*
X61504823Y-16574229D01*
X61356944Y-16428981D01*
X61352395Y-16425256D01*
X61262101Y-16364062D01*
X61120133Y-16267846D01*
X61113033Y-16264212D01*
X61052395Y-16242042D01*
X61036637Y-16240336D01*
X61008014Y-16244217D01*
X60988226Y-16241436D01*
X60873237Y-16190911D01*
X60858415Y-16179082D01*
X60798533Y-16098257D01*
X60795363Y-16085580D01*
X60794855Y-16084894D01*
X60795193Y-16084900D01*
X60792961Y-16075970D01*
X60757183Y-16048382D01*
X60652269Y-16049652D01*
X60640139Y-16044798D01*
X60639280Y-16044809D01*
X60638993Y-16044340D01*
X60631241Y-16041238D01*
X60505062Y-15834591D01*
X60499656Y-15827909D01*
X60364768Y-15700081D01*
X60353742Y-15693182D01*
X60320755Y-15680779D01*
X60303247Y-15666956D01*
X60206461Y-15523584D01*
X60198076Y-15515061D01*
X60118248Y-15459249D01*
X60102695Y-15453462D01*
X60001166Y-15443041D01*
X59983305Y-15436237D01*
X59919751Y-15390318D01*
X59909695Y-15379391D01*
X59758748Y-15129156D01*
X59735486Y-15113215D01*
X59702374Y-15107409D01*
X59681819Y-15096210D01*
X59613079Y-15021912D01*
X59561094Y-15018682D01*
X59546682Y-15030820D01*
X59546286Y-15031587D01*
X59545962Y-15031228D01*
X59538659Y-15030604D01*
X59479030Y-14964618D01*
X59447436Y-14953704D01*
X59414886Y-14959316D01*
X59406784Y-14959819D01*
X59356646Y-14957481D01*
X59343666Y-14954491D01*
X59275333Y-14925109D01*
X59259542Y-14912163D01*
X59226430Y-14864106D01*
X59211490Y-14852144D01*
X59105170Y-14809336D01*
X59098045Y-14805526D01*
X58926940Y-14688655D01*
X58919193Y-14681576D01*
X58829352Y-14572564D01*
X58825364Y-14568507D01*
X58671951Y-14437555D01*
X58664294Y-14432679D01*
X58562837Y-14386431D01*
X58550693Y-14377547D01*
X58438716Y-14253785D01*
X58430293Y-14247107D01*
X58360497Y-14208489D01*
X58355285Y-14206176D01*
X58310894Y-14190968D01*
X58235918Y-14165283D01*
X58225028Y-14163517D01*
X58149949Y-14164163D01*
X58113421Y-14196823D01*
X58108176Y-14240182D01*
X58108408Y-14241012D01*
X58108024Y-14240894D01*
X58105143Y-14243155D01*
X58098039Y-14243067D01*
X58043400Y-14226347D01*
X58025861Y-14214675D01*
X57999188Y-14182577D01*
X57979153Y-14170974D01*
X57963196Y-14168195D01*
X57962358Y-14168383D01*
X57961898Y-14167969D01*
X57952630Y-14166355D01*
X57941386Y-14156234D01*
X57920681Y-14147685D01*
X57718638Y-14137512D01*
X57706837Y-14131912D01*
X57705977Y-14131869D01*
X57706038Y-14131063D01*
X57701904Y-14119465D01*
X57702288Y-14114423D01*
X57690835Y-14086160D01*
X57655984Y-14055286D01*
X57650264Y-14043538D01*
X57649621Y-14042969D01*
X57649585Y-14042145D01*
X57644096Y-14030871D01*
X57643038Y-14006275D01*
X57642221Y-13987300D01*
X57629236Y-13961987D01*
X57598906Y-13938156D01*
X57598905Y-13938156D01*
X57567330Y-13913348D01*
X57560297Y-13903504D01*
X57560296Y-13903503D01*
X57555742Y-13897129D01*
X57554773Y-13893928D01*
X57554002Y-13892772D01*
X57535781Y-13840572D01*
X57512603Y-13818769D01*
X57495354Y-13813907D01*
X57481580Y-13806632D01*
X57434184Y-13766935D01*
X57434181Y-13766931D01*
X57378989Y-13720706D01*
X57374601Y-13716368D01*
X57363414Y-13703317D01*
X57310962Y-13642122D01*
X57310960Y-13642120D01*
X57306168Y-13636523D01*
X57293523Y-13627418D01*
X57231889Y-13602408D01*
X57222585Y-13593236D01*
X57221790Y-13592914D01*
X57222116Y-13592731D01*
X57222104Y-13590976D01*
X57229019Y-13583141D01*
X57298570Y-13544238D01*
X57270778Y-13445575D01*
X57143624Y-13450555D01*
X57131369Y-13446032D01*
X57130510Y-13446066D01*
X57130704Y-13445704D01*
X57128906Y-13441802D01*
X57130246Y-13436015D01*
X57143311Y-13411773D01*
X57138668Y-13371232D01*
X57114921Y-13344283D01*
X57087448Y-13332739D01*
X57075325Y-13333380D01*
X57074550Y-13333751D01*
X57073974Y-13333452D01*
X57064129Y-13333973D01*
X57035985Y-13319359D01*
X57025767Y-13311553D01*
X56944168Y-13223064D01*
X56937168Y-13212139D01*
X56899074Y-13120713D01*
X56883686Y-13103918D01*
X56865009Y-13094143D01*
X56856633Y-13084117D01*
X56855872Y-13083719D01*
X56856256Y-13083107D01*
X56857240Y-13072134D01*
X56866915Y-13056727D01*
X56871987Y-13038156D01*
X56869796Y-12958341D01*
X56833056Y-12921710D01*
X56793581Y-12920743D01*
X56765455Y-12910334D01*
X56755871Y-12901455D01*
X56755066Y-12901158D01*
X56754806Y-12900469D01*
X56746596Y-12892864D01*
X56740361Y-12876323D01*
X56708718Y-12853420D01*
X56700741Y-12853079D01*
X56677199Y-12843088D01*
X56620949Y-12789636D01*
X56606677Y-12781659D01*
X56583719Y-12775565D01*
X56573334Y-12767635D01*
X56572504Y-12767415D01*
X56572764Y-12766894D01*
X56572414Y-12764276D01*
X56551283Y-12736758D01*
X56533955Y-12729547D01*
X56475041Y-12685131D01*
X56468412Y-12673871D01*
X56467729Y-12673356D01*
X56467639Y-12672558D01*
X56461420Y-12661994D01*
X56455498Y-12609286D01*
X56425410Y-12577634D01*
X56414987Y-12575925D01*
X56414151Y-12576121D01*
X56413694Y-12575712D01*
X56404504Y-12574206D01*
X56364498Y-12538456D01*
X56358828Y-12526683D01*
X56358191Y-12526114D01*
X56358415Y-12525826D01*
X56348023Y-12504247D01*
X56311878Y-12484203D01*
X56298482Y-12485673D01*
X56272617Y-12478538D01*
X56207148Y-12429013D01*
X56205016Y-12427530D01*
X56181046Y-12412243D01*
X56176364Y-12408711D01*
X56149847Y-12385233D01*
X56144124Y-12373490D01*
X56143482Y-12372921D01*
X56143508Y-12372225D01*
X56132204Y-12349027D01*
X56111392Y-12331372D01*
X56098694Y-12327587D01*
X56097841Y-12327676D01*
X56097378Y-12327195D01*
X56087653Y-12324297D01*
X56061843Y-12297465D01*
X56045795Y-12288236D01*
X56021905Y-12282415D01*
X56011362Y-12274701D01*
X56010528Y-12274498D01*
X56010219Y-12273864D01*
X56001574Y-12267539D01*
X55973634Y-12210202D01*
X55958553Y-12194966D01*
X55944897Y-12188138D01*
X55929148Y-12173010D01*
X55918110Y-12152983D01*
X55915669Y-12149200D01*
X55883221Y-12105822D01*
X55878289Y-12100561D01*
X55863404Y-12087846D01*
X55861220Y-12085828D01*
X55809363Y-12033971D01*
X55804362Y-12021898D01*
X55803757Y-12021293D01*
X55803927Y-12020848D01*
X55801177Y-12014208D01*
X55801537Y-12012268D01*
X55787698Y-11977434D01*
X55742584Y-11944457D01*
X55735790Y-11933297D01*
X55735097Y-11932791D01*
X55735087Y-11932143D01*
X55729966Y-11923731D01*
X55729789Y-11911330D01*
X55720373Y-11888450D01*
X55708987Y-11876628D01*
X55640053Y-11777513D01*
X55628009Y-11772179D01*
X55614755Y-11761952D01*
X55614447Y-11762130D01*
X55614200Y-11761524D01*
X55606329Y-11755451D01*
X55595719Y-11729387D01*
X55584308Y-11714927D01*
X55560535Y-11697914D01*
X55553629Y-11686822D01*
X55552932Y-11686324D01*
X55553110Y-11685989D01*
X55552971Y-11685766D01*
X55541030Y-11674385D01*
X55514070Y-11659341D01*
X55514037Y-11659337D01*
X55514015Y-11659310D01*
X55502266Y-11652754D01*
X55444440Y-11581400D01*
X55440164Y-11574815D01*
X55390427Y-11477067D01*
X55389409Y-11464041D01*
X55389021Y-11463279D01*
X55389330Y-11463032D01*
X55386631Y-11428490D01*
X55373599Y-11404315D01*
X55353215Y-11388495D01*
X55352907Y-11388672D01*
X55352669Y-11388072D01*
X55344910Y-11382050D01*
X55329523Y-11343163D01*
X55321533Y-11331362D01*
X55273651Y-11286104D01*
X55266191Y-11276223D01*
X55233231Y-11212887D01*
X55229706Y-11189361D01*
X55236006Y-11155203D01*
X55219956Y-11118641D01*
X55209686Y-11112186D01*
X55208841Y-11112043D01*
X55208627Y-11111520D01*
X55201353Y-11106949D01*
X55143194Y-10964866D01*
X55140655Y-10954993D01*
X55137959Y-10931627D01*
X55131212Y-10915106D01*
X55116711Y-10896445D01*
X55116369Y-10896540D01*
X55116238Y-10895837D01*
X55109560Y-10887243D01*
X55082851Y-10743079D01*
X55085568Y-10730294D01*
X55085413Y-10729456D01*
X55085793Y-10729234D01*
X55089447Y-10712047D01*
X55044740Y-10663112D01*
X55044189Y-10662728D01*
X54990912Y-10669108D01*
X54990162Y-10669530D01*
X54989782Y-10669243D01*
X54982740Y-10670087D01*
X54982309Y-10669874D01*
X54926449Y-10627782D01*
X54890041Y-10624234D01*
X54886358Y-10626019D01*
X54885784Y-10626665D01*
X54885376Y-10626175D01*
X54876220Y-10622999D01*
X54853619Y-10595879D01*
X54838879Y-10554593D01*
X54834093Y-10548454D01*
X54832730Y-10545906D01*
X54814113Y-10501161D01*
X54807270Y-10490819D01*
X54746805Y-10429047D01*
X54736527Y-10406760D01*
X54733131Y-10368922D01*
X54737032Y-10356452D01*
X54736956Y-10355600D01*
X54737216Y-10355862D01*
X54737228Y-10355827D01*
X54773451Y-10336868D01*
X54791210Y-10312874D01*
X54793091Y-10302861D01*
X54792915Y-10302022D01*
X54793266Y-10301928D01*
X54793402Y-10301207D01*
X54809403Y-10289619D01*
X54800221Y-10218103D01*
X54796330Y-10211793D01*
X54747736Y-10192865D01*
X54746878Y-10192884D01*
X54746896Y-10192110D01*
X54734535Y-10163975D01*
X54729838Y-10158393D01*
X54717826Y-10140571D01*
X54717113Y-10140099D01*
X54717231Y-10139689D01*
X54714334Y-10135390D01*
X54714509Y-10131131D01*
X54723900Y-10098785D01*
X54724442Y-10082508D01*
X54708226Y-10008599D01*
X54711048Y-9984791D01*
X54741809Y-9921423D01*
X54745098Y-9905780D01*
X54741175Y-9801179D01*
X54745720Y-9788926D01*
X54745688Y-9788072D01*
X54746200Y-9787632D01*
X54749788Y-9777960D01*
X54769133Y-9761349D01*
X54781550Y-9757277D01*
X54782200Y-9756720D01*
X54782591Y-9756936D01*
X54805651Y-9749376D01*
X54830430Y-9714660D01*
X54829767Y-9667808D01*
X54829428Y-9667021D01*
X54829753Y-9666828D01*
X54829724Y-9664745D01*
X54836152Y-9657223D01*
X54858618Y-9643909D01*
X54871555Y-9642055D01*
X54872290Y-9641620D01*
X54872301Y-9641948D01*
X54892438Y-9639063D01*
X54923338Y-9607266D01*
X54924990Y-9592788D01*
X54931328Y-9581356D01*
X54931425Y-9580506D01*
X54932111Y-9580649D01*
X54946778Y-9576446D01*
X54971841Y-9548262D01*
X54981554Y-9488868D01*
X54988436Y-9477761D01*
X54988575Y-9476916D01*
X54988829Y-9477127D01*
X54991683Y-9472523D01*
X54992350Y-9436902D01*
X54991750Y-9436436D01*
X54992122Y-9436320D01*
X54992906Y-9433465D01*
X54999785Y-9428701D01*
X55005794Y-9426834D01*
X55024441Y-9412335D01*
X55077561Y-9325779D01*
X55088138Y-9318104D01*
X55088587Y-9317374D01*
X55089054Y-9317440D01*
X55094752Y-9313306D01*
X55095343Y-9313279D01*
X55145126Y-9320316D01*
X55165143Y-9316890D01*
X55180509Y-9308900D01*
X55181059Y-9308246D01*
X55181787Y-9308235D01*
X55191680Y-9303092D01*
X55213321Y-9302783D01*
X55243396Y-9284681D01*
X55248640Y-9275115D01*
X55258833Y-9266927D01*
X55259244Y-9266178D01*
X55259653Y-9266552D01*
X55268055Y-9267469D01*
X55300153Y-9296870D01*
X55319984Y-9305529D01*
X55395802Y-9311744D01*
X55409189Y-9310061D01*
X55524671Y-9270263D01*
X55538909Y-9268294D01*
X55619764Y-9272916D01*
X55636325Y-9269533D01*
X55751056Y-9212672D01*
X55764094Y-9211791D01*
X55764862Y-9211411D01*
X55765496Y-9211696D01*
X55776082Y-9210982D01*
X55791686Y-9218012D01*
X55812145Y-9220255D01*
X55923967Y-9197029D01*
X55945838Y-9199200D01*
X56018235Y-9230046D01*
X56035787Y-9232377D01*
X56117680Y-9220944D01*
X56130328Y-9224227D01*
X56131178Y-9224109D01*
X56131430Y-9224513D01*
X56138381Y-9226318D01*
X56138584Y-9226540D01*
X56160830Y-9262243D01*
X56163071Y-9275295D01*
X56163325Y-9275702D01*
X56163221Y-9276169D01*
X56165463Y-9289219D01*
X56157532Y-9325185D01*
X56174364Y-9363863D01*
X56199949Y-9378951D01*
X56216412Y-9400245D01*
X56220721Y-9415325D01*
X56257117Y-9441685D01*
X56369606Y-9437315D01*
X56383138Y-9433815D01*
X56546051Y-9351621D01*
X56554106Y-9345881D01*
X56640643Y-9261798D01*
X56696594Y-9207432D01*
X56705394Y-9192630D01*
X56715598Y-9156185D01*
X56696764Y-9113530D01*
X56677450Y-9103810D01*
X56668915Y-9093917D01*
X56668149Y-9093532D01*
X56668134Y-9093012D01*
X56662961Y-9087016D01*
X56662330Y-9064929D01*
X56666983Y-9052716D01*
X56666959Y-9051862D01*
X56667334Y-9051794D01*
X56668204Y-9049514D01*
X56676368Y-9045104D01*
X56697432Y-9041346D01*
X56727133Y-9008979D01*
X56729466Y-8983321D01*
X56735540Y-8971748D01*
X56735618Y-8970897D01*
X56736019Y-8970836D01*
X56737915Y-8967225D01*
X56743702Y-8964628D01*
X56752189Y-8963355D01*
X56772926Y-8951739D01*
X56798881Y-8920830D01*
X56810473Y-8914800D01*
X56811025Y-8914144D01*
X56811318Y-8914361D01*
X56812074Y-8913968D01*
X56823567Y-8917216D01*
X56859591Y-8943918D01*
X56899175Y-8945744D01*
X56953746Y-8912613D01*
X56966660Y-8910621D01*
X56967393Y-8910177D01*
X56967336Y-8910543D01*
X56968414Y-8911332D01*
X56976173Y-8950308D01*
X57026224Y-8979862D01*
X57192078Y-8927184D01*
X57205100Y-8928295D01*
X57205915Y-8928037D01*
X57205520Y-8928790D01*
X57201652Y-8974091D01*
X57244355Y-9016833D01*
X57330326Y-9009571D01*
X57351249Y-8999831D01*
X57414453Y-8936414D01*
X57414452Y-8936413D01*
X57453845Y-8896888D01*
X57460160Y-8887966D01*
X57548001Y-8705259D01*
X57534549Y-8657854D01*
X57492509Y-8630927D01*
X57491665Y-8630777D01*
X57491880Y-8630235D01*
X57489971Y-8621519D01*
X57499863Y-8596695D01*
X57502193Y-8584271D01*
X57501921Y-8552589D01*
X57501587Y-8551801D01*
X57502117Y-8551728D01*
X57507847Y-8545901D01*
X57529411Y-8542965D01*
X57560038Y-8513330D01*
X57563547Y-8492669D01*
X57570499Y-8481601D01*
X57570643Y-8480758D01*
X57571151Y-8480564D01*
X57575573Y-8473526D01*
X57608680Y-8460902D01*
X57627705Y-8442658D01*
X57646666Y-8398582D01*
X57656030Y-8389467D01*
X57656368Y-8388682D01*
X57656903Y-8389016D01*
X57666545Y-8389148D01*
X57695679Y-8407356D01*
X57703264Y-8417993D01*
X57703992Y-8418448D01*
X57703773Y-8418707D01*
X57713821Y-8432797D01*
X57756350Y-8445617D01*
X57806744Y-8426318D01*
X57820593Y-8423862D01*
X57942168Y-8425650D01*
X57957895Y-8429406D01*
X58042547Y-8470730D01*
X58057627Y-8474065D01*
X58071013Y-8473812D01*
X58242544Y-8509865D01*
X58256710Y-8509724D01*
X58353293Y-8487411D01*
X58374224Y-8472568D01*
X58380008Y-8463428D01*
X58387841Y-8454552D01*
X58404827Y-8440570D01*
X58417276Y-8413965D01*
X58417112Y-8389866D01*
X58416780Y-8389080D01*
X58417102Y-8388391D01*
X58417023Y-8376755D01*
X58444080Y-8318900D01*
X58453723Y-8310083D01*
X58454086Y-8309308D01*
X58454541Y-8309335D01*
X58459309Y-8304977D01*
X58461053Y-8304725D01*
X58586710Y-8312431D01*
X58611700Y-8303556D01*
X58629699Y-8286997D01*
X58641971Y-8282503D01*
X58642601Y-8281924D01*
X58643003Y-8282125D01*
X58648865Y-8279979D01*
X58661707Y-8283294D01*
X58684924Y-8280901D01*
X58694424Y-8276216D01*
X58694989Y-8275573D01*
X58695412Y-8275729D01*
X58701040Y-8272955D01*
X58703149Y-8273263D01*
G37*
G36*
X67238298Y-10556725D02*
G01*
X67278108Y-10556725D01*
X67311630Y-10564987D01*
X67344102Y-10568646D01*
X67386101Y-10583342D01*
X67429784Y-10594109D01*
X67455617Y-10607667D01*
X67480976Y-10616541D01*
X67523832Y-10643469D01*
X67568106Y-10666706D01*
X67585895Y-10682466D01*
X67603766Y-10693695D01*
X67644121Y-10734050D01*
X67685035Y-10770297D01*
X67695435Y-10785364D01*
X67706304Y-10796233D01*
X67740467Y-10850603D01*
X67773776Y-10898859D01*
X67778324Y-10910853D01*
X67783458Y-10919023D01*
X67807740Y-10988416D01*
X67829170Y-11044923D01*
X67830050Y-11052174D01*
X67831353Y-11055897D01*
X67842299Y-11153050D01*
X67848000Y-11200000D01*
X67842298Y-11246953D01*
X67831353Y-11344102D01*
X67830050Y-11347823D01*
X67829170Y-11355077D01*
X67807735Y-11411595D01*
X67783458Y-11480976D01*
X67778325Y-11489143D01*
X67773776Y-11501141D01*
X67740460Y-11549406D01*
X67706304Y-11603766D01*
X67695437Y-11614632D01*
X67685035Y-11629703D01*
X67644112Y-11665957D01*
X67603766Y-11706304D01*
X67585899Y-11717530D01*
X67568106Y-11733294D01*
X67523822Y-11756535D01*
X67480976Y-11783458D01*
X67455623Y-11792329D01*
X67429784Y-11805891D01*
X67386091Y-11816659D01*
X67344102Y-11831353D01*
X67311638Y-11835010D01*
X67278108Y-11843275D01*
X67238289Y-11843275D01*
X67200000Y-11847589D01*
X67161711Y-11843275D01*
X67121892Y-11843275D01*
X67088362Y-11835010D01*
X67055897Y-11831353D01*
X67013905Y-11816659D01*
X66970216Y-11805891D01*
X66944378Y-11792330D01*
X66919023Y-11783458D01*
X66876171Y-11756532D01*
X66831894Y-11733294D01*
X66814103Y-11717532D01*
X66796233Y-11706304D01*
X66755878Y-11665949D01*
X66714965Y-11629703D01*
X66704564Y-11614635D01*
X66693695Y-11603766D01*
X66659528Y-11549390D01*
X66626224Y-11501141D01*
X66621675Y-11489147D01*
X66616541Y-11480976D01*
X66592251Y-11411561D01*
X66570830Y-11355077D01*
X66569949Y-11347827D01*
X66568646Y-11344102D01*
X66557687Y-11246839D01*
X66552000Y-11200000D01*
X66557686Y-11153165D01*
X66568646Y-11055897D01*
X66569949Y-11052170D01*
X66570830Y-11044923D01*
X66592246Y-10988450D01*
X66616541Y-10919023D01*
X66621676Y-10910849D01*
X66626224Y-10898859D01*
X66659521Y-10850619D01*
X66693695Y-10796233D01*
X66704566Y-10785361D01*
X66714965Y-10770297D01*
X66755869Y-10734058D01*
X66796233Y-10693695D01*
X66814107Y-10682463D01*
X66831894Y-10666706D01*
X66876161Y-10643472D01*
X66919023Y-10616541D01*
X66944384Y-10607666D01*
X66970216Y-10594109D01*
X67013895Y-10583343D01*
X67055897Y-10568646D01*
X67088369Y-10564987D01*
X67121892Y-10556725D01*
X67161702Y-10556725D01*
X67200000Y-10552410D01*
X67238298Y-10556725D01*
G37*
G36*
X45649544Y-7790684D02*
G01*
X45674542Y-7790684D01*
X45703817Y-7799279D01*
X45737149Y-7804559D01*
X45758028Y-7815197D01*
X45776768Y-7820700D01*
X45807159Y-7840231D01*
X45841685Y-7857823D01*
X45854547Y-7870685D01*
X45866399Y-7878302D01*
X45893886Y-7910024D01*
X45924646Y-7940784D01*
X45930507Y-7952287D01*
X45936173Y-7958826D01*
X45956346Y-8002999D01*
X45977910Y-8045320D01*
X45979097Y-8052816D01*
X45980432Y-8055739D01*
X45989017Y-8115448D01*
X45996263Y-8161199D01*
X45989016Y-8206953D01*
X45980432Y-8266658D01*
X45979097Y-8269580D01*
X45977910Y-8277078D01*
X45956341Y-8319407D01*
X45936173Y-8363571D01*
X45930508Y-8370108D01*
X45924646Y-8381614D01*
X45893880Y-8412379D01*
X45866399Y-8444095D01*
X45854550Y-8451709D01*
X45841685Y-8464575D01*
X45807151Y-8482170D01*
X45776768Y-8501697D01*
X45758032Y-8507198D01*
X45737149Y-8517839D01*
X45703814Y-8523118D01*
X45674542Y-8531714D01*
X45649544Y-8531714D01*
X45621270Y-8536192D01*
X45592996Y-8531714D01*
X45567998Y-8531714D01*
X45538724Y-8523118D01*
X45505391Y-8517839D01*
X45484509Y-8507199D01*
X45465771Y-8501697D01*
X45435383Y-8482168D01*
X45400855Y-8464575D01*
X45387991Y-8451711D01*
X45376140Y-8444095D01*
X45348652Y-8412372D01*
X45317894Y-8381614D01*
X45312032Y-8370110D01*
X45306366Y-8363571D01*
X45286188Y-8319388D01*
X45264630Y-8277078D01*
X45263443Y-8269583D01*
X45262107Y-8266658D01*
X45253512Y-8206884D01*
X45246277Y-8161199D01*
X45253512Y-8115517D01*
X45262107Y-8055739D01*
X45263443Y-8052813D01*
X45264630Y-8045320D01*
X45286184Y-8003017D01*
X45306366Y-7958826D01*
X45312034Y-7952284D01*
X45317894Y-7940784D01*
X45348645Y-7910032D01*
X45376140Y-7878302D01*
X45387994Y-7870683D01*
X45400855Y-7857823D01*
X45435375Y-7840233D01*
X45465771Y-7820700D01*
X45484512Y-7815196D01*
X45505391Y-7804559D01*
X45538722Y-7799279D01*
X45567998Y-7790684D01*
X45592996Y-7790684D01*
X45621270Y-7786206D01*
X45649544Y-7790684D01*
G37*
G36*
X56440975Y-6888297D02*
G01*
X56477299Y-6906867D01*
X56499452Y-6926555D01*
X56542750Y-6930094D01*
X56545671Y-6928248D01*
X56549629Y-6928510D01*
X56580704Y-6938221D01*
X56590734Y-6946594D01*
X56591553Y-6946850D01*
X56591788Y-6947473D01*
X56599583Y-6953981D01*
X56621437Y-7011967D01*
X56621016Y-7025024D01*
X56621319Y-7025828D01*
X56620975Y-7026278D01*
X56620669Y-7035795D01*
X56617839Y-7040536D01*
X56618762Y-7078104D01*
X56638069Y-7107104D01*
X56638782Y-7107582D01*
X56638702Y-7108054D01*
X56652312Y-7128496D01*
X56709189Y-7137104D01*
X56711416Y-7135291D01*
X56711807Y-7134567D01*
X56712131Y-7134709D01*
X56713067Y-7133948D01*
X56724416Y-7134649D01*
X56737719Y-7140499D01*
X56776896Y-7133359D01*
X56780130Y-7130192D01*
X56780466Y-7129406D01*
X56780842Y-7129494D01*
X56782891Y-7127490D01*
X56791400Y-7126849D01*
X56802620Y-7129496D01*
X56826339Y-7126339D01*
X56849662Y-7113706D01*
X56862658Y-7112352D01*
X56863413Y-7111944D01*
X56863815Y-7112232D01*
X56871316Y-7111451D01*
X56891157Y-7125651D01*
X56906108Y-7131539D01*
X56928070Y-7134391D01*
X56928897Y-7134169D01*
X56929092Y-7134962D01*
X56936705Y-7144848D01*
X56965743Y-7158243D01*
X56970496Y-7158004D01*
X56982809Y-7162392D01*
X56983666Y-7162349D01*
X56984079Y-7162844D01*
X56993337Y-7166144D01*
X57032441Y-7213068D01*
X57051255Y-7224383D01*
X57094785Y-7233517D01*
X57143840Y-7263802D01*
X57177929Y-7265159D01*
X57194508Y-7256663D01*
X57207534Y-7255607D01*
X57208297Y-7255217D01*
X57208903Y-7255497D01*
X57219053Y-7254675D01*
X57224451Y-7257166D01*
X57233316Y-7266765D01*
X57234094Y-7267124D01*
X57234099Y-7267612D01*
X57243784Y-7278099D01*
X57289320Y-7284733D01*
X57318449Y-7267439D01*
X57331384Y-7265575D01*
X57332122Y-7265137D01*
X57332401Y-7265428D01*
X57336250Y-7264874D01*
X57350361Y-7273102D01*
X57354299Y-7275054D01*
X57377303Y-7284583D01*
X57378160Y-7284583D01*
X57378016Y-7285098D01*
X57386274Y-7305033D01*
X57428028Y-7326901D01*
X57460938Y-7319775D01*
X57471072Y-7320967D01*
X57482477Y-7327342D01*
X57483331Y-7327443D01*
X57483116Y-7327892D01*
X57485179Y-7335181D01*
X57472774Y-7361184D01*
X57463066Y-7369922D01*
X57462694Y-7370704D01*
X57462289Y-7370622D01*
X57462141Y-7370756D01*
X57452585Y-7409556D01*
X57467666Y-7450243D01*
X57468250Y-7450873D01*
X57468062Y-7451312D01*
X57470564Y-7458061D01*
X57470561Y-7458076D01*
X57475803Y-7484867D01*
X57495704Y-7513510D01*
X57496428Y-7513975D01*
X57495848Y-7513975D01*
X57488060Y-7519387D01*
X57474047Y-7558680D01*
X57475256Y-7562911D01*
X57475791Y-7563585D01*
X57475154Y-7564052D01*
X57469334Y-7574536D01*
X57437246Y-7598123D01*
X57423246Y-7629844D01*
X57427530Y-7670236D01*
X57439294Y-7692430D01*
X57445728Y-7697868D01*
X57451720Y-7709477D01*
X57452375Y-7710031D01*
X57452184Y-7710376D01*
X57453716Y-7713344D01*
X57452156Y-7720663D01*
X57442074Y-7728723D01*
X57441659Y-7729477D01*
X57441423Y-7729243D01*
X57414544Y-7750734D01*
X57403208Y-7767979D01*
X57395777Y-7795186D01*
X57379766Y-7822978D01*
X57378419Y-7825582D01*
X57372934Y-7837463D01*
X57369915Y-7850636D01*
X57369897Y-7851582D01*
X57364680Y-7863554D01*
X57364665Y-7864416D01*
X57364282Y-7864468D01*
X57363253Y-7866831D01*
X57355125Y-7870780D01*
X57316008Y-7876182D01*
X57285332Y-7906262D01*
X57281913Y-7927873D01*
X57282115Y-7928711D01*
X57281758Y-7928853D01*
X57281389Y-7931190D01*
X57274199Y-7937252D01*
X57224057Y-7957258D01*
X57203463Y-7980778D01*
X57200828Y-7991216D01*
X57193028Y-8001694D01*
X57192818Y-8002528D01*
X57192237Y-8002756D01*
X57186577Y-8010362D01*
X57171507Y-8016302D01*
X57151076Y-8038910D01*
X57114616Y-8168443D01*
X57106532Y-8178706D01*
X57106300Y-8179534D01*
X57105608Y-8179880D01*
X57098333Y-8189119D01*
X56953012Y-8261950D01*
X56939982Y-8262888D01*
X56939215Y-8263273D01*
X56938884Y-8262967D01*
X56932725Y-8263411D01*
X56930723Y-8262228D01*
X56904068Y-8237568D01*
X56862714Y-8232331D01*
X56829145Y-8250435D01*
X56816148Y-8251763D01*
X56815392Y-8252172D01*
X56814913Y-8251890D01*
X56806525Y-8252748D01*
X56717626Y-8200337D01*
X56709767Y-8189900D01*
X56709029Y-8189465D01*
X56709161Y-8189095D01*
X56707259Y-8186569D01*
X56707628Y-8178555D01*
X56709395Y-8173625D01*
X56706989Y-8145393D01*
X56687619Y-8111107D01*
X56686034Y-8098136D01*
X56685613Y-8097390D01*
X56685853Y-8096655D01*
X56684425Y-8084958D01*
X56695474Y-8051251D01*
X56691580Y-8021860D01*
X56682353Y-8007783D01*
X56681644Y-8007300D01*
X56681840Y-8007001D01*
X56681833Y-8006989D01*
X56684440Y-7993968D01*
X56752115Y-7891256D01*
X56756575Y-7881036D01*
X56760934Y-7863247D01*
X56757475Y-7838530D01*
X56752170Y-7829230D01*
X56751494Y-7828706D01*
X56751934Y-7828337D01*
X56754245Y-7819891D01*
X56766096Y-7809990D01*
X56778288Y-7784743D01*
X56779160Y-7749987D01*
X56774435Y-7732079D01*
X56736632Y-7669158D01*
X56664394Y-7668053D01*
X56653658Y-7684743D01*
X56653863Y-7685039D01*
X56653430Y-7684795D01*
X56646071Y-7686393D01*
X56637280Y-7681448D01*
X56629210Y-7671172D01*
X56628463Y-7670752D01*
X56628481Y-7670244D01*
X56623703Y-7664159D01*
X56625765Y-7608477D01*
X56631209Y-7596597D01*
X56631241Y-7595741D01*
X56631617Y-7595705D01*
X56644107Y-7568453D01*
X56646509Y-7560901D01*
X56648085Y-7552527D01*
X56647910Y-7551688D01*
X56648271Y-7551542D01*
X56654491Y-7518515D01*
X56626230Y-7474880D01*
X56566841Y-7460647D01*
X56555849Y-7452871D01*
X56555835Y-7452868D01*
X56555826Y-7452855D01*
X56544834Y-7445079D01*
X56494918Y-7367995D01*
X56481032Y-7355937D01*
X56470213Y-7350923D01*
X56461363Y-7341310D01*
X56460585Y-7340950D01*
X56460685Y-7340573D01*
X56458708Y-7338426D01*
X56458320Y-7329995D01*
X56465926Y-7301357D01*
X56473859Y-7290971D01*
X56474078Y-7290147D01*
X56474517Y-7290108D01*
X56475811Y-7288416D01*
X56478329Y-7249118D01*
X56455583Y-7209782D01*
X56453868Y-7196829D01*
X56453440Y-7196088D01*
X56453714Y-7195660D01*
X56450467Y-7171123D01*
X56439175Y-7150155D01*
X56410995Y-7125715D01*
X56410181Y-7125444D01*
X56409977Y-7124832D01*
X56392286Y-7109489D01*
X56370028Y-7101278D01*
X56367714Y-7101295D01*
X56366922Y-7101631D01*
X56366554Y-7101304D01*
X56359088Y-7101361D01*
X56322489Y-7068862D01*
X56310644Y-7047107D01*
X56292505Y-6929035D01*
X56295613Y-6916342D01*
X56295484Y-6915497D01*
X56295853Y-6915365D01*
X56296617Y-6912248D01*
X56302973Y-6907512D01*
X56309407Y-6905214D01*
X56322459Y-6905863D01*
X56323266Y-6905575D01*
X56323659Y-6905922D01*
X56327085Y-6906093D01*
X56342702Y-6903025D01*
X56364392Y-6892875D01*
X56418809Y-6884684D01*
X56440975Y-6888297D01*
G37*
G36*
X39248716Y-7176372D02*
G01*
X39280260Y-7176372D01*
X39304559Y-7185216D01*
X39326037Y-7188618D01*
X39356371Y-7204074D01*
X39391222Y-7216759D01*
X39406614Y-7229675D01*
X39420592Y-7236797D01*
X39449222Y-7265427D01*
X39481678Y-7292661D01*
X39488811Y-7305016D01*
X39495633Y-7311838D01*
X39517295Y-7354352D01*
X39540719Y-7394923D01*
X39542174Y-7403180D01*
X39543812Y-7406393D01*
X39553257Y-7466031D01*
X39561224Y-7511212D01*
X39553256Y-7556396D01*
X39543812Y-7616030D01*
X39542175Y-7619242D01*
X39540719Y-7627501D01*
X39517291Y-7668079D01*
X39495633Y-7710585D01*
X39488812Y-7717405D01*
X39481678Y-7729763D01*
X39449216Y-7757001D01*
X39420592Y-7785626D01*
X39406617Y-7792746D01*
X39391222Y-7805665D01*
X39356364Y-7818352D01*
X39326037Y-7833805D01*
X39304564Y-7837205D01*
X39280260Y-7846052D01*
X39248710Y-7846052D01*
X39221219Y-7850406D01*
X39193728Y-7846052D01*
X39162178Y-7846052D01*
X39137873Y-7837205D01*
X39116400Y-7833805D01*
X39086070Y-7818350D01*
X39051216Y-7805665D01*
X39035821Y-7792747D01*
X39021845Y-7785626D01*
X38993215Y-7756996D01*
X38960760Y-7729763D01*
X38953626Y-7717407D01*
X38946804Y-7710585D01*
X38925132Y-7668053D01*
X38901719Y-7627501D01*
X38900263Y-7619245D01*
X38898625Y-7616030D01*
X38889171Y-7556340D01*
X38881214Y-7511212D01*
X38889170Y-7466087D01*
X38898625Y-7406393D01*
X38900263Y-7403177D01*
X38901719Y-7394923D01*
X38925134Y-7354366D01*
X38946804Y-7311838D01*
X38953627Y-7305014D01*
X38960760Y-7292661D01*
X38993207Y-7265434D01*
X39021845Y-7236797D01*
X39035826Y-7229672D01*
X39051217Y-7216759D01*
X39086061Y-7204076D01*
X39116400Y-7188618D01*
X39137879Y-7185216D01*
X39162178Y-7176372D01*
X39193721Y-7176372D01*
X39221219Y-7172017D01*
X39248716Y-7176372D01*
G37*
G36*
X40848920Y-7176372D02*
G01*
X40880464Y-7176372D01*
X40904763Y-7185216D01*
X40926241Y-7188618D01*
X40956575Y-7204074D01*
X40991426Y-7216759D01*
X41006818Y-7229675D01*
X41020796Y-7236797D01*
X41049426Y-7265427D01*
X41081882Y-7292661D01*
X41089015Y-7305016D01*
X41095837Y-7311838D01*
X41117499Y-7354352D01*
X41140923Y-7394923D01*
X41142378Y-7403180D01*
X41144016Y-7406393D01*
X41153456Y-7466004D01*
X41161428Y-7511212D01*
X41153454Y-7556429D01*
X41144016Y-7616031D01*
X41142378Y-7619243D01*
X41140923Y-7627501D01*
X41117497Y-7668075D01*
X41095837Y-7710585D01*
X41089016Y-7717405D01*
X41081882Y-7729763D01*
X41049420Y-7757001D01*
X41020796Y-7785626D01*
X41006821Y-7792746D01*
X40991426Y-7805665D01*
X40956568Y-7818352D01*
X40926241Y-7833805D01*
X40904768Y-7837205D01*
X40880464Y-7846052D01*
X40848914Y-7846052D01*
X40821423Y-7850406D01*
X40793932Y-7846052D01*
X40762382Y-7846052D01*
X40738077Y-7837205D01*
X40716604Y-7833805D01*
X40686274Y-7818350D01*
X40651420Y-7805665D01*
X40636025Y-7792747D01*
X40622049Y-7785626D01*
X40593419Y-7756996D01*
X40560964Y-7729763D01*
X40553830Y-7717407D01*
X40547008Y-7710585D01*
X40525336Y-7668053D01*
X40501923Y-7627501D01*
X40500467Y-7619245D01*
X40498829Y-7616030D01*
X40489375Y-7556340D01*
X40481418Y-7511212D01*
X40489374Y-7466087D01*
X40498829Y-7406393D01*
X40500467Y-7403177D01*
X40501923Y-7394923D01*
X40525338Y-7354366D01*
X40547008Y-7311838D01*
X40553831Y-7305014D01*
X40560964Y-7292661D01*
X40593411Y-7265434D01*
X40622049Y-7236797D01*
X40636030Y-7229672D01*
X40651421Y-7216759D01*
X40686265Y-7204076D01*
X40716604Y-7188618D01*
X40738083Y-7185216D01*
X40762382Y-7176372D01*
X40793925Y-7176372D01*
X40821423Y-7172017D01*
X40848920Y-7176372D01*
G37*
G36*
X41648767Y-7176372D02*
G01*
X41680311Y-7176372D01*
X41704610Y-7185216D01*
X41726088Y-7188618D01*
X41756422Y-7204074D01*
X41791273Y-7216759D01*
X41806665Y-7229675D01*
X41820643Y-7236797D01*
X41849273Y-7265427D01*
X41881729Y-7292661D01*
X41888862Y-7305016D01*
X41895684Y-7311838D01*
X41917346Y-7354352D01*
X41940770Y-7394923D01*
X41942225Y-7403180D01*
X41943863Y-7406393D01*
X41953311Y-7466046D01*
X41961275Y-7511212D01*
X41953305Y-7556411D01*
X41943863Y-7616030D01*
X41942226Y-7619242D01*
X41940770Y-7627501D01*
X41917342Y-7668079D01*
X41895684Y-7710585D01*
X41888863Y-7717405D01*
X41881729Y-7729763D01*
X41849267Y-7757001D01*
X41820643Y-7785626D01*
X41806668Y-7792746D01*
X41791273Y-7805665D01*
X41756415Y-7818352D01*
X41726088Y-7833805D01*
X41704615Y-7837205D01*
X41680311Y-7846052D01*
X41648761Y-7846052D01*
X41621270Y-7850406D01*
X41593779Y-7846052D01*
X41562229Y-7846052D01*
X41537924Y-7837205D01*
X41516451Y-7833805D01*
X41486121Y-7818350D01*
X41451267Y-7805665D01*
X41435872Y-7792747D01*
X41421896Y-7785626D01*
X41393266Y-7756996D01*
X41360811Y-7729763D01*
X41353677Y-7717407D01*
X41346855Y-7710585D01*
X41325183Y-7668053D01*
X41301770Y-7627501D01*
X41300314Y-7619245D01*
X41298676Y-7616030D01*
X41289217Y-7556314D01*
X41281265Y-7511212D01*
X41289215Y-7466123D01*
X41298676Y-7406393D01*
X41300314Y-7403177D01*
X41301770Y-7394923D01*
X41325185Y-7354366D01*
X41346855Y-7311838D01*
X41353678Y-7305014D01*
X41360811Y-7292661D01*
X41393258Y-7265434D01*
X41421896Y-7236797D01*
X41435877Y-7229672D01*
X41451268Y-7216759D01*
X41486112Y-7204076D01*
X41516451Y-7188618D01*
X41537930Y-7185216D01*
X41562229Y-7176372D01*
X41593772Y-7176372D01*
X41621270Y-7172017D01*
X41648767Y-7176372D01*
G37*
G36*
X42448869Y-7176372D02*
G01*
X42480413Y-7176372D01*
X42504712Y-7185216D01*
X42526190Y-7188618D01*
X42556524Y-7204074D01*
X42591375Y-7216759D01*
X42606767Y-7229675D01*
X42620745Y-7236797D01*
X42649375Y-7265427D01*
X42681831Y-7292661D01*
X42688964Y-7305016D01*
X42695786Y-7311838D01*
X42717448Y-7354352D01*
X42740872Y-7394923D01*
X42742327Y-7403180D01*
X42743965Y-7406393D01*
X42753405Y-7466004D01*
X42761377Y-7511212D01*
X42753403Y-7556429D01*
X42743965Y-7616031D01*
X42742327Y-7619243D01*
X42740872Y-7627501D01*
X42717446Y-7668075D01*
X42695786Y-7710585D01*
X42688965Y-7717405D01*
X42681831Y-7729763D01*
X42649369Y-7757001D01*
X42620745Y-7785626D01*
X42606770Y-7792746D01*
X42591375Y-7805665D01*
X42556517Y-7818352D01*
X42526190Y-7833805D01*
X42504717Y-7837205D01*
X42480413Y-7846052D01*
X42448863Y-7846052D01*
X42421372Y-7850406D01*
X42393881Y-7846052D01*
X42362331Y-7846052D01*
X42338026Y-7837205D01*
X42316553Y-7833805D01*
X42286223Y-7818350D01*
X42251369Y-7805665D01*
X42235974Y-7792747D01*
X42221998Y-7785626D01*
X42193368Y-7756996D01*
X42160913Y-7729763D01*
X42153779Y-7717407D01*
X42146957Y-7710585D01*
X42125285Y-7668053D01*
X42101872Y-7627501D01*
X42100416Y-7619245D01*
X42098778Y-7616030D01*
X42089327Y-7556355D01*
X42081367Y-7511212D01*
X42089321Y-7466102D01*
X42098778Y-7406393D01*
X42100416Y-7403177D01*
X42101872Y-7394923D01*
X42125287Y-7354366D01*
X42146957Y-7311838D01*
X42153780Y-7305014D01*
X42160913Y-7292661D01*
X42193360Y-7265434D01*
X42221998Y-7236797D01*
X42235979Y-7229672D01*
X42251370Y-7216759D01*
X42286214Y-7204076D01*
X42316553Y-7188618D01*
X42338032Y-7185216D01*
X42362331Y-7176372D01*
X42393874Y-7176372D01*
X42421372Y-7172017D01*
X42448869Y-7176372D01*
G37*
G36*
X43248970Y-7176372D02*
G01*
X43280514Y-7176372D01*
X43304813Y-7185216D01*
X43326291Y-7188618D01*
X43356625Y-7204074D01*
X43391476Y-7216759D01*
X43406868Y-7229675D01*
X43420846Y-7236797D01*
X43449476Y-7265427D01*
X43481932Y-7292661D01*
X43489065Y-7305016D01*
X43495887Y-7311838D01*
X43517549Y-7354352D01*
X43540973Y-7394923D01*
X43542428Y-7403180D01*
X43544066Y-7406393D01*
X43553511Y-7466031D01*
X43561478Y-7511212D01*
X43553510Y-7556396D01*
X43544066Y-7616030D01*
X43542429Y-7619242D01*
X43540973Y-7627501D01*
X43517545Y-7668079D01*
X43495887Y-7710585D01*
X43489066Y-7717405D01*
X43481932Y-7729763D01*
X43449470Y-7757001D01*
X43420846Y-7785626D01*
X43406871Y-7792746D01*
X43391476Y-7805665D01*
X43356618Y-7818352D01*
X43326291Y-7833805D01*
X43304818Y-7837205D01*
X43280514Y-7846052D01*
X43248964Y-7846052D01*
X43221473Y-7850406D01*
X43193982Y-7846052D01*
X43162432Y-7846052D01*
X43138127Y-7837205D01*
X43116654Y-7833805D01*
X43086324Y-7818350D01*
X43051470Y-7805665D01*
X43036075Y-7792747D01*
X43022099Y-7785626D01*
X42993469Y-7756996D01*
X42961014Y-7729763D01*
X42953880Y-7717407D01*
X42947058Y-7710585D01*
X42925386Y-7668053D01*
X42901973Y-7627501D01*
X42900517Y-7619245D01*
X42898879Y-7616030D01*
X42889420Y-7556314D01*
X42881468Y-7511212D01*
X42889418Y-7466123D01*
X42898879Y-7406393D01*
X42900517Y-7403177D01*
X42901973Y-7394923D01*
X42925388Y-7354366D01*
X42947058Y-7311838D01*
X42953881Y-7305014D01*
X42961014Y-7292661D01*
X42993461Y-7265434D01*
X43022099Y-7236797D01*
X43036080Y-7229672D01*
X43051471Y-7216759D01*
X43086315Y-7204076D01*
X43116654Y-7188618D01*
X43138133Y-7185216D01*
X43162432Y-7176372D01*
X43193975Y-7176372D01*
X43221473Y-7172017D01*
X43248970Y-7176372D01*
G37*
G36*
X44848920Y-7176372D02*
G01*
X44880464Y-7176372D01*
X44904763Y-7185216D01*
X44926241Y-7188618D01*
X44956575Y-7204074D01*
X44991426Y-7216759D01*
X45006818Y-7229675D01*
X45020796Y-7236797D01*
X45049426Y-7265427D01*
X45081882Y-7292661D01*
X45089015Y-7305016D01*
X45095837Y-7311838D01*
X45117499Y-7354352D01*
X45140923Y-7394923D01*
X45142378Y-7403180D01*
X45144016Y-7406393D01*
X45153461Y-7466031D01*
X45161428Y-7511212D01*
X45153460Y-7556396D01*
X45144016Y-7616030D01*
X45142379Y-7619242D01*
X45140923Y-7627501D01*
X45117495Y-7668079D01*
X45095837Y-7710585D01*
X45089016Y-7717405D01*
X45081882Y-7729763D01*
X45049420Y-7757001D01*
X45020796Y-7785626D01*
X45006821Y-7792746D01*
X44991426Y-7805665D01*
X44956568Y-7818352D01*
X44926241Y-7833805D01*
X44904768Y-7837205D01*
X44880464Y-7846052D01*
X44848914Y-7846052D01*
X44821423Y-7850406D01*
X44793932Y-7846052D01*
X44762382Y-7846052D01*
X44738077Y-7837205D01*
X44716604Y-7833805D01*
X44686274Y-7818350D01*
X44651420Y-7805665D01*
X44636025Y-7792747D01*
X44622049Y-7785626D01*
X44593419Y-7756996D01*
X44560964Y-7729763D01*
X44553830Y-7717407D01*
X44547008Y-7710585D01*
X44525336Y-7668053D01*
X44501923Y-7627501D01*
X44500467Y-7619245D01*
X44498829Y-7616030D01*
X44489375Y-7556340D01*
X44481418Y-7511212D01*
X44489374Y-7466087D01*
X44498829Y-7406393D01*
X44500467Y-7403177D01*
X44501923Y-7394923D01*
X44525338Y-7354366D01*
X44547008Y-7311838D01*
X44553831Y-7305014D01*
X44560964Y-7292661D01*
X44593411Y-7265434D01*
X44622049Y-7236797D01*
X44636030Y-7229672D01*
X44651421Y-7216759D01*
X44686265Y-7204076D01*
X44716604Y-7188618D01*
X44738083Y-7185216D01*
X44762382Y-7176372D01*
X44793925Y-7176372D01*
X44821423Y-7172017D01*
X44848920Y-7176372D01*
G37*
G36*
X38082615Y-6099323D02*
G01*
X38195654Y-6164586D01*
X38287950Y-6256882D01*
X38353213Y-6369921D01*
X38386995Y-6496000D01*
X38391273Y-6561263D01*
X38391273Y-7261263D01*
X38386995Y-7326526D01*
X38353213Y-7452605D01*
X38287950Y-7565644D01*
X38195654Y-7657940D01*
X38082615Y-7723203D01*
X37956536Y-7756985D01*
X37826010Y-7756985D01*
X37699931Y-7723203D01*
X37586892Y-7657940D01*
X37494596Y-7565644D01*
X37429333Y-7452605D01*
X37395551Y-7326526D01*
X37391273Y-7261263D01*
X37391273Y-6561263D01*
X37395551Y-6496000D01*
X37429333Y-6369921D01*
X37494596Y-6256882D01*
X37586892Y-6164586D01*
X37699931Y-6099323D01*
X37826010Y-6065541D01*
X37956536Y-6065541D01*
X38082615Y-6099323D01*
G37*
G36*
X46342711Y-6099323D02*
G01*
X46455750Y-6164586D01*
X46548046Y-6256882D01*
X46613309Y-6369921D01*
X46647091Y-6496000D01*
X46651369Y-6561263D01*
X46651369Y-7261263D01*
X46647091Y-7326526D01*
X46613309Y-7452605D01*
X46548046Y-7565644D01*
X46455750Y-7657940D01*
X46342711Y-7723203D01*
X46216632Y-7756985D01*
X46086106Y-7756985D01*
X45960027Y-7723203D01*
X45846988Y-7657940D01*
X45754692Y-7565644D01*
X45689429Y-7452605D01*
X45655647Y-7326526D01*
X45651369Y-7261263D01*
X45651369Y-6561263D01*
X45655647Y-6496000D01*
X45689429Y-6369921D01*
X45754692Y-6256882D01*
X45846988Y-6164586D01*
X45960027Y-6099323D01*
X46086106Y-6065541D01*
X46216632Y-6065541D01*
X46342711Y-6099323D01*
G37*
G36*
X39648767Y-6476346D02*
G01*
X39680311Y-6476346D01*
X39704610Y-6485190D01*
X39726088Y-6488592D01*
X39756422Y-6504048D01*
X39791273Y-6516733D01*
X39806665Y-6529649D01*
X39820643Y-6536771D01*
X39849273Y-6565401D01*
X39881729Y-6592635D01*
X39888862Y-6604990D01*
X39895684Y-6611812D01*
X39917346Y-6654326D01*
X39940770Y-6694897D01*
X39942225Y-6703154D01*
X39943863Y-6706367D01*
X39953311Y-6766020D01*
X39961275Y-6811186D01*
X39953305Y-6856385D01*
X39943863Y-6916004D01*
X39942226Y-6919216D01*
X39940770Y-6927475D01*
X39917342Y-6968053D01*
X39895684Y-7010559D01*
X39888863Y-7017379D01*
X39881729Y-7029737D01*
X39849267Y-7056975D01*
X39820643Y-7085600D01*
X39806668Y-7092720D01*
X39791273Y-7105639D01*
X39756415Y-7118326D01*
X39726088Y-7133779D01*
X39704615Y-7137179D01*
X39680311Y-7146026D01*
X39648761Y-7146026D01*
X39621270Y-7150380D01*
X39593779Y-7146026D01*
X39562229Y-7146026D01*
X39537924Y-7137179D01*
X39516451Y-7133779D01*
X39486121Y-7118324D01*
X39451267Y-7105639D01*
X39435872Y-7092721D01*
X39421896Y-7085600D01*
X39393266Y-7056970D01*
X39360811Y-7029737D01*
X39353677Y-7017381D01*
X39346855Y-7010559D01*
X39325189Y-6968038D01*
X39301770Y-6927475D01*
X39300314Y-6919219D01*
X39298676Y-6916004D01*
X39289222Y-6856314D01*
X39281265Y-6811186D01*
X39289221Y-6766061D01*
X39298676Y-6706367D01*
X39300314Y-6703151D01*
X39301770Y-6694897D01*
X39325185Y-6654340D01*
X39346855Y-6611812D01*
X39353678Y-6604988D01*
X39360811Y-6592635D01*
X39393258Y-6565408D01*
X39421896Y-6536771D01*
X39435877Y-6529646D01*
X39451268Y-6516733D01*
X39486112Y-6504050D01*
X39516451Y-6488592D01*
X39537930Y-6485190D01*
X39562229Y-6476346D01*
X39593772Y-6476346D01*
X39621270Y-6471991D01*
X39648767Y-6476346D01*
G37*
G36*
X40448869Y-6476346D02*
G01*
X40480413Y-6476346D01*
X40504712Y-6485190D01*
X40526190Y-6488592D01*
X40556524Y-6504048D01*
X40591375Y-6516733D01*
X40606767Y-6529649D01*
X40620745Y-6536771D01*
X40649375Y-6565401D01*
X40681831Y-6592635D01*
X40688964Y-6604990D01*
X40695786Y-6611812D01*
X40717448Y-6654326D01*
X40740872Y-6694897D01*
X40742327Y-6703154D01*
X40743965Y-6706367D01*
X40753405Y-6765978D01*
X40761377Y-6811186D01*
X40753403Y-6856403D01*
X40743965Y-6916005D01*
X40742327Y-6919217D01*
X40740872Y-6927475D01*
X40717446Y-6968049D01*
X40695786Y-7010559D01*
X40688965Y-7017379D01*
X40681831Y-7029737D01*
X40649369Y-7056975D01*
X40620745Y-7085600D01*
X40606770Y-7092720D01*
X40591375Y-7105639D01*
X40556517Y-7118326D01*
X40526190Y-7133779D01*
X40504717Y-7137179D01*
X40480413Y-7146026D01*
X40448863Y-7146026D01*
X40421372Y-7150380D01*
X40393881Y-7146026D01*
X40362331Y-7146026D01*
X40338026Y-7137179D01*
X40316553Y-7133779D01*
X40286223Y-7118324D01*
X40251369Y-7105639D01*
X40235974Y-7092721D01*
X40221998Y-7085600D01*
X40193368Y-7056970D01*
X40160913Y-7029737D01*
X40153779Y-7017381D01*
X40146957Y-7010559D01*
X40125291Y-6968038D01*
X40101872Y-6927475D01*
X40100416Y-6919219D01*
X40098778Y-6916004D01*
X40089327Y-6856329D01*
X40081367Y-6811186D01*
X40089321Y-6766076D01*
X40098778Y-6706367D01*
X40100416Y-6703151D01*
X40101872Y-6694897D01*
X40125287Y-6654340D01*
X40146957Y-6611812D01*
X40153780Y-6604988D01*
X40160913Y-6592635D01*
X40193360Y-6565408D01*
X40221998Y-6536771D01*
X40235979Y-6529646D01*
X40251370Y-6516733D01*
X40286214Y-6504050D01*
X40316553Y-6488592D01*
X40338032Y-6485190D01*
X40362331Y-6476346D01*
X40393874Y-6476346D01*
X40421372Y-6471991D01*
X40448869Y-6476346D01*
G37*
G36*
X41248970Y-6476346D02*
G01*
X41280514Y-6476346D01*
X41304813Y-6485190D01*
X41326291Y-6488592D01*
X41356625Y-6504048D01*
X41391476Y-6516733D01*
X41406868Y-6529649D01*
X41420846Y-6536771D01*
X41449476Y-6565401D01*
X41481932Y-6592635D01*
X41489065Y-6604990D01*
X41495887Y-6611812D01*
X41517549Y-6654326D01*
X41540973Y-6694897D01*
X41542428Y-6703154D01*
X41544066Y-6706367D01*
X41553511Y-6766005D01*
X41561478Y-6811186D01*
X41553510Y-6856370D01*
X41544066Y-6916004D01*
X41542429Y-6919216D01*
X41540973Y-6927475D01*
X41517545Y-6968053D01*
X41495887Y-7010559D01*
X41489066Y-7017379D01*
X41481932Y-7029737D01*
X41449470Y-7056975D01*
X41420846Y-7085600D01*
X41406871Y-7092720D01*
X41391476Y-7105639D01*
X41356618Y-7118326D01*
X41326291Y-7133779D01*
X41304818Y-7137179D01*
X41280514Y-7146026D01*
X41248964Y-7146026D01*
X41221473Y-7150380D01*
X41193982Y-7146026D01*
X41162432Y-7146026D01*
X41138127Y-7137179D01*
X41116654Y-7133779D01*
X41086324Y-7118324D01*
X41051470Y-7105639D01*
X41036075Y-7092721D01*
X41022099Y-7085600D01*
X40993469Y-7056970D01*
X40961014Y-7029737D01*
X40953880Y-7017381D01*
X40947058Y-7010559D01*
X40925392Y-6968038D01*
X40901973Y-6927475D01*
X40900517Y-6919219D01*
X40898879Y-6916004D01*
X40889420Y-6856288D01*
X40881468Y-6811186D01*
X40889418Y-6766097D01*
X40898879Y-6706367D01*
X40900517Y-6703151D01*
X40901973Y-6694897D01*
X40925388Y-6654340D01*
X40947058Y-6611812D01*
X40953881Y-6604988D01*
X40961014Y-6592635D01*
X40993461Y-6565408D01*
X41022099Y-6536771D01*
X41036080Y-6529646D01*
X41051471Y-6516733D01*
X41086315Y-6504050D01*
X41116654Y-6488592D01*
X41138133Y-6485190D01*
X41162432Y-6476346D01*
X41193975Y-6476346D01*
X41221473Y-6471991D01*
X41248970Y-6476346D01*
G37*
G36*
X42848920Y-6476346D02*
G01*
X42880464Y-6476346D01*
X42904763Y-6485190D01*
X42926241Y-6488592D01*
X42956575Y-6504048D01*
X42991426Y-6516733D01*
X43006818Y-6529649D01*
X43020796Y-6536771D01*
X43049426Y-6565401D01*
X43081882Y-6592635D01*
X43089015Y-6604990D01*
X43095837Y-6611812D01*
X43117499Y-6654326D01*
X43140923Y-6694897D01*
X43142378Y-6703154D01*
X43144016Y-6706367D01*
X43153456Y-6765978D01*
X43161428Y-6811186D01*
X43153454Y-6856403D01*
X43144016Y-6916005D01*
X43142378Y-6919217D01*
X43140923Y-6927475D01*
X43117497Y-6968049D01*
X43095837Y-7010559D01*
X43089016Y-7017379D01*
X43081882Y-7029737D01*
X43049420Y-7056975D01*
X43020796Y-7085600D01*
X43006821Y-7092720D01*
X42991426Y-7105639D01*
X42956568Y-7118326D01*
X42926241Y-7133779D01*
X42904768Y-7137179D01*
X42880464Y-7146026D01*
X42848914Y-7146026D01*
X42821423Y-7150380D01*
X42793932Y-7146026D01*
X42762382Y-7146026D01*
X42738077Y-7137179D01*
X42716604Y-7133779D01*
X42686274Y-7118324D01*
X42651420Y-7105639D01*
X42636025Y-7092721D01*
X42622049Y-7085600D01*
X42593419Y-7056970D01*
X42560964Y-7029737D01*
X42553830Y-7017381D01*
X42547008Y-7010559D01*
X42525342Y-6968038D01*
X42501923Y-6927475D01*
X42500467Y-6919219D01*
X42498829Y-6916004D01*
X42489375Y-6856314D01*
X42481418Y-6811186D01*
X42489374Y-6766061D01*
X42498829Y-6706367D01*
X42500467Y-6703151D01*
X42501923Y-6694897D01*
X42525338Y-6654340D01*
X42547008Y-6611812D01*
X42553831Y-6604988D01*
X42560964Y-6592635D01*
X42593411Y-6565408D01*
X42622049Y-6536771D01*
X42636030Y-6529646D01*
X42651421Y-6516733D01*
X42686265Y-6504050D01*
X42716604Y-6488592D01*
X42738083Y-6485190D01*
X42762382Y-6476346D01*
X42793925Y-6476346D01*
X42821423Y-6471991D01*
X42848920Y-6476346D01*
G37*
G36*
X43648767Y-6476346D02*
G01*
X43680311Y-6476346D01*
X43704610Y-6485190D01*
X43726088Y-6488592D01*
X43756422Y-6504048D01*
X43791273Y-6516733D01*
X43806665Y-6529649D01*
X43820643Y-6536771D01*
X43849273Y-6565401D01*
X43881729Y-6592635D01*
X43888862Y-6604990D01*
X43895684Y-6611812D01*
X43917346Y-6654326D01*
X43940770Y-6694897D01*
X43942225Y-6703154D01*
X43943863Y-6706367D01*
X43953311Y-6766020D01*
X43961275Y-6811186D01*
X43953305Y-6856385D01*
X43943863Y-6916004D01*
X43942226Y-6919216D01*
X43940770Y-6927475D01*
X43917342Y-6968053D01*
X43895684Y-7010559D01*
X43888863Y-7017379D01*
X43881729Y-7029737D01*
X43849267Y-7056975D01*
X43820643Y-7085600D01*
X43806668Y-7092720D01*
X43791273Y-7105639D01*
X43756415Y-7118326D01*
X43726088Y-7133779D01*
X43704615Y-7137179D01*
X43680311Y-7146026D01*
X43648761Y-7146026D01*
X43621270Y-7150380D01*
X43593779Y-7146026D01*
X43562229Y-7146026D01*
X43537924Y-7137179D01*
X43516451Y-7133779D01*
X43486121Y-7118324D01*
X43451267Y-7105639D01*
X43435872Y-7092721D01*
X43421896Y-7085600D01*
X43393266Y-7056970D01*
X43360811Y-7029737D01*
X43353677Y-7017381D01*
X43346855Y-7010559D01*
X43325189Y-6968038D01*
X43301770Y-6927475D01*
X43300314Y-6919219D01*
X43298676Y-6916004D01*
X43289217Y-6856288D01*
X43281265Y-6811186D01*
X43289215Y-6766097D01*
X43298676Y-6706367D01*
X43300314Y-6703151D01*
X43301770Y-6694897D01*
X43325185Y-6654340D01*
X43346855Y-6611812D01*
X43353678Y-6604988D01*
X43360811Y-6592635D01*
X43393258Y-6565408D01*
X43421896Y-6536771D01*
X43435877Y-6529646D01*
X43451268Y-6516733D01*
X43486112Y-6504050D01*
X43516451Y-6488592D01*
X43537930Y-6485190D01*
X43562229Y-6476346D01*
X43593772Y-6476346D01*
X43621270Y-6471991D01*
X43648767Y-6476346D01*
G37*
G36*
X44448869Y-6476346D02*
G01*
X44480413Y-6476346D01*
X44504712Y-6485190D01*
X44526190Y-6488592D01*
X44556524Y-6504048D01*
X44591375Y-6516733D01*
X44606767Y-6529649D01*
X44620745Y-6536771D01*
X44649375Y-6565401D01*
X44681831Y-6592635D01*
X44688964Y-6604990D01*
X44695786Y-6611812D01*
X44717448Y-6654326D01*
X44740872Y-6694897D01*
X44742327Y-6703154D01*
X44743965Y-6706367D01*
X44753410Y-6766005D01*
X44761377Y-6811186D01*
X44753409Y-6856370D01*
X44743965Y-6916004D01*
X44742328Y-6919216D01*
X44740872Y-6927475D01*
X44717444Y-6968053D01*
X44695786Y-7010559D01*
X44688965Y-7017379D01*
X44681831Y-7029737D01*
X44649369Y-7056975D01*
X44620745Y-7085600D01*
X44606770Y-7092720D01*
X44591375Y-7105639D01*
X44556517Y-7118326D01*
X44526190Y-7133779D01*
X44504717Y-7137179D01*
X44480413Y-7146026D01*
X44448863Y-7146026D01*
X44421372Y-7150380D01*
X44393881Y-7146026D01*
X44362331Y-7146026D01*
X44338026Y-7137179D01*
X44316553Y-7133779D01*
X44286223Y-7118324D01*
X44251369Y-7105639D01*
X44235974Y-7092721D01*
X44221998Y-7085600D01*
X44193368Y-7056970D01*
X44160913Y-7029737D01*
X44153779Y-7017381D01*
X44146957Y-7010559D01*
X44125291Y-6968038D01*
X44101872Y-6927475D01*
X44100416Y-6919219D01*
X44098778Y-6916004D01*
X44089327Y-6856329D01*
X44081367Y-6811186D01*
X44089321Y-6766076D01*
X44098778Y-6706367D01*
X44100416Y-6703151D01*
X44101872Y-6694897D01*
X44125287Y-6654340D01*
X44146957Y-6611812D01*
X44153780Y-6604988D01*
X44160913Y-6592635D01*
X44193360Y-6565408D01*
X44221998Y-6536771D01*
X44235979Y-6529646D01*
X44251370Y-6516733D01*
X44286214Y-6504050D01*
X44316553Y-6488592D01*
X44338032Y-6485190D01*
X44362331Y-6476346D01*
X44393874Y-6476346D01*
X44421372Y-6471991D01*
X44448869Y-6476346D01*
G37*
G36*
X71334716Y-440278D02*
G01*
X71643542Y-496872D01*
X71943294Y-590279D01*
X72229601Y-719135D01*
X72498289Y-881563D01*
X72745440Y-1075193D01*
X72967449Y-1297202D01*
X73161079Y-1544353D01*
X73323507Y-1813041D01*
X73452363Y-2099348D01*
X73545770Y-2399100D01*
X73602364Y-2707926D01*
X73621321Y-3021321D01*
X73602364Y-3334716D01*
X73545770Y-3643542D01*
X73452363Y-3943294D01*
X73323507Y-4229601D01*
X73161079Y-4498289D01*
X72967449Y-4745440D01*
X72745440Y-4967449D01*
X72498289Y-5161079D01*
X72229601Y-5323507D01*
X71943294Y-5452363D01*
X71643542Y-5545770D01*
X71334716Y-5602364D01*
X71021321Y-5621321D01*
X70707926Y-5602364D01*
X70399100Y-5545770D01*
X70099348Y-5452363D01*
X69813041Y-5323507D01*
X69544353Y-5161079D01*
X69297202Y-4967449D01*
X69075193Y-4745440D01*
X68881563Y-4498289D01*
X68719135Y-4229601D01*
X68590279Y-3943294D01*
X68496872Y-3643542D01*
X68440278Y-3334716D01*
X68421321Y-3021321D01*
X68440278Y-2707926D01*
X68496872Y-2399100D01*
X68590279Y-2099348D01*
X68719135Y-1813041D01*
X68881563Y-1544353D01*
X69075193Y-1297202D01*
X69297202Y-1075193D01*
X69544353Y-881563D01*
X69813041Y-719135D01*
X70099348Y-590279D01*
X70399100Y-496872D01*
X70707926Y-440278D01*
X71021321Y-421321D01*
X71334716Y-440278D01*
G37*
G36*
X49404477Y-4248451D02*
G01*
X49502046Y-4298165D01*
X49579477Y-4375596D01*
X49629191Y-4473165D01*
X49646321Y-4581321D01*
X49629191Y-4689477D01*
X49579477Y-4787046D01*
X49502046Y-4864477D01*
X49404477Y-4914191D01*
X49296321Y-4931321D01*
X49188165Y-4914191D01*
X49090596Y-4864477D01*
X49013165Y-4787046D01*
X48963451Y-4689477D01*
X48946321Y-4581321D01*
X48963451Y-4473165D01*
X49013165Y-4375596D01*
X49090596Y-4298165D01*
X49188165Y-4248451D01*
X49296321Y-4231321D01*
X49404477Y-4248451D01*
G37*
G36*
X53404477Y-4248451D02*
G01*
X53502046Y-4298165D01*
X53579477Y-4375596D01*
X53629191Y-4473165D01*
X53646321Y-4581321D01*
X53629191Y-4689477D01*
X53579477Y-4787046D01*
X53502046Y-4864477D01*
X53404477Y-4914191D01*
X53296321Y-4931321D01*
X53188165Y-4914191D01*
X53090596Y-4864477D01*
X53013165Y-4787046D01*
X52963451Y-4689477D01*
X52946321Y-4581321D01*
X52963451Y-4473165D01*
X53013165Y-4375596D01*
X53090596Y-4298165D01*
X53188165Y-4248451D01*
X53296321Y-4231321D01*
X53404477Y-4248451D01*
G37*
G36*
X56690040Y-2109241D02*
G01*
X56807763Y-2158003D01*
X56913711Y-2228795D01*
X57003812Y-2318896D01*
X57074604Y-2424844D01*
X57123366Y-2542567D01*
X57148225Y-2667541D01*
X57151355Y-2731252D01*
X57151355Y-3731252D01*
X57148225Y-3794963D01*
X57123366Y-3919937D01*
X57074604Y-4037660D01*
X57003812Y-4143608D01*
X56913711Y-4233709D01*
X56807763Y-4304501D01*
X56690040Y-4353263D01*
X56565066Y-4378122D01*
X56437644Y-4378122D01*
X56312670Y-4353263D01*
X56194947Y-4304501D01*
X56088999Y-4233709D01*
X55998898Y-4143608D01*
X55928106Y-4037660D01*
X55879344Y-3919937D01*
X55854485Y-3794963D01*
X55851355Y-3731252D01*
X55851355Y-2731252D01*
X55854485Y-2667541D01*
X55879344Y-2542567D01*
X55928106Y-2424844D01*
X55998898Y-2318896D01*
X56088999Y-2228795D01*
X56194947Y-2158003D01*
X56312670Y-2109241D01*
X56437644Y-2084382D01*
X56565066Y-2084382D01*
X56690040Y-2109241D01*
G37*
G36*
X66730172Y-2109241D02*
G01*
X66847895Y-2158003D01*
X66953843Y-2228795D01*
X67043944Y-2318896D01*
X67114736Y-2424844D01*
X67163498Y-2542567D01*
X67188357Y-2667541D01*
X67191487Y-2731252D01*
X67191487Y-3731252D01*
X67188357Y-3794963D01*
X67163498Y-3919937D01*
X67114736Y-4037660D01*
X67043944Y-4143608D01*
X66953843Y-4233709D01*
X66847895Y-4304501D01*
X66730172Y-4353263D01*
X66605198Y-4378122D01*
X66477776Y-4378122D01*
X66352802Y-4353263D01*
X66235079Y-4304501D01*
X66129131Y-4233709D01*
X66039030Y-4143608D01*
X65968238Y-4037660D01*
X65919476Y-3919937D01*
X65894617Y-3794963D01*
X65891487Y-3731252D01*
X65891487Y-2731252D01*
X65894617Y-2667541D01*
X65919476Y-2542567D01*
X65968238Y-2424844D01*
X66039030Y-2318896D01*
X66129131Y-2228795D01*
X66235079Y-2158003D01*
X66352802Y-2109241D01*
X66477776Y-2084382D01*
X66605198Y-2084382D01*
X66730172Y-2109241D01*
G37*
G36*
X40055380Y-3075805D02*
G01*
X40087560Y-3075805D01*
X40124457Y-3084899D01*
X40163671Y-3090062D01*
X40190514Y-3101180D01*
X40216181Y-3107507D01*
X40255095Y-3127931D01*
X40296321Y-3145007D01*
X40315129Y-3159439D01*
X40333485Y-3169073D01*
X40371013Y-3202320D01*
X40410230Y-3232412D01*
X40421375Y-3246936D01*
X40432644Y-3256920D01*
X40464959Y-3303737D01*
X40497635Y-3346321D01*
X40502560Y-3358211D01*
X40507899Y-3365946D01*
X40531061Y-3427021D01*
X40552580Y-3478971D01*
X40553545Y-3486305D01*
X40554875Y-3489811D01*
X40565171Y-3574613D01*
X40571321Y-3621321D01*
X40565171Y-3668032D01*
X40554875Y-3752830D01*
X40553545Y-3756334D01*
X40552580Y-3763671D01*
X40531057Y-3815631D01*
X40507899Y-3876695D01*
X40502561Y-3884428D01*
X40497635Y-3896321D01*
X40464952Y-3938913D01*
X40432644Y-3985721D01*
X40421377Y-3995702D01*
X40410230Y-4010230D01*
X40371005Y-4040328D01*
X40333485Y-4073568D01*
X40315133Y-4083199D01*
X40296321Y-4097635D01*
X40255086Y-4114714D01*
X40216181Y-4135134D01*
X40190519Y-4141459D01*
X40163671Y-4152580D01*
X40124455Y-4157742D01*
X40087560Y-4166837D01*
X40055380Y-4166837D01*
X40021321Y-4171321D01*
X39987262Y-4166837D01*
X39955082Y-4166837D01*
X39918186Y-4157742D01*
X39878971Y-4152580D01*
X39852124Y-4141459D01*
X39826460Y-4135134D01*
X39787550Y-4114712D01*
X39746321Y-4097635D01*
X39727510Y-4083201D01*
X39709156Y-4073568D01*
X39671629Y-4040322D01*
X39632412Y-4010230D01*
X39621266Y-3995704D01*
X39609997Y-3985721D01*
X39577679Y-3938900D01*
X39545007Y-3896321D01*
X39540082Y-3884432D01*
X39534742Y-3876695D01*
X39511572Y-3815602D01*
X39490062Y-3763671D01*
X39489096Y-3756338D01*
X39487766Y-3752830D01*
X39477457Y-3667934D01*
X39471321Y-3621321D01*
X39477457Y-3574711D01*
X39487766Y-3489811D01*
X39489096Y-3486301D01*
X39490062Y-3478971D01*
X39511568Y-3427050D01*
X39534742Y-3365946D01*
X39540083Y-3358207D01*
X39545007Y-3346321D01*
X39577672Y-3303750D01*
X39609997Y-3256920D01*
X39621269Y-3246933D01*
X39632412Y-3232412D01*
X39671620Y-3202326D01*
X39709156Y-3169073D01*
X39727514Y-3159437D01*
X39746321Y-3145007D01*
X39787541Y-3127933D01*
X39826460Y-3107507D01*
X39852128Y-3101180D01*
X39878971Y-3090062D01*
X39918183Y-3084899D01*
X39955082Y-3075805D01*
X39987262Y-3075805D01*
X40021321Y-3071321D01*
X40055380Y-3075805D01*
G37*
G36*
X42055380Y-3075805D02*
G01*
X42087560Y-3075805D01*
X42124457Y-3084899D01*
X42163671Y-3090062D01*
X42190514Y-3101180D01*
X42216181Y-3107507D01*
X42255095Y-3127931D01*
X42296321Y-3145007D01*
X42315129Y-3159439D01*
X42333485Y-3169073D01*
X42371013Y-3202320D01*
X42410230Y-3232412D01*
X42421375Y-3246936D01*
X42432644Y-3256920D01*
X42464959Y-3303737D01*
X42497635Y-3346321D01*
X42502560Y-3358211D01*
X42507899Y-3365946D01*
X42531061Y-3427021D01*
X42552580Y-3478971D01*
X42553545Y-3486305D01*
X42554875Y-3489811D01*
X42565171Y-3574613D01*
X42571321Y-3621321D01*
X42565171Y-3668032D01*
X42554875Y-3752830D01*
X42553545Y-3756334D01*
X42552580Y-3763671D01*
X42531057Y-3815631D01*
X42507899Y-3876695D01*
X42502561Y-3884428D01*
X42497635Y-3896321D01*
X42464952Y-3938913D01*
X42432644Y-3985721D01*
X42421377Y-3995702D01*
X42410230Y-4010230D01*
X42371005Y-4040328D01*
X42333485Y-4073568D01*
X42315133Y-4083199D01*
X42296321Y-4097635D01*
X42255086Y-4114714D01*
X42216181Y-4135134D01*
X42190519Y-4141459D01*
X42163671Y-4152580D01*
X42124455Y-4157742D01*
X42087560Y-4166837D01*
X42055380Y-4166837D01*
X42021321Y-4171321D01*
X41987262Y-4166837D01*
X41955082Y-4166837D01*
X41918186Y-4157742D01*
X41878971Y-4152580D01*
X41852124Y-4141459D01*
X41826460Y-4135134D01*
X41787550Y-4114712D01*
X41746321Y-4097635D01*
X41727510Y-4083201D01*
X41709156Y-4073568D01*
X41671629Y-4040322D01*
X41632412Y-4010230D01*
X41621266Y-3995704D01*
X41609997Y-3985721D01*
X41577679Y-3938900D01*
X41545007Y-3896321D01*
X41540082Y-3884432D01*
X41534742Y-3876695D01*
X41511572Y-3815602D01*
X41490062Y-3763671D01*
X41489096Y-3756338D01*
X41487766Y-3752830D01*
X41477457Y-3667934D01*
X41471321Y-3621321D01*
X41477457Y-3574711D01*
X41487766Y-3489811D01*
X41489096Y-3486301D01*
X41490062Y-3478971D01*
X41511568Y-3427050D01*
X41534742Y-3365946D01*
X41540083Y-3358207D01*
X41545007Y-3346321D01*
X41577672Y-3303750D01*
X41609997Y-3256920D01*
X41621269Y-3246933D01*
X41632412Y-3232412D01*
X41671620Y-3202326D01*
X41709156Y-3169073D01*
X41727514Y-3159437D01*
X41746321Y-3145007D01*
X41787541Y-3127933D01*
X41826460Y-3107507D01*
X41852128Y-3101180D01*
X41878971Y-3090062D01*
X41918183Y-3084899D01*
X41955082Y-3075805D01*
X41987262Y-3075805D01*
X42021321Y-3071321D01*
X42055380Y-3075805D01*
G37*
G36*
X44055380Y-3075805D02*
G01*
X44087560Y-3075805D01*
X44124457Y-3084899D01*
X44163671Y-3090062D01*
X44190514Y-3101180D01*
X44216181Y-3107507D01*
X44255095Y-3127931D01*
X44296321Y-3145007D01*
X44315129Y-3159439D01*
X44333485Y-3169073D01*
X44371013Y-3202320D01*
X44410230Y-3232412D01*
X44421375Y-3246936D01*
X44432644Y-3256920D01*
X44464959Y-3303737D01*
X44497635Y-3346321D01*
X44502560Y-3358211D01*
X44507899Y-3365946D01*
X44531061Y-3427021D01*
X44552580Y-3478971D01*
X44553545Y-3486305D01*
X44554875Y-3489811D01*
X44565171Y-3574613D01*
X44571321Y-3621321D01*
X44565171Y-3668032D01*
X44554875Y-3752830D01*
X44553545Y-3756334D01*
X44552580Y-3763671D01*
X44531057Y-3815631D01*
X44507899Y-3876695D01*
X44502561Y-3884428D01*
X44497635Y-3896321D01*
X44464952Y-3938913D01*
X44432644Y-3985721D01*
X44421377Y-3995702D01*
X44410230Y-4010230D01*
X44371005Y-4040328D01*
X44333485Y-4073568D01*
X44315133Y-4083199D01*
X44296321Y-4097635D01*
X44255086Y-4114714D01*
X44216181Y-4135134D01*
X44190519Y-4141459D01*
X44163671Y-4152580D01*
X44124455Y-4157742D01*
X44087560Y-4166837D01*
X44055380Y-4166837D01*
X44021321Y-4171321D01*
X43987262Y-4166837D01*
X43955082Y-4166837D01*
X43918186Y-4157742D01*
X43878971Y-4152580D01*
X43852124Y-4141459D01*
X43826460Y-4135134D01*
X43787550Y-4114712D01*
X43746321Y-4097635D01*
X43727510Y-4083201D01*
X43709156Y-4073568D01*
X43671629Y-4040322D01*
X43632412Y-4010230D01*
X43621266Y-3995704D01*
X43609997Y-3985721D01*
X43577679Y-3938900D01*
X43545007Y-3896321D01*
X43540082Y-3884432D01*
X43534742Y-3876695D01*
X43511572Y-3815602D01*
X43490062Y-3763671D01*
X43489096Y-3756338D01*
X43487766Y-3752830D01*
X43477457Y-3667934D01*
X43471321Y-3621321D01*
X43477457Y-3574711D01*
X43487766Y-3489811D01*
X43489096Y-3486301D01*
X43490062Y-3478971D01*
X43511568Y-3427050D01*
X43534742Y-3365946D01*
X43540083Y-3358207D01*
X43545007Y-3346321D01*
X43577672Y-3303750D01*
X43609997Y-3256920D01*
X43621269Y-3246933D01*
X43632412Y-3232412D01*
X43671620Y-3202326D01*
X43709156Y-3169073D01*
X43727514Y-3159437D01*
X43746321Y-3145007D01*
X43787541Y-3127933D01*
X43826460Y-3107507D01*
X43852128Y-3101180D01*
X43878971Y-3090062D01*
X43918183Y-3084899D01*
X43955082Y-3075805D01*
X43987262Y-3075805D01*
X44021321Y-3071321D01*
X44055380Y-3075805D01*
G37*
G36*
X37722696Y-1509432D02*
G01*
X37835735Y-1574695D01*
X37928031Y-1666991D01*
X37993294Y-1780030D01*
X38027076Y-1906109D01*
X38031354Y-1971372D01*
X38031354Y-3071372D01*
X38027076Y-3136635D01*
X37993294Y-3262714D01*
X37928031Y-3375753D01*
X37835735Y-3468049D01*
X37722696Y-3533312D01*
X37596617Y-3567094D01*
X37466091Y-3567094D01*
X37340012Y-3533312D01*
X37226973Y-3468049D01*
X37134677Y-3375753D01*
X37069414Y-3262714D01*
X37035632Y-3136635D01*
X37031354Y-3071372D01*
X37031354Y-1971372D01*
X37035632Y-1906109D01*
X37069414Y-1780030D01*
X37134677Y-1666991D01*
X37226973Y-1574695D01*
X37340012Y-1509432D01*
X37466091Y-1475650D01*
X37596617Y-1475650D01*
X37722696Y-1509432D01*
G37*
G36*
X46702630Y-1509432D02*
G01*
X46815669Y-1574695D01*
X46907965Y-1666991D01*
X46973228Y-1780030D01*
X47007010Y-1906109D01*
X47011288Y-1971372D01*
X47011288Y-3071372D01*
X47007010Y-3136635D01*
X46973228Y-3262714D01*
X46907965Y-3375753D01*
X46815669Y-3468049D01*
X46702630Y-3533312D01*
X46576551Y-3567094D01*
X46446025Y-3567094D01*
X46319946Y-3533312D01*
X46206907Y-3468049D01*
X46114611Y-3375753D01*
X46049348Y-3262714D01*
X46015566Y-3136635D01*
X46011288Y-3071372D01*
X46011288Y-1971372D01*
X46015566Y-1906109D01*
X46049348Y-1780030D01*
X46114611Y-1666991D01*
X46206907Y-1574695D01*
X46319946Y-1509432D01*
X46446025Y-1475650D01*
X46576551Y-1475650D01*
X46702630Y-1509432D01*
G37*
G36*
X54183967Y-1336026D02*
G01*
X54193110Y-1336026D01*
X54219456Y-1343085D01*
X54280887Y-1355305D01*
X54309882Y-1367315D01*
X54331797Y-1373187D01*
X54351442Y-1384529D01*
X54380437Y-1396539D01*
X54432520Y-1431340D01*
X54456140Y-1444977D01*
X54462605Y-1451442D01*
X54470040Y-1456410D01*
X54546231Y-1532601D01*
X54551198Y-1540035D01*
X54557665Y-1546502D01*
X54571304Y-1570125D01*
X54606102Y-1622204D01*
X54618110Y-1651196D01*
X54629455Y-1670845D01*
X54635328Y-1692763D01*
X54647336Y-1721754D01*
X54659554Y-1783179D01*
X54666616Y-1809532D01*
X54667509Y-1823169D01*
X54668673Y-1829017D01*
X54671007Y-1876530D01*
X54671321Y-1881321D01*
X54671321Y-2581321D01*
X54671006Y-2586114D01*
X54668673Y-2633624D01*
X54667509Y-2639471D01*
X54666616Y-2653110D01*
X54659554Y-2679465D01*
X54647336Y-2740887D01*
X54635328Y-2769875D01*
X54629455Y-2791797D01*
X54618109Y-2811448D01*
X54606102Y-2840437D01*
X54571308Y-2892509D01*
X54557665Y-2916140D01*
X54551196Y-2922608D01*
X54546231Y-2930040D01*
X54470040Y-3006231D01*
X54462608Y-3011196D01*
X54456140Y-3017665D01*
X54432509Y-3031308D01*
X54380437Y-3066102D01*
X54351448Y-3078109D01*
X54331797Y-3089455D01*
X54309875Y-3095328D01*
X54280887Y-3107336D01*
X54219462Y-3119554D01*
X54193110Y-3126616D01*
X54183966Y-3126616D01*
X54175199Y-3128360D01*
X54067443Y-3128360D01*
X54058676Y-3126616D01*
X54049532Y-3126616D01*
X54023180Y-3119555D01*
X53961754Y-3107336D01*
X53932763Y-3095328D01*
X53910845Y-3089455D01*
X53891196Y-3078110D01*
X53862204Y-3066102D01*
X53810125Y-3031304D01*
X53786502Y-3017665D01*
X53780035Y-3011198D01*
X53772601Y-3006231D01*
X53696410Y-2930040D01*
X53691442Y-2922605D01*
X53684977Y-2916140D01*
X53671340Y-2892520D01*
X53636539Y-2840437D01*
X53624529Y-2811442D01*
X53613187Y-2791797D01*
X53607315Y-2769882D01*
X53595305Y-2740887D01*
X53583083Y-2679450D01*
X53576026Y-2653110D01*
X53575132Y-2639478D01*
X53573968Y-2633624D01*
X53571634Y-2586107D01*
X53571321Y-2581321D01*
X53571321Y-1881321D01*
X53571634Y-1876537D01*
X53573968Y-1829017D01*
X53575132Y-1823161D01*
X53576026Y-1809532D01*
X53583083Y-1783194D01*
X53595305Y-1721754D01*
X53607315Y-1692756D01*
X53613187Y-1670845D01*
X53624527Y-1651202D01*
X53636539Y-1622204D01*
X53671344Y-1570114D01*
X53684977Y-1546502D01*
X53691440Y-1540038D01*
X53696410Y-1532601D01*
X53772601Y-1456410D01*
X53780038Y-1451440D01*
X53786502Y-1444977D01*
X53810114Y-1431344D01*
X53862204Y-1396539D01*
X53891202Y-1384527D01*
X53910845Y-1373187D01*
X53932756Y-1367315D01*
X53961754Y-1355305D01*
X54023186Y-1343085D01*
X54049532Y-1336026D01*
X54058675Y-1336026D01*
X54067443Y-1334282D01*
X54175199Y-1334282D01*
X54183967Y-1336026D01*
G37*
G36*
X48653096Y-1367478D02*
G01*
X48760483Y-1429478D01*
X48848164Y-1517159D01*
X48910164Y-1624546D01*
X48942257Y-1744321D01*
X48946321Y-1806321D01*
X48946321Y-2656321D01*
X48942257Y-2718321D01*
X48910164Y-2838096D01*
X48848164Y-2945483D01*
X48760483Y-3033164D01*
X48653096Y-3095164D01*
X48533321Y-3127257D01*
X48409321Y-3127257D01*
X48289546Y-3095164D01*
X48182159Y-3033164D01*
X48094478Y-2945483D01*
X48032478Y-2838096D01*
X48000385Y-2718321D01*
X47996321Y-2656321D01*
X47996321Y-1806321D01*
X48000385Y-1744321D01*
X48032478Y-1624546D01*
X48094478Y-1517159D01*
X48182159Y-1429478D01*
X48289546Y-1367478D01*
X48409321Y-1335385D01*
X48533321Y-1335385D01*
X48653096Y-1367478D01*
G37*
G36*
X58555480Y-1475805D02*
G01*
X58587660Y-1475805D01*
X58624557Y-1484899D01*
X58663771Y-1490062D01*
X58690614Y-1501180D01*
X58716281Y-1507507D01*
X58755195Y-1527931D01*
X58796421Y-1545007D01*
X58815229Y-1559439D01*
X58833585Y-1569073D01*
X58871113Y-1602320D01*
X58910330Y-1632412D01*
X58921475Y-1646936D01*
X58932744Y-1656920D01*
X58965059Y-1703737D01*
X58997735Y-1746321D01*
X59002660Y-1758211D01*
X59007999Y-1765946D01*
X59031161Y-1827021D01*
X59052680Y-1878971D01*
X59053645Y-1886305D01*
X59054975Y-1889811D01*
X59065271Y-1974613D01*
X59071421Y-2021321D01*
X59065271Y-2068032D01*
X59054975Y-2152830D01*
X59053645Y-2156334D01*
X59052680Y-2163671D01*
X59031157Y-2215631D01*
X59007999Y-2276695D01*
X59002661Y-2284428D01*
X58997735Y-2296321D01*
X58965052Y-2338913D01*
X58932744Y-2385721D01*
X58921477Y-2395702D01*
X58910330Y-2410230D01*
X58871105Y-2440328D01*
X58833585Y-2473568D01*
X58815233Y-2483199D01*
X58796421Y-2497635D01*
X58755186Y-2514714D01*
X58716281Y-2535134D01*
X58690619Y-2541459D01*
X58663771Y-2552580D01*
X58624555Y-2557742D01*
X58587660Y-2566837D01*
X58555480Y-2566837D01*
X58521421Y-2571321D01*
X58487362Y-2566837D01*
X58455182Y-2566837D01*
X58418286Y-2557742D01*
X58379071Y-2552580D01*
X58352224Y-2541459D01*
X58326560Y-2535134D01*
X58287650Y-2514712D01*
X58246421Y-2497635D01*
X58227610Y-2483201D01*
X58209256Y-2473568D01*
X58171729Y-2440322D01*
X58132512Y-2410230D01*
X58121366Y-2395704D01*
X58110097Y-2385721D01*
X58077779Y-2338900D01*
X58045107Y-2296321D01*
X58040182Y-2284432D01*
X58034842Y-2276695D01*
X58011672Y-2215602D01*
X57990162Y-2163671D01*
X57989196Y-2156338D01*
X57987866Y-2152830D01*
X57977557Y-2067934D01*
X57971421Y-2021321D01*
X57977557Y-1974711D01*
X57987866Y-1889811D01*
X57989196Y-1886301D01*
X57990162Y-1878971D01*
X58011668Y-1827050D01*
X58034842Y-1765946D01*
X58040183Y-1758207D01*
X58045107Y-1746321D01*
X58077772Y-1703750D01*
X58110097Y-1656920D01*
X58121369Y-1646933D01*
X58132512Y-1632412D01*
X58171720Y-1602326D01*
X58209256Y-1569073D01*
X58227614Y-1559437D01*
X58246421Y-1545007D01*
X58287641Y-1527933D01*
X58326560Y-1507507D01*
X58352228Y-1501180D01*
X58379071Y-1490062D01*
X58418283Y-1484899D01*
X58455182Y-1475805D01*
X58487362Y-1475805D01*
X58521421Y-1471321D01*
X58555480Y-1475805D01*
G37*
G36*
X64555480Y-1475805D02*
G01*
X64587660Y-1475805D01*
X64624557Y-1484899D01*
X64663771Y-1490062D01*
X64690614Y-1501180D01*
X64716281Y-1507507D01*
X64755195Y-1527931D01*
X64796421Y-1545007D01*
X64815229Y-1559439D01*
X64833585Y-1569073D01*
X64871113Y-1602320D01*
X64910330Y-1632412D01*
X64921475Y-1646936D01*
X64932744Y-1656920D01*
X64965059Y-1703737D01*
X64997735Y-1746321D01*
X65002660Y-1758211D01*
X65007999Y-1765946D01*
X65031161Y-1827021D01*
X65052680Y-1878971D01*
X65053645Y-1886305D01*
X65054975Y-1889811D01*
X65065271Y-1974613D01*
X65071421Y-2021321D01*
X65065271Y-2068032D01*
X65054975Y-2152830D01*
X65053645Y-2156334D01*
X65052680Y-2163671D01*
X65031157Y-2215631D01*
X65007999Y-2276695D01*
X65002661Y-2284428D01*
X64997735Y-2296321D01*
X64965052Y-2338913D01*
X64932744Y-2385721D01*
X64921477Y-2395702D01*
X64910330Y-2410230D01*
X64871105Y-2440328D01*
X64833585Y-2473568D01*
X64815233Y-2483199D01*
X64796421Y-2497635D01*
X64755186Y-2514714D01*
X64716281Y-2535134D01*
X64690619Y-2541459D01*
X64663771Y-2552580D01*
X64624555Y-2557742D01*
X64587660Y-2566837D01*
X64555480Y-2566837D01*
X64521421Y-2571321D01*
X64487362Y-2566837D01*
X64455182Y-2566837D01*
X64418286Y-2557742D01*
X64379071Y-2552580D01*
X64352224Y-2541459D01*
X64326560Y-2535134D01*
X64287650Y-2514712D01*
X64246421Y-2497635D01*
X64227610Y-2483201D01*
X64209256Y-2473568D01*
X64171729Y-2440322D01*
X64132512Y-2410230D01*
X64121366Y-2395704D01*
X64110097Y-2385721D01*
X64077779Y-2338900D01*
X64045107Y-2296321D01*
X64040182Y-2284432D01*
X64034842Y-2276695D01*
X64011672Y-2215602D01*
X63990162Y-2163671D01*
X63989196Y-2156338D01*
X63987866Y-2152830D01*
X63977557Y-2067934D01*
X63971421Y-2021321D01*
X63977557Y-1974711D01*
X63987866Y-1889811D01*
X63989196Y-1886301D01*
X63990162Y-1878971D01*
X64011668Y-1827050D01*
X64034842Y-1765946D01*
X64040183Y-1758207D01*
X64045107Y-1746321D01*
X64077772Y-1703750D01*
X64110097Y-1656920D01*
X64121369Y-1646933D01*
X64132512Y-1632412D01*
X64171720Y-1602326D01*
X64209256Y-1569073D01*
X64227614Y-1559437D01*
X64246421Y-1545007D01*
X64287641Y-1527933D01*
X64326560Y-1507507D01*
X64352228Y-1501180D01*
X64379071Y-1490062D01*
X64418283Y-1484899D01*
X64455182Y-1475805D01*
X64487362Y-1475805D01*
X64521421Y-1471321D01*
X64555480Y-1475805D01*
G37*
G36*
X40055380Y-1075805D02*
G01*
X40087560Y-1075805D01*
X40124457Y-1084899D01*
X40163671Y-1090062D01*
X40190514Y-1101180D01*
X40216181Y-1107507D01*
X40255095Y-1127931D01*
X40296321Y-1145007D01*
X40315129Y-1159439D01*
X40333485Y-1169073D01*
X40371013Y-1202320D01*
X40410230Y-1232412D01*
X40421375Y-1246936D01*
X40432644Y-1256920D01*
X40464959Y-1303737D01*
X40497635Y-1346321D01*
X40502560Y-1358211D01*
X40507899Y-1365946D01*
X40531061Y-1427021D01*
X40552580Y-1478971D01*
X40553545Y-1486305D01*
X40554875Y-1489811D01*
X40565171Y-1574613D01*
X40571321Y-1621321D01*
X40565171Y-1668032D01*
X40554875Y-1752830D01*
X40553545Y-1756334D01*
X40552580Y-1763671D01*
X40531057Y-1815631D01*
X40507899Y-1876695D01*
X40502561Y-1884428D01*
X40497635Y-1896321D01*
X40464952Y-1938913D01*
X40432644Y-1985721D01*
X40421377Y-1995702D01*
X40410230Y-2010230D01*
X40371005Y-2040328D01*
X40333485Y-2073568D01*
X40315133Y-2083199D01*
X40296321Y-2097635D01*
X40255086Y-2114714D01*
X40216181Y-2135134D01*
X40190519Y-2141459D01*
X40163671Y-2152580D01*
X40124455Y-2157742D01*
X40087560Y-2166837D01*
X40055380Y-2166837D01*
X40021321Y-2171321D01*
X39987262Y-2166837D01*
X39955082Y-2166837D01*
X39918186Y-2157742D01*
X39878971Y-2152580D01*
X39852124Y-2141459D01*
X39826460Y-2135134D01*
X39787550Y-2114712D01*
X39746321Y-2097635D01*
X39727510Y-2083201D01*
X39709156Y-2073568D01*
X39671629Y-2040322D01*
X39632412Y-2010230D01*
X39621266Y-1995704D01*
X39609997Y-1985721D01*
X39577679Y-1938900D01*
X39545007Y-1896321D01*
X39540082Y-1884432D01*
X39534742Y-1876695D01*
X39511572Y-1815602D01*
X39490062Y-1763671D01*
X39489096Y-1756338D01*
X39487766Y-1752830D01*
X39477457Y-1667934D01*
X39471321Y-1621321D01*
X39477457Y-1574711D01*
X39487766Y-1489811D01*
X39489096Y-1486301D01*
X39490062Y-1478971D01*
X39511568Y-1427050D01*
X39534742Y-1365946D01*
X39540083Y-1358207D01*
X39545007Y-1346321D01*
X39577672Y-1303750D01*
X39609997Y-1256920D01*
X39621269Y-1246933D01*
X39632412Y-1232412D01*
X39671620Y-1202326D01*
X39709156Y-1169073D01*
X39727514Y-1159437D01*
X39746321Y-1145007D01*
X39787541Y-1127933D01*
X39826460Y-1107507D01*
X39852128Y-1101180D01*
X39878971Y-1090062D01*
X39918183Y-1084899D01*
X39955082Y-1075805D01*
X39987262Y-1075805D01*
X40021321Y-1071321D01*
X40055380Y-1075805D01*
G37*
G36*
X42055380Y-1075805D02*
G01*
X42087560Y-1075805D01*
X42124457Y-1084899D01*
X42163671Y-1090062D01*
X42190514Y-1101180D01*
X42216181Y-1107507D01*
X42255095Y-1127931D01*
X42296321Y-1145007D01*
X42315129Y-1159439D01*
X42333485Y-1169073D01*
X42371013Y-1202320D01*
X42410230Y-1232412D01*
X42421375Y-1246936D01*
X42432644Y-1256920D01*
X42464959Y-1303737D01*
X42497635Y-1346321D01*
X42502560Y-1358211D01*
X42507899Y-1365946D01*
X42531061Y-1427021D01*
X42552580Y-1478971D01*
X42553545Y-1486305D01*
X42554875Y-1489811D01*
X42565171Y-1574613D01*
X42571321Y-1621321D01*
X42565171Y-1668032D01*
X42554875Y-1752830D01*
X42553545Y-1756334D01*
X42552580Y-1763671D01*
X42531057Y-1815631D01*
X42507899Y-1876695D01*
X42502561Y-1884428D01*
X42497635Y-1896321D01*
X42464952Y-1938913D01*
X42432644Y-1985721D01*
X42421377Y-1995702D01*
X42410230Y-2010230D01*
X42371005Y-2040328D01*
X42333485Y-2073568D01*
X42315133Y-2083199D01*
X42296321Y-2097635D01*
X42255086Y-2114714D01*
X42216181Y-2135134D01*
X42190519Y-2141459D01*
X42163671Y-2152580D01*
X42124455Y-2157742D01*
X42087560Y-2166837D01*
X42055380Y-2166837D01*
X42021321Y-2171321D01*
X41987262Y-2166837D01*
X41955082Y-2166837D01*
X41918186Y-2157742D01*
X41878971Y-2152580D01*
X41852124Y-2141459D01*
X41826460Y-2135134D01*
X41787550Y-2114712D01*
X41746321Y-2097635D01*
X41727510Y-2083201D01*
X41709156Y-2073568D01*
X41671629Y-2040322D01*
X41632412Y-2010230D01*
X41621266Y-1995704D01*
X41609997Y-1985721D01*
X41577679Y-1938900D01*
X41545007Y-1896321D01*
X41540082Y-1884432D01*
X41534742Y-1876695D01*
X41511572Y-1815602D01*
X41490062Y-1763671D01*
X41489096Y-1756338D01*
X41487766Y-1752830D01*
X41477457Y-1667934D01*
X41471321Y-1621321D01*
X41477457Y-1574711D01*
X41487766Y-1489811D01*
X41489096Y-1486301D01*
X41490062Y-1478971D01*
X41511568Y-1427050D01*
X41534742Y-1365946D01*
X41540083Y-1358207D01*
X41545007Y-1346321D01*
X41577672Y-1303750D01*
X41609997Y-1256920D01*
X41621269Y-1246933D01*
X41632412Y-1232412D01*
X41671620Y-1202326D01*
X41709156Y-1169073D01*
X41727514Y-1159437D01*
X41746321Y-1145007D01*
X41787541Y-1127933D01*
X41826460Y-1107507D01*
X41852128Y-1101180D01*
X41878971Y-1090062D01*
X41918183Y-1084899D01*
X41955082Y-1075805D01*
X41987262Y-1075805D01*
X42021321Y-1071321D01*
X42055380Y-1075805D01*
G37*
G36*
X44055380Y-1075805D02*
G01*
X44087560Y-1075805D01*
X44124457Y-1084899D01*
X44163671Y-1090062D01*
X44190514Y-1101180D01*
X44216181Y-1107507D01*
X44255095Y-1127931D01*
X44296321Y-1145007D01*
X44315129Y-1159439D01*
X44333485Y-1169073D01*
X44371013Y-1202320D01*
X44410230Y-1232412D01*
X44421375Y-1246936D01*
X44432644Y-1256920D01*
X44464959Y-1303737D01*
X44497635Y-1346321D01*
X44502560Y-1358211D01*
X44507899Y-1365946D01*
X44531061Y-1427021D01*
X44552580Y-1478971D01*
X44553545Y-1486305D01*
X44554875Y-1489811D01*
X44565171Y-1574613D01*
X44571321Y-1621321D01*
X44565171Y-1668032D01*
X44554875Y-1752830D01*
X44553545Y-1756334D01*
X44552580Y-1763671D01*
X44531057Y-1815631D01*
X44507899Y-1876695D01*
X44502561Y-1884428D01*
X44497635Y-1896321D01*
X44464952Y-1938913D01*
X44432644Y-1985721D01*
X44421377Y-1995702D01*
X44410230Y-2010230D01*
X44371005Y-2040328D01*
X44333485Y-2073568D01*
X44315133Y-2083199D01*
X44296321Y-2097635D01*
X44255086Y-2114714D01*
X44216181Y-2135134D01*
X44190519Y-2141459D01*
X44163671Y-2152580D01*
X44124455Y-2157742D01*
X44087560Y-2166837D01*
X44055380Y-2166837D01*
X44021321Y-2171321D01*
X43987262Y-2166837D01*
X43955082Y-2166837D01*
X43918186Y-2157742D01*
X43878971Y-2152580D01*
X43852124Y-2141459D01*
X43826460Y-2135134D01*
X43787550Y-2114712D01*
X43746321Y-2097635D01*
X43727510Y-2083201D01*
X43709156Y-2073568D01*
X43671629Y-2040322D01*
X43632412Y-2010230D01*
X43621266Y-1995704D01*
X43609997Y-1985721D01*
X43577679Y-1938900D01*
X43545007Y-1896321D01*
X43540082Y-1884432D01*
X43534742Y-1876695D01*
X43511572Y-1815602D01*
X43490062Y-1763671D01*
X43489096Y-1756338D01*
X43487766Y-1752830D01*
X43477457Y-1667934D01*
X43471321Y-1621321D01*
X43477457Y-1574711D01*
X43487766Y-1489811D01*
X43489096Y-1486301D01*
X43490062Y-1478971D01*
X43511568Y-1427050D01*
X43534742Y-1365946D01*
X43540083Y-1358207D01*
X43545007Y-1346321D01*
X43577672Y-1303750D01*
X43609997Y-1256920D01*
X43621269Y-1246933D01*
X43632412Y-1232412D01*
X43671620Y-1202326D01*
X43709156Y-1169073D01*
X43727514Y-1159437D01*
X43746321Y-1145007D01*
X43787541Y-1127933D01*
X43826460Y-1107507D01*
X43852128Y-1101180D01*
X43878971Y-1090062D01*
X43918183Y-1084899D01*
X43955082Y-1075805D01*
X43987262Y-1075805D01*
X44021321Y-1071321D01*
X44055380Y-1075805D01*
G37*
M02*
