%TF.GenerationSoftware,KiCad,Pcbnew,8.0.5*%
%TF.CreationDate,2024-09-24T22:25:09+12:00*%
%TF.ProjectId,USB Cable Tester,55534220-4361-4626-9c65-205465737465,rev?*%
%TF.SameCoordinates,Original*%
%TF.FileFunction,Paste,Top*%
%TF.FilePolarity,Positive*%
%FSLAX46Y46*%
G04 Gerber Fmt 4.6, Leading zero omitted, Abs format (unit mm)*
G04 Created by KiCad (PCBNEW 8.0.5) date 2024-09-24 22:25:09*
%MOMM*%
%LPD*%
G01*
G04 APERTURE LIST*
G04 Aperture macros list*
%AMRoundRect*
0 Rectangle with rounded corners*
0 $1 Rounding radius*
0 $2 $3 $4 $5 $6 $7 $8 $9 X,Y pos of 4 corners*
0 Add a 4 corners polygon primitive as box body*
4,1,4,$2,$3,$4,$5,$6,$7,$8,$9,$2,$3,0*
0 Add four circle primitives for the rounded corners*
1,1,$1+$1,$2,$3*
1,1,$1+$1,$4,$5*
1,1,$1+$1,$6,$7*
1,1,$1+$1,$8,$9*
0 Add four rect primitives between the rounded corners*
20,1,$1+$1,$2,$3,$4,$5,0*
20,1,$1+$1,$4,$5,$6,$7,0*
20,1,$1+$1,$6,$7,$8,$9,0*
20,1,$1+$1,$8,$9,$2,$3,0*%
%AMFreePoly0*
4,1,20,1.085355,0.835355,1.100000,0.800000,1.100000,-0.800000,1.085355,-0.835355,1.050000,-0.850000,-0.800000,-0.850000,-0.835355,-0.835355,-0.850000,-0.800000,-0.850000,-0.650000,-0.835355,-0.614645,-0.600000,-0.379290,-0.600000,-0.026033,-1.078673,0.309038,-1.099239,0.341311,-1.100000,0.350000,-1.100000,0.800000,-1.085355,0.835355,-1.050000,0.850000,1.050000,0.850000,1.085355,0.835355,
1.085355,0.835355,$1*%
%AMFreePoly1*
4,1,20,1.085355,0.835355,1.100000,0.800000,1.100000,0.350000,1.085355,0.314645,1.078673,0.309038,0.600000,-0.026033,0.600000,-0.379290,0.835355,-0.614645,0.850000,-0.650000,0.850000,-0.800000,0.835355,-0.835355,0.800000,-0.850000,-1.050000,-0.850000,-1.085355,-0.835355,-1.100000,-0.800000,-1.100000,0.800000,-1.085355,0.835355,-1.050000,0.850000,1.050000,0.850000,1.085355,0.835355,
1.085355,0.835355,$1*%
G04 Aperture macros list end*
%ADD10RoundRect,0.160000X-0.160000X-0.210000X0.160000X-0.210000X0.160000X0.210000X-0.160000X0.210000X0*%
%ADD11RoundRect,0.525000X3.525000X0.525000X-3.525000X0.525000X-3.525000X-0.525000X3.525000X-0.525000X0*%
%ADD12RoundRect,0.050000X0.800000X1.000000X-0.800000X1.000000X-0.800000X-1.000000X0.800000X-1.000000X0*%
%ADD13RoundRect,0.050000X0.150000X0.762001X-0.150000X0.762001X-0.150000X-0.762001X0.150000X-0.762001X0*%
%ADD14RoundRect,0.165000X0.195000X-0.165000X0.195000X0.165000X-0.195000X0.165000X-0.195000X-0.165000X0*%
%ADD15RoundRect,0.137500X-0.137500X0.212500X-0.137500X-0.212500X0.137500X-0.212500X0.137500X0.212500X0*%
%ADD16RoundRect,0.165000X0.165000X0.195000X-0.165000X0.195000X-0.165000X-0.195000X0.165000X-0.195000X0*%
%ADD17RoundRect,0.268750X0.481250X-0.268750X0.481250X0.268750X-0.481250X0.268750X-0.481250X-0.268750X0*%
%ADD18RoundRect,0.165000X-0.195000X0.165000X-0.195000X-0.165000X0.195000X-0.165000X0.195000X0.165000X0*%
%ADD19RoundRect,0.137500X-0.212500X-0.137500X0.212500X-0.137500X0.212500X0.137500X-0.212500X0.137500X0*%
%ADD20RoundRect,0.268750X-0.481250X0.268750X-0.481250X-0.268750X0.481250X-0.268750X0.481250X0.268750X0*%
%ADD21RoundRect,0.400000X-0.450000X-0.400000X0.450000X-0.400000X0.450000X0.400000X-0.450000X0.400000X0*%
%ADD22RoundRect,0.050000X-0.350000X-0.800000X0.350000X-0.800000X0.350000X0.800000X-0.350000X0.800000X0*%
%ADD23RoundRect,0.775000X-1.775000X0.775000X-1.775000X-0.775000X1.775000X-0.775000X1.775000X0.775000X0*%
%ADD24RoundRect,0.775000X2.275000X0.775000X-2.275000X0.775000X-2.275000X-0.775000X2.275000X-0.775000X0*%
%ADD25RoundRect,0.050000X0.140005X0.450000X-0.140005X0.450000X-0.140005X-0.450000X0.140005X-0.450000X0*%
%ADD26FreePoly0,180.000000*%
%ADD27RoundRect,0.050000X0.950000X0.950000X-0.950000X0.950000X-0.950000X-0.950000X0.950000X-0.950000X0*%
%ADD28FreePoly1,180.000000*%
%ADD29RoundRect,0.050000X0.200000X0.675000X-0.200000X0.675000X-0.200000X-0.675000X0.200000X-0.675000X0*%
%ADD30RoundRect,0.270000X-0.405000X-0.655000X0.405000X-0.655000X0.405000X0.655000X-0.405000X0.655000X0*%
%ADD31RoundRect,0.165000X-0.165000X-0.195000X0.165000X-0.195000X0.165000X0.195000X-0.165000X0.195000X0*%
%ADD32RoundRect,0.160000X-0.210000X0.160000X-0.210000X-0.160000X0.210000X-0.160000X0.210000X0.160000X0*%
%ADD33RoundRect,0.160000X0.210000X-0.160000X0.210000X0.160000X-0.210000X0.160000X-0.210000X-0.160000X0*%
%ADD34RoundRect,0.160000X0.160000X0.210000X-0.160000X0.210000X-0.160000X-0.210000X0.160000X-0.210000X0*%
%ADD35RoundRect,0.268750X-0.268750X-0.481250X0.268750X-0.481250X0.268750X0.481250X-0.268750X0.481250X0*%
%ADD36RoundRect,0.775000X-2.275000X-0.775000X2.275000X-0.775000X2.275000X0.775000X-2.275000X0.775000X0*%
%ADD37RoundRect,0.050000X-0.140005X-0.450000X0.140005X-0.450000X0.140005X0.450000X-0.140005X0.450000X0*%
G04 APERTURE END LIST*
D10*
%TO.C,R29*%
X41610921Y-25736821D03*
X40590921Y-25736821D03*
%TD*%
D11*
%TO.C,J5*%
X61521421Y-2021321D03*
D12*
X55771357Y-7461377D03*
X67271485Y-7461377D03*
D13*
X58571459Y-8811390D03*
X59421345Y-8811390D03*
X60021294Y-8811390D03*
X60621497Y-8811390D03*
X61221446Y-8811390D03*
X61821396Y-8811390D03*
X62421345Y-8811390D03*
X63021294Y-8811390D03*
X63621497Y-8811390D03*
X64471383Y-8811390D03*
%TD*%
D14*
%TO.C,C9*%
X40966621Y-27991321D03*
X40966621Y-28951321D03*
%TD*%
D15*
%TO.C,D28*%
X52226521Y-8616421D03*
X52226521Y-6516421D03*
%TD*%
D16*
%TO.C,C18*%
X56458721Y-35831821D03*
X57418721Y-35831821D03*
%TD*%
D17*
%TO.C,D48*%
X17021321Y-20583821D03*
X17021321Y-22458821D03*
%TD*%
D15*
%TO.C,D1*%
X41014521Y-12616821D03*
X41014521Y-10516821D03*
%TD*%
D18*
%TO.C,C7*%
X70821721Y-40504321D03*
X70821721Y-39544321D03*
%TD*%
D19*
%TO.C,D29*%
X45816621Y-14416321D03*
X43716621Y-14416321D03*
%TD*%
D20*
%TO.C,D46*%
X19521321Y-25958821D03*
X19521321Y-24083821D03*
%TD*%
D21*
%TO.C,J1*%
X54231270Y-42296302D03*
X54231270Y-39096404D03*
X38811372Y-42296302D03*
X38811372Y-39096404D03*
D22*
X42521321Y-34346340D03*
X44521321Y-34346340D03*
X46521321Y-34346340D03*
X48521321Y-34346340D03*
X50521321Y-34346340D03*
X49521321Y-34346340D03*
X47521321Y-34346340D03*
X45521321Y-34346340D03*
X43521321Y-34346340D03*
%TD*%
D10*
%TO.C,R25*%
X38397821Y-26731021D03*
X37377821Y-26731021D03*
%TD*%
D14*
%TO.C,C17*%
X69307621Y-37152221D03*
X69307621Y-38112221D03*
%TD*%
D23*
%TO.C,U1*%
X63221321Y-36021321D03*
X63221321Y-12021321D03*
%TD*%
D24*
%TO.C,J4*%
X42021321Y-2621321D03*
D25*
X39271512Y-8721270D03*
X39771385Y-8721270D03*
X40271257Y-8721270D03*
X40771385Y-8721270D03*
X41271257Y-8721270D03*
X41771385Y-8721270D03*
X42271257Y-8721270D03*
X42771385Y-8721270D03*
X43271257Y-8721270D03*
X43771385Y-8721270D03*
X44271257Y-8721270D03*
X44771385Y-8721270D03*
%TD*%
D10*
%TO.C,R28*%
X38347421Y-31131321D03*
X37327421Y-31131321D03*
%TD*%
D20*
%TO.C,D50*%
X14521321Y-25958821D03*
X14521321Y-24083821D03*
%TD*%
D14*
%TO.C,C21*%
X51857821Y-29551721D03*
X51857821Y-30511721D03*
%TD*%
D10*
%TO.C,R22*%
X38136221Y-24431421D03*
X37116221Y-24431421D03*
%TD*%
%TO.C,R26*%
X38343021Y-27858521D03*
X37323021Y-27858521D03*
%TD*%
D26*
%TO.C,J3*%
X48196321Y-4781321D03*
D27*
X50096321Y-2231321D03*
X52496321Y-2231321D03*
D28*
X54396321Y-4781321D03*
D29*
X49996321Y-4906321D03*
X50646321Y-4906321D03*
X51296321Y-4906321D03*
X51946321Y-4906321D03*
X52596321Y-4906321D03*
%TD*%
D10*
%TO.C,R37*%
X38159521Y-19567221D03*
X37139521Y-19567221D03*
%TD*%
D15*
%TO.C,D21*%
X52476621Y-13694421D03*
X52476621Y-11594421D03*
%TD*%
%TO.C,D6*%
X47826421Y-8771321D03*
X47826421Y-6671321D03*
%TD*%
D19*
%TO.C,D15*%
X49914821Y-10754421D03*
X47814821Y-10754421D03*
%TD*%
D10*
%TO.C,R30*%
X38135721Y-20667221D03*
X37115721Y-20667221D03*
%TD*%
D30*
%TO.C,F1*%
X50346621Y-13124621D03*
X47546621Y-13124621D03*
%TD*%
D17*
%TO.C,D43*%
X32021321Y-24083821D03*
X32021321Y-25958821D03*
%TD*%
D10*
%TO.C,R36*%
X38408221Y-25630521D03*
X37388221Y-25630521D03*
%TD*%
D31*
%TO.C,C16*%
X68825921Y-35843721D03*
X67865921Y-35843721D03*
%TD*%
D20*
%TO.C,D47*%
X17021321Y-25958821D03*
X17021321Y-24083821D03*
%TD*%
D32*
%TO.C,R32*%
X39551021Y-25322721D03*
X39551021Y-24302721D03*
%TD*%
D10*
%TO.C,R24*%
X38357721Y-30030821D03*
X37337721Y-30030821D03*
%TD*%
D17*
%TO.C,D49*%
X14521321Y-20583821D03*
X14521321Y-22458821D03*
%TD*%
D18*
%TO.C,C13*%
X69601321Y-40968721D03*
X69601321Y-40008721D03*
%TD*%
D14*
%TO.C,C8*%
X68381321Y-40373521D03*
X68381321Y-41333521D03*
%TD*%
D31*
%TO.C,C14*%
X68117121Y-37294721D03*
X67157121Y-37294721D03*
%TD*%
D20*
%TO.C,D51*%
X12021321Y-25958821D03*
X12021321Y-24083821D03*
%TD*%
D19*
%TO.C,D19*%
X71614521Y-11720821D03*
X69514521Y-11720821D03*
%TD*%
D15*
%TO.C,D25*%
X43214521Y-12616321D03*
X43214521Y-10516321D03*
%TD*%
D10*
%TO.C,R31*%
X38135721Y-21767221D03*
X37115721Y-21767221D03*
%TD*%
D17*
%TO.C,D40*%
X3521321Y-24083821D03*
X3521321Y-25958821D03*
%TD*%
D18*
%TO.C,C10*%
X50327821Y-26416821D03*
X50327821Y-25456821D03*
%TD*%
D32*
%TO.C,R33*%
X39501921Y-19752521D03*
X39501921Y-18732521D03*
%TD*%
D15*
%TO.C,D9*%
X71497521Y-9920321D03*
X71497521Y-7820321D03*
%TD*%
%TO.C,D7*%
X45416521Y-12616321D03*
X45416521Y-10516321D03*
%TD*%
D16*
%TO.C,C15*%
X39428221Y-30215621D03*
X40388221Y-30215621D03*
%TD*%
D33*
%TO.C,R35*%
X39547821Y-20937421D03*
X39547821Y-21957421D03*
%TD*%
D34*
%TO.C,R1*%
X47766921Y-17234621D03*
X48786921Y-17234621D03*
%TD*%
D17*
%TO.C,D24*%
X34621321Y-24083821D03*
X34621321Y-25958821D03*
%TD*%
%TO.C,D44*%
X29521321Y-24083821D03*
X29521321Y-25958821D03*
%TD*%
D15*
%TO.C,D5*%
X50026421Y-8954421D03*
X50026421Y-6854421D03*
%TD*%
%TO.C,D20*%
X54676621Y-13668321D03*
X54676621Y-11568321D03*
%TD*%
D10*
%TO.C,R23*%
X40428421Y-26836721D03*
X39408421Y-26836721D03*
%TD*%
D14*
%TO.C,C19*%
X42187121Y-26986421D03*
X42187121Y-27946421D03*
%TD*%
D15*
%TO.C,D26*%
X69297021Y-9900421D03*
X69297021Y-7800421D03*
%TD*%
D14*
%TO.C,C11*%
X42203121Y-29463521D03*
X42203121Y-30423521D03*
%TD*%
D35*
%TO.C,D2*%
X50075521Y-15539621D03*
X48200521Y-15539621D03*
%TD*%
D10*
%TO.C,R34*%
X38135721Y-18467221D03*
X37115721Y-18467221D03*
%TD*%
D17*
%TO.C,D42*%
X6521321Y-24083821D03*
X6521321Y-25958821D03*
%TD*%
D19*
%TO.C,D22*%
X46568021Y-16616321D03*
X44468021Y-16616321D03*
%TD*%
D17*
%TO.C,D41*%
X9021321Y-24083821D03*
X9021321Y-25958821D03*
%TD*%
%TO.C,D52*%
X12021321Y-20583821D03*
X12021321Y-22458821D03*
%TD*%
D18*
%TO.C,C12*%
X56861121Y-38004821D03*
X56861121Y-37044821D03*
%TD*%
D10*
%TO.C,R27*%
X38536621Y-28930821D03*
X37516621Y-28930821D03*
%TD*%
D18*
%TO.C,C6*%
X70867421Y-38383921D03*
X70867421Y-37423921D03*
%TD*%
D14*
%TO.C,C20*%
X50680921Y-27576721D03*
X50680921Y-28536721D03*
%TD*%
D17*
%TO.C,D39*%
X24521321Y-24083821D03*
X24521321Y-25958821D03*
%TD*%
D15*
%TO.C,D12*%
X38814521Y-12616321D03*
X38814521Y-10516321D03*
%TD*%
D36*
%TO.C,J2*%
X62621321Y-45421321D03*
D37*
X65371130Y-39321372D03*
X64871257Y-39321372D03*
X64371385Y-39321372D03*
X63871257Y-39321372D03*
X63371385Y-39321372D03*
X62871257Y-39321372D03*
X62371385Y-39321372D03*
X61871257Y-39321372D03*
X61371385Y-39321372D03*
X60871257Y-39321372D03*
X60371385Y-39321372D03*
X59871257Y-39321372D03*
%TD*%
D17*
%TO.C,D31*%
X27021321Y-24083821D03*
X27021321Y-25958821D03*
%TD*%
D19*
%TO.C,D17*%
X40879121Y-14416821D03*
X38779121Y-14416821D03*
%TD*%
D17*
%TO.C,D45*%
X19521321Y-20583821D03*
X19521321Y-22458821D03*
%TD*%
M02*
