M48
; DRILL file {KiCad 8.0.5} date 2024-09-24T22:25:09+1200
; FORMAT={-:-/ absolute / inch / decimal}
; #@! TF.CreationDate,2024-09-24T22:25:09+12:00
; #@! TF.GenerationSoftware,Kicad,Pcbnew,8.0.5
; #@! TF.FileFunction,Plated,1,2,PTH
FMAT,2
INCH
; #@! TA.AperFunction,Plated,PTH,ViaDrill
T1C0.0118
; #@! TA.AperFunction,Plated,PTH,ComponentDrill
T2C0.0157
; #@! TA.AperFunction,Plated,PTH,ComponentDrill
T3C0.0197
; #@! TA.AperFunction,Plated,PTH,ComponentDrill
T4C0.0197
; #@! TA.AperFunction,Plated,PTH,ComponentDrill
T5C0.0236
; #@! TA.AperFunction,Plated,PTH,ComponentDrill
T6C0.0240
; #@! TA.AperFunction,Plated,PTH,ComponentDrill
T7C0.1161
%
G90
G05
T1
X0.6105Y-0.804
X0.7296Y-1.0439
X0.785Y-0.7449
X0.8273Y-0.8269
X0.9006Y-1.0212
X0.9931Y-0.994
X1.0227Y-1.0389
X1.0727Y-1.0711
X1.0953Y-1.1583
X1.1641Y-0.9822
X1.2227Y-1.0439
X1.2442Y-1.0559
X1.2963Y-1.0017
X1.3237Y-0.9787
X1.3958Y-1.1289
X1.4228Y-0.9178
X1.4243Y-1.15
X1.4449Y-1.2323
X1.4536Y-1.3709
X1.5127Y-1.2843
X1.5287Y-1.5394
X1.5323Y-1.6652
X1.5355Y-1.0367
X1.556Y-0.9064
X1.5599Y-1.1426
X1.5667Y-0.8027
X1.5756Y-0.4339
X1.5866Y-0.9646
X1.6124Y-1.1899
X1.6233Y-0.3135
X1.6299Y-1.2441
X1.6372Y-1.1042
X1.6591Y-0.3966
X1.6623Y-0.556
X1.6737Y-1.2641
X1.6741Y-1.3522
X1.6842Y-1.1182
X1.7134Y-1.3522
X1.7155Y-1.3095
X1.7331Y-0.3799
X1.752Y-1.3543
X1.7523Y-1.1306
X1.7607Y-1.1032
X1.7725Y-0.7489
X1.7922Y-1.3522
X1.8025Y-1.3095
X1.8315Y-1.3522
X1.8369Y-0.3432
X1.8394Y-0.4457
X1.8473Y-0.5914
X1.8866Y-1.2805
X1.8867Y-1.241
X1.9025Y-0.294
X1.9055Y-0.1744
X1.9103Y-1.3522
X1.9107Y-0.3119
X1.912Y-0.3869
X1.9282Y-0.3029
X1.9382Y-1.1319
X1.9457Y-1.2528
X1.947Y-1.3949
X1.9497Y-1.3522
X1.9542Y-1.1508
X1.9696Y-0.2422
X1.9724Y-0.0878
X1.989Y-1.3522
X1.9949Y-0.2345
X2.0147Y-1.1629
X2.0182Y-1.0764
X2.0481Y-0.493
X2.065Y-1.1973
X2.0669Y-0.0878
X2.0875Y-0.5717
X2.1071Y-1.0638
X2.1351Y-1.5392
X2.1351Y-1.6652
X2.1401Y-0.1867
X2.1623Y-1.1842
X2.1957Y-0.2938
X2.2047Y-1.4764
X2.2056Y-0.5039
X2.2504Y-1.5414
X2.2854Y-1.4256
X2.29Y-1.3767
X2.3197Y-0.6229
X2.3867Y-0.3469
X2.3873Y-1.518
X2.3908Y-1.3544
X2.4083Y-1.3236
X2.4103Y-0.3469
X2.4339Y-0.3469
X2.4556Y-1.5717
X2.4575Y-0.3465
X2.4607Y-1.5136
X2.4811Y-0.3465
X2.489Y-0.4733
X2.489Y-1.4182
X2.4967Y-1.5036
X2.5048Y-0.3469
X2.5293Y-1.5181
X2.5315Y-1.4967
X2.5382Y-0.3469
X2.6496Y-1.4086
X2.6509Y-0.29
X2.6578Y-1.5285
X2.7092Y-1.5491
X2.7371Y-1.4378
X2.7567Y-1.5166
X2.8228Y-1.626
X2.8749Y-0.4142
T2
X1.5441Y-0.2957
X1.5599Y-0.2682
X1.5914Y-0.2682
X1.6071Y-0.2957
X1.6229Y-0.2682
X1.6386Y-0.2957
X1.6701Y-0.2957
X1.6859Y-0.2682
X1.7016Y-0.2957
X1.7174Y-0.2682
X1.7489Y-0.2682
X1.7646Y-0.2957
X2.3552Y-1.5957
X2.3709Y-1.6233
X2.4024Y-1.6233
X2.4182Y-1.5957
X2.4339Y-1.6233
X2.4497Y-1.5957
X2.4812Y-1.5957
X2.4969Y-1.6233
X2.5126Y-1.5957
X2.5284Y-1.6233
X2.5599Y-1.6233
X2.5756Y-1.5957
T3
X1.5756Y-0.0638
X1.5756Y-0.1426
X1.6544Y-0.0638
X1.6544Y-0.1426
X1.7331Y-0.0638
X1.7331Y-0.1426
X2.304Y-0.0796
X2.3867Y-1.7489
X2.3867Y-1.8276
X2.4654Y-1.7489
X2.4654Y-1.8276
X2.5402Y-0.0796
X2.5441Y-1.7489
X2.5441Y-1.8276
X2.7174Y-0.1189
X2.7174Y-1.7725
X2.7404Y-0.0633
X2.7404Y-0.1746
X2.7404Y-1.7168
X2.7404Y-1.8282
X2.7961Y-0.0402
X2.7961Y-0.1977
X2.7961Y-1.6938
X2.7961Y-1.8512
X2.8518Y-0.0633
X2.8518Y-0.1746
X2.8518Y-1.7168
X2.8518Y-1.8282
X2.8749Y-0.1189
X2.8749Y-1.7725
T7
X2.7961Y-0.1189
X2.7961Y-1.7725
T3
G00X1.9083Y-0.1016
M15
G01X1.9083Y-0.0741
M16
G05
G00X2.1308Y-0.1016
M15
G01X2.1308Y-0.0741
M16
G05
T4
G00X1.4776Y-0.1111
M15
G01X1.4776Y-0.0875
M16
G05
G00X1.4918Y-0.2839
M15
G01X1.4918Y-0.2603
M16
G05
G00X1.817Y-0.2839
M15
G01X1.817Y-0.2603
M16
G05
G00X1.8312Y-0.1111
M15
G01X1.8312Y-0.0875
M16
G05
G00X2.2886Y-1.7804
M15
G01X2.2886Y-1.804
M16
G05
G00X2.3028Y-1.6075
M15
G01X2.3028Y-1.6312
M16
G05
G00X2.628Y-1.6075
M15
G01X2.628Y-1.6312
M16
G05
G00X2.6422Y-1.7804
M15
G01X2.6422Y-1.804
M16
G05
T5
G00X2.2245Y-0.1469
M15
G01X2.2245Y-0.1075
M16
G05
G00X2.6197Y-0.1469
M15
G01X2.6197Y-0.1075
M16
G05
T6
G00X1.5166Y-1.3465
M15
G01X1.5166Y-1.4209
M16
G05
G00X2.1465Y-1.3465
M15
G01X2.1465Y-1.4209
M16
G05
M30
