%TF.GenerationSoftware,KiCad,Pcbnew,8.0.3*%
%TF.CreationDate,2024-07-18T08:33:45+12:00*%
%TF.ProjectId,Tea Cozy Hotplate,54656120-436f-47a7-9920-486f74706c61,rev?*%
%TF.SameCoordinates,Original*%
%TF.FileFunction,Paste,Top*%
%TF.FilePolarity,Positive*%
%FSLAX46Y46*%
G04 Gerber Fmt 4.6, Leading zero omitted, Abs format (unit mm)*
G04 Created by KiCad (PCBNEW 8.0.3) date 2024-07-18 08:33:45*
%MOMM*%
%LPD*%
G01*
G04 APERTURE LIST*
G04 Aperture macros list*
%AMRoundRect*
0 Rectangle with rounded corners*
0 $1 Rounding radius*
0 $2 $3 $4 $5 $6 $7 $8 $9 X,Y pos of 4 corners*
0 Add a 4 corners polygon primitive as box body*
4,1,4,$2,$3,$4,$5,$6,$7,$8,$9,$2,$3,0*
0 Add four circle primitives for the rounded corners*
1,1,$1+$1,$2,$3*
1,1,$1+$1,$4,$5*
1,1,$1+$1,$6,$7*
1,1,$1+$1,$8,$9*
0 Add four rect primitives between the rounded corners*
20,1,$1+$1,$2,$3,$4,$5,0*
20,1,$1+$1,$4,$5,$6,$7,0*
20,1,$1+$1,$6,$7,$8,$9,0*
20,1,$1+$1,$8,$9,$2,$3,0*%
G04 Aperture macros list end*
%ADD10RoundRect,0.160000X0.160000X0.210000X-0.160000X0.210000X-0.160000X-0.210000X0.160000X-0.210000X0*%
%ADD11RoundRect,0.050000X0.400000X0.325006X-0.400000X0.325006X-0.400000X-0.325006X0.400000X-0.325006X0*%
%ADD12RoundRect,0.225000X0.225000X0.300000X-0.225000X0.300000X-0.225000X-0.300000X0.225000X-0.300000X0*%
%ADD13RoundRect,0.165000X-0.685000X0.385000X-0.685000X-0.385000X0.685000X-0.385000X0.685000X0.385000X0*%
%ADD14RoundRect,0.050000X0.550000X-1.400000X0.550000X1.400000X-0.550000X1.400000X-0.550000X-1.400000X0*%
%ADD15RoundRect,0.160000X-0.160000X-0.210000X0.160000X-0.210000X0.160000X0.210000X-0.160000X0.210000X0*%
%ADD16RoundRect,0.050000X0.282829X0.270002X-0.282829X0.270002X-0.282829X-0.270002X0.282829X-0.270002X0*%
%ADD17RoundRect,0.160000X-0.210000X0.160000X-0.210000X-0.160000X0.210000X-0.160000X0.210000X0.160000X0*%
%ADD18RoundRect,0.225000X-0.225000X0.325000X-0.225000X-0.325000X0.225000X-0.325000X0.225000X0.325000X0*%
%ADD19RoundRect,0.050000X-0.300000X0.535001X-0.300000X-0.535001X0.300000X-0.535001X0.300000X0.535001X0*%
%ADD20RoundRect,0.050000X-0.950000X-1.200000X0.950000X-1.200000X0.950000X1.200000X-0.950000X1.200000X0*%
%ADD21RoundRect,0.274390X0.288110X0.475610X-0.288110X0.475610X-0.288110X-0.475610X0.288110X-0.475610X0*%
%ADD22RoundRect,0.160000X0.210000X-0.160000X0.210000X0.160000X-0.210000X0.160000X-0.210000X-0.160000X0*%
%ADD23RoundRect,0.050000X0.325006X-0.400000X0.325006X0.400000X-0.325006X0.400000X-0.325006X-0.400000X0*%
%ADD24RoundRect,0.165789X-0.384211X0.359211X-0.384211X-0.359211X0.384211X-0.359211X0.384211X0.359211X0*%
%ADD25RoundRect,0.274390X0.475610X-0.288110X0.475610X0.288110X-0.475610X0.288110X-0.475610X-0.288110X0*%
%ADD26RoundRect,0.050000X0.475006X-0.150000X0.475006X0.150000X-0.475006X0.150000X-0.475006X-0.150000X0*%
%ADD27RoundRect,0.225000X0.325000X0.225000X-0.325000X0.225000X-0.325000X-0.225000X0.325000X-0.225000X0*%
%ADD28RoundRect,0.050000X0.500000X0.600000X-0.500000X0.600000X-0.500000X-0.600000X0.500000X-0.600000X0*%
%ADD29RoundRect,0.212503X0.212503X-0.337497X0.212503X0.337497X-0.212503X0.337497X-0.212503X-0.337497X0*%
%ADD30RoundRect,0.270000X0.655000X-0.405000X0.655000X0.405000X-0.655000X0.405000X-0.655000X-0.405000X0*%
%ADD31RoundRect,0.050000X0.300000X-0.535001X0.300000X0.535001X-0.300000X0.535001X-0.300000X-0.535001X0*%
%ADD32RoundRect,0.165789X0.384211X-0.359211X0.384211X0.359211X-0.384211X0.359211X-0.384211X-0.359211X0*%
%ADD33O,0.370003X1.600000*%
%ADD34O,1.600000X0.370003*%
%ADD35RoundRect,0.175000X0.175000X-0.425000X0.175000X0.425000X-0.175000X0.425000X-0.175000X-0.425000X0*%
%ADD36RoundRect,0.160001X0.172828X0.160001X-0.172828X0.160001X-0.172828X-0.160001X0.172828X-0.160001X0*%
%ADD37RoundRect,0.165789X-0.359211X-0.384211X0.359211X-0.384211X0.359211X0.384211X-0.359211X0.384211X0*%
G04 APERTURE END LIST*
D10*
%TO.C,R24*%
X63210000Y-41700000D03*
X62190000Y-41700000D03*
%TD*%
D11*
%TO.C,RGB10*%
X58049936Y-40550013D03*
X59550064Y-40550013D03*
X58049936Y-41450013D03*
X59550064Y-41450013D03*
%TD*%
D12*
%TO.C,C12*%
X72825000Y-36480000D03*
X71175000Y-36480000D03*
%TD*%
D10*
%TO.C,R2*%
X74610000Y-27200000D03*
X73590000Y-27200000D03*
%TD*%
D13*
%TO.C,D2*%
X69400000Y-51700025D03*
X69400000Y-48299975D03*
%TD*%
D14*
%TO.C,C60*%
X64900000Y-52099949D03*
X64900000Y-47900051D03*
%TD*%
D15*
%TO.C,C10*%
X66850000Y-16950000D03*
X67870000Y-16950000D03*
%TD*%
D10*
%TO.C,R25*%
X61810000Y-12200000D03*
X60790000Y-12200000D03*
%TD*%
%TO.C,C15*%
X71800000Y-28120000D03*
X70780000Y-28120000D03*
%TD*%
%TO.C,R26*%
X80610000Y-12300000D03*
X79590000Y-12300000D03*
%TD*%
%TO.C,R3*%
X74610000Y-28300000D03*
X73590000Y-28300000D03*
%TD*%
D11*
%TO.C,RGB7*%
X58049936Y-31550013D03*
X59550064Y-31550013D03*
X58049936Y-32450013D03*
X59550064Y-32450013D03*
%TD*%
D16*
%TO.C,R29*%
X63132817Y-46650000D03*
X62267183Y-46650000D03*
%TD*%
D17*
%TO.C,C22*%
X60800000Y-22490000D03*
X60800000Y-23510000D03*
%TD*%
D18*
%TO.C,SW1*%
X66950000Y-33000000D03*
X66950000Y-39000000D03*
X63250000Y-33000000D03*
X63250000Y-39000000D03*
%TD*%
D19*
%TO.C,LDO1*%
X71050038Y-42035077D03*
X72949962Y-42035077D03*
X72000000Y-39564923D03*
%TD*%
D10*
%TO.C,C30*%
X78610000Y-12300000D03*
X77590000Y-12300000D03*
%TD*%
%TO.C,C7*%
X72510000Y-43200000D03*
X71490000Y-43200000D03*
%TD*%
D11*
%TO.C,RGB4*%
X58049936Y-22550013D03*
X59550064Y-22550013D03*
X58049936Y-23450013D03*
X59550064Y-23450013D03*
%TD*%
D10*
%TO.C,C29*%
X63910000Y-11900000D03*
X62890000Y-11900000D03*
%TD*%
D17*
%TO.C,C28*%
X60800000Y-40490000D03*
X60800000Y-41510000D03*
%TD*%
D11*
%TO.C,RGB5*%
X58049936Y-25550013D03*
X59550064Y-25550013D03*
X58049936Y-26450013D03*
X59550064Y-26450013D03*
%TD*%
D12*
%TO.C,C13*%
X72825000Y-38120000D03*
X71175000Y-38120000D03*
%TD*%
D15*
%TO.C,R32*%
X57920000Y-11400000D03*
X58940000Y-11400000D03*
%TD*%
D20*
%TO.C,U2*%
X67199962Y-14699924D03*
X71300038Y-14699924D03*
%TD*%
D21*
%TO.C,C3*%
X72912500Y-45720000D03*
X71087500Y-45720000D03*
%TD*%
D11*
%TO.C,RGB9*%
X58049936Y-37550013D03*
X59550064Y-37550013D03*
X58049936Y-38450013D03*
X59550064Y-38450013D03*
%TD*%
%TO.C,RGB2*%
X58049936Y-16550013D03*
X59550064Y-16550013D03*
X58049936Y-17450013D03*
X59550064Y-17450013D03*
%TD*%
D15*
%TO.C,R5*%
X65990000Y-30800000D03*
X67010000Y-30800000D03*
%TD*%
D12*
%TO.C,C14*%
X72825000Y-34870000D03*
X71175000Y-34870000D03*
%TD*%
D10*
%TO.C,R31*%
X65010000Y-30800000D03*
X63990000Y-30800000D03*
%TD*%
D22*
%TO.C,C9*%
X63180000Y-25500000D03*
X63180000Y-24480000D03*
%TD*%
D10*
%TO.C,C2*%
X65930000Y-16950000D03*
X64910000Y-16950000D03*
%TD*%
D23*
%TO.C,RGB11*%
X63849987Y-13149936D03*
X63849987Y-14650064D03*
X62949987Y-13149936D03*
X62949987Y-14650064D03*
%TD*%
D24*
%TO.C,LED8*%
X69000000Y-42600000D03*
X69000000Y-41000000D03*
%TD*%
D17*
%TO.C,C1*%
X72850000Y-13690000D03*
X72850000Y-14710000D03*
%TD*%
D25*
%TO.C,FB1*%
X71300000Y-49372500D03*
X71300000Y-47547500D03*
%TD*%
D26*
%TO.C,J2*%
X76911989Y-30124841D03*
X76911989Y-29624968D03*
X76911989Y-29124841D03*
X76911989Y-28624968D03*
X76911989Y-28125095D03*
X76911989Y-27624968D03*
X76911989Y-27125095D03*
X76911989Y-26624968D03*
X76911989Y-26125095D03*
X76911989Y-25624968D03*
X76911989Y-25125095D03*
X76911989Y-24624968D03*
X78311786Y-24874905D03*
X78311786Y-25375032D03*
X78311786Y-25874905D03*
X78311786Y-26375032D03*
X78311786Y-26874905D03*
X78311786Y-27375032D03*
X78311786Y-27875159D03*
X78311786Y-28375032D03*
X78311786Y-28874905D03*
X78311786Y-29375032D03*
X78311786Y-29874905D03*
X78311786Y-30375032D03*
%TD*%
D11*
%TO.C,RGB1*%
X58049936Y-13550013D03*
X59550064Y-13550013D03*
X58049936Y-14450013D03*
X59550064Y-14450013D03*
%TD*%
D27*
%TO.C,SW3*%
X83800000Y-41250000D03*
X77800000Y-41250000D03*
X83800000Y-37550000D03*
X77800000Y-37550000D03*
%TD*%
D28*
%TO.C,U5*%
X65549911Y-29000000D03*
X62450089Y-29000000D03*
%TD*%
D24*
%TO.C,LED4*%
X72060000Y-6264000D03*
X72060000Y-4664000D03*
%TD*%
D17*
%TO.C,R13*%
X75800000Y-33490000D03*
X75800000Y-34510000D03*
%TD*%
D11*
%TO.C,RGB8*%
X58049936Y-34550013D03*
X59550064Y-34550013D03*
X58049936Y-35450013D03*
X59550064Y-35450013D03*
%TD*%
D15*
%TO.C,R17*%
X78790000Y-8152000D03*
X79810000Y-8152000D03*
%TD*%
D10*
%TO.C,R7*%
X73994000Y-16834000D03*
X72974000Y-16834000D03*
%TD*%
D17*
%TO.C,C26*%
X60800000Y-34490000D03*
X60800000Y-35510000D03*
%TD*%
%TO.C,C19*%
X60800000Y-13490000D03*
X60800000Y-14510000D03*
%TD*%
D10*
%TO.C,R8*%
X62410000Y-9260000D03*
X61390000Y-9260000D03*
%TD*%
D17*
%TO.C,C23*%
X60800000Y-25490000D03*
X60800000Y-26510000D03*
%TD*%
D29*
%TO.C,D1*%
X60500000Y-49972593D03*
X60500000Y-47627407D03*
%TD*%
D30*
%TO.C,F2*%
X76990000Y-52060000D03*
X76990000Y-49260000D03*
%TD*%
D17*
%TO.C,C21*%
X60800000Y-19490000D03*
X60800000Y-20510000D03*
%TD*%
D22*
%TO.C,R22*%
X74200000Y-38428000D03*
X74200000Y-37408000D03*
%TD*%
D11*
%TO.C,RGB6*%
X58049936Y-28550013D03*
X59550064Y-28550013D03*
X58049936Y-29450013D03*
X59550064Y-29450013D03*
%TD*%
D15*
%TO.C,R9*%
X58790000Y-9260000D03*
X59810000Y-9260000D03*
%TD*%
D10*
%TO.C,R10*%
X62410000Y-4660000D03*
X61390000Y-4660000D03*
%TD*%
D24*
%TO.C,LED7*%
X66980000Y-6264000D03*
X66980000Y-4664000D03*
%TD*%
D10*
%TO.C,R30*%
X58940000Y-12430000D03*
X57920000Y-12430000D03*
%TD*%
D11*
%TO.C,RGB3*%
X58049936Y-19550013D03*
X59550064Y-19550013D03*
X58049936Y-20450013D03*
X59550064Y-20450013D03*
%TD*%
D24*
%TO.C,LED1*%
X74500000Y-44400000D03*
X74500000Y-42800000D03*
%TD*%
D17*
%TO.C,C24*%
X60800000Y-28490000D03*
X60800000Y-29510000D03*
%TD*%
D30*
%TO.C,F1*%
X74590000Y-52060000D03*
X74590000Y-49260000D03*
%TD*%
D31*
%TO.C,U4*%
X64149962Y-42964923D03*
X62250038Y-42964923D03*
X63200000Y-45435077D03*
%TD*%
D10*
%TO.C,C31*%
X78610000Y-42700000D03*
X77590000Y-42700000D03*
%TD*%
D17*
%TO.C,C27*%
X60800000Y-37490000D03*
X60800000Y-38510000D03*
%TD*%
%TO.C,C18*%
X76420000Y-19480000D03*
X76420000Y-20500000D03*
%TD*%
D32*
%TO.C,LED2*%
X74500000Y-39900000D03*
X74500000Y-41500000D03*
%TD*%
D27*
%TO.C,SW2*%
X83800000Y-17450000D03*
X77800000Y-17450000D03*
X83800000Y-13750000D03*
X77800000Y-13750000D03*
%TD*%
D15*
%TO.C,C35*%
X63990000Y-31800000D03*
X65010000Y-31800000D03*
%TD*%
D10*
%TO.C,C5*%
X67010000Y-31800000D03*
X65990000Y-31800000D03*
%TD*%
%TO.C,C34*%
X58940000Y-10390000D03*
X57920000Y-10390000D03*
%TD*%
D15*
%TO.C,R15*%
X78790000Y-11200000D03*
X79810000Y-11200000D03*
%TD*%
D10*
%TO.C,R14*%
X76000000Y-16800000D03*
X74980000Y-16800000D03*
%TD*%
D15*
%TO.C,R12*%
X78790000Y-9168000D03*
X79810000Y-9168000D03*
%TD*%
D10*
%TO.C,R19*%
X66610000Y-41700000D03*
X65590000Y-41700000D03*
%TD*%
D33*
%TO.C,U1*%
X71550064Y-18250064D03*
X71049936Y-18250064D03*
X70550064Y-18250064D03*
X70049936Y-18250064D03*
X69550064Y-18250064D03*
X69049936Y-18250064D03*
X68550064Y-18250064D03*
X68049936Y-18250064D03*
X67550064Y-18250064D03*
X67049936Y-18250064D03*
X66550064Y-18250064D03*
X66049936Y-18250064D03*
D34*
X64550064Y-19749936D03*
X64550064Y-20250064D03*
X64550064Y-20749936D03*
X64550064Y-21250064D03*
X64550064Y-21749936D03*
X64550064Y-22250064D03*
X64550064Y-22749936D03*
X64550064Y-23250064D03*
X64550064Y-23749936D03*
X64550064Y-24250064D03*
X64550064Y-24749936D03*
X64550064Y-25250064D03*
D33*
X66049936Y-26749936D03*
X66550064Y-26749936D03*
X67049936Y-26749936D03*
X67550064Y-26749936D03*
X68049936Y-26749936D03*
X68550064Y-26749936D03*
X69049936Y-26749936D03*
X69550064Y-26749936D03*
X70049936Y-26749936D03*
X70550064Y-26749936D03*
X71049936Y-26749936D03*
X71550064Y-26749936D03*
D34*
X73049936Y-25250064D03*
X73049936Y-24749936D03*
X73049936Y-24250064D03*
X73049936Y-23749936D03*
X73049936Y-23250064D03*
X73049936Y-22749936D03*
X73049936Y-22250064D03*
X73049936Y-21749936D03*
X73049936Y-21250064D03*
X73049936Y-20749936D03*
X73049936Y-20250064D03*
X73049936Y-19749936D03*
%TD*%
D10*
%TO.C,C8*%
X72510000Y-44230000D03*
X71490000Y-44230000D03*
%TD*%
%TO.C,C11*%
X71800000Y-29120000D03*
X70780000Y-29120000D03*
%TD*%
D31*
%TO.C,U3*%
X67599962Y-42964923D03*
X65700038Y-42964923D03*
X66650000Y-45435077D03*
%TD*%
D22*
%TO.C,C4*%
X62180000Y-25500000D03*
X62180000Y-24480000D03*
%TD*%
D17*
%TO.C,R20*%
X67600000Y-40790000D03*
X67600000Y-41810000D03*
%TD*%
%TO.C,C6*%
X65600000Y-13690000D03*
X65600000Y-14710000D03*
%TD*%
D24*
%TO.C,LED5*%
X69520000Y-6264000D03*
X69520000Y-4664000D03*
%TD*%
D10*
%TO.C,R27*%
X80610000Y-42700000D03*
X79590000Y-42700000D03*
%TD*%
D22*
%TO.C,R23*%
X61900000Y-14510000D03*
X61900000Y-13490000D03*
%TD*%
D17*
%TO.C,C16*%
X75410000Y-19490000D03*
X75410000Y-20510000D03*
%TD*%
%TO.C,R33*%
X63000000Y-30790000D03*
X63000000Y-31810000D03*
%TD*%
D24*
%TO.C,LED6*%
X64440000Y-6264000D03*
X64440000Y-4664000D03*
%TD*%
D10*
%TO.C,R1*%
X69810000Y-16950000D03*
X68790000Y-16950000D03*
%TD*%
D15*
%TO.C,R16*%
X78790000Y-10184000D03*
X79810000Y-10184000D03*
%TD*%
D17*
%TO.C,C20*%
X60800000Y-16490000D03*
X60800000Y-17510000D03*
%TD*%
D22*
%TO.C,R18*%
X74500000Y-46610000D03*
X74500000Y-45590000D03*
%TD*%
D17*
%TO.C,C25*%
X60800000Y-31490000D03*
X60800000Y-32510000D03*
%TD*%
D25*
%TO.C,C33*%
X62533100Y-18545600D03*
X62533100Y-16720600D03*
%TD*%
D17*
%TO.C,R21*%
X64200000Y-40780000D03*
X64200000Y-41800000D03*
%TD*%
D15*
%TO.C,R11*%
X58790000Y-4660000D03*
X59810000Y-4660000D03*
%TD*%
D35*
%TO.C,ESD1*%
X71949962Y-30449987D03*
X71000000Y-30449987D03*
X70050038Y-30449987D03*
X70050038Y-33150013D03*
X71000000Y-33150013D03*
X71949962Y-33150013D03*
%TD*%
D15*
%TO.C,R4*%
X68790000Y-29100000D03*
X69810000Y-29100000D03*
%TD*%
D17*
%TO.C,C17*%
X74400000Y-19490000D03*
X74400000Y-20510000D03*
%TD*%
D10*
%TO.C,C32*%
X65210000Y-18000000D03*
X64190000Y-18000000D03*
%TD*%
D36*
%TO.C,R28*%
X28000017Y-27000000D03*
X27134383Y-27000000D03*
%TD*%
D17*
%TO.C,R6*%
X69000000Y-43790000D03*
X69000000Y-44810000D03*
%TD*%
D37*
%TO.C,LED3*%
X74284000Y-18104000D03*
X72684000Y-18104000D03*
%TD*%
M02*
