%TF.GenerationSoftware,KiCad,Pcbnew,8.0.3*%
%TF.CreationDate,2024-07-18T08:33:45+12:00*%
%TF.ProjectId,Tea Cozy Hotplate,54656120-436f-47a7-9920-486f74706c61,rev?*%
%TF.SameCoordinates,Original*%
%TF.FileFunction,Profile,NP*%
%FSLAX46Y46*%
G04 Gerber Fmt 4.6, Leading zero omitted, Abs format (unit mm)*
G04 Created by KiCad (PCBNEW 8.0.3) date 2024-07-18 08:33:45*
%MOMM*%
%LPD*%
G01*
G04 APERTURE LIST*
%TA.AperFunction,Profile*%
%ADD10C,0.050000*%
%TD*%
G04 APERTURE END LIST*
D10*
X86600000Y-41200000D02*
X86600000Y-56000000D01*
X0Y-52000000D02*
X0Y-41700000D01*
X-4000000Y-56000000D02*
X-4000000Y1000000D01*
X85000000Y-41700000D02*
X85000000Y-52000000D01*
X85000000Y-18300000D02*
X85000000Y-36700000D01*
X3000000Y0D02*
X82000000Y0D01*
X-1600000Y-13800000D02*
X-1600000Y1000000D01*
X-1600000Y-37200000D02*
X-1600000Y-17800000D01*
X86600000Y-56000000D02*
X89000000Y-56000000D01*
X0Y-36700000D02*
X0Y-18300000D01*
X3000000Y-55000000D02*
G75*
G02*
X0Y-52000000I0J3000000D01*
G01*
X-1600000Y1000000D02*
X-4000000Y1000000D01*
X85000000Y-3000000D02*
X85000000Y-13300000D01*
X0Y-3000000D02*
G75*
G02*
X3000000Y0I2999998J2D01*
G01*
X3000000Y-55000000D02*
X82000000Y-55000000D01*
X-1607500Y-56000000D02*
X-4000000Y-56000000D01*
X86607500Y1000000D02*
X86607500Y-13800000D01*
X89000000Y1000000D02*
X89000000Y-56000000D01*
X86600000Y-17800000D02*
X86600000Y-37200000D01*
X82000000Y0D02*
G75*
G02*
X85000000Y-3000000I0J-3000000D01*
G01*
X85000000Y-52000000D02*
G75*
G02*
X82000000Y-55000000I-3000000J0D01*
G01*
X0Y-13300000D02*
X0Y-3000000D01*
X-1607500Y-56000000D02*
X-1607500Y-41200000D01*
X86607500Y1000000D02*
X89000000Y1000000D01*
%TO.C,*%
X-1607500Y-41200000D02*
G75*
G02*
X-807500Y-40400000I800001J-1D01*
G01*
%TO.C,REF\u002A\u002A*%
X85000000Y-37200000D02*
X85000000Y-36700000D01*
X85000000Y-41200000D02*
X85000000Y-41700000D01*
X85000000Y-41200000D02*
G75*
G02*
X85800000Y-40400000I800000J0D01*
G01*
X85800000Y-38000000D02*
G75*
G02*
X85000000Y-37200000I1J800001D01*
G01*
X0Y-37200000D02*
X0Y-36700000D01*
X0Y-41200000D02*
X0Y-41700000D01*
X-800000Y-40400000D02*
G75*
G02*
X0Y-41200000I-1J-800001D01*
G01*
X0Y-37200000D02*
G75*
G02*
X-800000Y-38000000I-800000J0D01*
G01*
%TO.C,*%
X86600000Y-37200000D02*
G75*
G02*
X85800000Y-38000000I-800001J1D01*
G01*
X-800000Y-14600000D02*
G75*
G02*
X-1600000Y-13800000I1J800001D01*
G01*
X-800000Y-38000000D02*
G75*
G02*
X-1600000Y-37200000I1J800001D01*
G01*
%TO.C,REF\u002A\u002A*%
X0Y-13800000D02*
X0Y-13300000D01*
X0Y-17800000D02*
X0Y-18300000D01*
X-800000Y-17000000D02*
G75*
G02*
X0Y-17800000I-1J-800001D01*
G01*
X0Y-13800000D02*
G75*
G02*
X-800000Y-14600000I-800000J0D01*
G01*
%TO.C,*%
X86607500Y-13800000D02*
G75*
G02*
X85807500Y-14600000I-800001J1D01*
G01*
X85800000Y-40400000D02*
G75*
G02*
X86600000Y-41200000I-1J-800001D01*
G01*
X85800000Y-17000000D02*
G75*
G02*
X86600000Y-17800000I-1J-800001D01*
G01*
%TO.C,REF\u002A\u002A*%
X85000000Y-13800000D02*
X85000000Y-13300000D01*
X85000000Y-17800000D02*
X85000000Y-18300000D01*
X85000000Y-17800000D02*
G75*
G02*
X85800000Y-17000000I800000J0D01*
G01*
X85800000Y-14600000D02*
G75*
G02*
X85000000Y-13800000I1J800001D01*
G01*
%TO.C,*%
X-1600000Y-17800000D02*
G75*
G02*
X-800000Y-17000000I800001J-1D01*
G01*
%TD*%
M02*
