M48
; DRILL file {KiCad 8.0.3} date 2024-07-18T08:33:46+1200
; FORMAT={-:-/ absolute / inch / decimal}
; #@! TF.CreationDate,2024-07-18T08:33:46+12:00
; #@! TF.GenerationSoftware,Kicad,Pcbnew,8.0.3
; #@! TF.FileFunction,NonPlated,1,2,NPTH
FMAT,2
INCH
; #@! TA.AperFunction,NonPlated,NPTH,ComponentDrill
T1C0.0157
; #@! TA.AperFunction,NonPlated,NPTH,ComponentDrill
T2C0.0217
%
G90
G05
T1
X0.0Y-0.5512
X0.0Y-0.5748
X0.0Y-0.5984
X0.0Y-0.622
X0.0Y-0.6457
X0.0Y-0.6693
X0.0Y-0.6929
X0.0Y-1.4724
X0.0Y-1.4961
X0.0Y-1.5197
X0.0Y-1.5433
X0.0Y-1.5669
X0.0Y-1.5906
X0.0Y-1.6142
X3.3465Y-0.5512
X3.3465Y-0.5748
X3.3465Y-0.5984
X3.3465Y-0.622
X3.3465Y-0.6457
X3.3465Y-0.6693
X3.3465Y-0.6929
X3.3465Y-1.4724
X3.3465Y-1.4961
X3.3465Y-1.5197
X3.3465Y-1.5433
X3.3465Y-1.5669
X3.3465Y-1.5906
X3.3465Y-1.6142
T2
X3.1058Y-0.9488
X3.1058Y-1.2165
M30
