M48
; DRILL file {KiCad 8.0.3} date 2024-07-18T08:33:46+1200
; FORMAT={-:-/ absolute / inch / decimal}
; #@! TF.CreationDate,2024-07-18T08:33:46+12:00
; #@! TF.GenerationSoftware,Kicad,Pcbnew,8.0.3
; #@! TF.FileFunction,Plated,1,2,PTH
FMAT,2
INCH
; #@! TA.AperFunction,Plated,PTH,ViaDrill
T1C0.0118
; #@! TA.AperFunction,Plated,PTH,ComponentDrill
T2C0.0118
; #@! TA.AperFunction,Plated,PTH,ViaDrill
T3C0.0157
; #@! TA.AperFunction,Plated,PTH,ComponentDrill
T4C0.0236
; #@! TA.AperFunction,Plated,PTH,ComponentDrill
T5C0.0394
; #@! TA.AperFunction,Plated,PTH,ComponentDrill
T6C0.0472
; #@! TA.AperFunction,Plated,PTH,ComponentDrill
T7C0.1181
%
G90
G05
T1
X1.0668Y-1.1128
X1.0925Y-1.1122
X2.2559Y-1.6614
X2.2598Y-1.9213
X2.2638Y-0.374
X2.2889Y-0.3804
X2.3425Y-0.622
X2.3425Y-0.7402
X2.3425Y-0.8583
X2.3425Y-0.9764
X2.3425Y-1.0984
X2.3425Y-1.2165
X2.3425Y-1.3346
X2.3425Y-1.4528
X2.3425Y-1.5551
X2.3425Y-1.9213
X2.3434Y-0.4672
X2.3622Y-0.4331
X2.3622Y-0.5118
X2.3736Y-0.3871
X2.4213Y-1.6909
X2.4511Y-0.6204
X2.4528Y-1.6811
X2.4646Y-1.7874
X2.4724Y-1.9213
X2.4941Y-0.9354
X2.4969Y-0.8686
X2.5039Y-1.0512
X2.5063Y-0.6098
X2.5118Y-1.7874
X2.5253Y-1.2823
X2.5418Y-0.4746
X2.5508Y-0.7453
X2.5531Y-0.5453
X2.5551Y-0.5933
X2.563Y-0.5118
X2.5787Y-0.6299
X2.5819Y-0.7575
X2.5866Y-1.6811
X2.5883Y-0.8661
X2.589Y-0.8188
X2.6024Y-1.7888
X2.6181Y-0.5118
X2.6378Y-1.9213
X2.6457Y-1.7888
X2.6535Y-0.6454
X2.6598Y-1.2323
X2.6613Y-1.1879
X2.6772Y-0.5118
X2.6928Y-0.7635
X2.707Y-1.0071
X2.7283Y-0.5118
X2.7283Y-0.7638
X2.7311Y-1.295
X2.7472Y-0.9339
X2.757Y-1.3445
X2.7756Y-0.5118
X2.7869Y-1.0062
X2.7953Y-0.6496
X2.8285Y-0.8097
X2.8346Y-0.5118
X2.8346Y-0.6496
X2.8346Y-2.0531
X2.8425Y-1.0531
X2.8701Y-0.6181
X2.874Y-2.1063
X2.8886Y-0.5173
X2.8898Y-1.3189
X2.8937Y-1.8898
X2.8976Y-0.5591
X2.9134Y-2.1063
X2.9331Y-1.8898
X2.9449Y-1.1603
X2.9528Y-2.1063
X2.9583Y-1.2965
X2.9724Y-1.8898
X2.9882Y-0.9685
X2.9882Y-1.185
X2.9921Y-1.0236
X2.9921Y-1.1417
X2.9921Y-2.1063
X2.9925Y-0.7339
X2.9984Y-0.6937
X3.0118Y-1.8898
X3.0174Y-0.496
X3.0315Y-2.1063
X3.0512Y-1.811
X3.0512Y-1.8898
X3.0557Y-0.7592
X3.122Y-0.9803
X3.1299Y-1.1417
X3.1299Y-1.2598
X3.1299Y-1.3583
X3.1299Y-1.7323
X3.1478Y-0.9939
X3.2402Y-1.6102
X3.2441Y-1.502
X3.2874Y-1.0236
X3.2874Y-1.1417
X3.2874Y-1.3583
X3.2874Y-1.7126
X3.2874Y-1.7913
X3.2874Y-1.8937
T2
X0.0394Y-0.1181
X0.0394Y-2.0472
X0.0624Y-0.0624
X0.0624Y-0.1738
X0.0624Y-1.9916
X0.0624Y-2.1029
X0.1181Y-0.0394
X0.1181Y-0.1969
X0.1181Y-1.9685
X0.1181Y-2.126
X0.1738Y-0.0624
X0.1738Y-0.1738
X0.1738Y-1.9916
X0.1738Y-2.1029
X0.1969Y-0.1181
X0.1969Y-2.0472
X1.089Y-1.0098
X1.1024Y-2.0531
X3.1496Y-0.1181
X3.1496Y-2.0472
X3.1727Y-0.0624
X3.1727Y-0.1738
X3.1727Y-1.9916
X3.1727Y-2.1029
X3.2283Y-0.0394
X3.2283Y-0.1969
X3.2283Y-1.9685
X3.2283Y-2.126
X3.284Y-0.0624
X3.284Y-0.1738
X3.284Y-1.9916
X3.284Y-2.1029
X3.3071Y-0.1181
X3.3071Y-2.0472
T3
X2.3819Y-1.7874
X2.3819Y-2.0512
X2.3957Y-0.9646
X2.5126Y-2.0531
X2.5906Y-0.1831
X2.6398Y-2.0531
X2.6895Y-0.1836
X2.7559Y-1.5728
X2.7598Y-1.3819
X2.8937Y-0.2382
X2.9197Y-1.25
X2.926Y-1.3618
X2.9803Y-1.7894
X3.0335Y-1.7343
X3.0508Y-1.3591
X3.063Y-1.5768
X3.1299Y-1.4783
X3.1417Y-1.3976
X3.2399Y-0.3467
X3.2402Y-0.5276
X3.2992Y-0.6378
X3.2992Y-0.8346
X3.315Y-1.4213
X3.315Y-1.6772
X3.3189Y-1.5551
T5
X2.337Y-0.0866
X2.437Y-0.0866
X2.537Y-0.0866
X2.637Y-0.0866
X2.737Y-0.0866
X2.837Y-0.0866
X3.0039Y-0.0906
X3.0039Y-0.1906
X3.0039Y-0.2906
X3.0039Y-0.3906
T7
X0.1181Y-0.1181
X0.1181Y-2.0472
X3.2283Y-0.1181
X3.2283Y-2.0472
T4
G00X3.2062Y-0.9126
M15
G01X3.2574Y-0.9126
M16
G05
G00X3.2062Y-1.2528
M15
G01X3.2574Y-1.2528
M16
G05
T6
G00X3.0409Y-0.9228
M15
G01X3.0645Y-0.9228
M16
G05
G00X3.0409Y-1.2425
M15
G01X3.0645Y-1.2425
M16
G05
M30
