%TF.GenerationSoftware,KiCad,Pcbnew,8.0.3*%
%TF.CreationDate,2024-07-18T08:33:45+12:00*%
%TF.ProjectId,Tea Cozy Hotplate,54656120-436f-47a7-9920-486f74706c61,rev?*%
%TF.SameCoordinates,Original*%
%TF.FileFunction,Copper,L2,Bot*%
%TF.FilePolarity,Positive*%
%FSLAX46Y46*%
G04 Gerber Fmt 4.6, Leading zero omitted, Abs format (unit mm)*
G04 Created by KiCad (PCBNEW 8.0.3) date 2024-07-18 08:33:45*
%MOMM*%
%LPD*%
G01*
G04 APERTURE LIST*
%TA.AperFunction,Conductor*%
%ADD10C,0.200000*%
%TD*%
%TA.AperFunction,ComponentPad*%
%ADD11R,1.700000X1.700000*%
%TD*%
%TA.AperFunction,ComponentPad*%
%ADD12O,1.700000X1.700000*%
%TD*%
%TA.AperFunction,ComponentPad*%
%ADD13C,0.500000*%
%TD*%
%TA.AperFunction,ComponentPad*%
%ADD14O,2.300000X1.000000*%
%TD*%
%TA.AperFunction,ComponentPad*%
%ADD15O,2.300000X1.600000*%
%TD*%
%TA.AperFunction,ComponentPad*%
%ADD16C,0.400000*%
%TD*%
%TA.AperFunction,ComponentPad*%
%ADD17C,5.000000*%
%TD*%
%TA.AperFunction,ViaPad*%
%ADD18C,0.600000*%
%TD*%
%TA.AperFunction,ViaPad*%
%ADD19C,0.500000*%
%TD*%
%TA.AperFunction,Conductor*%
%ADD20C,0.300000*%
%TD*%
%TA.AperFunction,Conductor*%
%ADD21C,0.127000*%
%TD*%
%TA.AperFunction,Conductor*%
%ADD22C,0.150000*%
%TD*%
%TA.AperFunction,Conductor*%
%ADD23C,2.500000*%
%TD*%
%TA.AperFunction,Conductor*%
%ADD24C,4.000000*%
%TD*%
G04 APERTURE END LIST*
D10*
%TO.N,GND*%
X84450000Y-52150000D02*
X84450000Y-3000000D01*
X56650000Y-54450000D02*
X56650000Y-53800000D01*
X550000Y-52000000D02*
X550000Y-3000000D01*
X82000000Y-54450000D02*
X3000000Y-54450000D01*
X56650000Y-9100000D02*
X56650000Y-43050000D01*
X56650000Y-550000D02*
X56650000Y-8500000D01*
X3000000Y-550000D02*
X82000000Y-550000D01*
X56650000Y-47750000D02*
X56650000Y-50450000D01*
%TD*%
D11*
%TO.P,J1,1,Pin_1*%
%TO.N,+5V*%
X59360000Y-2200000D03*
D12*
%TO.P,J1,2,Pin_2*%
%TO.N,GND*%
X61900000Y-2200000D03*
%TO.P,J1,3,Pin_3*%
%TO.N,/Reset*%
X64440000Y-2200000D03*
%TO.P,J1,4,Pin_4*%
%TO.N,/BOOT0*%
X66980000Y-2200000D03*
%TO.P,J1,5,Pin_5*%
%TO.N,/MCU_RX*%
X69520000Y-2200000D03*
%TO.P,J1,6,Pin_6*%
%TO.N,/MCU_TX*%
X72060000Y-2200000D03*
%TD*%
D13*
%TO.P,HC1,1*%
%TO.N,+5V*%
X28000000Y-52150000D03*
%TO.P,HC1,2*%
%TO.N,Net-(D1-A)*%
X27660000Y-25650000D03*
%TD*%
D14*
%TO.P,J2,S1,SHIELD*%
%TO.N,/SHLD*%
X82088011Y-31820041D03*
D15*
X77537846Y-31559944D03*
X77537846Y-23439802D03*
D14*
X82088011Y-23179959D03*
%TD*%
D11*
%TO.P,J3,1,Pin_1*%
%TO.N,+3.3V*%
X76300000Y-2300000D03*
D12*
%TO.P,J3,2,Pin_2*%
%TO.N,/SWDIO*%
X76300000Y-4840000D03*
%TO.P,J3,3,Pin_3*%
%TO.N,/SWDCLK*%
X76300000Y-7380000D03*
%TO.P,J3,4,Pin_4*%
%TO.N,GND*%
X76300000Y-9920000D03*
%TD*%
D16*
%TO.P,M1,*%
%TO.N,*%
X3000000Y-5000000D03*
X1585786Y-4414214D03*
X4414214Y-4414214D03*
X1000000Y-3000000D03*
D17*
%TO.N,GND*%
X3000000Y-3000000D03*
D16*
%TO.N,*%
X5000000Y-3000000D03*
X1585786Y-1585786D03*
X4414214Y-1585786D03*
X3000000Y-1000000D03*
%TD*%
%TO.P,M2,*%
%TO.N,*%
X82000000Y-5000000D03*
X80585786Y-4414214D03*
X83414214Y-4414214D03*
X80000000Y-3000000D03*
D17*
%TO.N,GND*%
X82000000Y-3000000D03*
D16*
%TO.N,*%
X84000000Y-3000000D03*
X80585786Y-1585786D03*
X83414214Y-1585786D03*
X82000000Y-1000000D03*
%TD*%
%TO.P,M3,*%
%TO.N,GND*%
X82000000Y-54000000D03*
%TO.N,*%
X80585786Y-53414214D03*
X83414214Y-53414214D03*
X80000000Y-52000000D03*
D17*
%TO.N,GND*%
X82000000Y-52000000D03*
D16*
X84000000Y-52000000D03*
%TO.N,*%
X80585786Y-50585786D03*
%TO.N,GND*%
X83414214Y-50585786D03*
%TO.N,*%
X82000000Y-50000000D03*
%TD*%
%TO.P,M4,*%
%TO.N,*%
X3000000Y-54000000D03*
X1585786Y-53414214D03*
X4414214Y-53414214D03*
X1000000Y-52000000D03*
D17*
%TO.N,GND*%
X3000000Y-52000000D03*
D16*
%TO.N,*%
X5000000Y-52000000D03*
X1585786Y-50585786D03*
X4414214Y-50585786D03*
X3000000Y-50000000D03*
%TD*%
D18*
%TO.N,GND*%
X84200000Y-36100000D03*
D19*
X65500000Y-16000000D03*
X27750000Y-28250000D03*
X72000000Y-16500000D03*
D18*
X70000000Y-39950000D03*
D19*
X76641300Y-12599000D03*
X57500000Y-9500000D03*
X69300000Y-19400000D03*
X66500000Y-13000000D03*
X62800000Y-48800000D03*
D18*
X84300000Y-39500000D03*
D19*
X65100000Y-13000000D03*
D18*
X79500000Y-37550000D03*
D19*
X57300000Y-42200000D03*
D18*
X77490000Y-34520000D03*
D19*
X69300000Y-13000000D03*
D18*
X75700000Y-45450000D03*
X74320000Y-34590000D03*
D19*
X70500000Y-13000000D03*
X75900000Y-24600000D03*
X59500000Y-48800000D03*
X64850000Y-13850000D03*
D18*
X70100000Y-35100000D03*
X60850000Y-24500000D03*
X83800000Y-16200000D03*
D19*
X79300000Y-24900000D03*
X62300000Y-42700000D03*
X64900000Y-15070000D03*
D18*
X84200000Y-42600000D03*
D19*
X65700000Y-42700000D03*
X73370000Y-13140000D03*
X72000000Y-13000000D03*
X67400000Y-16393400D03*
D18*
X83800000Y-21200000D03*
D19*
X75900000Y-30100000D03*
X71000000Y-16500000D03*
D18*
X77050000Y-44050000D03*
D19*
X68000000Y-13000000D03*
X72900000Y-15700000D03*
X73600000Y-14200000D03*
D18*
X74160000Y-31750000D03*
D19*
X67000000Y-48800000D03*
X57400000Y-48800000D03*
%TO.N,+3.3V*%
X76010000Y-18640000D03*
X63600000Y-26700000D03*
X73400000Y-33500000D03*
D18*
X73500000Y-6050000D03*
D19*
X63350100Y-23759500D03*
X72200000Y-26749900D03*
D18*
X65800000Y-4650000D03*
X68314000Y-4664000D03*
D19*
X67596200Y-30173800D03*
D18*
%TO.N,/Reset*%
X82294700Y-8805300D03*
X82300000Y-13400000D03*
D19*
X67559000Y-31300000D03*
X68398100Y-19392200D03*
%TO.N,+5V*%
X75000000Y-53500000D03*
D18*
X60500000Y-52100000D03*
D19*
X59500000Y-36900000D03*
X59500000Y-30900000D03*
D18*
X67050000Y-52150000D03*
D19*
X73000000Y-53500000D03*
X59500000Y-18800000D03*
X59500000Y-15800000D03*
X76000000Y-53500000D03*
X60000000Y-13000000D03*
X77000000Y-53500000D03*
X59500000Y-27900000D03*
X74000000Y-53500000D03*
X59500000Y-33900000D03*
X59500000Y-21800000D03*
X59500000Y-39500000D03*
X60000000Y-11000000D03*
D18*
X63820000Y-52150000D03*
D19*
X72000000Y-52150000D03*
X59500000Y-24800000D03*
%TO.N,Net-(RGB11-VDD)*%
X63660000Y-15490000D03*
X64560500Y-12054500D03*
X65759900Y-20798100D03*
%TO.N,/MCU_TX*%
X68758700Y-25580700D03*
%TO.N,/MCU_RX*%
X69780100Y-23720000D03*
%TO.N,/BOOT0*%
X71844500Y-20566400D03*
%TO.N,/SWDCLK*%
X76158800Y-17621200D03*
%TO.N,/SWDIO*%
X70788000Y-25557300D03*
%TO.N,/CC2*%
X77614700Y-19283100D03*
X79953800Y-25244400D03*
%TO.N,/CC1*%
X75140000Y-32930000D03*
X74800000Y-29471700D03*
%TO.N,/BOOT1*%
X60288300Y-9832100D03*
X65580000Y-19240000D03*
D18*
%TO.N,/Down*%
X79800000Y-35500000D03*
X77800000Y-40050000D03*
D19*
%TO.N,Net-(D1-A)*%
X63800000Y-45400000D03*
X67200000Y-45435100D03*
X62600000Y-45400000D03*
D18*
X60500000Y-45400000D03*
D19*
X66100000Y-45435100D03*
%TO.N,VBUS*%
X76500000Y-48000000D03*
X77500000Y-48000000D03*
X79500000Y-32000000D03*
X76000000Y-26000000D03*
X82400000Y-38150000D03*
X79500000Y-44000000D03*
X83500000Y-26000000D03*
X82300000Y-40900000D03*
X75500000Y-48000000D03*
X83500000Y-43500000D03*
X79500000Y-34500000D03*
X83500000Y-45500000D03*
X77500000Y-46000000D03*
X74500000Y-48000000D03*
X83500000Y-34500000D03*
X79500000Y-29000000D03*
X83500000Y-48100000D03*
X83500000Y-29000000D03*
X76000000Y-29000000D03*
X73500000Y-48000000D03*
%TO.N,/Temp_Coil*%
X64790000Y-18930000D03*
X59521100Y-11868000D03*
%TO.N,/Neopixel Bus*%
X62257900Y-15757100D03*
X63420100Y-22062300D03*
X70028400Y-34150600D03*
%TO.N,/Hotplate_EN*%
X65742400Y-21999900D03*
X69369400Y-32893800D03*
%TO.N,Net-(R28-Pad2)*%
X27096200Y-28265200D03*
X58137600Y-9662600D03*
%TO.N,Net-(R29-Pad2)*%
X64143500Y-32570500D03*
X61500000Y-42950000D03*
%TD*%
D20*
%TO.N,GND*%
X75900000Y-30100000D02*
X75612500Y-29812500D01*
D21*
X46414912Y-9034000D02*
X56604488Y-9034000D01*
X57167000Y-9267000D02*
X57364644Y-9464644D01*
X27750000Y-28250000D02*
X27407230Y-27907230D01*
D22*
X77375000Y-17719417D02*
X77375000Y-13851504D01*
D21*
X57500000Y-9500000D02*
X57450000Y-9500000D01*
D22*
X76300000Y-12016364D02*
X76300000Y-9920000D01*
D21*
X25754000Y-25311900D02*
X25754000Y-25432498D01*
D22*
X59500000Y-48800000D02*
X57400000Y-48800000D01*
X75900000Y-24600000D02*
X75900000Y-21280382D01*
D20*
X75900000Y-24600000D02*
X75612500Y-24887500D01*
D22*
X76641300Y-12599000D02*
X77008150Y-12965850D01*
D21*
X36795515Y-13018484D02*
X26639226Y-23174773D01*
D22*
X59500000Y-48800000D02*
X62800000Y-48800000D01*
D21*
X26878369Y-27688169D02*
X26553951Y-27363751D01*
D20*
X75325000Y-29118413D02*
X75325000Y-25581586D01*
D22*
X76641300Y-12599000D02*
X76470650Y-12428350D01*
D21*
X57364644Y-9464644D02*
G75*
G03*
X57450000Y-9500003I85356J85344D01*
G01*
D20*
X75612500Y-24887500D02*
G75*
G03*
X75324994Y-25581586I694100J-694100D01*
G01*
D21*
X27407230Y-27907230D02*
G75*
G03*
X27142800Y-27797711I-264430J-264470D01*
G01*
D22*
X77008150Y-12965850D02*
G75*
G02*
X77374998Y-13851504I-885650J-885650D01*
G01*
D21*
X57167000Y-9267000D02*
G75*
G03*
X56604488Y-9034005I-562500J-562500D01*
G01*
D22*
X76300000Y-12016364D02*
G75*
G03*
X76470640Y-12428360I582600J-36D01*
G01*
D21*
X25754000Y-25432498D02*
G75*
G03*
X26553951Y-27363751I2731200J-2D01*
G01*
X26639226Y-23174773D02*
G75*
G03*
X25753983Y-25311900I2137074J-2137127D01*
G01*
X46414912Y-9034000D02*
G75*
G03*
X36795506Y-13018475I-12J-13603900D01*
G01*
X26878369Y-27688169D02*
G75*
G03*
X27142800Y-27797689I264431J264469D01*
G01*
D22*
X76637500Y-19499900D02*
G75*
G03*
X75899993Y-21280382I1780500J-1780500D01*
G01*
D20*
X75325000Y-29118413D02*
G75*
G03*
X75612504Y-29812496I981600J13D01*
G01*
D22*
X77375000Y-17719417D02*
G75*
G02*
X76637495Y-19499895I-2518000J17D01*
G01*
%TO.N,+3.3V*%
X70655100Y-23821310D02*
X70655100Y-23588000D01*
X75317750Y-18145450D02*
X75603250Y-18430950D01*
X75551516Y-3048483D02*
X76300000Y-2300000D01*
X66250453Y-28252600D02*
X67007450Y-28252600D01*
D21*
X65814000Y-4664000D02*
X65800000Y-4650000D01*
D22*
X75742402Y-18570102D02*
X75603250Y-18430950D01*
X63600000Y-26700000D02*
X63475050Y-26575050D01*
X70290499Y-26001099D02*
X68282138Y-28009461D01*
X67473750Y-30051350D02*
X67596200Y-30173800D01*
X67351300Y-28596450D02*
X67351300Y-29755729D01*
X63350100Y-23759500D02*
X63350100Y-26273394D01*
X75175000Y-13665121D02*
X75175000Y-17800821D01*
X75407904Y-3085995D02*
X74946950Y-3546950D01*
X71004693Y-22744006D02*
X75317750Y-18430950D01*
X67596200Y-30173800D02*
X68835000Y-30173800D01*
X75465550Y-3075000D02*
X75434450Y-3075000D01*
D21*
X68314000Y-4664000D02*
X65814000Y-4664000D01*
D22*
X74475000Y-4686338D02*
X74475000Y-6050000D01*
D21*
X73500000Y-6050000D02*
X74475000Y-6050000D01*
D22*
X70949763Y-31049763D02*
X73400000Y-33500000D01*
X70459050Y-24278450D02*
X70470431Y-24267069D01*
X75487500Y-3075000D02*
X75465550Y-3075000D01*
X75008800Y-12752453D02*
X75008800Y-13263878D01*
X67007450Y-28252600D02*
X67695150Y-28252600D01*
X76010000Y-18640000D02*
X75911150Y-18640000D01*
X70345500Y-26001100D02*
X70706150Y-26361750D01*
X72200000Y-26749900D02*
X71643226Y-26749900D01*
X70290500Y-25946100D02*
X70345500Y-26001100D01*
X74475000Y-6050000D02*
X74475000Y-11463746D01*
X63600000Y-26700000D02*
X64376300Y-27476300D01*
X70263000Y-25879709D02*
X70263000Y-24751536D01*
X70655100Y-23821310D02*
G75*
G02*
X70470420Y-24267058I-630300J10D01*
G01*
X71004693Y-22744006D02*
G75*
G03*
X70655103Y-23588000I844007J-843994D01*
G01*
X74741900Y-12108100D02*
G75*
G02*
X75008819Y-12752453I-644400J-644400D01*
G01*
X67351300Y-29755729D02*
G75*
G03*
X67473759Y-30051341I418100J29D01*
G01*
X75091900Y-13464500D02*
G75*
G02*
X75174991Y-13665121I-200600J-200600D01*
G01*
X75434450Y-3075000D02*
G75*
G03*
X75407888Y-3085979I-50J-37500D01*
G01*
X67351300Y-28596450D02*
G75*
G03*
X67007450Y-28252600I-343900J-50D01*
G01*
X67695150Y-28252600D02*
G75*
G03*
X67351300Y-28596450I-50J-343800D01*
G01*
X75551516Y-3048483D02*
G75*
G02*
X75487500Y-3075009I-64016J63983D01*
G01*
X70290499Y-26001099D02*
G75*
G03*
X70290499Y-25946101I-27499J27499D01*
G01*
X75008800Y-13263878D02*
G75*
G03*
X75091894Y-13464506I283700J-22D01*
G01*
X75603250Y-18430950D02*
G75*
G03*
X75317750Y-18430950I-142750J-142750D01*
G01*
X63350100Y-26273394D02*
G75*
G03*
X63475048Y-26575052I426600J-6D01*
G01*
X68282138Y-28009461D02*
G75*
G02*
X67695150Y-28252643I-587038J586961D01*
G01*
X64376300Y-27476300D02*
G75*
G03*
X66250453Y-28252619I1874200J1874200D01*
G01*
X75317750Y-18430950D02*
G75*
G03*
X75317750Y-18145450I-142750J142750D01*
G01*
X75175000Y-17800821D02*
G75*
G03*
X75317756Y-18145444I487400J21D01*
G01*
X75742402Y-18570102D02*
G75*
G03*
X75911150Y-18640049I168798J168702D01*
G01*
X70459050Y-24278450D02*
G75*
G03*
X70263018Y-24751536I472750J-473050D01*
G01*
X70345500Y-26001100D02*
G75*
G03*
X70290500Y-26001100I-27500J-27500D01*
G01*
X74475000Y-11463746D02*
G75*
G03*
X74741914Y-12108086I911300J46D01*
G01*
X74946950Y-3546950D02*
G75*
G03*
X74475016Y-4686338I1139350J-1139350D01*
G01*
X70263000Y-25879709D02*
G75*
G03*
X70290503Y-25946097I93900J9D01*
G01*
X70949763Y-31049763D02*
G75*
G03*
X68835000Y-30173792I-2114763J-2114737D01*
G01*
X70706150Y-26361750D02*
G75*
G03*
X71643226Y-26749889I937050J937050D01*
G01*
%TO.N,/Reset*%
X82300000Y-8810600D02*
X82300000Y-13400000D01*
X64715050Y-12642450D02*
X64806952Y-12550548D01*
X65931913Y-21368586D02*
X66094087Y-21206412D01*
X64762750Y-2522750D02*
X64440000Y-2200000D01*
X63445978Y-27783378D02*
X66751740Y-31089140D01*
X64344600Y-14684850D02*
X64344600Y-13536795D01*
X67371450Y-19383650D02*
X67377150Y-19389350D01*
X62475100Y-23759562D02*
X62475100Y-25439471D01*
X67371449Y-19389349D02*
X66475712Y-20285087D01*
X65085500Y-11878076D02*
X65085500Y-3301937D01*
X68398100Y-19392200D02*
X67384030Y-19392200D01*
X64513966Y-22485833D02*
X65418586Y-21581213D01*
X82294700Y-8805300D02*
X82300000Y-8810600D01*
X65526847Y-17539047D02*
X67371450Y-19383650D01*
X63551500Y-22884500D02*
X63350162Y-22884500D01*
X67559000Y-31300000D02*
X67260800Y-31300000D01*
X66475712Y-20285087D02*
G75*
G03*
X66284942Y-20745750I460688J-460613D01*
G01*
X64344600Y-14684850D02*
G75*
G03*
X65526850Y-17539044I4036430J0D01*
G01*
X66284900Y-20745750D02*
G75*
G02*
X66094068Y-21206393I-651500J50D01*
G01*
X67371449Y-19389349D02*
G75*
G03*
X67371449Y-19383651I-2849J2849D01*
G01*
X65675250Y-21474900D02*
G75*
G03*
X65418557Y-21581184I-50J-363000D01*
G01*
X62475100Y-25439471D02*
G75*
G03*
X63445960Y-27783396I3314800J-29D01*
G01*
X66751740Y-31089140D02*
G75*
G03*
X67260800Y-31300005I509060J509040D01*
G01*
X67377150Y-19389350D02*
G75*
G03*
X67371450Y-19389350I-2850J-2850D01*
G01*
X62731400Y-23140800D02*
G75*
G03*
X62475085Y-23759562I618800J-618800D01*
G01*
X64513966Y-22485833D02*
G75*
G02*
X63551500Y-22884509I-962466J962433D01*
G01*
X64762750Y-2522750D02*
G75*
G02*
X65085484Y-3301937I-779150J-779150D01*
G01*
X63350162Y-22884500D02*
G75*
G03*
X62731411Y-23140811I38J-875100D01*
G01*
X65931913Y-21368586D02*
G75*
G02*
X65675250Y-21474928I-256713J256686D01*
G01*
X65085500Y-11878076D02*
G75*
G02*
X64806961Y-12550557I-951000J-24D01*
G01*
X67377150Y-19389350D02*
G75*
G03*
X67384030Y-19392187I6850J6850D01*
G01*
X64715050Y-12642450D02*
G75*
G03*
X64344598Y-13536795I894350J-894350D01*
G01*
D20*
%TO.N,+5V*%
X59680000Y-10680000D02*
X60000000Y-11000000D01*
X59500000Y-13853553D02*
X59500000Y-15800000D01*
D23*
X58314644Y-52150000D02*
X28000000Y-52150000D01*
D24*
X58485355Y-52150000D02*
X75790000Y-52150000D01*
D20*
X59500000Y-18800000D02*
X59500000Y-15800000D01*
X59750000Y-13250000D02*
X60000000Y-13000000D01*
X59500000Y-21800000D02*
X59500000Y-24800000D01*
X59500000Y-18800000D02*
X59500000Y-21800000D01*
X59500000Y-27900000D02*
X59500000Y-24800000D01*
X59500000Y-30900000D02*
X59500000Y-33900000D01*
X59500000Y-33900000D02*
X59500000Y-36900000D01*
X59360000Y-9907451D02*
X59360000Y-2200000D01*
X59500000Y-36900000D02*
X59500000Y-39500000D01*
X59360000Y-9907451D02*
G75*
G03*
X59679986Y-10680014I1092500J-49D01*
G01*
X59750000Y-13250000D02*
G75*
G03*
X59500022Y-13853553I603500J-603500D01*
G01*
D24*
X58425000Y-52125000D02*
G75*
G03*
X58375000Y-52125000I-25000J-24998D01*
G01*
X58375000Y-52125000D02*
G75*
G02*
X58314644Y-52150018I-60400J60400D01*
G01*
X58425000Y-52125000D02*
G75*
G03*
X58485355Y-52150018I60400J60400D01*
G01*
D22*
%TO.N,Net-(RGB11-VDD)*%
X66071997Y-20297064D02*
X65826699Y-20542362D01*
X64110250Y-12504750D02*
X64560500Y-12054500D01*
X66071997Y-18809897D02*
X63980991Y-16718891D01*
X63660000Y-15490000D02*
X63660000Y-15943950D01*
X63660000Y-13591749D02*
X63660000Y-15490000D01*
X65759900Y-20798100D02*
X65759900Y-20703631D01*
X66380000Y-19553481D02*
G75*
G02*
X66072010Y-20297077I-1051600J-19D01*
G01*
X65826699Y-20542362D02*
G75*
G03*
X65759930Y-20703631I161301J-161238D01*
G01*
X63660000Y-15943950D02*
G75*
G03*
X63980973Y-16718909I1095900J-50D01*
G01*
X66071997Y-18809897D02*
G75*
G02*
X66380009Y-19553481I-743597J-743603D01*
G01*
X64110250Y-12504750D02*
G75*
G03*
X63660021Y-13591749I1086950J-1086950D01*
G01*
%TO.N,/MCU_TX*%
X73185996Y-19967402D02*
X70690190Y-22463209D01*
X72060000Y-8083570D02*
X72060000Y-2200000D01*
X68792923Y-25449676D02*
X70050683Y-24191916D01*
X73359400Y-11220600D02*
X74302983Y-12164183D01*
X68758700Y-25532300D02*
X68758700Y-25580700D01*
X70305100Y-23392900D02*
X70305100Y-23577698D01*
X74658800Y-13023200D02*
X74658800Y-13408878D01*
X74825000Y-13810121D02*
X74825000Y-16010500D01*
X74302983Y-12164183D02*
G75*
G02*
X74658809Y-13023200I-858983J-859017D01*
G01*
X70690190Y-22463209D02*
G75*
G03*
X70305105Y-23392900I929710J-929691D01*
G01*
X74825000Y-16010500D02*
G75*
G02*
X73185996Y-19967402I-5595900J0D01*
G01*
X74658800Y-13408878D02*
G75*
G03*
X74741894Y-13609506I283700J-22D01*
G01*
X72060000Y-8083570D02*
G75*
G03*
X73359391Y-11220609I4436400J-30D01*
G01*
X70305100Y-23577698D02*
G75*
G02*
X70050676Y-24191909I-868600J-2D01*
G01*
X74741900Y-13609500D02*
G75*
G02*
X74824991Y-13810121I-200600J-200600D01*
G01*
X68792923Y-25449676D02*
G75*
G03*
X68758685Y-25532300I82577J-82624D01*
G01*
%TO.N,/MCU_RX*%
X73586524Y-16843474D02*
X73516897Y-16913102D01*
X71253102Y-17850797D02*
X70751025Y-18352875D01*
X74125000Y-14100021D02*
X74125000Y-15543481D01*
X69780100Y-23720000D02*
X69780100Y-20696895D01*
X73958800Y-13313150D02*
X73958800Y-13698778D01*
X69520000Y-5285600D02*
X69520000Y-2200000D01*
X71701848Y-10553048D02*
X73603019Y-12454219D01*
X74041900Y-13899400D02*
G75*
G02*
X74124991Y-14100021I-200600J-200600D01*
G01*
X73958800Y-13698778D02*
G75*
G03*
X74041894Y-13899406I283700J-22D01*
G01*
X73603019Y-12454219D02*
G75*
G02*
X73958839Y-13313150I-858919J-858981D01*
G01*
X69520000Y-5285600D02*
G75*
G03*
X71701847Y-10553049I7449300J0D01*
G01*
X73516897Y-16913102D02*
G75*
G02*
X72385000Y-17381948I-1131897J1131902D01*
G01*
X74125000Y-15543481D02*
G75*
G02*
X73586541Y-16843491I-1838500J-19D01*
G01*
X72385000Y-17381950D02*
G75*
G03*
X71253101Y-17850796I0J-1600750D01*
G01*
X70751025Y-18352875D02*
G75*
G03*
X69780083Y-20696895I2343975J-2344025D01*
G01*
%TO.N,/BOOT0*%
X68900495Y-1075000D02*
X69520016Y-1075000D01*
X74475000Y-16075855D02*
X74475000Y-13955121D01*
X73159750Y-19251150D02*
X71844500Y-20566400D01*
X70645000Y-2199983D02*
X70645000Y-6410502D01*
X67542500Y-1637500D02*
X66980000Y-2200000D01*
X74308800Y-13168200D02*
X74308800Y-13553878D01*
X73952983Y-12309183D02*
X72476900Y-10833100D01*
X68900495Y-1075000D02*
G75*
G03*
X67542501Y-1637501I5J-1920500D01*
G01*
X73952983Y-12309183D02*
G75*
G02*
X74308809Y-13168200I-858983J-859017D01*
G01*
X74391900Y-13754500D02*
G75*
G02*
X74474991Y-13955121I-200600J-200600D01*
G01*
X70645000Y-6410502D02*
G75*
G03*
X72476901Y-10833099I6254500J2D01*
G01*
X74475000Y-16075855D02*
G75*
G02*
X73159748Y-19251148I-4490550J5D01*
G01*
X70315500Y-1404500D02*
G75*
G03*
X69520016Y-1074993I-795500J-795500D01*
G01*
X70315500Y-1404500D02*
G75*
G02*
X70645007Y-2199983I-795500J-795500D01*
G01*
X74308800Y-13553878D02*
G75*
G03*
X74391894Y-13754506I283700J-22D01*
G01*
%TO.N,/SWDCLK*%
X76056500Y-17446562D02*
X76056500Y-13685061D01*
X75175000Y-9300495D02*
X75175000Y-11173846D01*
X75708800Y-12845638D02*
X75708800Y-12462553D01*
X76158800Y-17621200D02*
X76107650Y-17570050D01*
X75737500Y-7942500D02*
X76300000Y-7380000D01*
X75882650Y-13265350D02*
G75*
G02*
X76056516Y-13685061I-419750J-419750D01*
G01*
X75737500Y-7942500D02*
G75*
G03*
X75174998Y-9300495I1358000J-1358000D01*
G01*
X75175000Y-11173846D02*
G75*
G03*
X75441914Y-11818186I911300J46D01*
G01*
X75441900Y-11818200D02*
G75*
G02*
X75708819Y-12462553I-644400J-644400D01*
G01*
X75708800Y-12845638D02*
G75*
G03*
X75882661Y-13265339I593600J38D01*
G01*
X76056500Y-17446562D02*
G75*
G03*
X76107639Y-17570061I174600J-38D01*
G01*
%TO.N,/SWDIO*%
X75525000Y-13520121D02*
X75525000Y-17570341D01*
X76115658Y-18161000D02*
X76371357Y-18161000D01*
X75562500Y-5577500D02*
X76300000Y-4840000D01*
X74825000Y-7357982D02*
X74825000Y-11318846D01*
X70788000Y-25557300D02*
X70788000Y-25165800D01*
X75358800Y-12607553D02*
X75358800Y-13118878D01*
X71064832Y-24497467D02*
X76624915Y-18937384D01*
X76767150Y-18556792D02*
X76767150Y-18594000D01*
X75358800Y-13118878D02*
G75*
G03*
X75441894Y-13319506I283700J-22D01*
G01*
X75562500Y-5577500D02*
G75*
G03*
X74824993Y-7357982I1780500J-1780500D01*
G01*
X75091900Y-11963200D02*
G75*
G02*
X75358819Y-12607553I-644400J-644400D01*
G01*
X75441900Y-13319500D02*
G75*
G02*
X75524991Y-13520121I-200600J-200600D01*
G01*
X75698000Y-17988000D02*
G75*
G03*
X76115658Y-18161017I417700J417700D01*
G01*
X76767150Y-18594000D02*
G75*
G02*
X76624922Y-18937391I-485650J0D01*
G01*
X76651225Y-18276925D02*
G75*
G03*
X76371357Y-18161032I-279825J-279875D01*
G01*
X76651225Y-18276925D02*
G75*
G02*
X76767168Y-18556792I-279825J-279875D01*
G01*
X75525000Y-17570341D02*
G75*
G03*
X75698012Y-17987988I590700J41D01*
G01*
X74825000Y-11318846D02*
G75*
G03*
X75091914Y-11963186I911300J46D01*
G01*
X71064832Y-24497467D02*
G75*
G03*
X70788010Y-25165800I668368J-668333D01*
G01*
%TO.N,/CC2*%
X79953800Y-25244400D02*
X79953800Y-23276193D01*
X78784250Y-20452650D02*
X77614700Y-19283100D01*
X78784250Y-20452650D02*
G75*
G02*
X79953803Y-23276193I-2823550J-2823550D01*
G01*
%TO.N,/CC1*%
X75050000Y-32840000D02*
X75050000Y-32157878D01*
X75140000Y-32930000D02*
X75050000Y-32840000D01*
X75050000Y-32157878D02*
X75049427Y-32157305D01*
X74800000Y-31447783D02*
X74800000Y-29471700D01*
X75049427Y-32157305D02*
G75*
G02*
X74800017Y-31447783I884473J709505D01*
G01*
%TO.N,/BOOT1*%
X65203861Y-18436661D02*
X63672677Y-16905477D01*
X63132900Y-15602340D02*
X63132900Y-14521200D01*
X65467450Y-19127450D02*
X65580000Y-19240000D01*
X60288300Y-9832100D02*
X61828641Y-11372441D01*
X65354900Y-18855730D02*
X65354900Y-18801300D01*
X65203861Y-18436661D02*
G75*
G02*
X65354893Y-18801300I-364661J-364639D01*
G01*
X65354900Y-18855730D02*
G75*
G03*
X65467459Y-19127441I384300J30D01*
G01*
X63132900Y-15602340D02*
G75*
G03*
X63672700Y-16905454I1842900J40D01*
G01*
X61828641Y-11372441D02*
G75*
G02*
X63132905Y-14521200I-3148741J-3148759D01*
G01*
D21*
%TO.N,/Down*%
X77800000Y-39328427D02*
X77800000Y-40050000D01*
X79214213Y-37085787D02*
X78385787Y-37914213D01*
X79800000Y-35500000D02*
X79800000Y-35671573D01*
X78385787Y-37914213D02*
G75*
G03*
X77800019Y-39328427I1414213J-1414187D01*
G01*
X79800000Y-35671573D02*
G75*
G02*
X79214227Y-37085801I-2000000J-27D01*
G01*
D23*
%TO.N,Net-(D1-A)*%
X52905000Y-45400000D02*
X56300000Y-45400000D01*
D24*
X60500000Y-45400000D02*
X56300000Y-45400000D01*
X62600000Y-45400000D02*
X60500000Y-45400000D01*
D23*
X43524448Y-41514448D02*
X27660000Y-25650000D01*
D24*
X62600000Y-45400000D02*
X67100000Y-45400000D01*
D23*
X43524448Y-41514448D02*
G75*
G03*
X52905000Y-45400001I9380552J9380548D01*
G01*
D22*
%TO.N,/Temp_Coil*%
X64790000Y-18930000D02*
X63448464Y-17588464D01*
X59521100Y-11868000D02*
X59565800Y-11868000D01*
X59642107Y-11899607D02*
X62117335Y-14374835D01*
X59642107Y-11899607D02*
G75*
G03*
X59565800Y-11867996I-76307J-76293D01*
G01*
X62782900Y-15981650D02*
G75*
G03*
X63448435Y-17588493I2272400J-50D01*
G01*
X62117335Y-14374835D02*
G75*
G02*
X62782929Y-15981650I-1606835J-1606865D01*
G01*
%TO.N,/Neopixel Bus*%
X63277706Y-22099493D02*
X62720000Y-22657200D01*
X63420100Y-22062300D02*
X62839000Y-21481200D01*
X63420100Y-22062300D02*
X63367500Y-22062300D01*
X70028400Y-34150600D02*
X69673300Y-34150600D01*
X62257900Y-15757100D02*
X62257900Y-20078300D01*
X62125100Y-25134302D02*
X62125100Y-24093415D01*
X63414295Y-28246695D02*
X69067106Y-33899506D01*
X63367500Y-22062300D02*
G75*
G03*
X63277704Y-22099491I0J-127000D01*
G01*
X62125100Y-25134302D02*
G75*
G03*
X63414294Y-28246696I4401600J2D01*
G01*
X62257900Y-20078300D02*
G75*
G03*
X62839000Y-21481200I1984000J0D01*
G01*
X69067106Y-33899506D02*
G75*
G03*
X69673300Y-34150596I606194J606206D01*
G01*
X62720000Y-22657200D02*
G75*
G03*
X62125106Y-24093415I1436200J-1436200D01*
G01*
%TO.N,/Hotplate_EN*%
X63820200Y-23234500D02*
X63350035Y-23234500D01*
X64994006Y-22748293D02*
X65742400Y-21999900D01*
X63458765Y-27301265D02*
X66634100Y-30476600D01*
X69183466Y-32181966D02*
X68074899Y-31073399D01*
X62825100Y-23759435D02*
X62825100Y-25771461D01*
X69369400Y-32630850D02*
X69369400Y-32893800D01*
X63350035Y-23234500D02*
G75*
G03*
X62978840Y-23388240I-35J-524900D01*
G01*
X66634100Y-30476600D02*
G75*
G03*
X67354500Y-30774999I720400J720400D01*
G01*
X62825100Y-25771461D02*
G75*
G03*
X63458739Y-27301291I2163500J-39D01*
G01*
X64994006Y-22748293D02*
G75*
G02*
X63820200Y-23234503I-1173806J1173793D01*
G01*
X68074899Y-31073399D02*
G75*
G03*
X67354500Y-30775001I-720399J-720401D01*
G01*
X62978850Y-23388250D02*
G75*
G03*
X62825115Y-23759435I371150J-371150D01*
G01*
X69183466Y-32181966D02*
G75*
G02*
X69369440Y-32630850I-448866J-448934D01*
G01*
D21*
%TO.N,Net-(R28-Pad2)*%
X36685515Y-12764484D02*
X26461311Y-22988688D01*
X46304912Y-8780000D02*
X57527138Y-8780000D01*
X26314724Y-27483724D02*
X27096200Y-28265200D01*
X58137600Y-9390461D02*
X58137600Y-9662600D01*
X25500000Y-25309500D02*
X25500000Y-25516807D01*
X25500000Y-25516807D02*
G75*
G03*
X26314736Y-27483712I2781600J7D01*
G01*
X57958800Y-8958800D02*
G75*
G02*
X58137616Y-9390461I-431700J-431700D01*
G01*
X57958800Y-8958800D02*
G75*
G03*
X57527138Y-8779984I-431700J-431700D01*
G01*
X46304912Y-8780000D02*
G75*
G03*
X36685506Y-12764475I-12J-13603900D01*
G01*
X26461311Y-22988688D02*
G75*
G03*
X25499992Y-25309500I2320789J-2320812D01*
G01*
D22*
%TO.N,Net-(R29-Pad2)*%
X61500000Y-37083236D02*
X61500000Y-42950000D01*
X62821750Y-33892250D02*
X64143500Y-32570500D01*
X62821750Y-33892250D02*
G75*
G03*
X61500015Y-37083236I3190950J-3190950D01*
G01*
%TD*%
%TA.AperFunction,Conductor*%
%TO.N,VBUS*%
G36*
X79592160Y-25518907D02*
G01*
X79608789Y-25534169D01*
X79655752Y-25588368D01*
X79723102Y-25631651D01*
X79764731Y-25658404D01*
X79889028Y-25694900D01*
X79889030Y-25694900D01*
X80018570Y-25694900D01*
X80018572Y-25694900D01*
X80142869Y-25658404D01*
X80251849Y-25588367D01*
X80298811Y-25534168D01*
X80351207Y-25502573D01*
X80373631Y-25500000D01*
X83592210Y-25500000D01*
X83607696Y-25501219D01*
X83620579Y-25503259D01*
X83708121Y-25517124D01*
X83737576Y-25526695D01*
X83821141Y-25569274D01*
X83846200Y-25587479D01*
X83912520Y-25653799D01*
X83930725Y-25678858D01*
X83973304Y-25762423D01*
X83982876Y-25791881D01*
X83998781Y-25892303D01*
X84000000Y-25907790D01*
X84000000Y-35579528D01*
X83981093Y-35637719D01*
X83954524Y-35662812D01*
X83868872Y-35717857D01*
X83774622Y-35826628D01*
X83714834Y-35957543D01*
X83694353Y-36099997D01*
X83694353Y-36100002D01*
X83714834Y-36242456D01*
X83774622Y-36373371D01*
X83774623Y-36373373D01*
X83868872Y-36482143D01*
X83868873Y-36482144D01*
X83907767Y-36507139D01*
X83954523Y-36537187D01*
X83993254Y-36584552D01*
X84000000Y-36620471D01*
X84000000Y-39045672D01*
X83981093Y-39103863D01*
X83973315Y-39112338D01*
X83973509Y-39112506D01*
X83874622Y-39226628D01*
X83814834Y-39357543D01*
X83794353Y-39499997D01*
X83794353Y-39500002D01*
X83814834Y-39642456D01*
X83874622Y-39773371D01*
X83874623Y-39773373D01*
X83968872Y-39882143D01*
X83968873Y-39882143D01*
X83973510Y-39887495D01*
X83971627Y-39889125D01*
X83997424Y-39931889D01*
X84000000Y-39954327D01*
X84000000Y-42079528D01*
X83981093Y-42137719D01*
X83954524Y-42162812D01*
X83868872Y-42217857D01*
X83774622Y-42326628D01*
X83714834Y-42457543D01*
X83694353Y-42599997D01*
X83694353Y-42600002D01*
X83714834Y-42742456D01*
X83774622Y-42873371D01*
X83774623Y-42873373D01*
X83868872Y-42982143D01*
X83868873Y-42982144D01*
X83907767Y-43007139D01*
X83954523Y-43037187D01*
X83993254Y-43084552D01*
X84000000Y-43120471D01*
X84000000Y-49941908D01*
X83981093Y-50000099D01*
X83931593Y-50036063D01*
X83870407Y-50036063D01*
X83830997Y-50011912D01*
X83794041Y-49974957D01*
X83794036Y-49974952D01*
X83536863Y-49773470D01*
X83536862Y-49773469D01*
X83536859Y-49773467D01*
X83257283Y-49604457D01*
X82959362Y-49470373D01*
X82647450Y-49373178D01*
X82326104Y-49314289D01*
X82326107Y-49314289D01*
X82000006Y-49294564D01*
X81999994Y-49294564D01*
X81673894Y-49314289D01*
X81352549Y-49373178D01*
X81352548Y-49373178D01*
X81040637Y-49470373D01*
X80742716Y-49604457D01*
X80463140Y-49773467D01*
X80205970Y-49974947D01*
X80205967Y-49974949D01*
X79974949Y-50205967D01*
X79974947Y-50205970D01*
X79774317Y-50462055D01*
X79723546Y-50496201D01*
X79696386Y-50500000D01*
X77288002Y-50500000D01*
X77229811Y-50481093D01*
X77227735Y-50479542D01*
X77015153Y-50316423D01*
X76765346Y-50172196D01*
X76765341Y-50172194D01*
X76498846Y-50061809D01*
X76312626Y-50011912D01*
X76220217Y-49987151D01*
X76220214Y-49987150D01*
X76220212Y-49987150D01*
X75934229Y-49949500D01*
X75934228Y-49949500D01*
X73099000Y-49949500D01*
X73040809Y-49930593D01*
X73004845Y-49881093D01*
X73000000Y-49850500D01*
X73000000Y-47907790D01*
X73001219Y-47892304D01*
X73002914Y-47881598D01*
X73017124Y-47791876D01*
X73026695Y-47762423D01*
X73069274Y-47678858D01*
X73087476Y-47653802D01*
X73153802Y-47587476D01*
X73178858Y-47569274D01*
X73262423Y-47526695D01*
X73291876Y-47517124D01*
X73381598Y-47502914D01*
X73392304Y-47501219D01*
X73407790Y-47500000D01*
X74812649Y-47500000D01*
X74812650Y-47500000D01*
X75000000Y-47500000D01*
X75119936Y-47356076D01*
X75119939Y-47356074D01*
X79907289Y-41611254D01*
X79907290Y-41611251D01*
X80000000Y-41500000D01*
X80000000Y-37596354D01*
X80001008Y-37582264D01*
X80005647Y-37550001D01*
X80005647Y-37549998D01*
X80001008Y-37517733D01*
X80000000Y-37503644D01*
X80000000Y-37094426D01*
X80000000Y-37000000D01*
X79855221Y-36710443D01*
X79846109Y-36649943D01*
X79854569Y-36623229D01*
X79894969Y-36539337D01*
X79978952Y-36299317D01*
X80035533Y-36051403D01*
X80043360Y-35981922D01*
X80068663Y-35926214D01*
X80088216Y-35909720D01*
X80131128Y-35882143D01*
X80225377Y-35773373D01*
X80285165Y-35642457D01*
X80305647Y-35500000D01*
X80285165Y-35357543D01*
X80225377Y-35226627D01*
X80131128Y-35117857D01*
X80131127Y-35117856D01*
X80131126Y-35117855D01*
X80010057Y-35040049D01*
X80010054Y-35040047D01*
X80010053Y-35040047D01*
X80010050Y-35040046D01*
X79871964Y-34999500D01*
X79871961Y-34999500D01*
X79728039Y-34999500D01*
X79728035Y-34999500D01*
X79589949Y-35040046D01*
X79589942Y-35040049D01*
X79468873Y-35117855D01*
X79374622Y-35226627D01*
X79335891Y-35311435D01*
X79294518Y-35356512D01*
X79234551Y-35368661D01*
X79178895Y-35343243D01*
X79157290Y-35314581D01*
X79155717Y-35311435D01*
X79044798Y-35089596D01*
X79040272Y-35079058D01*
X79014629Y-35008312D01*
X79009367Y-34986025D01*
X79000664Y-34911276D01*
X79000000Y-34899827D01*
X79000000Y-31751045D01*
X80737511Y-31751045D01*
X80737511Y-31889036D01*
X80755174Y-31977829D01*
X80759945Y-32001819D01*
X80764431Y-32024368D01*
X80764431Y-32024370D01*
X80817233Y-32151847D01*
X80817239Y-32151858D01*
X80893896Y-32266582D01*
X80991469Y-32364155D01*
X81106193Y-32440812D01*
X81106204Y-32440818D01*
X81153294Y-32460323D01*
X81233683Y-32493621D01*
X81369018Y-32520541D01*
X81369019Y-32520541D01*
X82807003Y-32520541D01*
X82807004Y-32520541D01*
X82942339Y-32493621D01*
X83069822Y-32440816D01*
X83184553Y-32364155D01*
X83282125Y-32266583D01*
X83358786Y-32151852D01*
X83411591Y-32024369D01*
X83438511Y-31889034D01*
X83438511Y-31751048D01*
X83411591Y-31615713D01*
X83393989Y-31573218D01*
X83358788Y-31488234D01*
X83358782Y-31488223D01*
X83282125Y-31373499D01*
X83184552Y-31275926D01*
X83069828Y-31199269D01*
X83069817Y-31199263D01*
X82942339Y-31146461D01*
X82807006Y-31119541D01*
X82807004Y-31119541D01*
X81369018Y-31119541D01*
X81369015Y-31119541D01*
X81233683Y-31146461D01*
X81233681Y-31146461D01*
X81106204Y-31199263D01*
X81106193Y-31199269D01*
X80991469Y-31275926D01*
X80893896Y-31373499D01*
X80817239Y-31488223D01*
X80817233Y-31488234D01*
X80764431Y-31615711D01*
X80764431Y-31615713D01*
X80737511Y-31751045D01*
X79000000Y-31751045D01*
X79000000Y-31494153D01*
X79018907Y-31435962D01*
X79068407Y-31399998D01*
X79073351Y-31398534D01*
X79092241Y-31393473D01*
X79212984Y-31323762D01*
X79311570Y-31225176D01*
X79360569Y-31140306D01*
X79381279Y-31104437D01*
X79381279Y-31104435D01*
X79381281Y-31104433D01*
X79417366Y-30969762D01*
X79417366Y-30830340D01*
X79381281Y-30695669D01*
X79381279Y-30695666D01*
X79381279Y-30695664D01*
X79311571Y-30574928D01*
X79311570Y-30574926D01*
X79212984Y-30476340D01*
X79212981Y-30476338D01*
X79092244Y-30406630D01*
X79092243Y-30406629D01*
X79073374Y-30401573D01*
X79022060Y-30368247D01*
X79000136Y-30311125D01*
X79000000Y-30305947D01*
X79000000Y-29899996D01*
X79000000Y-29500000D01*
X78600003Y-29500000D01*
X75907791Y-29500000D01*
X75892303Y-29498781D01*
X75837635Y-29490122D01*
X75783119Y-29462344D01*
X75765813Y-29439009D01*
X75728133Y-29368515D01*
X75720706Y-29350586D01*
X75690453Y-29250857D01*
X75686667Y-29231823D01*
X75675977Y-29123300D01*
X75675500Y-29113595D01*
X75675500Y-25631651D01*
X75694407Y-25573460D01*
X75729551Y-25543444D01*
X75762427Y-25526693D01*
X75791875Y-25517124D01*
X75883754Y-25502573D01*
X75892304Y-25501219D01*
X75907790Y-25500000D01*
X79533969Y-25500000D01*
X79592160Y-25518907D01*
G37*
%TD.AperFunction*%
%TD*%
%TA.AperFunction,Conductor*%
%TO.N,GND*%
G36*
X56816730Y-53830563D02*
G01*
X56878180Y-53888209D01*
X56878183Y-53888211D01*
X56878185Y-53888213D01*
X57107360Y-54054539D01*
X57107362Y-54054540D01*
X57355584Y-54190834D01*
X57618931Y-54294944D01*
X57618941Y-54294946D01*
X57618945Y-54294948D01*
X57851765Y-54354598D01*
X57903442Y-54387356D01*
X57925995Y-54444233D01*
X57910810Y-54503504D01*
X57863686Y-54542529D01*
X57827194Y-54549500D01*
X56749000Y-54549500D01*
X56690809Y-54530593D01*
X56654845Y-54481093D01*
X56650000Y-54450500D01*
X56650000Y-53902768D01*
X56668907Y-53844577D01*
X56718407Y-53808613D01*
X56779593Y-53808613D01*
X56816730Y-53830563D01*
G37*
%TD.AperFunction*%
%TA.AperFunction,Conductor*%
G36*
X79449493Y-50774407D02*
G01*
X79485457Y-50823907D01*
X79485457Y-50885093D01*
X79481580Y-50895131D01*
X79424006Y-51023052D01*
X79325029Y-51340680D01*
X79325029Y-51340682D01*
X79265062Y-51667904D01*
X79265059Y-51667928D01*
X79244974Y-51999993D01*
X79244974Y-52000006D01*
X79265059Y-52332071D01*
X79265062Y-52332095D01*
X79325029Y-52659317D01*
X79325029Y-52659319D01*
X79424006Y-52976947D01*
X79560543Y-53280317D01*
X79560554Y-53280338D01*
X79732649Y-53565019D01*
X79732662Y-53565038D01*
X79937828Y-53826913D01*
X79937830Y-53826916D01*
X79967068Y-53856154D01*
X80109163Y-53714058D01*
X80163679Y-53686280D01*
X80224112Y-53695851D01*
X80253986Y-53719230D01*
X80288126Y-53758630D01*
X80311944Y-53814989D01*
X80298085Y-53874585D01*
X80283311Y-53893464D01*
X80143845Y-54032931D01*
X80173083Y-54062169D01*
X80173086Y-54062171D01*
X80434961Y-54267337D01*
X80434980Y-54267350D01*
X80597800Y-54365778D01*
X80637817Y-54412062D01*
X80642987Y-54473029D01*
X80611333Y-54525390D01*
X80554948Y-54549146D01*
X80546584Y-54549500D01*
X76282185Y-54549500D01*
X76223994Y-54530593D01*
X76188030Y-54481093D01*
X76188030Y-54419907D01*
X76223994Y-54370407D01*
X76256557Y-54354875D01*
X76514952Y-54285639D01*
X76787507Y-54172743D01*
X77042994Y-54025238D01*
X77062608Y-54010186D01*
X77094982Y-53993739D01*
X77210053Y-53959953D01*
X77331128Y-53882143D01*
X77425377Y-53773373D01*
X77485165Y-53642457D01*
X77485165Y-53642452D01*
X77485896Y-53640853D01*
X77497403Y-53621718D01*
X77665238Y-53402994D01*
X77812743Y-53147507D01*
X77925639Y-52874952D01*
X78001993Y-52589993D01*
X78040500Y-52297506D01*
X78040500Y-52002494D01*
X78001993Y-51710007D01*
X77925639Y-51425048D01*
X77812743Y-51152493D01*
X77669276Y-50904000D01*
X77656555Y-50844151D01*
X77681442Y-50788256D01*
X77734430Y-50757663D01*
X77755013Y-50755500D01*
X79391302Y-50755500D01*
X79449493Y-50774407D01*
G37*
%TD.AperFunction*%
%TA.AperFunction,Conductor*%
G36*
X81016459Y-53137779D02*
G01*
X81007890Y-53142145D01*
X80947458Y-53132574D01*
X80917583Y-53109195D01*
X80883444Y-53069796D01*
X80859627Y-53013436D01*
X80865756Y-52987076D01*
X81016459Y-53137779D01*
G37*
%TD.AperFunction*%
%TA.AperFunction,Conductor*%
G36*
X80604775Y-469407D02*
G01*
X80640739Y-518907D01*
X80640739Y-580093D01*
X80604775Y-629593D01*
X80597800Y-634222D01*
X80434980Y-732649D01*
X80434961Y-732662D01*
X80173086Y-937828D01*
X80173083Y-937830D01*
X80143845Y-967068D01*
X80283311Y-1106535D01*
X80311088Y-1161051D01*
X80301517Y-1221483D01*
X80288127Y-1241369D01*
X80253988Y-1280768D01*
X80201592Y-1312364D01*
X80140631Y-1307128D01*
X80109165Y-1285941D01*
X79967068Y-1143845D01*
X79937830Y-1173083D01*
X79937828Y-1173086D01*
X79732662Y-1434961D01*
X79732649Y-1434980D01*
X79560554Y-1719661D01*
X79560543Y-1719682D01*
X79424006Y-2023052D01*
X79325029Y-2340680D01*
X79325029Y-2340682D01*
X79265062Y-2667904D01*
X79265059Y-2667928D01*
X79244974Y-2999993D01*
X79244974Y-3000006D01*
X79265059Y-3332071D01*
X79265062Y-3332095D01*
X79325029Y-3659317D01*
X79325029Y-3659319D01*
X79424006Y-3976947D01*
X79560543Y-4280317D01*
X79560554Y-4280338D01*
X79732649Y-4565019D01*
X79732662Y-4565038D01*
X79937828Y-4826913D01*
X79937830Y-4826916D01*
X79967068Y-4856154D01*
X80109163Y-4714058D01*
X80163679Y-4686280D01*
X80224112Y-4695851D01*
X80253986Y-4719230D01*
X80288126Y-4758630D01*
X80311944Y-4814989D01*
X80298085Y-4874585D01*
X80283311Y-4893464D01*
X80143845Y-5032931D01*
X80173083Y-5062169D01*
X80173086Y-5062171D01*
X80434961Y-5267337D01*
X80434980Y-5267350D01*
X80719661Y-5439445D01*
X80719682Y-5439456D01*
X81023052Y-5575993D01*
X81340681Y-5674970D01*
X81667904Y-5734937D01*
X81667928Y-5734940D01*
X81999994Y-5755026D01*
X82000006Y-5755026D01*
X82332071Y-5734940D01*
X82332095Y-5734937D01*
X82659317Y-5674970D01*
X82659319Y-5674970D01*
X82976947Y-5575993D01*
X83280317Y-5439456D01*
X83280338Y-5439445D01*
X83565019Y-5267350D01*
X83565038Y-5267337D01*
X83826913Y-5062171D01*
X83826916Y-5062169D01*
X83856154Y-5032932D01*
X83716688Y-4893466D01*
X83688911Y-4838949D01*
X83698482Y-4778517D01*
X83711872Y-4758632D01*
X83715940Y-4753937D01*
X83746013Y-4719230D01*
X83798406Y-4687635D01*
X83859367Y-4692870D01*
X83890834Y-4714058D01*
X84032931Y-4856154D01*
X84062169Y-4826916D01*
X84062171Y-4826913D01*
X84267337Y-4565038D01*
X84267350Y-4565019D01*
X84365778Y-4402200D01*
X84412062Y-4362183D01*
X84473029Y-4357013D01*
X84525390Y-4388667D01*
X84549146Y-4445052D01*
X84549500Y-4453416D01*
X84549500Y-13898423D01*
X84549797Y-13902204D01*
X84546730Y-13935569D01*
X84545500Y-13940164D01*
X84545500Y-14059836D01*
X84576473Y-14175431D01*
X84576474Y-14175433D01*
X84619814Y-14250501D01*
X84632535Y-14310349D01*
X84619814Y-14349499D01*
X84576474Y-14424566D01*
X84576473Y-14424568D01*
X84576473Y-14424569D01*
X84545500Y-14540164D01*
X84545500Y-14659836D01*
X84576059Y-14773886D01*
X84576474Y-14775433D01*
X84619814Y-14850501D01*
X84632535Y-14910349D01*
X84619814Y-14949499D01*
X84576474Y-15024566D01*
X84576473Y-15024568D01*
X84576473Y-15024569D01*
X84545500Y-15140164D01*
X84545500Y-15259836D01*
X84576346Y-15374957D01*
X84576474Y-15375433D01*
X84619814Y-15450501D01*
X84632535Y-15510349D01*
X84619814Y-15549499D01*
X84576474Y-15624566D01*
X84576473Y-15624568D01*
X84576473Y-15624569D01*
X84545500Y-15740164D01*
X84545500Y-15859836D01*
X84570757Y-15954098D01*
X84576474Y-15975433D01*
X84619814Y-16050501D01*
X84632535Y-16110349D01*
X84619814Y-16149499D01*
X84576474Y-16224566D01*
X84576473Y-16224568D01*
X84576473Y-16224569D01*
X84545500Y-16340164D01*
X84545500Y-16459836D01*
X84548066Y-16469412D01*
X84576474Y-16575433D01*
X84619814Y-16650501D01*
X84632535Y-16710349D01*
X84619814Y-16749499D01*
X84576474Y-16824566D01*
X84576473Y-16824568D01*
X84576473Y-16824569D01*
X84545500Y-16940164D01*
X84545500Y-17059836D01*
X84576473Y-17175431D01*
X84613903Y-17240262D01*
X84619814Y-17250499D01*
X84632535Y-17310348D01*
X84619814Y-17349498D01*
X84576474Y-17424566D01*
X84576473Y-17424568D01*
X84576473Y-17424569D01*
X84547860Y-17531359D01*
X84545500Y-17540165D01*
X84545500Y-17659839D01*
X84546730Y-17664429D01*
X84549797Y-17697796D01*
X84549500Y-17701576D01*
X84549500Y-37298423D01*
X84549797Y-37302204D01*
X84546731Y-37335569D01*
X84546190Y-37337590D01*
X84545500Y-37340164D01*
X84545500Y-37459836D01*
X84572492Y-37560572D01*
X84576474Y-37575433D01*
X84619814Y-37650501D01*
X84632535Y-37710349D01*
X84619814Y-37749499D01*
X84576474Y-37824566D01*
X84576473Y-37824568D01*
X84576473Y-37824569D01*
X84545500Y-37940164D01*
X84545500Y-38059836D01*
X84565416Y-38134164D01*
X84576474Y-38175433D01*
X84619814Y-38250501D01*
X84632535Y-38310349D01*
X84619814Y-38349499D01*
X84576474Y-38424566D01*
X84576473Y-38424568D01*
X84576473Y-38424569D01*
X84545500Y-38540164D01*
X84545500Y-38659836D01*
X84553412Y-38689363D01*
X84576474Y-38775433D01*
X84619814Y-38850501D01*
X84632535Y-38910349D01*
X84619814Y-38949499D01*
X84576474Y-39024566D01*
X84576473Y-39024568D01*
X84576473Y-39024569D01*
X84545500Y-39140164D01*
X84545500Y-39259836D01*
X84576473Y-39375431D01*
X84576474Y-39375433D01*
X84619814Y-39450501D01*
X84632535Y-39510349D01*
X84619814Y-39549499D01*
X84576474Y-39624566D01*
X84576473Y-39624568D01*
X84576473Y-39624569D01*
X84545500Y-39740164D01*
X84545500Y-39859836D01*
X84572325Y-39959950D01*
X84576474Y-39975433D01*
X84619814Y-40050501D01*
X84632535Y-40110349D01*
X84619814Y-40149499D01*
X84576474Y-40224566D01*
X84576473Y-40224568D01*
X84576473Y-40224569D01*
X84545500Y-40340164D01*
X84545500Y-40459836D01*
X84564531Y-40530861D01*
X84576473Y-40575431D01*
X84619814Y-40650499D01*
X84632535Y-40710348D01*
X84619814Y-40749498D01*
X84576474Y-40824566D01*
X84545500Y-40940165D01*
X84545500Y-41059839D01*
X84546730Y-41064429D01*
X84549797Y-41097796D01*
X84549500Y-41101576D01*
X84549500Y-50546583D01*
X84530593Y-50604774D01*
X84481093Y-50640738D01*
X84419907Y-50640738D01*
X84370407Y-50604774D01*
X84365778Y-50597799D01*
X84267350Y-50434980D01*
X84267337Y-50434961D01*
X84162783Y-50301508D01*
X84141779Y-50244041D01*
X84158565Y-50185203D01*
X84173510Y-50167758D01*
X84175378Y-50166032D01*
X84224088Y-50079051D01*
X84242995Y-50020860D01*
X84242996Y-50020855D01*
X84255500Y-49941911D01*
X84255500Y-43120477D01*
X84255499Y-43120463D01*
X84251110Y-43073312D01*
X84251110Y-43073310D01*
X84244364Y-43037391D01*
X84237883Y-43010818D01*
X84191045Y-42922815D01*
X84152314Y-42875450D01*
X84092656Y-42822246D01*
X84049881Y-42794756D01*
X84028588Y-42776305D01*
X84001093Y-42744574D01*
X83985859Y-42720869D01*
X83968419Y-42682681D01*
X83960480Y-42655645D01*
X83954505Y-42614083D01*
X83954505Y-42585914D01*
X83960480Y-42544351D01*
X83968416Y-42517321D01*
X83985860Y-42479125D01*
X84001090Y-42455428D01*
X84028587Y-42423694D01*
X84049880Y-42405242D01*
X84092657Y-42377753D01*
X84129957Y-42348564D01*
X84156526Y-42323471D01*
X84175378Y-42303652D01*
X84224088Y-42216671D01*
X84242995Y-42158480D01*
X84255500Y-42079528D01*
X84255500Y-39954327D01*
X84253833Y-39925186D01*
X84251257Y-39902748D01*
X84251256Y-39902735D01*
X84250052Y-39893690D01*
X84250051Y-39893682D01*
X84216200Y-39799914D01*
X84190403Y-39757150D01*
X84176619Y-39734301D01*
X84176483Y-39734216D01*
X84169458Y-39724135D01*
X84169424Y-39724160D01*
X84166614Y-39720189D01*
X84161273Y-39714025D01*
X84161198Y-39713940D01*
X84101091Y-39644572D01*
X84085859Y-39620871D01*
X84068417Y-39582678D01*
X84060480Y-39555645D01*
X84054505Y-39514083D01*
X84054505Y-39485914D01*
X84060480Y-39444351D01*
X84068416Y-39417321D01*
X84085860Y-39379125D01*
X84101091Y-39355427D01*
X84121684Y-39331662D01*
X84166603Y-39279823D01*
X84166653Y-39279765D01*
X84166654Y-39279762D01*
X84169813Y-39276100D01*
X84169865Y-39276145D01*
X84170691Y-39275089D01*
X84175378Y-39269796D01*
X84224088Y-39182815D01*
X84242995Y-39124624D01*
X84255500Y-39045672D01*
X84255500Y-36620471D01*
X84251110Y-36573310D01*
X84244364Y-36537391D01*
X84237883Y-36510818D01*
X84191045Y-36422815D01*
X84152314Y-36375450D01*
X84092656Y-36322246D01*
X84049881Y-36294756D01*
X84028588Y-36276305D01*
X84001093Y-36244574D01*
X83985859Y-36220869D01*
X83968419Y-36182681D01*
X83960480Y-36155645D01*
X83958032Y-36138617D01*
X83954505Y-36114083D01*
X83954505Y-36085914D01*
X83960480Y-36044351D01*
X83968416Y-36017321D01*
X83985860Y-35979125D01*
X84001090Y-35955428D01*
X84007375Y-35948175D01*
X84028588Y-35923692D01*
X84049880Y-35905242D01*
X84092657Y-35877753D01*
X84129957Y-35848564D01*
X84156526Y-35823471D01*
X84175378Y-35803652D01*
X84224088Y-35716671D01*
X84242995Y-35658480D01*
X84242996Y-35658475D01*
X84255500Y-35579531D01*
X84255500Y-25907800D01*
X84255500Y-25907790D01*
X84254712Y-25887741D01*
X84253493Y-25872254D01*
X84251135Y-25852335D01*
X84235230Y-25751913D01*
X84225870Y-25712923D01*
X84216298Y-25683465D01*
X84200956Y-25646427D01*
X84158377Y-25562862D01*
X84137434Y-25528687D01*
X84119229Y-25503628D01*
X84093186Y-25473133D01*
X84026866Y-25406813D01*
X83996371Y-25380770D01*
X83993728Y-25378850D01*
X83971313Y-25362565D01*
X83937136Y-25341621D01*
X83886441Y-25315791D01*
X83853572Y-25299043D01*
X83816534Y-25283701D01*
X83816519Y-25283696D01*
X83787078Y-25274129D01*
X83787071Y-25274127D01*
X83748081Y-25264767D01*
X83658947Y-25250650D01*
X83658896Y-25250641D01*
X83647655Y-25248862D01*
X83627764Y-25246509D01*
X83627760Y-25246508D01*
X83627746Y-25246507D01*
X83615557Y-25245547D01*
X83612262Y-25245288D01*
X83609175Y-25245166D01*
X83592210Y-25244500D01*
X83592199Y-25244500D01*
X80545246Y-25244500D01*
X80487055Y-25225593D01*
X80451091Y-25176093D01*
X80447254Y-25159589D01*
X80438965Y-25101943D01*
X80425917Y-25073373D01*
X80379177Y-24971027D01*
X80303480Y-24883667D01*
X80279663Y-24827307D01*
X80279300Y-24818836D01*
X80279300Y-23317201D01*
X80279301Y-23317194D01*
X80279301Y-23276192D01*
X80279302Y-23276192D01*
X80279301Y-23106040D01*
X80687511Y-23106040D01*
X80687511Y-23253877D01*
X80716353Y-23398873D01*
X80772926Y-23535452D01*
X80772927Y-23535454D01*
X80855060Y-23658375D01*
X80959595Y-23762910D01*
X81082516Y-23845043D01*
X81219098Y-23901617D01*
X81364093Y-23930459D01*
X81364094Y-23930459D01*
X82811928Y-23930459D01*
X82811929Y-23930459D01*
X82956924Y-23901617D01*
X83093506Y-23845043D01*
X83216427Y-23762910D01*
X83320962Y-23658375D01*
X83403095Y-23535454D01*
X83459669Y-23398872D01*
X83488511Y-23253877D01*
X83488511Y-23106041D01*
X83459669Y-22961046D01*
X83403095Y-22824464D01*
X83320962Y-22701543D01*
X83216427Y-22597008D01*
X83093506Y-22514875D01*
X83078987Y-22508861D01*
X82956925Y-22458301D01*
X82811929Y-22429459D01*
X81364093Y-22429459D01*
X81364092Y-22429459D01*
X81219096Y-22458301D01*
X81082517Y-22514874D01*
X80959596Y-22597007D01*
X80855059Y-22701544D01*
X80772926Y-22824465D01*
X80716353Y-22961044D01*
X80687511Y-23106040D01*
X80279301Y-23106040D01*
X80279301Y-23087639D01*
X80279301Y-23087630D01*
X80246434Y-22711970D01*
X80246434Y-22711967D01*
X80230892Y-22623822D01*
X80180949Y-22340588D01*
X80096635Y-22025925D01*
X80083349Y-21976341D01*
X80083348Y-21976340D01*
X80083346Y-21976330D01*
X79954367Y-21621965D01*
X79794995Y-21280189D01*
X79702963Y-21120785D01*
X79606447Y-20953615D01*
X79606433Y-20953593D01*
X79390146Y-20644704D01*
X79390134Y-20644688D01*
X79147744Y-20355819D01*
X79050360Y-20258434D01*
X79050358Y-20258432D01*
X79044715Y-20252789D01*
X79044715Y-20252788D01*
X78149343Y-19357416D01*
X78121566Y-19302899D01*
X78120347Y-19287412D01*
X78120347Y-19283097D01*
X78099865Y-19140643D01*
X78082625Y-19102894D01*
X78040077Y-19009727D01*
X77945828Y-18900957D01*
X77945827Y-18900956D01*
X77945826Y-18900955D01*
X77824757Y-18823149D01*
X77824754Y-18823147D01*
X77824753Y-18823147D01*
X77824750Y-18823146D01*
X77686664Y-18782600D01*
X77686661Y-18782600D01*
X77542739Y-18782600D01*
X77542735Y-18782600D01*
X77404649Y-18823146D01*
X77404642Y-18823149D01*
X77283572Y-18900956D01*
X77283570Y-18900958D01*
X77205277Y-18991313D01*
X77152881Y-19022909D01*
X77091920Y-19017673D01*
X77045679Y-18977605D01*
X77031821Y-18918010D01*
X77036300Y-18895902D01*
X77072679Y-18783934D01*
X77072680Y-18783930D01*
X77092650Y-18657839D01*
X77092650Y-18608342D01*
X77092651Y-18608339D01*
X77092650Y-18597809D01*
X77092667Y-18597756D01*
X77092666Y-18556785D01*
X77092667Y-18556785D01*
X77092665Y-18485741D01*
X77064940Y-18346382D01*
X77010557Y-18215111D01*
X76931608Y-18096974D01*
X76923467Y-18088835D01*
X76923462Y-18088828D01*
X76910391Y-18075759D01*
X76910342Y-18075663D01*
X76831151Y-17996488D01*
X76763061Y-17951001D01*
X76713002Y-17917559D01*
X76690638Y-17908298D01*
X76644110Y-17868567D01*
X76629820Y-17809073D01*
X76638464Y-17775702D01*
X76641129Y-17769866D01*
X76643965Y-17763657D01*
X76664447Y-17621200D01*
X76662712Y-17609136D01*
X76643965Y-17478743D01*
X76597794Y-17377644D01*
X76584177Y-17347827D01*
X76489928Y-17239057D01*
X76489927Y-17239056D01*
X76489926Y-17239055D01*
X76427477Y-17198922D01*
X76388746Y-17151556D01*
X76382000Y-17115638D01*
X76382000Y-13744588D01*
X76382002Y-13744551D01*
X76382002Y-13736597D01*
X76382003Y-13736594D01*
X76382002Y-13726061D01*
X76382017Y-13726013D01*
X76382015Y-13685040D01*
X76382016Y-13685040D01*
X76382012Y-13612710D01*
X76381651Y-13610434D01*
X76359376Y-13469844D01*
X76359375Y-13469840D01*
X76359374Y-13469832D01*
X76314667Y-13332254D01*
X76248989Y-13203363D01*
X76248987Y-13203360D01*
X76163959Y-13086333D01*
X76117397Y-13039770D01*
X76108864Y-13030041D01*
X76078139Y-12989999D01*
X76065221Y-12967625D01*
X76048408Y-12927039D01*
X76041722Y-12902090D01*
X76035146Y-12852162D01*
X76034300Y-12839249D01*
X76034300Y-12522080D01*
X76034301Y-12522055D01*
X76034301Y-12514093D01*
X76034302Y-12514090D01*
X76034301Y-12503562D01*
X76034320Y-12503502D01*
X76034318Y-12462536D01*
X76034319Y-12462536D01*
X76034314Y-12365203D01*
X76015362Y-12245576D01*
X76003854Y-12172938D01*
X75998804Y-12157398D01*
X75943692Y-11987797D01*
X75855312Y-11814349D01*
X75740888Y-11656862D01*
X75740887Y-11656860D01*
X75675497Y-11591470D01*
X75668973Y-11584272D01*
X75644956Y-11555008D01*
X75605397Y-11506805D01*
X75594616Y-11490670D01*
X75552675Y-11412208D01*
X75549672Y-11406590D01*
X75542252Y-11388678D01*
X75514569Y-11297430D01*
X75510786Y-11278409D01*
X75500977Y-11178862D01*
X75500500Y-11169154D01*
X75500500Y-10896497D01*
X75519407Y-10838306D01*
X75568907Y-10802342D01*
X75630093Y-10802342D01*
X75651617Y-10812326D01*
X75807581Y-10908895D01*
X75807586Y-10908898D01*
X75997683Y-10982541D01*
X76174999Y-11015687D01*
X76175000Y-11015687D01*
X76175000Y-10404144D01*
X76234174Y-10420000D01*
X76365826Y-10420000D01*
X76425000Y-10404144D01*
X76425000Y-11015687D01*
X76602316Y-10982541D01*
X76792413Y-10908898D01*
X76792418Y-10908895D01*
X76965733Y-10801582D01*
X77116391Y-10664240D01*
X77239244Y-10501557D01*
X77239249Y-10501548D01*
X77330112Y-10319070D01*
X77385902Y-10122989D01*
X77393129Y-10045000D01*
X76784144Y-10045000D01*
X76800000Y-9985826D01*
X76800000Y-9854174D01*
X76784144Y-9795000D01*
X77393129Y-9795000D01*
X77385902Y-9717010D01*
X77330112Y-9520929D01*
X77239249Y-9338451D01*
X77239244Y-9338442D01*
X77116391Y-9175759D01*
X76965733Y-9038417D01*
X76792418Y-8931104D01*
X76792413Y-8931101D01*
X76602316Y-8857458D01*
X76425000Y-8824311D01*
X76425000Y-9435855D01*
X76365826Y-9420000D01*
X76234174Y-9420000D01*
X76175000Y-9435855D01*
X76175000Y-8824312D01*
X76174999Y-8824311D01*
X75997683Y-8857458D01*
X75807587Y-8931101D01*
X75703462Y-8995573D01*
X75644033Y-9010131D01*
X75587398Y-8986977D01*
X75555188Y-8934956D01*
X75557599Y-8879579D01*
X75577369Y-8821339D01*
X75582814Y-8805299D01*
X81739450Y-8805299D01*
X81739450Y-8805300D01*
X81758369Y-8949008D01*
X81758370Y-8949009D01*
X81809562Y-9072601D01*
X81813839Y-9082925D01*
X81813841Y-9082928D01*
X81813842Y-9082929D01*
X81902076Y-9197918D01*
X81902077Y-9197919D01*
X81902079Y-9197921D01*
X81935766Y-9223770D01*
X81970423Y-9274193D01*
X81974500Y-9302312D01*
X81974500Y-12907053D01*
X81955593Y-12965244D01*
X81935769Y-12985594D01*
X81907381Y-13007377D01*
X81907377Y-13007381D01*
X81819139Y-13122374D01*
X81819137Y-13122378D01*
X81763670Y-13256290D01*
X81763669Y-13256291D01*
X81744750Y-13399999D01*
X81744750Y-13400000D01*
X81763669Y-13543708D01*
X81763670Y-13543709D01*
X81816624Y-13671555D01*
X81819139Y-13677625D01*
X81907379Y-13792621D01*
X82022375Y-13880861D01*
X82156291Y-13936330D01*
X82300000Y-13955250D01*
X82443709Y-13936330D01*
X82577625Y-13880861D01*
X82692621Y-13792621D01*
X82780861Y-13677625D01*
X82836330Y-13543709D01*
X82855250Y-13400000D01*
X82836330Y-13256291D01*
X82780861Y-13122375D01*
X82692621Y-13007379D01*
X82664231Y-12985594D01*
X82629576Y-12935168D01*
X82625500Y-12907053D01*
X82625500Y-9294179D01*
X82644407Y-9235988D01*
X82664233Y-9215637D01*
X82668629Y-9212264D01*
X82687321Y-9197921D01*
X82775561Y-9082925D01*
X82831030Y-8949009D01*
X82849950Y-8805300D01*
X82848913Y-8797427D01*
X82831030Y-8661591D01*
X82775561Y-8527675D01*
X82687321Y-8412679D01*
X82572325Y-8324439D01*
X82572321Y-8324437D01*
X82438409Y-8268970D01*
X82438408Y-8268969D01*
X82294700Y-8250050D01*
X82150991Y-8268969D01*
X82150990Y-8268970D01*
X82017078Y-8324437D01*
X82017074Y-8324439D01*
X81902081Y-8412677D01*
X81902077Y-8412681D01*
X81813839Y-8527674D01*
X81813837Y-8527678D01*
X81758370Y-8661590D01*
X81758369Y-8661591D01*
X81739450Y-8805299D01*
X75582814Y-8805299D01*
X75619830Y-8696251D01*
X75624777Y-8684309D01*
X75711321Y-8508815D01*
X75717793Y-8497606D01*
X75718835Y-8496047D01*
X75760204Y-8434132D01*
X75808251Y-8396255D01*
X75869390Y-8393853D01*
X75878270Y-8396817D01*
X75997544Y-8443024D01*
X76198024Y-8480500D01*
X76401976Y-8480500D01*
X76602456Y-8443024D01*
X76792637Y-8369348D01*
X76966041Y-8261981D01*
X77116764Y-8124579D01*
X77239673Y-7961821D01*
X77330582Y-7779250D01*
X77386397Y-7583083D01*
X77405215Y-7380000D01*
X77386397Y-7176917D01*
X77330582Y-6980750D01*
X77239673Y-6798179D01*
X77116764Y-6635421D01*
X76966041Y-6498019D01*
X76792637Y-6390652D01*
X76602456Y-6316976D01*
X76602455Y-6316975D01*
X76602453Y-6316975D01*
X76401976Y-6279500D01*
X76198024Y-6279500D01*
X75997546Y-6316975D01*
X75927632Y-6344059D01*
X75807363Y-6390652D01*
X75633959Y-6498019D01*
X75483238Y-6635420D01*
X75483231Y-6635426D01*
X75480153Y-6638803D01*
X75478940Y-6637697D01*
X75434230Y-6668923D01*
X75373055Y-6667781D01*
X75324235Y-6630900D01*
X75306417Y-6572366D01*
X75313936Y-6536328D01*
X75316201Y-6530862D01*
X75365504Y-6411831D01*
X75370319Y-6401836D01*
X75483875Y-6196373D01*
X75489771Y-6186990D01*
X75625620Y-5995529D01*
X75632539Y-5986853D01*
X75673962Y-5940500D01*
X75736385Y-5870647D01*
X75789256Y-5839858D01*
X75845963Y-5844301D01*
X75997544Y-5903024D01*
X76198024Y-5940500D01*
X76401976Y-5940500D01*
X76602456Y-5903024D01*
X76792637Y-5829348D01*
X76966041Y-5721981D01*
X77116764Y-5584579D01*
X77239673Y-5421821D01*
X77330582Y-5239250D01*
X77386397Y-5043083D01*
X77405215Y-4840000D01*
X77386397Y-4636917D01*
X77330582Y-4440750D01*
X77239673Y-4258179D01*
X77116764Y-4095421D01*
X76966041Y-3958019D01*
X76792637Y-3850652D01*
X76602456Y-3776976D01*
X76602455Y-3776975D01*
X76602453Y-3776975D01*
X76401976Y-3739500D01*
X76198024Y-3739500D01*
X75997546Y-3776975D01*
X75927632Y-3804059D01*
X75807363Y-3850652D01*
X75633959Y-3958019D01*
X75483236Y-4095421D01*
X75448973Y-4140792D01*
X75360328Y-4258177D01*
X75360323Y-4258186D01*
X75282631Y-4414214D01*
X75269418Y-4440750D01*
X75213603Y-4636917D01*
X75194785Y-4840000D01*
X75213603Y-5043083D01*
X75269418Y-5239250D01*
X75291603Y-5283805D01*
X75294516Y-5289654D01*
X75303528Y-5350172D01*
X75275899Y-5403783D01*
X75233569Y-5446114D01*
X75233562Y-5446121D01*
X75056328Y-5662081D01*
X74981815Y-5773598D01*
X74933765Y-5811477D01*
X74872627Y-5813879D01*
X74821753Y-5779886D01*
X74800576Y-5722483D01*
X74800500Y-5718596D01*
X74800500Y-4737887D01*
X74800501Y-4737884D01*
X74800500Y-4690218D01*
X74800805Y-4682453D01*
X74815716Y-4492935D01*
X74818142Y-4477617D01*
X74861609Y-4296551D01*
X74866400Y-4281800D01*
X74937661Y-4109756D01*
X74944704Y-4095934D01*
X75041997Y-3937163D01*
X75051122Y-3924606D01*
X75174446Y-3780211D01*
X75179697Y-3774528D01*
X75524730Y-3429494D01*
X75579245Y-3401719D01*
X75594732Y-3400500D01*
X77174673Y-3400500D01*
X77174674Y-3400500D01*
X77247740Y-3385966D01*
X77330601Y-3330601D01*
X77385966Y-3247740D01*
X77400500Y-3174674D01*
X77400500Y-1425326D01*
X77385966Y-1352260D01*
X77341654Y-1285941D01*
X77330602Y-1269400D01*
X77330599Y-1269397D01*
X77247742Y-1214035D01*
X77247740Y-1214034D01*
X77247737Y-1214033D01*
X77247736Y-1214033D01*
X77174684Y-1199501D01*
X77174674Y-1199500D01*
X75425326Y-1199500D01*
X75425325Y-1199500D01*
X75425315Y-1199501D01*
X75352263Y-1214033D01*
X75352257Y-1214035D01*
X75269400Y-1269397D01*
X75269397Y-1269400D01*
X75214035Y-1352257D01*
X75214033Y-1352263D01*
X75199501Y-1425315D01*
X75199500Y-1425327D01*
X75199500Y-2793062D01*
X75180593Y-2851253D01*
X75170494Y-2863075D01*
X75136351Y-2897208D01*
X75136280Y-2897290D01*
X74745795Y-3287779D01*
X74745750Y-3287801D01*
X74627011Y-3406539D01*
X74627008Y-3406543D01*
X74472452Y-3607965D01*
X74374876Y-3776975D01*
X74345501Y-3827854D01*
X74301137Y-3934962D01*
X74248342Y-4062425D01*
X74248341Y-4062426D01*
X74182633Y-4307664D01*
X74182631Y-4307677D01*
X74149497Y-4559393D01*
X74149497Y-4559398D01*
X74149500Y-4676321D01*
X74149500Y-5637000D01*
X74130593Y-5695191D01*
X74081093Y-5731155D01*
X74050500Y-5736000D01*
X74001770Y-5736000D01*
X73943579Y-5717093D01*
X73923228Y-5697267D01*
X73896230Y-5662083D01*
X73892621Y-5657379D01*
X73777625Y-5569139D01*
X73777621Y-5569137D01*
X73643709Y-5513670D01*
X73643708Y-5513669D01*
X73500000Y-5494750D01*
X73356291Y-5513669D01*
X73356290Y-5513670D01*
X73222378Y-5569137D01*
X73222374Y-5569139D01*
X73107381Y-5657377D01*
X73107377Y-5657381D01*
X73019139Y-5772374D01*
X73019137Y-5772378D01*
X72963670Y-5906290D01*
X72963669Y-5906291D01*
X72944750Y-6049999D01*
X72944750Y-6050000D01*
X72963669Y-6193708D01*
X72963670Y-6193709D01*
X73014727Y-6316975D01*
X73019139Y-6327625D01*
X73107379Y-6442621D01*
X73222375Y-6530861D01*
X73356291Y-6586330D01*
X73500000Y-6605250D01*
X73643709Y-6586330D01*
X73777625Y-6530861D01*
X73892621Y-6442621D01*
X73923228Y-6402732D01*
X73973652Y-6368077D01*
X74001770Y-6364000D01*
X74050500Y-6364000D01*
X74108691Y-6382907D01*
X74144655Y-6432407D01*
X74149500Y-6463000D01*
X74149500Y-11311365D01*
X74130593Y-11369556D01*
X74081093Y-11405520D01*
X74019907Y-11405520D01*
X73980496Y-11381369D01*
X73591091Y-10991964D01*
X73588105Y-10988844D01*
X73350188Y-10729202D01*
X73344647Y-10722599D01*
X73175029Y-10501548D01*
X73131584Y-10444929D01*
X73126632Y-10437857D01*
X73095121Y-10388395D01*
X72938583Y-10142678D01*
X72934267Y-10135201D01*
X72887312Y-10045001D01*
X72772653Y-9824742D01*
X72769017Y-9816944D01*
X72635075Y-9493577D01*
X72632130Y-9485486D01*
X72526880Y-9151673D01*
X72524646Y-9143332D01*
X72511255Y-9082929D01*
X72448897Y-8801641D01*
X72447399Y-8793146D01*
X72446750Y-8788214D01*
X72401717Y-8446139D01*
X72400966Y-8437560D01*
X72385593Y-8085418D01*
X72385500Y-8081119D01*
X72385500Y-3321913D01*
X72404407Y-3263722D01*
X72448738Y-3229598D01*
X72467306Y-3222404D01*
X72552637Y-3189348D01*
X72726041Y-3081981D01*
X72876764Y-2944579D01*
X72999673Y-2781821D01*
X73090582Y-2599250D01*
X73146397Y-2403083D01*
X73165215Y-2200000D01*
X73146397Y-1996917D01*
X73090582Y-1800750D01*
X72999673Y-1618179D01*
X72876764Y-1455421D01*
X72726041Y-1318019D01*
X72552637Y-1210652D01*
X72362456Y-1136976D01*
X72362455Y-1136975D01*
X72362453Y-1136975D01*
X72161976Y-1099500D01*
X71958024Y-1099500D01*
X71757546Y-1136975D01*
X71739813Y-1143845D01*
X71567363Y-1210652D01*
X71472482Y-1269400D01*
X71393959Y-1318019D01*
X71265680Y-1434961D01*
X71243236Y-1455421D01*
X71239987Y-1459724D01*
X71120328Y-1618177D01*
X71120323Y-1618186D01*
X71069117Y-1721022D01*
X71026254Y-1764685D01*
X70965913Y-1774814D01*
X70911142Y-1747541D01*
X70889033Y-1714783D01*
X70823706Y-1557073D01*
X70823703Y-1557068D01*
X70823702Y-1557065D01*
X70747641Y-1425326D01*
X70728636Y-1392409D01*
X70634246Y-1269397D01*
X70612892Y-1241568D01*
X70612890Y-1241566D01*
X70612887Y-1241562D01*
X70582117Y-1210792D01*
X70582117Y-1210791D01*
X70545663Y-1174337D01*
X70545662Y-1174336D01*
X70545662Y-1174335D01*
X70503930Y-1132604D01*
X70503865Y-1132548D01*
X70478435Y-1107119D01*
X70373561Y-1026646D01*
X70327588Y-991369D01*
X70327587Y-991368D01*
X70327584Y-991366D01*
X70162922Y-896297D01*
X69987260Y-823535D01*
X69803601Y-774322D01*
X69803599Y-774321D01*
X69803593Y-774320D01*
X69615090Y-749502D01*
X69615088Y-749501D01*
X69562874Y-749500D01*
X69562872Y-749500D01*
X69562870Y-749500D01*
X68941503Y-749500D01*
X68941497Y-749498D01*
X68900494Y-749498D01*
X68774362Y-749498D01*
X68774345Y-749498D01*
X68523686Y-777742D01*
X68523680Y-777743D01*
X68277740Y-833878D01*
X68039641Y-917193D01*
X67812360Y-1026646D01*
X67812355Y-1026649D01*
X67598754Y-1160862D01*
X67559959Y-1191801D01*
X67502675Y-1213299D01*
X67462472Y-1206714D01*
X67282456Y-1136976D01*
X67282455Y-1136975D01*
X67282453Y-1136975D01*
X67081976Y-1099500D01*
X66878024Y-1099500D01*
X66677546Y-1136975D01*
X66659813Y-1143845D01*
X66487363Y-1210652D01*
X66392482Y-1269400D01*
X66313959Y-1318019D01*
X66185680Y-1434961D01*
X66163236Y-1455421D01*
X66159987Y-1459724D01*
X66040328Y-1618177D01*
X66040323Y-1618186D01*
X65949419Y-1800747D01*
X65949418Y-1800750D01*
X65893603Y-1996917D01*
X65874785Y-2200000D01*
X65893603Y-2403083D01*
X65923172Y-2507007D01*
X65949419Y-2599252D01*
X66026442Y-2753937D01*
X66040327Y-2781821D01*
X66163236Y-2944579D01*
X66313959Y-3081981D01*
X66487363Y-3189348D01*
X66677544Y-3263024D01*
X66878024Y-3300500D01*
X67081976Y-3300500D01*
X67282456Y-3263024D01*
X67472637Y-3189348D01*
X67646041Y-3081981D01*
X67796764Y-2944579D01*
X67919673Y-2781821D01*
X68010582Y-2599250D01*
X68066397Y-2403083D01*
X68085215Y-2200000D01*
X68066397Y-1996917D01*
X68010582Y-1800750D01*
X68002797Y-1785116D01*
X67993785Y-1724601D01*
X68022065Y-1670343D01*
X68036410Y-1658679D01*
X68097610Y-1617788D01*
X68108814Y-1611319D01*
X68284308Y-1524775D01*
X68296250Y-1519828D01*
X68473313Y-1459724D01*
X68534493Y-1458923D01*
X68584459Y-1494236D01*
X68604127Y-1552174D01*
X68585982Y-1610608D01*
X68584142Y-1613127D01*
X68580330Y-1618175D01*
X68580323Y-1618186D01*
X68489419Y-1800747D01*
X68489418Y-1800750D01*
X68433603Y-1996917D01*
X68414785Y-2200000D01*
X68433603Y-2403083D01*
X68463172Y-2507007D01*
X68489419Y-2599252D01*
X68566442Y-2753937D01*
X68580327Y-2781821D01*
X68703236Y-2944579D01*
X68853959Y-3081981D01*
X69027363Y-3189348D01*
X69027367Y-3189349D01*
X69027368Y-3189350D01*
X69131262Y-3229598D01*
X69178694Y-3268249D01*
X69194500Y-3321913D01*
X69194500Y-5336427D01*
X69194501Y-5336440D01*
X69194501Y-5540120D01*
X69227793Y-6048065D01*
X69294235Y-6552746D01*
X69294236Y-6552752D01*
X69393544Y-7052011D01*
X69525297Y-7543721D01*
X69603844Y-7775111D01*
X69688921Y-8025739D01*
X69881135Y-8489787D01*
X69883724Y-8496036D01*
X69883729Y-8496047D01*
X70108852Y-8952552D01*
X70108871Y-8952588D01*
X70363385Y-9393418D01*
X70363389Y-9393424D01*
X70646198Y-9816677D01*
X70956057Y-10220495D01*
X70956067Y-10220507D01*
X70956078Y-10220521D01*
X71146677Y-10437857D01*
X71236296Y-10540049D01*
X71291712Y-10603238D01*
X71291728Y-10603254D01*
X71437924Y-10749451D01*
X71437925Y-10749451D01*
X71441381Y-10752907D01*
X71441383Y-10752910D01*
X72414015Y-11725541D01*
X73332109Y-12643635D01*
X73332134Y-12643663D01*
X73370119Y-12681647D01*
X73375393Y-12687352D01*
X73458431Y-12784570D01*
X73467557Y-12797130D01*
X73493370Y-12839249D01*
X73532331Y-12902824D01*
X73539383Y-12916664D01*
X73586821Y-13031174D01*
X73591623Y-13045950D01*
X73620565Y-13166486D01*
X73622995Y-13181827D01*
X73632994Y-13308793D01*
X73633300Y-13316566D01*
X73633300Y-13748187D01*
X73633305Y-13748272D01*
X73633305Y-13754878D01*
X73633305Y-13758759D01*
X73656711Y-13876464D01*
X73656711Y-13876467D01*
X73665802Y-13898417D01*
X73702633Y-13987345D01*
X73702634Y-13987347D01*
X73702635Y-13987348D01*
X73702635Y-13987349D01*
X73742581Y-14047134D01*
X73769306Y-14087132D01*
X73770502Y-14088328D01*
X73770852Y-14089014D01*
X73772394Y-14090894D01*
X73771981Y-14091232D01*
X73798278Y-14142843D01*
X73799497Y-14158330D01*
X73799497Y-14159510D01*
X73799500Y-14159547D01*
X73799500Y-15540244D01*
X73799288Y-15546718D01*
X73786982Y-15734493D01*
X73785292Y-15747331D01*
X73749216Y-15928712D01*
X73745864Y-15941222D01*
X73686424Y-16116332D01*
X73681469Y-16128295D01*
X73599678Y-16294160D01*
X73593203Y-16305375D01*
X73490465Y-16459138D01*
X73482582Y-16469412D01*
X73358757Y-16610612D01*
X73354331Y-16615338D01*
X73344579Y-16625091D01*
X73344576Y-16625094D01*
X73299227Y-16670444D01*
X73299223Y-16670448D01*
X73289476Y-16680194D01*
X73283771Y-16685467D01*
X73140498Y-16807834D01*
X73127930Y-16816965D01*
X72970588Y-16913384D01*
X72956746Y-16920437D01*
X72786273Y-16991048D01*
X72771500Y-16995849D01*
X72592067Y-17038928D01*
X72576722Y-17041358D01*
X72388836Y-17056145D01*
X72381069Y-17056450D01*
X72325471Y-17056450D01*
X72325459Y-17056451D01*
X72258746Y-17056451D01*
X72008409Y-17089409D01*
X72008404Y-17089409D01*
X71764499Y-17154763D01*
X71531223Y-17251388D01*
X71312536Y-17377646D01*
X71112216Y-17531357D01*
X71112209Y-17531363D01*
X71039318Y-17604251D01*
X71039314Y-17604257D01*
X70548034Y-18095540D01*
X70548031Y-18095543D01*
X70520865Y-18122706D01*
X70520866Y-18122707D01*
X70486301Y-18157273D01*
X70486143Y-18157452D01*
X70394408Y-18249186D01*
X70167496Y-18525675D01*
X70167491Y-18525683D01*
X69968774Y-18823078D01*
X69800163Y-19138519D01*
X69800155Y-19138537D01*
X69663277Y-19468983D01*
X69559444Y-19811271D01*
X69559441Y-19811284D01*
X69489660Y-20162089D01*
X69454600Y-20518053D01*
X69454600Y-23294436D01*
X69435693Y-23352627D01*
X69430420Y-23359267D01*
X69354722Y-23446628D01*
X69294934Y-23577543D01*
X69274453Y-23719997D01*
X69274453Y-23720002D01*
X69294934Y-23862456D01*
X69335997Y-23952369D01*
X69354723Y-23993373D01*
X69448972Y-24102143D01*
X69486344Y-24126160D01*
X69525073Y-24173524D01*
X69528567Y-24234610D01*
X69502823Y-24279447D01*
X68726312Y-25055959D01*
X68684200Y-25080945D01*
X68548647Y-25120747D01*
X68548642Y-25120749D01*
X68427573Y-25198555D01*
X68333322Y-25307328D01*
X68273534Y-25438243D01*
X68253053Y-25580697D01*
X68253053Y-25580702D01*
X68273534Y-25723156D01*
X68322636Y-25830673D01*
X68333323Y-25854073D01*
X68382608Y-25910951D01*
X68427573Y-25962844D01*
X68548642Y-26040650D01*
X68548647Y-26040653D01*
X68655103Y-26071911D01*
X68686735Y-26081199D01*
X68686736Y-26081199D01*
X68686739Y-26081200D01*
X68686741Y-26081200D01*
X68830659Y-26081200D01*
X68830661Y-26081200D01*
X68968753Y-26040653D01*
X69089828Y-25962843D01*
X69184077Y-25854073D01*
X69243865Y-25723157D01*
X69254897Y-25646427D01*
X69264347Y-25580702D01*
X69264347Y-25580698D01*
X69253534Y-25505496D01*
X69263967Y-25445207D01*
X69281523Y-25421402D01*
X69768497Y-24934429D01*
X69823013Y-24906652D01*
X69883445Y-24916223D01*
X69926710Y-24959488D01*
X69937500Y-25004433D01*
X69937500Y-25820642D01*
X69937494Y-25820722D01*
X69937495Y-25838731D01*
X69937494Y-25838735D01*
X69937495Y-25852759D01*
X69918592Y-25910951D01*
X69908499Y-25922770D01*
X68092397Y-27738873D01*
X68092356Y-27738910D01*
X68059386Y-27771884D01*
X68059374Y-27771896D01*
X68055383Y-27775886D01*
X68048198Y-27782398D01*
X67983027Y-27835890D01*
X67966891Y-27846673D01*
X67896845Y-27884119D01*
X67878915Y-27891547D01*
X67802914Y-27914607D01*
X67783880Y-27918395D01*
X67700401Y-27926622D01*
X67690679Y-27927099D01*
X67614249Y-27927090D01*
X67614073Y-27927100D01*
X67007497Y-27927100D01*
X66955943Y-27927093D01*
X66955942Y-27927093D01*
X66948366Y-27927092D01*
X66948262Y-27927100D01*
X66253235Y-27927100D01*
X66247682Y-27926944D01*
X65995697Y-27912788D01*
X65984665Y-27911545D01*
X65738587Y-27869731D01*
X65727767Y-27867261D01*
X65487912Y-27798157D01*
X65477447Y-27794495D01*
X65246842Y-27698973D01*
X65236839Y-27694156D01*
X65018377Y-27573414D01*
X65008977Y-27567507D01*
X64805416Y-27423072D01*
X64796737Y-27416150D01*
X64608306Y-27247757D01*
X64604270Y-27243943D01*
X64134643Y-26774316D01*
X64106866Y-26719799D01*
X64105647Y-26704312D01*
X64105647Y-26699997D01*
X64085165Y-26557543D01*
X64025377Y-26426628D01*
X64025377Y-26426627D01*
X63931128Y-26317857D01*
X63931127Y-26317856D01*
X63931126Y-26317855D01*
X63810057Y-26240049D01*
X63810055Y-26240048D01*
X63810053Y-26240047D01*
X63763527Y-26226385D01*
X63746708Y-26221447D01*
X63696201Y-26186910D01*
X63675640Y-26129283D01*
X63675600Y-26126457D01*
X63675600Y-24185062D01*
X63694507Y-24126871D01*
X63699781Y-24120231D01*
X63709117Y-24109457D01*
X63775477Y-24032873D01*
X63835265Y-23901957D01*
X63843448Y-23845043D01*
X63855747Y-23759502D01*
X63855747Y-23759497D01*
X63843259Y-23672641D01*
X63853692Y-23612352D01*
X63897570Y-23569710D01*
X63930167Y-23560174D01*
X63931693Y-23560002D01*
X63931704Y-23560002D01*
X64153310Y-23535033D01*
X64370727Y-23485409D01*
X64581221Y-23411753D01*
X64782145Y-23314993D01*
X64970971Y-23196345D01*
X65145325Y-23057300D01*
X65224170Y-22978455D01*
X65224171Y-22978455D01*
X65250948Y-22951677D01*
X65440194Y-22762431D01*
X65673230Y-22529396D01*
X65727746Y-22501619D01*
X65743233Y-22500400D01*
X65814359Y-22500400D01*
X65814361Y-22500400D01*
X65952453Y-22459853D01*
X66073528Y-22382043D01*
X66167777Y-22273273D01*
X66227565Y-22142357D01*
X66248047Y-21999900D01*
X66247229Y-21994212D01*
X66227565Y-21857443D01*
X66169451Y-21730193D01*
X66167777Y-21726527D01*
X66166170Y-21724672D01*
X66165372Y-21722785D01*
X66163949Y-21720570D01*
X66164332Y-21720323D01*
X66142353Y-21668313D01*
X66156212Y-21608718D01*
X66170983Y-21589842D01*
X66314282Y-21446541D01*
X66314289Y-21446538D01*
X66314288Y-21446537D01*
X66353197Y-21407634D01*
X66353237Y-21407587D01*
X66354552Y-21406273D01*
X66354553Y-21406270D01*
X66359106Y-21401718D01*
X66359351Y-21401437D01*
X66378593Y-21382197D01*
X66468984Y-21257795D01*
X66538802Y-21120785D01*
X66586329Y-20974540D01*
X66610394Y-20822662D01*
X66610394Y-20806225D01*
X66610404Y-20806119D01*
X66610403Y-20797280D01*
X66610404Y-20797279D01*
X66610400Y-20752207D01*
X66611246Y-20739292D01*
X66613942Y-20718805D01*
X66619802Y-20674264D01*
X66626484Y-20649317D01*
X66649079Y-20594757D01*
X66661994Y-20572385D01*
X66666584Y-20566402D01*
X66701712Y-20520611D01*
X66710247Y-20510877D01*
X67474429Y-19746696D01*
X67528946Y-19718919D01*
X67544433Y-19717700D01*
X67972679Y-19717700D01*
X68030870Y-19736607D01*
X68047500Y-19751870D01*
X68066972Y-19774343D01*
X68188047Y-19852153D01*
X68294503Y-19883411D01*
X68326135Y-19892699D01*
X68326136Y-19892699D01*
X68326139Y-19892700D01*
X68326141Y-19892700D01*
X68470059Y-19892700D01*
X68470061Y-19892700D01*
X68608153Y-19852153D01*
X68729228Y-19774343D01*
X68823477Y-19665573D01*
X68883265Y-19534657D01*
X68896507Y-19442558D01*
X68903747Y-19392202D01*
X68903747Y-19392197D01*
X68883265Y-19249743D01*
X68862087Y-19203371D01*
X68823477Y-19118827D01*
X68729228Y-19010057D01*
X68729227Y-19010056D01*
X68729226Y-19010055D01*
X68608157Y-18932249D01*
X68608154Y-18932247D01*
X68608153Y-18932247D01*
X68608150Y-18932246D01*
X68470064Y-18891700D01*
X68470061Y-18891700D01*
X68326139Y-18891700D01*
X68326135Y-18891700D01*
X68188049Y-18932246D01*
X68188042Y-18932249D01*
X68066972Y-19010056D01*
X68066971Y-19010057D01*
X68047499Y-19032530D01*
X67995103Y-19064127D01*
X67972679Y-19066700D01*
X67555834Y-19066700D01*
X67497643Y-19047793D01*
X67485830Y-19037704D01*
X65758538Y-17310411D01*
X65755552Y-17307291D01*
X65687054Y-17232539D01*
X65541220Y-17073390D01*
X65535680Y-17066787D01*
X65343867Y-16816811D01*
X65338913Y-16809737D01*
X65259743Y-16685467D01*
X65169608Y-16543984D01*
X65165290Y-16536504D01*
X65079646Y-16371984D01*
X65019797Y-16257016D01*
X65016151Y-16249196D01*
X64895572Y-15958090D01*
X64892618Y-15949975D01*
X64871460Y-15882872D01*
X64797862Y-15649452D01*
X64795636Y-15641142D01*
X64727431Y-15333492D01*
X64725938Y-15325023D01*
X64684806Y-15012600D01*
X64684056Y-15004021D01*
X64670193Y-14686519D01*
X64670100Y-14682215D01*
X64670100Y-13540686D01*
X64670405Y-13532918D01*
X64671352Y-13520889D01*
X64681054Y-13397616D01*
X64683481Y-13382292D01*
X64714256Y-13254104D01*
X64719052Y-13239345D01*
X64769498Y-13117558D01*
X64776546Y-13103725D01*
X64845427Y-12991324D01*
X64854540Y-12978780D01*
X64942731Y-12875523D01*
X64947976Y-12869849D01*
X65008113Y-12809714D01*
X65008143Y-12809698D01*
X65037123Y-12780718D01*
X65037124Y-12780719D01*
X65108164Y-12709679D01*
X65226267Y-12547121D01*
X65317486Y-12368089D01*
X65379574Y-12176991D01*
X65380217Y-12172934D01*
X65405946Y-12010457D01*
X65411002Y-11978533D01*
X65411000Y-11878068D01*
X65411000Y-11868000D01*
X65411000Y-5232891D01*
X65429907Y-5174700D01*
X65479407Y-5138736D01*
X65540593Y-5138736D01*
X65547875Y-5141423D01*
X65656291Y-5186330D01*
X65800000Y-5205250D01*
X65943709Y-5186330D01*
X66077625Y-5130861D01*
X66192621Y-5042621D01*
X66192622Y-5042618D01*
X66192625Y-5042617D01*
X66212488Y-5016732D01*
X66262912Y-4982077D01*
X66291029Y-4978000D01*
X67812230Y-4978000D01*
X67870421Y-4996907D01*
X67890771Y-5016732D01*
X67921379Y-5056621D01*
X68036375Y-5144861D01*
X68170291Y-5200330D01*
X68314000Y-5219250D01*
X68457709Y-5200330D01*
X68591625Y-5144861D01*
X68706621Y-5056621D01*
X68794861Y-4941625D01*
X68850330Y-4807709D01*
X68869250Y-4664000D01*
X68855478Y-4559397D01*
X68850330Y-4520291D01*
X68794861Y-4386375D01*
X68706621Y-4271379D01*
X68591625Y-4183139D01*
X68591621Y-4183137D01*
X68457709Y-4127670D01*
X68457708Y-4127669D01*
X68314000Y-4108750D01*
X68170291Y-4127669D01*
X68170290Y-4127670D01*
X68036378Y-4183137D01*
X68036374Y-4183139D01*
X67921381Y-4271377D01*
X67921375Y-4271383D01*
X67890772Y-4311267D01*
X67840348Y-4345923D01*
X67812230Y-4350000D01*
X66312514Y-4350000D01*
X66254323Y-4331093D01*
X66233973Y-4311268D01*
X66192626Y-4257385D01*
X66192624Y-4257383D01*
X66192621Y-4257379D01*
X66077625Y-4169139D01*
X66077621Y-4169137D01*
X65943709Y-4113670D01*
X65943708Y-4113669D01*
X65800000Y-4094750D01*
X65656291Y-4113669D01*
X65656290Y-4113670D01*
X65547885Y-4158572D01*
X65486888Y-4163372D01*
X65434719Y-4131403D01*
X65411305Y-4074874D01*
X65411000Y-4067108D01*
X65411000Y-3252593D01*
X65410985Y-3252370D01*
X65410985Y-3247736D01*
X65410987Y-3208388D01*
X65386568Y-3022869D01*
X65349604Y-2884905D01*
X65352807Y-2823806D01*
X65366226Y-2799626D01*
X65379673Y-2781821D01*
X65470582Y-2599250D01*
X65526397Y-2403083D01*
X65545215Y-2200000D01*
X65526397Y-1996917D01*
X65470582Y-1800750D01*
X65379673Y-1618179D01*
X65256764Y-1455421D01*
X65106041Y-1318019D01*
X64932637Y-1210652D01*
X64742456Y-1136976D01*
X64742455Y-1136975D01*
X64742453Y-1136975D01*
X64541976Y-1099500D01*
X64338024Y-1099500D01*
X64137546Y-1136975D01*
X64119813Y-1143845D01*
X63947363Y-1210652D01*
X63852482Y-1269400D01*
X63773959Y-1318019D01*
X63645680Y-1434961D01*
X63623236Y-1455421D01*
X63619987Y-1459724D01*
X63500328Y-1618177D01*
X63500323Y-1618186D01*
X63409419Y-1800747D01*
X63409418Y-1800750D01*
X63353603Y-1996917D01*
X63334785Y-2200000D01*
X63353603Y-2403083D01*
X63383172Y-2507007D01*
X63409419Y-2599252D01*
X63486442Y-2753937D01*
X63500327Y-2781821D01*
X63623236Y-2944579D01*
X63773959Y-3081981D01*
X63947363Y-3189348D01*
X64137544Y-3263024D01*
X64338024Y-3300500D01*
X64541976Y-3300500D01*
X64642809Y-3281651D01*
X64703483Y-3289544D01*
X64747930Y-3331592D01*
X64760000Y-3378965D01*
X64760000Y-11459200D01*
X64741093Y-11517391D01*
X64691593Y-11553355D01*
X64639601Y-11554097D01*
X64639471Y-11555008D01*
X64633720Y-11554181D01*
X64633110Y-11554190D01*
X64632466Y-11554001D01*
X64632462Y-11554000D01*
X64632461Y-11554000D01*
X64488539Y-11554000D01*
X64488535Y-11554000D01*
X64350449Y-11594546D01*
X64350442Y-11594549D01*
X64229373Y-11672355D01*
X64135122Y-11781128D01*
X64075334Y-11912043D01*
X64054853Y-12054497D01*
X64054853Y-12058811D01*
X64035946Y-12117002D01*
X64025857Y-12128815D01*
X63909096Y-12245576D01*
X63909036Y-12245606D01*
X63793747Y-12360896D01*
X63793741Y-12360902D01*
X63645092Y-12554627D01*
X63645092Y-12554628D01*
X63645090Y-12554631D01*
X63522999Y-12766103D01*
X63429557Y-12991703D01*
X63417535Y-13036574D01*
X63415634Y-13043669D01*
X63382311Y-13094983D01*
X63325190Y-13116911D01*
X63266089Y-13101076D01*
X63227583Y-13053527D01*
X63225852Y-13048639D01*
X63224978Y-13045950D01*
X63166508Y-12865996D01*
X63022811Y-12519082D01*
X62852338Y-12184512D01*
X62656141Y-11864349D01*
X62460119Y-11594549D01*
X62435429Y-11560566D01*
X62435428Y-11560565D01*
X62191562Y-11275036D01*
X62094753Y-11178228D01*
X62094749Y-11178223D01*
X62089106Y-11172580D01*
X62089106Y-11172579D01*
X60822943Y-9906416D01*
X60795166Y-9851899D01*
X60793947Y-9836412D01*
X60793947Y-9832097D01*
X60773465Y-9689643D01*
X60761113Y-9662597D01*
X60713677Y-9558727D01*
X60619428Y-9449957D01*
X60619427Y-9449956D01*
X60619426Y-9449955D01*
X60498357Y-9372149D01*
X60498354Y-9372147D01*
X60498353Y-9372147D01*
X60498350Y-9372146D01*
X60360264Y-9331600D01*
X60360261Y-9331600D01*
X60216339Y-9331600D01*
X60216335Y-9331600D01*
X60078249Y-9372146D01*
X60078242Y-9372149D01*
X59957172Y-9449956D01*
X59957170Y-9449958D01*
X59934319Y-9476330D01*
X59881923Y-9507926D01*
X59820962Y-9502690D01*
X59774721Y-9462622D01*
X59760500Y-9411499D01*
X59760500Y-3399500D01*
X59779407Y-3341309D01*
X59828907Y-3305345D01*
X59859500Y-3300500D01*
X60234673Y-3300500D01*
X60234674Y-3300500D01*
X60307740Y-3285966D01*
X60390601Y-3230601D01*
X60445966Y-3147740D01*
X60460500Y-3074674D01*
X60460500Y-2075000D01*
X60806871Y-2075000D01*
X61415856Y-2075000D01*
X61400000Y-2134174D01*
X61400000Y-2265826D01*
X61415856Y-2325000D01*
X60806871Y-2325000D01*
X60814097Y-2402989D01*
X60869887Y-2599070D01*
X60960750Y-2781548D01*
X60960755Y-2781557D01*
X61083608Y-2944240D01*
X61234266Y-3081582D01*
X61407581Y-3188895D01*
X61407586Y-3188898D01*
X61597683Y-3262541D01*
X61774999Y-3295687D01*
X61775000Y-3295687D01*
X61775000Y-2684144D01*
X61834174Y-2700000D01*
X61965826Y-2700000D01*
X62025000Y-2684144D01*
X62025000Y-3295687D01*
X62202316Y-3262541D01*
X62392413Y-3188898D01*
X62392418Y-3188895D01*
X62565733Y-3081582D01*
X62716391Y-2944240D01*
X62839244Y-2781557D01*
X62839249Y-2781548D01*
X62930112Y-2599070D01*
X62985902Y-2402989D01*
X62993129Y-2325000D01*
X62384144Y-2325000D01*
X62400000Y-2265826D01*
X62400000Y-2134174D01*
X62384144Y-2075000D01*
X62993129Y-2075000D01*
X62985902Y-1997010D01*
X62930112Y-1800929D01*
X62839249Y-1618451D01*
X62839244Y-1618442D01*
X62716391Y-1455759D01*
X62565733Y-1318417D01*
X62392418Y-1211104D01*
X62392413Y-1211101D01*
X62202316Y-1137458D01*
X62025000Y-1104311D01*
X62025000Y-1715855D01*
X61965826Y-1700000D01*
X61834174Y-1700000D01*
X61775000Y-1715855D01*
X61775000Y-1104312D01*
X61774999Y-1104311D01*
X61597683Y-1137458D01*
X61407586Y-1211101D01*
X61407581Y-1211104D01*
X61234266Y-1318417D01*
X61083608Y-1455759D01*
X60960755Y-1618442D01*
X60960750Y-1618451D01*
X60869887Y-1800929D01*
X60814097Y-1997010D01*
X60806871Y-2075000D01*
X60460500Y-2075000D01*
X60460500Y-1325326D01*
X60445966Y-1252260D01*
X60418465Y-1211101D01*
X60390602Y-1169400D01*
X60390599Y-1169397D01*
X60307742Y-1114035D01*
X60307740Y-1114034D01*
X60307737Y-1114033D01*
X60307736Y-1114033D01*
X60234684Y-1099501D01*
X60234674Y-1099500D01*
X58485326Y-1099500D01*
X58485325Y-1099500D01*
X58485315Y-1099501D01*
X58412263Y-1114033D01*
X58412257Y-1114035D01*
X58329400Y-1169397D01*
X58329397Y-1169400D01*
X58274035Y-1252257D01*
X58274033Y-1252263D01*
X58259501Y-1325315D01*
X58259500Y-1325327D01*
X58259500Y-3074672D01*
X58259501Y-3074684D01*
X58274033Y-3147736D01*
X58274035Y-3147742D01*
X58329397Y-3230599D01*
X58329400Y-3230602D01*
X58377201Y-3262541D01*
X58412260Y-3285966D01*
X58461130Y-3295687D01*
X58485315Y-3300498D01*
X58485320Y-3300498D01*
X58485326Y-3300500D01*
X58860500Y-3300500D01*
X58918691Y-3319407D01*
X58954655Y-3368907D01*
X58959500Y-3399500D01*
X58959500Y-9966274D01*
X58959517Y-9966557D01*
X58959517Y-9985826D01*
X58959517Y-10005294D01*
X58972702Y-10105473D01*
X58985056Y-10199339D01*
X58985058Y-10199348D01*
X59035705Y-10388387D01*
X59035706Y-10388390D01*
X59035707Y-10388394D01*
X59035708Y-10388395D01*
X59043795Y-10407921D01*
X59110602Y-10569218D01*
X59208457Y-10738714D01*
X59208459Y-10738716D01*
X59208461Y-10738720D01*
X59327607Y-10893997D01*
X59327608Y-10893998D01*
X59355221Y-10921612D01*
X59355238Y-10921631D01*
X59481254Y-11047648D01*
X59509031Y-11102164D01*
X59509242Y-11103562D01*
X59514834Y-11142456D01*
X59553615Y-11227373D01*
X59560590Y-11288160D01*
X59530504Y-11341437D01*
X59474848Y-11366855D01*
X59463562Y-11367500D01*
X59449135Y-11367500D01*
X59311049Y-11408046D01*
X59311042Y-11408049D01*
X59189973Y-11485855D01*
X59095722Y-11594628D01*
X59035934Y-11725543D01*
X59015453Y-11867997D01*
X59015453Y-11868002D01*
X59035934Y-12010456D01*
X59074144Y-12094123D01*
X59095723Y-12141373D01*
X59126586Y-12176991D01*
X59189973Y-12250144D01*
X59227984Y-12274572D01*
X59311047Y-12327953D01*
X59417503Y-12359211D01*
X59449135Y-12368499D01*
X59449136Y-12368499D01*
X59449139Y-12368500D01*
X59449141Y-12368500D01*
X59593065Y-12368500D01*
X59594380Y-12368311D01*
X59595472Y-12368500D01*
X59600142Y-12368500D01*
X59600142Y-12369308D01*
X59654669Y-12378745D01*
X59678472Y-12396299D01*
X59722724Y-12440551D01*
X59750501Y-12495068D01*
X59740930Y-12555500D01*
X59706245Y-12593838D01*
X59668873Y-12617856D01*
X59574622Y-12726628D01*
X59514834Y-12857543D01*
X59509247Y-12896402D01*
X59482251Y-12951309D01*
X59481259Y-12952315D01*
X59397001Y-13036574D01*
X59396995Y-13036580D01*
X59280971Y-13196277D01*
X59191357Y-13372165D01*
X59191356Y-13372168D01*
X59130364Y-13559909D01*
X59099494Y-13754878D01*
X59099500Y-13845618D01*
X59099500Y-15460992D01*
X59080593Y-15519183D01*
X59075321Y-15525821D01*
X59074623Y-15526626D01*
X59014834Y-15657543D01*
X58994353Y-15799997D01*
X58994353Y-15800002D01*
X59014834Y-15942456D01*
X59074623Y-16073373D01*
X59075316Y-16074173D01*
X59075660Y-16074989D01*
X59078453Y-16079334D01*
X59077701Y-16079816D01*
X59099136Y-16130531D01*
X59099500Y-16139008D01*
X59099500Y-18460992D01*
X59080593Y-18519183D01*
X59075321Y-18525821D01*
X59074623Y-18526626D01*
X59014834Y-18657543D01*
X58994353Y-18799997D01*
X58994353Y-18800002D01*
X59014834Y-18942456D01*
X59074623Y-19073373D01*
X59075316Y-19074173D01*
X59075660Y-19074989D01*
X59078453Y-19079334D01*
X59077701Y-19079816D01*
X59099136Y-19130531D01*
X59099500Y-19139008D01*
X59099500Y-21460992D01*
X59080593Y-21519183D01*
X59075321Y-21525821D01*
X59074623Y-21526626D01*
X59014834Y-21657543D01*
X58994353Y-21799997D01*
X58994353Y-21800002D01*
X59014834Y-21942456D01*
X59074623Y-22073373D01*
X59075316Y-22074173D01*
X59075660Y-22074989D01*
X59078453Y-22079334D01*
X59077701Y-22079816D01*
X59099136Y-22130531D01*
X59099500Y-22139008D01*
X59099500Y-24460992D01*
X59080593Y-24519183D01*
X59075321Y-24525821D01*
X59074623Y-24526626D01*
X59014834Y-24657543D01*
X58994353Y-24799997D01*
X58994353Y-24800002D01*
X59014834Y-24942456D01*
X59074623Y-25073373D01*
X59075316Y-25074173D01*
X59075660Y-25074989D01*
X59078453Y-25079334D01*
X59077701Y-25079816D01*
X59099136Y-25130531D01*
X59099500Y-25139008D01*
X59099500Y-27560992D01*
X59080593Y-27619183D01*
X59075321Y-27625821D01*
X59074623Y-27626626D01*
X59014834Y-27757543D01*
X58994353Y-27899997D01*
X58994353Y-27900002D01*
X59014834Y-28042456D01*
X59074622Y-28173371D01*
X59074623Y-28173373D01*
X59138161Y-28246700D01*
X59168873Y-28282144D01*
X59267487Y-28345519D01*
X59289947Y-28359953D01*
X59396403Y-28391211D01*
X59428035Y-28400499D01*
X59428036Y-28400499D01*
X59428039Y-28400500D01*
X59428041Y-28400500D01*
X59571959Y-28400500D01*
X59571961Y-28400500D01*
X59710053Y-28359953D01*
X59831128Y-28282143D01*
X59925377Y-28173373D01*
X59985165Y-28042457D01*
X60001773Y-27926944D01*
X60005647Y-27900002D01*
X60005647Y-27899997D01*
X59985165Y-27757543D01*
X59976639Y-27738873D01*
X59925377Y-27626627D01*
X59924679Y-27625821D01*
X59924332Y-27625001D01*
X59921549Y-27620670D01*
X59922298Y-27620188D01*
X59900863Y-27569461D01*
X59900500Y-27560992D01*
X59900500Y-25139008D01*
X59919407Y-25080817D01*
X59924684Y-25074173D01*
X59924807Y-25074029D01*
X59925377Y-25073373D01*
X59985165Y-24942457D01*
X60001721Y-24827307D01*
X60005647Y-24800002D01*
X60005647Y-24799997D01*
X59985165Y-24657543D01*
X59955857Y-24593369D01*
X59925377Y-24526627D01*
X59924679Y-24525821D01*
X59924332Y-24525001D01*
X59921549Y-24520670D01*
X59922298Y-24520188D01*
X59900863Y-24469461D01*
X59900500Y-24460992D01*
X59900500Y-22139008D01*
X59919407Y-22080817D01*
X59924684Y-22074173D01*
X59924807Y-22074029D01*
X59925377Y-22073373D01*
X59985165Y-21942457D01*
X60005647Y-21800000D01*
X60004055Y-21788928D01*
X59985165Y-21657543D01*
X59980207Y-21646686D01*
X59925377Y-21526627D01*
X59924679Y-21525821D01*
X59924332Y-21525001D01*
X59921549Y-21520670D01*
X59922298Y-21520188D01*
X59900863Y-21469461D01*
X59900500Y-21460992D01*
X59900500Y-19139008D01*
X59919407Y-19080817D01*
X59924684Y-19074173D01*
X59924807Y-19074029D01*
X59925377Y-19073373D01*
X59985165Y-18942457D01*
X59997641Y-18855684D01*
X60005647Y-18800002D01*
X60005647Y-18799997D01*
X59985165Y-18657543D01*
X59957861Y-18597756D01*
X59925377Y-18526627D01*
X59924679Y-18525821D01*
X59924332Y-18525001D01*
X59921549Y-18520670D01*
X59922298Y-18520188D01*
X59900863Y-18469461D01*
X59900500Y-18460992D01*
X59900500Y-16139008D01*
X59919407Y-16080817D01*
X59924684Y-16074173D01*
X59924807Y-16074029D01*
X59925377Y-16073373D01*
X59985165Y-15942457D01*
X60005647Y-15800000D01*
X59999479Y-15757102D01*
X59985165Y-15657543D01*
X59979596Y-15645349D01*
X59925377Y-15526627D01*
X59924679Y-15525821D01*
X59924332Y-15525001D01*
X59921549Y-15520670D01*
X59922298Y-15520188D01*
X59900863Y-15469461D01*
X59900500Y-15460992D01*
X59900500Y-13918353D01*
X59900502Y-13918312D01*
X59900501Y-13911115D01*
X59900503Y-13911111D01*
X59900500Y-13858387D01*
X59900976Y-13848691D01*
X59908245Y-13774839D01*
X59912028Y-13755820D01*
X59932149Y-13689479D01*
X59939567Y-13671568D01*
X59972246Y-13610427D01*
X59983021Y-13594300D01*
X60029959Y-13537105D01*
X60036463Y-13529928D01*
X60045505Y-13520886D01*
X60087612Y-13495904D01*
X60210053Y-13459953D01*
X60331128Y-13382143D01*
X60416173Y-13283994D01*
X60468567Y-13252399D01*
X60529528Y-13257634D01*
X60560995Y-13278822D01*
X61884891Y-14602718D01*
X61889319Y-14607446D01*
X62036642Y-14775433D01*
X62050813Y-14791591D01*
X62058696Y-14801865D01*
X62192970Y-15002815D01*
X62199445Y-15014029D01*
X62250152Y-15116848D01*
X62258932Y-15177400D01*
X62230445Y-15231549D01*
X62189254Y-15255626D01*
X62047847Y-15297147D01*
X62047842Y-15297149D01*
X61926773Y-15374955D01*
X61832522Y-15483728D01*
X61772734Y-15614643D01*
X61752253Y-15757097D01*
X61752253Y-15757102D01*
X61772734Y-15899556D01*
X61795104Y-15948538D01*
X61832523Y-16030473D01*
X61901735Y-16110349D01*
X61908219Y-16117831D01*
X61932037Y-16174190D01*
X61932400Y-16182662D01*
X61932400Y-20208000D01*
X61961442Y-20465763D01*
X62019165Y-20718662D01*
X62104836Y-20963496D01*
X62217387Y-21197210D01*
X62333618Y-21382190D01*
X62355394Y-21416847D01*
X62517126Y-21619652D01*
X62517129Y-21619655D01*
X62575076Y-21677603D01*
X62575077Y-21677603D01*
X62575078Y-21677604D01*
X62575077Y-21677604D01*
X62837169Y-21939695D01*
X62864947Y-21994212D01*
X62855376Y-22054644D01*
X62837170Y-22079702D01*
X62518839Y-22398035D01*
X62518820Y-22398044D01*
X62396245Y-22520619D01*
X62231218Y-22727558D01*
X62090396Y-22951676D01*
X61976951Y-23187249D01*
X61975552Y-23190155D01*
X61953256Y-23253875D01*
X61888129Y-23439996D01*
X61829234Y-23698046D01*
X61799599Y-23961071D01*
X61799600Y-24050562D01*
X61799600Y-25184039D01*
X61799602Y-25184068D01*
X61799602Y-25320030D01*
X61828205Y-25683465D01*
X61828746Y-25690335D01*
X61828747Y-25690351D01*
X61886853Y-26057211D01*
X61886855Y-26057222D01*
X61930747Y-26240047D01*
X61972051Y-26412094D01*
X61973569Y-26418414D01*
X62088355Y-26771689D01*
X62230505Y-27114870D01*
X62299561Y-27250400D01*
X62399142Y-27445839D01*
X62578712Y-27738873D01*
X62593226Y-27762557D01*
X62681546Y-27884119D01*
X62811560Y-28063069D01*
X62811573Y-28063085D01*
X63052794Y-28345519D01*
X63052803Y-28345528D01*
X63153828Y-28446554D01*
X63153830Y-28446557D01*
X65985439Y-31278166D01*
X68803811Y-34096538D01*
X68803816Y-34096548D01*
X68836942Y-34129673D01*
X68836942Y-34129674D01*
X68902766Y-34195496D01*
X69053385Y-34304925D01*
X69219268Y-34389446D01*
X69396331Y-34446976D01*
X69469883Y-34458625D01*
X69580210Y-34476100D01*
X69580213Y-34476100D01*
X69602979Y-34476100D01*
X69661170Y-34495007D01*
X69677800Y-34510270D01*
X69697272Y-34532743D01*
X69818347Y-34610553D01*
X69924803Y-34641811D01*
X69956435Y-34651099D01*
X69956436Y-34651099D01*
X69956439Y-34651100D01*
X69956441Y-34651100D01*
X70100359Y-34651100D01*
X70100361Y-34651100D01*
X70238453Y-34610553D01*
X70359528Y-34532743D01*
X70453777Y-34423973D01*
X70513565Y-34293057D01*
X70527592Y-34195496D01*
X70534047Y-34150602D01*
X70534047Y-34150597D01*
X70513565Y-34008143D01*
X70453777Y-33877227D01*
X70359528Y-33768457D01*
X70359527Y-33768456D01*
X70359526Y-33768455D01*
X70238457Y-33690649D01*
X70238454Y-33690647D01*
X70238453Y-33690647D01*
X70238450Y-33690646D01*
X70100364Y-33650100D01*
X70100361Y-33650100D01*
X69956439Y-33650100D01*
X69956435Y-33650100D01*
X69818349Y-33690646D01*
X69818342Y-33690649D01*
X69697272Y-33768456D01*
X69683708Y-33784110D01*
X69631311Y-33815705D01*
X69599186Y-33817800D01*
X69579255Y-33815837D01*
X69560221Y-33812051D01*
X69479124Y-33787451D01*
X69461194Y-33780025D01*
X69439551Y-33768457D01*
X69386443Y-33740070D01*
X69370314Y-33729292D01*
X69301056Y-33672455D01*
X69293866Y-33665939D01*
X69182098Y-33554171D01*
X69154321Y-33499654D01*
X69163892Y-33439222D01*
X69207157Y-33395957D01*
X69267589Y-33386386D01*
X69279994Y-33389177D01*
X69297439Y-33394300D01*
X69297441Y-33394300D01*
X69441359Y-33394300D01*
X69441361Y-33394300D01*
X69579453Y-33353753D01*
X69700528Y-33275943D01*
X69794777Y-33167173D01*
X69854565Y-33036257D01*
X69869843Y-32929997D01*
X69875047Y-32893802D01*
X69875047Y-32893797D01*
X69854565Y-32751343D01*
X69794777Y-32620427D01*
X69703759Y-32515386D01*
X69680800Y-32466051D01*
X69678707Y-32452842D01*
X69671276Y-32405947D01*
X69661518Y-32375923D01*
X69624555Y-32262190D01*
X69555918Y-32127509D01*
X69486690Y-32032240D01*
X69467059Y-32005225D01*
X69425492Y-31963665D01*
X69425489Y-31963659D01*
X69425488Y-31963661D01*
X68274761Y-30812934D01*
X68242759Y-30780932D01*
X68107105Y-30676842D01*
X68072449Y-30626418D01*
X68074050Y-30565253D01*
X68111297Y-30516712D01*
X68167372Y-30499300D01*
X68783446Y-30499300D01*
X68832227Y-30499300D01*
X68837777Y-30499455D01*
X69127861Y-30515746D01*
X69138888Y-30516988D01*
X69422596Y-30565193D01*
X69433390Y-30567656D01*
X69709929Y-30647326D01*
X69720399Y-30650990D01*
X69944862Y-30743967D01*
X69986260Y-30761115D01*
X69996262Y-30765932D01*
X70248115Y-30905127D01*
X70257516Y-30911034D01*
X70492200Y-31077553D01*
X70500880Y-31084475D01*
X70717618Y-31278166D01*
X70721653Y-31281980D01*
X72865357Y-33425684D01*
X72893134Y-33480201D01*
X72894353Y-33495688D01*
X72894353Y-33500002D01*
X72914834Y-33642456D01*
X72972377Y-33768455D01*
X72974623Y-33773373D01*
X73011304Y-33815705D01*
X73068873Y-33882144D01*
X73096653Y-33899997D01*
X73189947Y-33959953D01*
X73296403Y-33991211D01*
X73328035Y-34000499D01*
X73328036Y-34000499D01*
X73328039Y-34000500D01*
X73328041Y-34000500D01*
X73471959Y-34000500D01*
X73471961Y-34000500D01*
X73610053Y-33959953D01*
X73731128Y-33882143D01*
X73825377Y-33773373D01*
X73885165Y-33642457D01*
X73896878Y-33560992D01*
X73905647Y-33500002D01*
X73905647Y-33499997D01*
X73885165Y-33357543D01*
X73864431Y-33312143D01*
X73825377Y-33226627D01*
X73731128Y-33117857D01*
X73731127Y-33117856D01*
X73731126Y-33117855D01*
X73610057Y-33040049D01*
X73610054Y-33040047D01*
X73610053Y-33040047D01*
X73610050Y-33040046D01*
X73471964Y-32999500D01*
X73471961Y-32999500D01*
X73400835Y-32999500D01*
X73342644Y-32980593D01*
X73330831Y-32970504D01*
X72270266Y-31909939D01*
X71149625Y-30789298D01*
X71149622Y-30789296D01*
X71145458Y-30785132D01*
X71145378Y-30785061D01*
X71064727Y-30704411D01*
X71064720Y-30704404D01*
X70812854Y-30497701D01*
X70541943Y-30316683D01*
X70541940Y-30316681D01*
X70541935Y-30316678D01*
X70404098Y-30243002D01*
X70254587Y-30163085D01*
X70254569Y-30163077D01*
X69953550Y-30038389D01*
X69953539Y-30038385D01*
X69641753Y-29943805D01*
X69322179Y-29880238D01*
X69322167Y-29880236D01*
X69076962Y-29856085D01*
X68997916Y-29848300D01*
X68997913Y-29848300D01*
X68021621Y-29848300D01*
X67963430Y-29829393D01*
X67946801Y-29814130D01*
X67927328Y-29791657D01*
X67927327Y-29791656D01*
X67806257Y-29713849D01*
X67806253Y-29713847D01*
X67747907Y-29696715D01*
X67697401Y-29662178D01*
X67676840Y-29604551D01*
X67676800Y-29601725D01*
X67676800Y-28677136D01*
X67695707Y-28618945D01*
X67745207Y-28582981D01*
X67775795Y-28578136D01*
X67786121Y-28578136D01*
X67786122Y-28578136D01*
X67805416Y-28575078D01*
X67965783Y-28549669D01*
X68138780Y-28493447D01*
X68300851Y-28410855D01*
X68448007Y-28303925D01*
X68505230Y-28246696D01*
X70247995Y-26503929D01*
X70302512Y-26476153D01*
X70362944Y-26485724D01*
X70388003Y-26503930D01*
X70448338Y-26564265D01*
X70448352Y-26564293D01*
X70475979Y-26591920D01*
X70475979Y-26591921D01*
X70552484Y-26668427D01*
X70645270Y-26739623D01*
X70687059Y-26771689D01*
X70724159Y-26800156D01*
X70911560Y-26908351D01*
X70911561Y-26908351D01*
X70911564Y-26908353D01*
X71111466Y-26991153D01*
X71111472Y-26991155D01*
X71111479Y-26991158D01*
X71320497Y-27047161D01*
X71320496Y-27047161D01*
X71348737Y-27050878D01*
X71535037Y-27075402D01*
X71643232Y-27075400D01*
X71774579Y-27075400D01*
X71832770Y-27094307D01*
X71849399Y-27109570D01*
X71868871Y-27132042D01*
X71868872Y-27132043D01*
X71989947Y-27209853D01*
X72096403Y-27241111D01*
X72128035Y-27250399D01*
X72128036Y-27250399D01*
X72128039Y-27250400D01*
X72128041Y-27250400D01*
X72271959Y-27250400D01*
X72271961Y-27250400D01*
X72410053Y-27209853D01*
X72531128Y-27132043D01*
X72625377Y-27023273D01*
X72685165Y-26892357D01*
X72705647Y-26749900D01*
X72704169Y-26739623D01*
X72685165Y-26607443D01*
X72662376Y-26557543D01*
X72625377Y-26476527D01*
X72531128Y-26367757D01*
X72531127Y-26367756D01*
X72531126Y-26367755D01*
X72410057Y-26289949D01*
X72410054Y-26289947D01*
X72410053Y-26289947D01*
X72410050Y-26289946D01*
X72271964Y-26249400D01*
X72271961Y-26249400D01*
X72128039Y-26249400D01*
X72128035Y-26249400D01*
X71989949Y-26289946D01*
X71989942Y-26289949D01*
X71868872Y-26367756D01*
X71868871Y-26367757D01*
X71849399Y-26390230D01*
X71797003Y-26421827D01*
X71774579Y-26424400D01*
X71702759Y-26424400D01*
X71702747Y-26424399D01*
X71647109Y-26424399D01*
X71639344Y-26424094D01*
X71494595Y-26412705D01*
X71479252Y-26410275D01*
X71395751Y-26390230D01*
X71341861Y-26377293D01*
X71327086Y-26372492D01*
X71196555Y-26318426D01*
X71182713Y-26311374D01*
X71062233Y-26237545D01*
X71049671Y-26228418D01*
X70987736Y-26175521D01*
X70955769Y-26123355D01*
X70960569Y-26062358D01*
X70998510Y-26016959D01*
X71082717Y-25962843D01*
X71119128Y-25939443D01*
X71213377Y-25830673D01*
X71273165Y-25699757D01*
X71282958Y-25631647D01*
X71293647Y-25557302D01*
X71293647Y-25557297D01*
X71273165Y-25414843D01*
X71249290Y-25362565D01*
X71213377Y-25283927D01*
X71141121Y-25200539D01*
X71117305Y-25144180D01*
X71117419Y-25126005D01*
X71117937Y-25120747D01*
X71124452Y-25054602D01*
X71128235Y-25035581D01*
X71157840Y-24937983D01*
X71165259Y-24920070D01*
X71213339Y-24830115D01*
X71224115Y-24813988D01*
X71291841Y-24731457D01*
X71298348Y-24724276D01*
X72686290Y-23336334D01*
X76137346Y-23336334D01*
X76137346Y-23543269D01*
X76177715Y-23746220D01*
X76256904Y-23937399D01*
X76366982Y-24102143D01*
X76371869Y-24109457D01*
X76518191Y-24255779D01*
X76690248Y-24370743D01*
X76881426Y-24449932D01*
X77084381Y-24490302D01*
X77084382Y-24490302D01*
X77991310Y-24490302D01*
X77991311Y-24490302D01*
X78194266Y-24449932D01*
X78343435Y-24388143D01*
X78404429Y-24383343D01*
X78456598Y-24415312D01*
X78459976Y-24420094D01*
X78460197Y-24419925D01*
X78464145Y-24425070D01*
X78464146Y-24425071D01*
X78464148Y-24425074D01*
X78562734Y-24523660D01*
X78562736Y-24523661D01*
X78683473Y-24593369D01*
X78683471Y-24593369D01*
X78683475Y-24593370D01*
X78683477Y-24593371D01*
X78818148Y-24629456D01*
X78818150Y-24629456D01*
X78957568Y-24629456D01*
X78957570Y-24629456D01*
X79092241Y-24593371D01*
X79092243Y-24593369D01*
X79092245Y-24593369D01*
X79128114Y-24572659D01*
X79212984Y-24523660D01*
X79311570Y-24425074D01*
X79381281Y-24304331D01*
X79417366Y-24169660D01*
X79417366Y-24030238D01*
X79381281Y-23895567D01*
X79381279Y-23895564D01*
X79381279Y-23895562D01*
X79311571Y-23774826D01*
X79311570Y-23774824D01*
X79212984Y-23676238D01*
X79206754Y-23672641D01*
X79092244Y-23606528D01*
X79092240Y-23606526D01*
X79011722Y-23584951D01*
X78960408Y-23551627D01*
X78938482Y-23494505D01*
X78938346Y-23489325D01*
X78938346Y-23336338D01*
X78938345Y-23336334D01*
X78937928Y-23334240D01*
X78897976Y-23133382D01*
X78818787Y-22942204D01*
X78703823Y-22770147D01*
X78557501Y-22623825D01*
X78557497Y-22623822D01*
X78385443Y-22508860D01*
X78194264Y-22429671D01*
X77991313Y-22389302D01*
X77991311Y-22389302D01*
X77084381Y-22389302D01*
X77084378Y-22389302D01*
X76881427Y-22429671D01*
X76690248Y-22508860D01*
X76518194Y-22623822D01*
X76371866Y-22770150D01*
X76256904Y-22942204D01*
X76177715Y-23133383D01*
X76137346Y-23336334D01*
X72686290Y-23336334D01*
X76811950Y-19210673D01*
X76811973Y-19210655D01*
X76826086Y-19196542D01*
X76826116Y-19196526D01*
X76855095Y-19167543D01*
X76855096Y-19167544D01*
X76900232Y-19122403D01*
X76959818Y-19040382D01*
X77009315Y-19004418D01*
X77070501Y-19004415D01*
X77120002Y-19040377D01*
X77138912Y-19098567D01*
X77131257Y-19133770D01*
X77131529Y-19133850D01*
X77130415Y-19137642D01*
X77129971Y-19139686D01*
X77129534Y-19140641D01*
X77129534Y-19140643D01*
X77109053Y-19283097D01*
X77109053Y-19283102D01*
X77129534Y-19425556D01*
X77187686Y-19552889D01*
X77189323Y-19556473D01*
X77246226Y-19622143D01*
X77283573Y-19665244D01*
X77400673Y-19740499D01*
X77404647Y-19743053D01*
X77511103Y-19774311D01*
X77542735Y-19783599D01*
X77542736Y-19783599D01*
X77542739Y-19783600D01*
X77613865Y-19783600D01*
X77672056Y-19802507D01*
X77683869Y-19812596D01*
X78552561Y-20681288D01*
X78555538Y-20684399D01*
X78697913Y-20839773D01*
X78767327Y-20915524D01*
X78772875Y-20922136D01*
X78811566Y-20972559D01*
X78962387Y-21169114D01*
X78967341Y-21176188D01*
X79134615Y-21438756D01*
X79138933Y-21446236D01*
X79282678Y-21722366D01*
X79286328Y-21730193D01*
X79405462Y-22017809D01*
X79408416Y-22025925D01*
X79502031Y-22322831D01*
X79504266Y-22331173D01*
X79571646Y-22635101D01*
X79573146Y-22643607D01*
X79613780Y-22952253D01*
X79614533Y-22960856D01*
X79628206Y-23273995D01*
X79628300Y-23278314D01*
X79628300Y-24818836D01*
X79609393Y-24877027D01*
X79604120Y-24883667D01*
X79528422Y-24971028D01*
X79468634Y-25101943D01*
X79460346Y-25159589D01*
X79433350Y-25214497D01*
X79379236Y-25243050D01*
X79362354Y-25244500D01*
X75907790Y-25244500D01*
X75892036Y-25245119D01*
X75887737Y-25245288D01*
X75872254Y-25246507D01*
X75852340Y-25248864D01*
X75847622Y-25249611D01*
X75847598Y-25249614D01*
X75751920Y-25264767D01*
X75751899Y-25264771D01*
X75712911Y-25274131D01*
X75712907Y-25274133D01*
X75683478Y-25283696D01*
X75683451Y-25283706D01*
X75646436Y-25299038D01*
X75613554Y-25315792D01*
X75563620Y-25349157D01*
X75528474Y-25379175D01*
X75500121Y-25407528D01*
X75451413Y-25494506D01*
X75432503Y-25552703D01*
X75420000Y-25631647D01*
X75420000Y-29113598D01*
X75420307Y-29126125D01*
X75420786Y-29135865D01*
X75421707Y-29148349D01*
X75423733Y-29168912D01*
X75410620Y-29228676D01*
X75364883Y-29269318D01*
X75303993Y-29275315D01*
X75251206Y-29244375D01*
X75235157Y-29219743D01*
X75225377Y-29198327D01*
X75131128Y-29089557D01*
X75131127Y-29089556D01*
X75131126Y-29089555D01*
X75010057Y-29011749D01*
X75010054Y-29011747D01*
X75010053Y-29011747D01*
X75010050Y-29011746D01*
X74871964Y-28971200D01*
X74871961Y-28971200D01*
X74728039Y-28971200D01*
X74728035Y-28971200D01*
X74589949Y-29011746D01*
X74589942Y-29011749D01*
X74468873Y-29089555D01*
X74374622Y-29198328D01*
X74314834Y-29329243D01*
X74294353Y-29471697D01*
X74294353Y-29471702D01*
X74314834Y-29614156D01*
X74343003Y-29675836D01*
X74374623Y-29745073D01*
X74447686Y-29829393D01*
X74450319Y-29832431D01*
X74474137Y-29888790D01*
X74474500Y-29897262D01*
X74474500Y-31473259D01*
X74474448Y-31546605D01*
X74501087Y-31742430D01*
X74501092Y-31742454D01*
X74553881Y-31932885D01*
X74553890Y-31932910D01*
X74631872Y-32114497D01*
X74631875Y-32114502D01*
X74631876Y-32114504D01*
X74710370Y-32245200D01*
X74724500Y-32296170D01*
X74724500Y-32613463D01*
X74715553Y-32654590D01*
X74654834Y-32787543D01*
X74634353Y-32929997D01*
X74634353Y-32930002D01*
X74654834Y-33072456D01*
X74698090Y-33167171D01*
X74714623Y-33203373D01*
X74777505Y-33275943D01*
X74808873Y-33312144D01*
X74928741Y-33389178D01*
X74929947Y-33389953D01*
X75036403Y-33421211D01*
X75068035Y-33430499D01*
X75068036Y-33430499D01*
X75068039Y-33430500D01*
X75068041Y-33430500D01*
X75211959Y-33430500D01*
X75211961Y-33430500D01*
X75350053Y-33389953D01*
X75471128Y-33312143D01*
X75565377Y-33203373D01*
X75625165Y-33072457D01*
X75638373Y-32980593D01*
X75645647Y-32930002D01*
X75645647Y-32929997D01*
X75625165Y-32787543D01*
X75565377Y-32656628D01*
X75565377Y-32656627D01*
X75471128Y-32547857D01*
X75420975Y-32515625D01*
X75382245Y-32468259D01*
X75375500Y-32432342D01*
X75375500Y-32212086D01*
X75376976Y-32201100D01*
X75376166Y-32201012D01*
X75377016Y-32193265D01*
X75375613Y-32163899D01*
X75375500Y-32159174D01*
X75375500Y-32115022D01*
X75375389Y-32114184D01*
X75372287Y-32094302D01*
X75372095Y-32090273D01*
X75362806Y-32065738D01*
X75359772Y-32056329D01*
X75353318Y-32032240D01*
X75348050Y-32023115D01*
X75341202Y-32008672D01*
X75335588Y-31993844D01*
X75335586Y-31993841D01*
X75324486Y-31980003D01*
X75315975Y-31967559D01*
X75310466Y-31958017D01*
X75310462Y-31958013D01*
X75304505Y-31952055D01*
X75292335Y-31937263D01*
X75231903Y-31847309D01*
X75223787Y-31832698D01*
X75174702Y-31723527D01*
X75169160Y-31707761D01*
X75139138Y-31591889D01*
X75136327Y-31575418D01*
X75134377Y-31552399D01*
X75125852Y-31451740D01*
X75125500Y-31443391D01*
X75125500Y-29897262D01*
X75144407Y-29839071D01*
X75149681Y-29832431D01*
X75225377Y-29745073D01*
X75285165Y-29614157D01*
X75302906Y-29490765D01*
X75329902Y-29435858D01*
X75384016Y-29407304D01*
X75444578Y-29416011D01*
X75488457Y-29458653D01*
X75491538Y-29465209D01*
X75491592Y-29465186D01*
X75492086Y-29466301D01*
X75502793Y-29488939D01*
X75502815Y-29488983D01*
X75503768Y-29490765D01*
X75540482Y-29559451D01*
X75540485Y-29559455D01*
X75560596Y-29591214D01*
X75577898Y-29614543D01*
X75588833Y-29628275D01*
X75588834Y-29628276D01*
X75667115Y-29689990D01*
X75667119Y-29689992D01*
X75667122Y-29689995D01*
X75721638Y-29717773D01*
X75721640Y-29717773D01*
X75721643Y-29717775D01*
X75788654Y-29739548D01*
X75797664Y-29742476D01*
X75797669Y-29742476D01*
X75797678Y-29742479D01*
X75838784Y-29748989D01*
X75852332Y-29751135D01*
X75872256Y-29753493D01*
X75887744Y-29754712D01*
X75907791Y-29755500D01*
X78645500Y-29755500D01*
X78703691Y-29774407D01*
X78739655Y-29823907D01*
X78744500Y-29854500D01*
X78744500Y-30305984D01*
X78744596Y-30313306D01*
X78744385Y-30313308D01*
X78727169Y-30371283D01*
X78688588Y-30402504D01*
X78689096Y-30403384D01*
X78683529Y-30406597D01*
X78683507Y-30406616D01*
X78683475Y-30406629D01*
X78562736Y-30476338D01*
X78464145Y-30574929D01*
X78460197Y-30580075D01*
X78457751Y-30578198D01*
X78421595Y-30610675D01*
X78360737Y-30616998D01*
X78343550Y-30611650D01*
X78341196Y-30610675D01*
X78194266Y-30549814D01*
X78194264Y-30549813D01*
X77991313Y-30509444D01*
X77991311Y-30509444D01*
X77084381Y-30509444D01*
X77084378Y-30509444D01*
X76881427Y-30549813D01*
X76690248Y-30629002D01*
X76518194Y-30743964D01*
X76371866Y-30890292D01*
X76256904Y-31062346D01*
X76177715Y-31253525D01*
X76137346Y-31456476D01*
X76137346Y-31663411D01*
X76177715Y-31866362D01*
X76256904Y-32057541D01*
X76360167Y-32212086D01*
X76371869Y-32229599D01*
X76518191Y-32375921D01*
X76690248Y-32490885D01*
X76881426Y-32570074D01*
X77084381Y-32610444D01*
X77084382Y-32610444D01*
X77991310Y-32610444D01*
X77991311Y-32610444D01*
X78194266Y-32570074D01*
X78385444Y-32490885D01*
X78557501Y-32375921D01*
X78575498Y-32357923D01*
X78630013Y-32330148D01*
X78690445Y-32339719D01*
X78733710Y-32382984D01*
X78744500Y-32427929D01*
X78744500Y-34899841D01*
X78744927Y-34914600D01*
X78745592Y-34926063D01*
X78746878Y-34940825D01*
X78755580Y-35015572D01*
X78760702Y-35044729D01*
X78760706Y-35044749D01*
X78765962Y-35067007D01*
X78765968Y-35067030D01*
X78774420Y-35095373D01*
X78800066Y-35166127D01*
X78805517Y-35179906D01*
X78810035Y-35190426D01*
X78816270Y-35203855D01*
X78927191Y-35425698D01*
X78928764Y-35428844D01*
X78928764Y-35428845D01*
X78953254Y-35468364D01*
X78953266Y-35468382D01*
X78974863Y-35497033D01*
X78974876Y-35497050D01*
X78991888Y-35517338D01*
X78991893Y-35517342D01*
X78991894Y-35517343D01*
X79072754Y-35575653D01*
X79128410Y-35601071D01*
X79185593Y-35619427D01*
X79187099Y-35619421D01*
X79188531Y-35619881D01*
X79193292Y-35620618D01*
X79193175Y-35621371D01*
X79245357Y-35638115D01*
X79278923Y-35680534D01*
X79319138Y-35777624D01*
X79319139Y-35777625D01*
X79407379Y-35892621D01*
X79414068Y-35897753D01*
X79448724Y-35948175D01*
X79450900Y-35995609D01*
X79429821Y-36101588D01*
X79426469Y-36114097D01*
X79359755Y-36310637D01*
X79354800Y-36322600D01*
X79262995Y-36508768D01*
X79256520Y-36519984D01*
X79141209Y-36692563D01*
X79133325Y-36702837D01*
X78994530Y-36861104D01*
X78990102Y-36865833D01*
X78198921Y-37657015D01*
X78198920Y-37657014D01*
X78198912Y-37657024D01*
X78193517Y-37662418D01*
X78193464Y-37662444D01*
X78071854Y-37784057D01*
X77909806Y-37987262D01*
X77909804Y-37987265D01*
X77771537Y-38207321D01*
X77771531Y-38207330D01*
X77658769Y-38441488D01*
X77658766Y-38441493D01*
X77658764Y-38441500D01*
X77572926Y-38686820D01*
X77572925Y-38686824D01*
X77515094Y-38940209D01*
X77485998Y-39198476D01*
X77485998Y-39198479D01*
X77486000Y-39328424D01*
X77486000Y-39548228D01*
X77467093Y-39606419D01*
X77447269Y-39626768D01*
X77407386Y-39657372D01*
X77407377Y-39657381D01*
X77319139Y-39772374D01*
X77319137Y-39772378D01*
X77263670Y-39906290D01*
X77263669Y-39906291D01*
X77244750Y-40049999D01*
X77244750Y-40050000D01*
X77263669Y-40193708D01*
X77263670Y-40193709D01*
X77319139Y-40327625D01*
X77407379Y-40442621D01*
X77522375Y-40530861D01*
X77656291Y-40586330D01*
X77800000Y-40605250D01*
X77943709Y-40586330D01*
X78077625Y-40530861D01*
X78192621Y-40442621D01*
X78280861Y-40327625D01*
X78336330Y-40193709D01*
X78355250Y-40050000D01*
X78346072Y-39980291D01*
X78336330Y-39906291D01*
X78280861Y-39772375D01*
X78192621Y-39657379D01*
X78192616Y-39657375D01*
X78192613Y-39657372D01*
X78152731Y-39626768D01*
X78118076Y-39576343D01*
X78114000Y-39548228D01*
X78114000Y-39378158D01*
X78114001Y-39378155D01*
X78114000Y-39331660D01*
X78114212Y-39325187D01*
X78127997Y-39114820D01*
X78129684Y-39102002D01*
X78170179Y-38898407D01*
X78173525Y-38885919D01*
X78240250Y-38689343D01*
X78245199Y-38677399D01*
X78253861Y-38659834D01*
X78337007Y-38491225D01*
X78343472Y-38480027D01*
X78458801Y-38307420D01*
X78466653Y-38297186D01*
X78605496Y-38138862D01*
X78609882Y-38134179D01*
X79392929Y-37351132D01*
X79392939Y-37351125D01*
X79406474Y-37337590D01*
X79406529Y-37337561D01*
X79436259Y-37307829D01*
X79436260Y-37307830D01*
X79528149Y-37215939D01*
X79568099Y-37165842D01*
X79619161Y-37132135D01*
X79680285Y-37134879D01*
X79728122Y-37173027D01*
X79744500Y-37227567D01*
X79744500Y-37503643D01*
X79745151Y-37521886D01*
X79746157Y-37535951D01*
X79746530Y-37539412D01*
X79746530Y-37560572D01*
X79746160Y-37564013D01*
X79745150Y-37578127D01*
X79744500Y-37596354D01*
X79744500Y-41371651D01*
X79725593Y-41429842D01*
X79721554Y-41435029D01*
X79707354Y-41452068D01*
X79707335Y-41452094D01*
X74925097Y-47190778D01*
X74925091Y-47190786D01*
X74910013Y-47208879D01*
X74858235Y-47241478D01*
X74833960Y-47244500D01*
X73407790Y-47244500D01*
X73389410Y-47245222D01*
X73387739Y-47245288D01*
X73383188Y-47245646D01*
X73372254Y-47246507D01*
X73372249Y-47246507D01*
X73372231Y-47246509D01*
X73352363Y-47248859D01*
X73343187Y-47250312D01*
X73341644Y-47250556D01*
X73251917Y-47264767D01*
X73251907Y-47264769D01*
X73212922Y-47274130D01*
X73212912Y-47274132D01*
X73183466Y-47283701D01*
X73183450Y-47283707D01*
X73146421Y-47299045D01*
X73062887Y-47341608D01*
X73062846Y-47341631D01*
X73028695Y-47362558D01*
X73028691Y-47362561D01*
X73003635Y-47380763D01*
X73003627Y-47380769D01*
X73003624Y-47380772D01*
X72973143Y-47406803D01*
X72906803Y-47473143D01*
X72880772Y-47503624D01*
X72880763Y-47503635D01*
X72864432Y-47526114D01*
X72862558Y-47528695D01*
X72841631Y-47562846D01*
X72841608Y-47562887D01*
X72799045Y-47646421D01*
X72783707Y-47683450D01*
X72783701Y-47683466D01*
X72774132Y-47712912D01*
X72774130Y-47712922D01*
X72764769Y-47751907D01*
X72764767Y-47751917D01*
X72750556Y-47841644D01*
X72750557Y-47841645D01*
X72748859Y-47852363D01*
X72746509Y-47872231D01*
X72745288Y-47887739D01*
X72744500Y-47907800D01*
X72744500Y-49800500D01*
X72725593Y-49858691D01*
X72676093Y-49894655D01*
X72645500Y-49899500D01*
X58809637Y-49899500D01*
X58791791Y-49897878D01*
X58676049Y-49876666D01*
X58676031Y-49876664D01*
X58400006Y-49859967D01*
X58399994Y-49859967D01*
X58123960Y-49876664D01*
X57851934Y-49926517D01*
X57587901Y-50008797D01*
X57587897Y-50008799D01*
X57433069Y-50078485D01*
X57428930Y-50080236D01*
X57353487Y-50110152D01*
X57105394Y-50246710D01*
X56876394Y-50413268D01*
X56816807Y-50469282D01*
X56761458Y-50495361D01*
X56701350Y-50483927D01*
X56659443Y-50439346D01*
X56650000Y-50397148D01*
X56650000Y-47749500D01*
X56668907Y-47691309D01*
X56718407Y-47655345D01*
X56749000Y-47650500D01*
X67247505Y-47650500D01*
X67247506Y-47650500D01*
X67539993Y-47611993D01*
X67824952Y-47535639D01*
X68097507Y-47422743D01*
X68352994Y-47275238D01*
X68587042Y-47095646D01*
X68795646Y-46887042D01*
X68975238Y-46652994D01*
X69122743Y-46397507D01*
X69235639Y-46124952D01*
X69311993Y-45839993D01*
X69350500Y-45547506D01*
X69350500Y-45252494D01*
X69311993Y-44960007D01*
X69235639Y-44675048D01*
X69122743Y-44402493D01*
X68975238Y-44147006D01*
X68951950Y-44116657D01*
X68795651Y-43912964D01*
X68795649Y-43912962D01*
X68795646Y-43912958D01*
X68587042Y-43704354D01*
X68587037Y-43704350D01*
X68587035Y-43704348D01*
X68352997Y-43524764D01*
X68352994Y-43524762D01*
X68097507Y-43377257D01*
X68097503Y-43377255D01*
X68097499Y-43377253D01*
X67824953Y-43264361D01*
X67758183Y-43246470D01*
X67539993Y-43188007D01*
X67539986Y-43188006D01*
X67247506Y-43149500D01*
X62747506Y-43149500D01*
X62091216Y-43149500D01*
X62033025Y-43130593D01*
X61997061Y-43081093D01*
X61993224Y-43036411D01*
X62005647Y-42950003D01*
X62005647Y-42949997D01*
X61985165Y-42807543D01*
X61970899Y-42776305D01*
X61925377Y-42676627D01*
X61849680Y-42589267D01*
X61825863Y-42532907D01*
X61825500Y-42524436D01*
X61825500Y-37085397D01*
X61825594Y-37081080D01*
X61827280Y-37042456D01*
X61841243Y-36722589D01*
X61841993Y-36714018D01*
X61888544Y-36360405D01*
X61890044Y-36351903D01*
X61903280Y-36292197D01*
X61967235Y-36003709D01*
X61969469Y-35995373D01*
X61974590Y-35979132D01*
X62076718Y-35655218D01*
X62079661Y-35647131D01*
X62216157Y-35317597D01*
X62219784Y-35309817D01*
X62384483Y-34993431D01*
X62388787Y-34985976D01*
X62580428Y-34685157D01*
X62585363Y-34678110D01*
X62802488Y-34395147D01*
X62808026Y-34388546D01*
X63050204Y-34124253D01*
X63053146Y-34121179D01*
X64074330Y-33099996D01*
X64128847Y-33072219D01*
X64144334Y-33071000D01*
X64215459Y-33071000D01*
X64215461Y-33071000D01*
X64353553Y-33030453D01*
X64474628Y-32952643D01*
X64568877Y-32843873D01*
X64628665Y-32712957D01*
X64649147Y-32570500D01*
X64645891Y-32547857D01*
X64628665Y-32428043D01*
X64602481Y-32370709D01*
X64568877Y-32297127D01*
X64474628Y-32188357D01*
X64474627Y-32188356D01*
X64474626Y-32188355D01*
X64353557Y-32110549D01*
X64353554Y-32110547D01*
X64353553Y-32110547D01*
X64353550Y-32110546D01*
X64215464Y-32070000D01*
X64215461Y-32070000D01*
X64071539Y-32070000D01*
X64071535Y-32070000D01*
X63933449Y-32110546D01*
X63933442Y-32110549D01*
X63812373Y-32188355D01*
X63718122Y-32297128D01*
X63658334Y-32428043D01*
X63637853Y-32570497D01*
X63637853Y-32574811D01*
X63618946Y-32633002D01*
X63608857Y-32644815D01*
X62620592Y-33633080D01*
X62620553Y-33633099D01*
X62457144Y-33796508D01*
X62210257Y-34085576D01*
X62210250Y-34085585D01*
X61986774Y-34393172D01*
X61853567Y-34610550D01*
X61807839Y-34685172D01*
X61788124Y-34717344D01*
X61615526Y-35056088D01*
X61615518Y-35056106D01*
X61470034Y-35407340D01*
X61352549Y-35768925D01*
X61263798Y-36138609D01*
X61263797Y-36138617D01*
X61204327Y-36514109D01*
X61204325Y-36514124D01*
X61174499Y-36893143D01*
X61174499Y-36893149D01*
X61174499Y-36893150D01*
X61174500Y-37040383D01*
X61174500Y-42524436D01*
X61155593Y-42582627D01*
X61150320Y-42589267D01*
X61074622Y-42676628D01*
X61014834Y-42807543D01*
X60994353Y-42949997D01*
X60994353Y-42950003D01*
X61006776Y-43036411D01*
X60996343Y-43096701D01*
X60952464Y-43139343D01*
X60908784Y-43149500D01*
X56749000Y-43149500D01*
X56690809Y-43130593D01*
X56654845Y-43081093D01*
X56650000Y-43050500D01*
X56650000Y-30899997D01*
X58994353Y-30899997D01*
X58994353Y-30900002D01*
X59014834Y-31042456D01*
X59074623Y-31173373D01*
X59075316Y-31174173D01*
X59075660Y-31174989D01*
X59078453Y-31179334D01*
X59077701Y-31179816D01*
X59099136Y-31230531D01*
X59099500Y-31239008D01*
X59099500Y-33560992D01*
X59080593Y-33619183D01*
X59075321Y-33625821D01*
X59074623Y-33626626D01*
X59014834Y-33757543D01*
X58994353Y-33899997D01*
X58994353Y-33900002D01*
X59014834Y-34042456D01*
X59074623Y-34173373D01*
X59075316Y-34174173D01*
X59075660Y-34174989D01*
X59078453Y-34179334D01*
X59077701Y-34179816D01*
X59099136Y-34230531D01*
X59099500Y-34239008D01*
X59099500Y-36560992D01*
X59080593Y-36619183D01*
X59075321Y-36625821D01*
X59074623Y-36626626D01*
X59014834Y-36757543D01*
X58994353Y-36899997D01*
X58994353Y-36900002D01*
X59014834Y-37042456D01*
X59074623Y-37173373D01*
X59075316Y-37174173D01*
X59075660Y-37174989D01*
X59078453Y-37179334D01*
X59077701Y-37179816D01*
X59099136Y-37230531D01*
X59099500Y-37239008D01*
X59099500Y-39160992D01*
X59080593Y-39219183D01*
X59075321Y-39225821D01*
X59074623Y-39226626D01*
X59014834Y-39357543D01*
X58994353Y-39499997D01*
X58994353Y-39500002D01*
X59014834Y-39642456D01*
X59052148Y-39724160D01*
X59074623Y-39773373D01*
X59149543Y-39859836D01*
X59168873Y-39882144D01*
X59281210Y-39954338D01*
X59289947Y-39959953D01*
X59359213Y-39980291D01*
X59428035Y-40000499D01*
X59428036Y-40000499D01*
X59428039Y-40000500D01*
X59428041Y-40000500D01*
X59571959Y-40000500D01*
X59571961Y-40000500D01*
X59710053Y-39959953D01*
X59831128Y-39882143D01*
X59925377Y-39773373D01*
X59985165Y-39642457D01*
X60002638Y-39520930D01*
X60005647Y-39500002D01*
X60005647Y-39499997D01*
X59985165Y-39357543D01*
X59949671Y-39279823D01*
X59925377Y-39226627D01*
X59924679Y-39225821D01*
X59924332Y-39225001D01*
X59921549Y-39220670D01*
X59922298Y-39220188D01*
X59900863Y-39169461D01*
X59900500Y-39160992D01*
X59900500Y-37239008D01*
X59919407Y-37180817D01*
X59924684Y-37174173D01*
X59924807Y-37174029D01*
X59925377Y-37173373D01*
X59985165Y-37042457D01*
X60005647Y-36900000D01*
X60004662Y-36893150D01*
X59985165Y-36757543D01*
X59960181Y-36702837D01*
X59925377Y-36626627D01*
X59924679Y-36625821D01*
X59924332Y-36625001D01*
X59921549Y-36620670D01*
X59922298Y-36620188D01*
X59900863Y-36569461D01*
X59900500Y-36560992D01*
X59900500Y-34239008D01*
X59919407Y-34180817D01*
X59924684Y-34174173D01*
X59924807Y-34174029D01*
X59925377Y-34173373D01*
X59985165Y-34042457D01*
X60005647Y-33900000D01*
X59994550Y-33822821D01*
X59985165Y-33757543D01*
X59954614Y-33690646D01*
X59925377Y-33626627D01*
X59924679Y-33625821D01*
X59924332Y-33625001D01*
X59921549Y-33620670D01*
X59922298Y-33620188D01*
X59900863Y-33569461D01*
X59900500Y-33560992D01*
X59900500Y-31239008D01*
X59919407Y-31180817D01*
X59924684Y-31174173D01*
X59924807Y-31174029D01*
X59925377Y-31173373D01*
X59985165Y-31042457D01*
X60005647Y-30900000D01*
X60004251Y-30890292D01*
X59985165Y-30757543D01*
X59960897Y-30704404D01*
X59925377Y-30626627D01*
X59831128Y-30517857D01*
X59831127Y-30517856D01*
X59831126Y-30517855D01*
X59710057Y-30440049D01*
X59710054Y-30440047D01*
X59710053Y-30440047D01*
X59710050Y-30440046D01*
X59571964Y-30399500D01*
X59571961Y-30399500D01*
X59428039Y-30399500D01*
X59428035Y-30399500D01*
X59289949Y-30440046D01*
X59289942Y-30440049D01*
X59168873Y-30517855D01*
X59074622Y-30626628D01*
X59014834Y-30757543D01*
X58994353Y-30899997D01*
X56650000Y-30899997D01*
X56650000Y-9193000D01*
X56668907Y-9134809D01*
X56718407Y-9098845D01*
X56749000Y-9094000D01*
X57520630Y-9094000D01*
X57533556Y-9094848D01*
X57557057Y-9097943D01*
X57590931Y-9102404D01*
X57615885Y-9109090D01*
X57663320Y-9128741D01*
X57685689Y-9141657D01*
X57726463Y-9172944D01*
X57744739Y-9191220D01*
X57760886Y-9212264D01*
X57781309Y-9269940D01*
X57763930Y-9328606D01*
X57757164Y-9337359D01*
X57712223Y-9389226D01*
X57652434Y-9520143D01*
X57631953Y-9662597D01*
X57631953Y-9662602D01*
X57652434Y-9805056D01*
X57712222Y-9935971D01*
X57712223Y-9935973D01*
X57772290Y-10005294D01*
X57806473Y-10044744D01*
X57806873Y-10045001D01*
X57927547Y-10122553D01*
X58034003Y-10153811D01*
X58065635Y-10163099D01*
X58065636Y-10163099D01*
X58065639Y-10163100D01*
X58065641Y-10163100D01*
X58209559Y-10163100D01*
X58209561Y-10163100D01*
X58347653Y-10122553D01*
X58468728Y-10044743D01*
X58562977Y-9935973D01*
X58622765Y-9805057D01*
X58643247Y-9662600D01*
X58636541Y-9615960D01*
X58622765Y-9520143D01*
X58590711Y-9449955D01*
X58562977Y-9389227D01*
X58468728Y-9280457D01*
X58468727Y-9280456D01*
X58464091Y-9275106D01*
X58465211Y-9274135D01*
X58437750Y-9228597D01*
X58436401Y-9221691D01*
X58428841Y-9173969D01*
X58428840Y-9173967D01*
X58428840Y-9173964D01*
X58399254Y-9082921D01*
X58383871Y-9035582D01*
X58317807Y-8905933D01*
X58232277Y-8788214D01*
X58232275Y-8788212D01*
X58211813Y-8767749D01*
X58211807Y-8767744D01*
X58180834Y-8736769D01*
X58140244Y-8696181D01*
X58140095Y-8696054D01*
X58129378Y-8685336D01*
X58129370Y-8685329D01*
X58011659Y-8599806D01*
X57882010Y-8533742D01*
X57882006Y-8533741D01*
X57743634Y-8488775D01*
X57743630Y-8488774D01*
X57743627Y-8488773D01*
X57743624Y-8488772D01*
X57743610Y-8488769D01*
X57599915Y-8466004D01*
X57599910Y-8466003D01*
X57574560Y-8466002D01*
X57574522Y-8466000D01*
X57568477Y-8466000D01*
X57527159Y-8466000D01*
X57527151Y-8465999D01*
X57477425Y-8465997D01*
X57477423Y-8465997D01*
X57469467Y-8465997D01*
X57469431Y-8466000D01*
X56749000Y-8466000D01*
X56690809Y-8447093D01*
X56654845Y-8397593D01*
X56650000Y-8367000D01*
X56650000Y-549500D01*
X56668907Y-491309D01*
X56718407Y-455345D01*
X56749000Y-450500D01*
X80546584Y-450500D01*
X80604775Y-469407D01*
G37*
%TD.AperFunction*%
%TA.AperFunction,Conductor*%
G36*
X81016458Y-4137778D02*
G01*
X81007890Y-4142145D01*
X80947458Y-4132574D01*
X80917583Y-4109195D01*
X80883835Y-4070247D01*
X80883834Y-4070246D01*
X80883444Y-4069796D01*
X80859627Y-4013436D01*
X80865756Y-3987076D01*
X81016458Y-4137778D01*
G37*
%TD.AperFunction*%
%TA.AperFunction,Conductor*%
G36*
X83139516Y-3989479D02*
G01*
X83129945Y-4049911D01*
X83116555Y-4069797D01*
X83116165Y-4070246D01*
X83116165Y-4070247D01*
X83088219Y-4102498D01*
X83082416Y-4109196D01*
X83030020Y-4140792D01*
X82984442Y-4136877D01*
X83136925Y-3984394D01*
X83139516Y-3989479D01*
G37*
%TD.AperFunction*%
%TA.AperFunction,Conductor*%
G36*
X81015558Y-1863121D02*
G01*
X80863074Y-2015605D01*
X80860483Y-2010520D01*
X80870054Y-1950088D01*
X80883444Y-1930202D01*
X80883830Y-1929755D01*
X80883835Y-1929753D01*
X80917586Y-1890800D01*
X80969979Y-1859207D01*
X81015558Y-1863121D01*
G37*
%TD.AperFunction*%
%TD*%
%TA.AperFunction,NonConductor*%
G36*
X70284447Y-3101508D02*
G01*
X70316657Y-3153529D01*
X70319500Y-3177085D01*
X70319500Y-6645505D01*
X70353031Y-7114326D01*
X70407242Y-7491373D01*
X70396809Y-7551662D01*
X70352931Y-7594305D01*
X70292368Y-7603012D01*
X70238254Y-7574459D01*
X70215316Y-7536726D01*
X70135181Y-7295958D01*
X70133190Y-7289177D01*
X70009176Y-6803296D01*
X70007674Y-6796391D01*
X69984470Y-6667781D01*
X69918637Y-6302894D01*
X69917633Y-6295910D01*
X69906933Y-6196382D01*
X69864027Y-5797300D01*
X69863526Y-5790287D01*
X69845562Y-5287333D01*
X69845500Y-5283805D01*
X69845500Y-3321913D01*
X69864407Y-3263722D01*
X69908738Y-3229598D01*
X69927306Y-3222404D01*
X70012637Y-3189348D01*
X70168383Y-3092913D01*
X70227811Y-3078355D01*
X70284447Y-3101508D01*
G37*
%TD.AperFunction*%
%TA.AperFunction,NonConductor*%
G36*
X71148501Y-2819130D02*
G01*
X71243236Y-2944579D01*
X71393959Y-3081981D01*
X71567363Y-3189348D01*
X71567367Y-3189349D01*
X71567368Y-3189350D01*
X71671262Y-3229598D01*
X71718694Y-3268249D01*
X71734500Y-3321913D01*
X71734500Y-8132522D01*
X71734512Y-8132713D01*
X71734512Y-8270664D01*
X71763868Y-8643704D01*
X71763869Y-8643713D01*
X71763870Y-8643718D01*
X71822402Y-9013287D01*
X71822402Y-9013289D01*
X71847831Y-9119209D01*
X71843030Y-9180206D01*
X71803293Y-9226732D01*
X71743798Y-9241015D01*
X71687270Y-9217600D01*
X71663038Y-9186634D01*
X71507877Y-8876662D01*
X71504941Y-8870234D01*
X71435081Y-8701579D01*
X71345672Y-8485726D01*
X71343214Y-8479136D01*
X71211782Y-8084246D01*
X71209791Y-8077465D01*
X71106871Y-7674225D01*
X71105369Y-7667320D01*
X71093766Y-7603012D01*
X71031475Y-7257757D01*
X71030471Y-7250774D01*
X71022531Y-7176917D01*
X70985982Y-6836965D01*
X70985481Y-6829955D01*
X70970563Y-6412265D01*
X70970500Y-6408731D01*
X70970500Y-2878793D01*
X70989407Y-2820602D01*
X71038907Y-2784638D01*
X71100093Y-2784638D01*
X71148501Y-2819130D01*
G37*
%TD.AperFunction*%
%TA.AperFunction,NonConductor*%
G36*
X60139235Y-10309960D02*
G01*
X60216339Y-10332600D01*
X60287465Y-10332600D01*
X60345656Y-10351507D01*
X60357469Y-10361596D01*
X61596953Y-11601080D01*
X61599930Y-11604191D01*
X61838324Y-11864351D01*
X61838821Y-11864893D01*
X61844373Y-11871509D01*
X62058316Y-12150323D01*
X62063270Y-12157398D01*
X62252099Y-12453800D01*
X62256417Y-12461280D01*
X62418689Y-12772999D01*
X62422339Y-12780826D01*
X62556828Y-13105512D01*
X62559782Y-13113628D01*
X62665463Y-13448802D01*
X62667698Y-13457145D01*
X62743760Y-13800240D01*
X62745260Y-13808745D01*
X62791132Y-14157174D01*
X62791885Y-14165777D01*
X62802177Y-14401488D01*
X62785826Y-14460449D01*
X62737942Y-14498537D01*
X62676815Y-14501206D01*
X62625870Y-14467533D01*
X62450660Y-14247832D01*
X62377800Y-14174973D01*
X60042643Y-11839816D01*
X60014866Y-11785299D01*
X60014677Y-11784052D01*
X60006265Y-11725543D01*
X59996840Y-11704907D01*
X59967485Y-11640627D01*
X59960510Y-11579840D01*
X59990596Y-11526563D01*
X60046252Y-11501145D01*
X60057538Y-11500500D01*
X60071959Y-11500500D01*
X60071961Y-11500500D01*
X60210053Y-11459953D01*
X60331128Y-11382143D01*
X60425377Y-11273373D01*
X60485165Y-11142457D01*
X60505647Y-11000000D01*
X60494994Y-10925908D01*
X60485165Y-10857543D01*
X60437380Y-10752910D01*
X60425377Y-10726627D01*
X60331128Y-10617857D01*
X60331127Y-10617856D01*
X60331126Y-10617855D01*
X60210057Y-10540049D01*
X60210054Y-10540048D01*
X60210053Y-10540047D01*
X60156354Y-10524280D01*
X60087615Y-10504096D01*
X60045503Y-10479110D01*
X60041350Y-10474957D01*
X60013573Y-10420440D01*
X60023144Y-10360008D01*
X60066409Y-10316743D01*
X60126841Y-10307172D01*
X60139235Y-10309960D01*
G37*
%TD.AperFunction*%
%TA.AperFunction,NonConductor*%
G36*
X64129161Y-15817305D02*
G01*
X64175401Y-15857374D01*
X64186248Y-15882872D01*
X64217040Y-15997786D01*
X64217042Y-15997792D01*
X64217043Y-15997795D01*
X64311394Y-16257024D01*
X64344470Y-16347898D01*
X64346605Y-16409046D01*
X64312390Y-16459771D01*
X64254895Y-16480698D01*
X64196080Y-16463833D01*
X64174911Y-16444562D01*
X64121533Y-16379519D01*
X64110751Y-16363381D01*
X64053905Y-16257024D01*
X64048755Y-16247389D01*
X64041329Y-16229460D01*
X64003150Y-16103587D01*
X63999368Y-16084568D01*
X63985975Y-15948533D01*
X63985500Y-15938839D01*
X63985500Y-15935074D01*
X63985501Y-15915557D01*
X64004407Y-15857370D01*
X64009668Y-15850745D01*
X64015806Y-15843662D01*
X64068200Y-15812069D01*
X64129161Y-15817305D01*
G37*
%TD.AperFunction*%
%TA.AperFunction,NonConductor*%
G36*
X62762493Y-17211760D02*
G01*
X62771597Y-17226999D01*
X62777983Y-17240261D01*
X62933217Y-17487328D01*
X62975351Y-17540164D01*
X63115137Y-17715458D01*
X63184538Y-17784863D01*
X63184554Y-17784881D01*
X63230478Y-17830806D01*
X63230481Y-17830808D01*
X63260382Y-17860711D01*
X63260394Y-17860721D01*
X64255357Y-18855684D01*
X64283134Y-18910201D01*
X64284353Y-18925688D01*
X64284353Y-18930002D01*
X64304834Y-19072456D01*
X64335974Y-19140641D01*
X64364623Y-19203373D01*
X64433708Y-19283102D01*
X64458873Y-19312144D01*
X64492194Y-19333558D01*
X64579947Y-19389953D01*
X64686403Y-19421211D01*
X64718035Y-19430499D01*
X64718036Y-19430499D01*
X64718039Y-19430500D01*
X64718041Y-19430500D01*
X64861959Y-19430500D01*
X64861961Y-19430500D01*
X65000053Y-19389953D01*
X65000056Y-19389950D01*
X65004337Y-19388694D01*
X65065498Y-19390441D01*
X65113951Y-19427804D01*
X65122282Y-19442558D01*
X65154621Y-19513370D01*
X65154622Y-19513371D01*
X65154623Y-19513373D01*
X65191969Y-19556473D01*
X65248873Y-19622144D01*
X65362459Y-19695141D01*
X65369947Y-19699953D01*
X65476403Y-19731211D01*
X65508035Y-19740499D01*
X65508036Y-19740499D01*
X65508039Y-19740500D01*
X65508041Y-19740500D01*
X65651959Y-19740500D01*
X65651961Y-19740500D01*
X65790053Y-19699953D01*
X65873028Y-19646628D01*
X65932200Y-19631074D01*
X65989217Y-19653273D01*
X66022296Y-19704745D01*
X66021287Y-19758649D01*
X66002064Y-19822024D01*
X65994637Y-19839955D01*
X65936736Y-19948285D01*
X65925954Y-19964421D01*
X65845045Y-20063013D01*
X65838519Y-20070214D01*
X65638090Y-20270642D01*
X65637988Y-20270730D01*
X65625502Y-20283220D01*
X65625418Y-20283262D01*
X65597026Y-20311664D01*
X65554906Y-20336661D01*
X65549846Y-20338146D01*
X65428773Y-20415955D01*
X65334522Y-20524728D01*
X65274734Y-20655643D01*
X65254253Y-20798097D01*
X65254253Y-20798102D01*
X65274734Y-20940556D01*
X65334523Y-21071473D01*
X65352173Y-21091843D01*
X65375990Y-21148202D01*
X65362131Y-21207797D01*
X65332343Y-21238996D01*
X65236410Y-21303077D01*
X65236409Y-21303078D01*
X65222939Y-21316543D01*
X65222855Y-21316617D01*
X65188454Y-21351018D01*
X65188446Y-21351025D01*
X65147089Y-21392371D01*
X65147022Y-21392448D01*
X64286537Y-22252933D01*
X64280829Y-22258208D01*
X64166152Y-22356154D01*
X64153585Y-22365285D01*
X64028307Y-22442059D01*
X64014462Y-22449114D01*
X63974623Y-22465615D01*
X63913626Y-22470414D01*
X63861458Y-22438444D01*
X63838044Y-22381916D01*
X63846685Y-22333027D01*
X63905265Y-22204757D01*
X63925747Y-22062300D01*
X63924646Y-22054644D01*
X63905265Y-21919843D01*
X63845477Y-21788927D01*
X63751228Y-21680157D01*
X63751227Y-21680156D01*
X63751226Y-21680155D01*
X63630157Y-21602349D01*
X63630154Y-21602347D01*
X63630153Y-21602347D01*
X63630150Y-21602346D01*
X63492064Y-21561800D01*
X63492061Y-21561800D01*
X63420933Y-21561800D01*
X63362742Y-21542893D01*
X63350929Y-21532803D01*
X63224399Y-21406273D01*
X63071445Y-21253318D01*
X63067017Y-21248590D01*
X63048742Y-21227751D01*
X62930399Y-21092807D01*
X62922523Y-21082543D01*
X62836362Y-20953593D01*
X62809198Y-20912939D01*
X62802724Y-20901725D01*
X62755633Y-20806233D01*
X62712515Y-20718797D01*
X62707562Y-20706841D01*
X62689639Y-20654041D01*
X62641996Y-20513692D01*
X62638646Y-20501188D01*
X62621692Y-20415955D01*
X62598853Y-20301134D01*
X62597164Y-20288300D01*
X62596012Y-20270730D01*
X62583612Y-20081534D01*
X62583400Y-20075059D01*
X62583400Y-17269951D01*
X62602307Y-17211760D01*
X62651807Y-17175796D01*
X62712993Y-17175796D01*
X62762493Y-17211760D01*
G37*
%TD.AperFunction*%
%TA.AperFunction,NonConductor*%
G36*
X73959565Y-17027530D02*
G01*
X74002831Y-17070793D01*
X74012405Y-17131225D01*
X74011277Y-17137167D01*
X74008516Y-17149622D01*
X74006280Y-17157966D01*
X73899615Y-17496260D01*
X73896661Y-17504376D01*
X73760919Y-17832086D01*
X73757269Y-17839913D01*
X73593486Y-18154536D01*
X73589168Y-18162016D01*
X73398577Y-18461185D01*
X73393623Y-18468259D01*
X73177691Y-18749667D01*
X73172139Y-18756284D01*
X72931032Y-19019405D01*
X72928046Y-19022525D01*
X71913669Y-20036904D01*
X71859152Y-20064681D01*
X71843665Y-20065900D01*
X71772535Y-20065900D01*
X71634449Y-20106446D01*
X71634442Y-20106449D01*
X71513373Y-20184255D01*
X71419122Y-20293028D01*
X71359334Y-20423943D01*
X71338853Y-20566397D01*
X71338853Y-20566402D01*
X71359334Y-20708856D01*
X71419122Y-20839771D01*
X71419123Y-20839773D01*
X71513372Y-20948543D01*
X71536646Y-20963500D01*
X71550742Y-20972559D01*
X71589473Y-21019925D01*
X71592966Y-21081011D01*
X71567222Y-21125846D01*
X70489023Y-22204048D01*
X70489010Y-22204054D01*
X70384004Y-22309062D01*
X70383999Y-22309067D01*
X70283142Y-22440509D01*
X70232718Y-22475165D01*
X70171553Y-22473564D01*
X70123012Y-22436316D01*
X70105600Y-22380242D01*
X70105600Y-20699330D01*
X70105719Y-20694472D01*
X70106367Y-20681288D01*
X70119758Y-20408717D01*
X70120708Y-20399075D01*
X70162329Y-20118498D01*
X70164224Y-20108971D01*
X70164856Y-20106447D01*
X70233147Y-19833816D01*
X70235960Y-19824544D01*
X70331528Y-19557451D01*
X70335239Y-19548495D01*
X70351853Y-19513370D01*
X70410227Y-19389950D01*
X70456517Y-19292082D01*
X70461089Y-19283527D01*
X70606921Y-19040224D01*
X70612318Y-19032149D01*
X70619456Y-19022525D01*
X70781297Y-18804311D01*
X70787438Y-18796829D01*
X70979786Y-18584609D01*
X70983112Y-18581114D01*
X71017640Y-18546587D01*
X71017640Y-18546586D01*
X71461628Y-18102597D01*
X71480539Y-18083686D01*
X71486212Y-18078443D01*
X71629515Y-17956051D01*
X71642061Y-17946936D01*
X71799416Y-17850509D01*
X71813238Y-17843466D01*
X71983730Y-17772846D01*
X71998493Y-17768049D01*
X72177940Y-17724967D01*
X72193269Y-17722540D01*
X72363275Y-17709160D01*
X72381138Y-17707755D01*
X72388905Y-17707450D01*
X72444517Y-17707450D01*
X72444553Y-17707447D01*
X72511252Y-17707447D01*
X72511253Y-17707447D01*
X72761597Y-17674488D01*
X73005499Y-17609136D01*
X73238783Y-17512506D01*
X73457459Y-17386254D01*
X73657785Y-17232539D01*
X73708606Y-17181716D01*
X73708611Y-17181713D01*
X73718063Y-17172262D01*
X73718067Y-17172259D01*
X73783514Y-17106812D01*
X73783514Y-17106811D01*
X73787679Y-17102646D01*
X73787752Y-17102608D01*
X73816708Y-17073649D01*
X73816709Y-17073650D01*
X73844618Y-17045739D01*
X73899133Y-17017960D01*
X73959565Y-17027530D01*
G37*
%TD.AperFunction*%
%TA.AperFunction,NonConductor*%
G36*
X75505444Y-18800323D02*
G01*
X75530503Y-18818529D01*
X75537762Y-18825788D01*
X75557811Y-18854665D01*
X75578952Y-18900955D01*
X75584623Y-18913373D01*
X75678872Y-19022143D01*
X75678873Y-19022144D01*
X75797790Y-19098567D01*
X75799947Y-19099953D01*
X75799951Y-19099954D01*
X75806388Y-19102894D01*
X75805350Y-19105166D01*
X75846560Y-19133343D01*
X75867124Y-19190970D01*
X75849888Y-19249677D01*
X75838168Y-19263804D01*
X71149602Y-23952369D01*
X71095085Y-23980146D01*
X71034653Y-23970575D01*
X70991388Y-23927310D01*
X70980598Y-23882365D01*
X70980598Y-23875698D01*
X70980600Y-23875681D01*
X70980600Y-23591892D01*
X70980905Y-23584125D01*
X70981982Y-23570442D01*
X70990677Y-23459959D01*
X70993104Y-23444634D01*
X71021271Y-23327307D01*
X71026065Y-23312555D01*
X71072238Y-23201080D01*
X71079280Y-23187259D01*
X71142320Y-23084386D01*
X71151443Y-23071829D01*
X71232303Y-22977152D01*
X71237556Y-22971468D01*
X75390499Y-18818526D01*
X75445012Y-18790752D01*
X75505444Y-18800323D01*
G37*
%TD.AperFunction*%
%TA.AperFunction,NonConductor*%
G36*
X65307145Y-28425847D02*
G01*
X65526484Y-28492386D01*
X65699806Y-28526864D01*
X65813249Y-28549431D01*
X65813258Y-28549433D01*
X65987853Y-28566632D01*
X66104249Y-28578098D01*
X66199618Y-28578098D01*
X66199626Y-28578100D01*
X66250447Y-28578100D01*
X66302001Y-28578101D01*
X66302004Y-28578100D01*
X66926800Y-28578100D01*
X66984991Y-28597007D01*
X67020955Y-28646507D01*
X67025800Y-28677100D01*
X67025800Y-29696955D01*
X67025797Y-29696997D01*
X67025797Y-29714737D01*
X67025786Y-29714770D01*
X67025791Y-29828981D01*
X67025792Y-29828985D01*
X67054374Y-29972635D01*
X67092307Y-30064206D01*
X67098836Y-30116182D01*
X67090553Y-30173796D01*
X67090553Y-30173803D01*
X67096383Y-30214353D01*
X67085950Y-30274642D01*
X67042071Y-30317285D01*
X66981509Y-30325992D01*
X66935586Y-30304970D01*
X66868027Y-30249526D01*
X66860828Y-30243002D01*
X65208418Y-28590592D01*
X65180641Y-28536075D01*
X65190212Y-28475643D01*
X65233477Y-28432378D01*
X65293909Y-28422807D01*
X65307145Y-28425847D01*
G37*
%TD.AperFunction*%
%TA.AperFunction,NonConductor*%
G36*
X68088528Y-31557634D02*
G01*
X68119995Y-31578822D01*
X68911837Y-32370664D01*
X68911876Y-32370709D01*
X68916863Y-32375695D01*
X68948733Y-32407561D01*
X68957269Y-32417293D01*
X68984550Y-32452842D01*
X69004978Y-32510517D01*
X68987604Y-32569183D01*
X68980833Y-32577943D01*
X68944023Y-32620426D01*
X68884234Y-32751343D01*
X68863753Y-32893797D01*
X68863753Y-32893804D01*
X68878854Y-32998839D01*
X68868421Y-33059128D01*
X68824542Y-33101770D01*
X68763980Y-33110477D01*
X68710858Y-33082931D01*
X67592383Y-31964456D01*
X67564606Y-31909939D01*
X67574177Y-31849507D01*
X67617442Y-31806242D01*
X67634496Y-31799462D01*
X67769053Y-31759953D01*
X67890128Y-31682143D01*
X67975173Y-31583994D01*
X68027567Y-31552399D01*
X68088528Y-31557634D01*
G37*
%TD.AperFunction*%
M02*
