%TF.GenerationSoftware,KiCad,Pcbnew,8.0.3*%
%TF.CreationDate,2024-07-18T08:38:12+12:00*%
%TF.ProjectId,USB Cable Tester,55534220-4361-4626-9c65-205465737465,rev?*%
%TF.SameCoordinates,Original*%
%TF.FileFunction,Profile,NP*%
%FSLAX46Y46*%
G04 Gerber Fmt 4.6, Leading zero omitted, Abs format (unit mm)*
G04 Created by KiCad (PCBNEW 8.0.3) date 2024-07-18 08:38:12*
%MOMM*%
%LPD*%
G01*
G04 APERTURE LIST*
%TA.AperFunction,Profile*%
%ADD10C,0.050000*%
%TD*%
G04 APERTURE END LIST*
D10*
X11700000Y-11600000D02*
G75*
G02*
X12200000Y-12100000I0J-500000D01*
G01*
X11700000Y-25100000D02*
X500000Y-25100000D01*
X86600000Y1000000D02*
X86600000Y-5000000D01*
X500000Y-11600000D02*
X11700000Y-11600000D01*
X500000Y-11600000D02*
G75*
G02*
X0Y-11100000I0J500000D01*
G01*
X-1600000Y-56000000D02*
X-3000000Y-56000000D01*
X0Y-11100000D02*
X0Y-9700000D01*
X-1600000Y1000000D02*
X-1600000Y-5200000D01*
X85000000Y-9500000D02*
X85000000Y-45300000D01*
X0Y-25600000D02*
G75*
G02*
X500000Y-25100000I500000J0D01*
G01*
X85000000Y-3000000D02*
X85000000Y-4500000D01*
X3000000Y0D02*
X82000000Y0D01*
X0Y-52000000D02*
X0Y-50500000D01*
X88000000Y1000000D02*
X88000000Y-56000000D01*
X86600000Y-9000000D02*
X86600000Y-45800000D01*
X86600000Y-56000000D02*
X88000000Y-56000000D01*
X3000000Y-55000000D02*
G75*
G02*
X0Y-52000000I0J3000000D01*
G01*
X-1600000Y-56000000D02*
X-1600000Y-50000000D01*
X-1600000Y1000000D02*
X-3000000Y1000000D01*
X0Y-3000000D02*
G75*
G02*
X3000000Y0I2999998J2D01*
G01*
X0Y-4700000D02*
X0Y-3000000D01*
X3000000Y-55000000D02*
X82000000Y-55000000D01*
X86600000Y1000000D02*
X88000000Y1000000D01*
X12200000Y-12100000D02*
X12200000Y-24600000D01*
X86600000Y-56000000D02*
X86600000Y-49800000D01*
X-3000000Y-56000000D02*
X-3000000Y1000000D01*
X12200000Y-24600000D02*
G75*
G02*
X11700000Y-25100000I-500000J0D01*
G01*
X82000000Y0D02*
G75*
G02*
X85000000Y-3000000I0J-3000000D01*
G01*
X0Y-45500000D02*
X0Y-25600000D01*
X85000000Y-52000000D02*
G75*
G02*
X82000000Y-55000000I-3000000J0D01*
G01*
X85000000Y-50300000D02*
X85000000Y-52000000D01*
X-1600000Y-46000000D02*
X-1600000Y-9200000D01*
%TO.C,REF\u002A\u002A*%
X0Y-5200000D02*
X0Y-4700000D01*
X0Y-9200000D02*
X0Y-9700000D01*
X-800000Y-8400000D02*
G75*
G02*
X0Y-9200000I-1J-800001D01*
G01*
X0Y-5200000D02*
G75*
G02*
X-800000Y-6000000I-800000J0D01*
G01*
%TO.C,*%
X-1600000Y-50000000D02*
G75*
G02*
X-800000Y-49200000I800001J-1D01*
G01*
X-1600000Y-9200000D02*
G75*
G02*
X-800000Y-8400000I800001J-1D01*
G01*
X85800000Y-49000000D02*
G75*
G02*
X86600000Y-49800000I-1J-800001D01*
G01*
X-800000Y-46800000D02*
G75*
G02*
X-1600000Y-46000000I1J800001D01*
G01*
X-800000Y-6000000D02*
G75*
G02*
X-1600000Y-5200000I1J800001D01*
G01*
%TO.C,REF\u002A\u002A*%
X0Y-46000000D02*
X0Y-45500000D01*
X0Y-50000000D02*
X0Y-50500000D01*
X-800000Y-49200000D02*
G75*
G02*
X0Y-50000000I-1J-800001D01*
G01*
X0Y-46000000D02*
G75*
G02*
X-800000Y-46800000I-800000J0D01*
G01*
X85000000Y-5000000D02*
X85000000Y-4500000D01*
X85000000Y-9000000D02*
X85000000Y-9500000D01*
X85000000Y-9000000D02*
G75*
G02*
X85800000Y-8200000I800000J0D01*
G01*
X85800000Y-5800000D02*
G75*
G02*
X85000000Y-5000000I1J800001D01*
G01*
%TO.C,*%
X85800000Y-8200000D02*
G75*
G02*
X86600000Y-9000000I-1J-800001D01*
G01*
X86600000Y-45800000D02*
G75*
G02*
X85800000Y-46600000I-800001J1D01*
G01*
X86600000Y-5000000D02*
G75*
G02*
X85800000Y-5800000I-800001J1D01*
G01*
%TO.C,REF\u002A\u002A*%
X85000000Y-45800000D02*
X85000000Y-45300000D01*
X85000000Y-49800000D02*
X85000000Y-50300000D01*
X85000000Y-49800000D02*
G75*
G02*
X85800000Y-49000000I800000J0D01*
G01*
X85800000Y-46600000D02*
G75*
G02*
X85000000Y-45800000I1J800001D01*
G01*
%TD*%
M02*
