M48
; DRILL file {KiCad 8.0.3} date 2024-07-18T08:38:12+1200
; FORMAT={-:-/ absolute / inch / decimal}
; #@! TF.CreationDate,2024-07-18T08:38:12+12:00
; #@! TF.GenerationSoftware,Kicad,Pcbnew,8.0.3
; #@! TF.FileFunction,NonPlated,1,2,NPTH
FMAT,2
INCH
; #@! TA.AperFunction,NonPlated,NPTH,ComponentDrill
T1C0.0157
; #@! TA.AperFunction,NonPlated,NPTH,ComponentDrill
T2C0.0217
; #@! TA.AperFunction,NonPlated,NPTH,ComponentDrill
T3C0.0236
; #@! TA.AperFunction,NonPlated,NPTH,ComponentDrill
T4C0.0454
; #@! TA.AperFunction,NonPlated,NPTH,ComponentDrill
T5C0.0512
; #@! TA.AperFunction,NonPlated,NPTH,ComponentDrill
T6C0.0591
%
G90
G05
T1
X0.0Y-0.2126
X0.0Y-0.2362
X0.0Y-0.2598
X0.0Y-0.2835
X0.0Y-0.3071
X0.0Y-0.3307
X0.0Y-0.3543
X0.0Y-1.8189
X0.0Y-1.8425
X0.0Y-1.8661
X0.0Y-1.8898
X0.0Y-1.9134
X0.0Y-1.937
X0.0Y-1.9606
X3.3465Y-0.2047
X3.3465Y-0.2283
X3.3465Y-0.252
X3.3465Y-0.2756
X3.3465Y-0.2992
X3.3465Y-0.3228
X3.3465Y-0.3465
X3.3465Y-1.811
X3.3465Y-1.8346
X3.3465Y-1.8583
X3.3465Y-1.8819
X3.3465Y-1.9055
X3.3465Y-1.9291
X3.3465Y-1.9528
T2
X0.2362Y-1.3097
X0.2362Y-1.5774
X3.1102Y-1.3097
X3.1102Y-1.5774
T3
X3.1673Y-0.643
X3.1673Y-0.8005
T4
X0.1181Y-0.315
X0.1181Y-1.8504
X3.2283Y-0.315
X3.2283Y-1.8504
T5
X2.5834Y-1.5072
T6
X2.3746Y-1.716
M30
